<?xml version="1.0" encoding="UTF-8" standalone="no"?>
<svg
   width="364"
   height="838.16"
   viewBox="237 109.84 364 838.16"
   version="1.1"
   id="svg15"
   sodipodi:docname="traveler_cape.svg"
   xml:space="preserve"
   inkscape:version="1.2 (dc2aeda, 2022-05-15)"
   xmlns:inkscape="http://www.inkscape.org/namespaces/inkscape"
   xmlns:sodipodi="http://sodipodi.sourceforge.net/DTD/sodipodi-0.dtd"
   xmlns="http://www.w3.org/2000/svg"
   xmlns:svg="http://www.w3.org/2000/svg"><sodipodi:namedview
     id="namedview17"
     pagecolor="#ffffff"
     bordercolor="#000000"
     borderopacity="0.25"
     inkscape:showpageshadow="2"
     inkscape:pageopacity="0.0"
     inkscape:pagecheckerboard="0"
     inkscape:deskcolor="#d1d1d1"
     showgrid="false"
     inkscape:zoom="0.43956831"
     inkscape:cx="-361.71852"
     inkscape:cy="586.93949"
     inkscape:window-width="1309"
     inkscape:window-height="456"
     inkscape:window-x="47"
     inkscape:window-y="34"
     inkscape:window-maximized="0"
     inkscape:current-layer="svg15" /><defs
     id="defs9"><linearGradient
       id="capeShade"
       x1="0"
       x2="0"
       y1="0"
       y2="1"><stop
         offset="0%"
         stop-color="#2f3642"
         id="stop2" /><stop
         offset="55%"
         stop-color="#2b313c"
         id="stop4" /><stop
         offset="100%"
         stop-color="#262c35"
         id="stop6" /></linearGradient></defs><g
     id="g268"
     transform="matrix(0.69573392,0,0,0.90681904,128.62496,69.615395)"><path
       d="m 305,527.3692 c 15,43.59719 7,104.63325 -5,165.66931 -12,65.39578 0,141.25489 45,193.57152 35,41.85329 113,41.85329 148,0 45,-52.31663 57,-128.17574 45,-193.57152 -12,-61.03606 -18,-122.07212 -5,-165.66931 -37,30.51803 -192,30.51803 -228,0 z"
       fill="url(#capeShade)"
       opacity="0.96"
       id="path11"
       style="fill:#550000;stroke-width:0.933779" /><path
       d="m 322,546.55196 c 14,37.49358 8,87.19438 -2,141.25489 -10,57.54829 0,131.66351 36,176.13264 29,34.87775 96,34.87775 124,0 36,-44.46913 46,-118.58435 36,-176.13264 -10,-54.06051 -16,-103.76131 -4,-141.25489 -30,24.41443 -160,24.41443 -190,0 z"
       fill="#20262f"
       opacity="0.35"
       id="path13"
       style="fill:#ffccaa;stroke-width:0.933779" /></g></svg>
