<?xml version="1.0" encoding="UTF-8" standalone="no"?>
<svg
   width="364"
   height="838.16"
   viewBox="237 109.84 364 838.16"
   version="1.1"
   id="svg563"
   sodipodi:docname="studded-leggings.svg"
   inkscape:version="1.2 (dc2aeda, 2022-05-15)"
   xmlns:inkscape="http://www.inkscape.org/namespaces/inkscape"
   xmlns:sodipodi="http://sodipodi.sourceforge.net/DTD/sodipodi-0.dtd"
   xmlns="http://www.w3.org/2000/svg"
   xmlns:svg="http://www.w3.org/2000/svg">
  <defs
     id="defs567" />
  <sodipodi:namedview
     id="namedview565"
     pagecolor="#ffffff"
     bordercolor="#000000"
     borderopacity="0.25"
     inkscape:showpageshadow="2"
     inkscape:pageopacity="0.0"
     inkscape:pagecheckerboard="0"
     inkscape:deskcolor="#d1d1d1"
     showgrid="false"
     inkscape:zoom="1.286659"
     inkscape:cx="131.34793"
     inkscape:cy="659.45989"
     inkscape:window-width="1309"
     inkscape:window-height="673"
     inkscape:window-x="47"
     inkscape:window-y="34"
     inkscape:window-maximized="0"
     inkscape:current-layer="svg563" />
  <path
     d="m 302,880.72 c 0,-0.13 1.14,-8.33 2.53,-18.23 3.44,-24.47 5.95,-36.87 8.92,-43.99 2.71,-6.5 3.08,-8.5 1.59,-8.5 -0.54,0 -1.46,-0.92 -2.07,-2.05 -1.19,-2.22 0.44,-14.03 4.05,-29.45 1.03,-4.4 2.82,-12.5 3.99,-18 5.97,-28.13 13.42,-54.27 19.61,-68.88 3.30085,-9.79779 7.16756,-20.46785 15.49563,-24.27572 15.54571,-7.10801 40.43902,-1.66771 62.57679,-2.01337 20.94379,-0.32701 45.39553,-4.24281 60.626,1.03159 9.47515,3.2813 13.08769,11.64863 17.05852,21.98831 8.41,21.79 21.37306,70.64919 27.58306,105.92919 2.14,12.12 1.89,14.79 -1.47,16.08 -1.37,0.53 -1.39,0.94 -0.16,3.37 4.21,8.34 8.69,30.07 11.72,56.89 l 1.14,10.13 c -0.61269,36.19244 -42.51338,34.73513 -59.97,2.87 -4.72,-7.59 -13.02,-25.24 -15.58,-33.12 -2.5,-7.71 -4.7,-18.71 -6.17,-30.75 -0.69,-5.65 -0.75,-5.75 -3.89,-5.75 -4.47,0 -6.16,-1.73 -7.36,-7.5 -2.54,-12.32 -4.42,-19.88 -7.94,-32 l -3.79,-13 h -23.77 l -2.34,8 c -3.51,12 -9.38,36.2 -9.4,38.75 -0.02,3.64 -1.54,5.06 -6.11,5.67 l -4.31,0.58 -1.63,12.5 c -2.53,19.28 -7.21,32.93 -17.36,50.61 -23.39104,41.93972 -67.19785,36.27971 -63.57,3.11 z"
     fill="#3c3a3c"
     id="path561"
     style="fill:#ac9393;fill-opacity:1" />
  <path
     d="m 527.27461,802.59501 c -13.46169,6.85133 -27.19814,10.99779 -41.20936,12.43934 -14.01122,1.44156 -28.29721,0.17822 -42.85797,-3.79 l -0.10979,8.21077 c 15.76962,6.57703 30.22047,9.4633 44.23168,8.02174 14.01123,-1.44156 27.58284,-7.21094 41.70382,-16.86328 z"
     fill="#27303b"
     id="path316"
     style="fill:#501616;stroke-width:0.505271;image-rendering:auto"
     inkscape:label="path316" />
  <path
     d="m 311.59443,802.14401 c 13.46169,6.85133 27.19814,10.99779 41.20936,12.43934 14.01122,1.44156 28.29721,0.17822 42.85797,-3.79 l 0.10979,8.21077 c -15.76962,6.57703 -30.22047,9.4633 -44.23168,8.02174 -14.01123,-1.44156 -27.58284,-7.21094 -41.70382,-16.86328 z"
     fill="#27303b"
     id="path316-8"
     style="fill:#501616;stroke-width:0.505271;image-rendering:auto"
     inkscape:label="path316" />
  <ellipse
     style="fill:#501616;stroke:#4d4d4d;stroke-width:9.73522"
     id="path550"
     cx="418.08917"
     cy="731.60535"
     rx="21.825798"
     ry="29.101065" />
</svg>
