<?xml version="1.0" encoding="UTF-8" standalone="no"?>
<svg
   width="364.0"
   height="838.16"
   viewBox="237.0 109.84 364.0 838.16"
   version="1.1"
   id="svg1190"
   sodipodi:docname="hair_05.svg"
   inkscape:version="1.2 (dc2aeda, 2022-05-15)"
   xmlns:inkscape="http://www.inkscape.org/namespaces/inkscape"
   xmlns:sodipodi="http://sodipodi.sourceforge.net/DTD/sodipodi-0.dtd"
   xmlns="http://www.w3.org/2000/svg"
   xmlns:svg="http://www.w3.org/2000/svg">
  <sodipodi:namedview
     id="namedview1192"
     pagecolor="#ffffff"
     bordercolor="#000000"
     borderopacity="0.25"
     inkscape:showpageshadow="2"
     inkscape:pageopacity="0.0"
     inkscape:pagecheckerboard="0"
     inkscape:deskcolor="#d1d1d1"
     showgrid="false"
     inkscape:zoom="2.5095815"
     inkscape:cx="215.97226"
     inkscape:cy="207.60434"
     inkscape:window-width="1309"
     inkscape:window-height="456"
     inkscape:window-x="47"
     inkscape:window-y="34"
     inkscape:window-maximized="0"
     inkscape:current-layer="g501" />
  <defs
     id="defs674" />
  <g
     transform="matrix(0.59927488,0,0,0.70884944,-1015.2193,86.555555)"
     id="g1188">
    <g
       id="g501">
      <path
         style="fill:#604b42"
         d="m 2530.7155,259.19533 c 4.514,0.992 17.1121,-3.5904 22.9948,5.65429 12.1071,1.66486 23.4181,15.59752 25.8601,18.91152 13.4565,35.25467 10.8498,53.93972 13.6928,84.33372 2.846,30.394 -3.1406,64.37684 -16.4404,87.48002 -5.8435,-30.898 -13.313,-53.2749 -19.043,-83.6599 -2.203,-11.681 -6.163,-18.28646 -16.04,-24.89946 -4.118,-2.756 -8.316,-11.42882 -12.871,-13.38182 -15.081,-6.468 -19.7138,-23.1417 -24.3258,-38.7407 -1.641,-5.547 -5.021,-18.262 -1.459,-23.648 5.41,-8.184 19.0955,-13.92467 27.6315,-12.04967 z"
         id="path487"
         sodipodi:nodetypes="ccccccccccc" />
      <path
         style="fill:#775d51"
         d="m 2441.219,196.314 c -31.778,-18.741 -68.479,-26.387 -104.808,-28.26 -30.79,-1.587 -62.632,1.031 -90.341,15.341 -27.709,14.31 -50.64,42.109 -53.551,74.616 3.653,-8.756 10.507,-15.962 18.801,-19.766 -26.362,42.403 -37.824,94.948 -31.696,145.304 -0.18,-18.985 7.089,-37.928 19.723,-51.395 -16.616,27.23 -16.728,62.434 -10.201,94.112 9.4,45.633 31.585,88.224 63.017,120.981 -11.956,-30.059 -13.406,-64.141 -7.126,-96.074 6.28,-31.933 19.985,-61.848 37.161,-88.92 -8.79,28.241 -9.132,59.359 -0.964,87.809 2.161,-25.301 10.446,-49.988 23.847,-71.056 -1.692,6.986 -1.53,14.465 0.465,21.362 9.283,-19.842 26.308,-34.732 45.115,-44.404 18.807,-9.671 39.447,-14.581 60.01,-18.583 -9.265,7.242 -15.621,18.526 -17.237,30.602 10.396,-20.232 35.659,-24.483 57.374,-25.721 31.096,-1.773 80.195,-15.329 63.105,-60.839 -12.786,-34.051 -42.876,-67.525 -72.694,-85.109 z"
         id="path489" />
      <path
         style="fill:#604b42"
         d="m 2513.91,281.48 c -1.985,-5.288 -4.39,-10.562 -7.145,-15.765 2.379,14.963 -0.386,30.857 -10.869,41.441 -9.493,9.586 -23.333,13.134 -36.45,16.288 -11.078,2.664 -22.155,5.327 -33.233,7.991 8.348,-10.248 18.645,-18.904 30.174,-25.367 -24.708,-0.856 -49.551,2.271 -73.277,9.222 18.421,-11.196 38.347,-19.914 59.072,-25.842 -46.821,-5.43 -92.242,15.439 -134.76,35.784 15.26,-17.407 33.549,-32.152 53.796,-43.373 -38.47,7.301 -74.394,27.426 -100.712,56.419 2.443,-10.57 6.148,-20.847 11.011,-30.545 -18.159,24.832 -33.126,51.996 -44.415,80.613 -7.561,19.163 -13.479,40.617 -6.758,60.09 -21.364,-49.943 -15.964,-110.444 13.906,-155.814 -9.296,6.39 -17.489,14.381 -24.109,23.516 5.452,-15.045 13.055,-29.309 22.505,-42.222 -24.861,15.709 -44.174,39.961 -54.119,67.619 -0.943,14.018 -0.601,28.129 1.096,42.072 -0.18,-18.985 7.089,-37.928 19.723,-51.396 -16.616,27.23 -16.728,62.434 -10.201,94.112 9.4,45.633 31.585,88.224 63.017,120.981 -11.956,-30.059 -13.407,-64.142 -7.126,-96.074 6.28,-31.933 19.985,-61.848 37.161,-88.921 -8.79,28.241 -9.132,59.36 -0.965,87.81 2.162,-25.301 10.447,-49.988 23.848,-71.056 -1.693,6.986 -1.53,14.465 0.465,21.361 9.283,-19.842 26.308,-34.732 45.115,-44.403 18.807,-9.671 39.447,-14.581 60.01,-18.583 -9.265,7.243 -15.621,18.527 -17.237,30.603 10.396,-20.233 35.659,-24.483 57.374,-25.721 31.093,-1.774 80.192,-15.33 63.103,-60.84 z"
         id="path491" />
      <path
         style="fill:#604b42"
         d="m 2241.789,293.393 c 11.885,-16.8 28.434,-30.263 47.3,-38.481 -8.197,6.906 -14.599,15.926 -18.41,25.944 6.457,-7.896 15.842,-13.006 25.647,-15.813 9.807,-2.808 20.09,-3.474 30.287,-3.731 18.78,-0.474 38.364,0.591 54.869,9.564 -12.782,-12.49 -32.968,-12.705 -48.946,-20.708 21.625,-2.996 43.008,5.494 63.191,13.815 -9.454,-10.475 -22.744,-16.883 -36.424,-20.344 -13.68,-3.461 -27.881,-4.201 -41.974,-4.915 24.047,-10.749 51.982,-5.266 77.367,1.761 -38.449,-18.233 -83.16,-17.163 -125.317,-11.37 8.614,-1.184 19.154,0.568 26.765,4.747 -15.464,2.876 -21.118,5.967 -31.181,17.458 -10.748,12.276 -18.94,26.223 -23.174,42.073 z"
         id="path493" />
      <path
         style="fill:#604b42"
         d="m 2404.125,200.694 c 32.149,15.275 60.213,39.05 80.563,68.253 -0.724,-10.502 -7.31,-19.621 -14.247,-27.539 -21.285,-24.29 -48.428,-43.41 -78.465,-55.276 3.409,1.917 6.818,3.833 10.227,5.749 -31.689,-10.147 -66.879,-8.967 -97.817,3.281 30.925,-2.644 70.776,-8.228 99.739,5.532 z"
         id="path495" />
      <path
         style="fill:#84665b"
         d="m 2259.188,188.851 c -13.406,3.908 -25.784,11.29 -35.594,21.229 7.176,-2.802 14.352,-5.604 21.526,-8.407 -22.319,14.876 -37.963,39.398 -42.045,65.909 11.332,-19.259 28.444,-35.068 48.539,-44.843 -12.425,7.447 -22.07,19.419 -26.701,33.145 8.887,-10.738 17.863,-21.565 28.83,-30.167 10.967,-8.602 24.232,-14.919 38.167,-15.227 -11.72,-2.572 -23.96,-2.751 -35.751,-0.522 13.787,-7.405 28.41,-13.251 43.502,-17.392 -15.201,-0.587 -30.536,2.687 -44.171,9.431 13.699,-8.444 28.648,-14.855 44.208,-18.96 -18.271,0.847 -36.35,5.677 -52.607,14.058 z"
         id="path497" />
      <path
         style="fill:#84665b"
         d="m 2220.249,365.672 c 9.109,-27.956 23.43,-56.069 48.491,-71.445 -3.179,2.178 -5.657,5.361 -6.991,8.977 14.025,-10.833 29.655,-19.584 46.223,-25.878 -18.966,-5.203 -38.364,5.126 -55.323,15.085 4.052,-4.642 8.104,-9.284 12.154,-13.926 -10.371,11.883 -24.736,19.543 -31.896,34.235 -8.065,16.551 -12.808,34.473 -12.658,52.952 z"
         id="path499" />
    </g>
  </g>
</svg>
