<?xml version="1.0" encoding="UTF-8" standalone="no"?>
<svg
   width="364.0"
   height="838.16"
   viewBox="237.0 109.84 364.0 838.16"
   version="1.1"
   id="svg1582"
   sodipodi:docname="hair_03.svg"
   inkscape:version="1.2 (dc2aeda, 2022-05-15)"
   xmlns:inkscape="http://www.inkscape.org/namespaces/inkscape"
   xmlns:sodipodi="http://sodipodi.sourceforge.net/DTD/sodipodi-0.dtd"
   xmlns="http://www.w3.org/2000/svg"
   xmlns:svg="http://www.w3.org/2000/svg">
  <sodipodi:namedview
     id="namedview1584"
     pagecolor="#ffffff"
     bordercolor="#000000"
     borderopacity="0.25"
     inkscape:showpageshadow="2"
     inkscape:pageopacity="0.0"
     inkscape:pagecheckerboard="0"
     inkscape:deskcolor="#d1d1d1"
     showgrid="false"
     inkscape:zoom="1.0428187"
     inkscape:cx="185.07532"
     inkscape:cy="247.40639"
     inkscape:window-width="1309"
     inkscape:window-height="456"
     inkscape:window-x="47"
     inkscape:window-y="34"
     inkscape:window-maximized="0"
     inkscape:current-layer="svg1582" />
  <defs
     id="defs674" />
  <g
     transform="matrix(0.627737,0,0,0.627737,-654.1168,94.9212)"
     id="g1580">
    <g
       id="g447">
      <path
         style="fill:#775d51"
         d="m 1558.473,318.232 c 3.391,14.479 10.551,28.503 22.24,37.694 19.421,15.271 46.469,14.433 71.174,14.541 30.667,0.134 61.649,2.909 90.73,12.645 29.081,9.735 56.306,26.886 74.293,51.725 18.482,25.523 26.168,57.608 27.033,89.109 1.519,-4.631 3.919,-8.971 7.034,-12.72 0.753,8.45 1.506,16.899 2.259,25.349 4.585,-7.036 8.588,-14.452 11.954,-22.146 -0.271,7.09 0.54,14.221 2.399,21.069 4.031,-7.229 8.063,-14.459 12.094,-21.688 7.766,19.441 11.605,40.442 11.219,61.374 6.273,-50.382 12.547,-100.765 18.82,-151.147 3.643,-29.255 7.287,-58.871 3.652,-88.127 -3.634,-29.256 -15.374,-58.589 -37.83,-77.691 -16.088,-13.684 -141.706,-97.162 -267.949,-41.762 -7.699,3.379 -40.2,15.482 -48.869,35.842 -8.601,20.204 -4.62,47.286 -0.253,65.933 z"
         id="path429" />
      <path
         style="fill:#775d51"
         d="m 1529.203,286.058 c -12.276,5.409 -24.943,36.651 -24.434,62.103 0.441,22.074 5.332,42.039 12.129,63.045 1.958,6.048 4.302,12.022 5.252,18.307 0.804,5.315 0.589,10.722 0.625,16.097 0.084,12.876 1.62,25.741 4.566,38.275 9.303,-21.068 3.08,-46.141 10.559,-67.923 4.075,-11.87 12.133,-22.461 13.7,-34.913 1.021,-8.114 -0.81,-16.558 1.451,-24.418 4.118,-14.314 20.461,-22.55 24.422,-36.908 10.238,-37.114 -10.077,-50.493 -48.27,-33.665 z"
         id="path431" />
      <path
         style="fill:#604b42"
         d="m 1909.519,315.862 c 0.055,28.471 -3.157,57.266 -7.07,85.43 -1.15,-3.759 -2.302,-7.518 -3.452,-11.276 -0.139,16.7 -1.99,33.385 -5.519,49.707 -2.358,-33.62 -10.728,-66.81 -24.595,-97.528 8.119,45.525 8.484,92.424 1.073,138.071 -1.462,-7.043 -2.924,-14.087 -4.386,-21.13 -2.211,3.03 -3.678,6.6 -4.234,10.31 -2.319,-29.828 -10.119,-59.22 -22.893,-86.273 5.931,20.48 7.609,42.18 4.9,63.328 -8.386,-21.967 -18.753,-43.176 -30.936,-63.288 -7.791,-12.861 -17.983,-26.385 -32.835,-28.744 8.805,5.684 15.945,13.913 20.331,23.431 -55.043,-28.71 -119.681,-29.586 -181.163,-38.18 -10.38,-1.451 -20.945,-3.209 -30.198,-8.132 -30.229,-16.082 -32.369,-48.571 -29.76,-79.29 -0.017,0.04 -0.038,0.079 -0.056,0.119 -8.603,20.206 -4.622,47.288 -0.255,65.935 3.391,14.479 10.551,28.503 22.241,37.694 19.421,15.271 46.468,14.433 71.173,14.54 30.667,0.134 61.649,2.909 90.73,12.645 29.081,9.736 56.306,26.886 74.293,51.725 18.482,25.523 26.168,57.609 27.033,89.109 1.519,-4.631 3.919,-8.972 7.034,-12.72 0.753,8.45 1.506,16.899 2.259,25.349 4.584,-7.037 8.588,-14.452 11.954,-22.146 -0.271,7.09 0.541,14.221 2.399,21.069 4.031,-7.229 8.063,-14.458 12.094,-21.688 7.766,19.441 11.605,40.442 11.219,61.374 6.273,-50.382 12.547,-100.765 18.82,-151.147 3.643,-29.255 7.287,-58.871 3.652,-88.127 -0.837,-6.761 -2.115,-13.525 -3.853,-20.167 z"
         id="path433" />
      <path
         style="fill:#604b42"
         d="m 1609.731,308.568 c 12.585,5.03 26.131,7.068 39.535,9.07 17.38,2.594 34.761,5.189 52.141,7.784 21.603,3.225 43.793,6.65 62.682,17.618 -15.015,-12.202 -34.56,-16.961 -53.396,-21.382 -22.995,-5.397 -46.02,-10.8 -69.365,-14.396 -12.29,-1.893 -24.807,-3.322 -36.366,-7.906 -11.558,-4.585 -22.298,-12.888 -26.626,-24.545 6.29,16.939 13.089,26.44 31.395,33.757 z"
         id="path435" />
      <path
         style="fill:#604b42"
         d="m 1780.775,327.636 c 25.523,15.52 47.693,38.535 56.257,67.151 -3.872,-33.135 -28.323,-61.02 -57.245,-77.645 -28.922,-16.625 -62.146,-23.832 -94.768,-30.812 6.095,1.306 11.628,7.368 17.362,9.858 8.585,3.728 18.469,5.539 27.354,8.57 17.671,6.028 35.05,13.155 51.04,22.878 z"
         id="path437" />
      <path
         style="fill:#604b42"
         d="m 1573.688,332.286 c -2.5,-4.941 -5.6,-8.883 -9.273,-10.491 -7.92,-3.468 -25.675,14.605 -29.284,21.579 -5.887,11.376 1.246,25.609 -2.336,37.907 -0.263,0.901 -0.608,1.826 -1.31,2.45 -1.356,1.205 -3.563,0.899 -5.004,2.002 -1.82,1.393 -1.65,4.378 -3.38,5.881 -2.331,2.025 -5.861,-0.041 -8.192,-2.066 -1.701,-1.478 -3.401,-2.956 -5.103,-4.433 2.085,9.695 4.839,19.298 8.02,29.126 1.957,6.048 4.302,12.021 5.252,18.307 0.803,5.315 0.589,10.722 0.625,16.097 0.084,12.875 1.62,25.741 4.566,38.275 9.303,-21.067 3.08,-46.141 10.559,-67.922 4.076,-11.87 12.134,-22.461 13.701,-34.913 1.021,-8.114 -0.81,-16.558 1.451,-24.418 3.119,-10.847 13.255,-18.205 19.708,-27.381 z"
         id="path439" />
      <path
         style="fill:#84665b"
         d="m 1689.477,238.55 c 15.292,3.125 30.615,6.257 45.506,10.928 23.618,7.408 46.019,18.683 66.038,33.24 -2.133,-2.928 -4.266,-5.857 -6.398,-8.786 15.639,6.744 27.329,20.041 38.469,32.925 -11.225,-20.267 -28.029,-37.406 -48.07,-49.027 13.308,0.876 26.255,6.492 35.986,15.612 -19.396,-21.831 -44.194,-38.827 -71.553,-49.042 9.586,7.704 19.172,15.408 28.758,23.112 -37.596,-19.207 -79.982,-28.943 -122.19,-28.067 18.201,4.025 36.048,9.653 53.266,16.797 -28.725,-6.5 -58.814,-6.904 -87.704,-1.177 12.039,-0.262 24.089,-0.338 36.086,-1.217 10.703,-0.785 21.325,2.561 31.806,4.702 z"
         id="path441" />
      <path
         style="fill:#84665b"
         d="m 1857.252,317.743 c -0.06,-5.375 -0.12,-10.75 -0.18,-16.124 13.981,18.129 23.355,39.783 27.008,62.384 -1.508,-22.983 -8.862,-45.127 -16.156,-66.974 5.351,8.913 9.75,18.395 13.101,28.236 -2.372,-27.232 -12.99,-53.691 -30.101,-75.008 3.896,10.294 7.791,20.587 11.685,30.88 -11.779,-20.208 -31.276,-35.789 -53.586,-42.82 18.043,15.275 33.365,33.754 45.036,54.312 -4.941,-8.704 -15.403,-22.049 -25.083,-25.409 2.335,6.135 8.288,11.672 12.177,16.978 7.432,10.141 13.058,21.292 16.099,33.545 z"
         id="path443" />
      <path
         style="fill:#84665b"
         d="m 1517.206,326.012 c -1.146,10.77 -0.237,21.65 1.04,32.406 -0.902,-11.734 1.711,-23.715 7.416,-34.008 -3.329,6.593 -4.505,14.252 -3.307,21.54 2.405,-14.755 10.421,-28.525 22.064,-37.903 -5.215,1.932 -10.124,4.686 -14.49,8.131 3.757,-7.56 9.276,-14.237 15.991,-19.352 -8.719,2.214 -16.536,7.802 -21.452,15.336 3.63,-10.282 11.482,-19 21.328,-23.685 -3.567,1.697 -8.074,1.301 -11.843,3.393 -3.664,2.033 -6.358,4.421 -8.509,7.985 -4.765,7.899 -7.267,17.033 -8.238,26.157 z"
         id="path445" />
    </g>
  </g>
</svg>
