<?xml version="1.0" encoding="UTF-8" standalone="no"?>
<svg
   width="364.0"
   height="838.16"
   viewBox="237.0 109.84 364.0 838.16"
   version="1.1"
   id="svg439"
   sodipodi:docname="hair_10.svg"
   inkscape:version="1.2 (dc2aeda, 2022-05-15)"
   xmlns:inkscape="http://www.inkscape.org/namespaces/inkscape"
   xmlns:sodipodi="http://sodipodi.sourceforge.net/DTD/sodipodi-0.dtd"
   xmlns="http://www.w3.org/2000/svg"
   xmlns:svg="http://www.w3.org/2000/svg">
  <sodipodi:namedview
     id="namedview441"
     pagecolor="#ffffff"
     bordercolor="#000000"
     borderopacity="0.25"
     inkscape:showpageshadow="2"
     inkscape:pageopacity="0.0"
     inkscape:pagecheckerboard="0"
     inkscape:deskcolor="#d1d1d1"
     showgrid="false"
     inkscape:zoom="0.84852227"
     inkscape:cx="241.59649"
     inkscape:cy="440.17702"
     inkscape:window-width="1309"
     inkscape:window-height="737"
     inkscape:window-x="47"
     inkscape:window-y="34"
     inkscape:window-maximized="0"
     inkscape:current-layer="g437" />
  <defs
     id="defs674" />
  <g
     transform="translate(-1015.0350 -372.1716) scale(0.601399)"
     id="g437">
    <g
       id="g669"
       transform="translate(3.9192598,-117.57779)">
      <path
         style="fill:#775d51"
         d="m 2509.125,1187.237 -0.877,15.897 c -0.483,-13.568 -1.4,-28.294 -10.295,-38.553 -4.178,-4.818 -9.79,-8.188 -15.613,-10.788 -34.021,-15.188 -73.24,-5.505 -110.48,-4.366 -50.18,1.534 -99.252,-12.996 -148.728,-21.511 -6.528,-1.123 -13.77,-2.008 -19.318,1.611 -3.392,2.213 -5.606,5.799 -7.601,9.323 -23.625,41.742 -31.745,92.031 -22.459,139.088 3.475,17.609 9.285,34.744 11.789,52.519 2.431,17.257 1.701,34.831 3.927,52.115 3.423,26.583 13.721,53.954 5.127,79.342 4.604,2.701 10.852,-0.02 13.833,-4.448 2.98,-4.43 3.545,-10.001 4.021,-15.318 3.879,-43.22 7.758,-86.439 11.637,-129.66 40.979,1.562 82.115,3.119 122.915,-1.008 40.8,-4.127 81.532,-14.161 117.172,-34.448 16.128,-9.181 31.467,-20.802 41.058,-36.689 9.591,-15.888 12.538,-36.684 3.892,-53.106 z"
         id="path649" />
      <path
         style="fill:#775d51"
         d="m 2528.236,1280.345 c 5.76,4.276 9.544,10.678 12.638,17.15 10.671,22.329 14.644,49.233 4.384,71.755 -0.791,1.735 -1.679,3.676 -1.037,5.472 0.693,1.939 2.84,2.847 4.622,3.879 10.464,6.064 11.62,20.419 11.831,32.511 0.285,16.35 1.09,32.691 2.412,48.99 0.227,2.794 1.246,6.384 4.048,6.49 3.167,0.12 4.163,-4.206 4.077,-7.375 -0.473,-17.572 -0.946,-35.145 -1.42,-52.717 -0.198,-7.344 -0.355,-14.925 2.367,-21.747 2.723,-6.822 9.117,-12.741 16.46,-12.529 -4.79,-14.662 1.405,-30.316 5.214,-45.264 8.051,-31.6 5.113,-65.89 -8.196,-95.659 -6.819,-15.252 -16.681,-29.714 -30.86,-38.551 -24.217,-15.094 -61.544,-7.262 -65.309,25.148 -1.311,11.281 5.539,21.301 9.962,31.202 7.336,16.422 14.918,20.932 28.807,31.245 z"
         id="path651" />
      <g
         id="g657">
        <path
           style="fill:#604b42"
           d="m 2508.248,1205.979 c -0.483,-13.568 -1.4,-28.294 -10.295,-38.553 -2.468,-2.847 -5.443,-5.178 -8.66,-7.153 3.025,6.328 5.483,12.884 7.004,19.742 3.585,16.161 1.27,34.414 -9.622,46.882 4.22,-2.121 8.44,-4.242 12.66,-6.364 -16.373,28.752 -48.334,47.964 -81.406,48.934 8.547,-3.82 16.725,-8.464 24.384,-13.847 6.727,-4.727 13.134,-10.065 20.206,-14.173 -25.159,12.509 -50.646,24.658 -77.79,31.791 -29.7,7.806 -61.914,9.265 -90.643,-1.585 33.697,1.976 67.832,-3.953 98.889,-17.176 -11.871,-1.933 -23.877,1.324 -35.738,3.311 -58.582,9.814 -121.61,-13.792 -159.333,-59.675 4.562,21.026 10.025,43.618 26.402,57.573 11.676,9.949 27.679,14.266 38.076,25.545 -11.447,-1.69 -22.685,-4.793 -33.378,-9.216 8.109,10.632 19.828,18.46 32.755,21.879 -15.728,-2.304 -31.817,-4.725 -45.821,-12.243 -14.004,-7.518 -25.74,-21.283 -26.317,-37.167 0.24,12.948 1.341,26.18 5.496,38.526 2.146,6.375 14.095,20.475 11.033,26.406 -0.732,1.418 -11.485,4.319 -23.751,7.372 1.256,5.464 2.362,10.957 3.145,16.513 1.106,7.858 1.558,15.783 1.932,23.717 7.575,3.471 15.464,6.256 23.554,8.26 2.792,0.691 5.598,1.293 8.415,1.809 1.548,-17.252 3.096,-34.503 4.645,-51.755 40.979,1.562 82.115,3.118 122.915,-1.009 40.8,-4.127 81.532,-14.16 117.172,-34.447 16.128,-9.181 31.467,-20.802 41.058,-36.69 9.592,-15.888 12.538,-36.683 3.893,-53.104 z"
           id="path653" />
        <path
           style="fill:#604b42"
           d="m 2462.519,1241.447 c 2.37,-1.179 4.739,-2.359 7.104,-3.54 -2.46,1.009 -4.816,2.211 -7.104,3.54 z"
           id="path655" />
      </g>
      <g
         id="g663">
        <path
           style="fill:#604b42"
           d="m 2500.146,1243.643 -1.039,-4.126 c 0.223,1.403 0.576,2.784 1.039,4.126 z"
           id="path659" />
        <path
           style="fill:#604b42"
           d="m 2584.481,1231.299 c -6.819,-15.252 -16.682,-29.714 -30.86,-38.551 -8.235,-5.133 -17.987,-7.611 -27.42,-7.377 37.924,22.769 62.881,66.236 62.611,110.573 -2.495,-9.071 -4.99,-18.144 -7.485,-27.215 3.88,26.999 -3.048,54.253 -9.919,80.65 8.112,-38.42 -1.483,-80.213 -25.543,-111.246 8.829,19.507 16.28,40.601 14.01,61.891 -3.828,-16.036 -12.811,-30.801 -25.291,-41.574 -7.043,3.25 -15.601,3.003 -22.444,-0.649 -5.589,-2.983 -9.925,-8.181 -11.993,-14.158 l 4.109,16.302 c 0.054,0.078 0.107,0.157 0.162,0.234 0.058,-0.01 0.121,0 0.19,0.013 0.812,0.166 1.126,0.993 1.206,1.877 5.471,7.045 11.949,11.356 21.268,18.276 5.76,4.276 9.544,10.678 12.637,17.149 10.672,22.329 14.645,49.234 4.385,71.755 -0.791,1.735 -1.679,3.677 -1.037,5.473 0.693,1.939 2.84,2.846 4.622,3.878 10.463,6.065 11.62,20.419 11.83,32.511 0.285,16.35 1.09,32.691 2.413,48.991 0.227,2.794 1.246,6.383 4.048,6.489 3.167,0.121 4.163,-4.205 4.077,-7.375 -0.473,-17.572 -0.946,-35.145 -1.42,-52.717 -0.198,-7.343 -0.355,-14.924 2.367,-21.746 2.723,-6.823 9.117,-12.742 16.459,-12.53 -4.789,-14.662 1.406,-30.315 5.215,-45.263 8.051,-31.602 5.113,-65.892 -8.197,-95.661 z"
           id="path661" />
      </g>
      <path
         style="fill:#84665b"
         d="m 2217.252,1190.036 c 9.012,15.534 23.926,27.546 41.024,33.04 10.455,3.36 21.519,4.331 32.489,4.839 12.838,0.594 25.703,0.584 38.541,-0.029 -11.979,0.465 -24.071,-2.461 -34.513,-8.35 35.93,4.901 73.095,0.447 106.85,-12.807 -34.384,6.099 -70.116,4.462 -103.798,-4.756 -16.251,-4.447 -32.827,-11.212 -43.212,-24.479 4.307,13.111 13.347,24.61 25.069,31.891 -18.248,-4.289 -34.332,-17.015 -42.703,-33.788 5.401,11.619 12.137,22.618 20.029,32.712 -20.127,-11.129 -35.339,-30.808 -41.039,-53.09 -0.768,12.493 1.719,25.171 7.146,36.449 -8.235,-16.828 -9.329,-34.444 -14.515,-51.476 -3.816,16.469 0.25,35.397 8.632,49.844 z"
         id="path665" />
      <path
         style="fill:#84665b"
         d="m 2406.152,1217.145 c 12.121,-1.412 24.051,-4.45 35.371,-9.008 -6.525,7.946 -16.822,11.582 -26.669,14.54 -23.882,7.175 -48.323,12.484 -73.028,15.866 32.768,1.475 65.815,-3.57 96.65,-14.754 -11.69,11.731 -25.915,20.923 -41.414,26.761 32.098,-9.834 61.421,-28.558 83.848,-53.537 -11.289,5.51 -22.578,11.02 -33.867,16.53 15.162,-8.376 26.886,-22.775 32.014,-39.32 -10.721,12.086 -22.333,23.382 -34.711,33.765 14.165,-12.079 23.479,-33.649 19.345,-52.254 -7.274,13.29 -8.179,25.494 -19.042,37.066 -8.942,9.524 -24.822,22.977 -38.497,24.345 z"
         id="path667" />
    </g>
  </g>
</svg>
