<?xml version="1.0" encoding="UTF-8" standalone="no"?>
<svg
   width="364.0"
   height="838.16"
   viewBox="237.0 109.84 364.0 838.16"
   version="1.1"
   id="svg1022"
   sodipodi:docname="hair_06.svg"
   inkscape:version="1.2 (dc2aeda, 2022-05-15)"
   xmlns:inkscape="http://www.inkscape.org/namespaces/inkscape"
   xmlns:sodipodi="http://sodipodi.sourceforge.net/DTD/sodipodi-0.dtd"
   xmlns="http://www.w3.org/2000/svg"
   xmlns:svg="http://www.w3.org/2000/svg">
  <sodipodi:namedview
     id="namedview1024"
     pagecolor="#ffffff"
     bordercolor="#000000"
     borderopacity="0.25"
     inkscape:showpageshadow="2"
     inkscape:pageopacity="0.0"
     inkscape:pagecheckerboard="0"
     inkscape:deskcolor="#d1d1d1"
     showgrid="false"
     inkscape:zoom="0.9085203"
     inkscape:cx="-177.21123"
     inkscape:cy="244.35337"
     inkscape:window-width="1309"
     inkscape:window-height="456"
     inkscape:window-x="47"
     inkscape:window-y="34"
     inkscape:window-maximized="0"
     inkscape:current-layer="svg1022" />
  <defs
     id="defs674" />
  <g
     transform="matrix(0.58967694,0,0,0.66811543,-605.3034,-541.80804)"
     id="g1020">
    <g
       id="g535">
      <path
         style="fill:#775d51"
         d="m 1551.314,1308.667 c -3.802,15.429 -7.617,30.943 -8.84,46.787 -2.296,29.74 4.61,59.443 4.599,89.272 3.225,-25.014 6.873,-50.295 16.511,-73.601 9.637,-23.307 26.006,-44.775 48.807,-55.555 -0.54,0.256 -15.033,-12.603 -17.143,-14.03 -6.502,-4.398 -13.54,-8.439 -20.855,-11.334 -15.6,-6.176 -19.647,4.537 -23.079,18.461 z"
         id="path515" />
      <path
         style="fill:#775d51"
         d="m 1916.006,1302.345 c 3.802,15.43 7.617,30.943 8.841,46.787 2.296,29.74 -4.61,59.444 -4.6,89.272 -3.224,-25.014 -6.873,-50.295 -16.511,-73.602 -9.637,-23.307 -26.006,-44.774 -48.807,-55.554 0.539,0.255 15.032,-12.604 17.143,-14.03 6.502,-4.398 13.54,-8.439 20.854,-11.335 15.601,-6.175 19.649,4.539 23.08,18.462 z"
         id="path517" />
      <path
         style="fill:#775d51"
         d="m 1669.082,1129.72 c -5.428,-11.127 -7.41,-24.233 -2.467,-35.552 4.815,-11.025 15.662,-19.087 27.569,-23.584 11.908,-4.496 24.903,-5.838 37.732,-6.701 12.41,-0.835 25.064,-1.246 37.123,1.594 12.059,2.841 23.607,9.358 29.532,19.475 7.655,13.07 4.591,29.423 -2.045,42.961 -6.637,13.539 -16.521,25.57 -22.906,39.212 -4.866,10.397 -7.683,21.688 -14.169,31.3 -6.486,9.612 -18.191,17.527 -30.258,15.537 -21.016,-3.468 -21.272,-25.668 -28.156,-40.039 -7.84,-16.368 -23.937,-27.767 -31.955,-44.203 z"
         id="path519" />
      <path
         style="fill:#604b42"
         d="m 1799.453,1085.356 c -5.925,-10.115 -17.474,-16.634 -29.532,-19.474 -2.192,-0.517 -4.405,-0.923 -6.632,-1.241 10.518,7.817 18.555,18.021 20.011,30.203 0.997,8.338 -1.217,16.714 -3.968,24.708 -2.617,7.606 -5.737,15.064 -9.337,22.318 2.256,-10.454 2.204,-21.329 -0.152,-31.764 -1.351,9.102 -4.304,17.998 -8.707,26.234 2.174,-17.639 0.854,-35.639 -3.872,-52.845 1.589,20.746 -2.425,41.839 -11.578,60.838 2.92,-19.079 2.366,-38.609 -1.63,-57.52 1.927,24.103 -5.202,48.746 -19.888,68.743 -5.364,-12.389 -9.135,-25.367 -11.205,-38.573 -1.532,11.876 -3.064,23.752 -4.598,35.627 -10.419,-8.406 -18.712,-19.049 -24.038,-30.846 1.004,9.278 4.31,18.337 9.592,26.281 -2.634,-3.962 -12.289,-7.729 -16.219,-11.391 -3.662,-3.412 -6.931,-7.185 -9.762,-11.219 0.606,1.593 1.279,3.16 2.024,4.688 8.018,16.437 24.115,27.834 31.955,44.201 6.23,13.006 7.035,32.423 22.708,38.564 6.577,-0.191 13.132,-1.035 19.524,-2.61 2.493,-0.615 4.952,-1.33 7.382,-2.124 3.457,-2.636 6.468,-5.87 8.801,-9.328 6.486,-9.612 9.303,-20.902 14.17,-31.3 6.385,-13.642 16.269,-25.672 22.906,-39.211 6.636,-13.536 9.7,-29.887 2.045,-42.959 z"
         id="path521" />
      <path
         style="fill:#775d51"
         d="m 1558.845,1239.016 c -10.397,18.595 -15.587,41.917 -4.234,60.028 13.247,21.135 43.193,27.043 69.609,27.592 26.417,0.548 54.586,-1.754 77.523,10.372 12.106,6.399 24.795,16.966 37.914,12.592 7.2,-2.4 11.816,-8.747 17.746,-13.221 11.714,-8.84 27.925,-9.989 43.022,-10.758 22.586,-1.149 45.172,-2.299 67.758,-3.448 17.268,-0.879 36.711,-2.748 47.458,-15.272 7.049,-8.213 8.645,-19.394 7.873,-29.854 -1.98,-26.859 -17.896,-51.725 -39.343,-69.94 -21.446,-18.215 -48.095,-30.401 -75.358,-39.87 -21.297,-7.396 -43.736,-13.347 -66.453,-12.205 -20.059,1.008 -38.944,7.529 -58.233,12.071 -17.001,4.003 -33.749,3.625 -50.125,9.588 -31.968,11.64 -59.356,34.063 -75.157,62.325 z"
         id="path523" />
      <path
         style="fill:#604b42"
         d="m 1884.171,1207.107 c -10.044,-8.531 -21.239,-15.727 -33.094,-21.953 4.108,4.196 8.591,8.08 13.394,11.591 9.416,6.881 20.121,12.411 28.144,20.665 8.021,8.254 12.942,20.467 7.95,30.558 -6.416,-14.819 -20.079,-26.804 -36.423,-31.95 22.659,13.854 37.073,38.555 37.153,63.668 0.01,2.702 -1.338,6.375 -4.212,5.883 -1.24,-0.212 -2.123,-1.208 -2.836,-2.169 -2.014,-2.712 -3.597,-5.697 -4.682,-8.83 0.064,3.568 0.089,7.305 -1.68,10.477 -1.77,3.172 -5.959,5.497 -9.54,4.162 -3.021,-1.126 -4.458,-4.245 -5.639,-7.053 -7.904,-18.781 -17.882,-36.815 -29.728,-53.733 -11.04,-15.769 -25.55,-31.648 -45.552,-34.955 29.938,15.772 49.903,46.587 50.818,78.429 0.324,11.286 -3.127,24.561 -14.418,28.865 -1.339,-6.784 -2.679,-13.568 -4.018,-20.353 -1.22,7.06 -3.229,15.157 -10.16,18.328 -6.871,3.143 -15.514,-0.505 -20.086,-6.193 -4.571,-5.688 -6.153,-12.891 -8.001,-19.768 -8.222,-30.59 -24.101,-59.397 -46.044,-83.524 17.452,28.891 21.029,64.647 9.605,96.007 -1.878,-17.161 -4.867,-34.218 -8.947,-51.049 1.779,24.029 3.016,50.061 -11.477,70.077 -5.04,6.963 -14.047,13.318 -22.51,10.322 -5.702,-2.02 -8.881,-7.562 -11.164,-12.797 -8.958,-20.536 -11.787,-43.323 -8.095,-65.201 -3.529,6.545 -5.8,13.666 -6.676,20.933 -0.185,-23.453 3.803,-46.931 11.754,-69.204 -18.663,35.577 -27.516,75.507 -25.496,115.003 -12.559,-2.027 -25.241,-4.536 -36.469,-10.117 -11.228,-5.58 -20.976,-14.668 -24.243,-26.06 -0.832,5.326 -0.034,10.86 2.277,15.799 -15.639,-1.596 -25.85,-17.386 -25.631,-31.929 0.219,-14.543 8.039,-27.941 15.658,-40.666 -19.545,19.808 -28.571,48.095 -23.784,74.537 -11.641,1.203 -22.274,-6.099 -27.797,-15.092 -1.355,-2.206 -2.116,-4.942 -2.707,-7.854 -2.913,12.79 -2.204,25.926 4.791,37.084 13.247,21.134 43.193,27.042 69.609,27.591 26.417,0.548 54.586,-1.754 77.523,10.372 12.107,6.399 24.795,16.966 37.914,12.592 7.2,-2.4 11.816,-8.747 17.746,-13.221 11.714,-8.84 27.925,-9.989 43.022,-10.758 22.586,-1.149 45.172,-2.299 67.758,-3.448 17.268,-0.879 36.711,-2.748 47.458,-15.272 7.049,-8.212 8.645,-19.394 7.873,-29.854 -1.977,-26.859 -17.892,-51.725 -39.338,-69.94 z"
         id="path525" />
      <g
         id="g533">
        <path
           style="fill:#84665b"
           d="m 1831.287,1179.14 c 4.085,0.147 8.142,0.873 12.039,2.11 -11.146,-5.35 -22.77,-9.937 -34.512,-14.014 -21.297,-7.396 -43.736,-13.347 -66.453,-12.205 -20.059,1.008 -38.944,7.529 -58.233,12.071 -17.001,4.003 -33.749,3.625 -50.125,9.588 -31.969,11.641 -59.357,34.063 -75.158,62.324 -1.055,1.887 -2.052,3.823 -2.988,5.797 7.092,-9.898 15.677,-18.771 25.263,-26.283 18.666,-14.631 40.96,-24.283 64.074,-29.599 -6.377,5.049 -11.527,11.635 -14.89,19.04 7.66,-5.079 15.083,-10.515 22.236,-16.285 -11.215,16.52 -17.825,36.131 -18.898,56.069 7.329,-16.262 14.774,-32.715 25.906,-46.652 11.132,-13.938 26.532,-25.316 44.18,-27.899 -0.871,3.569 -1.744,7.138 -2.616,10.707 2.253,-2.77 4.506,-5.539 6.759,-8.309 0.664,-0.817 1.573,-1.724 2.597,-1.474 0.369,0.091 0.561,0.42 0.614,0.779 0.511,-0.639 1.021,-1.277 1.531,-1.916 -0.893,17.459 -1.786,34.919 -2.68,52.378 3.234,-20.219 9.219,-39.996 17.735,-58.616 1.581,4.74 4.144,9.151 7.481,12.871 0.05,-4.299 0.099,-8.598 0.148,-12.897 23.952,6.547 46.125,19.486 63.606,37.12 -5.394,-10.139 -10.787,-20.276 -16.181,-30.414 27.997,10.155 55.132,22.688 81.017,37.421 -8.116,-12.93 -19.338,-23.897 -32.452,-31.712 z"
           id="path527" />
        <path
           style="fill:#84665b"
           d="m 1711.082,1174.906 c -0.281,0.353 -0.563,0.705 -0.845,1.059 0.596,0.312 0.941,-0.422 0.845,-1.059 z"
           id="path529" />
        <path
           style="fill:#84665b"
           d="m 1858.088,1189.142 c 0.01,-0.054 -10e-4,-0.105 0,-0.16 -0.247,-0.142 -0.5,-0.275 -0.749,-0.416 0.249,0.191 0.503,0.378 0.747,0.576 z"
           id="path531" />
      </g>
    </g>
  </g>
</svg>
