<?xml version="1.0" encoding="UTF-8" standalone="no"?>
<svg
   viewBox="0 0 64 64"
   version="1.1"
   id="svg9"
   sodipodi:docname="Alchemy.svg"
   inkscape:version="1.2 (dc2aeda, 2022-05-15)"
   xmlns:inkscape="http://www.inkscape.org/namespaces/inkscape"
   xmlns:sodipodi="http://sodipodi.sourceforge.net/DTD/sodipodi-0.dtd"
   xmlns="http://www.w3.org/2000/svg"
   xmlns:svg="http://www.w3.org/2000/svg">
  <defs
     id="defs13" />
  <sodipodi:namedview
     id="namedview11"
     pagecolor="#ffffff"
     bordercolor="#000000"
     borderopacity="0.25"
     inkscape:showpageshadow="2"
     inkscape:pageopacity="0.0"
     inkscape:pagecheckerboard="0"
     inkscape:deskcolor="#d1d1d1"
     showgrid="false"
     inkscape:zoom="3.9295476"
     inkscape:cx="50.641962"
     inkscape:cy="34.100618"
     inkscape:window-width="1309"
     inkscape:window-height="456"
     inkscape:window-x="47"
     inkscape:window-y="34"
     inkscape:window-maximized="0"
     inkscape:current-layer="svg9" />
  <g fill="currentColor"
     id="icon"
     transform="matrix(0.073246,0,0,0.073246,13.316865,16.011015)">
	<g
   id="g4404">
		<path
   d="M 500.335,51.437 460.564,11.666 c -15.554,-15.554 -40.863,-15.554 -56.418,0 l -14.051,14.051 -4.121,-4.121 c -8.654,-8.654 -22.687,-8.654 -31.343,0 -8.655,8.654 -8.655,22.687 0,31.343 l 4.121,4.121 -84.825,84.825 C 201.2,108.824 114.069,123.955 56.742,181.28 20.152,217.873 0,266.523 0,318.269 c 0,51.746 20.152,100.396 56.741,136.987 36.591,36.592 85.24,56.743 136.989,56.743 51.747,0 100.398,-20.152 136.987,-56.743 57.327,-57.325 72.455,-144.456 39.397,-217.185 l 84.825,-84.825 4.121,4.121 c 4.328,4.328 10,6.492 15.671,6.492 5.671,0 11.344,-2.165 15.671,-6.492 8.655,-8.654 8.655,-22.687 0,-31.343 l -4.121,-4.121 14.051,-14.051 c 15.557,-15.553 15.557,-40.861 0.003,-56.415 z M 118.642,394.071 c -14.418,0 -26.148,-11.73 -26.148,-26.149 0,-14.419 11.73,-26.148 26.148,-26.148 14.419,0 26.149,11.729 26.149,26.148 0,14.419 -11.729,26.149 -26.149,26.149 z m 49.88,57.812 c -14.419,0 -26.149,-11.729 -26.149,-26.148 0,-14.419 11.73,-26.148 26.149,-26.148 14.418,0 26.148,11.729 26.148,26.148 0,14.419 -11.73,26.148 -26.148,26.148 z m 80.46,-20.042 c -14.419,0 -26.149,-11.729 -26.149,-26.148 0,-14.419 11.73,-26.148 26.149,-26.148 14.418,0 26.148,11.729 26.148,26.148 0,14.419 -11.73,26.148 -26.148,26.148 z m 79.051,-214.37 c -0.123,0.123 -0.225,0.256 -0.344,0.381 -7.088,6.854 -8.969,17.856 -3.883,26.832 4.124,7.277 7.572,14.797 10.362,22.479 -22.254,-4.267 -45.357,-4.103 -67.533,0.584 -12.506,2.642 -25.363,3.341 -38.049,2.139 -0.158,-0.047 -0.307,-0.109 -0.467,-0.152 l -22.967,-6.245 c -25.997,-7.067 -53.673,-7.859 -80.033,-2.29 -20.585,4.35 -42.12,3.463 -62.276,-2.562 l -5.458,-1.631 c 7.342,-16.322 17.665,-31.344 30.7,-44.379 47.349,-47.347 121.051,-57.395 179.231,-24.431 8.966,5.08 19.957,3.208 26.813,-3.862 0.132,-0.124 0.272,-0.233 0.4,-0.362 l 95.565,-95.566 33.503,33.503 z"
   id="path4402" />

	</g>

</g>
</svg>
