<?xml version="1.0" encoding="UTF-8" standalone="no"?>
<svg
   viewBox="0 0 64 64"
   version="1.1"
   id="svg5"
   sodipodi:docname="Carpentry.svg"
   inkscape:version="1.2 (dc2aeda, 2022-05-15)"
   xmlns:inkscape="http://www.inkscape.org/namespaces/inkscape"
   xmlns:sodipodi="http://sodipodi.sourceforge.net/DTD/sodipodi-0.dtd"
   xmlns="http://www.w3.org/2000/svg"
   xmlns:svg="http://www.w3.org/2000/svg">
  <defs
     id="defs9" />
  <sodipodi:namedview
     id="namedview7"
     pagecolor="#ffffff"
     bordercolor="#000000"
     borderopacity="0.25"
     inkscape:showpageshadow="2"
     inkscape:pageopacity="0.0"
     inkscape:pagecheckerboard="0"
     inkscape:deskcolor="#d1d1d1"
     showgrid="false"
     inkscape:zoom="3.6875"
     inkscape:cx="32"
     inkscape:cy="32"
     inkscape:window-width="1309"
     inkscape:window-height="456"
     inkscape:window-x="47"
     inkscape:window-y="34"
     inkscape:window-maximized="0"
     inkscape:current-layer="svg5" />
  <g
     id="icon"
     fill="currentColor"
     transform="matrix(2.5246277,0,0,2.5246277,18.869189,9.3578445)">
    <path
       d="M 11.405,5.34 A 0.554,0.554 0 1 1 10.409,5.825 5.563,5.563 0 0 0 9.034,4.043 1.201,1.201 0 0 0 7.248,5.093 v 0.61 A 0.476,0.476 0 0 1 6.773,6.178 H 4.293 A 0.476,0.476 0 0 1 3.818,5.703 v 0.07 A 1.194,1.194 0 0 0 3.622,5.116 2.145,2.145 0 0 1 3.538,5.003 1.202,1.202 0 0 0 1.598,5.137 0.554,0.554 0 0 1 0.538,4.907 V 2.627 A 0.554,0.554 0 0 1 1.608,2.425 1.2,1.2 0 0 0 3.51,2.573 2.176,2.176 0 0 1 3.647,2.387 L 3.654,2.376 H 3.657 A 2.167,2.167 0 0 1 5.325,1.595 h 0.03 A 0.516,0.516 0 0 1 5.413,1.592 6.662,6.662 0 0 1 11.406,5.34 Z M 6.768,7.455 A 0.476,0.476 0 0 0 6.293,6.98 H 4.578 A 0.477,0.477 0 0 0 4.103,7.455 V 16.9 a 0.476,0.476 0 0 0 0.475,0.475 H 6.293 A 0.476,0.476 0 0 0 6.768,16.9 Z"
       id="path2" />
  </g>
</svg>
