<?xml version="1.0" encoding="UTF-8" standalone="no"?>
<svg
   viewBox="0 0 64 64"
   version="1.1"
   id="svg9"
   sodipodi:docname="CombatRanged.svg"
   inkscape:version="1.2 (dc2aeda, 2022-05-15)"
   xmlns:inkscape="http://www.inkscape.org/namespaces/inkscape"
   xmlns:sodipodi="http://sodipodi.sourceforge.net/DTD/sodipodi-0.dtd"
   xmlns="http://www.w3.org/2000/svg"
   xmlns:svg="http://www.w3.org/2000/svg">
  <defs
     id="defs13" />
  <sodipodi:namedview
     id="namedview11"
     pagecolor="#ffffff"
     bordercolor="#000000"
     borderopacity="0.25"
     inkscape:showpageshadow="2"
     inkscape:pageopacity="0.0"
     inkscape:pagecheckerboard="0"
     inkscape:deskcolor="#d1d1d1"
     showgrid="false"
     inkscape:zoom="3.6875"
     inkscape:cx="32.271186"
     inkscape:cy="32"
     inkscape:window-width="1309"
     inkscape:window-height="456"
     inkscape:window-x="47"
     inkscape:window-y="34"
     inkscape:window-maximized="0"
     inkscape:current-layer="svg9" />
  <g
     id="icon"
     fill="currentColor"
     transform="matrix(0.09639806,0,0,0.09851709,7.3221175,6.7796619)">
    <path
       d="m 488.697,1.371 -82.13,34.813 c -6.181,2.62 -10.2,8.685 -10.2,15.4 v 40.391 l -242.21,242.21 -61.17,-20.388 c -6.007,-2.01 -12.639,-0.452 -17.116,4.041 L 4.901,388.81 c -8.776,8.775 -5.253,23.775 6.535,27.696 l 63.04,21.017 21.017,63.04 c 3.891,11.696 18.849,15.383 27.696,6.534 l 70.972,-70.972 c 4.482,-4.482 6.045,-11.103 4.04,-17.116 l -20.388,-61.17 242.21,-242.21 h 40.39 c 6.715,0 12.781,-4.019 15.4,-10.2 l 34.813,-82.13 C 516.5,9.451 502.456,-4.481 488.697,1.371 Z"
       id="path2" />
    <path
       d="M 272.478,168.552 343.466,97.565 C 223.279,12.112 70.923,6.406 6.391,59.497 3.866,61.57 1.823,64.503 0.875,67.915 -0.794,73.888 1,79.861 4.932,83.945 c 0.078,0.081 0.129,0.18 0.209,0.26 L 180.983,260.047 204.639,236.393 51.336,83.088 c 64.219,-2.838 158.269,39.825 221.142,85.464 z"
       id="path4" />
    <path
       d="m 453.005,505.065 c 63.124,-84.197 31.34,-238.212 -38.57,-336.533 l -70.989,70.987 c 45.649,62.879 88.337,156.948 85.475,221.155 L 275.606,307.359 251.95,331.013 c 1.71,1.71 174.366,174.39 176.104,176.057 6.289,6.047 15.679,4.692 11.566,4.692 10.934,10e-4 17.219,-11.812 13.385,-6.697 z"
       id="path6" />
  </g>
</svg>
