<?xml version="1.0" encoding="UTF-8" standalone="no"?>
<svg
   viewBox="0 0 64 64"
   version="1.1"
   id="svg13"
   sodipodi:docname="CombatMagic.svg"
   inkscape:version="1.2 (dc2aeda, 2022-05-15)"
   xmlns:inkscape="http://www.inkscape.org/namespaces/inkscape"
   xmlns:sodipodi="http://sodipodi.sourceforge.net/DTD/sodipodi-0.dtd"
   xmlns="http://www.w3.org/2000/svg"
   xmlns:svg="http://www.w3.org/2000/svg">
  <defs
     id="defs17" />
  <sodipodi:namedview
     id="namedview15"
     pagecolor="#ffffff"
     bordercolor="#000000"
     borderopacity="0.25"
     inkscape:showpageshadow="2"
     inkscape:pageopacity="0.0"
     inkscape:pagecheckerboard="0"
     inkscape:deskcolor="#d1d1d1"
     showgrid="false"
     inkscape:zoom="3.6875"
     inkscape:cx="32"
     inkscape:cy="32"
     inkscape:window-width="1309"
     inkscape:window-height="456"
     inkscape:window-x="47"
     inkscape:window-y="34"
     inkscape:window-maximized="0"
     inkscape:current-layer="svg13" />
  <g
     id="icon"
     fill="currentColor"
     transform="matrix(1.7246728,0,0,1.7246728,11.775234,10.833312)">
    <path
       d="m 3.84453,3.84453 c -1.12604,1.12603 -1.12604,2.9517 0,4.07773 L 5.43227,9.51 C 5.44419,9.49622 5.45669,9.48276 5.46978,9.46967 l 4,-4 C 9.48284,5.45662 9.49625,5.44415 9.50999,5.43226 L 7.92226,3.84453 c -1.12603,-1.12604 -2.9517,-1.12604 -4.07773,0 z"
       id="path2" />
    <path
       d="M 10.5679,6.49012 C 10.556,6.50386 10.5435,6.51728 10.5304,6.53033 L 6.53044,10.5303 C 6.51735,10.5434 6.5039,10.5559 6.49011,10.5678 l 9.58759,9.5877 c 1.1261,1.126 2.9517,1.126 4.0778,0 1.126,-1.1261 1.126,-2.9517 0,-4.0778 z"
       id="path4" />
    <path
       d="m 16.1,2.30719 c 0.161,-0.40959 0.7385,-0.40959 0.8994,0 l 0.4304,1.09528 c 0.0492,0.12505 0.1478,0.22404 0.2724,0.27336 l 1.0912,0.43197 c 0.4081,0.16154 0.4081,0.7412 0,0.90274 L 17.7022,5.44252 C 17.5776,5.49184 17.479,5.59082 17.4298,5.71587 L 16.9995,6.81115 C 16.8385,7.22074 16.261,7.22074 16.1,6.81116 L 15.6697,5.71587 C 15.6205,5.59082 15.5219,5.49184 15.3973,5.44252 L 14.3061,5.01054 C 13.898,4.849 13.898,4.26934 14.3061,4.1078 l 1.0912,-0.43197 c 0.1246,-0.04932 0.2232,-0.14831 0.2724,-0.27336 z"
       id="path6" />
    <path
       d="m 19.9672,9.12945 c 0.1609,-0.40958 0.7385,-0.40958 0.8994,0 l 0.1569,0.39935 c 0.0492,0.12505 0.1478,0.22404 0.2724,0.27335 l 0.3978,0.1575 c 0.4081,0.16155 0.4081,0.74125 0,0.90275 l -0.3978,0.1575 c -0.1246,0.0493 -0.2232,0.1483 -0.2724,0.2733 l -0.1569,0.3994 c -0.1609,0.4096 -0.7385,0.4096 -0.8994,0 l -0.1569,-0.3994 c -0.0492,-0.125 -0.1478,-0.224 -0.2724,-0.2733 L 19.14,10.8624 c -0.408,-0.1615 -0.408,-0.7412 0,-0.90275 l 0.3979,-0.1575 c 0.1246,-0.04931 0.2232,-0.1483 0.2724,-0.27335 z"
       id="path8" />
    <path
       d="m 5.1332,15.3072 c 0.16094,-0.4096 0.73847,-0.4096 0.89941,0 l 0.15692,0.3993 c 0.04914,0.1251 0.14776,0.2241 0.27235,0.2734 l 0.39787,0.1575 c 0.40808,0.1615 0.40808,0.7412 0,0.9027 L 6.46188,17.1976 C 6.33729,17.2469 6.23867,17.3459 6.18953,17.471 l -0.15692,0.3993 c -0.16094,0.4096 -0.73847,0.4096 -0.89941,0 L 4.97628,17.471 C 4.92714,17.3459 4.82852,17.2469 4.70393,17.1976 L 4.30606,17.0401 c -0.40808,-0.1615 -0.40808,-0.7412 0,-0.9027 l 0.39787,-0.1575 c 0.12459,-0.0493 0.22321,-0.1483 0.27235,-0.2734 z"
       id="path10" />
  </g>
</svg>
