<?xml version="1.0" encoding="UTF-8" standalone="no"?>
<svg
   viewBox="0 0 64 64"
   version="1.1"
   id="svg1226"
   sodipodi:docname="Cooking.svg"
   inkscape:version="1.2 (dc2aeda, 2022-05-15)"
   xmlns:inkscape="http://www.inkscape.org/namespaces/inkscape"
   xmlns:sodipodi="http://sodipodi.sourceforge.net/DTD/sodipodi-0.dtd"
   xmlns="http://www.w3.org/2000/svg"
   xmlns:svg="http://www.w3.org/2000/svg">
  <defs
     id="defs1230" />
  <sodipodi:namedview
     id="namedview1228"
     pagecolor="#ffffff"
     bordercolor="#000000"
     borderopacity="0.25"
     inkscape:showpageshadow="2"
     inkscape:pageopacity="0.0"
     inkscape:pagecheckerboard="0"
     inkscape:deskcolor="#d1d1d1"
     showgrid="false"
     inkscape:zoom="3.6875"
     inkscape:cx="32"
     inkscape:cy="32"
     inkscape:window-width="1309"
     inkscape:window-height="456"
     inkscape:window-x="47"
     inkscape:window-y="34"
     inkscape:window-maximized="0"
     inkscape:current-layer="svg1226" />
  <path
     fill="currentColor"
     d="M 44.230537,26.599317 H 39.16589 l 0.375541,-5.050876 c 0.716587,-0.603594 1.209184,-1.434619 1.381462,-2.367206 0.407904,-2.207323 -1.056184,-4.331742 -3.263507,-4.739715 -1.069337,-0.197549 -2.151549,0.03471 -3.047368,0.651103 -0.895818,0.616401 -1.497897,1.545546 -1.695514,2.614815 -0.171177,0.926115 -0.01392,1.864831 0.432486,2.680776 l -2.043996,6.211103 H 19.769519 c -0.646628,0 -1.195963,0.550092 -1.195963,1.196719 v 5.886515 c 0,4.627066 2.575978,8.675947 6.322925,10.845743 v 2.811397 c 0,1.271361 0.998759,2.287677 2.270188,2.287677 h 9.666787 c 1.271361,0 2.270188,-1.016385 2.270188,-2.287677 v -2.811397 c 3.746947,-2.169796 6.322925,-6.218677 6.322925,-10.845743 v -5.886515 c 0,-0.646627 -0.549335,-1.196719 -1.196032,-1.196719 z m -8.481772,-6.012109 c 0.121944,-0.371203 0.05067,-0.772359 -0.189974,-1.080146 -0.305447,-0.390621 -0.429111,-0.89031 -0.339255,-1.376366 0.08394,-0.454176 0.339737,-0.846862 0.720167,-1.108722 0.380568,-0.261791 0.840114,-0.359017 1.294358,-0.275012 0.937614,0.173243 1.559455,1.077393 1.386144,2.014938 -0.08979,0.486193 -0.384975,0.911725 -0.809886,1.167526 -0.325484,0.195965 -0.535701,0.524821 -0.563933,0.903806 l -0.42863,5.766222 h -3.047711 z m 1.013012,26.698224 h -9.523429 v -1.704396 c 1.1709,0.408385 2.518828,0.611511 3.889066,0.611511 h 1.745297 c 1.370307,0 2.718166,-0.203126 3.889066,-0.611511 z m 6.322925,-13.602881 c 0,5.617149 -4.59491,10.168198 -10.211991,10.168198 h -1.745297 c -5.617081,0 -10.211991,-4.551118 -10.211991,-10.168198 V 28.941115 H 43.08477 v 4.741436 z"
     id="path1224"
     style="stroke-width:0.0688562" />
</svg>
