<?xml version="1.0" encoding="UTF-8" standalone="no"?>
<svg
   viewBox="0 0 64 64"
   version="1.1"
   id="svg4401"
   sodipodi:docname="Fishing.svg"
   inkscape:version="1.2 (dc2aeda, 2022-05-15)"
   xmlns:inkscape="http://www.inkscape.org/namespaces/inkscape"
   xmlns:sodipodi="http://sodipodi.sourceforge.net/DTD/sodipodi-0.dtd"
   xmlns="http://www.w3.org/2000/svg"
   xmlns:svg="http://www.w3.org/2000/svg">
  <defs
     id="defs4405" />
  <sodipodi:namedview
     id="namedview4403"
     pagecolor="#ffffff"
     bordercolor="#000000"
     borderopacity="0.25"
     inkscape:showpageshadow="2"
     inkscape:pageopacity="0.0"
     inkscape:pagecheckerboard="0"
     inkscape:deskcolor="#d1d1d1"
     showgrid="false"
     inkscape:zoom="3.6875"
     inkscape:cx="32"
     inkscape:cy="32"
     inkscape:window-width="1309"
     inkscape:window-height="456"
     inkscape:window-x="47"
     inkscape:window-y="34"
     inkscape:window-maximized="0"
     inkscape:current-layer="svg4401" />
  <g
     id="icon"
     fill="currentColor"
     transform="matrix(0.07639812,0,0,0.07639812,12.442068,12.442073)">
    <path
       d="m 492.345,14.732 c -19.66,-19.637 -51.455,-19.651 -71.1,0.006 L 19.654,416.323 c -19.646,19.635 -19.669,51.455 0,71.111 19.633,19.643 51.455,19.656 71.1,0 l 47.524,-47.523 c 2.441,17.395 10.239,34.174 23.587,47.523 32.734,32.734 85.759,32.775 118.51,0 29.616,-29.606 32.174,-75.165 9.105,-107.62 19.665,-21.168 38.334,-50.733 49.512,-78.914 6.547,-16.509 10.191,-31.355 10.944,-44.291 37.82,5.836 76.646,-14.527 104.173,-42.054 3.14,-3.139 6.179,-6.378 8.982,-9.667 V 440.19 c 0,9.242 -7.64,16.76 -16.883,16.76 -9.232,0 -16.749,-7.519 -16.749,-16.76 v -33.52 c 10e-4,-9.257 -7.506,-16.759 -16.759,-16.759 -9.253,0 -16.648,7.502 -16.648,16.76 v 33.52 c 0,27.726 22.443,50.281 50.158,50.281 27.726,0 50.292,-22.555 50.292,-50.281 V 80.794 c 16.204,-21.016 13.01,-48.895 -4.157,-66.062 z m -213.365,189.672 23.7,23.705 -99.042,99.042 -23.7,-23.705 z m -22.304,259.33 c -19.603,19.614 -51.404,19.684 -71.111,0 -15.522,-15.526 -18.545,-38.689 -9.48,-57.425 l 36.17,34.789 c 6.683,6.425 17.3,6.197 23.7,-0.458 6.416,-6.673 6.209,-17.284 -0.458,-23.7 l -35.561,-34.203 c 20.034,-9.354 42.236,-4.626 56.74,9.886 19.647,19.634 19.669,51.455 0,71.111 z m 51.153,-175.191 c -9.564,24.137 -26.034,50.271 -42.787,68.338 -9.779,-6.05 -20.672,-9.982 -32.146,-11.589 l 82.533,-82.531 c -1.256,7.243 -3.66,15.849 -7.6,25.782 z M 430.41,190.857 c -28.274,28.266 -56.866,35.459 -75.544,32.469 L 462.667,115.527 c 4.059,25.439 -12.493,55.564 -32.257,75.33 z"
       id="path4398" />
  </g>
</svg>
