<?xml version="1.0" encoding="UTF-8" standalone="no"?>
<svg
   viewBox="0 0 64 64"
   version="1.1"
   id="svg10"
   sodipodi:docname="Hunting.svg"
   inkscape:version="1.2 (dc2aeda, 2022-05-15)"
   xmlns:inkscape="http://www.inkscape.org/namespaces/inkscape"
   xmlns:sodipodi="http://sodipodi.sourceforge.net/DTD/sodipodi-0.dtd"
   xmlns="http://www.w3.org/2000/svg"
   xmlns:svg="http://www.w3.org/2000/svg">
  <defs
     id="defs14" />
  <sodipodi:namedview
     id="namedview12"
     pagecolor="#ffffff"
     bordercolor="#000000"
     borderopacity="0.25"
     inkscape:showpageshadow="2"
     inkscape:pageopacity="0.0"
     inkscape:pagecheckerboard="0"
     inkscape:deskcolor="#d1d1d1"
     showgrid="false"
     inkscape:zoom="3.6875"
     inkscape:cx="32"
     inkscape:cy="32"
     inkscape:window-width="1309"
     inkscape:window-height="456"
     inkscape:window-x="47"
     inkscape:window-y="34"
     inkscape:window-maximized="0"
     inkscape:current-layer="svg10" />
  <g
     fill="currentColor"
     transform="matrix(0.13264265,0,0,0.13264265,11.83157,11.831639)"
     id="icon">
    <path
       d="m 274.19,71.492 c 1.875,-1.876 2.929,-4.419 2.929,-7.071 0,-2.652 -1.054,-5.195 -2.929,-7.071 C 217.042,0.201 144.223,-16.863 109.245,18.112 91.735,35.623 86.685,62.92 95.025,94.976 c 7.153,27.492 23.548,55.897 46.534,80.862 L 30.365,287.031 c -3.905,3.905 -3.905,10.237 0,14.143 1.953,1.952 4.512,2.929 7.071,2.929 2.559,0 5.118,-0.977 7.071,-2.929 C 52.183,293.497 270.824,74.857 274.19,71.492 Z M 112.581,52.571 c 3.512,7.629 8.214,15.421 12.857,22.462 L 113.67,86.959 C 110.672,74.051 110.324,62.4 112.581,52.571 Z m 6.936,-15.736 c 1.174,-1.628 2.455,-3.165 3.871,-4.581 0.739,-0.739 1.521,-1.435 2.323,-2.109 6.797,1.358 17.067,6.226 29.797,14.412 L 133.985,66.37 C 128.843,58.392 121.597,46.109 119.517,36.835 Z m 46.01,14.5 c 7.375,5.221 15.36,11.348 23.823,18.381 l -30.308,30.308 C 152.284,91.896 146.15,83.968 140.789,76.408 Z m 32.902,26.122 c 6.967,6.081 14.195,12.722 21.608,19.901 l -33.36,33.36 c -7,-7.23 -13.66,-14.471 -19.896,-21.614 z M 228.448,88.95 C 221.453,82.185 214.184,75.482 206.836,69.052 l 22.816,-22.816 c 7.93,5.406 15.712,11.55 23.163,18.348 z M 197.771,61.295 C 189.764,54.598 181.761,48.323 174.01,42.737 L 190.436,26.09 c 9.542,3.304 19.291,7.888 28.938,13.601 z m -20.353,-38.944 -13.34,13.52 C 155.48,30.199 147.363,25.594 140.103,22.457 151.97,18.789 165.35,19.635 177.418,22.351 Z m -45.109,62.65 c 5.427,7.547 11.571,15.422 18.289,23.467 l -19.805,19.805 c -5.533,-9.345 -10.019,-18.828 -13.314,-28.241 z m 26.042,32.534 c 6.257,7.147 12.932,14.38 19.917,21.592 l -22.558,22.558 c -6.816,-7.452 -12.955,-15.214 -18.37,-23.139 z"
       id="path2" />
    <path
       d="m 291.41,175.958 c -5.413,-6.532 -15.096,-7.441 -21.629,-2.029 l -18.225,15.1 -18.225,-15.1 c -5.572,-4.623 -13.821,-4.787 -19.601,0 -6.532,5.413 -7.441,15.097 -2.028,21.629 l 13.989,20.984 c -6.182,6.182 -6.182,16.205 0,22.387 3.091,3.092 7.142,4.638 11.193,4.638 4.052,0 8.104,-1.546 11.194,-4.638 l 3.477,-3.477 3.476,3.477 c 6.183,6.182 16.206,6.183 22.388,0.001 6.183,-6.182 6.183,-16.206 0.001,-22.388 l 13.989,-20.984 c 4.624,-5.572 4.789,-13.82 0.001,-19.6 z"
       id="path4" />
    <path
       d="m 29.908,191.383 c 0,8.743 7.088,15.832 15.83,15.832 8.742,0 15.831,-7.088 15.831,-15.83 l 24.729,-4.946 c 7.209,-0.672 13.158,-6.388 13.859,-13.859 0.791,-8.446 -5.412,-15.937 -13.859,-16.729 l -23.563,-2.21 -2.21,-23.564 c -0.671,-7.21 -6.388,-13.158 -13.859,-13.86 -8.447,-0.791 -15.937,5.413 -16.729,13.86 l -4.946,24.73 c -8.742,0 -15.829,7.088 -15.829,15.83 -0.001,4.372 1.769,8.329 4.635,11.194 2.865,2.865 6.823,4.637 11.195,4.636 h 4.917 z"
       id="path6" />
  </g>
</svg>
