<?xml version="1.0" encoding="UTF-8" standalone="no"?>
<svg
   viewBox="0 0 64 64"
   version="1.1"
   id="svg2081"
   sodipodi:docname="Invocation.svg"
   inkscape:version="1.2 (dc2aeda, 2022-05-15)"
   xmlns:inkscape="http://www.inkscape.org/namespaces/inkscape"
   xmlns:sodipodi="http://sodipodi.sourceforge.net/DTD/sodipodi-0.dtd"
   xmlns="http://www.w3.org/2000/svg"
   xmlns:svg="http://www.w3.org/2000/svg">
  <defs
     id="defs2085" />
  <sodipodi:namedview
     id="namedview2083"
     pagecolor="#ffffff"
     bordercolor="#000000"
     borderopacity="0.25"
     inkscape:showpageshadow="2"
     inkscape:pageopacity="0.0"
     inkscape:pagecheckerboard="0"
     inkscape:deskcolor="#d1d1d1"
     showgrid="false"
     inkscape:zoom="3.6875"
     inkscape:cx="32"
     inkscape:cy="32"
     inkscape:window-width="1309"
     inkscape:window-height="456"
     inkscape:window-x="47"
     inkscape:window-y="34"
     inkscape:window-maximized="0"
     inkscape:current-layer="svg2081" />
  <path
     fill="currentColor"
     d="m 31.063546,12.819245 c -0.0989,-4.83e-4 -0.197717,0.0022 -0.294522,0.0075 -0.813661,0.0451 -1.582222,0.296536 -2.428661,0.906037 l 1.668718,15.848151 c -0.676024,0.171301 -1.343028,0.359998 -1.998435,0.571326 L 22.358105,15.607744 c -0.566333,-0.137396 -1.404719,-0.02416 -2.184635,0.372562 -0.825339,0.419837 -1.532934,1.114626 -1.837282,1.847268 l 5.416005,14.184507 c -0.597098,0.349931 -1.175028,0.735862 -1.731536,1.165364 l -5.987332,-7.590574 c -1.315968,0.05622 -2.815962,1.164157 -3.025115,2.629923 0.585098,0.669903 5.827064,6.716349 8.406006,11.519148 0.829527,1.545014 2.379293,4.085219 3.156068,5.642716 0.469528,0.941714 1.288908,1.952045 2.24238,2.604714 0.953553,0.652668 1.989254,0.951942 3.052901,0.667004 l 9.093144,-2.433816 c 0.442388,-0.118388 0.740615,-0.434092 1.064694,-0.961365 0.323757,-0.527112 0.606843,-1.219082 1.039325,-1.852342 1.659859,-2.430996 4.061621,-6.127626 9.276687,-9.025091 -0.217126,-1.212317 -0.596373,-1.978784 -1.024425,-2.380903 -0.485636,-0.456401 -1.062922,-0.593716 -1.90759,-0.470575 -1.454652,0.211811 -3.50318,1.374196 -5.604863,2.969706 -0.135302,0.111946 -0.267221,0.225664 -0.397609,0.339864 L 40.841172,29.902827 44.263977,17.361831 C 43.903334,16.769484 43.152088,16.294077 42.263045,16.075661 41.38729,15.860629 40.450489,15.93891 39.824397,16.204117 L 36.703604,28.274458 C 35.949379,28.401706 35.194993,28.529759 34.443426,28.662 L 33.308665,13.166519 c -0.809956,-0.202952 -1.553068,-0.344053 -2.244957,-0.347355 z m -0.923754,18.669348 2.428742,4.560384 4.381673,-2.730674 -2.720526,4.363956 4.545163,2.423749 -5.166986,-0.176214 0.176214,5.156918 -2.418513,-4.537753 -4.371768,2.723184 2.735828,-4.384251 -4.552733,-2.426165 5.136623,0.173637 -0.173637,-5.146771 z"
     id="path2079"
     style="stroke-width:0.0805366" />
</svg>
