<?xml version="1.0" encoding="UTF-8" standalone="no"?>
<svg
   viewBox="0 0 64 64"
   version="1.1"
   id="svg5623"
   sodipodi:docname="MetalWork.svg"
   inkscape:version="1.2 (dc2aeda, 2022-05-15)"
   xmlns:inkscape="http://www.inkscape.org/namespaces/inkscape"
   xmlns:sodipodi="http://sodipodi.sourceforge.net/DTD/sodipodi-0.dtd"
   xmlns="http://www.w3.org/2000/svg"
   xmlns:svg="http://www.w3.org/2000/svg">
  <defs
     id="defs5627" />
  <sodipodi:namedview
     id="namedview5625"
     pagecolor="#ffffff"
     bordercolor="#000000"
     borderopacity="0.25"
     inkscape:showpageshadow="2"
     inkscape:pageopacity="0.0"
     inkscape:pagecheckerboard="0"
     inkscape:deskcolor="#d1d1d1"
     showgrid="false"
     inkscape:zoom="3.6875"
     inkscape:cx="32"
     inkscape:cy="32"
     inkscape:window-width="1309"
     inkscape:window-height="456"
     inkscape:window-x="47"
     inkscape:window-y="34"
     inkscape:window-maximized="0"
     inkscape:current-layer="svg5623" />
  <g
     id="icon"
     fill="currentColor"
     transform="matrix(0.07097458,0,0,0.07097458,13.830508,13.830508)">
    <path
       d="M 375.468,371.2 H 344.85 c -18.534,-17.818 -29.193,-42.47 -29.193,-68.267 0,-11.802 2.338,-23.339 6.511,-34.133 H 189.833 c 4.173,10.795 6.511,22.332 6.511,34.133 0,25.796 -10.658,50.449 -29.193,68.267 h -30.618 c -14.114,0 -25.6,11.486 -25.6,25.6 0,14.114 11.486,25.6 25.6,25.6 h 238.933 c 14.114,0 25.6,-11.486 25.6,-25.6 0,-14.114 -11.484,-25.6 -25.598,-25.6 z"
       id="path5618" />
    <path
       d="M 505.079,140.8 C 509.516,127.36 512,113.041 512,98.133 512,93.414 508.186,89.6 503.467,89.6 H 153.6 c -4.719,0 -8.533,3.814 -8.533,8.533 V 115.2 H 8.533 C 3.814,115.2 0,119.014 0,123.733 0,184.9 49.766,234.667 110.933,234.667 h 42.667 13.466 c 5.359,5.18 10.121,10.88 14.097,17.067 h 149.683 c 3.977,-6.187 8.73,-11.887 14.089,-17.067 h 30.532 c 53.845,0 100.369,-31.411 122.581,-76.8 H 162.133 V 140.8 Z m -360.012,8.533 V 217.6 h -34.133 c -48.879,0 -89.156,-37.555 -93.483,-85.333 h 127.616 z"
       id="path5620" />
  </g>
</svg>
