<?xml version="1.0" encoding="UTF-8" standalone="no"?>
<svg
   viewBox="0 0 64 64"
   version="1.1"
   id="svg3671"
   sodipodi:docname="Roaming.svg"
   inkscape:version="1.2 (dc2aeda, 2022-05-15)"
   xmlns:inkscape="http://www.inkscape.org/namespaces/inkscape"
   xmlns:sodipodi="http://sodipodi.sourceforge.net/DTD/sodipodi-0.dtd"
   xmlns="http://www.w3.org/2000/svg"
   xmlns:svg="http://www.w3.org/2000/svg">
  <defs
     id="defs3675" />
  <sodipodi:namedview
     id="namedview3673"
     pagecolor="#ffffff"
     bordercolor="#000000"
     borderopacity="0.25"
     inkscape:showpageshadow="2"
     inkscape:pageopacity="0.0"
     inkscape:pagecheckerboard="0"
     inkscape:deskcolor="#d1d1d1"
     showgrid="false"
     inkscape:zoom="3.6875"
     inkscape:cx="32"
     inkscape:cy="32"
     inkscape:window-width="1309"
     inkscape:window-height="456"
     inkscape:window-x="47"
     inkscape:window-y="34"
     inkscape:window-maximized="0"
     inkscape:current-layer="svg3671" />
  <g id="icon" fill="currentColor">
  <path
     fill="currentColor"
     d="m 27.366221,15.222141 c -0.58113,1.245167 -1.340472,3.047444 -1.991338,4.870642 -0.309936,0.865496 -0.588878,1.741065 -0.813581,2.539149 6.260704,2.014584 8.616217,2.014584 14.876921,0 -0.224703,-0.798084 -0.503645,-1.673653 -0.813581,-2.539149 -0.650866,-1.823198 -1.410209,-3.625475 -1.991338,-4.870642 -2.053325,1.024338 -3.300817,1.616315 -4.633542,1.616315 -1.332724,0 -2.580216,-0.591977 -4.633541,-1.616315 z m -12.701172,8.09165 h -0.382771 c -0.132497,0 -0.216955,0.0077 -0.28824,0.02325 l -0.03177,0.03874 c -0.396718,0.526891 -0.536189,0.976298 -0.536189,1.379215 0,0.395168 0.147219,0.798085 0.475751,1.231995 0.657064,0.860072 2.071147,1.774383 3.945484,2.518229 3.74635,1.503189 9.278705,2.432997 14.152446,2.432997 4.873742,0 10.406097,-0.929808 14.156321,-2.432997 1.875112,-0.743846 3.285321,-1.658157 3.943934,-2.518229 0.325433,-0.43391 0.472652,-0.836827 0.472652,-1.231995 0,-0.402917 -0.139471,-0.852324 -0.534639,-1.379215 l -0.03099,-0.03874 c -0.154968,-0.02325 -0.464904,-0.03874 -0.883318,-0.0155 -0.914311,0.05424 -2.309022,0.247948 -4.013669,0.4804 -1.146763,0.154968 -2.440745,0.333181 -3.835457,0.495898 0.06199,0.410665 0.10073,0.790336 0.10073,1.139014 v 0.371923 l -0.309936,0.209207 c -2.099816,1.394711 -5.571098,1.975841 -9.065625,1.975841 -3.494527,0 -6.965808,-0.58113 -9.065624,-1.975841 l -0.309936,-0.209207 v -0.371923 c 0,-0.348678 0.03874,-0.728349 0.100729,-1.139014 -1.394711,-0.162717 -2.688693,-0.34093 -3.836231,-0.495898 -1.705422,-0.232452 -3.099358,-0.426162 -4.015219,-0.4804 -0.07206,-0.0077 -0.141796,-0.0155 -0.208432,-0.0077 z m 9.555323,0.666362 c -0.08523,0.402917 -0.147219,0.759343 -0.178213,1.061531 1.712396,0.968549 4.835,1.557428 7.957603,1.557428 3.122604,0 6.245208,-0.588879 7.957604,-1.557428 -0.03099,-0.302188 -0.09298,-0.658614 -0.178213,-1.061531 -6.299447,2.006835 -9.259334,2.006835 -15.558781,0 z m -1.441202,9.127612 c 0.0155,1.084775 0.14722,2.123061 0.379672,3.114855 1.123517,-0.03099 2.31677,-0.302187 3.47903,-0.743846 0.635368,-0.247948 1.25524,-0.542388 1.851867,-0.86782 -0.472653,0.07748 -0.960802,0.123974 -1.448951,0.123974 -1.139014,0 -2.797171,-0.782588 -4.261618,-1.627163 z m 18.441185,0 c -1.464447,0.844575 -3.122604,1.627163 -4.261619,1.627163 -0.488149,0 -0.976298,-0.04649 -1.44895,-0.123974 0.596627,0.325432 1.216498,0.619872 1.851867,0.86782 1.16226,0.441659 2.347764,0.712853 3.47903,0.743846 0.232452,-0.991794 0.364175,-2.03008 0.379672,-3.114855 z m -8.685953,1.185505 c 0.131723,1.867363 1.619415,3.215584 3.486778,4.532812 -2.804919,-0.418414 -4.594799,-1.611667 -5.307651,-3.96718 -1.061531,0.751595 -2.285777,1.417957 -3.57976,1.921603 -1.487692,0.573381 -3.076113,0.906562 -4.618044,0.82133 0.643117,0.829078 1.216498,1.588421 1.735641,2.301274 1.952596,1.487692 3.541017,2.85141 7.957603,3.517772 -1.859615,0.286691 -3.967179,0.480401 -5.617588,-0.06974 1.239744,1.999087 2.185048,5.082949 3.355056,7.422964 h 4.106651 c 0.612123,-1.231995 1.162259,-3.556514 1.727892,-4.602547 -1.286234,1.053782 -2.673197,1.286234 -3.711482,1.177756 2.642203,-1.131266 4.137644,-2.8979 5.733814,-4.618044 0.960801,-1.495441 2.115312,-3.122604 3.680488,-5.129439 -1.541931,0.08523 -3.130352,-0.247949 -4.618044,-0.82133 -1.619415,-0.62762 -3.122604,-1.518686 -4.331354,-2.487235 z m 16.968989,1.394711 c -0.426162,0 -0.906563,0.04649 -1.441202,0.131723 -1.216498,0.201458 -2.680945,0.596626 -4.284863,1.10802 l -0.07748,0.10073 c -0.945305,1.185504 -1.758887,2.231538 -2.463991,3.184591 1.193253,0.736097 1.929351,1.572924 2.711939,2.394254 -1.123517,-0.441658 -2.12306,-0.906562 -3.517772,-1.286234 -0.395168,0.557885 -0.759343,1.084776 -1.092524,1.588422 0.743846,0.28669 1.541931,0.519142 2.386506,0.720601 2.084319,0.503645 4.339103,0.782588 6.314944,1.286234 -1.394712,-2.107564 -3.362804,-4.277116 -5.757059,-5.966266 1.557428,-0.317684 3.145849,-0.666362 4.548309,-1.154511 1.541931,-0.53464 2.781674,-1.224247 3.502275,-2.053325 -0.139471,-0.0155 -0.263445,-0.03874 -0.418413,-0.04649 -0.131723,-0.0077 -0.263446,-0.0077 -0.410665,-0.0077 z"
     id="path3669"
     style="stroke-width:0.077484"  />
</g>
</svg>
