<?xml version="1.0" encoding="UTF-8" standalone="no"?>
<svg
   viewBox="0 0 64 64"
   version="1.1"
   id="svg8082"
   sodipodi:docname="Tailoring.svg"
   inkscape:version="1.2 (dc2aeda, 2022-05-15)"
   xmlns:inkscape="http://www.inkscape.org/namespaces/inkscape"
   xmlns:sodipodi="http://sodipodi.sourceforge.net/DTD/sodipodi-0.dtd"
   xmlns="http://www.w3.org/2000/svg"
   xmlns:svg="http://www.w3.org/2000/svg">
  <defs
     id="defs8086" />
  <sodipodi:namedview
     id="namedview8084"
     pagecolor="#ffffff"
     bordercolor="#000000"
     borderopacity="0.25"
     inkscape:showpageshadow="2"
     inkscape:pageopacity="0.0"
     inkscape:pagecheckerboard="0"
     inkscape:deskcolor="#d1d1d1"
     showgrid="false"
     inkscape:zoom="3.6875"
     inkscape:cx="32"
     inkscape:cy="32"
     inkscape:window-width="1309"
     inkscape:window-height="456"
     inkscape:window-x="47"
     inkscape:window-y="34"
     inkscape:window-maximized="0"
     inkscape:current-layer="svg8082" />
  <g
     id="icon"
     fill="currentColor"
     transform="matrix(0.07097503,0,0,0.07097503,13.830519,13.830531)">
    <path
       d="m 509.637,133.134 c -3.306,-3.48 -8.773,-3.645 -12.271,-0.356 -29.705,28.047 -54.68,30.98 -80.072,9.129 l 8.565,-7.099 c 22.927,-22.918 22.927,-60.216 0,-83.144 -11.056,-11.056 -25.826,-17.156 -41.568,-17.156 -15.742,0 -30.512,6.101 -42.123,17.764 l -6.751,8.166 -8.773,-8.773 c -22.919,-22.927 -60.234,-22.91 -83.144,0 -22.918,22.927 -22.918,60.225 0,83.144 l 16.618,16.61 -122.366,147.864 -29.358,-29.366 c -22.927,-22.927 -60.234,-22.91 -83.144,0 -22.919,22.927 -22.919,60.225 0,83.144 l 37.202,37.202 -60.458,73.051 c -2.855,3.454 -2.621,8.504 0.555,11.672 1.684,1.692 3.905,2.543 6.135,2.543 1.953,0 3.922,-0.659 5.528,-1.987 l 73.051,-60.468 51.382,51.382 c 1.701,1.692 3.922,2.543 6.135,2.543 2.222,0 4.443,-0.85 6.135,-2.543 3.393,-3.393 3.393,-8.886 0,-12.271 l -50.219,-50.228 109.065,-90.277 26.659,26.659 c 11.307,11.307 25.617,16.158 39.849,16.158 16.002,0 31.909,-6.153 43.286,-16.158 11.064,-11.064 17.165,-25.834 17.165,-41.576 0,-15.742 -6.101,-30.503 -17.165,-41.567 l -18.814,-18.823 103.06,-85.296 c 15.16,13.729 30.833,20.671 46.974,20.671 18.944,0 38.495,-9.45 58.507,-28.351 3.488,-3.29 3.644,-8.774 0.355,-12.263 z M 73.57,376.838 37.522,340.79 c -16.141,-16.15 -16.141,-42.444 0,-58.602 16.141,-16.15 42.444,-16.158 58.602,0 l 30.512,30.52 z M 307.285,269.465 c 7.784,7.793 12.08,18.189 12.08,29.297 0,11.108 -4.296,21.513 -11.672,28.924 -15.273,13.399 -42.609,16.766 -59.001,0.382 l -25.496,-25.505 64.121,-53.074 z M 271.228,137.994 255.773,122.539 c -16.15,-16.15 -16.15,-42.444 0,-58.594 16.15,-16.15 42.444,-16.167 58.602,0 l 9.928,9.919 z m 119.2,-38.617 -28.351,28.351 c -1.692,1.692 -3.914,2.543 -6.135,2.543 -2.213,0 -4.434,-0.85 -6.135,-2.543 -3.384,-3.393 -3.384,-8.886 0,-12.271 l 28.351,-28.351 c 3.393,-3.393 8.878,-3.393 12.271,0 3.392,3.393 3.392,8.878 -10e-4,12.271 z"
       id="path8079" />
  </g>
</svg>
