<?xml version="1.0" encoding="UTF-8" standalone="no"?>
<svg
   viewBox="0 0 256 256"
   version="1.1"
   id="svg24"
   sodipodi:docname="icon_nobg.svg"
   inkscape:version="1.2 (dc2aeda, 2022-05-15)"
   xmlns:inkscape="http://www.inkscape.org/namespaces/inkscape"
   xmlns:sodipodi="http://sodipodi.sourceforge.net/DTD/sodipodi-0.dtd"
   xmlns="http://www.w3.org/2000/svg"
   xmlns:svg="http://www.w3.org/2000/svg">
  <sodipodi:namedview
     id="namedview26"
     pagecolor="#ffffff"
     bordercolor="#000000"
     borderopacity="0.25"
     inkscape:showpageshadow="2"
     inkscape:pageopacity="0.0"
     inkscape:pagecheckerboard="0"
     inkscape:deskcolor="#d1d1d1"
     showgrid="false"
     inkscape:zoom="0.6047844"
     inkscape:cx="-142.19944"
     inkscape:cy="140.54595"
     inkscape:window-width="1309"
     inkscape:window-height="456"
     inkscape:window-x="47"
     inkscape:window-y="34"
     inkscape:window-maximized="0"
     inkscape:current-layer="svg24" />
  <defs
     id="defs12">
    <linearGradient
       id="sentry-gold"
       x1="52"
       y1="40"
       x2="204"
       y2="192"
       gradientUnits="userSpaceOnUse"
       gradientTransform="translate(214.91966,-14.222624)">
      <stop
         offset="0%"
         stop-color="#f2c14e"
         id="stop2" />
      <stop
         offset="100%"
         stop-color="#c68130"
         id="stop4" />
    </linearGradient>
    <linearGradient
       id="sentry-teal"
       x1="184.03478"
       y1="69.378191"
       x2="96.39917"
       y2="157.0138"
       gradientTransform="matrix(1.1118548,0,0,1.3342257,-27.838883,-20.733143)"
       gradientUnits="userSpaceOnUse">
      <stop
         offset="0%"
         stop-color="#5dd9c1"
         id="stop7" />
      <stop
         offset="100%"
         stop-color="#1f6e72"
         id="stop9" />
    </linearGradient>
  </defs>
  <rect
     width="113.14413"
     height="88.863892"
     rx="21.214525"
     fill="#0b0f1d"
     id="rect14"
     x="70.168953"
     y="79.069397"
     style="stroke-width:0.391687" />
  <path
     d="M 128.06204,71.833025 176.78107,188.75871 H 79.342996 Z"
     fill="url(#sentry-teal)"
     opacity="0.9"
     id="path18"
     style="fill:url(#sentry-teal);stroke-width:1.21797" />
  <g
     id="g136"
     transform="matrix(0.46917543,0,0,0.46917543,7.6068051,8.5338942)"
     style="fill:#f2c14e;fill-opacity:1">
    <path
       class="st0"
       d="m 376.695,374.985 c -9.266,-9.281 -14.109,-10.969 13.234,-44.625 25.406,-31.266 54.734,-72.328 43.015,-146.609 C 419.523,98.767 358.648,0.079 254.914,0.001 151.164,0.079 90.304,98.767 76.898,183.751 c -11.734,74.281 17.594,115.344 43,146.609 27.359,33.656 22.5,35.344 13.234,44.625 -9.281,9.266 -64.719,59.891 -59.813,81.828 0,0 28.813,47.141 148.563,54.734 25.141,1.594 47.719,-1.141 67.719,-6.516 -21.641,-23.078 -51.5,-59.563 -53.094,-86.563 l 4.922,9.031 c 0,0 39.094,74.281 129.016,78.203 89.921,3.893 90.702,-58.139 6.25,-130.717 z M 254.914,336.22 c -56.984,0 -112.063,-13.453 -112.063,-80.938 0,-68.875 55.078,-95.594 112.063,-95.594 56.985,0 112.063,26.719 112.063,95.594 -10e-4,67.485 -55.079,80.938 -112.063,80.938 z"
       id="path134"
       style="fill:#f2c14e;fill-opacity:1" />
  </g>
  <g
     id="g930"
     transform="matrix(1.2179759,0,0,1.2179759,-27.838884,-20.733143)">
    <circle
       cx="109.0365"
       cy="119.45621"
       r="18"
       fill="#0b0f1d"
       id="circle20" />
    <circle
       cx="109.0365"
       cy="119.45621"
       r="10"
       fill="#f4f1e9"
       id="circle22" />
  </g>
  <g
     id="g936"
     transform="matrix(1.4318379,0,0,1.4318379,-6.8882238,-48.205031)">
    <circle
       cx="109.0365"
       cy="119.45621"
       r="18"
       fill="#0b0f1d"
       id="circle932" />
    <circle
       cx="109.0365"
       cy="119.45621"
       r="10"
       fill="#f4f1e9"
       id="circle934" />
  </g>
</svg>
