<?xml version="1.0" encoding="UTF-8" standalone="no"?>
<svg
   width="364"
   height="838.16"
   viewBox="237 109.84 364 838.16"
   version="1.1"
   id="svg4133"
   sodipodi:docname="linen_tunic.svg"
   inkscape:version="1.2 (dc2aeda, 2022-05-15)"
   xmlns:inkscape="http://www.inkscape.org/namespaces/inkscape"
   xmlns:sodipodi="http://sodipodi.sourceforge.net/DTD/sodipodi-0.dtd"
   xmlns="http://www.w3.org/2000/svg"
   xmlns:svg="http://www.w3.org/2000/svg">
  <defs
     id="defs4137">
    <filter
       inkscape:label="Pixel Smear"
       inkscape:menu="Distort"
       inkscape:menu-tooltip="Van Gogh painting effect for bitmaps"
       height="1.1774842"
       y="-0.088742085"
       width="1.118927"
       x="-0.059463478"
       style="color-interpolation-filters:sRGB;"
       id="filter8412">
      <feGaussianBlur
         result="result1"
         in="SourceGraphic"
         stdDeviation="2"
         id="feGaussianBlur8396" />
      <feTurbulence
         result="result0"
         numOctaves="5"
         baseFrequency="0.05"
         type="fractalNoise"
         id="feTurbulence8398" />
      <feDisplacementMap
         result="result2"
         scale="10"
         yChannelSelector="G"
         xChannelSelector="R"
         in="result1"
         in2="result0"
         id="feDisplacementMap8400" />
      <feColorMatrix
         values="1 0 0 0 0 0 1 0 0 0 0 0 1 0 0 0 0 0 10 0 "
         result="result3"
         id="feColorMatrix8402" />
      <feBlend
         mode="multiply"
         in="result2"
         result="result5"
         in2="result3"
         id="feBlend8404" />
      <feGaussianBlur
         result="result4"
         in="result3"
         stdDeviation="5"
         id="feGaussianBlur8406" />
      <feComposite
         k1="0.5"
         k3="1.5"
         k2="0.15"
         in="result4"
         in2="result5"
         operator="arithmetic"
         result="result6"
         id="feComposite8408" />
      <feComposite
         operator="in"
         in="result6"
         in2="result4"
         id="feComposite8410"
         result="fbSourceGraphic" />
      <feColorMatrix
         result="fbSourceGraphicAlpha"
         in="fbSourceGraphic"
         values="0 0 0 -1 0 0 0 0 -1 0 0 0 0 -1 0 0 0 0 1 0"
         id="feColorMatrix8438" />
      <feTurbulence
         id="feTurbulence8440"
         type="fractalNoise"
         numOctaves="3"
         baseFrequency="0.25 0.4"
         seed="5"
         in="fbSourceGraphic" />
      <feColorMatrix
         id="feColorMatrix8442"
         result="result5"
         values="1 0 0 0 0 0 1 0 0 0 0 0 1 0 0 0 0 0 1 0 " />
      <feComposite
         in2="result5"
         id="feComposite8444"
         in="fbSourceGraphic"
         operator="in" />
      <feMorphology
         id="feMorphology8446"
         operator="dilate"
         radius="1.5"
         result="result3" />
      <feTurbulence
         id="feTurbulence8448"
         numOctaves="5"
         baseFrequency="0.03"
         type="fractalNoise"
         seed="7" />
      <feGaussianBlur
         id="feGaussianBlur8450"
         stdDeviation="0.5"
         result="result91" />
      <feDisplacementMap
         in2="result91"
         id="feDisplacementMap8452"
         in="result3"
         xChannelSelector="R"
         yChannelSelector="G"
         scale="27"
         result="result4" />
      <feComposite
         in2="result4"
         id="feComposite8454"
         in="result4"
         k3="0.8"
         k1="1.3"
         result="result2"
         operator="arithmetic" />
      <feBlend
         in2="result2"
         id="feBlend8456"
         mode="screen"
         in="result2" />
    </filter>
    <filter
       inkscape:menu-tooltip="Partly opaque water color effect with bleed"
       inkscape:menu="Textures"
       inkscape:label="Gouache"
       style="color-interpolation-filters:sRGB;"
       id="filter8495"
       x="-0.023785391"
       y="-0.032691596"
       width="1.0475708"
       height="1.0653832">
      <feGaussianBlur
         stdDeviation="3"
         result="result5"
         in="SourceGraphic"
         id="feGaussianBlur8483" />
      <feTurbulence
         result="result1"
         baseFrequency="0.02"
         type="fractalNoise"
         seed="0"
         numOctaves="3"
         id="feTurbulence8485" />
      <feDisplacementMap
         result="result3"
         in2="result1"
         in="SourceGraphic"
         xChannelSelector="R"
         yChannelSelector="G"
         scale="30"
         id="feDisplacementMap8487" />
      <feComposite
         result="result4"
         in="result3"
         in2="result1"
         operator="out"
         id="feComposite8489" />
      <feComposite
         result="result6"
         operator="arithmetic"
         k2="1"
         k1="0.3"
         k3="0.3"
         in2="result4"
         id="feComposite8491" />
      <feComposite
         in2="result5"
         in="result6"
         operator="over"
         id="feComposite8493" />
    </filter>
  </defs>
  <sodipodi:namedview
     id="namedview4135"
     pagecolor="#ffffff"
     bordercolor="#000000"
     borderopacity="0.25"
     inkscape:showpageshadow="2"
     inkscape:pageopacity="0.0"
     inkscape:pagecheckerboard="0"
     inkscape:deskcolor="#d1d1d1"
     showgrid="false"
     inkscape:zoom="2.2279556"
     inkscape:cx="103.6825"
     inkscape:cy="503.37629"
     inkscape:window-width="1309"
     inkscape:window-height="671"
     inkscape:window-x="47"
     inkscape:window-y="34"
     inkscape:window-maximized="0"
     inkscape:current-layer="svg4133" />
  <path
     id="path2408"
     style="display:inline;fill:#ffe6d5"
     d="m 448.8418,514.79117 c -1.10479,-0.0307 -3.57506,1.31155 -11.15821,7.80274 -2.63903,2.25901 -7.92967,3.63762 -13.92968,4.125 0.24121,0.44262 0.49438,0.96079 0.74218,1.56445 0.24993,0.60885 0.49514,1.30168 0.71485,2.08203 0.2197,0.78035 0.414,1.64784 0.5664,2.60742 0.15241,0.95958 0.26253,2.01168 0.31055,3.15821 0.024,0.57326 0.0325,1.16957 0.0234,1.79101 -0.009,0.62145 -0.0353,1.26691 -0.082,1.9375 -0.13546,1.94415 -0.3088,3.88752 -0.50586,5.82813 -0.19706,1.94061 -0.41852,3.88011 -0.6543,5.81836 -0.47156,3.87649 -0.99716,7.74893 -1.48633,11.62304 -0.24458,1.93706 -0.48064,3.87427 -0.69531,5.8125 -0.21467,1.93823 -0.40845,3.87778 -0.57031,5.81836 -0.16187,1.94058 -0.29077,3.88206 -0.37696,5.82617 -0.0862,1.94412 -0.12956,3.89102 -0.11718,5.83985 0.0126,1.97916 0.0778,3.9542 0.18554,5.92773 0.10779,1.97354 0.25745,3.94486 0.43946,5.91406 0.182,1.96921 0.39759,3.93618 0.63281,5.90235 0.23522,1.96616 0.49038,3.93206 0.75781,5.89648 0.53487,3.92885 1.11465,7.8555 1.65235,11.78516 0.26884,1.96483 0.52562,3.9295 0.76367,5.89648 0.23805,1.96698 0.45633,3.93583 0.64258,5.90625 0.60191,6.36811 1.3835,15.93145 2.01367,23.90235 0.63017,7.97089 1.10937,14.34961 1.10937,14.34961 0,0 0.10049,5.20875 0.29688,11.71679 0.0982,3.25403 0.21932,6.83372 0.36523,10.24805 0.14591,3.41433 0.31511,6.66487 0.50781,9.26172 0.13079,1.76242 0.34382,3.95916 0.58789,6.26562 0.24408,2.30647 0.51925,4.72194 0.7793,6.91602 0.086,0.72515 0.0795,14.81224 2.39796,18.95843 34.4288,-0.49738 69.23494,-28.29617 63.50439,-41.27288 -2.45,-6.33 -5.93001,-17.38985 -7.75,-24.58985 -3.24,-12.81998 -3.28993,-13.33001 -2.41993,-25.5 1.03,-14.38998 2.80094,-30.13101 3.46094,-30.79101 0.68,-0.68 0.80954,-0.41913 5.26953,10.88086 2.28,5.77999 5.54977,16.35 7.25977,23.5 15.9697,60.24474 67.97921,60.38959 65.99023,27.5 -4.22999,-21.26998 -7.74063,-30.26025 -18.39062,-46.99024 -5.7,-8.95999 -12.53063,-22.48977 -14.14063,-28.00976 -2.13,-7.29 -9.31836,-26.5311 -12.56836,-33.6211 -7.43999,-16.24998 -17.19032,-27.27899 -29.32031,-33.20898 -3.38,-1.65 -12.4504,-4.84938 -20.15039,-7.10938 -14.76999,-4.31999 -23.07914,-7.82992 -25.86914,-10.91992 -0.20381,-0.17564 -0.4208,-0.33938 -0.78906,-0.34961 z"
     sodipodi:nodetypes="sscsssscsssssssssssssssscsssssccccscccccccccss" />
  <path
     id="path2405"
     style="display:inline;fill:#ffe6d5"
     d="m 415.15728,729.35484 c 0.99033,-7.78628 -0.18483,-20.19623 0.26264,-25.37617 0.2475,-2.86501 0.4948,-5.87282 0.72461,-8.91797 0.22981,-3.04514 0.44274,-6.12784 0.62305,-9.13867 0.1803,-3.01083 0.32876,-5.95082 0.42773,-8.71289 0.099,-2.76207 0.14895,-5.34567 0.13477,-7.64453 -0.0145,-2.35001 -0.10118,-4.69905 -0.23828,-7.04492 -0.13711,-2.34587 -0.32589,-4.6894 -0.54688,-7.03125 -0.22098,-2.34186 -0.47411,-4.68157 -0.74023,-7.01953 -0.26613,-2.33797 -0.54387,-4.67362 -0.81641,-7.00782 -0.21552,-1.84591 -0.47349,-3.68714 -0.75976,-5.52539 -0.28628,-1.83825 -0.60219,-3.67463 -0.9336,-5.50781 -0.66281,-3.66636 -1.39047,-7.32464 -2.08008,-10.98633 -0.3448,-1.83084 -0.67912,-3.66252 -0.99218,-5.49609 -0.31307,-1.83357 -0.60367,-3.66892 -0.85938,-5.50781 -0.25571,-1.8389 -0.47765,-3.68052 -0.65039,-5.52735 -0.17274,-1.84682 -0.29719,-3.69929 -0.36133,-5.55664 -0.049,-1.41865 -0.0745,-2.83714 -0.0781,-4.25781 -0.004,-1.42067 0.0151,-2.84234 0.0547,-4.26367 0.0396,-1.42133 0.10095,-2.84305 0.18165,-4.26367 0.0807,-1.42063 0.18118,-2.84121 0.30078,-4.25977 0.1196,-1.41856 0.25771,-2.83487 0.41406,-4.25 0.15635,-1.41513 0.33054,-2.82795 0.52148,-4.23828 0.38189,-2.82066 0.8306,-5.63053 1.33789,-8.42383 0.18836,-1.03716 0.41347,-2.00023 0.66602,-2.91406 0.25255,-0.91383 0.53315,-1.77838 0.83203,-2.62305 0.59777,-1.68935 1.26941,-3.29542 1.94531,-5.0332 0.33796,-0.86889 0.67712,-1.77016 1.00782,-2.73242 0.33069,-0.96227 0.65341,-1.9859 0.95898,-3.09571 0.30557,-1.10981 0.59483,-2.30565 0.85742,-3.61718 0.26259,-1.31154 0.49943,-2.73726 0.70117,-4.30469 0.12867,-0.99971 0.21307,-1.94318 0.26368,-2.82813 0.0506,-0.88495 0.0664,-1.71123 0.0566,-2.47851 -0.01,-0.76728 -0.0453,-1.47636 -0.0977,-2.12305 -0.0524,-0.64669 -0.1219,-1.23267 -0.19922,-1.75586 -0.15464,-1.04637 -0.34013,-1.8421 -0.48828,-2.37695 -0.11667,-0.42119 -0.169,-0.54567 -0.20312,-0.63672 -7.70144,-0.18979 -15.50844,-1.75456 -19.88672,-4.90625 -8.36342,-6.02038 -9.80222,-5.98212 -10.74805,-5.2207 -2.87,2.67999 -9.33001,5.19977 -23.75,9.25976 -31.10997,8.75999 -42.51954,19.76011 -54.51953,52.58008 -2,5.44999 -4.45117,12.16016 -5.45117,14.91016 -5.86,16.01998 -8.98923,22.67899 -14.69922,31.20898 -12.37999,18.51998 -14.90016,24.77026 -20.91016,51.74024 -0.29013,30.57187 48.34813,31.67156 66.74024,-29.89844 2.41999,-12.04999 10.92953,-34.62133 12.01953,-31.86133 1.53,3.9 3.82031,24.72079 3.82031,34.80078 0,12.35999 -3.58087,28.45892 -9.38086,42.12891 -4.73192,13.07094 72.23234,55.86477 73.67298,44.53802 z"
     sodipodi:nodetypes="ssssssssssssssssscsssssssssssssscssscsccccccccscss" />
  <path
     id="path4131"
     style="display:inline;fill:#ffe6d5"
     d="m 414.18359,717.18375 c 0.35923,-3.6069 0.78886,-8.02514 1.23633,-13.20508 0.2475,-2.86501 0.4948,-5.87282 0.72461,-8.91797 0.22981,-3.04514 0.44274,-6.12784 0.62305,-9.13867 0.1803,-3.01083 0.32876,-5.95082 0.42773,-8.71289 0.099,-2.76207 0.14895,-5.34567 0.13477,-7.64453 -0.0145,-2.35001 -0.10118,-4.69905 -0.23828,-7.04492 -0.13711,-2.34587 -0.32589,-4.6894 -0.54688,-7.03125 -0.22098,-2.34186 -0.47411,-4.68157 -0.74023,-7.01953 -0.26613,-2.33797 -0.54387,-4.67362 -0.81641,-7.00782 -0.21552,-1.84591 -0.47349,-3.68714 -0.75976,-5.52539 -0.28628,-1.83825 -0.60219,-3.67463 -0.9336,-5.50781 -0.66281,-3.66636 -1.39047,-7.32464 -2.08008,-10.98633 -0.3448,-1.83084 -0.67912,-3.66252 -0.99218,-5.49609 -0.31307,-1.83357 -0.60367,-3.66892 -0.85938,-5.50781 -0.25571,-1.8389 -0.47765,-3.68052 -0.65039,-5.52735 -0.17274,-1.84682 -0.29719,-3.69929 -0.36133,-5.55664 -0.049,-1.41865 -0.0745,-2.83714 -0.0781,-4.25781 -0.004,-1.42067 0.0151,-2.84234 0.0547,-4.26367 0.0396,-1.42133 0.10095,-2.84305 0.18165,-4.26367 0.0807,-1.42063 0.18118,-2.84121 0.30078,-4.25977 0.1196,-1.41856 0.25771,-2.83487 0.41406,-4.25 0.15635,-1.41513 0.33054,-2.82795 0.52148,-4.23828 0.38189,-2.82066 0.8306,-5.63053 1.33789,-8.42383 0.18836,-1.03716 0.41347,-2.00023 0.66602,-2.91406 0.25255,-0.91383 0.53315,-1.77838 0.83203,-2.62305 0.59777,-1.68935 1.26941,-3.29542 1.94531,-5.0332 0.33796,-0.86889 0.67712,-1.77016 1.00782,-2.73242 0.33069,-0.96227 0.65341,-1.9859 0.95898,-3.09571 0.30557,-1.10981 0.59483,-2.30565 0.85742,-3.61718 0.26259,-1.31154 0.49943,-2.73726 0.70117,-4.30469 0.12867,-0.99971 0.21307,-1.94318 0.26368,-2.82813 0.0506,-0.88495 0.0664,-1.71123 0.0566,-2.47851 -0.01,-0.76728 -0.0453,-1.47636 -0.0977,-2.12305 -0.0524,-0.64669 -0.1219,-1.23267 -0.19922,-1.75586 -0.15464,-1.04637 -0.34013,-1.8421 -0.48828,-2.37695 -0.11667,-0.42119 -0.169,-0.54567 -0.20312,-0.63672 -7.70144,-0.18979 -15.50844,-1.75456 -19.88672,-4.90625 -8.36342,-6.02038 -9.80222,-5.98212 -10.74805,-5.2207 -2.87,2.67999 -9.33001,5.19977 -23.75,9.25976 -31.10997,8.75999 -42.51954,19.76011 -54.51953,52.58008 -2,5.44999 -4.45117,12.16016 -5.45117,14.91016 -5.86,16.01998 -8.98923,22.67899 -14.69922,31.20898 -12.37999,18.51998 -14.90016,24.77026 -20.91016,51.74024 -0.29013,30.57187 48.34813,31.67156 66.74024,-29.89844 2.41999,-12.04999 10.92953,-34.62133 12.01953,-31.86133 1.53,3.9 3.82031,24.72079 3.82031,34.80078 0,12.35999 -3.58087,28.45892 -9.38086,42.12891 -4.73192,13.07094 28.93625,25.34694 66.71094,25.39648 z" />
  <path
     id="path1138"
     style="display:inline;fill:#ffe6d5"
     d="m 448.8418,514.79117 c -1.10479,-0.0307 -3.57506,1.31155 -11.15821,7.80274 -2.63903,2.25901 -7.92967,3.63762 -13.92968,4.125 0.24121,0.44262 0.49438,0.96079 0.74218,1.56445 0.24993,0.60885 0.49514,1.30168 0.71485,2.08203 0.2197,0.78035 0.414,1.64784 0.5664,2.60742 0.15241,0.95958 0.26253,2.01168 0.31055,3.15821 0.024,0.57326 0.0325,1.16957 0.0234,1.79101 -0.009,0.62145 -0.0353,1.26691 -0.082,1.9375 -0.13546,1.94415 -0.3088,3.88752 -0.50586,5.82813 -0.19706,1.94061 -0.41852,3.88011 -0.6543,5.81836 -0.47156,3.87649 -0.99716,7.74893 -1.48633,11.62304 -0.24458,1.93706 -0.48064,3.87427 -0.69531,5.8125 -0.21467,1.93823 -0.40845,3.87778 -0.57031,5.81836 -0.16187,1.94058 -0.29077,3.88206 -0.37696,5.82617 -0.0862,1.94412 -0.12956,3.89102 -0.11718,5.83985 0.0126,1.97916 0.0778,3.9542 0.18554,5.92773 0.10779,1.97354 0.25745,3.94486 0.43946,5.91406 0.182,1.96921 0.39759,3.93618 0.63281,5.90235 0.23522,1.96616 0.49038,3.93206 0.75781,5.89648 0.53487,3.92885 1.11465,7.8555 1.65235,11.78516 0.26884,1.96483 0.52562,3.9295 0.76367,5.89648 0.23805,1.96698 0.45633,3.93583 0.64258,5.90625 0.60191,6.36811 1.3835,15.93145 2.01367,23.90235 0.63017,7.97089 1.10937,14.34961 1.10937,14.34961 0,0 0.10049,5.20875 0.29688,11.71679 0.0982,3.25403 0.21932,6.83372 0.36523,10.24805 0.14591,3.41433 0.31511,6.66487 0.50781,9.26172 0.13079,1.76242 0.34382,3.95916 0.58789,6.26562 0.24408,2.30647 0.51925,4.72194 0.7793,6.91602 0.086,0.72515 0.0795,0.63952 0.16016,1.30469 34.4288,-0.49738 71.47274,-10.64243 65.74219,-23.61914 -2.45,-6.33 -5.93001,-17.38985 -7.75,-24.58985 -3.24,-12.81998 -3.28993,-13.33001 -2.41993,-25.5 1.03,-14.38998 2.80094,-30.13101 3.46094,-30.79101 0.68,-0.68 0.80954,-0.41913 5.26953,10.88086 2.28,5.77999 5.54977,16.35 7.25977,23.5 15.9697,60.24474 67.97921,60.38959 65.99023,27.5 -4.22999,-21.26998 -7.74063,-30.26025 -18.39062,-46.99024 -5.7,-8.95999 -12.53063,-22.48977 -14.14063,-28.00976 -2.13,-7.29 -9.31836,-26.5311 -12.56836,-33.6211 -7.43999,-16.24998 -17.19032,-27.27899 -29.32031,-33.20898 -3.38,-1.65 -12.4504,-4.84938 -20.15039,-7.10938 -14.76999,-4.31999 -23.07914,-7.82992 -25.86914,-10.91992 -0.20381,-0.17564 -0.4208,-0.33938 -0.78906,-0.34961 z" />
  <path
     id="path1140"
     style="display:none"
     d="m 432.51758,717.6193 c -0.0806,-0.66517 -0.0742,-0.57954 -0.16016,-1.30469 -0.26005,-2.19408 -0.53522,-4.60955 -0.7793,-6.91602 -0.24407,-2.30646 -0.4571,-4.5032 -0.58789,-6.26562 -0.1927,-2.59685 -0.3619,-5.84739 -0.50781,-9.26172 -0.14591,-3.41433 -0.26704,-6.99402 -0.36523,-10.24805 -0.19639,-6.50804 -0.29688,-11.71679 -0.29688,-11.71679 0,0 -0.4792,-6.37872 -1.10937,-14.34961 -0.63017,-7.9709 -1.41176,-17.53424 -2.01367,-23.90235 -0.18625,-1.97042 -0.40453,-3.93927 -0.64258,-5.90625 -0.23805,-1.96698 -0.49483,-3.93165 -0.76367,-5.89648 -0.5377,-3.92966 -1.11748,-7.85631 -1.65235,-11.78516 -0.26743,-1.96442 -0.52259,-3.93032 -0.75781,-5.89648 -0.23522,-1.96617 -0.45081,-3.93314 -0.63281,-5.90235 -0.18201,-1.9692 -0.33167,-3.94052 -0.43946,-5.91406 -0.10778,-1.97353 -0.17298,-3.94857 -0.18554,-5.92773 -0.0124,-1.94883 0.031,-3.89573 0.11718,-5.83985 0.0862,-1.94411 0.21509,-3.88559 0.37696,-5.82617 0.16186,-1.94058 0.35564,-3.88013 0.57031,-5.81836 0.21467,-1.93823 0.45073,-3.87544 0.69531,-5.8125 0.48917,-3.87411 1.01477,-7.74655 1.48633,-11.62304 0.23578,-1.93825 0.45724,-3.87775 0.6543,-5.81836 0.19706,-1.94061 0.3704,-3.88398 0.50586,-5.82813 0.0467,-0.67059 0.073,-1.31605 0.082,-1.9375 0.009,-0.62144 5.7e-4,-1.21775 -0.0234,-1.79101 -0.048,-1.14653 -0.15814,-2.19863 -0.31055,-3.15821 -0.1524,-0.95958 -0.3467,-1.82707 -0.5664,-2.60742 -0.21971,-0.78035 -0.46492,-1.47318 -0.71485,-2.08203 -0.2478,-0.60366 -0.50097,-1.12183 -0.74218,-1.56445 -2.06966,0.16811 -4.20493,0.21153 -6.36914,0.1582 0.0341,0.091 0.0865,0.21553 0.20312,0.63672 0.14815,0.53485 0.33364,1.33058 0.48828,2.37695 0.0773,0.52319 0.14683,1.10917 0.19922,1.75586 0.0524,0.64669 0.0879,1.35577 0.0977,2.12305 0.01,0.76728 -0.006,1.59356 -0.0566,2.47851 -0.0506,0.88495 -0.13501,1.82842 -0.26368,2.82813 -0.20174,1.56743 -0.43858,2.99315 -0.70117,4.30469 -0.26259,1.31153 -0.55185,2.50737 -0.85742,3.61718 -0.30557,1.10981 -0.62829,2.13344 -0.95898,3.09571 -0.3307,0.96226 -0.66986,1.86353 -1.00782,2.73242 -0.6759,1.73778 -1.34754,3.34385 -1.94531,5.0332 -0.29888,0.84467 -0.57948,1.70922 -0.83203,2.62305 -0.25255,0.91383 -0.47766,1.8769 -0.66602,2.91406 -0.50729,2.7933 -0.956,5.60317 -1.33789,8.42383 -0.19094,1.41033 -0.36513,2.82315 -0.52148,4.23828 -0.15635,1.41513 -0.29446,2.83144 -0.41406,4.25 -0.1196,1.41856 -0.22009,2.83914 -0.30078,4.25977 -0.0807,1.42062 -0.14202,2.84234 -0.18165,4.26367 -0.0396,1.42133 -0.0583,2.843 -0.0547,4.26367 0.004,1.42067 0.0291,2.83916 0.0781,4.25781 0.0641,1.85735 0.18859,3.70982 0.36133,5.55664 0.17274,1.84683 0.39468,3.68845 0.65039,5.52735 0.25571,1.83889 0.54631,3.67424 0.85938,5.50781 0.31306,1.83357 0.64738,3.66525 0.99218,5.49609 0.68961,3.66169 1.41727,7.31997 2.08008,10.98633 0.33141,1.83318 0.64732,3.66956 0.9336,5.50781 0.28627,1.83825 0.54424,3.67948 0.75976,5.52539 0.27254,2.3342 0.55028,4.66985 0.81641,7.00782 0.26612,2.33796 0.51925,4.67767 0.74023,7.01953 0.22099,2.34185 0.40977,4.68538 0.54688,7.03125 0.1371,2.34587 0.22378,4.69491 0.23828,7.04492 0.0142,2.29886 -0.0358,4.88246 -0.13477,7.64453 -0.099,2.76207 -0.24743,5.70206 -0.42773,8.71289 -0.18031,3.01083 -0.39324,6.09353 -0.62305,9.13867 -0.22981,3.04515 -0.47711,6.05296 -0.72461,8.91797 -0.44747,5.17994 -0.8771,9.59818 -1.23633,13.20508 l 18.13477,0.44141 c 0.0662,-8.9e-4 0.133,-0.005 0.19922,-0.006 z" />
  <path
     d="m 340.62,691.62 c 5.8,-13.67 9.38,-29.77 9.38,-42.13 0,-10.08 -2.29,-30.9 -3.82,-34.8 -1.09,-2.76 -9.6,19.81 -12.02,31.86 -18.39212,61.57006 -67.03013,60.47191 -66.74,29.9 6.01,-26.97 8.53,-33.22 20.91,-51.74 5.71,-8.53 8.84,-15.19 14.7,-31.21 1,-2.75 3.45,-9.46 5.45,-14.91 12,-32.82 23.41,-43.82 54.52,-52.58 14.42,-4.06 20.88,-6.58 23.75,-9.26 0.94583,-0.76142 2.38367,-0.80003 10.7471,5.22036 9.17552,6.60497 33.39792,6.43545 40.18666,0.62429 10.11087,-8.65493 11.13102,-8.15723 11.94624,-7.45465 2.79,3.09 11.1,6.6 25.87,10.92 7.7,2.26 16.77,5.46 20.15,7.11 12.13,5.93 21.88,16.96 29.32,33.21 3.25,7.09 10.44,26.33 12.57,33.62 1.61,5.52 8.44,19.05 14.14,28.01 10.65,16.73 14.16,25.72 18.39,46.99 1.98898,32.88963 -50.02028,32.7448 -65.99,-27.5 -1.71,-7.15 -4.98,-17.72 -7.26,-23.5 -4.46,-11.3 -4.59,-11.56 -5.27,-10.88 -0.66,0.66 -2.43,16.4 -3.46,30.79 -0.87,12.17 -0.82,12.68 2.42,25.5 1.82,7.2 5.3,18.26 7.75,24.59 5.74158,13.00168 -34.44084,40.56976 -68.92564,41.03087 l -22.75093,-2.59852 C 368.8087,732.38281 335.88807,704.69096 340.62,691.62 Z"
     fill="#d6c8a8"
     id="path8481"
     style="display:inline;fill:#d6c8a8;fill-opacity:0.523316;filter:url(#filter8495)"
     sodipodi:nodetypes="csccccccccsscccccccccscccccc" />
</svg>
