<?xml version="1.0" encoding="UTF-8" standalone="no"?>
<svg
   width="364.0"
   height="838.16"
   viewBox="237.0 109.84 364.0 838.16"
   version="1.1"
   id="svg320"
   sodipodi:docname="face_18.svg"
   inkscape:version="1.2 (dc2aeda, 2022-05-15)"
   xmlns:inkscape="http://www.inkscape.org/namespaces/inkscape"
   xmlns:sodipodi="http://sodipodi.sourceforge.net/DTD/sodipodi-0.dtd"
   xmlns="http://www.w3.org/2000/svg"
   xmlns:svg="http://www.w3.org/2000/svg">
  <sodipodi:namedview
     id="namedview322"
     pagecolor="#ffffff"
     bordercolor="#000000"
     borderopacity="0.25"
     inkscape:showpageshadow="2"
     inkscape:pageopacity="0.0"
     inkscape:pagecheckerboard="0"
     inkscape:deskcolor="#d1d1d1"
     showgrid="false"
     inkscape:zoom="2.8563774"
     inkscape:cx="140.38761"
     inkscape:cy="351.14408"
     inkscape:window-width="1309"
     inkscape:window-height="456"
     inkscape:window-x="47"
     inkscape:window-y="34"
     inkscape:window-maximized="0"
     inkscape:current-layer="g433" />
  <defs
     id="defs586" />
  <g
     transform="matrix(2.546053,0,0,2.546053,-640.1579,-525.9723)"
     id="g318">
    <g
       id="g433">
      <path
         style="clip-rule:evenodd;fill:#3a2018;fill-rule:evenodd"
         d="m 400.66,374.806 -15.41,2.667 c -2.386,-2.339 -3.252,-5.247 -2.897,-7.925 l 10.401,-7.783 c 6.999,0.49 11.154,6.363 7.906,13.041 z"
         id="path403" />
      <path
         style="clip-rule:evenodd;fill:#ffffff;fill-rule:evenodd"
         d="m 396.864,364.624 c -1.718,-0.334 -3.378,0.79 -3.71,2.506 -0.332,1.716 0.791,3.377 2.508,3.708 1.716,0.331 3.376,-0.79 3.708,-2.506 0.331,-1.718 -0.791,-3.379 -2.506,-3.708 z"
         id="path405" />
      <path
         style="clip-rule:evenodd;fill:#3a2018;fill-rule:evenodd"
         d="m 379.775,372.327 c -0.474,0.318 -1.116,0.194 -1.436,-0.278 -0.319,-0.475 -0.194,-1.118 0.279,-1.436 0.55,-0.372 1.254,-0.824 2.022,-1.318 4.18,-2.688 10.422,-6.702 12.465,-11.485 0.224,-0.523 0.83,-0.768 1.354,-0.545 0.525,0.224 0.77,0.829 0.547,1.353 -2.293,5.369 -8.854,9.588 -13.25,12.416 -0.714,0.458 -1.367,0.878 -1.981,1.293 z"
         id="path407" />
      <path
         style="clip-rule:evenodd;fill:#3a2018;fill-rule:evenodd"
         d="m 402.778,373.447 c 0.569,10e-4 1.029,0.465 1.025,1.035 -0.002,0.569 -0.466,1.029 -1.034,1.026 -2.24,-0.014 -5.847,0.355 -9.729,1.087 -3.222,0.605 -6.623,1.462 -9.574,2.553 -0.536,0.196 -1.13,-0.079 -1.326,-0.615 -0.196,-0.536 0.079,-1.129 0.614,-1.326 3.054,-1.129 6.574,-2.015 9.906,-2.642 4.001,-0.754 7.754,-1.132 10.118,-1.118 z"
         id="path409" />
      <path
         style="clip-rule:evenodd;fill:#a6d2f0;fill-rule:evenodd"
         d="m 381.905,372.56 c 2.034,-0.838 4.104,-0.493 4.624,0.771 0.522,1.265 -0.704,2.968 -2.739,3.806 -2.032,0.838 -4.103,0.492 -4.623,-0.772 -0.521,-1.265 0.706,-2.968 2.738,-3.805 z"
         id="path411" />
      <path
         style="clip-rule:evenodd;fill:#3a2018;fill-rule:evenodd"
         d="m 381.615,371.843 c 1.152,-0.474 2.328,-0.612 3.298,-0.451 1.098,0.185 1.962,0.746 2.332,1.644 l 0.006,0.016 c 0.36,0.893 0.142,1.895 -0.505,2.793 -0.574,0.801 -1.509,1.531 -2.66,2.007 -1.153,0.474 -2.331,0.613 -3.3,0.451 -1.1,-0.183 -1.966,-0.744 -2.335,-1.643 -0.369,-0.896 -0.15,-1.903 0.5,-2.809 0.576,-0.8 1.508,-1.531 2.66,-2.007 z m 3.043,1.078 c -0.703,-0.117 -1.578,-0.009 -2.458,0.354 -0.881,0.362 -1.578,0.902 -1.994,1.48 -0.34,0.472 -0.476,0.948 -0.324,1.314 0.151,0.365 0.584,0.607 1.157,0.702 0.703,0.117 1.578,0.01 2.458,-0.352 0.88,-0.365 1.579,-0.904 1.993,-1.479 0.328,-0.456 0.464,-0.913 0.34,-1.274 l -0.035,-0.084 c -0.164,-0.342 -0.584,-0.569 -1.137,-0.661 z"
         id="path413" />
      <path
         style="clip-rule:evenodd;fill:#3a2018;fill-rule:evenodd"
         d="m 430.606,374.814 15.178,3.771 c 2.548,-2.16 3.622,-5 3.459,-7.695 l -9.814,-8.511 c -7.015,-0.018 -11.582,5.541 -8.823,12.435 z"
         id="path415" />
      <path
         style="clip-rule:evenodd;fill:#ffffff;fill-rule:evenodd"
         d="m 435.125,364.932 c 1.736,-0.208 3.311,1.029 3.519,2.767 0.207,1.736 -1.031,3.312 -2.767,3.519 -1.735,0.207 -3.312,-1.031 -3.519,-2.767 -0.207,-1.737 1.033,-3.311 2.767,-3.519 z"
         id="path417" />
      <path
         style="clip-rule:evenodd;fill:#3a2018;fill-rule:evenodd"
         d="m 452.893,372.219 c 0.449,0.353 0.526,1.003 0.174,1.451 -0.352,0.448 -1.003,0.528 -1.451,0.174 -0.642,-0.504 -1.235,-0.948 -1.884,-1.436 -4.181,-3.136 -10.425,-7.817 -12.323,-13.332 -0.186,-0.54 0.103,-1.129 0.643,-1.315 0.541,-0.185 1.129,0.103 1.314,0.643 1.695,4.924 7.629,9.375 11.604,12.355 0.761,0.572 1.459,1.096 1.923,1.46 z"
         id="path419" />
      <path
         style="clip-rule:evenodd;fill:#3a2018;fill-rule:evenodd"
         d="m 428.457,375.366 c -0.569,-0.034 -1.002,-0.525 -0.966,-1.095 0.036,-0.569 0.525,-1.003 1.095,-0.966 2.358,0.155 6.075,0.806 10.018,1.844 3.276,0.866 6.723,2.002 9.689,3.35 0.521,0.234 0.752,0.846 0.52,1.366 -0.235,0.521 -0.848,0.752 -1.368,0.518 -2.862,-1.3 -6.194,-2.398 -9.365,-3.234 -3.817,-1.007 -7.385,-1.635 -9.623,-1.783 z"
         id="path421" />
      <path
         style="clip-rule:evenodd;fill:#a6d2f0;fill-rule:evenodd"
         d="m 449.474,373.924 c -1.968,-0.98 -4.058,-0.787 -4.668,0.437 -0.609,1.223 0.489,3.01 2.457,3.991 1.968,0.982 4.058,0.788 4.668,-0.436 0.609,-1.223 -0.49,-3.01 -2.457,-3.992 z"
         id="path423" />
      <path
         style="clip-rule:evenodd;fill:#3a2018;fill-rule:evenodd"
         d="m 449.127,374.619 c -0.854,-0.428 -1.718,-0.6 -2.427,-0.535 -0.576,0.055 -1.023,0.267 -1.2,0.621 -0.177,0.354 -0.076,0.839 0.229,1.335 0.372,0.605 1.028,1.193 1.88,1.617 0.854,0.427 1.72,0.599 2.427,0.534 0.577,-0.055 1.023,-0.266 1.201,-0.621 0.177,-0.355 0.076,-0.838 -0.229,-1.334 -0.371,-0.605 -1.029,-1.193 -1.881,-1.617 z m -2.566,-2.074 c 0.98,-0.092 2.146,0.129 3.257,0.685 1.118,0.557 1.994,1.355 2.513,2.193 0.583,0.95 0.728,1.971 0.294,2.84 -0.433,0.867 -1.337,1.364 -2.448,1.469 -0.982,0.092 -2.147,-0.13 -3.259,-0.685 -1.117,-0.558 -1.994,-1.355 -2.512,-2.196 -0.583,-0.947 -0.729,-1.969 -0.295,-2.837 0.434,-0.867 1.338,-1.366 2.45,-1.469 z"
         id="path425" />
      <path
         style="clip-rule:evenodd;fill:#3a2018;fill-rule:evenodd;stroke-width:0.938312"
         d="m 397.57354,394.34448 c -0.39268,0.354 -0.96495,0.276 -1.27398,-0.169 -0.3108,-0.447 -0.24388,-1.095 0.14967,-1.448 0.67265,-0.604 1.46503,-1.181 2.36131,-1.586 0.92534,-0.418 1.95279,-0.653 3.05949,-0.554 5.5388,0.5 7.0725,-0.895 8.52697,-2.219 1.34881,-1.228 2.64217,-2.402 5.95435,-2.461 3.63705,-0.063 5.14083,1.526 6.57416,3.04 1.61735,1.709 3.12553,3.304 9.24275,0.872 0.97728,-0.388 2.05933,-0.301 3.13434,0.058 1.25989,0.42 2.52771,1.221 3.57894,2.03 0.41557,0.319 0.52474,0.96 0.24212,1.432 -0.27998,0.47 -0.84521,0.594 -1.2599,0.274 -0.91828,-0.707 -2.01353,-1.404 -3.0727,-1.755 -0.7378,-0.248 -1.44478,-0.32 -2.0241,-0.091 -7.15085,2.844 -9.0473,0.841 -11.08021,-1.308 -1.17361,-1.241 -2.40445,-2.542 -5.31427,-2.49 -2.68003,0.047 -3.73479,1.008 -4.83532,2.008 -1.73181,1.576 -3.55694,3.235 -9.80711,2.672 -0.81264,-0.073 -1.56629,0.099 -2.2495,0.408 -0.71315,0.322 -1.35586,0.792 -1.90701,1.287 z"
         id="path427" />
      <path
         style="clip-rule:evenodd;fill:#3a2018;fill-rule:evenodd;stroke-width:0.938312"
         d="m 395.03703,391.17648 c 0.0687,-0.565 0.52825,-0.959 1.02481,-0.881 0.49744,0.078 0.84434,0.6 0.77654,1.165 -8.8e-4,0.006 -0.34249,2.47 1.36731,3.694 0.42437,0.305 0.55291,0.941 0.28526,1.422 -0.26765,0.484 -0.82849,0.629 -1.25285,0.325 -2.72582,-1.952 -2.20284,-5.714 -2.20107,-5.725 z"
         id="path429" />
      <path
         style="clip-rule:evenodd;fill:#3a2018;fill-rule:evenodd;stroke-width:0.938312"
         d="m 438.74771,390.90348 c 0.0687,-0.564 0.52915,-0.959 1.02571,-0.882 0.49656,0.079 0.84346,0.601 0.77566,1.166 -0.002,0.009 -0.42525,3.38 -2.37188,5.712 -0.34601,0.411 -0.92269,0.429 -1.28542,0.036 -0.36362,-0.392 -0.37859,-1.048 -0.0325,-1.46 1.54692,-1.852 1.88765,-4.563 1.88852,-4.572 z"
         id="path431" />
    </g>
  </g>
</svg>
