<?xml version="1.0" encoding="UTF-8" standalone="no"?>
<svg
   viewBox="0 0 32 32"
   version="1.1"
   id="svg11"
   sodipodi:docname="gold.svg"
   inkscape:version="1.2 (dc2aeda, 2022-05-15)"
   xmlns:inkscape="http://www.inkscape.org/namespaces/inkscape"
   xmlns:sodipodi="http://sodipodi.sourceforge.net/DTD/sodipodi-0.dtd"
   xmlns="http://www.w3.org/2000/svg"
   xmlns:svg="http://www.w3.org/2000/svg">
  <defs
     id="defs15" />
  <sodipodi:namedview
     id="namedview13"
     pagecolor="#ffffff"
     bordercolor="#000000"
     borderopacity="0.25"
     inkscape:showpageshadow="2"
     inkscape:pageopacity="0.0"
     inkscape:pagecheckerboard="0"
     inkscape:deskcolor="#d1d1d1"
     showgrid="false"
     inkscape:zoom="6.1577208"
     inkscape:cx="-3.247955"
     inkscape:cy="16.726968"
     inkscape:window-width="1309"
     inkscape:window-height="456"
     inkscape:window-x="47"
     inkscape:window-y="34"
     inkscape:window-maximized="0"
     inkscape:current-layer="svg11" />
  <path
     d="m 13.240123,28.307133 a 10.361132,10.361132 0 0 0 4.0166,-0.781324 8.0194519,8.0194519 0 1 0 3.430034,-15.25758 V 8.0671814 c 0,-2.7873322 -3.270791,-4.9640406 -7.446634,-4.9640406 -4.1758435,0 -7.4466345,2.1767084 -7.4466345,4.9640406 V 23.343092 c 0,2.787333 3.270791,4.964041 7.4466345,4.964041 z m 7.446634,-13.747632 a 5.7281802,5.7281802 0 1 1 -5.72818,5.72818 5.7350537,5.7350537 0 0 1 5.72818,-5.72818 z M 13.240123,5.3944129 c 3.038226,0 5.155362,1.4091322 5.155362,2.6727685 0,1.2636366 -2.117136,2.6739146 -5.155362,2.6739146 -3.038227,0 -5.1553625,-1.4091325 -5.1553625,-2.6739146 0,-1.2647818 2.1171355,-2.6727685 5.1553625,-2.6727685 z M 8.0847605,11.67479 a 9.6989545,9.6989545 0 0 0 5.1553625,1.357578 9.6989545,9.6989545 0 0 0 5.155362,-1.357578 v 0.93713 a 8.0469471,8.0469471 0 0 0 -4.33165,3.161955 c -0.273807,0.02406 -0.545323,0.05843 -0.823712,0.05843 -3.038227,0 -5.1553625,-1.409133 -5.1553625,-2.672769 z m 0,5.092352 a 9.6038665,9.6038665 0 0 0 4.8895745,1.343831 7.997685,7.997685 0 0 0 -0.30703,2.176708 c 0,0.203923 0.01604,0.404409 0.03093,0.604896 C 9.9590215,20.734479 8.0847615,19.436473 8.0847615,18.25074 Z m 0,5.091206 a 9.6943716,9.6943716 0 0 0 5.1439055,1.356433 8.030908,8.030908 0 0 0 1.694396,2.634963 8.9760579,8.9760579 0 0 1 -1.682939,0.166117 c -3.038227,0 -5.1553625,-1.409133 -5.1553625,-2.672769 z"
     id="path1421"
     style="stroke-width:1.14563" />
</svg>
