<?xml version="1.0" encoding="UTF-8" standalone="no"?>
<svg
   width="364"
   height="838.16"
   viewBox="237 109.84 364 838.16"
   version="1.1"
   id="svg4050"
   sodipodi:docname="simple_boots.svg"
   inkscape:version="1.2 (dc2aeda, 2022-05-15)"
   xmlns:inkscape="http://www.inkscape.org/namespaces/inkscape"
   xmlns:sodipodi="http://sodipodi.sourceforge.net/DTD/sodipodi-0.dtd"
   xmlns="http://www.w3.org/2000/svg"
   xmlns:svg="http://www.w3.org/2000/svg">
  <defs
     id="defs4054" />
  <sodipodi:namedview
     id="namedview4052"
     pagecolor="#ffffff"
     bordercolor="#000000"
     borderopacity="0.25"
     inkscape:showpageshadow="2"
     inkscape:pageopacity="0.0"
     inkscape:pagecheckerboard="0"
     inkscape:deskcolor="#d1d1d1"
     showgrid="false"
     inkscape:zoom="2.544656"
     inkscape:cx="211.03049"
     inkscape:cy="773.38549"
     inkscape:window-width="1309"
     inkscape:window-height="456"
     inkscape:window-x="47"
     inkscape:window-y="34"
     inkscape:window-maximized="0"
     inkscape:current-layer="svg4050" />
  <path
     d="m 535.19,880.75 6.16,4.08 c 16.17,10.71 25.91,21.56 29.14,32.45 4.68,15.75 -0.84,18.23 -40.49,18.21 -33.55,-0.02 -50.42,-2.43 -54.9,-7.86 -1.13,-1.36 -1.28,-4.6 -0.8,-16.41 0.33,-8.1 1.22,-16.75 1.97,-19.22 1.49301,-26.68383 38.56942,-44.8275 58.92,-11.25 z"
     fill="#4a3b2f"
     id="path4042" />
  <path
     d="m 337.93,934.48 c -22.93,2.56 -59.83,1.32 -66.48,-2.24 -4.52,-2.42 -5.77,-4.92 -5.13,-10.3 1.42,-11.99 10.79,-24.2 26.93,-35.09 4.81,-3.25 8.75,-6.01 8.75,-6.13 39.52764,-33.84727 58.4498,9.19039 58.95,11.73 1.51,7.55 3.2,29.98 2.43,32.15 -1.19,3.34 -4.65,6.39 -8.39,7.4 -1.99,0.54 -9.67,1.66 -17.06,2.48 z"
     fill="#4a3b2f"
     id="path4044" />
  <path
     d="m 495.58993,903.07973 c 3.03258,-16.32211 20.88614,-21.08015 36.2374,-19.93116"
     fill="none"
     stroke="#2f261d"
     stroke-width="6"
     stroke-linecap="round"
     id="path4046"
     sodipodi:nodetypes="cc" />
  <path
     d="m 512.0447,907.02852 c 8.35521,-14.32613 19.4682,-15.66806 31.91462,-15.60838"
     fill="none"
     stroke="#2f261d"
     stroke-width="6"
     stroke-linecap="round"
     id="path4046-4"
     sodipodi:nodetypes="cc" />
  <path
     d="m 296.35961,889.60713 c 21.69092,2.52192 29.63104,13.18539 29.9,26.9"
     fill="none"
     stroke="#2f261d"
     stroke-width="6"
     stroke-linecap="round"
     id="path4048"
     sodipodi:nodetypes="cc" />
  <path
     d="m 310.30505,879.82743 c 17.15223,5.05759 32.66296,14.42074 34.94687,33.51879"
     fill="none"
     stroke="#2f261d"
     stroke-width="7.24082"
     stroke-linecap="round"
     id="path4048-1"
     sodipodi:nodetypes="cc" />
</svg>
