<?xml version="1.0" encoding="UTF-8" standalone="no"?>
<svg
   width="364"
   height="838.16"
   viewBox="237 109.84 364 838.16"
   version="1.1"
   id="svg4133"
   sodipodi:docname="linen_tunic.svg"
   inkscape:version="1.2 (dc2aeda, 2022-05-15)"
   xmlns:inkscape="http://www.inkscape.org/namespaces/inkscape"
   xmlns:sodipodi="http://sodipodi.sourceforge.net/DTD/sodipodi-0.dtd"
   xmlns="http://www.w3.org/2000/svg"
   xmlns:svg="http://www.w3.org/2000/svg">
  <defs
     id="defs4137">
    <filter
       inkscape:label="Pixel Smear"
       inkscape:menu="Distort"
       inkscape:menu-tooltip="Van Gogh painting effect for bitmaps"
       height="1.1774842"
       y="-0.088742085"
       width="1.118927"
       x="-0.059463478"
       style="color-interpolation-filters:sRGB;"
       id="filter8412">
      <feGaussianBlur
         result="result1"
         in="SourceGraphic"
         stdDeviation="2"
         id="feGaussianBlur8396" />
      <feTurbulence
         result="result0"
         numOctaves="5"
         baseFrequency="0.05"
         type="fractalNoise"
         id="feTurbulence8398" />
      <feDisplacementMap
         result="result2"
         scale="10"
         yChannelSelector="G"
         xChannelSelector="R"
         in="result1"
         in2="result0"
         id="feDisplacementMap8400" />
      <feColorMatrix
         values="1 0 0 0 0 0 1 0 0 0 0 0 1 0 0 0 0 0 10 0 "
         result="result3"
         id="feColorMatrix8402" />
      <feBlend
         mode="multiply"
         in="result2"
         result="result5"
         in2="result3"
         id="feBlend8404" />
      <feGaussianBlur
         result="result4"
         in="result3"
         stdDeviation="5"
         id="feGaussianBlur8406" />
      <feComposite
         k1="0.5"
         k3="1.5"
         k2="0.15"
         in="result4"
         in2="result5"
         operator="arithmetic"
         result="result6"
         id="feComposite8408" />
      <feComposite
         operator="in"
         in="result6"
         in2="result4"
         id="feComposite8410"
         result="fbSourceGraphic" />
      <feColorMatrix
         result="fbSourceGraphicAlpha"
         in="fbSourceGraphic"
         values="0 0 0 -1 0 0 0 0 -1 0 0 0 0 -1 0 0 0 0 1 0"
         id="feColorMatrix8438" />
      <feTurbulence
         id="feTurbulence8440"
         type="fractalNoise"
         numOctaves="3"
         baseFrequency="0.25 0.4"
         seed="5"
         in="fbSourceGraphic" />
      <feColorMatrix
         id="feColorMatrix8442"
         result="result5"
         values="1 0 0 0 0 0 1 0 0 0 0 0 1 0 0 0 0 0 1 0 " />
      <feComposite
         in2="result5"
         id="feComposite8444"
         in="fbSourceGraphic"
         operator="in" />
      <feMorphology
         id="feMorphology8446"
         operator="dilate"
         radius="1.5"
         result="result3" />
      <feTurbulence
         id="feTurbulence8448"
         numOctaves="5"
         baseFrequency="0.03"
         type="fractalNoise"
         seed="7" />
      <feGaussianBlur
         id="feGaussianBlur8450"
         stdDeviation="0.5"
         result="result91" />
      <feDisplacementMap
         in2="result91"
         id="feDisplacementMap8452"
         in="result3"
         xChannelSelector="R"
         yChannelSelector="G"
         scale="27"
         result="result4" />
      <feComposite
         in2="result4"
         id="feComposite8454"
         in="result4"
         k3="0.8"
         k1="1.3"
         result="result2"
         operator="arithmetic" />
      <feBlend
         in2="result2"
         id="feBlend8456"
         mode="screen"
         in="result2" />
    </filter>
    <filter
       inkscape:menu-tooltip="Partly opaque water color effect with bleed"
       inkscape:menu="Textures"
       inkscape:label="Gouache"
       style="color-interpolation-filters:sRGB;"
       id="filter8495"
       x="-0.023785391"
       y="-0.035496834"
       width="1.0475708"
       height="1.0709937">
      <feGaussianBlur
         stdDeviation="3"
         result="result5"
         in="SourceGraphic"
         id="feGaussianBlur8483" />
      <feTurbulence
         result="result1"
         baseFrequency="0.02"
         type="fractalNoise"
         seed="0"
         numOctaves="3"
         id="feTurbulence8485" />
      <feDisplacementMap
         result="result3"
         in2="result1"
         in="SourceGraphic"
         xChannelSelector="R"
         yChannelSelector="G"
         scale="30"
         id="feDisplacementMap8487" />
      <feComposite
         result="result4"
         in="result3"
         in2="result1"
         operator="out"
         id="feComposite8489" />
      <feComposite
         result="result6"
         operator="arithmetic"
         k2="1"
         k1="0.3"
         k3="0.3"
         in2="result4"
         id="feComposite8491" />
      <feComposite
         in2="result5"
         in="result6"
         operator="over"
         id="feComposite8493" />
    </filter>
  </defs>
  <sodipodi:namedview
     id="namedview4135"
     pagecolor="#ffffff"
     bordercolor="#000000"
     borderopacity="0.25"
     inkscape:showpageshadow="2"
     inkscape:pageopacity="0.0"
     inkscape:pagecheckerboard="0"
     inkscape:deskcolor="#d1d1d1"
     showgrid="false"
     inkscape:zoom="1.0166364"
     inkscape:cx="35.41089"
     inkscape:cy="507.55609"
     inkscape:window-width="1309"
     inkscape:window-height="456"
     inkscape:window-x="47"
     inkscape:window-y="34"
     inkscape:window-maximized="0"
     inkscape:current-layer="svg4133" />
  <path
     d="m 340.62,691.62 c 5.8,-13.67 9.38,-29.77 9.38,-42.13 0,-10.08 -2.29,-30.9 -3.82,-34.8 -1.09,-2.76 -9.6,19.81 -12.02,31.86 -18.39212,61.57006 -67.03013,60.47191 -66.74,29.9 6.01,-26.97 8.53,-33.22 20.91,-51.74 5.71,-8.53 8.84,-15.19 14.7,-31.21 1,-2.75 3.45,-9.46 5.45,-14.91 12,-32.82 23.41,-43.82 54.52,-52.58 14.42,-4.06 20.88,-6.58 23.75,-9.26 0.94583,-0.76142 2.38367,-0.80003 10.7471,5.22036 9.17552,6.60497 33.39792,6.43545 40.18666,0.62429 10.11087,-8.65493 11.13102,-8.15723 11.94624,-7.45465 2.79,3.09 11.1,6.6 25.87,10.92 7.7,2.26 16.77,5.46 20.15,7.11 12.13,5.93 21.88,16.96 29.32,33.21 3.25,7.09 10.44,26.33 12.57,33.62 1.61,5.52 8.44,19.05 14.14,28.01 10.65,16.73 14.16,25.72 18.39,46.99 1.98898,32.88963 -50.02028,32.7448 -65.99,-27.5 -1.71,-7.15 -4.98,-17.72 -7.26,-23.5 -4.46,-11.3 -4.59,-11.56 -5.27,-10.88 -0.66,0.66 -2.43,16.4 -3.46,30.79 -0.87,12.17 -0.82,12.68 2.42,25.5 1.82,7.2 5.3,18.26 7.75,24.59 5.74158,13.00168 -31.45711,23.16466 -65.94191,23.62577 l -24.98873,-0.60936 C 369.55463,716.96687 335.88807,704.69096 340.62,691.62 Z"
     fill="#d6c8a8"
     id="path4131"
     style="display:none" />
  <path
     d="m 340.62,691.62 c 5.8,-13.67 9.38,-29.77 9.38,-42.13 0,-10.08 -2.29,-30.9 -3.82,-34.8 -1.09,-2.76 -9.6,19.81 -12.02,31.86 -18.39212,61.57006 -67.03013,60.47191 -66.74,29.9 6.01,-26.97 8.53,-33.22 20.91,-51.74 5.71,-8.53 8.84,-15.19 14.7,-31.21 1,-2.75 3.45,-9.46 5.45,-14.91 12,-32.82 23.41,-43.82 54.52,-52.58 14.42,-4.06 20.88,-6.58 23.75,-9.26 0.94583,-0.76142 2.38367,-0.80003 10.7471,5.22036 9.17552,6.60497 33.39792,6.43545 40.18666,0.62429 10.11087,-8.65493 11.13102,-8.15723 11.94624,-7.45465 2.79,3.09 11.1,6.6 25.87,10.92 7.7,2.26 16.77,5.46 20.15,7.11 12.13,5.93 21.88,16.96 29.32,33.21 3.25,7.09 10.44,26.33 12.57,33.62 1.61,5.52 8.44,19.05 14.14,28.01 10.65,16.73 14.16,25.72 18.39,46.99 1.98898,32.88963 -50.02028,32.7448 -65.99,-27.5 -1.71,-7.15 -4.98,-17.72 -7.26,-23.5 -4.46,-11.3 -4.59,-11.56 -5.27,-10.88 -0.66,0.66 -2.43,16.4 -3.46,30.79 -0.87,12.17 -0.82,12.68 2.42,25.5 1.82,7.2 5.3,18.26 7.75,24.59 5.74158,13.00168 -31.45711,23.16466 -65.94191,23.62577 l -24.98873,-0.60936 C 369.55463,716.96687 335.88807,704.69096 340.62,691.62 Z"
     fill="#d6c8a8"
     id="path8481"
     style="display:inline;filter:url(#filter8495)" />
</svg>
