<?xml version="1.0" encoding="UTF-8"?>
<svg width="364" height="838.16" viewBox="237 109.84 364 838.16" xmlns="http://www.w3.org/2000/svg">
  <path
    d="m 340.62,691.62 c 5.8,-13.67 9.38,-29.77 9.38,-42.13 0,-10.08 -2.29,-30.9 -3.82,-34.8 -1.09,-2.76 -9.6,19.81 -12.02,31.86 -18.39212,61.57006 -67.03013,60.47191 -66.74,29.9 6.01,-26.97 8.53,-33.22 20.91,-51.74 5.71,-8.53 8.84,-15.19 14.7,-31.21 1,-2.75 3.45,-9.46 5.45,-14.91 12,-32.82 23.41,-43.82 54.52,-52.58 14.42,-4.06 20.88,-6.58 23.75,-9.26 0.94583,-0.76142 2.38367,-0.80003 10.7471,5.22036 9.17552,6.60497 33.39792,6.43545 40.18666,0.62429 10.11087,-8.65493 11.13102,-8.15723 11.94624,-7.45465 2.79,3.09 11.1,6.6 25.87,10.92 7.7,2.26 16.77,5.46 20.15,7.11 12.13,5.93 21.88,16.96 29.32,33.21 3.25,7.09 10.44,26.33 12.57,33.62 1.61,5.52 8.44,19.05 14.14,28.01 10.65,16.73 14.16,25.72 18.39,46.99 1.98898,32.88963 -50.02028,32.7448 -65.99,-27.5 -1.71,-7.15 -4.98,-17.72 -7.26,-23.5 -4.46,-11.3 -4.59,-11.56 -5.27,-10.88 -0.66,0.66 -2.43,16.4 -3.46,30.79 -0.87,12.17 -0.82,12.68 2.42,25.5 1.82,7.2 5.3,18.26 7.75,24.59 5.74158,13.00168 -31.45711,23.16466 -65.94191,23.62577 l -24.98873,-0.60936 C 369.55463,716.96687 335.88807,704.69096 340.62,691.62 Z"
    fill="#d6c8a8" />
</svg>
