<?xml version="1.0" encoding="UTF-8" standalone="no"?>
<svg
   width="364.0"
   height="838.16"
   viewBox="237.0 109.84 364.0 838.16"
   version="1.1"
   id="svg570"
   sodipodi:docname="hair_09.svg"
   inkscape:version="1.2 (dc2aeda, 2022-05-15)"
   xmlns:inkscape="http://www.inkscape.org/namespaces/inkscape"
   xmlns:sodipodi="http://sodipodi.sourceforge.net/DTD/sodipodi-0.dtd"
   xmlns="http://www.w3.org/2000/svg"
   xmlns:svg="http://www.w3.org/2000/svg">
  <sodipodi:namedview
     id="namedview572"
     pagecolor="#ffffff"
     bordercolor="#000000"
     borderopacity="0.25"
     inkscape:showpageshadow="2"
     inkscape:pageopacity="0.0"
     inkscape:pagecheckerboard="0"
     inkscape:deskcolor="#d1d1d1"
     showgrid="false"
     inkscape:zoom="0.87910145"
     inkscape:cx="40.950905"
     inkscape:cy="204.75452"
     inkscape:window-width="1309"
     inkscape:window-height="456"
     inkscape:window-x="47"
     inkscape:window-y="34"
     inkscape:window-maximized="0"
     inkscape:current-layer="svg570" />
  <defs
     id="defs674" />
  <g
     transform="matrix(0.608491,0,0,0.608491,210.90336,-418.72877)"
     id="g568">
    <g
       id="g635">
      <path
         style="fill:#775d51"
         d="m 158.403,1269.573 c -3.802,15.43 -7.617,30.944 -8.84,46.788 -2.296,29.739 4.61,59.443 4.599,89.271 3.225,-25.014 6.874,-50.295 16.511,-73.602 9.637,-23.306 26.006,-44.774 48.807,-55.554 -0.54,0.255 -15.033,-12.604 -17.142,-14.03 -6.502,-4.398 -13.541,-8.438 -20.856,-11.335 -15.6,-6.174 -19.648,4.539 -23.079,18.462 z"
         id="path615" />
      <path
         style="fill:#775d51"
         d="m 523.095,1263.252 c 3.802,15.429 7.617,30.943 8.84,46.787 2.296,29.739 -4.61,59.443 -4.599,89.272 -3.225,-25.014 -6.873,-50.294 -16.511,-73.601 -9.638,-23.307 -26.007,-44.775 -48.808,-55.555 0.541,0.256 15.033,-12.603 17.143,-14.03 6.501,-4.399 13.54,-8.438 20.855,-11.334 15.601,-6.176 19.649,4.537 23.08,18.461 z"
         id="path617" />
      <path
         style="fill:#775d51"
         d="m 220.96,1283.231 c 29.771,-14.088 62.806,-19.531 95.452,-23.894 28.051,-3.749 56.389,-6.817 84.613,-4.739 28.225,2.078 56.555,9.571 79.993,25.433 9.458,6.4 18.19,14.18 28.824,18.341 10.634,4.161 24.2,3.729 31.814,-4.78 3.461,-3.868 5.286,-8.914 6.637,-13.926 8.013,-29.707 1.665,-62.223 -13.638,-88.916 -15.304,-26.693 -38.961,-47.909 -65.24,-63.915 -12.998,-7.916 -26.984,-14.753 -42.031,-17.031 -11.756,-1.78 -23.727,-0.719 -35.612,-0.347 -39.497,1.235 -79.355,-5.178 -118.379,1.041 -44.838,7.146 -86.715,31.494 -115.106,66.928 -14.524,18.128 -25.721,39.435 -29.126,62.412 -2.829,19.088 -0.788,55.938 18.565,67.598 21.593,13.007 54.582,-15.378 73.234,-24.205 z"
         id="path619" />
      <path
         style="fill:#775d51"
         d="m 334.675,1272.594 c 0.246,2.369 1.367,4.565 2.724,6.522 5.015,7.238 13.404,11.759 22.109,13.088 8.705,1.328 17.681,-0.325 25.855,-3.6 -6.636,0.911 -13.602,1.788 -19.863,-0.591 -6.261,-2.379 -11.384,-9.193 -9.464,-15.609 2.417,-8.077 12.789,-9.709 20.43,-13.271 5.727,-2.67 10.588,-7.164 13.698,-12.665 1.888,-3.338 3.073,-7.689 0.932,-10.87 -2.356,-3.501 -7.34,-3.73 -11.553,-3.493 -9.607,0.538 -29.245,1.261 -35.412,10.298 -2.412,3.535 -0.944,8.221 -2.241,12.181 -2.028,6.192 -7.959,10.825 -7.215,18.01 z"
         id="path621" />
      <g
         id="g627">
        <path
           style="fill:#604b42"
           d="m 384.481,1165.183 c -0.532,-11.61 -2.631,-23.208 -5.783,-34.402 2.811,11.296 4.735,22.809 5.783,34.402 z"
           id="path623" />
        <path
           style="fill:#604b42"
           d="m 401.025,1255.315 c 28.225,2.078 56.555,9.571 79.993,25.434 9.458,6.399 18.19,14.179 28.824,18.341 10.634,4.16 24.2,3.728 31.814,-4.781 3.461,-3.868 5.286,-8.914 6.637,-13.926 8.013,-29.707 1.665,-62.222 -13.638,-88.915 -15.304,-26.693 -38.961,-47.91 -65.24,-63.915 -12.998,-7.917 -26.984,-14.754 -42.031,-17.032 -4.388,-0.664 -8.806,-0.932 -13.238,-0.988 29.748,12.716 57.414,30.314 81.463,51.959 -7.698,-3.811 -15.395,-7.62 -23.092,-11.431 8.931,10.649 16.791,22.197 23.422,34.412 6.109,11.254 11.281,23.601 10.694,36.393 -0.587,12.791 -8.346,25.989 -20.704,29.342 -0.383,-14.507 -0.767,-29.014 -1.15,-43.521 -2.759,17.341 -11.769,33.619 -24.997,45.165 1.253,-35.862 -2.336,-71.892 -10.639,-106.802 2.397,16.963 1.876,34.656 -4.175,50.684 -6.051,16.028 -18.11,30.233 -34.068,36.466 4.936,-11.729 8.178,-24.168 9.594,-36.813 -8.167,20.445 -23.447,37.969 -42.589,48.844 6.776,-25.697 8.968,-52.582 6.575,-79.047 0.451,9.837 -0.219,19.683 -2.369,29.3 -4.687,20.967 -16.89,40.746 -35.294,51.829 -1.074,-10.964 -2.148,-21.927 -3.222,-32.891 -2.167,7.85 -6.304,15.146 -11.926,21.036 -5.591,-35.875 -13.047,-71.46 -22.329,-106.562 5.761,34.561 4.884,70.216 -2.57,104.452 -3.86,-23.901 -7,-47.917 -9.413,-72.006 0.088,26.989 -1.672,53.983 -5.263,80.732 -15.445,-6.477 -25.648,-21.973 -29.915,-38.169 -4.267,-16.196 -3.46,-33.241 -2.514,-49.964 -4.109,10.721 -7.298,21.793 -9.521,33.057 -1.986,-17.272 -0.197,-34.968 5.205,-51.492 -25.474,33.685 -32.388,80.557 -17.725,120.162 -7.881,-0.75 -15.468,-4.296 -21.1,-9.859 2.312,5.446 4.624,10.893 6.936,16.339 -9.369,-0.124 -18.312,-6.666 -21.267,-15.557 2.475,7.781 4.95,15.562 7.425,23.343 -19.667,-11.675 -27.937,-37.209 -24.511,-59.821 3.425,-22.613 16.505,-42.627 31.395,-59.986 -17.783,16.292 -35.649,33.88 -44.115,56.463 -8.465,22.583 -4.793,51.508 14.695,65.715 -14.712,1.422 -29.495,-10.145 -31.653,-24.767 0.371,12.729 6.905,25.137 17.189,32.646 -11.405,-1.735 -20.933,-10.446 -25.882,-20.868 -4.949,-10.421 -5.855,-22.342 -5.062,-33.852 0.833,-12.087 3.663,-23.782 8.232,-34.909 -10.358,15.431 -18.034,32.683 -20.749,51.001 -2.829,19.088 -0.788,55.938 18.565,67.599 21.592,13.007 54.581,-15.378 73.233,-24.205 29.771,-14.087 62.806,-19.531 95.452,-23.894 28.056,-3.749 56.394,-6.819 84.618,-4.741 z"
           id="path625" />
      </g>
      <path
         style="fill:#604b42"
         d="m 348.781,1274.818 c 1.59,9.925 11.736,16.971 21.783,17.291 10.046,0.319 19.603,-4.867 26.913,-11.768 -6.546,3.431 -13.953,5.203 -21.342,5.107 -2.91,-0.038 -5.936,-0.4 -8.386,-1.972 -2.45,-1.571 -4.142,-4.632 -3.336,-7.428 0.397,-1.377 1.326,-2.529 2.272,-3.604 11.617,-13.203 29.423,-20.712 46.986,-19.815 -2.316,-0.118 -5.927,-2.765 -8.2,-3.604 -3.046,-1.126 -6.165,-2.054 -9.33,-2.78 -6.331,-1.453 -12.854,-2.104 -19.348,-1.917 -10.005,0.29 -14.957,4.229 -21.422,11.542 -4.571,5.171 -7.719,11.902 -6.59,18.948 z"
         id="path629" />
      <path
         style="fill:#84665b"
         d="m 200.166,1223.683 c 3.491,-12.38 6.981,-24.76 10.471,-37.14 -1.462,5.379 -1.7,11.086 -0.692,16.568 4.236,-28.581 17.895,-55.687 38.346,-76.097 -1.343,0.916 -1.978,2.751 -1.488,4.302 3.66,-3.762 8.328,-6.533 13.382,-7.944 -0.231,7.117 -0.463,14.233 -0.695,21.351 3.906,-6.923 9.356,-12.968 15.839,-17.568 -5.469,23.81 -5.894,48.765 -1.24,72.746 -2.166,-27.446 3.684,-55.478 16.647,-79.768 -3.441,-0.944 -7.386,0.33 -9.624,3.109 -0.087,-2.541 -0.175,-5.081 -0.262,-7.622 -4.304,2.143 -9.42,0.508 -14.227,0.398 -6.423,-0.146 -12.573,2.528 -18.169,5.683 -11.119,6.269 -21.033,14.666 -29.045,24.603 1.701,-4.023 3.401,-8.048 5.102,-12.071 -31.888,22.358 -60.465,51.938 -72.604,88.943 13.522,-25.775 30.927,-49.51 51.446,-70.153 3.691,-3.714 8.09,-8.009 13.485,-8.606 -2.533,13.25 -6.596,22.243 -11.467,34.876 -2.756,7.148 -4.607,14.64 -5.478,22.252 -0.751,6.556 1.948,16.196 0.273,22.138 z"
         id="path631" />
      <path
         style="fill:#84665b"
         d="m 330.407,1176.357 c 2.336,-9.797 3.602,-19.85 3.766,-29.92 -0.643,3.384 -0.266,6.955 1.068,10.13 0.767,-3.433 1.534,-6.865 2.3,-10.299 7.221,17.018 11.234,35.39 11.766,53.868 2.357,-22.35 3.61,-44.815 3.753,-67.289 1.853,7.574 4.281,15.008 7.257,22.215 0.866,-12.32 1.195,-26.229 -7.324,-35.17 -0.066,2.781 -0.132,5.563 -0.198,8.346 -0.647,-2.303 -2.133,-4.359 -4.116,-5.696 -0.129,1.709 -0.258,3.418 -0.388,5.127 -4.827,-3.173 -9.654,-6.346 -14.481,-9.519 3.36,7.995 5.36,16.559 5.89,25.216 -5.309,-8.668 -10.831,-17.57 -19.071,-23.521 4.229,7.748 7.678,15.924 10.274,24.361 -4.604,-10.723 -12.081,-20.92 -21.589,-27.776 3.352,7.924 8.525,14.916 11.777,22.953 3.622,8.953 11.654,27.172 9.316,36.974 z"
         id="path633" />
    </g>
  </g>
</svg>
