<?xml version="1.0" encoding="UTF-8" standalone="no"?>
<svg
   width="364.0"
   height="838.16"
   viewBox="237.0 109.84 364.0 838.16"
   version="1.1"
   id="svg1787"
   sodipodi:docname="hair_02.svg"
   inkscape:version="1.2 (dc2aeda, 2022-05-15)"
   xmlns:inkscape="http://www.inkscape.org/namespaces/inkscape"
   xmlns:sodipodi="http://sodipodi.sourceforge.net/DTD/sodipodi-0.dtd"
   xmlns="http://www.w3.org/2000/svg"
   xmlns:svg="http://www.w3.org/2000/svg">
  <sodipodi:namedview
     id="namedview1789"
     pagecolor="#ffffff"
     bordercolor="#000000"
     borderopacity="0.25"
     inkscape:showpageshadow="2"
     inkscape:pageopacity="0.0"
     inkscape:pagecheckerboard="0"
     inkscape:deskcolor="#d1d1d1"
     showgrid="false"
     inkscape:zoom="5.0454322"
     inkscape:cx="251.71283"
     inkscape:cy="253.19932"
     inkscape:window-width="1309"
     inkscape:window-height="727"
     inkscape:window-x="47"
     inkscape:window-y="34"
     inkscape:window-maximized="0"
     inkscape:current-layer="g1785" />
  <defs
     id="defs674" />
  <g
     transform="matrix(0.60780809,0,0,0.66974584,-209.9508,112.74812)"
     id="g1785">
    <g
       id="g415"
       transform="translate(1.8230123)">
      <path
         style="fill:#775d51"
         d="m 975.562,294.581 c 9.007,1.625 18.421,4.375 24.902,12.005 5.016,5.905 13.714,16.525 20.419,19.126 24.466,9.491 34.291,-8.926 42.956,-15.6 15.115,-11.64 34.557,-10.188 52.484,-8.317 14.508,1.513 29.309,3.112 42.667,10.024 17.245,8.922 30.524,25.847 43.147,42.45 2.64,-12.698 0.503,-26.003 -0.83,-38.988 -2.477,-24.143 -2.109,-48.697 1.088,-72.719 -1.208,1.813 -2.417,3.625 -3.625,5.438 -3.841,-9.078 -7.683,-18.156 -11.524,-27.233 -1.167,7.029 -3.812,13.702 -7.626,19.241 -9.639,-18.458 -19.279,-36.917 -28.918,-55.374 -5.653,12.358 -11.307,24.717 -16.96,37.076 -0.337,-6.631 0.372,-13.336 2.08,-19.66 -3.371,9.052 -8.073,17.398 -13.827,24.542 -0.729,-12.271 -6.453,-23.579 -14.076,-31.872 -7.623,-8.293 -17.039,-13.879 -26.625,-18.439 4.599,6.488 7.608,14.558 8.568,22.974 -4.071,-5.89 -9.837,-10.086 -16.094,-11.711 -0.015,4.203 0.665,8.407 1.989,12.301 -2.052,-3.427 -5.163,-5.932 -8.596,-6.923 2.251,6.494 2.668,14.516 -0.923,20.088 -6.078,9.43 -19.813,5.405 -25.306,-4.522 -5.492,-9.928 -5.174,-22.722 -4.659,-34.598 -12.202,13.001 -22.66,28.323 -30.857,45.207 0.064,-3.274 0.105,-6.684 -1.062,-9.648 -1.167,-2.965 -3.934,-5.311 -6.594,-4.491 -1.359,0.419 -2.466,1.566 -3.49,2.71 -3.901,4.36 -7.407,9.222 -10.438,14.474 0.325,-4.393 0.649,-8.787 0.973,-13.18 -1.602,3.106 -3.205,6.213 -4.807,9.319 0.788,-2.987 -2.613,-5.251 -5.213,-4.801 -2.6,0.449 -5.09,2.226 -7.686,1.742 -2.08,-0.388 -4.145,-2.203 -6.099,-1.27 -1.317,0.628 -2.029,2.295 -3.069,3.446 -4.315,4.777 -10.876,-0.772 -15.558,-5.03 -6.679,-6.075 -14.898,-9.711 -23.285,-10.305 3.253,4.809 5.55,10.53 6.652,16.566 -8.697,-7.001 -19.235,-10.701 -29.728,-10.436 4.047,13.045 6.568,26.761 7.467,40.627 -8.006,-3.811 -14.011,-13.04 -15.114,-23.231 -5.167,13.212 -8.245,27.58 -9.026,42.127 -3.589,-6.913 -6.397,-14.402 -8.323,-22.202 -4.529,14.036 -7.464,28.8 -8.702,43.766 -0.119,-2.702 -0.277,-5.555 -1.55,-7.796 -1.272,-2.241 -4.074,-3.481 -5.879,-1.84 -1.744,1.586 -1.63,4.7 -1.347,7.292 0.497,4.544 0.993,9.088 1.49,13.633 -3.853,-6.878 -9.92,-11.946 -16.659,-13.914 5.73,10.414 9.925,22.017 12.422,34.106 1.841,8.91 0.787,20.104 3.574,28.262 6.452,-3.368 10.064,-15.713 15.658,-21.362 10.658,-10.761 26.003,-17.732 39.045,-23.16 27.968,-11.637 37.19,-15.207 66.494,-9.92 z"
         id="path399" />
      <path
         style="fill:#604b42"
         d="m 1200.9583,407.01098 c 1.373,10.715 7.2247,21.21802 7.3877,32.02002 0.246,16.175 -2.153,32.901 3.247,48.151 0.463,1.308 1.695,2.878 2.892,2.176 -0.299,-11.582 -0.598,-23.165 -0.897,-34.748 -0.114,-4.428 -0.104,-9.256 2.632,-12.74 2.34,-2.98 6.521,-4.766 7.301,-8.474 0.377,-1.791 -0.168,-3.629 -0.638,-5.398 -3.659,-13.765 -2.983,-28.258 -4.387,-42.431 -1.832,-18.498 -4.5999,-37.97259 -3.8071,-56.40958 0.6235,-14.50012 -0.9917,-25.77507 -2.7702,-18.5498 -2.1056,-11.90523 -28.9367,-6.64162 -30.1097,1.92638 -0.383,2.798 4.21,8.666 5.337,11.225 2.341,5.318 -1.407,11.61787 2.289,16.09387 16.234,19.665 8.6563,44.78211 11.5233,67.15811 z"
         id="path401"
         sodipodi:nodetypes="sccccccccscsccs" />
      <path
         style="fill:#775d51"
         d="m 852.18,413.31 c -0.605,10.786 3.26667,21.36002 3.87367,32.14602 0.909,16.152 0.0183,32.90298 -4.28067,48.49898 -0.369,1.337 -1.485,2.992 -2.729,2.377 -0.528,-11.575 -1.057,-23.149 -1.585,-34.724 -0.202,-4.425 -0.557,-9.239 -3.534,-12.52 -2.546,-2.806 -6.844,-4.289 -7.887,-7.932 -0.504,-1.759 -0.092,-3.632 0.252,-5.43 2.667,-13.991 0.959,-28.398 1.348,-42.636 0.507,-18.581 5.888,-42.647 9.953,-60.786 1.298,-5.791 2.699,-16.298 -3.036,-32.472 -1.811,-5.107 22.685,9.331 24.466,17.793 0.582,2.764 0.63234,8.944 -0.30866,11.578 -1.956,5.472 -2.1523,13.65463 -3.4523,19.31263 -5.066,22.054 -11.81804,42.27137 -13.08004,64.79437 z"
         id="path403"
         sodipodi:nodetypes="cscccsccccccccc" />
      <g
         id="g409">
        <path
           style="fill:#604b42"
           d="m 1202.136,354.268 c 1.571,-7.552 7.227,3.938 8.478,-7.041 0.852,-7.48 1.8691,-19.61029 4.8231,-44.42829 3.848,-32.322 4.2839,-38.72071 11.8729,-63.73371 -1.208,1.813 -27.331,7.121 -28.539,8.934 -3.841,-9.078 -7.683,-18.156 -11.524,-27.233 -0.358,2.156 -0.871,4.273 -1.499,6.339 2.146,16.715 7.453,33.76 3.898,50.015 -0.901,-4.186 -1.803,-8.374 -2.704,-12.56 0.458,14.856 -1.613,29.817 -6.053,43.71 -4.47,-9.27 -3.583,-20.683 -4.456,-31.324 -1.167,-14.225 -5.658,-27.721 -10.104,-40.995 -5.342,-15.952 -10.685,-31.903 -16.026,-47.855 4.469,14.686 7.31,30.047 3.803,44.803 -1.277,-6.847 -2.554,-13.693 -3.83,-20.539 0.12,18.142 -4.021,36.296 -11.83,51.869 -0.041,-5.894 -0.081,-11.788 -0.121,-17.682 -1.935,10.787 -3.87,21.574 -5.806,32.361 -6.498,-12.723 -12.997,-25.446 -19.495,-38.169 1.948,12.263 0.182,25.315 -4.901,36.227 -1.784,3.829 -5.222,7.88 -8.589,6.126 -1.282,-7.268 -1.263,-14.859 0.056,-22.118 -5.402,4.691 -9.606,11.315 -11.926,18.785 -1.262,-8.782 -0.125,-18.031 3.198,-26.012 -12.682,9.829 -23.323,23.368 -30.725,39.091 -3.271,-0.217 -6.542,-0.435 -9.812,-0.652 -1.563,-2.374 -3.126,-4.747 -4.69,-7.121 2.46,7.164 -1.613,15.788 -7.518,19.009 -5.906,3.222 -12.893,2.09 -18.962,-0.667 -6.068,-2.758 -11.573,-7.017 -17.5,-10.182 -22.215,-11.865 -47.898,-7.413 -71.847,-2.21 -10.319,2.242 -20.742,4.626 -30.273,9.845 -6.335,3.469 -15.583,9.77 -19.071,18.251 9.046,-6.164 19.398,-10.774 28.608,-14.608 27.964,-11.639 37.187,-15.208 66.49,-9.922 9.007,1.625 18.421,4.375 24.902,12.005 5.016,5.905 13.714,16.525 20.419,19.126 24.466,9.491 34.291,-8.926 42.956,-15.6 15.115,-11.64 34.557,-10.188 52.484,-8.317 14.508,1.513 29.309,3.112 42.667,10.024 17.244,8.921 30.524,25.845 43.146,42.449 z"
           id="path405"
           sodipodi:nodetypes="ccccccccccsccccccccccccccccccccsccccccccc" />
        <path
           style="fill:#604b42"
           d="m 1149.801,186.6 c 0.167,0.499 0.334,0.997 0.501,1.496 -0.157,-0.517 -0.315,-1.033 -0.477,-1.548 -0.01,0.017 -0.016,0.035 -0.024,0.052 z"
           id="path407" />
      </g>
      <path
         style="fill:#604b42"
         d="m 1005.667,256.453 c -0.11,-1.895 -0.221,-3.79 -0.332,-5.685 0.747,0.727 1.494,1.454 2.241,2.18 0.185,-4.037 0.369,-8.074 0.554,-12.111 1.698,3.274 4.044,6.068 6.793,8.088 0.774,-14.075 4.214,-27.933 9.989,-40.246 -1.859,15.56 0.278,31.766 6.054,45.896 -0.387,-8.607 2.834,-17.34 8.417,-22.819 -1.686,6.705 -1.829,13.95 -0.412,20.742 1.281,-6.683 3.714,-13.048 7.105,-18.585 1.082,1.33 1.497,3.378 1.044,5.15 0.546,-3.359 1.965,-6.509 4.012,-8.908 -0.827,4.699 -0.859,9.594 -0.095,14.307 1.613,-5.423 4.293,-10.391 7.763,-14.392 -2.341,13.146 -3.075,26.697 -2.168,40.092 -0.9,-5.255 -2.842,-10.253 -5.621,-14.471 -1.679,2.612 -2.689,5.827 -2.863,9.11 -0.888,-1.753 -1.775,-3.506 -2.663,-5.26 -0.184,4.23 -5.117,6.867 -7.891,4.218 -1.851,-1.768 -3.768,-5.369 -5.695,-3.721 -0.77,0.659 -0.961,1.904 -1.091,3.022 -0.48,4.134 -0.96,8.268 -1.44,12.402 -2.627,-6.628 -5.254,-13.255 -7.881,-19.882 -0.909,8.958 -1.464,17.966 -1.662,26.986 -4.778,-6.776 -9.557,-13.553 -14.336,-20.329 2.181,7.492 4.601,14.957 6.505,22.548 -9.746,-14.201 -18.629,-25.146 -23.314,-43.162 2.2,1.676 16.987,12.205 16.987,14.83 z"
         id="path411" />
      <path
         style="fill:#604b42"
         d="m 890.503,269.032 c 5.771,0.492 11.502,1.61 17.102,3.338 -1.267,-2.617 -2.187,-5.473 -2.715,-8.429 1.426,0.949 2.852,1.898 4.279,2.848 -0.27,-2.724 -0.54,-5.448 -0.809,-8.171 1.857,1.323 3.713,2.647 5.57,3.97 -1.889,-13.392 -3.211,-26.897 -3.962,-40.447 4.076,10.975 11.13,20.344 19.844,26.357 -1.348,-4.684 -1.652,-9.787 -0.876,-14.651 1.261,1.969 2.521,3.939 3.783,5.908 0.05,-1.848 0.101,-3.695 0.152,-5.542 0.577,2.109 1.522,4.074 2.757,5.734 0.528,-2.811 1.056,-5.622 1.583,-8.433 5.753,10.441 10.928,21.335 15.479,32.586 -3.657,-4.738 -7.586,-9.178 -11.749,-13.279 0.796,3.755 1.592,7.511 2.388,11.266 -1.684,-3.311 -4.222,-5.997 -7.181,-7.596 0.058,3.106 0.68,6.194 1.811,8.993 -4.172,-2.761 -8.757,-4.63 -13.473,-5.493 2.892,6.139 4.243,13.294 3.836,20.318 -2.456,-4.482 -6.105,-8.019 -10.288,-9.97 -1.003,-0.468 -2.49,-0.598 -2.822,0.625 -0.185,0.684 0.148,1.4 0.468,2.009 1.331,2.532 2.661,5.064 3.991,7.597 -3.637,-1.793 -7.575,-2.713 -11.511,-2.692 2.385,2.857 4.393,6.16 5.928,9.751 -3.056,-1.939 -6.112,-3.879 -9.167,-5.818 2.85,1.809 5.668,8.293 6.688,11.732 -9.894,-2.519 -13.091,-16.128 -21.106,-22.511 z"
         id="path413" />
    </g>
  </g>
</svg>
