<?xml version="1.0" encoding="UTF-8" standalone="no"?>
<svg
   width="364.0"
   height="838.16"
   viewBox="237.0 109.84 364.0 838.16"
   version="1.1"
   id="svg1362"
   sodipodi:docname="hair_04.svg"
   inkscape:version="1.2 (dc2aeda, 2022-05-15)"
   xmlns:inkscape="http://www.inkscape.org/namespaces/inkscape"
   xmlns:sodipodi="http://sodipodi.sourceforge.net/DTD/sodipodi-0.dtd"
   xmlns="http://www.w3.org/2000/svg"
   xmlns:svg="http://www.w3.org/2000/svg">
  <sodipodi:namedview
     id="namedview1364"
     pagecolor="#ffffff"
     bordercolor="#000000"
     borderopacity="0.25"
     inkscape:showpageshadow="2"
     inkscape:pageopacity="0.0"
     inkscape:pagecheckerboard="0"
     inkscape:deskcolor="#d1d1d1"
     showgrid="false"
     inkscape:zoom="1.58157"
     inkscape:cx="138.47"
     inkscape:cy="225.09279"
     inkscape:window-width="1465"
     inkscape:window-height="920"
     inkscape:window-x="47"
     inkscape:window-y="34"
     inkscape:window-maximized="1"
     inkscape:current-layer="svg1362" />
  <defs
     id="defs674" />
  <g
     transform="matrix(0.60329433,0,0,0.72260504,-1432.9983,77.621351)"
     id="g1360">
    <g
       id="g473">
      <path
         style="fill:#775d51"
         d="m 3225.131,312.193 c -7.456,-12.473 -16.947,-23.737 -28.084,-33.064 -30.231,-25.318 -71.661,-36.254 -110.688,-30.618 7.354,-4.837 11.453,-14.182 10.03,-22.868 -3.13,6.964 -7.088,13.556 -11.763,19.592 5.474,-21.358 -5.825,-45.801 -25.641,-55.47 7.58,17.876 11.116,37.452 10.271,56.85 -1.99,-6.328 -5.096,-12.302 -9.13,-17.567 -0.118,5.452 -0.237,10.904 -0.356,16.357 -36.673,-14.331 -79.649,-4.235 -116.244,10.295 -10.113,4.015 -26.007,15.519 -34.017,22.883 -9.109,8.375 -30.183,40.178 -35.893,51.156 -2.135,4.106 -2.192,5.17 -1.354,5.087 -15.535,32.608 -17.764,74.364 -14.666,109.547 7.635,0.606 13.865,6.895 16.718,14.002 2.852,7.108 2.979,14.972 3.067,22.63 0.217,18.808 0.435,37.615 0.652,56.423 3.84,0.518 5.268,-4.859 5.184,-8.733 -0.83,-38.799 1.227,-77.659 6.15,-116.153 1.602,-12.516 5.285,-22.926 9.433,-33.473 6.274,-1.364 12.19,-2.911 15.021,-3.215 17.367,-1.868 34.734,-3.736 52.102,-5.604 0.892,-4.655 1.782,-9.311 2.673,-13.967 0.395,4.492 1.286,8.941 2.651,13.239 32.334,0.632 64.669,1.265 97.003,1.897 3.29,-22.739 3.067,-45.983 -0.657,-68.656 6.979,22.157 10.941,45.261 11.746,68.476 13.425,-0.959 26.916,-0.966 40.342,-0.021 -0.322,-5.814 -0.645,-11.627 -0.966,-17.441 2.973,5.659 4.844,11.894 5.478,18.255 10.248,-0.092 20.496,-0.184 30.744,-0.276 1.383,-0.013 2.898,-0.074 3.929,-0.997 1.05,-0.939 1.265,-2.477 1.399,-3.879 2.022,-21.063 0.932,-42.421 -3.227,-63.168 7.373,21.75 14.744,43.499 22.116,65.248 4.335,-0.612 8.796,-0.307 13.007,0.89 0.82,-4.005 1.642,-8.01 2.463,-12.015 0.84,4.976 1.679,9.951 2.518,14.926 9.429,-0.443 18.918,0.676 28.006,3.225 3.789,8.976 7.077,18.095 8.868,28.845 6.376,38.28 9.903,77.035 10.54,115.837 0.064,3.874 1.693,9.193 5.512,8.53 -0.494,-18.802 -0.988,-37.604 -1.483,-56.407 -0.201,-7.656 -0.371,-15.519 2.21,-22.729 2.58,-7.211 8.568,-13.73 16.175,-14.626 2.225,-44.543 -11.156,-90.977 -41.839,-123.243 z"
         id="path461" />
      <g
         id="g467">
        <path
           style="fill:#604b42"
           d="m 3096.506,306.004 c -1.226,-4.338 -2.728,-8.598 -4.584,-12.748 1.528,4.249 3.057,8.499 4.584,12.748 z"
           id="path463" />
        <path
           style="fill:#604b42"
           d="m 3250.35,529.2 c -0.494,-18.802 -0.988,-37.604 -1.483,-56.407 -0.2,-7.656 -0.371,-15.519 2.21,-22.729 2.58,-7.211 8.569,-13.73 16.176,-14.626 2.227,-44.544 -11.154,-90.979 -41.837,-123.245 -7.457,-12.473 -16.948,-23.737 -28.084,-33.064 -1.822,-1.526 -3.688,-2.997 -5.589,-4.418 10.32,21.025 15.654,44.514 15.139,67.937 -20.914,-26.078 -44.333,-50.146 -69.83,-71.765 6.244,29.462 12.409,60.642 2.725,89.159 -6.808,-18.397 -13.616,-36.795 -20.424,-55.193 -1.839,7.635 2.062,15.473 1.968,23.325 -0.085,7.18 -7.508,15.019 -13.319,12.383 0.516,-0.78 0.232,-1.944 -0.104,-2.879 -3.797,-10.558 -7.594,-21.116 -11.391,-31.674 4.897,17.328 5.321,35.94 5.644,54.095 -5.628,-0.083 -11.255,-0.165 -16.882,-0.249 -6.873,-22.589 -13.745,-45.177 -20.618,-67.766 -0.6,5.923 -1.199,11.847 -1.8,17.77 -0.403,-10.068 -2.807,-20.052 -7.029,-29.201 1.545,20.499 1.73,41.1 0.557,61.623 -4.154,-21.811 -9.544,-43.387 -16.137,-64.589 7.84,25.808 10.072,53.305 6.499,80.04 -22.692,0.781 -45.427,0.315 -68.067,-1.395 -1.367,-5.743 -2.734,-11.487 -4.102,-17.23 0.459,5.19 -1.055,10.529 -4.168,14.705 -3.153,-17.137 -5.991,-34.331 -8.512,-51.572 -2.565,16.445 -5.13,32.89 -7.695,49.335 -15.306,1.346 -30.612,2.693 -45.919,4.04 -0.49,-13.386 0.673,-26.833 3.454,-39.936 -16.478,26.502 -27.144,56.596 -31.031,87.559 -2.313,-7.913 -3.356,-16.195 -3.079,-24.434 -3.494,24.382 -5.625,48.956 -6.428,73.574 1.398,1.844 2.555,3.885 3.404,6.004 2.852,7.108 2.979,14.972 3.067,22.63 0.218,18.808 0.436,37.615 0.652,56.423 3.84,0.518 5.268,-4.859 5.185,-8.733 -0.831,-38.799 1.227,-77.659 6.149,-116.153 1.602,-12.516 5.286,-22.926 9.433,-33.473 6.274,-1.364 12.19,-2.911 15.021,-3.215 17.368,-1.868 34.735,-3.736 52.103,-5.604 0.892,-4.655 1.781,-9.311 2.673,-13.967 0.395,4.492 1.285,8.941 2.651,13.239 32.334,0.632 64.668,1.265 97.002,1.897 3.29,-22.739 3.068,-45.983 -0.657,-68.656 6.979,22.157 10.942,45.261 11.747,68.476 13.424,-0.959 26.916,-0.966 40.341,-0.021 -0.321,-5.814 -0.644,-11.627 -0.966,-17.441 2.974,5.659 4.845,11.894 5.478,18.255 10.248,-0.092 20.496,-0.184 30.744,-0.276 1.383,-0.013 2.898,-0.074 3.93,-0.997 1.049,-0.939 1.264,-2.477 1.398,-3.879 2.023,-21.063 0.933,-42.421 -3.227,-63.168 7.373,21.75 14.745,43.499 22.117,65.248 4.334,-0.612 8.796,-0.307 13.006,0.89 0.821,-4.005 1.643,-8.01 2.463,-12.015 0.84,4.976 1.68,9.951 2.519,14.926 9.428,-0.443 18.918,0.676 28.005,3.225 3.789,8.976 7.078,18.095 8.868,28.845 6.377,38.28 9.903,77.035 10.541,115.837 0.061,3.874 1.691,9.193 5.509,8.53 z"
           id="path465" />
      </g>
      <path
         style="fill:#84665b"
         d="m 2915.992,328.945 c 2.005,-10.733 5.754,-21.139 11.056,-30.685 -4.712,12.153 -6.259,25.518 -4.45,38.426 3.103,-28.642 17.945,-55.835 40.357,-73.938 -5.441,2.432 -10.608,5.475 -15.374,9.054 5.302,-6.998 11.706,-13.16 18.903,-18.188 -16.005,7.906 -32.188,18.007 -40.074,34.021 4.37,-8.936 10.219,-17.149 16.447,-24.864 -19.201,16.992 -29.943,39.904 -26.865,66.174 z"
         id="path469" />
      <path
         style="fill:#84665b"
         d="m 2985.015,261.828 c -6.455,9.794 -8.916,21.807 -8.817,33.537 0.1,11.73 2.609,23.298 5.412,34.688 -0.357,-6.646 0.995,-13.375 3.89,-19.367 -0.639,5.555 -0.534,11.195 0.309,16.723 0.338,-0.988 0.677,-1.976 1.015,-2.963 1.041,8.275 3.669,16.349 7.698,23.652 -3.963,-27.958 5.218,-55.999 15.5,-82.298 -7.837,11.462 -14.066,24.021 -18.451,37.195 2.379,-16.284 6.813,-32.266 13.166,-47.447 -10.045,10.405 -16.667,24.063 -18.615,38.395 0.504,-14.69 4.438,-29.251 11.404,-42.194 -5.503,4.634 -9.794,10.694 -12.337,17.423 z"
         id="path471" />
    </g>
  </g>
</svg>
