<?xml version="1.0" encoding="UTF-8" standalone="no"?>
<svg
   width="364.0"
   height="838.16"
   viewBox="237.0 109.84 364.0 838.16"
   version="1.1"
   id="svg14"
   sodipodi:docname="hair_01.svg"
   inkscape:version="1.2 (dc2aeda, 2022-05-15)"
   xmlns:inkscape="http://www.inkscape.org/namespaces/inkscape"
   xmlns:sodipodi="http://sodipodi.sourceforge.net/DTD/sodipodi-0.dtd"
   xmlns="http://www.w3.org/2000/svg"
   xmlns:svg="http://www.w3.org/2000/svg">
  <sodipodi:namedview
     id="namedview16"
     pagecolor="#ffffff"
     bordercolor="#000000"
     borderopacity="0.25"
     inkscape:showpageshadow="2"
     inkscape:pageopacity="0.0"
     inkscape:pagecheckerboard="0"
     inkscape:deskcolor="#d1d1d1"
     showgrid="false"
     inkscape:zoom="1.0487558"
     inkscape:cx="275.56462"
     inkscape:cy="234.56366"
     inkscape:window-width="1309"
     inkscape:window-height="456"
     inkscape:window-x="99"
     inkscape:window-y="395"
     inkscape:window-maximized="0"
     inkscape:current-layer="g12" />
  <defs
     id="defs674" />
  <g
     transform="translate(206.7935 199.5254) scale(0.598608)"
     id="g12">
    <g
       id="g385"
       transform="translate(0,-133.64339)">
      <g
         id="g373">
        <path
           style="fill:#775d51"
           d="m 539.716,487.02 c -0.078,1.022 -0.147,2.053 -0.209,3.1 0.234,-1.031 0.29,-2.066 0.209,-3.1 z"
           id="path369" />
        <path
           style="fill:#775d51"
           d="m 554.015,295.97 c -21.196,-44.873 -64.639,-78.788 -113.494,-87.511 -24.553,-4.384 -49.799,-2.691 -74.513,0.67 -19.457,2.646 -39.363,6.545 -55.771,17.332 -3.155,2.074 -6.246,4.431 -9.899,5.386 -3.154,0.823 -6.476,0.532 -9.727,0.294 -26.566,-1.941 -53.798,0.22 -78.656,9.793 -24.858,9.573 -47.221,27.042 -59.568,50.645 -17.066,32.623 -13.337,71.753 -9.17,108.334 1.423,12.487 1.789,28.073 6.997,39.691 1.723,3.843 4.841,7.253 8.281,9.003 4.696,5.494 9.392,10.987 14.088,16.48 3.847,-33.135 11.575,-65.817 22.977,-97.165 0.264,4.749 0.527,9.497 0.792,14.245 4.766,-26.895 20.291,-51.729 42.382,-67.793 10.072,-7.324 26.392,-14.756 37.462,-20.461 6.615,-3.409 16.085,-8.761 22.942,-13.659 1.206,0.684 2.352,1.473 3.419,2.386 8.203,7.026 9.503,18.928 12.198,29.388 6.177,23.975 22.276,44.45 41.397,60.176 19.121,15.727 41.284,27.239 63.265,38.631 -12.91,-17.229 -20.582,-38.332 -21.75,-59.83 20.641,44.123 57.384,80.496 101.714,100.688 8.389,3.821 17.19,7.176 24.227,13.13 6.231,5.272 15.483,13.206 16.108,21.195 0.607,-7.991 1.777,-15.266 4.892,-22.857 3.318,-8.09 3.068,-16.591 7.006,-24.398 22.35,-44.307 23.596,-98.919 2.401,-143.793 z"
           id="path371" />
      </g>
      <path
         style="fill:#604b42"
         d="m 554.074,295.993 c -15.703,-33.245 -43.623,-60.462 -76.901,-75.889 5.465,4.073 10.907,8.179 16.096,12.577 15.165,12.851 28.771,29.538 30.87,49.306 -5.329,-10.073 -14.784,-17.882 -25.682,-21.213 26.651,36.748 42.201,81.439 44.115,126.793 -13.918,-21.333 -30.395,-40.993 -48.966,-58.426 10.26,25.435 17.678,52.015 22.073,79.086 -4.444,-5.438 -8.888,-10.875 -13.332,-16.313 2.833,6.768 5.666,13.538 8.499,20.306 -57.853,-24.724 -112.239,-66.641 -133.266,-125.938 0.19,29.124 3.204,58.229 8.983,86.775 -13.542,-7.874 -25.88,-17.814 -36.455,-29.37 2.518,6.619 5.037,13.238 7.555,19.857 -14.857,-9.326 -24.095,-21.602 -35.75,-34.133 -0.709,-0.763 -1.406,-1.441 -2.092,-2.046 7.916,17.868 21.196,33.367 36.392,45.865 19.121,15.727 41.284,27.239 63.265,38.631 -12.91,-17.23 -20.581,-38.332 -21.75,-59.83 20.64,44.123 57.384,80.496 101.714,100.688 8.389,3.821 17.189,7.176 24.227,13.13 6.232,5.272 15.482,13.206 16.108,21.195 0.607,-7.99 1.777,-15.266 4.891,-22.857 3.318,-8.089 3.068,-16.591 7.006,-24.397 22.35,-44.312 23.597,-98.924 2.4,-143.797 z"
         id="path375" />
      <path
         style="fill:#604b42"
         d="m 299.366,232.357 c -0.9,0.172 -1.811,0.27 -2.728,0.309 0.033,5.366 -1.296,10.951 -2.904,16.109 -2.184,7.007 -5.064,14.254 -10.881,18.729 -4.251,3.271 -9.594,4.683 -14.704,6.315 -38.945,12.445 -71.835,42.625 -87.573,80.36 -0.828,-7.392 -0.575,-14.903 0.748,-22.223 -18.204,36.746 -25.645,78.696 -21.524,119.478 4.261,4.984 8.521,9.968 12.782,14.952 3.846,-33.134 11.575,-65.817 22.977,-97.165 0.264,4.748 0.528,9.496 0.792,14.245 4.766,-26.896 20.291,-51.73 42.382,-67.794 10.072,-7.324 26.393,-14.757 37.462,-20.461 6.615,-3.409 16.085,-8.761 22.942,-13.66 0.354,0.201 0.7,0.413 1.043,0.632 1.802,-8.682 1.727,-17.69 1.632,-26.584 -0.083,-7.745 -0.308,-15.899 -2.446,-23.242 z"
         id="path377" />
      <path
         style="fill:#84665b"
         d="m 350.413,325.539 c -3.129,-8.761 -5.122,-17.927 -5.914,-27.197 1.372,4.151 3.188,8.157 5.404,11.925 0.285,-4.599 -0.038,-9.235 -0.957,-13.75 2.564,8.005 6.232,15.656 10.866,22.669 -5.624,-21.067 -11.296,-42.648 -9.471,-64.377 2.73,13.614 8.392,26.632 16.491,37.911 -7.722,-21.167 -13.12,-43.181 -16.065,-65.519 -1.919,4.648 -2.576,9.812 -1.88,14.792 -0.514,-4.582 -2.137,-9.035 -4.691,-12.872 -3.655,16.338 -3.733,33.466 -0.227,49.837 -5.704,-16.451 -10.885,-33.084 -15.534,-49.863 -2.748,17.824 1.661,35.887 6.038,53.382 -6.583,-14.872 -12.53,-29.974 -18.633,-45.042 1.212,13.817 3.642,26.908 8.063,40.075 2.973,8.853 6.59,17.424 11.122,25.598 3.983,7.182 12.738,15.008 15.388,22.431 z"
         id="path379" />
      <path
         style="fill:#84665b"
         d="m 434.903,333.392 c -4.082,-7.678 -7.359,-15.785 -9.76,-24.143 1.306,1.79 2.611,3.579 3.917,5.368 -0.605,-1.96 -1.21,-3.918 -1.816,-5.878 10.344,13.525 21.801,26.199 34.217,37.851 -13.395,-15.984 -21.61,-35.561 -29.631,-54.811 8.599,11.807 18.919,22.358 30.532,31.216 -17.941,-22.661 -33.508,-47.2 -46.364,-73.087 0.912,11.094 6.852,21.056 12.639,30.564 -3.634,-3.821 -7.268,-7.642 -10.902,-11.463 3.31,6.084 6.671,12.316 7.788,19.152 -12.34,-12.974 -24.679,-25.948 -37.019,-38.922 8.367,18.952 19.577,36.645 33.139,52.305 -4.401,-5.053 -12.081,-8.618 -16.925,-14.029 -5.112,-5.71 -9.926,-12.082 -16.489,-16.211 7.141,8.832 11.832,19.924 18.919,29.149 8.749,11.39 18.013,22.385 27.755,32.939 z"
         id="path381" />
      <path
         style="fill:#84665b"
         d="m 154.086,329.469 c 1.747,-13.334 8.598,-25.936 18.839,-34.653 -5.533,5.227 -8.601,12.96 -8.157,20.558 4.944,-12.29 14.463,-22.678 26.275,-28.674 -3.958,3.845 -7.074,8.553 -9.065,13.7 8.258,-10.587 20.668,-17.844 33.944,-19.852 -4.076,-1.624 -8.771,-1.63 -12.852,-0.017 4.109,-4.932 9.564,-8.733 15.614,-10.879 -12.79,-1.045 -24.712,5.913 -35.652,12.622 8.29,-10.087 18.608,-18.501 30.157,-24.591 -14.204,4.595 -32.781,10.624 -42.681,22.397 -12.824,15.248 -13.98,30.745 -16.422,49.389 z"
         id="path383" />
    </g>
  </g>
</svg>
