<?xml version="1.0" encoding="UTF-8" standalone="no"?>
<svg
   version="1.0"
   width="522.000000pt"
   height="1200.000000pt"
   viewBox="0 0 522.000000 1200.000000"
   preserveAspectRatio="xMidYMid meet"
   id="svg5746"
   sodipodi:docname="default_melee.svg"
   inkscape:version="1.2 (dc2aeda, 2022-05-15)"
   xmlns:inkscape="http://www.inkscape.org/namespaces/inkscape"
   xmlns:sodipodi="http://sodipodi.sourceforge.net/DTD/sodipodi-0.dtd"
   xmlns="http://www.w3.org/2000/svg"
   xmlns:svg="http://www.w3.org/2000/svg">
  <defs
     id="defs5750" />
  <sodipodi:namedview
     id="namedview5748"
     pagecolor="#ffffff"
     bordercolor="#000000"
     borderopacity="0.25"
     inkscape:showpageshadow="2"
     inkscape:pageopacity="0.0"
     inkscape:pagecheckerboard="0"
     inkscape:deskcolor="#d1d1d1"
     inkscape:document-units="pt"
     showgrid="false"
     inkscape:zoom="0.65764005"
     inkscape:cx="331.48833"
     inkscape:cy="1099.3856"
     inkscape:window-width="1465"
     inkscape:window-height="920"
     inkscape:window-x="47"
     inkscape:window-y="34"
     inkscape:window-maximized="1"
     inkscape:current-layer="svg5746" />
  <g
     id="g791"
     transform="matrix(0.1,0,0,-0.1,0,1200)">
    <path
       style="fill:#c8beb7;stroke:#d8af91;stroke-width:3.9;stroke-opacity:0.292135"
       d="m 141.58051,602.9759 -4.83347,5.23626 11.68089,20.13947 22.55621,31.61898 12.68788,13.69485 10.87532,8.65997 7.04881,5.63905 5.43766,3.62511 2.61813,5.84045 7.25021,4.43068 86.59975,123.85778 56.39053,79.95375 58.20308,81.76627 37.45942,52.36258 13.69485,16.9172 13.89624,12.2851 13.89624,8.2572 -4.22929,-18.1256 -25.17435,-48.3347 -19.53529,-28.59805 -49.54311,-76.53 -55.58495,-79.95375 -69.0784,-100.69738 -34.84129,-54.37658 -7.25022,-25.17435 -13.89623,-27.18829 -22.15343,-33.43153 -10.06973,-11.68089 -14.70183,8.86137 z"
       id="path816"
       transform="matrix(9.9999998,0,0,-9.9999998,0,12000)" />
    <path
       style="fill:#6c5d53;stroke:#d8af91;stroke-width:39;stroke-opacity:0.292135"
       d="m 249.20311,8039.7722 -66.05384,-234.1908 -24.01957,-177.1444 42.03426,-108.0881 276.22513,-57.0465 96.07831,-33.0269 48.03915,-42.0343 102.0832,30.0245 27.02202,105.0856 -33.02691,81.0661 66.05384,264.2154 -27.02205,108.0881 -249.20308,99.0807 -189.15417,-12.0098 z"
       id="path729" />
    <path
       style="fill:#6c5d53;stroke:#d8af91;stroke-width:39;stroke-opacity:0.292135"
       d="m 923.90407,5843.5584 350.29543,240.8281 48.1656,105.0886 306.5085,205.7986 118.2247,17.5147 337.1593,232.0707 140.1182,-83.1951 v -126.9821 l -297.7511,-30.6508 -96.3312,-70.0591 13.136,-70.0591 -472.8988,-324.0232 -83.1951,21.8934 -175.1477,-210.1773 -74.4378,-78.8164 -113.84602,35.0296 z"
       id="path786" />
  </g>
  <g
     transform="matrix(0.1,0,0,-0.1,0,1200)"
     fill="#000000"
     stroke="none"
     id="g5744">
    <path
       d="M321 8100 c-47 -10 -109 -52 -117 -79 -3 -9 -14 -34 -25 -56 -10 -22 -19 -54 -19 -72 0 -17 -5 -35 -10 -38 -7 -5 -8 -11 -1 -19 7 -8 6 -25 0 -51 -6 -22 -12 -75 -14 -118 -2 -56 1 -79 10 -85 8 -4 15 -25 17 -47 3 -35 8 -42 40 -58 42 -21 164 -40 261 -41 l68 -1 32 -45 c18 -25 53 -78 77 -118 25 -40 53 -85 62 -100 10 -15 29 -47 43 -72 69 -123 176 -300 211 -351 18 -26 44 -68 58 -95 38 -71 73 -130 121 -204 63 -98 130 -210 150 -252 21 -46 48 -49 90 -10 17 15 62 49 100 76 39 27 79 57 90 66 11 10 37 24 58 31 26 9 37 19 37 34 0 11 -27 52 -61 90 -33 39 -88 106 -120 150 -33 44 -120 157 -194 250 -189 239 -228 289 -366 470 -67 88 -135 174 -151 192 l-30 31 26 59 c29 66 43 123 52 217 8 78 -5 115 -50 148 -100 74 -324 123 -445 98z m134 -69 c3 -5 1 -12 -5 -16 -7 -4 -7 -12 0 -26 14 -24 30 -25 30 0 0 14 10 20 42 24 48 6 103 -16 94 -38 -3 -8 -1 -17 5 -20 5 -4 12 0 15 8 3 9 13 13 27 10 30 -8 69 -44 63 -60 -3 -7 -1 -15 5 -18 10 -7 7 -74 -6 -130 -8 -35 -63 -152 -84 -178 -8 -9 -11 -20 -8 -23 9 -10 37 16 37 33 0 29 24 6 38 -36 15 -45 10 -96 -11 -125 -11 -15 -21 -17 -56 -11 -24 4 -52 16 -62 26 -10 10 -23 19 -28 19 -5 0 -18 12 -30 28 -16 22 -23 25 -38 16 -10 -6 -36 -9 -58 -6 -27 3 -47 12 -61 30 l-21 26 -12 -22 c-16 -30 -33 -28 -25 3 5 21 3 25 -14 25 -12 0 -24 -4 -27 -10 -7 -11 -48 -14 -58 -3 -4 3 -2 12 4 19 14 17 2 54 -17 54 -18 0 -18 17 1 69 8 23 12 48 8 56 -3 9 0 22 6 29 7 8 13 34 15 58 1 24 10 55 19 68 9 14 17 34 17 46 0 12 11 29 25 38 13 9 27 16 30 16 2 0 4 -8 3 -17 -2 -33 2 -53 12 -53 6 0 10 14 10 30 0 18 5 30 13 30 8 0 22 9 32 20 19 21 60 27 70 11z m295 -656 c0 -8 -4 -15 -10 -15 -5 0 -10 7 -10 15 0 8 5 15 10 15 6 0 10 -7 10 -15z m30 -40 c7 -9 10 -18 7 -21 -10 -11 -37 5 -37 21 0 19 14 19 30 0z m-40 -67 c0 -13 -23 -5 -28 10 -2 7 2 10 12 6 9 -3 16 -11 16 -16z m100 -9 c0 -20 -15 -26 -25 -9 -9 15 3 43 15 35 5 -3 10 -15 10 -26z m-40 -21 c0 -5 -4 -8 -10 -8 -5 0 -10 10 -10 23 0 18 2 19 10 7 5 -8 10 -18 10 -22z m7 -65 c-3 -10 -5 -2 -5 17 0 19 2 27 5 18 2 -10 2 -26 0 -35z m130 -10 c4 -10 14 -23 22 -29 13 -10 13 -14 2 -28 -14 -17 -37 -21 -44 -8 -2 4 -7 24 -11 45 -6 30 -4 37 9 37 9 0 19 -8 22 -17z m-70 -50 c-3 -10 -5 -2 -5 17 0 19 2 27 5 18 2 -10 2 -26 0 -35z m73 -72 c0 -9 7 -26 15 -37 14 -18 16 -18 43 14 l28 34 37 -45 c37 -45 46 -67 27 -67 -5 0 -10 -7 -10 -16 0 -12 6 -15 26 -10 23 6 25 4 19 -15 -6 -19 -4 -21 19 -15 29 7 34 -5 11 -24 -24 -20 -18 -30 13 -24 23 5 32 1 45 -20 9 -14 14 -32 11 -40 -3 -8 4 -24 16 -36 16 -16 25 -19 35 -10 18 15 29 -4 15 -29 -7 -14 -7 -22 1 -27 6 -3 16 -1 22 5 8 8 15 3 27 -21 10 -21 22 -32 33 -30 9 2 17 -3 17 -11 0 -8 7 -17 15 -21 8 -3 15 -11 15 -17 0 -7 -9 -9 -25 -5 -18 5 -25 2 -25 -9 0 -8 8 -15 18 -15 11 0 38 -25 65 -60 26 -33 47 -65 47 -72 0 -18 -50 -78 -64 -78 -8 0 -16 -9 -19 -20 -3 -11 -14 -20 -25 -20 -21 0 -46 23 -35 33 9 10 -17 56 -36 62 -19 6 -48 58 -54 95 -4 24 -4 24 -6 -2 0 -16 -5 -28 -10 -28 -14 0 -23 52 -12 63 14 14 14 37 0 37 -7 0 -18 -8 -25 -17 -12 -16 -13 -16 -14 9 0 15 -4 30 -10 33 -5 3 -10 15 -10 26 0 10 -4 19 -9 19 -5 0 -17 7 -26 16 -11 11 -14 25 -10 41 5 23 4 24 -25 18 -30 -7 -31 -6 -20 15 10 19 9 27 -9 51 -12 15 -21 33 -21 39 0 5 -7 10 -15 10 -15 0 -41 38 -32 47 3 3 16 1 29 -3 13 -4 28 -7 34 -6 6 1 19 -16 29 -38 10 -22 24 -40 32 -40 7 0 17 -9 21 -21 8 -19 9 -20 22 -4 12 15 12 18 0 25 -29 16 -57 45 -64 66 -3 11 -23 28 -44 37 -43 19 -62 21 -62 8 0 -14 -32 -23 -44 -11 -6 6 -3 17 13 34 l22 24 -26 26 c-20 20 -30 24 -40 16 -10 -9 -15 -4 -20 19 -7 35 2 74 16 66 5 -4 9 -14 9 -24z m54 14 c-4 -8 -12 -15 -20 -15 -8 0 -14 7 -14 15 0 8 9 15 20 15 13 0 18 -5 14 -15z m-40 -130 c3 -8 1 -15 -4 -15 -6 0 -10 7 -10 15 0 8 2 15 4 15 2 0 6 -7 10 -15z"
       id="path5692" />
    <path
       d="M376 7992 c-3 -6 -1 -14 5 -17 15 -10 25 3 12 16 -7 7 -13 7 -17 1z"
       id="path5694" />
    <path
       d="M550 7978 c0 -7 4 -19 8 -26 6 -9 12 -6 20 13 10 22 9 25 -8 25 -11 0 -20 -6 -20 -12z"
       id="path5696" />
    <path
       d="M372 7914 c-24 -24 -48 -44 -52 -44 -5 0 -10 8 -12 18 -2 9 -8 -13 -12 -50 -7 -60 -5 -71 18 -113 13 -26 39 -56 56 -66 18 -11 49 -19 76 -19 39 0 53 6 95 42 42 36 49 46 49 78 0 82 -46 153 -105 164 -18 4 -36 13 -39 21 -3 8 -11 15 -18 14 -7 -1 -33 -21 -56 -45z m129 -63 c21 -22 29 -39 29 -66 0 -75 -87 -113 -145 -62 -20 16 -27 33 -28 60 -1 28 6 44 28 67 38 40 77 40 116 1z"
       id="path5698" />
    <path
       d="M650 7860 c0 -5 5 -10 10 -10 6 0 10 5 10 10 0 6 -4 10 -10 10 -5 0 -10 -4 -10 -10z"
       id="path5700" />
    <path
       d="M320 7610 c0 -11 7 -20 15 -20 8 0 15 9 15 20 0 11 -7 20 -15 20 -8 0 -15 -9 -15 -20z"
       id="path5702" />
    <path
       d="M586 7557 c-19 -14 -19 -60 -1 -55 12 3 36 68 26 68 -4 0 -15 -6 -25 -13z"
       id="path5704" />
    <path
       d="M1024 7002 c6 -16 3 -22 -8 -22 -9 0 -16 -7 -16 -15 0 -8 2 -15 4 -15 2 0 11 -3 19 -6 23 -8 32 43 11 63 -16 16 -16 16 -10 -5z"
       id="path5706" />
    <path
       d="M1231 6688 c1 -12 5 -36 9 -53 5 -23 8 -26 14 -13 11 24 3 81 -11 86 -8 2 -13 -5 -12 -20z"
       id="path5708" />
    <path
       d="M1280 6633 c1 -16 36 -51 58 -58 31 -9 29 18 -3 33 -14 6 -25 16 -25 22 0 5 -7 10 -15 10 -8 0 -15 -3 -15 -7z"
       id="path5710" />
    <path
       d="M1275 6571 c-3 -5 -1 -12 5 -16 5 -3 10 1 10 9 0 18 -6 21 -15 7z"
       id="path5712" />
    <path
       d="M1330 6543 c0 -5 5 -15 10 -23 7 -11 12 -12 21 -3 6 6 8 16 5 22 -8 12 -36 15 -36 4z"
       id="path5714" />
    <path
       d="M1366 6494 c-7 -18 0 -34 15 -34 5 0 19 -9 31 -20 12 -11 27 -20 32 -20 6 0 -3 14 -21 30 -19 18 -30 36 -27 45 4 9 0 15 -9 15 -8 0 -18 -7 -21 -16z"
       id="path5716" />
    <path
       d="M1410 6395 c-10 -13 -9 -15 8 -15 15 0 20 5 16 15 -4 8 -7 15 -9 15 -1 0 -8 -7 -15 -15z"
       id="path5718" />
    <path
       d="M2015 6630 c-27 -22 -66 -51 -85 -65 -19 -14 -66 -47 -105 -75 -68 -48 -119 -105 -109 -121 2 -5 11 -6 19 -3 26 10 -7 -42 -42 -66 -19 -13 -31 -25 -28 -28 3 -3 11 0 17 6 7 7 20 12 30 12 10 0 18 7 18 15 0 18 12 19 28 3 6 -6 15 -8 19 -3 5 4 2 10 -4 12 -18 6 -16 30 2 36 9 4 19 -5 29 -24 14 -27 13 -31 -7 -53 -23 -25 -183 -136 -197 -136 -4 0 -24 -16 -45 -35 -21 -19 -53 -41 -72 -50 -18 -9 -48 -32 -65 -51 -17 -19 -34 -34 -37 -34 -3 0 -12 4 -20 9 -12 8 -13 14 -3 35 6 14 18 26 27 26 8 0 15 6 15 14 0 8 7 16 15 20 8 3 15 13 15 21 0 14 -4 14 -31 -2 -16 -10 -53 -35 -81 -56 -27 -21 -54 -37 -59 -35 -10 3 33 54 51 60 19 6 -1 38 -25 38 -12 0 -41 -13 -63 -30 -23 -16 -45 -30 -49 -30 -9 -1 -118 -79 -148 -107 -27 -25 -84 -63 -94 -63 -18 0 -41 -51 -41 -88 0 -55 47 -118 108 -144 26 -12 49 -24 52 -27 3 -4 18 -14 33 -24 25 -16 29 -16 44 -2 10 11 16 37 18 84 2 63 5 74 50 141 58 87 92 122 113 118 9 -2 22 -14 28 -26 6 -13 23 -35 36 -50 14 -15 33 -44 42 -65 10 -21 30 -52 45 -70 35 -41 101 -135 101 -144 0 -3 18 -30 40 -59 22 -29 40 -58 40 -64 0 -5 4 -10 9 -10 5 0 20 -17 33 -37 12 -20 28 -44 33 -52 18 -27 165 -171 175 -171 6 0 10 6 11 13 1 6 4 1 8 -13 4 -14 14 -24 24 -24 9 1 36 -18 62 -42 25 -24 52 -44 60 -44 9 0 20 -11 25 -25 5 -14 14 -25 20 -25 5 0 10 -7 10 -15 0 -8 19 -38 43 -67 58 -72 94 -122 146 -198 25 -36 49 -69 53 -75 5 -5 29 -39 53 -75 104 -152 156 -227 174 -250 48 -63 181 -251 181 -256 0 -3 18 -27 40 -53 22 -26 40 -51 41 -57 0 -5 16 -29 35 -54 18 -25 64 -90 101 -145 37 -55 73 -104 79 -110 6 -5 27 -35 46 -65 30 -47 69 -100 107 -146 4 -5 14 -21 21 -34 7 -13 17 -29 22 -34 15 -18 133 -185 193 -272 30 -45 66 -92 80 -105 13 -13 25 -28 25 -32 0 -5 11 -23 25 -41 14 -18 25 -38 25 -44 0 -6 8 -13 18 -16 9 -3 32 -32 49 -64 18 -32 44 -71 58 -86 14 -15 25 -29 25 -32 0 -9 63 -99 72 -102 4 -2 8 -9 8 -16 0 -7 12 -23 26 -37 14 -13 33 -37 41 -54 9 -16 24 -36 34 -43 11 -7 19 -17 19 -22 0 -13 63 -110 89 -137 12 -12 21 -25 21 -29 0 -8 41 -69 125 -184 72 -100 187 -267 201 -291 6 -11 20 -30 30 -42 11 -12 30 -40 44 -62 13 -22 27 -42 30 -45 3 -3 30 -36 60 -75 107 -136 320 -336 389 -365 24 -10 38 -10 56 -2 30 14 31 36 6 117 -59 182 -119 320 -184 422 -15 24 -27 45 -27 48 0 3 -17 29 -38 58 -21 29 -41 59 -45 67 -4 8 -43 67 -87 130 -93 132 -184 264 -220 320 -14 21 -70 104 -125 185 -55 80 -107 158 -116 173 -9 15 -30 47 -47 72 -51 73 -285 417 -312 460 -14 22 -58 87 -97 145 -40 59 -73 110 -73 114 0 4 -11 18 -25 31 -14 13 -25 29 -25 35 0 7 -13 30 -28 51 -53 73 -162 235 -162 240 0 3 -20 31 -44 62 -24 31 -73 102 -109 157 -37 55 -80 119 -97 143 -16 23 -30 45 -30 48 0 4 -10 19 -22 34 -13 15 -29 36 -36 46 -7 10 -34 51 -60 90 -26 39 -110 164 -187 278 -77 113 -149 221 -160 239 -11 18 -41 62 -66 98 -25 35 -60 89 -77 119 -17 30 -43 67 -56 82 -16 16 -29 47 -35 80 -22 121 -53 228 -80 274 -6 10 -15 30 -21 44 -16 41 -58 105 -227 350 -21 30 -44 67 -52 82 -7 15 -38 59 -67 98 -30 39 -54 75 -54 79 0 4 -9 16 -20 26 -25 22 -26 44 -2 52 9 3 37 15 62 27 32 14 71 21 135 24 83 3 93 2 127 -21 30 -21 39 -23 53 -13 15 10 15 19 6 71 -6 32 -11 77 -12 99 -1 81 -57 137 -141 143 -49 3 -57 0 -103 -37z m153 -124 c0 -30 -4 -37 -24 -42 -14 -4 -51 -4 -82 -1 -40 3 -65 0 -83 -11 -27 -15 -59 -11 -59 7 0 6 10 16 23 22 12 7 28 20 35 31 7 10 24 18 38 18 13 0 24 4 24 8 0 12 50 33 61 26 5 -3 12 2 16 12 6 15 9 14 29 -9 14 -16 22 -39 22 -61z m-282 -92 c-23 -16 -46 -19 -46 -5 0 6 10 17 22 25 16 11 25 13 33 5 7 -7 4 -15 -9 -25z m-86 -34 c0 -5 -4 -10 -10 -10 -5 0 -10 5 -10 10 0 6 5 10 10 10 6 0 10 -4 10 -10z m85 -175 c14 -13 25 -31 25 -39 0 -9 14 -35 31 -58 80 -112 278 -420 306 -478 52 -108 64 -141 58 -161 -4 -13 -2 -19 8 -19 10 0 17 -16 21 -47 13 -102 19 -122 37 -139 10 -9 19 -23 19 -30 0 -7 10 -30 22 -50 12 -21 25 -61 29 -89 3 -27 9 -58 14 -67 6 -15 2 -18 -21 -18 -24 0 -32 7 -46 38 -9 20 -19 45 -22 55 -3 11 -15 21 -26 24 -34 9 -68 103 -77 213 -2 36 -9 70 -15 77 -5 7 -7 17 -3 24 7 10 0 30 -31 91 -8 14 -14 37 -14 51 0 13 -7 30 -15 37 -8 7 -15 23 -15 36 0 13 -11 34 -25 46 -14 12 -25 26 -25 32 0 6 -9 22 -20 36 -11 14 -20 30 -20 37 0 7 -12 25 -26 40 -15 15 -29 35 -33 43 -17 42 -77 130 -88 130 -7 0 -13 8 -13 18 0 9 -16 35 -35 56 -19 22 -35 43 -35 48 0 4 -9 8 -20 8 -21 0 -28 -24 -10 -35 6 -3 10 -14 10 -25 0 -10 11 -28 25 -41 13 -13 25 -31 25 -39 1 -8 14 -26 30 -40 17 -13 30 -30 30 -37 0 -6 6 -16 14 -20 7 -4 24 -28 36 -53 13 -25 33 -55 46 -67 28 -26 30 -40 7 -46 -14 -4 -12 -5 5 -6 14 -1 26 -10 32 -26 5 -14 14 -25 20 -25 5 0 10 -11 10 -24 0 -13 9 -35 20 -49 11 -14 20 -36 20 -49 1 -37 24 -111 43 -138 9 -13 17 -32 17 -42 0 -34 -27 -18 -65 40 -22 31 -47 65 -57 75 -10 10 -18 24 -18 31 0 7 -16 30 -35 50 -19 21 -35 43 -35 50 0 27 -43 99 -61 103 -11 3 -18 11 -15 18 3 8 -5 16 -20 19 -25 7 -34 26 -11 26 6 0 -4 15 -24 33 -20 19 -40 44 -44 56 -4 13 -16 32 -26 42 -10 10 -19 26 -19 34 0 8 -15 30 -34 50 -19 19 -36 40 -38 47 -7 19 -38 0 -38 -23 0 -11 10 -34 23 -50 12 -16 32 -42 45 -58 12 -16 22 -35 22 -42 0 -7 18 -34 40 -60 22 -26 40 -53 40 -59 0 -6 6 -13 14 -16 8 -3 21 -22 29 -42 8 -20 26 -49 38 -63 13 -14 33 -41 43 -60 11 -19 36 -56 56 -84 39 -53 114 -164 168 -248 17 -28 32 -61 32 -73 0 -23 51 -74 75 -74 7 0 18 -12 24 -27 15 -34 55 -82 73 -85 14 -3 38 -51 38 -77 0 -10 14 -33 31 -52 28 -30 97 -124 124 -168 37 -58 74 -112 104 -151 20 -24 41 -52 46 -62 22 -38 151 -227 192 -280 23 -31 43 -60 43 -64 0 -4 12 -23 27 -42 33 -43 79 -111 149 -217 55 -84 67 -100 109 -151 14 -18 25 -35 25 -39 0 -11 84 -129 98 -138 6 -4 12 -12 12 -17 0 -5 19 -37 43 -71 23 -34 63 -93 89 -132 26 -38 55 -78 64 -88 9 -11 22 -28 28 -39 6 -11 55 -84 109 -162 157 -230 187 -272 202 -291 8 -9 15 -21 15 -26 0 -4 11 -20 25 -35 14 -15 25 -29 25 -32 0 -3 29 -48 65 -101 36 -53 65 -100 65 -104 0 -5 6 -9 14 -9 8 0 18 -9 21 -20 3 -11 12 -26 18 -33 7 -7 43 -59 82 -117 38 -58 95 -139 125 -180 31 -41 63 -86 72 -100 9 -14 57 -83 107 -155 49 -71 124 -180 165 -241 41 -61 82 -117 91 -124 8 -7 15 -21 15 -31 0 -10 8 -24 18 -31 10 -7 30 -37 45 -66 19 -36 25 -58 19 -68 -7 -13 -25 2 -88 74 -43 49 -86 89 -94 88 -9 0 -15 8 -16 24 -2 41 -4 46 -13 31 -13 -20 -29 -5 -24 23 6 27 -14 45 -23 22 -9 -22 -24 -9 -24 20 0 13 -5 24 -10 24 -6 0 -22 12 -35 27 -18 21 -23 35 -19 56 5 24 3 27 -17 25 -19 -3 -24 3 -29 27 -4 21 -11 30 -25 30 -14 0 -20 7 -20 25 0 19 -5 24 -19 22 -16 -3 -18 1 -12 32 5 28 4 36 -8 36 -8 0 -16 -5 -18 -12 -6 -16 -28 0 -28 20 0 10 -9 23 -20 30 -11 7 -20 17 -20 23 0 12 -28 51 -84 115 -21 24 -36 47 -32 51 3 4 12 -2 20 -12 15 -21 30 -6 20 20 -5 11 -14 15 -29 11 -26 -7 -49 15 -50 48 0 14 -7 22 -21 24 -11 2 -28 17 -37 35 -30 58 -69 109 -139 187 -13 14 -25 29 -28 35 -3 5 -23 36 -45 69 -22 32 -50 74 -62 94 -12 19 -28 39 -37 44 -9 5 -16 20 -16 33 0 14 -4 25 -10 25 -15 0 -111 149 -108 168 2 11 -3 16 -15 15 -12 -1 -22 9 -29 28 -5 15 -17 31 -27 34 -10 3 -27 27 -38 53 -11 26 -37 63 -57 82 -20 19 -36 42 -36 51 0 8 -16 29 -35 46 -19 17 -35 38 -35 46 0 8 -11 26 -25 41 -14 15 -25 36 -25 47 0 12 -10 23 -25 29 -15 6 -25 17 -25 29 0 11 -9 26 -19 33 -11 8 -27 30 -37 51 -10 20 -21 37 -25 37 -4 0 -17 19 -29 43 -12 23 -28 46 -36 50 -8 4 -14 14 -14 22 0 8 -9 20 -19 27 -11 8 -25 27 -32 43 -7 17 -27 46 -44 66 -18 19 -42 54 -55 77 -13 23 -27 42 -31 42 -4 0 -17 20 -29 44 -11 24 -27 47 -35 50 -8 3 -15 14 -15 24 0 10 -22 43 -50 74 -27 31 -50 61 -50 67 0 13 -99 142 -122 159 -12 9 -17 20 -13 33 5 14 2 19 -10 19 -11 0 -15 5 -11 16 4 10 -5 24 -24 41 -17 13 -30 31 -30 38 0 7 -7 16 -16 19 -9 4 -14 13 -10 21 3 9 0 15 -8 15 -8 0 -25 17 -38 37 -40 62 -71 109 -120 178 -27 36 -48 70 -48 75 0 6 -4 10 -10 10 -12 0 -51 75 -43 83 3 4 18 0 34 -8 15 -8 31 -15 34 -15 4 0 5 10 3 22 -2 17 -23 33 -81 63 -42 22 -92 52 -110 67 -17 15 -42 28 -55 28 -15 0 -26 9 -32 25 -5 14 -7 32 -3 42 5 13 2 15 -11 10 -19 -7 -56 12 -56 29 0 14 -37 46 -75 64 -32 17 -190 169 -220 214 -11 16 -27 39 -35 51 -8 12 -28 43 -43 69 -16 25 -33 46 -38 46 -5 0 -9 7 -9 15 0 8 -9 20 -20 27 -11 7 -20 20 -20 29 0 9 -7 22 -15 29 -20 17 -75 98 -75 111 0 6 -15 24 -34 42 -33 30 -40 48 -37 90 1 13 10 17 35 17 26 0 35 5 40 23 9 30 112 116 160 132 21 8 53 27 70 44 17 17 46 33 63 37 19 4 35 15 42 30 14 31 45 31 76 -1z m-665 -226 c0 -6 -22 -32 -48 -58 -27 -25 -51 -54 -55 -63 -3 -10 -13 -18 -21 -18 -16 0 -26 -21 -26 -56 0 -17 -8 -28 -27 -35 -16 -7 -38 -16 -50 -22 -16 -7 -26 -7 -38 3 -13 11 -13 15 4 39 10 14 22 36 25 49 4 12 25 31 47 43 22 11 42 26 45 33 3 7 31 26 62 42 31 15 61 34 65 41 10 16 17 17 17 2z m1321 -1009 c10 -6 19 -17 19 -25 0 -8 6 -18 13 -22 7 -4 21 -25 32 -46 11 -21 28 -45 38 -54 9 -9 17 -20 17 -26 0 -9 20 -57 49 -117 10 -22 25 -36 39 -38 16 -2 22 -10 22 -28 0 -17 8 -27 25 -34 14 -5 30 -21 37 -35 6 -14 15 -25 20 -25 5 0 6 -9 3 -20 -4 -13 -2 -20 7 -20 8 0 24 -14 37 -30 26 -37 25 -83 -2 -88 -15 -3 -18 0 -12 18 5 16 4 20 -5 15 -13 -8 -39 22 -40 48 0 10 -7 20 -16 24 -8 3 -14 15 -13 27 3 38 -1 56 -11 56 -5 0 -10 -7 -10 -16 0 -25 -23 -11 -34 22 -6 16 -32 52 -58 79 -26 28 -48 59 -48 69 0 11 -8 28 -17 38 -10 11 -18 31 -19 46 -1 16 -7 26 -14 24 -7 -1 -18 2 -26 9 -10 8 -11 15 -2 29 9 14 9 22 -2 35 -8 9 -22 14 -33 11 -17 -4 -18 -1 -13 25 3 16 1 29 -4 29 -6 0 -10 7 -10 15 0 18 5 18 31 5z m419 -611 c0 -29 -18 -59 -35 -59 -18 0 -19 20 -3 55 14 30 38 33 38 4z m47 -56 c-2 -10 -8 -26 -12 -36 -6 -14 -3 -17 16 -15 18 2 25 -4 32 -29 6 -18 16 -33 23 -33 20 0 17 -23 -6 -42 -13 -12 -22 -14 -26 -6 -4 5 -2 13 4 17 11 7 4 61 -8 61 -4 0 -11 -8 -14 -17 -6 -14 -12 -11 -36 18 -16 19 -29 40 -30 48 0 8 7 23 17 33 21 23 47 24 40 1z m140 -264 c-1 -26 -6 -39 -15 -39 -10 0 -12 7 -8 24 4 18 1 29 -15 40 -29 20 -16 39 16 24 20 -9 24 -17 22 -49z m93 -104 c0 -12 5 -37 11 -54 10 -27 15 -32 35 -27 30 8 41 -11 18 -29 -17 -12 -23 -9 -52 18 -44 43 -61 78 -48 100 6 9 6 20 2 24 -5 4 -11 2 -13 -5 -4 -10 -8 -10 -19 -1 -17 14 -18 31 -2 47 10 10 18 6 40 -19 16 -17 28 -42 28 -54z m115 -167 c3 -7 1 -26 -4 -43 -7 -24 -9 -26 -10 -8 -1 12 -5 25 -11 28 -5 3 -10 13 -10 21 0 17 29 19 35 2z m55 -75 c0 -5 -11 -13 -25 -20 -20 -9 -25 -8 -25 2 0 13 14 23 38 24 6 1 12 -2 12 -6z m30 -53 c0 -11 9 -24 20 -30 11 -6 20 -17 20 -25 0 -19 -14 -19 -30 0 -7 8 -19 15 -26 15 -15 0 -18 27 -8 54 8 20 24 11 24 -14z m86 -158 c-15 -15 -16 -15 -16 6 0 12 -5 20 -12 18 -7 -1 -10 -1 -5 1 4 3 7 11 7 19 0 10 6 8 21 -7 19 -19 20 -22 5 -37z m75 -77 c7 -19 17 -35 21 -35 4 0 8 -4 8 -9 0 -17 -49 14 -54 34 -15 55 6 63 25 10z m29 -81 c0 -9 -5 -14 -12 -12 -18 6 -21 28 -4 28 9 0 16 -7 16 -16z m60 -40 c0 -3 -5 -15 -11 -26 -9 -17 -13 -18 -20 -7 -15 23 -10 39 11 39 11 0 20 -3 20 -6z m39 -53 c8 -5 9 -11 3 -15 -14 -8 -43 4 -36 15 7 11 15 11 33 0z m26 -61 c-5 -8 -11 -8 -17 -2 -6 6 -7 16 -3 22 5 8 11 8 17 2 6 -6 7 -16 3 -22z m33 -57 c-3 -30 -25 -42 -34 -19 -9 22 2 46 21 46 12 0 15 -8 13 -27z m62 -79 c0 -2 -3 -4 -8 -4 -12 0 -33 40 -26 51 3 6 12 -1 20 -16 8 -15 14 -29 14 -31z m24 -93 c-8 -8 -33 34 -34 54 0 14 5 10 19 -15 10 -19 17 -37 15 -39z m60 -6 c3 -8 1 -15 -4 -15 -6 0 -10 7 -10 15 0 8 2 15 4 15 2 0 6 -7 10 -15z m54 -129 c3 -12 -1 -17 -10 -14 -7 3 -15 13 -16 22 -3 12 1 17 10 14 7 -3 15 -13 16 -22z m62 -47 c0 -5 -7 -9 -15 -9 -9 0 -15 9 -15 21 0 18 2 19 15 9 8 -7 15 -16 15 -21z m20 -34 c0 -8 -4 -15 -10 -15 -5 0 -10 7 -10 15 0 8 5 15 10 15 6 0 10 -7 10 -15z m20 -85 c0 -12 -2 -12 -14 0 -8 8 -17 26 -21 40 l-6 25 20 -25 c11 -14 21 -32 21 -40z m88 -132 c7 -7 12 -19 11 -27 0 -14 -1 -14 -6 -1 -4 8 -13 20 -22 27 -9 7 -11 13 -5 13 5 0 15 -5 22 -12z m113 -121 c-1 -4 -1 -15 -1 -24 0 -15 -2 -16 -10 -3 -13 20 -13 43 1 38 6 -2 10 -7 10 -11z m39 -57 c0 -11 -4 -20 -9 -20 -14 0 -23 18 -16 30 10 17 25 11 25 -10z m40 -61 c0 -11 -4 -17 -10 -14 -5 3 -10 13 -10 21 0 8 5 14 10 14 6 0 10 -9 10 -21z m50 -115 c0 -8 -4 -12 -10 -9 -5 3 -10 13 -10 21 0 8 5 12 10 9 6 -3 10 -13 10 -21z m150 -199 c0 -8 -4 -15 -10 -15 -5 0 -10 7 -10 15 0 8 5 15 10 15 6 0 10 -7 10 -15z"
       id="path5722" />
    <path
       d="M1480 5910 c0 -18 25 -65 60 -115 19 -27 40 -57 45 -66 6 -10 25 -38 43 -63 17 -26 32 -50 32 -53 0 -3 24 -35 52 -72 29 -36 57 -72 63 -79 26 -35 148 -152 159 -152 6 0 22 -12 35 -25 12 -14 42 -33 65 -43 22 -10 47 -26 55 -35 7 -10 26 -17 42 -17 16 0 29 2 29 4 0 11 -56 66 -67 66 -7 0 -26 14 -43 30 -17 17 -34 30 -39 30 -4 0 -13 11 -19 25 -7 14 -20 25 -31 25 -11 0 -26 6 -33 13 -7 8 -23 19 -36 26 -12 6 -22 18 -22 26 0 8 -4 15 -8 15 -13 0 -152 167 -152 183 0 8 -9 22 -20 32 -11 10 -20 22 -20 28 0 5 -13 26 -30 47 -16 21 -30 42 -30 46 0 5 -12 20 -27 34 -14 14 -37 42 -51 63 -23 34 -52 50 -52 27z"
       id="path5724" />
    <path
       d="M2700 4305 c0 -8 5 -15 10 -15 6 0 10 7 10 15 0 8 -4 15 -10 15 -5 0 -10 -7 -10 -15z"
       id="path5726" />
    <path
       d="M1440 6125 c0 -8 5 -15 10 -15 6 0 10 7 10 15 0 8 -4 15 -10 15 -5 0 -10 -7 -10 -15z"
       id="path5732" />
    <path
       style="fill:#aa0000;stroke:#d8af91;stroke-width:39;stroke-opacity:0.292135"
       d="m 696.79747,7406.8248 c -109.90128,-64.4283 159.68461,-292.1057 618.58553,-1123.4082 101.2674,-183.4466 322.0084,85.6496 250.4401,165.4312 -638.77736,712.0843 -709.11464,1051.7229 -869.02563,957.977 z"
       id="path6232"
       sodipodi:nodetypes="ssss" />
  </g>
</svg>
