<?xml version="1.0" encoding="UTF-8" standalone="no"?>
<svg
   version="1.0"
   width="364.000000pt"
   height="838.000000pt"
   viewBox="0 0 364.000000 838.000000"
   preserveAspectRatio="xMidYMid meet"
   id="svg2449"
   sodipodi:docname="default_magic.svg"
   inkscape:version="1.2 (dc2aeda, 2022-05-15)"
   xmlns:inkscape="http://www.inkscape.org/namespaces/inkscape"
   xmlns:sodipodi="http://sodipodi.sourceforge.net/DTD/sodipodi-0.dtd"
   xmlns="http://www.w3.org/2000/svg"
   xmlns:svg="http://www.w3.org/2000/svg">
  <defs
     id="defs2453" />
  <sodipodi:namedview
     id="namedview2451"
     pagecolor="#ffffff"
     bordercolor="#000000"
     borderopacity="0.25"
     inkscape:showpageshadow="2"
     inkscape:pageopacity="0.0"
     inkscape:pagecheckerboard="0"
     inkscape:deskcolor="#d1d1d1"
     inkscape:document-units="pt"
     showgrid="false"
     showguides="false"
     inkscape:zoom="1.2208791"
     inkscape:cx="198.21782"
     inkscape:cy="684.75247"
     inkscape:window-width="1465"
     inkscape:window-height="920"
     inkscape:window-x="47"
     inkscape:window-y="34"
     inkscape:window-maximized="1"
     inkscape:current-layer="g2447" />
  <g
     transform="translate(0.000000,838.000000) scale(0.100000,-0.100000)"
     fill="#000000"
     stroke="none"
     id="g2447"
     inkscape:label="g2447">
    <path
       style="fill:#552200;stroke:#d8af91;stroke-width:39;stroke-opacity:0.292135"
       d="M 540.59405,4552.8398 3409.4284,498.38425 3526.1476,584.38825 669.59945,4632.7003 Z"
       id="path303"
       transform="translate(0,2.5e-4)" />
    <path
       style="fill:#550000;stroke:#d8af91;stroke-width:39;stroke-opacity:0.292135"
       d="m 227.29522,5081.1477 18.42935,-344.0144 258.01079,-86.0036 -116.71917,380.8731 z"
       id="path414"
       transform="translate(0,2.5e-4)" />
    <path
       d="M184 5133 c3 -32 11 -137 17 -233 6 -96 14 -178 18 -181 3 -4 76 -36 161 -73 126 -53 155 -70 156 -86 2 -33 8 -33 65 1 30 17 64 35 77 40 27 11 25 30 -6 44 -25 11 -29 32 -38 212 -4 73 -12 139 -18 147 -12 15 -401 186 -424 186 -11 0 -13 -12 -8 -57z m119 -238 c15 -110 14 -125 -14 -125 -18 0 -19 9 -19 122 0 145 12 146 33 3z m105 -153 c2 -14 -2 -22 -11 -22 -19 0 -40 26 -32 40 11 18 40 6 43 -18z"
       id="path2415"
       style="fill:#aa0000" />
    <path
       d="M670 4540 c-30 -17 -63 -33 -72 -36 -10 -4 -18 -11 -18 -16 0 -17 75 -118 87 -118 7 0 20 15 29 33 9 17 30 48 45 67 34 40 36 60 11 83 -23 21 -17 22 -82 -13z"
       id="path2417"
       style="fill:#a05a2c" />
    <path
       d="M747 4393 c-54 -73 -55 -90 -11 -142 42 -50 126 -62 209 -31 23 9 25 12 14 32 -26 48 -144 208 -154 208 -5 -1 -32 -31 -58 -67z"
       id="path2419"
       style="fill:#a05a2c" />
    <path
       d="M955 4183 c-16 -9 -56 -19 -88 -22 l-58 -6 258 -365 c142 -201 263 -363 268 -360 14 7 7 160 -9 207 -17 49 -40 54 -52 11 -5 -18 -16 -33 -24 -33 -19 0 -300 411 -300 440 0 2 14 0 31 -5 16 -5 36 -7 42 -5 18 7 108 -117 96 -131 -7 -9 -6 -19 3 -33 17 -27 28 -27 20 1 -3 14 -2 19 6 14 7 -4 12 -14 12 -22 0 -8 5 -14 11 -14 5 0 7 -5 4 -10 -4 -6 -11 -7 -17 -4 -7 4 -8 2 -4 -5 4 -6 12 -9 17 -5 13 8 40 -16 33 -28 -8 -12 55 -78 73 -78 7 0 13 4 13 10 0 26 -46 128 -69 153 -14 16 -69 90 -122 165 -52 74 -100 137 -105 138 -5 2 -22 -4 -39 -13z"
       id="path2421"
       style="fill:#a05a2c" />
    <path
       d="M1231 3724 c13 -17 26 -30 28 -27 3 2 -8 16 -24 31 l-28 27 24 -31z"
       id="path2423"
       style="fill:#a05a2c" />
    <path
       d="M1386 3613 c5 -16 9 -89 9 -163 l0 -135 36 -45 c20 -25 50 -67 68 -93 25 -36 38 -47 54 -45 30 4 31 43 1 63 -22 14 -52 91 -40 103 4 3 0 15 -8 26 -15 23 -26 86 -16 86 4 0 15 -19 26 -42 10 -24 34 -59 54 -78 19 -20 46 -59 60 -88 14 -28 30 -52 36 -52 13 0 73 -77 122 -156 37 -59 57 -79 91 -89 20 -6 23 -4 19 11 -4 14 -301 442 -487 701 -22 31 -35 28 -25 -4z"
       id="path2425"
       style="fill:#a05a2c" />
    <path
       d="M1610 3180 c-20 -12 -5 -24 16 -12 9 5 12 12 7 15 -5 3 -15 2 -23 -3z"
       id="path2427"
       style="fill:#a05a2c" />
    <path
       d="M1607 3031 c54 -87 85 -123 95 -113 25 25 -51 142 -93 142 -21 0 -21 0 -2 -29z"
       id="path2429"
       style="fill:#a05a2c" />
    <path
       d="M1751 2828 c12 -22 153 -224 337 -481 46 -65 86 -116 88 -114 4 4 -22 190 -36 253 -26 113 -167 344 -211 344 -25 0 -24 -14 5 -88 13 -34 27 -76 31 -93 l7 -32 -29 24 c-35 28 -94 110 -112 156 -8 21 -24 35 -43 42 -44 16 -50 14 -37 -11z"
       id="path2431"
       style="fill:#a05a2c" />
    <path
       d="M1870 2811 c0 -6 5 -13 10 -16 6 -3 10 1 10 9 0 9 -4 16 -10 16 -5 0 -10 -4 -10 -9z"
       id="path2433"
       style="fill:#a05a2c" />
    <path
       d="M2214 2413 c3 -26 8 -77 11 -112 9 -96 58 -215 144 -346 14 -22 100 -146 190 -275 152 -218 210 -294 217 -287 2 2 -5 32 -15 67 -10 36 -26 103 -36 150 -35 172 -54 224 -111 300 -30 40 -61 84 -69 99 -27 50 -312 445 -324 449 -9 3 -11 -9 -7 -45z m204 -318 c34 -36 64 -85 51 -85 -9 0 -8 -4 1 -15 7 -8 16 -12 21 -10 12 8 33 -36 30 -63 -2 -14 7 -32 21 -46 14 -12 31 -43 38 -69 8 -26 18 -47 22 -47 4 0 8 -7 8 -15 0 -38 -59 11 -115 96 -50 76 -70 125 -54 134 5 4 9 11 9 17 0 6 -3 8 -7 4 -8 -7 -31 36 -69 128 -30 74 -30 82 1 31 13 -22 32 -49 43 -60z"
       id="path2435"
       style="fill:#a05a2c" />
    <path
       d="M2460 1950 c19 -13 30 -13 30 0 0 6 -10 10 -22 10 -19 0 -20 -2 -8 -10z"
       id="path2437"
       style="fill:#a05a2c" />
    <path
       d="M2770 1658 c0 -34 55 -247 90 -354 28 -83 51 -134 73 -160 18 -22 69 -90 112 -151 44 -62 82 -113 86 -113 5 0 6 48 3 108 -8 179 -14 230 -31 243 -8 7 -82 109 -165 226 -139 198 -168 233 -168 201z m160 -298 c6 -22 17 -40 24 -40 8 0 31 -23 51 -51 34 -47 35 -53 25 -85 -7 -19 -9 -43 -6 -52 3 -9 -19 9 -49 41 -53 56 -73 106 -42 108 10 0 10 2 0 6 -7 2 -13 9 -13 14 0 6 6 7 13 3 6 -4 4 2 -5 13 -16 17 -26 83 -13 83 2 0 9 -18 15 -40z"
       id="path2439"
       style="fill:#a05a2c" />
    <path
       d="M3185 1028 c23 -226 42 -308 83 -361 15 -20 53 -70 85 -111 l57 -76 70 51 c39 28 70 53 70 55 0 12 -353 504 -362 504 -6 0 -8 -22 -3 -62z m144 -222 c15 -26 48 -74 74 -106 26 -32 54 -74 62 -93 14 -34 14 -36 -11 -52 -24 -15 -26 -15 -44 7 -11 13 -45 59 -74 103 -54 78 -61 101 -57 178 2 30 21 15 50 -37z"
       id="path2441"
       style="fill:#a05a2c" />
    <path
       d="M3310 780 c0 -5 5 -10 11 -10 5 0 7 5 4 10 -3 6 -8 10 -11 10 -2 0 -4 -4 -4 -10z"
       id="path2443"
       style="fill:#a05a2c" />
    <path
       d="M3430 570 c0 -5 5 -10 10 -10 6 0 10 5 10 10 0 6 -4 10 -10 10 -5 0 -10 -4 -10 -10z"
       id="path2445"
       style="fill:#a05a2c" />
  </g>
</svg>
