<?xml version="1.0" encoding="UTF-8" standalone="no"?>
<svg
   version="1.0"
   width="364.000000pt"
   height="838.000000pt"
   viewBox="0 0 364.000000 838.000000"
   preserveAspectRatio="xMidYMid meet"
   id="svg4546"
   sodipodi:docname="simple_bow.svg"
   inkscape:version="1.2 (dc2aeda, 2022-05-15)"
   xmlns:inkscape="http://www.inkscape.org/namespaces/inkscape"
   xmlns:sodipodi="http://sodipodi.sourceforge.net/DTD/sodipodi-0.dtd"
   xmlns="http://www.w3.org/2000/svg"
   xmlns:svg="http://www.w3.org/2000/svg">
  <defs
     id="defs4550" />
  <sodipodi:namedview
     id="namedview4548"
     pagecolor="#ffffff"
     bordercolor="#000000"
     borderopacity="0.25"
     inkscape:showpageshadow="2"
     inkscape:pageopacity="0.0"
     inkscape:pagecheckerboard="0"
     inkscape:deskcolor="#d1d1d1"
     inkscape:document-units="pt"
     showgrid="false"
     inkscape:zoom="0.75466819"
     inkscape:cx="18.551199"
     inkscape:cy="590.98821"
     inkscape:window-width="1309"
     inkscape:window-height="852"
     inkscape:window-x="47"
     inkscape:window-y="34"
     inkscape:window-maximized="0"
     inkscape:current-layer="g5312" />
  <g
     id="g5312">
    <g
       transform="translate(0.000000,838.000000) scale(0.100000,-0.100000)"
       fill="#000000"
       stroke="none"
       id="g4544"
       style="fill:#502d16">
      <path
         d="M283 6415 c-3 -9 2 -46 10 -83 39 -164 48 -231 37 -252 -9 -16 -8 -24 5 -36 18 -18 20 -45 4 -61 -8 -8 -6 -18 7 -37 29 -45 16 -166 -55 -531 -24 -124 -63 -418 -80 -605 -47 -503 -6 -956 117 -1300 33 -93 109 -247 155 -318 58 -88 324 -566 369 -662 92 -200 287 -441 493 -611 367 -302 697 -482 1417 -773 103 -41 205 -85 225 -96 87 -47 118 -69 127 -89 5 -13 18 -21 32 -21 16 0 29 -10 39 -30 9 -17 24 -30 35 -30 16 0 201 -164 237 -210 16 -21 49 0 46 29 -2 12 -52 108 -111 214 -60 106 -112 202 -116 213 -9 28 -44 59 -80 71 -25 8 -55 56 -226 361 -108 194 -201 356 -205 360 -10 9 -28 42 184 -343 99 -182 181 -338 181 -348 0 -24 -21 -22 -131 13 -226 70 -456 179 -803 379 -89 51 -325 213 -421 289 -98 78 -263 246 -312 318 -98 144 -181 330 -213 475 -11 48 -10 60 4 87 9 17 16 35 16 41 0 20 -33 40 -108 65 -112 38 -161 72 -196 135 -34 63 -37 136 -12 241 26 109 19 134 -38 132 -32 -1 -42 7 -121 91 -124 132 -237 327 -290 500 -108 356 -114 1069 -13 1582 25 127 56 231 73 245 18 15 19 12 235 -375 95 -171 177 -314 183 -320 6 -5 -3 15 -20 45 -16 30 -109 199 -206 376 -173 314 -176 321 -165 356 12 41 27 9 -156 336 -82 145 -113 192 -128 192 -10 0 -21 -7 -25 -15z m267 -441 c0 -16 -9 -17 -29 -5 -8 5 -11 16 -7 26 5 14 9 15 21 5 8 -7 15 -19 15 -26z m2706 -4865 c3 -6 2 -15 -2 -19 -12 -12 -38 5 -30 19 9 14 23 14 32 0z"
         id="path4536"
         style="fill:#502d16" />
      <path
         d="M1015 5060 c9 -16 18 -30 21 -30 2 0 -2 14 -11 30 -9 17 -18 30 -21 30 -2 0 2 -13 11 -30z"
         id="path4538"
         style="fill:#502d16" />
      <path
         d="M1060 4980 c6 -11 13 -20 16 -20 2 0 0 9 -6 20 -6 11 -13 20 -16 20 -2 0 0 -9 6 -20z"
         id="path4540"
         style="fill:#502d16" />
      <path
         d="M2730 1970 c11 -22 23 -40 25 -40 3 0 -4 18 -15 40 -11 22 -23 40 -25 40 -3 0 4 -18 15 -40z"
         id="path4542"
         style="fill:#502d16" />
    </g>
    <g
       id="g5301"
       style="fill:#aa4400">
      <circle
         style="fill:#aa4400;stroke:#d8af91;stroke-width:3.9;stroke-opacity:0.292135"
         id="path5086"
         cx="63.856197"
         cy="504.73572"
         r="16.303711" />
      <circle
         style="fill:#aa4400;stroke:#d8af91;stroke-width:3.9;stroke-opacity:0.292135"
         id="path5086-9"
         cx="102.57751"
         cy="576.74371"
         r="16.303711" />
      <path
         style="fill:#aa4400;stroke:#d8af91;stroke-width:3.9;stroke-opacity:0.292135"
         d="m 52.78233,251.20556 c -13.710388,45.47398 -24.618764,117.55831 -24.618764,117.55831 0,0 9.944678,-132.28231 14.245435,-131.82052 3.81174,0.40929 12.126053,8.44886 10.373329,14.26221 z m 259.74176,470.31615 c -29.67049,-6.37869 -104.84116,-43.11938 -104.84116,-43.11938 0,0 44.68362,32.72719 113.59656,58.01226 3.59904,1.32054 -5.00738,-14.08711 -8.7554,-14.89288 z"
         id="path5164"
         sodipodi:nodetypes="scssscss" />
    </g>
  </g>
</svg>
