<?xml version="1.0" encoding="UTF-8"?>
<!DOCTYPE svg PUBLIC "-//W3C//DTD SVG 1.1//EN" "http://www.w3.org/Graphics/SVG/1.1/DTD/svg11.dtd">
<svg xmlns="http://www.w3.org/2000/svg" version="1.1" width="278px" height="312px" style="shape-rendering:geometricPrecision; text-rendering:geometricPrecision; image-rendering:optimizeQuality; fill-rule:evenodd; clip-rule:evenodd" xmlns:xlink="http://www.w3.org/1999/xlink">
<g><path style="opacity:1" fill="#181e2a" d="M 24.5,-0.5 C 53.1667,-0.5 81.8333,-0.5 110.5,-0.5C 110.5,0.5 110.5,1.5 110.5,2.5C 123.569,4.22094 136.736,4.22094 150,2.5C 175.317,3.14398 200.484,3.81065 225.5,4.5C 224.71,5.79423 223.71,6.9609 222.5,8C 213.693,10.2785 205.359,13.6118 197.5,18C 189.087,20.0393 180.754,22.3727 172.5,25C 170.981,26.3513 169.648,27.8513 168.5,29.5C 160.578,30.9167 157.911,35.4167 160.5,43C 159.411,45.9156 157.744,48.4156 155.5,50.5C 151.752,51.0423 149.085,53.0423 147.5,56.5C 145.579,57.641 143.579,57.8077 141.5,57C 139.968,52.9806 138.801,48.8139 138,44.5C 133.375,37.4176 128.875,30.2509 124.5,23C 116.516,21.7204 108.516,19.7204 100.5,17C 98.9831,14.7955 97.6498,12.4622 96.5,10C 85.2646,4.14069 73.2646,1.64069 60.5,2.5C 57.5,2.66667 54.5,2.83333 51.5,3C 49.1629,4.34078 46.6629,5.17412 44,5.5C 37.502,4.74269 31.002,4.07603 24.5,3.5C 24.5,2.16667 24.5,0.833333 24.5,-0.5 Z"/></g>
<g><path style="opacity:1" fill="#11191e" d="M 110.5,-0.5 C 166.167,-0.5 221.833,-0.5 277.5,-0.5C 277.5,0.833333 277.5,2.16667 277.5,3.5C 264.645,3.76604 251.812,3.4327 239,2.5C 234.48,3.12186 229.98,3.78853 225.5,4.5C 200.484,3.81065 175.317,3.14398 150,2.5C 136.736,4.22094 123.569,4.22094 110.5,2.5C 110.5,1.5 110.5,0.5 110.5,-0.5 Z"/></g>
<g><path style="opacity:1" fill="#1f323e" d="M 2.5,-0.5 C 9.83333,-0.5 17.1667,-0.5 24.5,-0.5C 24.5,0.833333 24.5,2.16667 24.5,3.5C 31.002,4.07603 37.502,4.74269 44,5.5C 46.6629,5.17412 49.1629,4.34078 51.5,3C 54.5,2.83333 57.5,2.66667 60.5,2.5C 73.2646,1.64069 85.2646,4.14069 96.5,10C 97.6498,12.4622 98.9831,14.7955 100.5,17C 108.516,19.7204 116.516,21.7204 124.5,23C 128.875,30.2509 133.375,37.4176 138,44.5C 138.801,48.8139 139.968,52.9806 141.5,57C 143.579,57.8077 145.579,57.641 147.5,56.5C 149.085,53.0423 151.752,51.0423 155.5,50.5C 157.5,51.976 159.167,53.8094 160.5,56C 162.764,56.2362 164.931,56.7362 167,57.5C 168.079,60.0627 168.579,62.7294 168.5,65.5C 155.54,67.7094 142.54,69.876 129.5,72C 128.167,73.6667 128.167,75.3333 129.5,77C 132.375,78.302 135.375,79.1353 138.5,79.5C 138.95,85.1363 137.95,90.4697 135.5,95.5C 135.151,98.4629 136.151,100.796 138.5,102.5C 141.31,101.801 143.977,100.801 146.5,99.5C 147.117,99.6107 147.617,99.944 148,100.5C 148.495,102.473 148.662,104.473 148.5,106.5C 146.533,106.261 144.699,106.594 143,107.5C 142.502,110.482 142.335,113.482 142.5,116.5C 140.464,122.883 136.964,123.883 132,119.5C 131.344,112.521 129.677,106.188 127,100.5C 123.463,99.1817 121.629,100.515 121.5,104.5C 119.473,104.662 117.473,104.495 115.5,104C 114.355,101.572 113.022,99.2383 111.5,97C 112.429,94.0912 114.429,92.9245 117.5,93.5C 117.703,91.6096 117.037,90.1096 115.5,89C 110.31,89.3042 105.81,87.8042 102,84.5C 101.166,76.3289 100.333,68.1622 99.5,60C 101.032,54.9128 101.532,49.7461 101,44.5C 100.5,42.6667 99.3333,41.5 97.5,41C 94.905,40.7744 92.405,40.2744 90,39.5C 89.6012,39.7284 89.4346,40.0618 89.5,40.5C 84.9675,39.7975 82.8008,37.1308 83,32.5C 77.8784,24.2234 70.3784,20.7234 60.5,22C 59.3147,23.353 57.9814,24.5197 56.5,25.5C 49.5311,24.2043 42.5311,23.371 35.5,23C 34.5769,25.0408 34.2436,27.2075 34.5,29.5C 33.5,29.8333 32.8333,30.5 32.5,31.5C 22.7144,35.7411 18.7144,43.0744 20.5,53.5C 24.0171,55.424 27.6837,57.0906 31.5,58.5C 31.5,59.1667 31.5,59.8333 31.5,60.5C 28.6545,60.8087 27.1545,62.4754 27,65.5C 26.6781,70.8525 26.1781,76.1858 25.5,81.5C 25.8676,84.638 26.7009,87.638 28,90.5C 28.8159,91.8228 29.9826,92.4894 31.5,92.5C 31.5,93.5 31.5,94.5 31.5,95.5C 30.5041,95.4142 29.6708,95.7476 29,96.5C 27.8644,99.0964 27.031,101.763 26.5,104.5C 20.214,104.918 13.5473,104.918 6.5,104.5C 6.5,106.833 6.5,109.167 6.5,111.5C 4.90097,111.232 3.56764,111.566 2.5,112.5C 1.74634,74.8177 1.74634,37.1511 2.5,-0.5 Z"/></g>
<g><path style="opacity:1" fill="#1f3237" d="M 277.5,3.5 C 277.5,8.16667 277.5,12.8333 277.5,17.5C 256.833,21.0834 236.5,26.0834 216.5,32.5C 215.614,33.325 215.281,34.325 215.5,35.5C 216.822,35.33 217.989,35.6634 219,36.5C 219.333,39.8333 219.667,43.1667 220,46.5C 220.708,47.3805 221.542,48.0472 222.5,48.5C 222.167,49.8333 221.833,51.1667 221.5,52.5C 220.833,52.8333 220.167,53.1667 219.5,53.5C 216.265,51.8535 212.932,51.5202 209.5,52.5C 206.038,56.1349 202.705,59.9682 199.5,64C 194.298,64.3651 189.965,66.3651 186.5,70C 184.655,71.128 182.655,71.628 180.5,71.5C 180.719,70.325 180.386,69.325 179.5,68.5C 175.864,67.3414 172.198,66.3414 168.5,65.5C 168.579,62.7294 168.079,60.0627 167,57.5C 164.931,56.7362 162.764,56.2362 160.5,56C 159.167,53.8094 157.5,51.976 155.5,50.5C 157.744,48.4156 159.411,45.9156 160.5,43C 157.911,35.4167 160.578,30.9167 168.5,29.5C 169.648,27.8513 170.981,26.3513 172.5,25C 180.754,22.3727 189.087,20.0393 197.5,18C 205.359,13.6118 213.693,10.2785 222.5,8C 223.71,6.9609 224.71,5.79423 225.5,4.5C 229.98,3.78853 234.48,3.12186 239,2.5C 251.812,3.4327 264.645,3.76604 277.5,3.5 Z"/></g>
<g><path style="opacity:1" fill="#253843" d="M 277.5,17.5 C 277.5,27.8333 277.5,38.1667 277.5,48.5C 275.379,48.3253 273.379,48.6586 271.5,49.5C 271.8,44.9014 271.467,40.4014 270.5,36C 264.434,34.1044 260.101,35.9378 257.5,41.5C 250.549,40.0508 243.883,40.7174 237.5,43.5C 230.956,40.2629 225.956,41.9295 222.5,48.5C 221.542,48.0472 220.708,47.3805 220,46.5C 219.667,43.1667 219.333,39.8333 219,36.5C 217.989,35.6634 216.822,35.33 215.5,35.5C 215.281,34.325 215.614,33.325 216.5,32.5C 236.5,26.0834 256.833,21.0834 277.5,17.5 Z"/></g>
<g><path style="opacity:1" fill="#2c4554" d="M 89.5,40.5 C 91.2639,45.6387 91.9306,50.972 91.5,56.5C 89.9582,55.6993 88.2915,55.366 86.5,55.5C 83.885,54.7094 81.2184,54.0427 78.5,53.5C 78.6747,51.3792 78.3414,49.3792 77.5,47.5C 79.6799,44.4735 81.3466,41.1402 82.5,37.5C 66.5226,34.7045 50.5226,32.0379 34.5,29.5C 34.2436,27.2075 34.5769,25.0408 35.5,23C 42.5311,23.371 49.5311,24.2043 56.5,25.5C 57.9814,24.5197 59.3147,23.353 60.5,22C 70.3784,20.7234 77.8784,24.2234 83,32.5C 82.8008,37.1308 84.9675,39.7975 89.5,40.5 Z"/></g>
<g><path style="opacity:1" fill="#3e6475" d="M 34.5,29.5 C 50.5226,32.0379 66.5226,34.7045 82.5,37.5C 81.3466,41.1402 79.6799,44.4735 77.5,47.5C 75.5214,45.8325 73.188,45.1658 70.5,45.5C 69.1667,45.5 67.8333,45.5 66.5,45.5C 64.3193,43.9821 61.8193,42.9821 59,42.5C 58.2352,42.5699 57.7352,42.9033 57.5,43.5C 56.1667,43.5 54.8333,43.5 53.5,43.5C 50.8539,41.7475 47.8539,40.7475 44.5,40.5C 42.8333,40.5 41.1667,40.5 39.5,40.5C 37.8984,38.9261 35.8984,38.2594 33.5,38.5C 32.6314,36.283 32.298,33.9496 32.5,31.5C 32.8333,30.5 33.5,29.8333 34.5,29.5 Z"/></g>
<g><path style="opacity:1" fill="#e0edf2" d="M 271.5,49.5 C 272.229,54.1304 272.563,58.7971 272.5,63.5C 270.208,63.2436 268.041,63.5769 266,64.5C 266.403,70.2127 266.569,75.8793 266.5,81.5C 266.5,83.5 266.5,85.5 266.5,87.5C 266.167,88.1667 265.833,88.8333 265.5,89.5C 262.813,89.6641 260.146,89.4974 257.5,89C 256.809,87.9326 256.309,86.7659 256,85.5C 255.333,72.1667 255.333,58.8333 256,45.5C 256.41,44.0993 256.91,42.766 257.5,41.5C 260.101,35.9378 264.434,34.1044 270.5,36C 271.467,40.4014 271.8,44.9014 271.5,49.5 Z"/></g>
<g><path style="opacity:1" fill="#314a62" d="M 32.5,31.5 C 32.298,33.9496 32.6314,36.283 33.5,38.5C 32.1634,39.3149 31.1634,40.4815 30.5,42C 31.4732,47.4066 31.8066,52.9066 31.5,58.5C 27.6837,57.0906 24.0171,55.424 20.5,53.5C 18.7144,43.0744 22.7144,35.7411 32.5,31.5 Z"/></g>
<g><path style="opacity:1" fill="#e6f3ec" d="M 33.5,38.5 C 35.8984,38.2594 37.8984,38.9261 39.5,40.5C 39.264,48.5417 39.5973,56.5417 40.5,64.5C 38.283,65.3686 35.9496,65.702 33.5,65.5C 32.0687,64.2196 31.4021,62.5529 31.5,60.5C 31.5,59.8333 31.5,59.1667 31.5,58.5C 31.8066,52.9066 31.4732,47.4066 30.5,42C 31.1634,40.4815 32.1634,39.3149 33.5,38.5 Z"/></g>
<g><path style="opacity:1" fill="#243143" d="M 142.5,116.5 C 148.25,117.862 153.916,117.529 159.5,115.5C 159.605,119.548 159.272,123.548 158.5,127.5C 156.284,127.275 154.617,128.108 153.5,130C 154.786,132.832 154.786,135.665 153.5,138.5C 149.463,138.176 146.797,139.842 145.5,143.5C 144.624,143.369 143.957,143.702 143.5,144.5C 144.614,149.446 144.781,154.446 144,159.5C 143.292,160.381 142.458,161.047 141.5,161.5C 139.833,161.5 138.167,161.5 136.5,161.5C 137.162,165.466 137.495,169.466 137.5,173.5C 136.279,172.972 135.113,172.305 134,171.5C 133.5,169 133,166.5 132.5,164C 133.386,161.192 133.553,158.359 133,155.5C 131.062,154.14 129.396,154.473 128,156.5C 127.501,161.489 127.334,166.489 127.5,171.5C 126.833,171.833 126.167,172.167 125.5,172.5C 120.479,173.245 115.812,172.078 111.5,169C 109.527,168.505 107.527,168.338 105.5,168.5C 105.5,163.167 105.5,157.833 105.5,152.5C 107.371,152.141 108.871,151.141 110,149.5C 110.226,145.113 110.726,140.779 111.5,136.5C 109.615,133.243 107.281,130.41 104.5,128C 109.853,125.82 113.187,121.987 114.5,116.5C 113.127,116.343 111.793,116.51 110.5,117C 108.9,118.815 106.9,119.982 104.5,120.5C 102.183,118.684 100.016,116.684 98,114.5C 98.5747,112.122 99.0747,109.622 99.5,107C 97.8172,99.9188 96.6505,92.7522 96,85.5C 94.6703,84.4178 93.1703,83.7512 91.5,83.5C 91.5,74.5 91.5,65.5 91.5,56.5C 91.9306,50.972 91.2639,45.6387 89.5,40.5C 89.4346,40.0618 89.6012,39.7284 90,39.5C 92.405,40.2744 94.905,40.7744 97.5,41C 99.3333,41.5 100.5,42.6667 101,44.5C 101.532,49.7461 101.032,54.9128 99.5,60C 100.333,68.1622 101.166,76.3289 102,84.5C 105.81,87.8042 110.31,89.3042 115.5,89C 117.037,90.1096 117.703,91.6096 117.5,93.5C 114.429,92.9245 112.429,94.0912 111.5,97C 113.022,99.2383 114.355,101.572 115.5,104C 117.473,104.495 119.473,104.662 121.5,104.5C 121.629,100.515 123.463,99.1817 127,100.5C 129.677,106.188 131.344,112.521 132,119.5C 136.964,123.883 140.464,122.883 142.5,116.5 Z"/></g>
<g><path style="opacity:1" fill="#6f8995" d="M 39.5,40.5 C 41.1667,40.5 42.8333,40.5 44.5,40.5C 44.6799,48.7558 44.3465,57.0892 43.5,65.5C 42.209,65.7373 41.209,65.404 40.5,64.5C 39.5973,56.5417 39.264,48.5417 39.5,40.5 Z"/></g>
<g><path style="opacity:1" fill="#ecf3f2" d="M 44.5,40.5 C 47.8539,40.7475 50.8539,41.7475 53.5,43.5C 52.7368,51.1421 52.4035,58.8088 52.5,66.5C 50.2743,67.7563 47.941,67.7563 45.5,66.5C 44.8333,66.1667 44.1667,65.8333 43.5,65.5C 44.3465,57.0892 44.6799,48.7558 44.5,40.5 Z"/></g>
<g><path style="opacity:1" fill="#395263" d="M 257.5,41.5 C 256.91,42.766 256.41,44.0993 256,45.5C 255.333,58.8333 255.333,72.1667 256,85.5C 256.309,86.7659 256.809,87.9326 257.5,89C 260.146,89.4974 262.813,89.6641 265.5,89.5C 265.5,91.1667 265.5,92.8333 265.5,94.5C 262.315,94.0196 259.481,94.6863 257,96.5C 255.94,104.518 255.106,112.518 254.5,120.5C 254.5,123.5 254.5,126.5 254.5,129.5C 254.5,129.833 254.5,130.167 254.5,130.5C 253.07,130.421 251.736,130.754 250.5,131.5C 249.675,135.122 249.175,138.789 249,142.5C 247.198,143.789 246.031,145.456 245.5,147.5C 243.615,149.795 243.115,152.462 244,155.5C 245.356,156.38 246.856,156.714 248.5,156.5C 247.359,158.549 247.359,160.549 248.5,162.5C 243.035,162.634 237.702,161.967 232.5,160.5C 228.576,160.633 224.91,161.633 221.5,163.5C 218.721,163.721 216.054,163.388 213.5,162.5C 214.36,158.566 214.693,154.566 214.5,150.5C 211.482,150.296 208.482,149.963 205.5,149.5C 207.242,144.727 208.242,139.727 208.5,134.5C 210.113,134.056 211.28,133.056 212,131.5C 212.167,129.167 212.333,126.833 212.5,124.5C 213.402,103.471 213.402,82.4709 212.5,61.5C 212.414,60.5041 212.748,59.6708 213.5,59C 215.405,57.5787 217.405,56.412 219.5,55.5C 219.333,67.5046 219.5,79.5046 220,91.5C 221.356,92.3802 222.856,92.7135 224.5,92.5C 229.206,92.9148 233.706,92.2482 238,90.5C 238.817,74.7591 238.65,59.0924 237.5,43.5C 243.883,40.7174 250.549,40.0508 257.5,41.5 Z"/></g>
<g><path style="opacity:1" fill="#f2faf9" d="M 237.5,43.5 C 238.65,59.0924 238.817,74.7591 238,90.5C 233.706,92.2482 229.206,92.9148 224.5,92.5C 223.933,90.9705 223.267,89.4705 222.5,88C 222.9,77.5283 223.233,67.0283 223.5,56.5C 222.82,55.1401 222.153,53.8068 221.5,52.5C 221.833,51.1667 222.167,49.8333 222.5,48.5C 225.956,41.9295 230.956,40.2629 237.5,43.5 Z"/></g>
<g><path style="opacity:1" fill="#f2faf2" d="M 66.5,45.5 C 66.6663,52.8409 66.4997,60.1742 66,67.5C 65.4806,68.5156 64.6473,69.1822 63.5,69.5C 61.2835,69.1217 59.2835,68.455 57.5,67.5C 57.5,59.5 57.5,51.5 57.5,43.5C 57.7352,42.9033 58.2352,42.5699 59,42.5C 61.8193,42.9821 64.3193,43.9821 66.5,45.5 Z"/></g>
<g><path style="opacity:1" fill="#829ca1" d="M 53.5,43.5 C 54.8333,43.5 56.1667,43.5 57.5,43.5C 57.5,51.5 57.5,59.5 57.5,67.5C 55.9582,66.6993 54.2915,66.366 52.5,66.5C 52.4035,58.8088 52.7368,51.1421 53.5,43.5 Z"/></g>
<g><path style="opacity:1" fill="#ecf3f2" d="M 70.5,45.5 C 73.188,45.1658 75.5214,45.8325 77.5,47.5C 78.3414,49.3792 78.6747,51.3792 78.5,53.5C 78.8222,59.358 78.4889,65.0247 77.5,70.5C 75.2075,70.7564 73.0408,70.4231 71,69.5C 70.5003,61.5069 70.3336,53.5069 70.5,45.5 Z"/></g>
<g><path style="opacity:1" fill="#2b3e4b" d="M 219.5,53.5 C 219.5,54.1667 219.5,54.8333 219.5,55.5C 217.405,56.412 215.405,57.5787 213.5,59C 212.748,59.6708 212.414,60.5041 212.5,61.5C 210.089,61.1367 208.589,62.1367 208,64.5C 206.963,69.2952 206.13,74.1286 205.5,79C 206.683,89.654 206.683,100.321 205.5,111C 205.976,118.168 206.476,125.335 207,132.5C 207.278,133.416 207.778,134.082 208.5,134.5C 208.242,139.727 207.242,144.727 205.5,149.5C 208.482,149.963 211.482,150.296 214.5,150.5C 214.693,154.566 214.36,158.566 213.5,162.5C 212.234,161.91 210.901,161.41 209.5,161C 202.508,160.5 195.508,160.334 188.5,160.5C 188.657,159.127 188.49,157.793 188,156.5C 185.667,154.167 183.333,151.833 181,149.5C 180.505,147.527 180.338,145.527 180.5,143.5C 183.748,143.224 185.748,141.557 186.5,138.5C 187.483,133.857 187.65,129.191 187,124.5C 186.632,123.09 185.799,122.09 184.5,121.5C 183.52,124.086 183.187,126.753 183.5,129.5C 180.721,129.721 178.054,129.388 175.5,128.5C 177.388,121.401 180.888,115.067 186,109.5C 187.325,105.572 187.658,101.572 187,97.5C 183.532,92.0659 179.699,86.8992 175.5,82C 177.377,79.874 178.377,77.374 178.5,74.5C 179.167,73.5 179.833,72.5 180.5,71.5C 182.655,71.628 184.655,71.128 186.5,70C 189.965,66.3651 194.298,64.3651 199.5,64C 202.705,59.9682 206.038,56.1349 209.5,52.5C 212.932,51.5202 216.265,51.8535 219.5,53.5 Z"/></g>
<g><path style="opacity:1" fill="#82a8b4" d="M 221.5,52.5 C 222.153,53.8068 222.82,55.1401 223.5,56.5C 223.233,67.0283 222.9,77.5283 222.5,88C 223.267,89.4705 223.933,90.9705 224.5,92.5C 222.856,92.7135 221.356,92.3802 220,91.5C 219.5,79.5046 219.333,67.5046 219.5,55.5C 219.5,54.8333 219.5,54.1667 219.5,53.5C 220.167,53.1667 220.833,52.8333 221.5,52.5 Z"/></g>
<g><path style="opacity:1" fill="#38576a" d="M 78.5,53.5 C 81.2184,54.0427 83.885,54.7094 86.5,55.5C 85.5379,62.4122 85.2045,69.4122 85.5,76.5C 83.0971,76.448 80.7638,76.7814 78.5,77.5C 78.1667,76.8333 77.8333,76.1667 77.5,75.5C 77.5,73.8333 77.5,72.1667 77.5,70.5C 78.4889,65.0247 78.8222,59.358 78.5,53.5 Z"/></g>
<g><path style="opacity:1" fill="#385164" d="M 31.5,60.5 C 31.4021,62.5529 32.0687,64.2196 33.5,65.5C 32.6993,67.0418 32.366,68.7085 32.5,70.5C 31.536,77.7463 31.2027,85.0796 31.5,92.5C 29.9826,92.4894 28.8159,91.8228 28,90.5C 26.7009,87.638 25.8676,84.638 25.5,81.5C 26.1781,76.1858 26.6781,70.8525 27,65.5C 27.1545,62.4754 28.6545,60.8087 31.5,60.5 Z"/></g>
<g><path style="opacity:1" fill="#33464e" d="M 272.5,63.5 C 273.863,67.2943 274.863,71.2943 275.5,75.5C 274.95,77.6568 274.283,79.6568 273.5,81.5C 272.279,80.9717 271.113,80.305 270,79.5C 268.887,80.305 267.721,80.9717 266.5,81.5C 266.569,75.8793 266.403,70.2127 266,64.5C 268.041,63.5769 270.208,63.2436 272.5,63.5 Z"/></g>
<g><path style="opacity:1" fill="#516a7c" d="M 40.5,64.5 C 41.209,65.404 42.209,65.7373 43.5,65.5C 44.1667,65.8333 44.8333,66.1667 45.5,66.5C 44.6586,68.3792 44.3253,70.3792 44.5,72.5C 44.5,73.1667 44.1667,73.5 43.5,73.5C 42.791,72.596 41.791,72.2627 40.5,72.5C 37.8877,71.6295 35.221,70.9628 32.5,70.5C 32.366,68.7085 32.6993,67.0418 33.5,65.5C 35.9496,65.702 38.283,65.3686 40.5,64.5 Z"/></g>
<g><path style="opacity:1" fill="#121f24" d="M 168.5,65.5 C 172.198,66.3414 175.864,67.3414 179.5,68.5C 180.386,69.325 180.719,70.325 180.5,71.5C 179.833,72.5 179.167,73.5 178.5,74.5C 172.491,74.3338 166.491,74.5005 160.5,75C 157.457,75.3318 155.457,76.8318 154.5,79.5C 153.833,79.8333 153.167,80.1667 152.5,80.5C 149.497,78.9816 146.497,78.6482 143.5,79.5C 141.95,78.2801 140.284,78.2801 138.5,79.5C 135.375,79.1353 132.375,78.302 129.5,77C 128.167,75.3333 128.167,73.6667 129.5,72C 142.54,69.876 155.54,67.7094 168.5,65.5 Z"/></g>
<g><path style="opacity:1" fill="#62838f" d="M 66.5,45.5 C 67.8333,45.5 69.1667,45.5 70.5,45.5C 70.3336,53.5069 70.5003,61.5069 71,69.5C 73.0408,70.4231 75.2075,70.7564 77.5,70.5C 77.5,72.1667 77.5,73.8333 77.5,75.5C 74.9407,75.1984 72.6074,75.5318 70.5,76.5C 68.9582,75.6993 67.2915,75.366 65.5,75.5C 62.9962,73.8742 60.3296,73.5409 57.5,74.5C 56.1667,74.5 54.8333,74.5 53.5,74.5C 50.8375,72.7319 47.8375,72.0653 44.5,72.5C 44.3253,70.3792 44.6586,68.3792 45.5,66.5C 47.941,67.7563 50.2743,67.7563 52.5,66.5C 54.2915,66.366 55.9582,66.6993 57.5,67.5C 59.2835,68.455 61.2835,69.1217 63.5,69.5C 64.6473,69.1822 65.4806,68.5156 66,67.5C 66.4997,60.1742 66.6663,52.8409 66.5,45.5 Z"/></g>
<g><path style="opacity:1" fill="#e0edec" d="M 32.5,70.5 C 35.221,70.9628 37.8877,71.6295 40.5,72.5C 40.6838,80.8749 40.1838,89.2082 39,97.5C 38.3292,98.2524 37.4959,98.5858 36.5,98.5C 34.0107,98.7593 32.344,97.7593 31.5,95.5C 31.5,94.5 31.5,93.5 31.5,92.5C 31.2027,85.0796 31.536,77.7463 32.5,70.5 Z"/></g>
<g><path style="opacity:1" fill="#758f9b" d="M 40.5,72.5 C 41.791,72.2627 42.791,72.596 43.5,73.5C 44.3833,78.1031 44.7166,82.7697 44.5,87.5C 44.5336,92.721 44.2003,98.0543 43.5,103.5C 41.3881,104.275 39.3881,104.275 37.5,103.5C 37.634,101.708 37.3007,100.042 36.5,98.5C 37.4959,98.5858 38.3292,98.2524 39,97.5C 40.1838,89.2082 40.6838,80.8749 40.5,72.5 Z"/></g>
<g><path style="opacity:1" fill="#ecf3f2" d="M 44.5,72.5 C 47.8375,72.0653 50.8375,72.7319 53.5,74.5C 53.5,79.5 53.5,84.5 53.5,89.5C 50.8127,89.6641 48.146,89.4974 45.5,89C 44.944,88.6174 44.6107,88.1174 44.5,87.5C 44.7166,82.7697 44.3833,78.1031 43.5,73.5C 44.1667,73.5 44.5,73.1667 44.5,72.5 Z"/></g>
<g><path style="opacity:1" fill="#ecf3f2" d="M 65.5,75.5 C 65.5,80.1667 65.5,84.8333 65.5,89.5C 62.8333,90.8333 60.1667,90.8333 57.5,89.5C 57.5,84.5 57.5,79.5 57.5,74.5C 60.3296,73.5409 62.9962,73.8742 65.5,75.5 Z"/></g>
<g><path style="opacity:1" fill="#1f2b38" d="M 178.5,74.5 C 178.377,77.374 177.377,79.874 175.5,82C 179.699,86.8992 183.532,92.0659 187,97.5C 187.658,101.572 187.325,105.572 186,109.5C 180.888,115.067 177.388,121.401 175.5,128.5C 175.675,130.621 175.341,132.621 174.5,134.5C 172.216,135.677 171.882,137.344 173.5,139.5C 172.29,139.932 171.29,140.599 170.5,141.5C 167.472,139.319 164.139,137.653 160.5,136.5C 159.751,133.473 159.084,130.473 158.5,127.5C 159.272,123.548 159.605,119.548 159.5,115.5C 161.308,114.093 163.308,112.926 165.5,112C 169.833,111.667 174.167,111.333 178.5,111C 179.86,109.062 179.527,107.396 177.5,106C 167.822,105.467 158.155,105.634 148.5,106.5C 148.662,104.473 148.495,102.473 148,100.5C 147.617,99.944 147.117,99.6107 146.5,99.5C 146.5,98.1667 146.5,96.8333 146.5,95.5C 144.297,90.4138 143.297,85.0805 143.5,79.5C 146.497,78.6482 149.497,78.9816 152.5,80.5C 151.532,83.4453 151.366,86.4453 152,89.5C 155.912,90.9269 157.412,89.4269 156.5,85C 156.333,83.5 156.167,82 156,80.5C 155.617,79.944 155.117,79.6107 154.5,79.5C 155.457,76.8318 157.457,75.3318 160.5,75C 166.491,74.5005 172.491,74.3338 178.5,74.5 Z"/></g>
<g><path style="opacity:1" fill="#7596a7" d="M 65.5,75.5 C 67.2915,75.366 68.9582,75.6993 70.5,76.5C 70.5,86.1667 70.5,95.8333 70.5,105.5C 68.8333,105.5 67.1667,105.5 65.5,105.5C 65.5,100.167 65.5,94.8333 65.5,89.5C 65.5,84.8333 65.5,80.1667 65.5,75.5 Z"/></g>
<g><path style="opacity:1" fill="#456b7f" d="M 85.5,76.5 C 85.199,98.5331 85.5323,120.533 86.5,142.5C 87.8333,142.5 89.1667,142.5 90.5,142.5C 89.7764,146.88 87.1097,148.88 82.5,148.5C 75.1667,148.5 67.8333,148.5 60.5,148.5C 60.3379,146.473 60.5045,144.473 61,142.5C 61.3826,141.944 61.8826,141.611 62.5,141.5C 63.1667,141.5 63.8333,141.5 64.5,141.5C 66.5,141.5 68.5,141.5 70.5,141.5C 72.8825,139.954 75.5491,139.287 78.5,139.5C 78.9507,129.855 78.6173,120.189 77.5,110.5C 77.5,109.167 77.5,107.833 77.5,106.5C 78.4732,96.9162 78.8065,87.2496 78.5,77.5C 80.7638,76.7814 83.0971,76.448 85.5,76.5 Z"/></g>
<g><path style="opacity:1" fill="#385d76" d="M 143.5,79.5 C 143.297,85.0805 144.297,90.4138 146.5,95.5C 142.833,94.1667 139.167,94.1667 135.5,95.5C 137.95,90.4697 138.95,85.1363 138.5,79.5C 140.284,78.2801 141.95,78.2801 143.5,79.5 Z"/></g>
<g><path style="opacity:1" fill="#324b64" d="M 154.5,79.5 C 155.117,79.6107 155.617,79.944 156,80.5C 156.167,82 156.333,83.5 156.5,85C 157.412,89.4269 155.912,90.9269 152,89.5C 151.366,86.4453 151.532,83.4453 152.5,80.5C 153.167,80.1667 153.833,79.8333 154.5,79.5 Z"/></g>
<g><path style="opacity:1" fill="#536672" d="M 273.5,81.5 C 274.265,86.9064 271.931,88.9064 266.5,87.5C 266.5,85.5 266.5,83.5 266.5,81.5C 267.721,80.9717 268.887,80.305 270,79.5C 271.113,80.305 272.279,80.9717 273.5,81.5 Z"/></g>
<g><path style="opacity:1" fill="#c7e7ec" d="M 44.5,87.5 C 44.6107,88.1174 44.944,88.6174 45.5,89C 48.146,89.4974 50.8127,89.6641 53.5,89.5C 53.5,94.5 53.5,99.5 53.5,104.5C 49.9367,106.037 46.6034,105.704 43.5,103.5C 44.2003,98.0543 44.5336,92.721 44.5,87.5 Z"/></g>
<g><path style="opacity:1" fill="#c4e4e8" d="M 77.5,75.5 C 77.8333,76.1667 78.1667,76.8333 78.5,77.5C 78.8065,87.2496 78.4732,96.9162 77.5,106.5C 75.0504,106.702 72.717,106.369 70.5,105.5C 70.5,95.8333 70.5,86.1667 70.5,76.5C 72.6074,75.5318 74.9407,75.1984 77.5,75.5 Z"/></g>
<g><path style="opacity:1" fill="#78959f" d="M 53.5,74.5 C 54.8333,74.5 56.1667,74.5 57.5,74.5C 57.5,79.5 57.5,84.5 57.5,89.5C 57.5,94.5 57.5,99.5 57.5,104.5C 56.1667,104.5 54.8333,104.5 53.5,104.5C 53.5,99.5 53.5,94.5 53.5,89.5C 53.5,84.5 53.5,79.5 53.5,74.5 Z"/></g>
<g><path style="opacity:1" fill="#c0e7ec" d="M 57.5,89.5 C 60.1667,90.8333 62.8333,90.8333 65.5,89.5C 65.5,94.8333 65.5,100.167 65.5,105.5C 62.7212,105.721 60.0545,105.388 57.5,104.5C 57.5,99.5 57.5,94.5 57.5,89.5 Z"/></g>
<g><path style="opacity:1" fill="#20313e" d="M 277.5,48.5 C 277.5,93.8333 277.5,139.167 277.5,184.5C 269.794,183.78 262.128,182.78 254.5,181.5C 255.301,179.958 255.634,178.292 255.5,176.5C 259.767,176.752 263.934,177.419 268,178.5C 270.683,173.665 269.183,171.665 263.5,172.5C 263.157,165.87 262.823,159.203 262.5,152.5C 263.562,150.901 263.562,149.234 262.5,147.5C 262.756,145.224 264.09,144.057 266.5,144C 271.772,141.013 271.772,138.18 266.5,135.5C 267.441,130.93 267.774,126.263 267.5,121.5C 269.527,121.662 271.527,121.495 273.5,121C 274.126,120.25 274.626,119.416 275,118.5C 275.667,113.833 275.667,109.167 275,104.5C 274.098,102.569 272.931,100.903 271.5,99.5C 269.592,97.8362 267.592,96.1695 265.5,94.5C 265.5,92.8333 265.5,91.1667 265.5,89.5C 265.833,88.8333 266.167,88.1667 266.5,87.5C 271.931,88.9064 274.265,86.9064 273.5,81.5C 274.283,79.6568 274.95,77.6568 275.5,75.5C 274.863,71.2943 273.863,67.2943 272.5,63.5C 272.563,58.7971 272.229,54.1304 271.5,49.5C 273.379,48.6586 275.379,48.3253 277.5,48.5 Z"/></g>
<g><path style="opacity:1" fill="#588294" d="M 86.5,55.5 C 88.2915,55.366 89.9582,55.6993 91.5,56.5C 91.5,65.5 91.5,74.5 91.5,83.5C 91.8205,103.243 91.4872,122.909 90.5,142.5C 89.1667,142.5 87.8333,142.5 86.5,142.5C 85.5323,120.533 85.199,98.5331 85.5,76.5C 85.2045,69.4122 85.5379,62.4122 86.5,55.5 Z"/></g>
<g><path style="opacity:1" fill="#5189a8" d="M 146.5,95.5 C 146.5,96.8333 146.5,98.1667 146.5,99.5C 143.977,100.801 141.31,101.801 138.5,102.5C 136.151,100.796 135.151,98.4629 135.5,95.5C 139.167,94.1667 142.833,94.1667 146.5,95.5 Z"/></g>
<g><path style="opacity:1" fill="#e0f3f2" d="M 265.5,94.5 C 267.592,96.1695 269.592,97.8362 271.5,99.5C 269.179,102.321 267.512,105.488 266.5,109C 267.7,112.131 267.7,115.298 266.5,118.5C 265.368,120.799 263.535,122.132 261,122.5C 258.729,121.211 256.562,120.545 254.5,120.5C 255.106,112.518 255.94,104.518 257,96.5C 259.481,94.6863 262.315,94.0196 265.5,94.5 Z"/></g>
<g><path style="opacity:1" fill="#324b5d" d="M 31.5,95.5 C 32.344,97.7593 34.0107,98.7593 36.5,98.5C 37.3007,100.042 37.634,101.708 37.5,103.5C 35.9925,105.181 34.9925,107.181 34.5,109.5C 33.391,109.557 32.391,109.89 31.5,110.5C 30.1667,109.167 28.8333,109.167 27.5,110.5C 26.6586,108.621 26.3253,106.621 26.5,104.5C 27.031,101.763 27.8644,99.0964 29,96.5C 29.6708,95.7476 30.5041,95.4142 31.5,95.5 Z"/></g>
<g><path style="opacity:1" fill="#485f6c" d="M 212.5,61.5 C 213.402,82.4709 213.402,103.471 212.5,124.5C 212.333,126.833 212.167,129.167 212,131.5C 211.28,133.056 210.113,134.056 208.5,134.5C 207.778,134.082 207.278,133.416 207,132.5C 206.476,125.335 205.976,118.168 205.5,111C 206.683,100.321 206.683,89.654 205.5,79C 206.13,74.1286 206.963,69.2952 208,64.5C 208.589,62.1367 210.089,61.1367 212.5,61.5 Z"/></g>
<g><path style="opacity:1" fill="#d9f3f2" d="M 221.5,125.5 C 222.117,125.389 222.617,125.056 223,124.5C 223.667,117.833 223.667,111.167 223,104.5C 222.292,103.619 221.458,102.953 220.5,102.5C 220.297,100.61 220.963,99.1096 222.5,98C 227.724,96.8596 232.891,96.6929 238,97.5C 238.667,111.833 238.667,126.167 238,140.5C 233.495,144.701 229.329,144.368 225.5,139.5C 224.396,137.611 223.063,135.945 221.5,134.5C 220.259,131.463 220.259,128.463 221.5,125.5 Z"/></g>
<g><path style="opacity:1" fill="#91b4c1" d="M 220.5,102.5 C 221.458,102.953 222.292,103.619 223,104.5C 223.667,111.167 223.667,117.833 223,124.5C 222.617,125.056 222.117,125.389 221.5,125.5C 220.754,121.148 220.087,116.648 219.5,112C 219.992,108.69 220.325,105.524 220.5,102.5 Z"/></g>
<g><path style="opacity:1" fill="#587e8c" d="M 37.5,103.5 C 39.3881,104.275 41.3881,104.275 43.5,103.5C 46.6034,105.704 49.9367,106.037 53.5,104.5C 54.8333,104.5 56.1667,104.5 57.5,104.5C 60.0545,105.388 62.7212,105.721 65.5,105.5C 67.1667,105.5 68.8333,105.5 70.5,105.5C 72.717,106.369 75.0504,106.702 77.5,106.5C 77.5,107.833 77.5,109.167 77.5,110.5C 74.9407,110.198 72.6074,110.532 70.5,111.5C 68.8333,111.5 67.1667,111.5 65.5,111.5C 62.8333,110.167 60.1667,110.167 57.5,111.5C 56.1667,111.5 54.8333,111.5 53.5,111.5C 50.7696,109.409 47.7696,109.076 44.5,110.5C 43.1667,110.5 41.8333,110.5 40.5,110.5C 38.6208,109.659 36.6208,109.325 34.5,109.5C 34.9925,107.181 35.9925,105.181 37.5,103.5 Z"/></g>
<g><path style="opacity:1" fill="#25384b" d="M 26.5,104.5 C 26.3253,106.621 26.6586,108.621 27.5,110.5C 25.0971,110.448 22.7638,110.781 20.5,111.5C 16.877,110.242 13.2103,110.242 9.5,111.5C 8.33947,116.115 7.83947,120.782 8,125.5C 9.70595,127.705 11.206,130.038 12.5,132.5C 14.1667,131.167 15.8333,131.167 17.5,132.5C 18.2208,134.686 18.8875,136.853 19.5,139C 20.9437,139.781 22.277,139.614 23.5,138.5C 24.5096,135.859 26.1763,133.859 28.5,132.5C 30.3977,134.25 31.731,136.416 32.5,139C 34.5,139.667 36.5,140.333 38.5,141C 37.2986,141.903 36.4652,143.069 36,144.5C 35.6393,147.525 35.1393,150.525 34.5,153.5C 34.6799,154.554 35.0133,155.554 35.5,156.5C 37.9909,158.412 40.6575,159.746 43.5,160.5C 42.193,162.223 42.193,164.057 43.5,166C 39.8197,166.348 36.4864,167.515 33.5,169.5C 30.7131,168.523 27.7131,168.19 24.5,168.5C 19.9407,167.803 15.774,166.137 12,163.5C 10.699,163.639 9.86562,164.305 9.5,165.5C 7.0521,166.473 4.38544,166.806 1.5,166.5C 2.26337,148.606 2.5967,130.606 2.5,112.5C 3.56764,111.566 4.90097,111.232 6.5,111.5C 6.5,109.167 6.5,106.833 6.5,104.5C 13.5473,104.918 20.214,104.918 26.5,104.5 Z"/></g>
<g><path style="opacity:1" fill="#121f2b" d="M 159.5,115.5 C 153.916,117.529 148.25,117.862 142.5,116.5C 142.335,113.482 142.502,110.482 143,107.5C 144.699,106.594 146.533,106.261 148.5,106.5C 158.155,105.634 167.822,105.467 177.5,106C 179.527,107.396 179.86,109.062 178.5,111C 174.167,111.333 169.833,111.667 165.5,112C 163.308,112.926 161.308,114.093 159.5,115.5 Z"/></g>
<g><path style="opacity:1" fill="#334553" d="M 271.5,99.5 C 272.931,100.903 274.098,102.569 275,104.5C 275.667,109.167 275.667,113.833 275,118.5C 274.626,119.416 274.126,120.25 273.5,121C 271.527,121.495 269.527,121.662 267.5,121.5C 267.737,120.209 267.404,119.209 266.5,118.5C 267.7,115.298 267.7,112.131 266.5,109C 267.512,105.488 269.179,102.321 271.5,99.5 Z"/></g>
<g><path style="opacity:1" fill="#bae1e6" d="M 34.5,109.5 C 36.6208,109.325 38.6208,109.659 40.5,110.5C 40.973,117.729 39.6396,124.396 36.5,130.5C 34.4959,129.327 32.9959,127.66 32,125.5C 31.5007,120.511 31.3341,115.511 31.5,110.5C 32.391,109.89 33.391,109.557 34.5,109.5 Z"/></g>
<g><path style="opacity:1" fill="#b4e1ec" d="M 53.5,111.5 C 53.6665,120.839 53.4998,130.173 53,139.5C 52.5,140.667 51.6667,141.5 50.5,142C 48.1902,142.497 45.8568,142.663 43.5,142.5C 43.5,141.833 43.5,141.167 43.5,140.5C 44.3655,130.527 44.6988,120.527 44.5,110.5C 47.7696,109.076 50.7696,109.409 53.5,111.5 Z"/></g>
<g><path style="opacity:1" fill="#7298a4" d="M 40.5,110.5 C 41.8333,110.5 43.1667,110.5 44.5,110.5C 44.6988,120.527 44.3655,130.527 43.5,140.5C 42.0222,140.762 40.6888,140.429 39.5,139.5C 38.1228,136.596 37.1228,133.596 36.5,130.5C 39.6396,124.396 40.973,117.729 40.5,110.5 Z"/></g>
<g><path style="opacity:1" fill="#c0e7e6" d="M 65.5,111.5 C 65.8074,121.582 65.4741,131.582 64.5,141.5C 63.8333,141.5 63.1667,141.5 62.5,141.5C 61.0813,140.549 59.4147,140.216 57.5,140.5C 57.5,130.833 57.5,121.167 57.5,111.5C 60.1667,110.167 62.8333,110.167 65.5,111.5 Z"/></g>
<g><path style="opacity:1" fill="#abd6e3" d="M 77.5,110.5 C 78.6173,120.189 78.9507,129.855 78.5,139.5C 75.5491,139.287 72.8825,139.954 70.5,141.5C 69.1891,131.47 69.1891,121.47 70.5,111.5C 72.6074,110.532 74.9407,110.198 77.5,110.5 Z"/></g>
<g><path style="opacity:1" fill="#76a2ae" d="M 65.5,111.5 C 67.1667,111.5 68.8333,111.5 70.5,111.5C 69.1891,121.47 69.1891,131.47 70.5,141.5C 68.5,141.5 66.5,141.5 64.5,141.5C 65.4741,131.582 65.8074,121.582 65.5,111.5 Z"/></g>
<g><path style="opacity:1" fill="#11191e" d="M -0.5,-0.5 C 0.5,-0.5 1.5,-0.5 2.5,-0.5C 1.74634,37.1511 1.74634,74.8177 2.5,112.5C 2.5967,130.606 2.26337,148.606 1.5,166.5C 1.52973,177.533 1.86306,188.533 2.5,199.5C 1.52693,201.948 1.1936,204.615 1.5,207.5C 1.72137,210.279 1.38803,212.946 0.5,215.5C 0.166667,215.5 -0.166667,215.5 -0.5,215.5C -0.5,143.5 -0.5,71.5 -0.5,-0.5 Z"/></g>
<g><path style="opacity:1" fill="#304e5f" d="M 91.5,83.5 C 93.1703,83.7512 94.6703,84.4178 96,85.5C 96.6505,92.7522 97.8172,99.9188 99.5,107C 99.0747,109.622 98.5747,112.122 98,114.5C 100.016,116.684 102.183,118.684 104.5,120.5C 106.9,119.982 108.9,118.815 110.5,117C 111.793,116.51 113.127,116.343 114.5,116.5C 113.187,121.987 109.853,125.82 104.5,128C 107.281,130.41 109.615,133.243 111.5,136.5C 110.726,140.779 110.226,145.113 110,149.5C 108.871,151.141 107.371,152.141 105.5,152.5C 105.389,151.883 105.056,151.383 104.5,151C 100.833,150.333 97.1667,150.333 93.5,151C 92.9781,151.561 92.6448,152.228 92.5,153C 94.0783,155.968 94.745,159.135 94.5,162.5C 93.1825,162.179 91.8492,161.846 90.5,161.5C 81.797,162.789 73.1303,164.122 64.5,165.5C 64.3253,163.379 64.6586,161.379 65.5,159.5C 70.1785,159.666 74.8452,159.499 79.5,159C 80.4372,155.48 81.4372,151.98 82.5,148.5C 87.1097,148.88 89.7764,146.88 90.5,142.5C 91.4872,122.909 91.8205,103.243 91.5,83.5 Z"/></g>
<g><path style="opacity:1" fill="#2b4454" d="M 20.5,111.5 C 18.4784,115.538 17.9784,119.871 19,124.5C 21.8407,125.42 24.674,126.42 27.5,127.5C 28.3094,129.071 28.6427,130.738 28.5,132.5C 26.1763,133.859 24.5096,135.859 23.5,138.5C 22.277,139.614 20.9437,139.781 19.5,139C 18.8875,136.853 18.2208,134.686 17.5,132.5C 15.8333,131.167 14.1667,131.167 12.5,132.5C 11.206,130.038 9.70595,127.705 8,125.5C 7.83947,120.782 8.33947,116.115 9.5,111.5C 13.2103,110.242 16.877,110.242 20.5,111.5 Z"/></g>
<g><path style="opacity:1" fill="#c0e1e6" d="M 266.5,118.5 C 267.404,119.209 267.737,120.209 267.5,121.5C 267.774,126.263 267.441,130.93 266.5,135.5C 264.302,137.098 261.969,138.431 259.5,139.5C 258.772,136.921 258.272,134.254 258,131.5C 257.184,130.177 256.017,129.511 254.5,129.5C 254.5,126.5 254.5,123.5 254.5,120.5C 256.562,120.545 258.729,121.211 261,122.5C 263.535,122.132 265.368,120.799 266.5,118.5 Z"/></g>
<g><path style="opacity:1" fill="#3c4f5b" d="M 180.5,143.5 C 180.726,140.751 180.393,138.084 179.5,135.5C 177.955,134.548 176.288,134.215 174.5,134.5C 175.341,132.621 175.675,130.621 175.5,128.5C 178.054,129.388 180.721,129.721 183.5,129.5C 183.187,126.753 183.52,124.086 184.5,121.5C 185.799,122.09 186.632,123.09 187,124.5C 187.65,129.191 187.483,133.857 186.5,138.5C 185.748,141.557 183.748,143.224 180.5,143.5 Z"/></g>
<g><path style="opacity:1" fill="#95bbc7" d="M 254.5,129.5 C 256.017,129.511 257.184,130.177 258,131.5C 258.272,134.254 258.772,136.921 259.5,139.5C 258.972,143.013 257.138,144.013 254,142.5C 253.643,138.49 253.81,134.49 254.5,130.5C 254.5,130.167 254.5,129.833 254.5,129.5 Z"/></g>
<g><path style="opacity:1" fill="#5d7b8e" d="M 174.5,134.5 C 176.288,134.215 177.955,134.548 179.5,135.5C 180.393,138.084 180.726,140.751 180.5,143.5C 180.338,145.527 180.505,147.527 181,149.5C 183.333,151.833 185.667,154.167 188,156.5C 188.49,157.793 188.657,159.127 188.5,160.5C 195.508,160.334 202.508,160.5 209.5,161C 210.901,161.41 212.234,161.91 213.5,162.5C 216.054,163.388 218.721,163.721 221.5,163.5C 221.5,164.833 221.5,166.167 221.5,167.5C 220.833,167.5 220.5,167.833 220.5,168.5C 218.565,167.85 216.565,167.517 214.5,167.5C 208.525,167.376 202.525,167.043 196.5,166.5C 193.025,165.199 189.692,165.533 186.5,167.5C 185.032,164.722 184.199,161.722 184,158.5C 177.112,156.16 173.278,158.494 172.5,165.5C 171.833,165.5 171.167,165.5 170.5,165.5C 170.062,165.565 169.728,165.399 169.5,165C 169.945,161.162 171.279,157.662 173.5,154.5C 173.145,153.478 172.478,152.811 171.5,152.5C 173.28,148.404 173.946,144.071 173.5,139.5C 171.882,137.344 172.216,135.677 174.5,134.5 Z"/></g>
<g><path style="opacity:1" fill="#7293a2" d="M 254.5,130.5 C 253.81,134.49 253.643,138.49 254,142.5C 257.138,144.013 258.972,143.013 259.5,139.5C 261.969,138.431 264.302,137.098 266.5,135.5C 271.772,138.18 271.772,141.013 266.5,144C 264.09,144.057 262.756,145.224 262.5,147.5C 257.215,148.043 251.549,148.043 245.5,147.5C 246.031,145.456 247.198,143.789 249,142.5C 249.175,138.789 249.675,135.122 250.5,131.5C 251.736,130.754 253.07,130.421 254.5,130.5 Z"/></g>
<g><path style="opacity:1" fill="#67919d" d="M 53.5,111.5 C 54.8333,111.5 56.1667,111.5 57.5,111.5C 57.5,121.167 57.5,130.833 57.5,140.5C 59.4147,140.216 61.0813,140.549 62.5,141.5C 61.8826,141.611 61.3826,141.944 61,142.5C 60.5045,144.473 60.3379,146.473 60.5,148.5C 55.4556,148.582 50.4556,148.749 45.5,149C 44.3279,148.581 43.3279,147.915 42.5,147C 43.1929,145.316 43.5263,143.816 43.5,142.5C 45.8568,142.663 48.1902,142.497 50.5,142C 51.6667,141.5 52.5,140.667 53,139.5C 53.4998,130.173 53.6665,120.839 53.5,111.5 Z"/></g>
<g><path style="opacity:1" fill="#3c6480" d="M 158.5,127.5 C 159.084,130.473 159.751,133.473 160.5,136.5C 164.139,137.653 167.472,139.319 170.5,141.5C 170.64,143.124 169.973,144.29 168.5,145C 164.445,145.232 160.445,145.732 156.5,146.5C 155.817,146.137 155.15,145.804 154.5,145.5C 155.938,142.917 155.604,140.583 153.5,138.5C 154.786,135.665 154.786,132.832 153.5,130C 154.617,128.108 156.284,127.275 158.5,127.5 Z"/></g>
<g><path style="opacity:1" fill="#a1cee0" d="M 153.5,138.5 C 155.604,140.583 155.938,142.917 154.5,145.5C 151.162,145.935 148.162,145.268 145.5,143.5C 146.797,139.842 149.463,138.176 153.5,138.5 Z"/></g>
<g><path style="opacity:1" fill="#2d475f" d="M 173.5,139.5 C 173.946,144.071 173.28,148.404 171.5,152.5C 165.516,154.433 163.516,158.433 165.5,164.5C 163.276,167.624 160.276,169.791 156.5,171C 155.177,171.816 154.511,172.983 154.5,174.5C 151.603,173.227 148.937,173.561 146.5,175.5C 145.5,174.833 144.5,174.167 143.5,173.5C 141.35,171.078 141.017,168.411 142.5,165.5C 144.497,166.809 146.497,168.142 148.5,169.5C 150.055,169.278 151.389,168.611 152.5,167.5C 153.765,161.991 153.765,156.491 152.5,151C 153.077,149.1 153.744,147.267 154.5,145.5C 155.15,145.804 155.817,146.137 156.5,146.5C 160.445,145.732 164.445,145.232 168.5,145C 169.973,144.29 170.64,143.124 170.5,141.5C 171.29,140.599 172.29,139.932 173.5,139.5 Z"/></g>
<g><path style="opacity:1" fill="#4b708f" d="M 145.5,143.5 C 148.162,145.268 151.162,145.935 154.5,145.5C 153.744,147.267 153.077,149.1 152.5,151C 153.765,156.491 153.765,161.991 152.5,167.5C 151.389,168.611 150.055,169.278 148.5,169.5C 146.497,168.142 144.497,166.809 142.5,165.5C 142.567,164.041 142.234,162.708 141.5,161.5C 142.458,161.047 143.292,160.381 144,159.5C 144.781,154.446 144.614,149.446 143.5,144.5C 143.957,143.702 144.624,143.369 145.5,143.5 Z"/></g>
<g><path style="opacity:1" fill="#95c1cd" d="M 262.5,147.5 C 263.562,149.234 263.562,150.901 262.5,152.5C 260.551,153.184 258.885,154.351 257.5,156C 254.518,156.498 251.518,156.665 248.5,156.5C 246.856,156.714 245.356,156.38 244,155.5C 243.115,152.462 243.615,149.795 245.5,147.5C 251.549,148.043 257.215,148.043 262.5,147.5 Z"/></g>
<g><path style="opacity:1" fill="#3d5c72" d="M 31.5,110.5 C 31.3341,115.511 31.5007,120.511 32,125.5C 32.9959,127.66 34.4959,129.327 36.5,130.5C 37.1228,133.596 38.1228,136.596 39.5,139.5C 40.6888,140.429 42.0222,140.762 43.5,140.5C 43.5,141.167 43.5,141.833 43.5,142.5C 43.5263,143.816 43.1929,145.316 42.5,147C 43.3279,147.915 44.3279,148.581 45.5,149C 50.4556,148.749 55.4556,148.582 60.5,148.5C 67.8333,148.5 75.1667,148.5 82.5,148.5C 81.4372,151.98 80.4372,155.48 79.5,159C 74.8452,159.499 70.1785,159.666 65.5,159.5C 65.5858,158.504 65.2524,157.671 64.5,157C 60.1794,156.501 55.8461,156.334 51.5,156.5C 51.5,157.833 51.5,159.167 51.5,160.5C 48.8333,160.5 46.1667,160.5 43.5,160.5C 40.6575,159.746 37.9909,158.412 35.5,156.5C 35.0133,155.554 34.6799,154.554 34.5,153.5C 35.1393,150.525 35.6393,147.525 36,144.5C 36.4652,143.069 37.2986,141.903 38.5,141C 36.5,140.333 34.5,139.667 32.5,139C 31.731,136.416 30.3977,134.25 28.5,132.5C 28.6427,130.738 28.3094,129.071 27.5,127.5C 24.674,126.42 21.8407,125.42 19,124.5C 17.9784,119.871 18.4784,115.538 20.5,111.5C 22.7638,110.781 25.0971,110.448 27.5,110.5C 28.8333,109.167 30.1667,109.167 31.5,110.5 Z"/></g>
<g><path style="opacity:1" fill="#82a8b4" d="M 105.5,152.5 C 105.5,157.833 105.5,163.167 105.5,168.5C 105.5,172.833 105.5,177.167 105.5,181.5C 104.29,181.932 103.29,182.599 102.5,183.5C 101.67,175.01 101.17,166.343 101,157.5C 100.586,157.043 100.086,156.709 99.5,156.5C 98.8112,165.351 97.8112,174.017 96.5,182.5C 95.209,182.737 94.209,182.404 93.5,181.5C 94.3721,175.211 94.7054,168.878 94.5,162.5C 94.745,159.135 94.0783,155.968 92.5,153C 92.6448,152.228 92.9781,151.561 93.5,151C 97.1667,150.333 100.833,150.333 104.5,151C 105.056,151.383 105.389,151.883 105.5,152.5 Z"/></g>
<g><path style="opacity:1" fill="#8eafc0" d="M 171.5,152.5 C 172.478,152.811 173.145,153.478 173.5,154.5C 171.279,157.662 169.945,161.162 169.5,165C 169.728,165.399 170.062,165.565 170.5,165.5C 170.44,166.043 170.107,166.376 169.5,166.5C 168.14,165.82 166.807,165.153 165.5,164.5C 163.516,158.433 165.516,154.433 171.5,152.5 Z"/></g>
<g><path style="opacity:1" fill="#30414f" d="M 262.5,152.5 C 262.823,159.203 263.157,165.87 263.5,172.5C 261.097,172.552 258.764,172.219 256.5,171.5C 254.712,170.378 252.712,170.211 250.5,171C 248.381,171.098 246.714,171.931 245.5,173.5C 248.706,174.808 252.04,175.475 255.5,175.5C 255.5,175.833 255.5,176.167 255.5,176.5C 255.634,178.292 255.301,179.958 254.5,181.5C 250.84,180.807 247.173,179.974 243.5,179C 242.128,175.595 241.128,172.095 240.5,168.5C 245.64,167.512 250.974,167.179 256.5,167.5C 256.762,166.022 256.429,164.689 255.5,163.5C 253.253,162.626 250.92,162.292 248.5,162.5C 247.359,160.549 247.359,158.549 248.5,156.5C 251.518,156.665 254.518,156.498 257.5,156C 258.885,154.351 260.551,153.184 262.5,152.5 Z"/></g>
<g><path style="opacity:1" fill="#8eb5c0" d="M 65.5,159.5 C 64.6586,161.379 64.3253,163.379 64.5,165.5C 65.2953,172.087 65.7953,178.754 66,185.5C 66.7172,186.044 67.2172,186.711 67.5,187.5C 65.8869,188.692 64.2202,189.692 62.5,190.5C 62.1667,190.5 61.8333,190.5 61.5,190.5C 61.8128,186.958 61.4794,183.625 60.5,180.5C 60.9,174.233 60.9,167.9 60.5,161.5C 59.1667,161.5 57.8333,161.5 56.5,161.5C 56.5,166.167 56.5,170.833 56.5,175.5C 55.1667,175.5 53.8333,175.5 52.5,175.5C 52.7787,170.405 52.4454,165.405 51.5,160.5C 51.5,159.167 51.5,157.833 51.5,156.5C 55.8461,156.334 60.1794,156.501 64.5,157C 65.2524,157.671 65.5858,158.504 65.5,159.5 Z"/></g>
<g><path style="opacity:1" fill="#6697b0" d="M 102.5,183.5 C 103.227,185.954 104.227,188.287 105.5,190.5C 104.735,190.923 103.902,191.257 103,191.5C 100.78,189.807 98.2799,188.807 95.5,188.5C 95.3253,186.379 95.6586,184.379 96.5,182.5C 97.8112,174.017 98.8112,165.351 99.5,156.5C 100.086,156.709 100.586,157.043 101,157.5C 101.17,166.343 101.67,175.01 102.5,183.5 Z"/></g>
<g><path style="opacity:1" fill="#324b5d" d="M 186.5,167.5 C 182.5,167.5 178.5,167.5 174.5,167.5C 173.833,166.833 173.167,166.167 172.5,165.5C 173.278,158.494 177.112,156.16 184,158.5C 184.199,161.722 185.032,164.722 186.5,167.5 Z"/></g>
<g><path style="opacity:1" fill="#789aad" d="M 248.5,162.5 C 250.92,162.292 253.253,162.626 255.5,163.5C 256.429,164.689 256.762,166.022 256.5,167.5C 250.974,167.179 245.64,167.512 240.5,168.5C 238.784,168.371 237.117,168.038 235.5,167.5C 230.833,167.5 226.167,167.5 221.5,167.5C 221.5,166.167 221.5,164.833 221.5,163.5C 224.91,161.633 228.576,160.633 232.5,160.5C 237.702,161.967 243.035,162.634 248.5,162.5 Z"/></g>
<g><path style="opacity:1" fill="#253e51" d="M 94.5,162.5 C 94.7054,168.878 94.3721,175.211 93.5,181.5C 89.7899,185.208 86.4566,189.208 83.5,193.5C 80.4824,193.704 77.4824,194.037 74.5,194.5C 71.9387,192.36 69.6054,190.027 67.5,187.5C 67.2172,186.711 66.7172,186.044 66,185.5C 65.7953,178.754 65.2953,172.087 64.5,165.5C 73.1303,164.122 81.797,162.789 90.5,161.5C 91.8492,161.846 93.1825,162.179 94.5,162.5 Z"/></g>
<g><path style="opacity:1" fill="#7c96a7" d="M 141.5,161.5 C 142.234,162.708 142.567,164.041 142.5,165.5C 141.017,168.411 141.35,171.078 143.5,173.5C 141.958,174.301 140.292,174.634 138.5,174.5C 138.5,173.833 138.167,173.5 137.5,173.5C 137.495,169.466 137.162,165.466 136.5,161.5C 138.167,161.5 139.833,161.5 141.5,161.5 Z"/></g>
<g><path style="opacity:1" fill="#25323e" d="M 165.5,164.5 C 166.807,165.153 168.14,165.82 169.5,166.5C 170.107,166.376 170.44,166.043 170.5,165.5C 171.167,165.5 171.833,165.5 172.5,165.5C 173.167,166.167 173.833,166.833 174.5,167.5C 173.371,169.628 173.204,171.961 174,174.5C 175.802,175.789 176.969,177.456 177.5,179.5C 171.455,179.428 165.455,179.928 159.5,181C 158.663,182.011 158.33,183.178 158.5,184.5C 157.167,185.167 155.833,185.833 154.5,186.5C 154.676,182.289 154.676,178.289 154.5,174.5C 154.511,172.983 155.177,171.816 156.5,171C 160.276,169.791 163.276,167.624 165.5,164.5 Z"/></g>
<g><path style="opacity:1" fill="#1f2b38" d="M 9.5,165.5 C 11.5,166.833 13.5,168.167 15.5,169.5C 12.0407,176.439 11.7074,183.439 14.5,190.5C 13.9573,193.218 13.2906,195.885 12.5,198.5C 9.06131,198.253 5.72797,198.586 2.5,199.5C 1.86306,188.533 1.52973,177.533 1.5,166.5C 4.38544,166.806 7.0521,166.473 9.5,165.5 Z"/></g>
<g><path style="opacity:1" fill="#475a67" d="M 24.5,168.5 C 24.0679,169.71 23.4013,170.71 22.5,171.5C 20.0347,171.233 17.7014,170.566 15.5,169.5C 13.5,168.167 11.5,166.833 9.5,165.5C 9.86562,164.305 10.699,163.639 12,163.5C 15.774,166.137 19.9407,167.803 24.5,168.5 Z"/></g>
<g><path style="opacity:1" fill="#263f52" d="M 43.5,160.5 C 46.1667,160.5 48.8333,160.5 51.5,160.5C 52.4454,165.405 52.7787,170.405 52.5,175.5C 53.5575,181.761 51.8909,187.094 47.5,191.5C 45.5,192.833 43.8333,194.5 42.5,196.5C 38.5282,192.193 34.5282,187.859 30.5,183.5C 30.1774,179.774 30.5108,176.107 31.5,172.5C 32.9185,171.995 33.5852,170.995 33.5,169.5C 36.4864,167.515 39.8197,166.348 43.5,166C 42.193,164.057 42.193,162.223 43.5,160.5 Z"/></g>
<g><path style="opacity:1" fill="#192532" d="M 196.5,166.5 C 197.028,167.721 197.695,168.887 198.5,170C 203.527,171.744 208.527,171.744 213.5,170C 214.252,169.329 214.586,168.496 214.5,167.5C 216.565,167.517 218.565,167.85 220.5,168.5C 223.352,170.512 226.519,172.179 230,173.5C 232.707,172.293 234.541,170.293 235.5,167.5C 237.117,168.038 238.784,168.371 240.5,168.5C 241.128,172.095 242.128,175.595 243.5,179C 247.173,179.974 250.84,180.807 254.5,181.5C 262.128,182.78 269.794,183.78 277.5,184.5C 277.5,199.5 277.5,214.5 277.5,229.5C 272.755,227.134 267.755,225.301 262.5,224C 256.085,223.21 249.752,223.376 243.5,224.5C 238.918,226.404 236.252,229.737 235.5,234.5C 235.483,236.565 235.15,238.565 234.5,240.5C 233.903,240.735 233.57,241.235 233.5,242C 233.978,243.303 234.645,244.469 235.5,245.5C 234.699,247.042 234.366,248.708 234.5,250.5C 233.5,250.5 232.5,250.5 231.5,250.5C 231.167,248.167 229.833,246.833 227.5,246.5C 223.579,244.971 219.579,243.637 215.5,242.5C 215.763,233.154 217.097,223.987 219.5,215C 219.333,213.833 219.167,212.667 219,211.5C 217.351,210.115 216.184,208.449 215.5,206.5C 217.801,205.94 220.134,205.44 222.5,205C 223.833,204 223.833,203 222.5,202C 216.613,200.194 210.613,199.028 204.5,198.5C 203.319,196.933 201.653,196.099 199.5,196C 196.518,195.502 193.518,195.335 190.5,195.5C 188.281,191.527 187.114,187.193 187,182.5C 186.329,181.748 185.496,181.414 184.5,181.5C 182.521,179.832 180.188,179.166 177.5,179.5C 176.969,177.456 175.802,175.789 174,174.5C 173.204,171.961 173.371,169.628 174.5,167.5C 178.5,167.5 182.5,167.5 186.5,167.5C 189.692,165.533 193.025,165.199 196.5,166.5 Z"/></g>
<g><path style="opacity:1" fill="#3d576f" d="M 196.5,166.5 C 202.525,167.043 208.525,167.376 214.5,167.5C 214.586,168.496 214.252,169.329 213.5,170C 208.527,171.744 203.527,171.744 198.5,170C 197.695,168.887 197.028,167.721 196.5,166.5 Z"/></g>
<g><path style="opacity:1" fill="#3e5770" d="M 221.5,167.5 C 226.167,167.5 230.833,167.5 235.5,167.5C 234.541,170.293 232.707,172.293 230,173.5C 226.519,172.179 223.352,170.512 220.5,168.5C 220.5,167.833 220.833,167.5 221.5,167.5 Z"/></g>
<g><path style="opacity:1" fill="#253843" d="M 105.5,168.5 C 107.527,168.338 109.527,168.505 111.5,169C 115.812,172.078 120.479,173.245 125.5,172.5C 123.505,174.304 121.838,176.304 120.5,178.5C 120.264,181.609 120.597,184.609 121.5,187.5C 120.522,187.811 119.855,188.478 119.5,189.5C 120.544,191.768 120.711,194.101 120,196.5C 119.29,197.973 118.124,198.64 116.5,198.5C 113.227,192.564 109.561,186.897 105.5,181.5C 105.5,177.167 105.5,172.833 105.5,168.5 Z"/></g>
<g><path style="opacity:1" fill="#25384b" d="M 15.5,169.5 C 17.7014,170.566 20.0347,171.233 22.5,171.5C 24.0931,176.703 23.7598,181.703 21.5,186.5C 18.7052,187.063 16.3718,188.396 14.5,190.5C 11.7074,183.439 12.0407,176.439 15.5,169.5 Z"/></g>
<g><path style="opacity:1" fill="#7596a7" d="M 256.5,171.5 C 256.567,172.959 256.234,174.292 255.5,175.5C 252.04,175.475 248.706,174.808 245.5,173.5C 246.714,171.931 248.381,171.098 250.5,171C 252.712,170.211 254.712,170.378 256.5,171.5 Z"/></g>
<g><path style="opacity:1" fill="#9bc8d9" d="M 127.5,171.5 C 128.568,172.434 129.901,172.768 131.5,172.5C 132.508,176.817 130.841,179.15 126.5,179.5C 124.435,179.483 122.435,179.15 120.5,178.5C 121.838,176.304 123.505,174.304 125.5,172.5C 126.167,172.167 126.833,171.833 127.5,171.5 Z"/></g>
<g><path style="opacity:1" fill="#5b7480" d="M 256.5,171.5 C 258.764,172.219 261.097,172.552 263.5,172.5C 269.183,171.665 270.683,173.665 268,178.5C 263.934,177.419 259.767,176.752 255.5,176.5C 255.5,176.167 255.5,175.833 255.5,175.5C 256.234,174.292 256.567,172.959 256.5,171.5 Z"/></g>
<g><path style="opacity:1" fill="#83b5c7" d="M 143.5,173.5 C 144.5,174.167 145.5,174.833 146.5,175.5C 146.693,179.566 146.36,183.566 145.5,187.5C 144.833,187.833 144.167,188.167 143.5,188.5C 142.609,189.11 141.609,189.443 140.5,189.5C 139.768,184.518 139.102,179.518 138.5,174.5C 140.292,174.634 141.958,174.301 143.5,173.5 Z"/></g>
<g><path style="opacity:1" fill="#577d95" d="M 154.5,174.5 C 154.676,178.289 154.676,182.289 154.5,186.5C 154.737,187.791 154.404,188.791 153.5,189.5C 150.272,191.026 147.606,190.36 145.5,187.5C 146.36,183.566 146.693,179.566 146.5,175.5C 148.937,173.561 151.603,173.227 154.5,174.5 Z"/></g>
<g><path style="opacity:1" fill="#7598ac" d="M 60.5,180.5 C 59.1667,180.5 57.8333,180.5 56.5,180.5C 56.1056,184.347 55.1056,188.014 53.5,191.5C 51.6112,192.742 49.6112,192.742 47.5,191.5C 51.8909,187.094 53.5575,181.761 52.5,175.5C 53.8333,175.5 55.1667,175.5 56.5,175.5C 56.5,170.833 56.5,166.167 56.5,161.5C 57.8333,161.5 59.1667,161.5 60.5,161.5C 60.9,167.9 60.9,174.233 60.5,180.5 Z"/></g>
<g><path style="opacity:1" fill="#63859a" d="M 24.5,168.5 C 27.7131,168.19 30.7131,168.523 33.5,169.5C 33.5852,170.995 32.9185,171.995 31.5,172.5C 30.5108,176.107 30.1774,179.774 30.5,183.5C 29.1301,183.856 28.1301,184.69 27.5,186C 28.1476,187.44 28.4809,188.94 28.5,190.5C 25.6703,190.694 23.0037,191.361 20.5,192.5C 20.3253,190.379 20.6586,188.379 21.5,186.5C 23.7598,181.703 24.0931,176.703 22.5,171.5C 23.4013,170.71 24.0679,169.71 24.5,168.5 Z"/></g>
<g><path style="opacity:1" fill="#4f738b" d="M 137.5,173.5 C 138.167,173.5 138.5,173.833 138.5,174.5C 139.102,179.518 139.768,184.518 140.5,189.5C 135.527,188.836 130.527,188.503 125.5,188.5C 126.159,185.545 126.492,182.545 126.5,179.5C 130.841,179.15 132.508,176.817 131.5,172.5C 129.901,172.768 128.568,172.434 127.5,171.5C 127.334,166.489 127.501,161.489 128,156.5C 129.396,154.473 131.062,154.14 133,155.5C 133.553,158.359 133.386,161.192 132.5,164C 133,166.5 133.5,169 134,171.5C 135.113,172.305 136.279,172.972 137.5,173.5 Z"/></g>
<g><path style="opacity:1" fill="#76a2b4" d="M 120.5,178.5 C 122.435,179.15 124.435,179.483 126.5,179.5C 126.492,182.545 126.159,185.545 125.5,188.5C 123.901,188.768 122.568,188.434 121.5,187.5C 120.597,184.609 120.264,181.609 120.5,178.5 Z"/></g>
<g><path style="opacity:1" fill="#757d82" d="M 177.5,179.5 C 180.188,179.166 182.521,179.832 184.5,181.5C 184.229,183.43 183.229,184.764 181.5,185.5C 179.833,185.5 178.167,185.5 176.5,185.5C 172.5,184.167 168.5,184.167 164.5,185.5C 162.565,184.85 160.565,184.517 158.5,184.5C 158.33,183.178 158.663,182.011 159.5,181C 165.455,179.928 171.455,179.428 177.5,179.5 Z"/></g>
<g><path style="opacity:1" fill="#57839b" d="M 60.5,180.5 C 61.4794,183.625 61.8128,186.958 61.5,190.5C 59.2009,192.769 56.5342,193.102 53.5,191.5C 55.1056,188.014 56.1056,184.347 56.5,180.5C 57.8333,180.5 59.1667,180.5 60.5,180.5 Z"/></g>
<g><path style="opacity:1" fill="#36363c" d="M 184.5,181.5 C 185.496,181.414 186.329,181.748 187,182.5C 187.114,187.193 188.281,191.527 190.5,195.5C 190.5,196.833 190.5,198.167 190.5,199.5C 194.419,198.746 195.753,200.08 194.5,203.5C 190.925,204.881 187.258,205.881 183.5,206.5C 183.666,200.158 183.5,193.825 183,187.5C 182.283,186.956 181.783,186.289 181.5,185.5C 183.229,184.764 184.229,183.43 184.5,181.5 Z"/></g>
<g><path style="opacity:1" fill="#2a2b31" d="M 158.5,184.5 C 160.565,184.517 162.565,184.85 164.5,185.5C 165.945,187.571 166.945,189.904 167.5,192.5C 164.701,195.637 161.368,197.971 157.5,199.5C 157.854,196.506 156.854,195.506 154.5,196.5C 153.781,194.236 153.448,191.903 153.5,189.5C 154.404,188.791 154.737,187.791 154.5,186.5C 155.833,185.833 157.167,185.167 158.5,184.5 Z"/></g>
<g><path style="opacity:1" fill="#434b50" d="M 164.5,185.5 C 168.5,184.167 172.5,184.167 176.5,185.5C 176.375,191.406 173.375,193.739 167.5,192.5C 166.945,189.904 165.945,187.571 164.5,185.5 Z"/></g>
<g><path style="opacity:1" fill="#241f1e" d="M 176.5,185.5 C 178.167,185.5 179.833,185.5 181.5,185.5C 181.783,186.289 182.283,186.956 183,187.5C 183.5,193.825 183.666,200.158 183.5,206.5C 180.167,207.167 176.833,207.833 173.5,208.5C 169.382,208.47 165.382,207.803 161.5,206.5C 158.905,204.986 157.571,202.652 157.5,199.5C 161.368,197.971 164.701,195.637 167.5,192.5C 173.375,193.739 176.375,191.406 176.5,185.5 Z"/></g>
<g><path style="opacity:1" fill="#395365" d="M 21.5,186.5 C 20.6586,188.379 20.3253,190.379 20.5,192.5C 19.7611,192.369 19.0944,192.536 18.5,193C 19.4061,194.699 19.7394,196.533 19.5,198.5C 18.7249,200.612 18.7249,202.612 19.5,204.5C 18.1667,204.5 16.8333,204.5 15.5,204.5C 15.6602,202.801 15.4935,201.134 15,199.5C 14.3292,198.748 13.4959,198.414 12.5,198.5C 13.2906,195.885 13.9573,193.218 14.5,190.5C 16.3718,188.396 18.7052,187.063 21.5,186.5 Z"/></g>
<g><path style="opacity:1" fill="#373e3d" d="M 121.5,187.5 C 122.568,188.434 123.901,188.768 125.5,188.5C 124.256,193.456 123.256,198.456 122.5,203.5C 120.579,202.637 118.579,201.971 116.5,201.5C 116.5,200.5 116.5,199.5 116.5,198.5C 118.124,198.64 119.29,197.973 120,196.5C 120.711,194.101 120.544,191.768 119.5,189.5C 119.855,188.478 120.522,187.811 121.5,187.5 Z"/></g>
<g><path style="opacity:1" fill="#445d69" d="M 145.5,187.5 C 147.606,190.36 150.272,191.026 153.5,189.5C 153.448,191.903 153.781,194.236 154.5,196.5C 151.224,196.144 148.557,197.144 146.5,199.5C 144.642,197.226 144.309,194.726 145.5,192C 144.695,190.887 144.028,189.721 143.5,188.5C 144.167,188.167 144.833,187.833 145.5,187.5 Z"/></g>
<g><path style="opacity:1" fill="#2a2524" d="M 125.5,188.5 C 130.527,188.503 135.527,188.836 140.5,189.5C 141.609,189.443 142.609,189.11 143.5,188.5C 144.028,189.721 144.695,190.887 145.5,192C 144.309,194.726 144.642,197.226 146.5,199.5C 146.5,202.5 146.5,205.5 146.5,208.5C 145.977,210.708 144.644,212.208 142.5,213C 138.644,213.177 134.977,213.677 131.5,214.5C 129.862,213.841 128.195,213.174 126.5,212.5C 125.893,212.624 125.56,212.957 125.5,213.5C 124.188,212.855 123.188,211.855 122.5,210.5C 123.42,208.214 123.42,205.881 122.5,203.5C 123.256,198.456 124.256,193.456 125.5,188.5 Z"/></g>
<g><path style="opacity:1" fill="#4b6a83" d="M 28.5,190.5 C 31.6078,191.383 33.9411,193.216 35.5,196C 32.5113,196.33 29.678,197.164 27,198.5C 24.4528,197.215 21.9528,197.215 19.5,198.5C 19.7394,196.533 19.4061,194.699 18.5,193C 19.0944,192.536 19.7611,192.369 20.5,192.5C 23.0037,191.361 25.6703,190.694 28.5,190.5 Z"/></g>
<g><path style="opacity:1" fill="#89c8d9" d="M 61.5,190.5 C 61.8333,190.5 62.1667,190.5 62.5,190.5C 66.6177,196.853 68.951,203.853 69.5,211.5C 68.3684,212.354 67.035,212.354 65.5,211.5C 61.9009,210.656 58.2343,210.323 54.5,210.5C 53.1667,211.833 51.8333,211.833 50.5,210.5C 47.6146,210.194 44.9479,210.527 42.5,211.5C 40.847,211.34 39.5137,210.674 38.5,209.5C 38.5,208.833 38.5,208.167 38.5,207.5C 40.9897,204.374 42.323,200.708 42.5,196.5C 43.8333,194.5 45.5,192.833 47.5,191.5C 49.6112,192.742 51.6112,192.742 53.5,191.5C 56.5342,193.102 59.2009,192.769 61.5,190.5 Z"/></g>
<g><path style="opacity:1" fill="#85bbd1" d="M 93.5,181.5 C 94.209,182.404 95.209,182.737 96.5,182.5C 95.6586,184.379 95.3253,186.379 95.5,188.5C 98.2799,188.807 100.78,189.807 103,191.5C 103.902,191.257 104.735,190.923 105.5,190.5C 106.323,192.455 106.49,194.455 106,196.5C 104.989,197.337 103.822,197.67 102.5,197.5C 102.634,199.292 102.301,200.958 101.5,202.5C 96.6263,201.237 92.2929,202.237 88.5,205.5C 87.209,205.263 86.209,205.596 85.5,206.5C 83.0646,205.73 81.7313,204.063 81.5,201.5C 82.3705,198.888 83.0372,196.221 83.5,193.5C 86.4566,189.208 89.7899,185.208 93.5,181.5 Z"/></g>
<g><path style="opacity:1" fill="#577d8e" d="M 83.5,193.5 C 83.0372,196.221 82.3705,198.888 81.5,201.5C 80.209,201.263 79.209,201.596 78.5,202.5C 76.6378,200.109 75.3045,197.442 74.5,194.5C 77.4824,194.037 80.4824,193.704 83.5,193.5 Z"/></g>
<g><path style="opacity:1" fill="#a7d0db" d="M 105.5,181.5 C 109.561,186.897 113.227,192.564 116.5,198.5C 116.5,199.5 116.5,200.5 116.5,201.5C 115.333,203.041 114,204.375 112.5,205.5C 111.942,204.21 110.942,203.377 109.5,203C 106.854,202.503 104.187,202.336 101.5,202.5C 102.301,200.958 102.634,199.292 102.5,197.5C 103.822,197.67 104.989,197.337 106,196.5C 106.49,194.455 106.323,192.455 105.5,190.5C 104.227,188.287 103.227,185.954 102.5,183.5C 103.29,182.599 104.29,181.932 105.5,181.5 Z"/></g>
<g><path style="opacity:1" fill="#759aaf" d="M 30.5,183.5 C 34.5282,187.859 38.5282,192.193 42.5,196.5C 42.323,200.708 40.9897,204.374 38.5,207.5C 32.4669,206.439 26.1335,205.439 19.5,204.5C 18.7249,202.612 18.7249,200.612 19.5,198.5C 21.9528,197.215 24.4528,197.215 27,198.5C 29.678,197.164 32.5113,196.33 35.5,196C 33.9411,193.216 31.6078,191.383 28.5,190.5C 28.4809,188.94 28.1476,187.44 27.5,186C 28.1301,184.69 29.1301,183.856 30.5,183.5 Z"/></g>
<g><path style="opacity:1" fill="#acd6e1" d="M 67.5,187.5 C 69.6054,190.027 71.9387,192.36 74.5,194.5C 75.3045,197.442 76.6378,200.109 78.5,202.5C 79.1637,206.591 77.8304,209.591 74.5,211.5C 73.0267,210.929 71.36,210.929 69.5,211.5C 68.951,203.853 66.6177,196.853 62.5,190.5C 64.2202,189.692 65.8869,188.692 67.5,187.5 Z"/></g>
<g><path style="opacity:1" fill="#6a8f9b" d="M 12.5,198.5 C 13.4959,198.414 14.3292,198.748 15,199.5C 15.4935,201.134 15.6602,202.801 15.5,204.5C 14.3951,205.6 13.0618,206.267 11.5,206.5C 8.19327,207.051 4.85994,207.384 1.5,207.5C 1.1936,204.615 1.52693,201.948 2.5,199.5C 5.72797,198.586 9.06131,198.253 12.5,198.5 Z"/></g>
<g><path style="opacity:1" fill="#7a8d97" d="M 204.5,198.5 C 210.613,199.028 216.613,200.194 222.5,202C 223.833,203 223.833,204 222.5,205C 220.134,205.44 217.801,205.94 215.5,206.5C 211.73,205.801 208.063,206.134 204.5,207.5C 202.784,207.629 201.117,207.962 199.5,208.5C 198.677,206.545 198.51,204.545 199,202.5C 200.992,201.335 202.825,200.002 204.5,198.5 Z"/></g>
<g><path style="opacity:1" fill="#80a4b1" d="M 157.5,199.5 C 157.571,202.652 158.905,204.986 161.5,206.5C 159.832,208.479 159.166,210.812 159.5,213.5C 154.009,214.924 149.676,213.257 146.5,208.5C 146.5,205.5 146.5,202.5 146.5,199.5C 148.557,197.144 151.224,196.144 154.5,196.5C 156.854,195.506 157.854,196.506 157.5,199.5 Z"/></g>
<g><path style="opacity:1" fill="#d3dab4" d="M 101.5,202.5 C 104.187,202.336 106.854,202.503 109.5,203C 110.942,203.377 111.942,204.21 112.5,205.5C 112.5,206.167 112.5,206.833 112.5,207.5C 106.285,207.425 100.118,207.425 94,207.5C 92.0999,206.923 90.2666,206.256 88.5,205.5C 92.2929,202.237 96.6263,201.237 101.5,202.5 Z"/></g>
<g><path style="opacity:1" fill="#7c9ca7" d="M 116.5,201.5 C 118.579,201.971 120.579,202.637 122.5,203.5C 123.42,205.881 123.42,208.214 122.5,210.5C 123.188,211.855 124.188,212.855 125.5,213.5C 125.5,215.167 125.5,216.833 125.5,218.5C 121.662,218.978 118.329,217.978 115.5,215.5C 115.167,214.833 114.833,214.167 114.5,213.5C 114.405,211.214 113.738,209.214 112.5,207.5C 112.5,206.833 112.5,206.167 112.5,205.5C 114,204.375 115.333,203.041 116.5,201.5 Z"/></g>
<g><path style="opacity:1" fill="#46525e" d="M 190.5,195.5 C 193.518,195.335 196.518,195.502 199.5,196C 201.653,196.099 203.319,196.933 204.5,198.5C 202.825,200.002 200.992,201.335 199,202.5C 198.51,204.545 198.677,206.545 199.5,208.5C 190.814,210.168 182.147,211.835 173.5,213.5C 173.5,211.833 173.5,210.167 173.5,208.5C 176.833,207.833 180.167,207.167 183.5,206.5C 187.258,205.881 190.925,204.881 194.5,203.5C 195.753,200.08 194.419,198.746 190.5,199.5C 190.5,198.167 190.5,196.833 190.5,195.5 Z"/></g>
<g><path style="opacity:1" fill="#3b4f59" d="M 15.5,204.5 C 16.8333,204.5 18.1667,204.5 19.5,204.5C 26.1335,205.439 32.4669,206.439 38.5,207.5C 38.5,208.167 38.5,208.833 38.5,209.5C 34.7423,214.576 29.7423,215.909 23.5,213.5C 19.7717,213.156 16.1051,212.49 12.5,211.5C 11.5481,209.955 11.2148,208.288 11.5,206.5C 13.0618,206.267 14.3951,205.6 15.5,204.5 Z"/></g>
<g><path style="opacity:1" fill="#0c0d18" d="M 215.5,206.5 C 216.184,208.449 217.351,210.115 219,211.5C 219.167,212.667 219.333,213.833 219.5,215C 217.097,223.987 215.763,233.154 215.5,242.5C 214.167,241.833 212.833,241.167 211.5,240.5C 211.068,239.29 210.401,238.29 209.5,237.5C 209.919,234.675 208.919,232.509 206.5,231C 202.354,229.063 198.021,227.729 193.5,227C 184.833,226.333 176.167,226.333 167.5,227C 164.421,227.685 161.421,228.519 158.5,229.5C 156.668,230.248 155.001,231.248 153.5,232.5C 147.364,233.629 141.364,234.962 135.5,236.5C 129.105,237.566 122.772,237.566 116.5,236.5C 116.216,234.585 116.549,232.919 117.5,231.5C 132.182,229.413 146.515,225.913 160.5,221C 173.647,219.463 186.647,217.13 199.5,214C 202.493,212.841 204.16,210.675 204.5,207.5C 208.063,206.134 211.73,205.801 215.5,206.5 Z"/></g>
<g><path style="opacity:1" fill="#577682" d="M 11.5,206.5 C 11.2148,208.288 11.5481,209.955 12.5,211.5C 16.1051,212.49 19.7717,213.156 23.5,213.5C 22.2727,215.581 20.7727,217.581 19,219.5C 18.3923,221.154 17.8923,222.821 17.5,224.5C 12.3935,222.781 7.39354,220.781 2.5,218.5C 2.06795,217.29 1.40128,216.29 0.5,215.5C 1.38803,212.946 1.72137,210.279 1.5,207.5C 4.85994,207.384 8.19327,207.051 11.5,206.5 Z"/></g>
<g><path style="opacity:1" fill="#7d785f" d="M 88.5,205.5 C 90.2666,206.256 92.0999,206.923 94,207.5C 100.118,207.425 106.285,207.425 112.5,207.5C 113.738,209.214 114.405,211.214 114.5,213.5C 112.435,213.517 110.435,213.85 108.5,214.5C 104.047,214.438 99.3807,214.271 94.5,214C 92.3594,213.427 90.3594,212.594 88.5,211.5C 87.075,210.078 86.075,208.411 85.5,206.5C 86.209,205.596 87.209,205.263 88.5,205.5 Z"/></g>
<g><path style="opacity:1" fill="#6d8b96" d="M 161.5,206.5 C 165.382,207.803 169.382,208.47 173.5,208.5C 173.5,210.167 173.5,211.833 173.5,213.5C 170.882,213.779 168.382,214.446 166,215.5C 165.617,214.944 165.117,214.611 164.5,214.5C 163.081,213.549 161.415,213.216 159.5,213.5C 159.166,210.812 159.832,208.479 161.5,206.5 Z"/></g>
<g><path style="opacity:1" fill="#2c393f" d="M 146.5,208.5 C 149.676,213.257 154.009,214.924 159.5,213.5C 161.415,213.216 163.081,213.549 164.5,214.5C 164.389,215.117 164.056,215.617 163.5,216C 157.696,216.897 152.029,218.397 146.5,220.5C 145.558,220.392 144.725,220.059 144,219.5C 141.262,220.482 138.428,221.148 135.5,221.5C 135.923,220.735 136.257,219.902 136.5,219C 134.793,217.491 133.127,215.991 131.5,214.5C 134.977,213.677 138.644,213.177 142.5,213C 144.644,212.208 145.977,210.708 146.5,208.5 Z"/></g>
<g><path style="opacity:1" fill="#698f95" d="M 38.5,209.5 C 39.5137,210.674 40.847,211.34 42.5,211.5C 42.7214,214.279 42.388,216.946 41.5,219.5C 39.9991,220.752 38.3325,221.752 36.5,222.5C 33.7115,225.036 30.7115,227.369 27.5,229.5C 23.8487,228.341 20.5154,226.674 17.5,224.5C 17.8923,222.821 18.3923,221.154 19,219.5C 20.7727,217.581 22.2727,215.581 23.5,213.5C 29.7423,215.909 34.7423,214.576 38.5,209.5 Z"/></g>
<g><path style="opacity:1" fill="#19252c" d="M 204.5,207.5 C 204.16,210.675 202.493,212.841 199.5,214C 186.647,217.13 173.647,219.463 160.5,221C 146.515,225.913 132.182,229.413 117.5,231.5C 117.245,229.033 116.245,227.033 114.5,225.5C 121.112,222.784 128.112,221.451 135.5,221.5C 138.428,221.148 141.262,220.482 144,219.5C 144.725,220.059 145.558,220.392 146.5,220.5C 152.029,218.397 157.696,216.897 163.5,216C 164.056,215.617 164.389,215.117 164.5,214.5C 165.117,214.611 165.617,214.944 166,215.5C 168.382,214.446 170.882,213.779 173.5,213.5C 182.147,211.835 190.814,210.168 199.5,208.5C 201.117,207.962 202.784,207.629 204.5,207.5 Z"/></g>
<g><path style="opacity:1" fill="#414641" d="M 50.5,210.5 C 51.8333,211.833 53.1667,211.833 54.5,210.5C 56.495,215.326 59.8283,216.493 64.5,214C 65.2524,213.329 65.5858,212.496 65.5,211.5C 67.035,212.354 68.3684,212.354 69.5,211.5C 71.36,210.929 73.0267,210.929 74.5,211.5C 74.641,215.093 75.3076,218.593 76.5,222C 76.2849,223.908 75.2849,225.074 73.5,225.5C 70.8728,226.092 68.2062,226.425 65.5,226.5C 65.5,224.833 65.5,223.167 65.5,221.5C 61.5,221.5 57.5,221.5 53.5,221.5C 50.2021,221.05 47.8687,219.216 46.5,216C 48.4379,214.569 49.7712,212.735 50.5,210.5 Z"/></g>
<g><path style="opacity:1" fill="#6f705c" d="M 54.5,210.5 C 58.2343,210.323 61.9009,210.656 65.5,211.5C 65.5858,212.496 65.2524,213.329 64.5,214C 59.8283,216.493 56.495,215.326 54.5,210.5 Z"/></g>
<g><path style="opacity:1" fill="#737f79" d="M 88.5,211.5 C 90.3594,212.594 92.3594,213.427 94.5,214C 99.3807,214.271 104.047,214.438 108.5,214.5C 106.089,216.86 103.089,217.86 99.5,217.5C 95.1327,216.991 90.7993,216.324 86.5,215.5C 86.6596,213.847 87.3263,212.514 88.5,211.5 Z"/></g>
<g><path style="opacity:1" fill="#3c4e58" d="M 114.5,213.5 C 114.833,214.167 115.167,214.833 115.5,215.5C 115.376,217.582 114.376,219.082 112.5,220C 104.833,220.333 97.1667,220.667 89.5,221C 88.944,221.383 88.6107,221.883 88.5,222.5C 87.2502,222.423 86.4169,221.756 86,220.5C 85.2204,218.613 85.3871,216.946 86.5,215.5C 90.7993,216.324 95.1327,216.991 99.5,217.5C 103.089,217.86 106.089,216.86 108.5,214.5C 110.435,213.85 112.435,213.517 114.5,213.5 Z"/></g>
<g><path style="opacity:1" fill="#4e646b" d="M 131.5,214.5 C 133.127,215.991 134.793,217.491 136.5,219C 136.257,219.902 135.923,220.735 135.5,221.5C 128.112,221.451 121.112,222.784 114.5,225.5C 106.976,227.575 99.3095,228.909 91.5,229.5C 91.8039,228.85 92.1373,228.183 92.5,227.5C 91.1431,225.814 89.8098,224.148 88.5,222.5C 88.6107,221.883 88.944,221.383 89.5,221C 97.1667,220.667 104.833,220.333 112.5,220C 114.376,219.082 115.376,217.582 115.5,215.5C 118.329,217.978 121.662,218.978 125.5,218.5C 125.5,216.833 125.5,215.167 125.5,213.5C 125.56,212.957 125.893,212.624 126.5,212.5C 128.195,213.174 129.862,213.841 131.5,214.5 Z"/></g>
<g><path style="opacity:1" fill="#5a6864" d="M 50.5,210.5 C 49.7712,212.735 48.4379,214.569 46.5,216C 47.8687,219.216 50.2021,221.05 53.5,221.5C 52.7387,222.391 51.7387,223.058 50.5,223.5C 47.5905,221.877 44.5905,220.543 41.5,219.5C 42.388,216.946 42.7214,214.279 42.5,211.5C 44.9479,210.527 47.6146,210.194 50.5,210.5 Z"/></g>
<g><path style="opacity:1" fill="#789ca3" d="M 81.5,201.5 C 81.7313,204.063 83.0646,205.73 85.5,206.5C 86.075,208.411 87.075,210.078 88.5,211.5C 87.3263,212.514 86.6596,213.847 86.5,215.5C 85.3871,216.946 85.2204,218.613 86,220.5C 86.4169,221.756 87.2502,222.423 88.5,222.5C 89.8098,224.148 91.1431,225.814 92.5,227.5C 92.1373,228.183 91.8039,228.85 91.5,229.5C 85.6179,230.801 79.6179,232.134 73.5,233.5C 72.645,232.469 71.9783,231.303 71.5,230C 72.4138,228.594 73.0805,227.094 73.5,225.5C 75.2849,225.074 76.2849,223.908 76.5,222C 75.3076,218.593 74.641,215.093 74.5,211.5C 77.8304,209.591 79.1637,206.591 78.5,202.5C 79.209,201.596 80.209,201.263 81.5,201.5 Z"/></g>
<g><path style="opacity:1" fill="#43515e" d="M 41.5,219.5 C 44.5905,220.543 47.5905,221.877 50.5,223.5C 51.7387,223.058 52.7387,222.391 53.5,221.5C 57.5,221.5 61.5,221.5 65.5,221.5C 65.5,223.167 65.5,224.833 65.5,226.5C 61.8432,227.814 58.1766,229.147 54.5,230.5C 52.1817,230.003 49.8484,229.67 47.5,229.5C 44.2423,228.829 40.9089,227.996 37.5,227C 36.6198,225.644 36.2865,224.144 36.5,222.5C 38.3325,221.752 39.9991,220.752 41.5,219.5 Z"/></g>
<g><path style="opacity:1" fill="#56707c" d="M 36.5,222.5 C 36.2865,224.144 36.6198,225.644 37.5,227C 40.9089,227.996 44.2423,228.829 47.5,229.5C 45.9019,231.698 44.5686,234.031 43.5,236.5C 37.8685,234.68 32.5352,232.347 27.5,229.5C 30.7115,227.369 33.7115,225.036 36.5,222.5 Z"/></g>
<g><path style="opacity:1" fill="#2a3745" d="M 277.5,229.5 C 277.5,231.5 277.5,233.5 277.5,235.5C 275.41,237.751 273.077,239.917 270.5,242C 266.579,242.203 262.745,242.703 259,243.5C 259.84,246.193 261.007,248.86 262.5,251.5C 258.472,254.181 254.139,256.347 249.5,258C 248.663,259.011 248.33,260.178 248.5,261.5C 253.58,261.878 258.58,262.545 263.5,263.5C 265.565,263.517 267.565,263.85 269.5,264.5C 269.666,268.846 269.499,273.179 269,277.5C 267.874,278.944 266.374,279.61 264.5,279.5C 261.822,278.825 259.156,278.158 256.5,277.5C 258.626,273.535 257.626,270.868 253.5,269.5C 252.287,269.747 251.62,270.414 251.5,271.5C 248.594,270.213 245.594,269.213 242.5,268.5C 242.771,266.62 242.104,265.287 240.5,264.5C 240.489,262.983 239.823,261.816 238.5,261C 234.779,260.319 231.113,259.486 227.5,258.5C 226.659,256.621 226.325,254.621 226.5,252.5C 228.554,252.635 230.221,251.968 231.5,250.5C 232.5,250.5 233.5,250.5 234.5,250.5C 234.366,248.708 234.699,247.042 235.5,245.5C 240.416,246.611 245.416,246.778 250.5,246C 252.355,242.295 251.189,240.129 247,239.5C 243.003,241.748 238.837,242.081 234.5,240.5C 235.15,238.565 235.483,236.565 235.5,234.5C 237.262,234.643 238.929,234.309 240.5,233.5C 241.216,231.518 242.383,229.851 244,228.5C 244.579,227.072 244.412,225.738 243.5,224.5C 249.752,223.376 256.085,223.21 262.5,224C 267.755,225.301 272.755,227.134 277.5,229.5 Z"/></g>
<g><path style="opacity:1" fill="#181e2a" d="M 2.5,218.5 C 7.39354,220.781 12.3935,222.781 17.5,224.5C 20.5154,226.674 23.8487,228.341 27.5,229.5C 32.5352,232.347 37.8685,234.68 43.5,236.5C 45.6073,237.3 47.7739,237.967 50,238.5C 57.3705,236.392 64.8705,235.058 72.5,234.5C 73.0289,236.583 74.0289,238.417 75.5,240C 67.7817,243.096 59.7817,244.93 51.5,245.5C 46.2728,245.533 41.2728,244.533 36.5,242.5C 25.7377,237.285 15.0711,231.785 4.5,226C 1.85274,223.91 1.18608,221.41 2.5,218.5 Z"/></g>
<g><path style="opacity:1" fill="#191f25" d="M 114.5,225.5 C 116.245,227.033 117.245,229.033 117.5,231.5C 116.549,232.919 116.216,234.585 116.5,236.5C 105.721,238.429 95.054,240.762 84.5,243.5C 76.5577,245.111 68.7244,247.111 61,249.5C 60.3828,250.449 60.5494,251.282 61.5,252C 65.346,254.003 69.346,255.503 73.5,256.5C 85.5063,261.837 97.5063,267.17 109.5,272.5C 115.269,276.134 121.436,279.134 128,281.5C 130.334,280.31 132.501,278.977 134.5,277.5C 137.167,278.5 139.833,279.5 142.5,280.5C 141.758,282.426 140.758,284.259 139.5,286C 155.616,294.059 171.949,301.559 188.5,308.5C 188.5,309.5 188.5,310.5 188.5,311.5C 176.167,311.5 163.833,311.5 151.5,311.5C 151.249,309.83 150.582,308.33 149.5,307C 121.167,292.833 92.8333,278.667 64.5,264.5C 63.8165,264.863 63.1499,265.196 62.5,265.5C 62.6495,264.448 62.4828,263.448 62,262.5C 60.4419,263.345 59.4419,262.679 59,260.5C 58.6667,260.833 58.3333,261.167 58,261.5C 57.1667,260 56,258.833 54.5,258C 54.5,256.667 54.5,255.333 54.5,254C 53.7562,252.961 52.7562,252.461 51.5,252.5C 52.8333,250.167 52.8333,247.833 51.5,245.5C 59.7817,244.93 67.7817,243.096 75.5,240C 74.0289,238.417 73.0289,236.583 72.5,234.5C 73.1667,234.5 73.5,234.167 73.5,233.5C 79.6179,232.134 85.6179,230.801 91.5,229.5C 99.3095,228.909 106.976,227.575 114.5,225.5 Z"/></g>
<g><path style="opacity:1" fill="#526472" d="M 209.5,237.5 C 206.892,237.6 204.558,236.933 202.5,235.5C 201.878,233.665 200.544,232.498 198.5,232C 185.793,229.931 173.126,230.098 160.5,232.5C 159.599,231.71 158.932,230.71 158.5,229.5C 161.421,228.519 164.421,227.685 167.5,227C 176.167,226.333 184.833,226.333 193.5,227C 198.021,227.729 202.354,229.063 206.5,231C 208.919,232.509 209.919,234.675 209.5,237.5 Z"/></g>
<g><path style="opacity:1" fill="#6c8a91" d="M 73.5,225.5 C 73.0805,227.094 72.4138,228.594 71.5,230C 71.9783,231.303 72.645,232.469 73.5,233.5C 73.5,234.167 73.1667,234.5 72.5,234.5C 64.8705,235.058 57.3705,236.392 50,238.5C 47.7739,237.967 45.6073,237.3 43.5,236.5C 44.5686,234.031 45.9019,231.698 47.5,229.5C 49.8484,229.67 52.1817,230.003 54.5,230.5C 58.1766,229.147 61.8432,227.814 65.5,226.5C 68.2062,226.425 70.8728,226.092 73.5,225.5 Z"/></g>
<g><path style="opacity:1" fill="#485b68" d="M 243.5,224.5 C 244.412,225.738 244.579,227.072 244,228.5C 242.383,229.851 241.216,231.518 240.5,233.5C 238.929,234.309 237.262,234.643 235.5,234.5C 236.252,229.737 238.918,226.404 243.5,224.5 Z"/></g>
<g><path style="opacity:1" fill="#8ea8b4" d="M 158.5,229.5 C 158.932,230.71 159.599,231.71 160.5,232.5C 159.766,233.708 159.433,235.041 159.5,236.5C 158.5,236.833 157.833,237.5 157.5,238.5C 155.262,237.147 153.929,235.147 153.5,232.5C 155.001,231.248 156.668,230.248 158.5,229.5 Z"/></g>
<g><path style="opacity:1" fill="#273340" d="M 202.5,235.5 C 201.878,237.335 200.544,238.502 198.5,239C 185.207,241.63 172.207,240.797 159.5,236.5C 159.433,235.041 159.766,233.708 160.5,232.5C 173.126,230.098 185.793,229.931 198.5,232C 200.544,232.498 201.878,233.665 202.5,235.5 Z"/></g>
<g><path style="opacity:1" fill="#0a0a10" d="M -0.5,215.5 C -0.166667,215.5 0.166667,215.5 0.5,215.5C 1.40128,216.29 2.06795,217.29 2.5,218.5C 1.18608,221.41 1.85274,223.91 4.5,226C 15.0711,231.785 25.7377,237.285 36.5,242.5C 35.1113,245.088 33.2779,247.422 31,249.5C 29.8615,249.011 28.6948,248.678 27.5,248.5C 21.0332,243.267 13.6999,239.6 5.5,237.5C 4.00551,237.709 2.83884,238.376 2,239.5C 1.82965,243.493 1.99632,247.493 2.5,251.5C 1.5,251.5 0.5,251.5 -0.5,251.5C -0.5,239.5 -0.5,227.5 -0.5,215.5 Z"/></g>
<g><path style="opacity:1" fill="#637c88" d="M 153.5,232.5 C 153.929,235.147 155.262,237.147 157.5,238.5C 157.5,238.833 157.5,239.167 157.5,239.5C 156.185,240.667 155.519,242.167 155.5,244C 155.714,247.357 155.88,250.857 156,254.5C 158.101,257.771 160.934,260.105 164.5,261.5C 162.572,263.474 160.239,264.974 157.5,266C 149.833,268.333 142.167,270.667 134.5,273C 133.272,274.49 133.272,275.99 134.5,277.5C 132.501,278.977 130.334,280.31 128,281.5C 121.436,279.134 115.269,276.134 109.5,272.5C 109.412,267.855 111.745,265.355 116.5,265C 117.381,264.292 118.047,263.458 118.5,262.5C 126.449,259.119 134.449,255.619 142.5,252C 144.606,250.363 145.272,248.53 144.5,246.5C 144.714,244.856 144.38,243.356 143.5,242C 141.187,241.338 138.854,240.838 136.5,240.5C 136.768,238.901 136.434,237.568 135.5,236.5C 141.364,234.962 147.364,233.629 153.5,232.5 Z"/></g>
<g><path style="opacity:1" fill="#3b4952" d="M 116.5,236.5 C 122.772,237.566 129.105,237.566 135.5,236.5C 136.434,237.568 136.768,238.901 136.5,240.5C 138.854,240.838 141.187,241.338 143.5,242C 144.38,243.356 144.714,244.856 144.5,246.5C 142.631,247.12 140.298,247.453 137.5,247.5C 137.586,246.504 137.252,245.671 136.5,245C 135.167,244.667 133.833,244.333 132.5,244C 124.481,244.391 116.481,244.225 108.5,243.5C 104.035,244.433 99.7014,245.766 95.5,247.5C 92.6285,245.642 90.6285,246.308 89.5,249.5C 89.6236,250.107 89.9569,250.44 90.5,250.5C 89.7095,251.401 88.7095,252.068 87.5,252.5C 85.88,249.772 84.88,246.772 84.5,243.5C 95.054,240.762 105.721,238.429 116.5,236.5 Z"/></g>
<g><path style="opacity:1" fill="#192936" d="M 27.5,248.5 C 24.2451,251.311 22.5785,254.977 22.5,259.5C 23.1556,261.453 23.4889,263.453 23.5,265.5C 21.5165,265.383 19.8498,266.05 18.5,267.5C 12.4625,264.992 9.62912,260.325 10,253.5C 7.77237,251.887 5.27237,251.22 2.5,251.5C 1.99632,247.493 1.82965,243.493 2,239.5C 2.83884,238.376 4.00551,237.709 5.5,237.5C 13.6999,239.6 21.0332,243.267 27.5,248.5 Z"/></g>
<g><path style="opacity:1" fill="#1e2532" d="M 157.5,239.5 C 165.19,242.45 173.19,244.117 181.5,244.5C 183.118,248.068 184.451,251.735 185.5,255.5C 181.225,256.319 177.225,257.653 173.5,259.5C 170.5,260.167 167.5,260.833 164.5,261.5C 160.934,260.105 158.101,257.771 156,254.5C 155.88,250.857 155.714,247.357 155.5,244C 155.519,242.167 156.185,240.667 157.5,239.5 Z"/></g>
<g><path style="opacity:1" fill="#454e5a" d="M 202.5,235.5 C 204.558,236.933 206.892,237.6 209.5,237.5C 210.401,238.29 211.068,239.29 211.5,240.5C 210.935,242.952 210.268,245.285 209.5,247.5C 206.623,246.789 204.957,244.956 204.5,242C 203.667,241.833 202.833,241.667 202,241.5C 195.338,243.708 188.504,244.708 181.5,244.5C 173.19,244.117 165.19,242.45 157.5,239.5C 157.5,239.167 157.5,238.833 157.5,238.5C 157.833,237.5 158.5,236.833 159.5,236.5C 172.207,240.797 185.207,241.63 198.5,239C 200.544,238.502 201.878,237.335 202.5,235.5 Z"/></g>
<g><path style="opacity:1" fill="#516a7c" d="M 235.5,245.5 C 234.645,244.469 233.978,243.303 233.5,242C 233.57,241.235 233.903,240.735 234.5,240.5C 238.837,242.081 243.003,241.748 247,239.5C 251.189,240.129 252.355,242.295 250.5,246C 245.416,246.778 240.416,246.611 235.5,245.5 Z"/></g>
<g><path style="opacity:1" fill="#232935" d="M 277.5,235.5 C 277.5,240.167 277.5,244.833 277.5,249.5C 274.14,249.616 270.807,249.949 267.5,250.5C 265.784,250.629 264.117,250.962 262.5,251.5C 261.007,248.86 259.84,246.193 259,243.5C 262.745,242.703 266.579,242.203 270.5,242C 273.077,239.917 275.41,237.751 277.5,235.5 Z"/></g>
<g><path style="opacity:1" fill="#202d34" d="M 209.5,247.5 C 209.263,248.791 209.596,249.791 210.5,250.5C 211.833,252.167 211.833,253.833 210.5,255.5C 207.946,256.388 205.279,256.721 202.5,256.5C 202.27,253.535 200.603,252.202 197.5,252.5C 193.466,253.505 189.466,254.505 185.5,255.5C 184.451,251.735 183.118,248.068 181.5,244.5C 188.504,244.708 195.338,243.708 202,241.5C 202.833,241.667 203.667,241.833 204.5,242C 204.957,244.956 206.623,246.789 209.5,247.5 Z"/></g>
<g><path style="opacity:1" fill="#637d88" d="M 84.5,243.5 C 84.88,246.772 85.88,249.772 87.5,252.5C 87.8333,253.167 88.1667,253.833 88.5,254.5C 84.745,255.823 81.0783,255.49 77.5,253.5C 75.5828,253.754 74.2495,254.754 73.5,256.5C 69.346,255.503 65.346,254.003 61.5,252C 60.5494,251.282 60.3828,250.449 61,249.5C 68.7244,247.111 76.5577,245.111 84.5,243.5 Z"/></g>
<g><path style="opacity:1" fill="#59727f" d="M 137.5,247.5 C 122.409,256.887 106.743,257.887 90.5,250.5C 89.9569,250.44 89.6236,250.107 89.5,249.5C 90.6285,246.308 92.6285,245.642 95.5,247.5C 99.7014,245.766 104.035,244.433 108.5,243.5C 116.481,244.225 124.481,244.391 132.5,244C 133.833,244.333 135.167,244.667 136.5,245C 137.252,245.671 137.586,246.504 137.5,247.5 Z"/></g>
<g><path style="opacity:1" fill="#1a1b20" d="M 144.5,246.5 C 145.272,248.53 144.606,250.363 142.5,252C 134.449,255.619 126.449,259.119 118.5,262.5C 109.209,261.81 99.876,259.976 90.5,257C 89.6195,256.292 88.9528,255.458 88.5,254.5C 88.1667,253.833 87.8333,253.167 87.5,252.5C 88.7095,252.068 89.7095,251.401 90.5,250.5C 106.743,257.887 122.409,256.887 137.5,247.5C 140.298,247.453 142.631,247.12 144.5,246.5 Z"/></g>
<g><path style="opacity:1" fill="#506a75" d="M 227.5,246.5 C 229.833,246.833 231.167,248.167 231.5,250.5C 230.221,251.968 228.554,252.635 226.5,252.5C 227.15,250.565 227.483,248.565 227.5,246.5 Z"/></g>
<g><path style="opacity:1" fill="#5c7682" d="M 210.5,255.5 C 211.833,253.833 211.833,252.167 210.5,250.5C 210.435,250.062 210.601,249.728 211,249.5C 213.52,250.207 216.02,251.04 218.5,252C 219.337,253.011 219.67,254.178 219.5,255.5C 216.5,255.5 213.5,255.5 210.5,255.5 Z"/></g>
<g><path style="opacity:1" fill="#5c7682" d="M 277.5,249.5 C 277.5,250.833 277.5,252.167 277.5,253.5C 274.833,253.5 272.167,253.5 269.5,253.5C 268.599,252.71 267.932,251.71 267.5,250.5C 270.807,249.949 274.14,249.616 277.5,249.5 Z"/></g>
<g><path style="opacity:1" fill="#82a8bf" d="M 267.5,250.5 C 267.932,251.71 268.599,252.71 269.5,253.5C 267.771,254.236 266.771,255.57 266.5,257.5C 266.025,259.784 265.025,261.784 263.5,263.5C 258.58,262.545 253.58,261.878 248.5,261.5C 248.33,260.178 248.663,259.011 249.5,258C 254.139,256.347 258.472,254.181 262.5,251.5C 264.117,250.962 265.784,250.629 267.5,250.5 Z"/></g>
<g><path style="opacity:1" fill="#121722" d="M -0.5,251.5 C 0.5,251.5 1.5,251.5 2.5,251.5C 5.27237,251.22 7.77237,251.887 10,253.5C 9.62912,260.325 12.4625,264.992 18.5,267.5C 19.8498,266.05 21.5165,265.383 23.5,265.5C 23.8333,269.5 24.1667,273.5 24.5,277.5C 22.1432,277.337 19.8098,277.503 17.5,278C 16.6006,279.652 15.6006,281.152 14.5,282.5C 13.2058,281.71 12.0391,280.71 11,279.5C 9.32239,275.468 7.15572,271.801 4.5,268.5C 2.9121,270.113 1.9121,272.113 1.5,274.5C 2.58833,278.326 3.92167,281.993 5.5,285.5C 3.70329,285.065 1.70329,285.065 -0.5,285.5C -0.5,274.167 -0.5,262.833 -0.5,251.5 Z"/></g>
<g><path style="opacity:1" fill="#121e24" d="M 51.5,252.5 C 52.7562,252.461 53.7562,252.961 54.5,254C 54.5,255.333 54.5,256.667 54.5,258C 56,258.833 57.1667,260 58,261.5C 58.3333,261.167 58.6667,260.833 59,260.5C 59.4419,262.679 60.4419,263.345 62,262.5C 62.4828,263.448 62.6495,264.448 62.5,265.5C 61.3065,268.052 59.9732,270.552 58.5,273C 59.0897,274.509 59.7564,276.009 60.5,277.5C 64.9736,276.051 69.1403,276.718 73,279.5C 73.3333,280.5 73.6667,281.5 74,282.5C 74.4998,292.161 74.6665,301.828 74.5,311.5C 55.1667,311.5 35.8333,311.5 16.5,311.5C 13.424,303.34 9.7573,295.34 5.5,287.5C 5.62358,286.893 5.95691,286.56 6.5,286.5C 8.01739,286.511 9.18405,287.177 10,288.5C 13.4553,295.247 17.2886,301.747 21.5,308C 27.2893,309.185 28.956,307.018 26.5,301.5C 31.4491,300.549 33.7824,297.549 33.5,292.5C 33.3582,281.863 32.6915,271.196 31.5,260.5C 34.8772,260.31 37.5439,258.81 39.5,256C 43.7515,255.556 47.7515,254.389 51.5,252.5 Z"/></g>
<g><path style="opacity:1" fill="#313843" d="M 269.5,253.5 C 272.167,253.5 274.833,253.5 277.5,253.5C 277.5,255.5 277.5,257.5 277.5,259.5C 273.665,259.583 269.998,258.917 266.5,257.5C 266.771,255.57 267.771,254.236 269.5,253.5 Z"/></g>
<g><path style="opacity:1" fill="#4f6874" d="M 88.5,254.5 C 88.9528,255.458 89.6195,256.292 90.5,257C 99.876,259.976 109.209,261.81 118.5,262.5C 118.047,263.458 117.381,264.292 116.5,265C 111.745,265.355 109.412,267.855 109.5,272.5C 97.5063,267.17 85.5063,261.837 73.5,256.5C 74.2495,254.754 75.5828,253.754 77.5,253.5C 81.0783,255.49 84.745,255.823 88.5,254.5 Z"/></g>
<g><path style="opacity:1" fill="#090f15" d="M 36.5,242.5 C 41.2728,244.533 46.2728,245.533 51.5,245.5C 52.8333,247.833 52.8333,250.167 51.5,252.5C 47.7515,254.389 43.7515,255.556 39.5,256C 37.5439,258.81 34.8772,260.31 31.5,260.5C 32.6915,271.196 33.3582,281.863 33.5,292.5C 33.7824,297.549 31.4491,300.549 26.5,301.5C 22.2531,295.344 18.2531,289.01 14.5,282.5C 15.6006,281.152 16.6006,279.652 17.5,278C 19.8098,277.503 22.1432,277.337 24.5,277.5C 24.1667,273.5 23.8333,269.5 23.5,265.5C 23.4889,263.453 23.1556,261.453 22.5,259.5C 22.5785,254.977 24.2451,251.311 27.5,248.5C 28.6948,248.678 29.8615,249.011 31,249.5C 33.2779,247.422 35.1113,245.088 36.5,242.5 Z"/></g>
<g><path style="opacity:1" fill="#96b5c8" d="M 211.5,240.5 C 212.833,241.167 214.167,241.833 215.5,242.5C 219.579,243.637 223.579,244.971 227.5,246.5C 227.483,248.565 227.15,250.565 226.5,252.5C 226.325,254.621 226.659,256.621 227.5,258.5C 224.761,261.024 221.428,262.024 217.5,261.5C 217.351,262.552 217.517,263.552 218,264.5C 220.544,266.267 223.044,267.934 225.5,269.5C 221.943,271.402 219.943,274.402 219.5,278.5C 218.609,279.11 217.609,279.443 216.5,279.5C 215.71,278.599 214.71,277.932 213.5,277.5C 214.084,272.908 212.084,270.075 207.5,269C 205.2,268.342 202.867,267.842 200.5,267.5C 197.395,268.221 194.395,269.221 191.5,270.5C 189.685,269.37 187.685,268.704 185.5,268.5C 184.504,265.792 182.837,265.126 180.5,266.5C 176.609,265.715 174.276,263.382 173.5,259.5C 177.225,257.653 181.225,256.319 185.5,255.5C 189.466,254.505 193.466,253.505 197.5,252.5C 200.603,252.202 202.27,253.535 202.5,256.5C 205.279,256.721 207.946,256.388 210.5,255.5C 213.5,255.5 216.5,255.5 219.5,255.5C 219.67,254.178 219.337,253.011 218.5,252C 216.02,251.04 213.52,250.207 211,249.5C 210.601,249.728 210.435,250.062 210.5,250.5C 209.596,249.791 209.263,248.791 209.5,247.5C 210.268,245.285 210.935,242.952 211.5,240.5 Z"/></g>
<g><path style="opacity:1" fill="#708fa7" d="M 266.5,257.5 C 269.998,258.917 273.665,259.583 277.5,259.5C 277.5,261.5 277.5,263.5 277.5,265.5C 274.946,264.612 272.279,264.279 269.5,264.5C 267.565,263.85 265.565,263.517 263.5,263.5C 265.025,261.784 266.025,259.784 266.5,257.5 Z"/></g>
<g><path style="opacity:1" fill="#9bbbd3" d="M 173.5,259.5 C 174.276,263.382 176.609,265.715 180.5,266.5C 182.837,265.126 184.504,265.792 185.5,268.5C 184.659,271.576 184.326,274.576 184.5,277.5C 181.588,278.068 178.588,278.068 175.5,277.5C 175.33,278.822 175.663,279.989 176.5,281C 180.931,282.536 184.597,285.036 187.5,288.5C 185.611,289.604 183.945,290.937 182.5,292.5C 177.823,290.826 173.156,289.16 168.5,287.5C 168.5,286.833 168.167,286.5 167.5,286.5C 163.6,282.717 158.934,280.884 153.5,281C 152.944,281.383 152.611,281.883 152.5,282.5C 151.833,282.5 151.167,282.5 150.5,282.5C 147.673,282.416 145.006,281.75 142.5,280.5C 139.833,279.5 137.167,278.5 134.5,277.5C 133.272,275.99 133.272,274.49 134.5,273C 142.167,270.667 149.833,268.333 157.5,266C 160.239,264.974 162.572,263.474 164.5,261.5C 167.5,260.833 170.5,260.167 173.5,259.5 Z"/></g>
<g><path style="opacity:1" fill="#81a0b9" d="M 227.5,258.5 C 231.113,259.486 234.779,260.319 238.5,261C 239.823,261.816 240.489,262.983 240.5,264.5C 239.713,266.104 238.38,266.771 236.5,266.5C 232.671,264.911 229.671,265.911 227.5,269.5C 226.833,269.5 226.167,269.5 225.5,269.5C 223.044,267.934 220.544,266.267 218,264.5C 217.517,263.552 217.351,262.552 217.5,261.5C 221.428,262.024 224.761,261.024 227.5,258.5 Z"/></g>
<g><path style="opacity:1" fill="#00060c" d="M 151.5,311.5 C 125.833,311.5 100.167,311.5 74.5,311.5C 74.6665,301.828 74.4998,292.161 74,282.5C 73.6667,281.5 73.3333,280.5 73,279.5C 69.1403,276.718 64.9736,276.051 60.5,277.5C 59.7564,276.009 59.0897,274.509 58.5,273C 59.9732,270.552 61.3065,268.052 62.5,265.5C 63.1499,265.196 63.8165,264.863 64.5,264.5C 92.8333,278.667 121.167,292.833 149.5,307C 150.582,308.33 151.249,309.83 151.5,311.5 Z"/></g>
<g><path style="opacity:1" fill="#232f3a" d="M 269.5,264.5 C 272.279,264.279 274.946,264.612 277.5,265.5C 277.5,273.833 277.5,282.167 277.5,290.5C 270.289,287.979 263.123,285.312 256,282.5C 255.085,283.328 254.419,284.328 254,285.5C 252.723,290.841 252.389,296.174 253,301.5C 251.319,303.428 249.486,303.761 247.5,302.5C 246.315,301.143 245.315,299.643 244.5,298C 247.387,289.285 249.72,280.452 251.5,271.5C 251.62,270.414 252.287,269.747 253.5,269.5C 257.626,270.868 258.626,273.535 256.5,277.5C 259.156,278.158 261.822,278.825 264.5,279.5C 266.374,279.61 267.874,278.944 269,277.5C 269.499,273.179 269.666,268.846 269.5,264.5 Z"/></g>
<g><path style="opacity:1" fill="#2a3743" d="M 236.5,266.5 C 236.723,269.114 235.556,270.781 233,271.5C 232.187,273.436 231.687,275.436 231.5,277.5C 230.5,277.5 229.5,277.5 228.5,277.5C 228.34,274.484 228.007,271.817 227.5,269.5C 229.671,265.911 232.671,264.911 236.5,266.5 Z"/></g>
<g><path style="opacity:1" fill="#444540" d="M 213.5,277.5 C 212.146,279.696 210.146,281.196 207.5,282C 202.845,282.499 198.179,282.666 193.5,282.5C 190.907,278.801 190.24,274.801 191.5,270.5C 194.395,269.221 197.395,268.221 200.5,267.5C 202.867,267.842 205.2,268.342 207.5,269C 212.084,270.075 214.084,272.908 213.5,277.5 Z"/></g>
<g><path style="opacity:1" fill="#31383d" d="M 14.5,282.5 C 18.2531,289.01 22.2531,295.344 26.5,301.5C 28.956,307.018 27.2893,309.185 21.5,308C 17.2886,301.747 13.4553,295.247 10,288.5C 9.18405,287.177 8.01739,286.511 6.5,286.5C 6.5,285.833 6.16667,285.5 5.5,285.5C 3.92167,281.993 2.58833,278.326 1.5,274.5C 1.9121,272.113 2.9121,270.113 4.5,268.5C 7.15572,271.801 9.32239,275.468 11,279.5C 12.0391,280.71 13.2058,281.71 14.5,282.5 Z"/></g>
<g><path style="opacity:1" fill="#4a6369" d="M 240.5,264.5 C 242.104,265.287 242.771,266.62 242.5,268.5C 245.594,269.213 248.594,270.213 251.5,271.5C 249.72,280.452 247.387,289.285 244.5,298C 245.315,299.643 246.315,301.143 247.5,302.5C 246.631,304.717 246.298,307.05 246.5,309.5C 239.306,309.046 232.14,308.379 225,307.5C 222.187,308.939 219.187,309.606 216,309.5C 206.823,309.456 197.656,309.123 188.5,308.5C 171.949,301.559 155.616,294.059 139.5,286C 140.758,284.259 141.758,282.426 142.5,280.5C 145.006,281.75 147.673,282.416 150.5,282.5C 151.237,284.305 152.237,285.971 153.5,287.5C 156.962,289.065 160.295,290.898 163.5,293C 164.793,293.49 166.127,293.657 167.5,293.5C 167.517,291.435 167.85,289.435 168.5,287.5C 173.156,289.16 177.823,290.826 182.5,292.5C 183.156,293.278 183.989,293.944 185,294.5C 188.921,291.384 193.254,290.717 198,292.5C 207.055,291.225 214.555,287.225 220.5,280.5C 220.137,279.817 219.804,279.15 219.5,278.5C 219.943,274.402 221.943,271.402 225.5,269.5C 226.167,269.5 226.833,269.5 227.5,269.5C 228.007,271.817 228.34,274.484 228.5,277.5C 229.5,277.5 230.5,277.5 231.5,277.5C 231.687,275.436 232.187,273.436 233,271.5C 235.556,270.781 236.723,269.114 236.5,266.5C 238.38,266.771 239.713,266.104 240.5,264.5 Z"/></g>
<g><path style="opacity:1" fill="#6e879d" d="M 185.5,268.5 C 187.685,268.704 189.685,269.37 191.5,270.5C 190.24,274.801 190.907,278.801 193.5,282.5C 192.596,283.209 192.263,284.209 192.5,285.5C 190.999,286.752 189.332,287.752 187.5,288.5C 184.597,285.036 180.931,282.536 176.5,281C 175.663,279.989 175.33,278.822 175.5,277.5C 178.588,278.068 181.588,278.068 184.5,277.5C 184.326,274.576 184.659,271.576 185.5,268.5 Z"/></g>
<g><path style="opacity:1" fill="#445d6f" d="M 167.5,286.5 C 167.389,287.117 167.056,287.617 166.5,288C 160.828,288.662 156.161,286.829 152.5,282.5C 152.611,281.883 152.944,281.383 153.5,281C 158.934,280.884 163.6,282.717 167.5,286.5 Z"/></g>
<g><path style="opacity:1" fill="#4b5e6b" d="M 213.5,277.5 C 214.71,277.932 215.71,278.599 216.5,279.5C 209.782,286.628 201.782,288.628 192.5,285.5C 192.263,284.209 192.596,283.209 193.5,282.5C 198.179,282.666 202.845,282.499 207.5,282C 210.146,281.196 212.146,279.696 213.5,277.5 Z"/></g>
<g><path style="opacity:1" fill="#43555b" d="M 277.5,290.5 C 277.5,296.5 277.5,302.5 277.5,308.5C 267.206,308.306 256.873,308.639 246.5,309.5C 246.298,307.05 246.631,304.717 247.5,302.5C 249.486,303.761 251.319,303.428 253,301.5C 252.389,296.174 252.723,290.841 254,285.5C 254.419,284.328 255.085,283.328 256,282.5C 263.123,285.312 270.289,287.979 277.5,290.5 Z"/></g>
<g><path style="opacity:1" fill="#05060c" d="M 5.5,285.5 C 6.16667,285.5 6.5,285.833 6.5,286.5C 5.95691,286.56 5.62358,286.893 5.5,287.5C 9.7573,295.34 13.424,303.34 16.5,311.5C 10.8333,311.5 5.16667,311.5 -0.5,311.5C -0.5,302.833 -0.5,294.167 -0.5,285.5C 1.70329,285.065 3.70329,285.065 5.5,285.5 Z"/></g>
<g><path style="opacity:1" fill="#29373e" d="M 219.5,278.5 C 219.804,279.15 220.137,279.817 220.5,280.5C 214.555,287.225 207.055,291.225 198,292.5C 193.254,290.717 188.921,291.384 185,294.5C 183.989,293.944 183.156,293.278 182.5,292.5C 183.945,290.937 185.611,289.604 187.5,288.5C 189.332,287.752 190.999,286.752 192.5,285.5C 201.782,288.628 209.782,286.628 216.5,279.5C 217.609,279.443 218.609,279.11 219.5,278.5 Z"/></g>
<g><path style="opacity:1" fill="#323f4c" d="M 150.5,282.5 C 151.167,282.5 151.833,282.5 152.5,282.5C 156.161,286.829 160.828,288.662 166.5,288C 167.056,287.617 167.389,287.117 167.5,286.5C 168.167,286.5 168.5,286.833 168.5,287.5C 167.85,289.435 167.517,291.435 167.5,293.5C 166.127,293.657 164.793,293.49 163.5,293C 160.295,290.898 156.962,289.065 153.5,287.5C 152.237,285.971 151.237,284.305 150.5,282.5 Z"/></g>
<g><path style="opacity:1" fill="#2a363e" d="M 246.5,309.5 C 256.873,308.639 267.206,308.306 277.5,308.5C 277.5,309.5 277.5,310.5 277.5,311.5C 247.833,311.5 218.167,311.5 188.5,311.5C 188.5,310.5 188.5,309.5 188.5,308.5C 197.656,309.123 206.823,309.456 216,309.5C 219.187,309.606 222.187,308.939 225,307.5C 232.14,308.379 239.306,309.046 246.5,309.5 Z"/></g>
</svg>
