<?xml version="1.0" encoding="UTF-8"?>
<!DOCTYPE svg PUBLIC "-//W3C//DTD SVG 1.1//EN" "http://www.w3.org/Graphics/SVG/1.1/DTD/svg11.dtd">
<svg xmlns="http://www.w3.org/2000/svg" version="1.1" width="277px" height="312px" style="shape-rendering:geometricPrecision; text-rendering:geometricPrecision; image-rendering:optimizeQuality; fill-rule:evenodd; clip-rule:evenodd" xmlns:xlink="http://www.w3.org/1999/xlink">
<g><path style="opacity:1" fill="#371f18" d="M 26.5,-0.5 C 64.8333,-0.5 103.167,-0.5 141.5,-0.5C 132.602,0.0853831 123.602,0.918716 114.5,2C 118.838,9.63716 124.172,16.6372 130.5,23C 131.996,23.5074 133.163,23.0074 134,21.5C 135.648,23.0284 137.648,23.6951 140,23.5C 147.419,22.4155 154.752,21.0821 162,19.5C 163.582,22.5884 166.082,24.2551 169.5,24.5C 199.756,19.6516 229.422,12.6516 258.5,3.5C 259.429,2.31116 259.762,0.977822 259.5,-0.5C 265.167,-0.5 270.833,-0.5 276.5,-0.5C 276.5,8.5 276.5,17.5 276.5,26.5C 274.801,26.3796 273.135,26.0463 271.5,25.5C 262.394,27.0927 253.394,29.0927 244.5,31.5C 213.717,36.2817 183.384,42.7817 153.5,51C 147.924,52.4716 143.091,51.3049 139,47.5C 137.603,48.2259 136.769,49.3925 136.5,51C 137.423,59.1352 137.756,67.3019 137.5,75.5C 137.957,88.252 137.291,100.919 135.5,113.5C 133.139,113.326 130.806,112.993 128.5,112.5C 128.175,97.6267 128.175,82.7934 128.5,68C 126.024,62.8523 124.857,57.3523 125,51.5C 124.5,51 124,50.5 123.5,50C 85.583,40.3532 47.583,31.3532 9.5,23C 6.80776,22.5702 4.14109,22.7369 1.5,23.5C 2.15086,15.9991 2.81752,8.49911 3.5,1C 6.67835,0.555209 9.84502,0.721875 13,1.5C 17.678,1.05575 22.178,0.389086 26.5,-0.5 Z"/></g>
<g><path style="opacity:1" fill="#563724" d="M 141.5,-0.5 C 180.833,-0.5 220.167,-0.5 259.5,-0.5C 259.762,0.977822 259.429,2.31116 258.5,3.5C 229.422,12.6516 199.756,19.6516 169.5,24.5C 166.082,24.2551 163.582,22.5884 162,19.5C 154.752,21.0821 147.419,22.4155 140,23.5C 137.648,23.6951 135.648,23.0284 134,21.5C 133.163,23.0074 131.996,23.5074 130.5,23C 124.172,16.6372 118.838,9.63716 114.5,2C 123.602,0.918716 132.602,0.0853831 141.5,-0.5 Z"/></g>
<g><path style="opacity:1" fill="#4b3225" d="M 128.5,112.5 C 128.5,113.833 128.5,115.167 128.5,116.5C 126.228,115.681 123.894,115.015 121.5,114.5C 120.962,112.883 120.629,111.216 120.5,109.5C 121.787,108.129 122.453,106.295 122.5,104C 121.924,99.5908 120.591,95.4242 118.5,91.5C 119.242,89.5742 120.242,87.7409 121.5,86C 120.528,83.7823 119.861,81.449 119.5,79C 120.546,73.5277 120.712,68.0277 120,62.5C 117.527,61.0459 114.861,60.0459 112,59.5C 108.56,62.0508 104.893,64.0508 101,65.5C 97.2365,76.5493 95.0698,87.8827 94.5,99.5C 91.6787,99.6841 90.0121,98.3507 89.5,95.5C 91.3699,85.3539 93.8699,75.3539 97,65.5C 97.6667,62.8333 97.6667,60.1667 97,57.5C 95.5589,56.7402 94.0589,56.0736 92.5,55.5C 91.1667,56.5 89.8333,57.5 88.5,58.5C 85.5822,70.1 83.4155,82.1 82,94.5C 79.8447,97.0492 78.3447,96.5492 77.5,93C 79.396,83.5817 80.7293,74.0817 81.5,64.5C 81.665,61.1501 81.4983,57.8168 81,54.5C 79.0535,53.253 77.2202,51.9197 75.5,50.5C 78.1071,49.6816 80.7737,49.1816 83.5,49C 83.9574,48.586 84.2907,48.086 84.5,47.5C 80.1239,45.2706 75.6239,44.604 71,45.5C 69.7803,48.2108 68.9469,51.0441 68.5,54C 69.6025,57.1405 70.6025,60.3072 71.5,63.5C 70.7871,66.2371 70.7871,68.9037 71.5,71.5C 70.8551,72.646 70.0217,73.646 69,74.5C 68.5007,79.4889 68.3341,84.4889 68.5,89.5C 67.9232,90.7733 67.2565,90.7733 66.5,89.5C 62.874,77.9647 62.5407,66.298 65.5,54.5C 64.4452,49.7191 61.7785,48.0525 57.5,49.5C 57.5,52.1667 57.5,54.8333 57.5,57.5C 55.1667,57.5 52.8333,57.5 50.5,57.5C 50.2841,66.533 50.6175,75.533 51.5,84.5C 49.4086,84.6816 47.4086,84.3482 45.5,83.5C 44.6705,78.1975 44.1705,72.8642 44,67.5C 41.9864,65.8171 40.3198,63.8171 39,61.5C 38.6667,56.8333 38.3333,52.1667 38,47.5C 36.4002,45.4533 34.5668,45.4533 32.5,47.5C 31.8826,47.3893 31.3826,47.056 31,46.5C 30.7744,43.905 30.2744,41.405 29.5,39C 25.2058,37.8566 20.8725,37.0233 16.5,36.5C 16.5,37.8333 16.5,39.1667 16.5,40.5C 15.4324,41.4345 14.099,41.7678 12.5,41.5C 12.6204,43.1986 12.9537,44.8653 13.5,46.5C 12.7382,53.4711 12.2382,60.4711 12,67.5C 9.31605,69.8062 6.14939,71.1395 2.5,71.5C 2.21507,58.9732 2.5484,46.4732 3.5,34C 2.96817,30.4293 2.3015,26.9293 1.5,23.5C 4.14109,22.7369 6.80776,22.5702 9.5,23C 47.583,31.3532 85.583,40.3532 123.5,50C 124,50.5 124.5,51 125,51.5C 124.857,57.3523 126.024,62.8523 128.5,68C 128.175,82.7934 128.175,97.6267 128.5,112.5 Z"/></g>
<g><path style="opacity:1" fill="#0d0607" d="M -0.5,-0.5 C 8.5,-0.5 17.5,-0.5 26.5,-0.5C 22.178,0.389086 17.678,1.05575 13,1.5C 9.84502,0.721875 6.67835,0.555209 3.5,1C 2.81752,8.49911 2.15086,15.9991 1.5,23.5C 2.3015,26.9293 2.96817,30.4293 3.5,34C 2.5484,46.4732 2.21507,58.9732 2.5,71.5C 2.5,80.1667 2.5,88.8333 2.5,97.5C 2.5,101.833 2.5,106.167 2.5,110.5C 2.75453,121.554 2.75453,132.554 2.5,143.5C 2.5,143.833 2.5,144.167 2.5,144.5C 2.1936,147.385 2.52693,150.052 3.5,152.5C 2.5242,163.085 2.19086,173.752 2.5,184.5C 2.5,189.5 2.5,194.5 2.5,199.5C 2.67608,227.311 2.67608,254.977 2.5,282.5C 2.20452,289.588 2.53785,296.588 3.5,303.5C 3.59868,306.237 3.26535,308.904 2.5,311.5C 1.5,311.5 0.5,311.5 -0.5,311.5C -0.5,207.5 -0.5,103.5 -0.5,-0.5 Z"/></g>
<g><path style="opacity:1" fill="#6f4b2b" d="M 276.5,26.5 C 276.5,79.1667 276.5,131.833 276.5,184.5C 274.167,184.5 271.833,184.5 269.5,184.5C 265.774,182.87 261.774,181.87 257.5,181.5C 257.579,174.893 254.579,172.56 248.5,174.5C 248.203,170.233 248.536,166.066 249.5,162C 247.165,160.48 247.332,158.98 250,157.5C 250.667,154.5 250.667,151.5 250,148.5C 249.329,147.748 248.496,147.414 247.5,147.5C 244.944,144.332 243.944,140.666 244.5,136.5C 245.234,135.292 245.567,133.959 245.5,132.5C 246.81,125.599 246.81,118.599 245.5,111.5C 245.5,110.167 245.5,108.833 245.5,107.5C 246.441,102.93 246.774,98.263 246.5,93.5C 247.822,93.67 248.989,93.3366 250,92.5C 250.5,85.1742 250.666,77.8409 250.5,70.5C 249.167,70.5 247.833,70.5 246.5,70.5C 246.763,66.3998 246.43,62.3998 245.5,58.5C 244.976,56.6943 244.309,55.0276 243.5,53.5C 245.565,45.9434 245.898,38.6101 244.5,31.5C 253.394,29.0927 262.394,27.0927 271.5,25.5C 273.135,26.0463 274.801,26.3796 276.5,26.5 Z"/></g>
<g><path style="opacity:1" fill="#5c3e24" d="M 244.5,31.5 C 245.898,38.6101 245.565,45.9434 243.5,53.5C 237.777,52.923 232.111,53.5896 226.5,55.5C 220.423,56.2498 214.423,57.2498 208.5,58.5C 203.686,57.5729 200.352,59.2396 198.5,63.5C 198.167,63.5 197.833,63.5 197.5,63.5C 192.388,61.5557 188.721,58.0557 186.5,53C 184.527,52.5045 182.527,52.3379 180.5,52.5C 180.334,57.1785 180.501,61.8452 181,66.5C 185.033,70.4267 185.533,74.7601 182.5,79.5C 181.833,79.5 181.5,79.8333 181.5,80.5C 170.02,80.7139 158.52,82.0473 147,84.5C 145.674,84.2451 144.674,83.5784 144,82.5C 143.503,80.1902 143.337,77.8568 143.5,75.5C 141.5,75.5 139.5,75.5 137.5,75.5C 137.756,67.3019 137.423,59.1352 136.5,51C 136.769,49.3925 137.603,48.2259 139,47.5C 143.091,51.3049 147.924,52.4716 153.5,51C 183.384,42.7817 213.717,36.2817 244.5,31.5 Z"/></g>
<g><path style="opacity:1" fill="#58392b" d="M 16.5,40.5 C 17.4584,40.9528 18.2917,41.6195 19,42.5C 19.3333,48.5 19.6667,54.5 20,60.5C 21.7635,61.9437 23.7635,62.9437 26,63.5C 25.9802,67.7617 27.1469,71.595 29.5,75C 30.9437,75.7805 32.277,75.6139 33.5,74.5C 31.2957,65.5801 30.9624,56.5801 32.5,47.5C 34.5668,45.4533 36.4002,45.4533 38,47.5C 38.3333,52.1667 38.6667,56.8333 39,61.5C 40.3198,63.8171 41.9864,65.8171 44,67.5C 44.1705,72.8642 44.6705,78.1975 45.5,83.5C 47.4086,84.3482 49.4086,84.6816 51.5,84.5C 50.6175,75.533 50.2841,66.533 50.5,57.5C 52.8333,57.5 55.1667,57.5 57.5,57.5C 57.5,54.8333 57.5,52.1667 57.5,49.5C 61.7785,48.0525 64.4452,49.7191 65.5,54.5C 62.5407,66.298 62.874,77.9647 66.5,89.5C 67.2565,90.7733 67.9232,90.7733 68.5,89.5C 69.2663,91.6843 69.9329,94.0177 70.5,96.5C 68.4698,98.607 66.3031,100.607 64,102.5C 63.3333,104.167 63.3333,105.833 64,107.5C 68.9063,110.98 72.7396,110.146 75.5,105C 79.1667,104.333 82.8333,104.333 86.5,105C 87.8613,106.584 88.528,108.418 88.5,110.5C 86.7838,112.447 84.6171,113.781 82,114.5C 80.9635,117.753 80.2969,121.086 80,124.5C 78.9887,125.337 77.8221,125.67 76.5,125.5C 75.4156,114.49 71.0823,112.823 63.5,120.5C 62.1667,119.5 60.8333,118.5 59.5,117.5C 56.7984,119.22 54.1318,120.887 51.5,122.5C 50.5701,118.6 50.2367,114.6 50.5,110.5C 52.335,109.878 53.5017,108.544 54,106.5C 54.4966,104.19 54.6633,101.857 54.5,99.5C 48.5725,99.5862 42.5725,100.086 36.5,101C 33.5278,99.8586 31.8611,97.6919 31.5,94.5C 30.277,93.3861 28.9437,93.2195 27.5,94C 22.2899,100.438 21.9566,106.938 26.5,113.5C 26.3646,120.862 26.6979,128.196 27.5,135.5C 23.5369,137.178 19.5369,137.511 15.5,136.5C 14.6403,132.566 14.307,128.566 14.5,124.5C 16.7343,123.181 18.0676,121.181 18.5,118.5C 17.9049,114.068 16.9049,109.735 15.5,105.5C 15.8333,104.167 16.1667,102.833 16.5,101.5C 16.2528,100.287 15.5862,99.62 14.5,99.5C 14.7778,97.6536 14.1112,96.3202 12.5,95.5C 9.32671,97.6862 5.99337,98.3529 2.5,97.5C 2.5,88.8333 2.5,80.1667 2.5,71.5C 6.14939,71.1395 9.31605,69.8062 12,67.5C 12.2382,60.4711 12.7382,53.4711 13.5,46.5C 12.9537,44.8653 12.6204,43.1986 12.5,41.5C 14.099,41.7678 15.4324,41.4345 16.5,40.5 Z"/></g>
<g><path style="opacity:1" fill="#36251e" d="M 32.5,47.5 C 30.9624,56.5801 31.2957,65.5801 33.5,74.5C 32.277,75.6139 30.9437,75.7805 29.5,75C 27.1469,71.595 25.9802,67.7617 26,63.5C 23.7635,62.9437 21.7635,61.9437 20,60.5C 19.6667,54.5 19.3333,48.5 19,42.5C 18.2917,41.6195 17.4584,40.9528 16.5,40.5C 16.5,39.1667 16.5,37.8333 16.5,36.5C 20.8725,37.0233 25.2058,37.8566 29.5,39C 30.2744,41.405 30.7744,43.905 31,46.5C 31.3826,47.056 31.8826,47.3893 32.5,47.5 Z"/></g>
<g><path style="opacity:1" fill="#5c3e2a" d="M 81.5,64.5 C 78.0977,64.6576 74.7644,64.3242 71.5,63.5C 70.6025,60.3072 69.6025,57.1405 68.5,54C 68.9469,51.0441 69.7803,48.2108 71,45.5C 75.6239,44.604 80.1239,45.2706 84.5,47.5C 84.2907,48.086 83.9574,48.586 83.5,49C 80.7737,49.1816 78.1071,49.6816 75.5,50.5C 77.2202,51.9197 79.0535,53.253 81,54.5C 81.4983,57.8168 81.665,61.1501 81.5,64.5 Z"/></g>
<g><path style="opacity:1" fill="#754b31" d="M 197.5,63.5 C 196.586,66.728 196.253,70.0613 196.5,73.5C 196.5,76.1667 196.5,78.8333 196.5,81.5C 194.095,81.8664 191.762,82.5331 189.5,83.5C 187.173,82.1768 184.84,80.8435 182.5,79.5C 185.533,74.7601 185.033,70.4267 181,66.5C 180.501,61.8452 180.334,57.1785 180.5,52.5C 182.527,52.3379 184.527,52.5045 186.5,53C 188.721,58.0557 192.388,61.5557 197.5,63.5 Z"/></g>
<g><path style="opacity:1" fill="#a17d56" d="M 243.5,53.5 C 244.309,55.0276 244.976,56.6943 245.5,58.5C 239.442,59.1816 233.442,60.1816 227.5,61.5C 226.659,59.6208 226.325,57.6208 226.5,55.5C 232.111,53.5896 237.777,52.923 243.5,53.5 Z"/></g>
<g><path style="opacity:1" fill="#704b2b" d="M 118.5,91.5 C 115.119,90.8877 112.786,92.0544 111.5,95C 113.33,99.243 113.996,103.743 113.5,108.5C 113.271,112.705 114.938,115.705 118.5,117.5C 119.735,116.66 120.735,115.66 121.5,114.5C 123.894,115.015 126.228,115.681 128.5,116.5C 128.751,119.909 128.417,123.242 127.5,126.5C 128.278,130.513 129.611,134.18 131.5,137.5C 123.441,137.727 115.441,138.394 107.5,139.5C 107.146,137.459 107.146,135.626 107.5,134C 105.676,133.34 104.343,132.173 103.5,130.5C 103.935,124.325 102.601,118.658 99.5,113.5C 102.994,108.289 101.661,106.122 95.5,107C 94.6634,108.011 94.33,109.178 94.5,110.5C 92.5,110.5 90.5,110.5 88.5,110.5C 88.528,108.418 87.8613,106.584 86.5,105C 82.8333,104.333 79.1667,104.333 75.5,105C 72.7396,110.146 68.9063,110.98 64,107.5C 63.3333,105.833 63.3333,104.167 64,102.5C 66.3031,100.607 68.4698,98.607 70.5,96.5C 69.9329,94.0177 69.2663,91.6843 68.5,89.5C 68.3341,84.4889 68.5007,79.4889 69,74.5C 70.0217,73.646 70.8551,72.646 71.5,71.5C 70.7871,68.9037 70.7871,66.2371 71.5,63.5C 74.7644,64.3242 78.0977,64.6576 81.5,64.5C 80.7293,74.0817 79.396,83.5817 77.5,93C 78.3447,96.5492 79.8447,97.0492 82,94.5C 83.4155,82.1 85.5822,70.1 88.5,58.5C 89.8333,57.5 91.1667,56.5 92.5,55.5C 94.0589,56.0736 95.5589,56.7402 97,57.5C 97.6667,60.1667 97.6667,62.8333 97,65.5C 93.8699,75.3539 91.3699,85.3539 89.5,95.5C 90.0121,98.3507 91.6787,99.6841 94.5,99.5C 95.0698,87.8827 97.2365,76.5493 101,65.5C 104.893,64.0508 108.56,62.0508 112,59.5C 114.861,60.0459 117.527,61.0459 120,62.5C 120.712,68.0277 120.546,73.5277 119.5,79C 119.861,81.449 120.528,83.7823 121.5,86C 120.242,87.7409 119.242,89.5742 118.5,91.5 Z"/></g>
<g><path style="opacity:1" fill="#916c46" d="M 226.5,55.5 C 226.325,57.6208 226.659,59.6208 227.5,61.5C 227.5,61.8333 227.5,62.1667 227.5,62.5C 226.167,62.5 224.833,62.5 223.5,62.5C 222.584,62.0183 221.584,61.685 220.5,61.5C 216.966,62.9222 213.3,63.5889 209.5,63.5C 208.699,61.9582 208.366,60.2915 208.5,58.5C 214.423,57.2498 220.423,56.2498 226.5,55.5 Z"/></g>
<g><path style="opacity:1" fill="#7c5737" d="M 208.5,58.5 C 208.366,60.2915 208.699,61.9582 209.5,63.5C 207.515,64.0475 205.849,65.0475 204.5,66.5C 201.923,66.5449 199.923,65.5449 198.5,63.5C 200.352,59.2396 203.686,57.5729 208.5,58.5 Z"/></g>
<g><path style="opacity:1" fill="#f9faf2" d="M 245.5,58.5 C 246.43,62.3998 246.763,66.3998 246.5,70.5C 246.763,74.6002 246.43,78.6002 245.5,82.5C 239.491,82.701 233.491,83.0343 227.5,83.5C 227.5,76.5 227.5,69.5 227.5,62.5C 227.5,62.1667 227.5,61.8333 227.5,61.5C 233.442,60.1816 239.442,59.1816 245.5,58.5 Z"/></g>
<g><path style="opacity:1" fill="#f9faf2" d="M 223.5,62.5 C 223.666,69.5079 223.5,76.5079 223,83.5C 217.615,84.7772 212.115,85.4438 206.5,85.5C 205.766,84.1225 205.099,82.6225 204.5,81C 205.69,76.2126 205.69,71.3792 204.5,66.5C 205.849,65.0475 207.515,64.0475 209.5,63.5C 213.3,63.5889 216.966,62.9222 220.5,61.5C 221.584,61.685 222.584,62.0183 223.5,62.5 Z"/></g>
<g><path style="opacity:1" fill="#af8b5f" d="M 197.5,63.5 C 197.833,63.5 198.167,63.5 198.5,63.5C 199.923,65.5449 201.923,66.5449 204.5,66.5C 205.69,71.3792 205.69,76.2126 204.5,81C 205.099,82.6225 205.766,84.1225 206.5,85.5C 206.5,86.8333 206.5,88.1667 206.5,89.5C 205.833,89.5 205.5,89.8333 205.5,90.5C 203.274,92.18 201.607,91.8466 200.5,89.5C 200.5,83.8333 200.5,78.1667 200.5,72.5C 199.041,72.4326 197.708,72.7659 196.5,73.5C 196.253,70.0613 196.586,66.728 197.5,63.5 Z"/></g>
<g><path style="opacity:1" fill="#7c5137" d="M 246.5,70.5 C 247.833,70.5 249.167,70.5 250.5,70.5C 250.666,77.8409 250.5,85.1742 250,92.5C 248.989,93.3366 247.822,93.67 246.5,93.5C 246.702,91.0504 246.369,88.717 245.5,86.5C 245.5,85.1667 245.5,83.8333 245.5,82.5C 246.43,78.6002 246.763,74.6002 246.5,70.5 Z"/></g>
<g><path style="opacity:1" fill="#cdb58e" d="M 200.5,89.5 C 199.167,89.5 197.833,89.5 196.5,89.5C 196.5,86.8333 196.5,84.1667 196.5,81.5C 196.5,78.8333 196.5,76.1667 196.5,73.5C 197.708,72.7659 199.041,72.4326 200.5,72.5C 200.5,78.1667 200.5,83.8333 200.5,89.5 Z"/></g>
<g><path style="opacity:1" fill="#69432a" d="M 137.5,75.5 C 139.5,75.5 141.5,75.5 143.5,75.5C 143.337,77.8568 143.503,80.1902 144,82.5C 144.674,83.5784 145.674,84.2451 147,84.5C 158.52,82.0473 170.02,80.7139 181.5,80.5C 180.955,83.8131 180.455,87.1464 180,90.5C 176.169,93.0993 172.335,93.0993 168.5,90.5C 167.5,91 166.5,91.5 165.5,92C 163.934,94.9304 163.1,98.0971 163,101.5C 162.07,104.362 160.403,106.695 158,108.5C 157.333,113.5 157.333,118.5 158,123.5C 159.464,124.459 160.297,125.792 160.5,127.5C 159.863,130.107 158.696,132.44 157,134.5C 155.376,141.46 157.21,147.127 162.5,151.5C 162.749,160.01 159.416,167.01 152.5,172.5C 150.12,169.992 147.454,167.992 144.5,166.5C 143.933,164.97 143.267,163.47 142.5,162C 138.167,161.667 133.833,161.333 129.5,161C 128.058,160.623 127.058,159.79 126.5,158.5C 127.441,153.93 127.774,149.263 127.5,144.5C 131.793,144.023 135.127,142.023 137.5,138.5C 138.147,137.726 138.48,136.726 138.5,135.5C 138.066,128.05 137.066,120.717 135.5,113.5C 137.291,100.919 137.957,88.252 137.5,75.5 Z"/></g>
<g><path style="opacity:1" fill="#8e6437" d="M 182.5,79.5 C 184.84,80.8435 187.173,82.1768 189.5,83.5C 191.762,82.5331 194.095,81.8664 196.5,81.5C 196.5,84.1667 196.5,86.8333 196.5,89.5C 196.5,91.8333 196.5,94.1667 196.5,96.5C 196.5,101.833 196.5,107.167 196.5,112.5C 196.188,119.422 196.521,126.256 197.5,133C 198.672,133.419 199.672,134.085 200.5,135C 209.174,135.463 217.841,135.963 226.5,136.5C 225.341,140.005 223.341,143.005 220.5,145.5C 221,145.833 221.5,146.167 222,146.5C 230.436,146.647 238.936,146.98 247.5,147.5C 248.496,147.414 249.329,147.748 250,148.5C 250.667,151.5 250.667,154.5 250,157.5C 247.332,158.98 247.165,160.48 249.5,162C 248.536,166.066 248.203,170.233 248.5,174.5C 246.833,174.5 245.167,174.5 243.5,174.5C 243.5,175.833 243.5,177.167 243.5,178.5C 226.185,176.504 208.851,174.504 191.5,172.5C 190.167,181.5 190.167,190.5 191.5,199.5C 188.326,200.837 185.326,202.504 182.5,204.5C 181.05,203.15 180.383,201.484 180.5,199.5C 178.801,199.66 177.134,199.494 175.5,199C 171.962,196.731 168.295,194.731 164.5,193C 161.854,192.503 159.187,192.336 156.5,192.5C 156.5,191.5 156.5,190.5 156.5,189.5C 156.433,188.041 156.766,186.708 157.5,185.5C 163.9,185.054 164.9,182.72 160.5,178.5C 162.418,169.782 166.584,162.449 173,156.5C 173.483,155.552 173.649,154.552 173.5,153.5C 174.167,149.5 172.5,147.833 168.5,148.5C 166.053,148.615 164.053,149.615 162.5,151.5C 157.21,147.127 155.376,141.46 157,134.5C 158.696,132.44 159.863,130.107 160.5,127.5C 160.297,125.792 159.464,124.459 158,123.5C 157.333,118.5 157.333,113.5 158,108.5C 160.403,106.695 162.07,104.362 163,101.5C 163.1,98.0971 163.934,94.9304 165.5,92C 166.5,91.5 167.5,91 168.5,90.5C 172.335,93.0993 176.169,93.0993 180,90.5C 180.455,87.1464 180.955,83.8131 181.5,80.5C 181.5,79.8333 181.833,79.5 182.5,79.5 Z"/></g>
<g><path style="opacity:1" fill="#b0987c" d="M 223.5,62.5 C 224.833,62.5 226.167,62.5 227.5,62.5C 227.5,69.5 227.5,76.5 227.5,83.5C 233.491,83.0343 239.491,82.701 245.5,82.5C 245.5,83.8333 245.5,85.1667 245.5,86.5C 239.838,86.9693 234.171,87.4693 228.5,88C 227.944,88.3826 227.611,88.8826 227.5,89.5C 226.292,88.7659 224.959,88.4326 223.5,88.5C 217.788,88.313 212.121,88.6463 206.5,89.5C 206.5,88.1667 206.5,86.8333 206.5,85.5C 212.115,85.4438 217.615,84.7772 223,83.5C 223.5,76.5079 223.666,69.5079 223.5,62.5 Z"/></g>
<g><path style="opacity:1" fill="#f9faf2" d="M 245.5,86.5 C 246.369,88.717 246.702,91.0504 246.5,93.5C 246.774,98.263 246.441,102.93 245.5,107.5C 239.68,107.657 233.68,107.657 227.5,107.5C 227.5,101.5 227.5,95.5 227.5,89.5C 227.611,88.8826 227.944,88.3826 228.5,88C 234.171,87.4693 239.838,86.9693 245.5,86.5 Z"/></g>
<g><path style="opacity:1" fill="#f9faf2" d="M 223.5,88.5 C 223.5,94.5 223.5,100.5 223.5,106.5C 223.189,107.478 222.522,108.145 221.5,108.5C 216.47,107.171 211.47,107.171 206.5,108.5C 206.5,107.833 206.167,107.5 205.5,107.5C 205.5,101.833 205.5,96.1667 205.5,90.5C 205.5,89.8333 205.833,89.5 206.5,89.5C 212.121,88.6463 217.788,88.313 223.5,88.5 Z"/></g>
<g><path style="opacity:1" fill="#c0ae95" d="M 223.5,88.5 C 224.959,88.4326 226.292,88.7659 227.5,89.5C 227.5,95.5 227.5,101.5 227.5,107.5C 226.292,106.766 224.959,106.433 223.5,106.5C 223.5,100.5 223.5,94.5 223.5,88.5 Z"/></g>
<g><path style="opacity:1" fill="#c0a269" d="M 196.5,89.5 C 197.833,89.5 199.167,89.5 200.5,89.5C 201.607,91.8466 203.274,92.18 205.5,90.5C 205.5,96.1667 205.5,101.833 205.5,107.5C 203.972,108.309 202.306,108.976 200.5,109.5C 200.5,105.167 200.5,100.833 200.5,96.5C 199.167,96.5 197.833,96.5 196.5,96.5C 196.5,94.1667 196.5,91.8333 196.5,89.5 Z"/></g>
<g><path style="opacity:1" fill="#43322a" d="M 14.5,99.5 C 13.0382,103.518 11.3716,107.518 9.5,111.5C 7.09709,111.552 4.76375,111.219 2.5,110.5C 2.5,106.167 2.5,101.833 2.5,97.5C 5.99337,98.3529 9.32671,97.6862 12.5,95.5C 14.1112,96.3202 14.7778,97.6536 14.5,99.5 Z"/></g>
<g><path style="opacity:1" fill="#d3bb82" d="M 196.5,96.5 C 197.833,96.5 199.167,96.5 200.5,96.5C 200.5,100.833 200.5,105.167 200.5,109.5C 200.5,110.5 200.5,111.5 200.5,112.5C 199.167,112.5 197.833,112.5 196.5,112.5C 196.5,107.167 196.5,101.833 196.5,96.5 Z"/></g>
<g><path style="opacity:1" fill="#4f3c36" d="M 118.5,91.5 C 120.591,95.4242 121.924,99.5908 122.5,104C 122.453,106.295 121.787,108.129 120.5,109.5C 118.477,107.299 116.144,106.966 113.5,108.5C 113.996,103.743 113.33,99.243 111.5,95C 112.786,92.0544 115.119,90.8877 118.5,91.5 Z"/></g>
<g><path style="opacity:1" fill="#513d31" d="M 50.5,110.5 C 48.4471,110.402 46.7804,111.069 45.5,112.5C 40.9287,111.39 36.5954,112.056 32.5,114.5C 30.9007,112.271 28.9007,111.938 26.5,113.5C 21.9566,106.938 22.2899,100.438 27.5,94C 28.9437,93.2195 30.277,93.3861 31.5,94.5C 31.8611,97.6919 33.5278,99.8586 36.5,101C 42.5725,100.086 48.5725,99.5862 54.5,99.5C 54.6633,101.857 54.4966,104.19 54,106.5C 53.5017,108.544 52.335,109.878 50.5,110.5 Z"/></g>
<g><path style="opacity:1" fill="#5b4c44" d="M 14.5,99.5 C 15.5862,99.62 16.2528,100.287 16.5,101.5C 16.1667,102.833 15.8333,104.167 15.5,105.5C 16.9049,109.735 17.9049,114.068 18.5,118.5C 18.0676,121.181 16.7343,123.181 14.5,124.5C 10.9133,120.98 9.24667,116.647 9.5,111.5C 11.3716,107.518 13.0382,103.518 14.5,99.5 Z"/></g>
<g><path style="opacity:1" fill="#563e31" d="M 99.5,113.5 C 98.8333,113.5 98.1667,113.5 97.5,113.5C 95.8102,113.144 94.8102,112.144 94.5,110.5C 94.33,109.178 94.6634,108.011 95.5,107C 101.661,106.122 102.994,108.289 99.5,113.5 Z"/></g>
<g><path style="opacity:1" fill="#63514a" d="M 120.5,109.5 C 120.629,111.216 120.962,112.883 121.5,114.5C 120.735,115.66 119.735,116.66 118.5,117.5C 114.938,115.705 113.271,112.705 113.5,108.5C 116.144,106.966 118.477,107.299 120.5,109.5 Z"/></g>
<g><path style="opacity:1" fill="#a78356" d="M 205.5,107.5 C 206.167,107.5 206.5,107.833 206.5,108.5C 206.263,109.791 206.596,110.791 207.5,111.5C 206.833,112.167 206.167,112.833 205.5,113.5C 203.883,112.962 202.216,112.629 200.5,112.5C 200.5,111.5 200.5,110.5 200.5,109.5C 202.306,108.976 203.972,108.309 205.5,107.5 Z"/></g>
<g><path style="opacity:1" fill="#b49a7d" d="M 223.5,106.5 C 224.959,106.433 226.292,106.766 227.5,107.5C 233.68,107.657 239.68,107.657 245.5,107.5C 245.5,108.833 245.5,110.167 245.5,111.5C 239.559,112.413 233.559,112.746 227.5,112.5C 227.5,117.833 227.5,123.167 227.5,128.5C 226.167,128.5 224.833,128.5 223.5,128.5C 223.666,123.156 223.499,117.823 223,112.5C 217.868,112.668 212.701,112.335 207.5,111.5C 206.596,110.791 206.263,109.791 206.5,108.5C 211.47,107.171 216.47,107.171 221.5,108.5C 222.522,108.145 223.189,107.478 223.5,106.5 Z"/></g>
<g><path style="opacity:1" fill="#432b1e" d="M 2.5,110.5 C 4.76375,111.219 7.09709,111.552 9.5,111.5C 9.24667,116.647 10.9133,120.98 14.5,124.5C 14.307,128.566 14.6403,132.566 15.5,136.5C 15.4894,138.017 14.8228,139.184 13.5,140C 9.56431,140.611 5.89765,141.777 2.5,143.5C 2.75453,132.554 2.75453,121.554 2.5,110.5 Z"/></g>
<g><path style="opacity:1" fill="#432b1e" d="M 50.5,110.5 C 50.2367,114.6 50.5701,118.6 51.5,122.5C 51.5,126.5 51.5,130.5 51.5,134.5C 49.3619,135.808 47.3619,135.475 45.5,133.5C 45.5,126.5 45.5,119.5 45.5,112.5C 46.7804,111.069 48.4471,110.402 50.5,110.5 Z"/></g>
<g><path style="opacity:1" fill="#7c5131" d="M 88.5,110.5 C 90.5,110.5 92.5,110.5 94.5,110.5C 94.8102,112.144 95.8102,113.144 97.5,113.5C 98.6281,119.141 99.6281,124.808 100.5,130.5C 101.5,130.5 102.5,130.5 103.5,130.5C 104.343,132.173 105.676,133.34 107.5,134C 107.146,135.626 107.146,137.459 107.5,139.5C 89.4746,140.15 71.4746,141.15 53.5,142.5C 53.6633,140.143 53.4966,137.81 53,135.5C 52.6174,134.944 52.1174,134.611 51.5,134.5C 51.5,130.5 51.5,126.5 51.5,122.5C 54.1318,120.887 56.7984,119.22 59.5,117.5C 60.8333,118.5 62.1667,119.5 63.5,120.5C 71.0823,112.823 75.4156,114.49 76.5,125.5C 77.8221,125.67 78.9887,125.337 80,124.5C 80.2969,121.086 80.9635,117.753 82,114.5C 84.6171,113.781 86.7838,112.447 88.5,110.5 Z"/></g>
<g><path style="opacity:1" fill="#6f4431" d="M 45.5,112.5 C 45.5,119.5 45.5,126.5 45.5,133.5C 45.3893,134.117 45.056,134.617 44.5,135C 40.7789,135.678 37.1122,135.511 33.5,134.5C 32.9457,127.847 32.6123,121.18 32.5,114.5C 36.5954,112.056 40.9287,111.39 45.5,112.5 Z"/></g>
<g><path style="opacity:1" fill="#f9faec" d="M 207.5,111.5 C 212.701,112.335 217.868,112.668 223,112.5C 223.499,117.823 223.666,123.156 223.5,128.5C 223.461,129.583 223.127,130.583 222.5,131.5C 217.533,132.662 212.533,132.829 207.5,132C 207,131.5 206.5,131 206,130.5C 205.501,124.843 205.334,119.176 205.5,113.5C 206.167,112.833 206.833,112.167 207.5,111.5 Z"/></g>
<g><path style="opacity:1" fill="#f9faf2" d="M 245.5,111.5 C 246.81,118.599 246.81,125.599 245.5,132.5C 240.167,132.5 234.833,132.5 229.5,132.5C 227.896,131.713 227.229,130.38 227.5,128.5C 227.5,123.167 227.5,117.833 227.5,112.5C 233.559,112.746 239.559,112.413 245.5,111.5 Z"/></g>
<g><path style="opacity:1" fill="#3d2518" d="M 32.5,114.5 C 32.6123,121.18 32.9457,127.847 33.5,134.5C 33.5,135.833 33.5,137.167 33.5,138.5C 30.6798,138.913 28.6798,137.913 27.5,135.5C 26.6979,128.196 26.3646,120.862 26.5,113.5C 28.9007,111.938 30.9007,112.271 32.5,114.5 Z"/></g>
<g><path style="opacity:1" fill="#5c3824" d="M 128.5,112.5 C 130.806,112.993 133.139,113.326 135.5,113.5C 137.066,120.717 138.066,128.05 138.5,135.5C 138.48,136.726 138.147,137.726 137.5,138.5C 135.621,137.659 133.621,137.325 131.5,137.5C 129.611,134.18 128.278,130.513 127.5,126.5C 128.417,123.242 128.751,119.909 128.5,116.5C 128.5,115.167 128.5,113.833 128.5,112.5 Z"/></g>
<g><path style="opacity:1" fill="#c3a46f" d="M 196.5,112.5 C 197.833,112.5 199.167,112.5 200.5,112.5C 202.216,112.629 203.883,112.962 205.5,113.5C 205.334,119.176 205.501,124.843 206,130.5C 206.5,131 207,131.5 207.5,132C 212.533,132.829 217.533,132.662 222.5,131.5C 223.127,130.583 223.461,129.583 223.5,128.5C 224.833,128.5 226.167,128.5 227.5,128.5C 227.229,130.38 227.896,131.713 229.5,132.5C 229.5,133.833 229.5,135.167 229.5,136.5C 228.5,136.5 227.5,136.5 226.5,136.5C 217.841,135.963 209.174,135.463 200.5,135C 199.672,134.085 198.672,133.419 197.5,133C 196.521,126.256 196.188,119.422 196.5,112.5 Z"/></g>
<g><path style="opacity:1" fill="#826a50" d="M 97.5,113.5 C 98.1667,113.5 98.8333,113.5 99.5,113.5C 102.601,118.658 103.935,124.325 103.5,130.5C 102.5,130.5 101.5,130.5 100.5,130.5C 99.6281,124.808 98.6281,119.141 97.5,113.5 Z"/></g>
<g><path style="opacity:1" fill="#cdbb8e" d="M 229.5,132.5 C 234.833,132.5 240.167,132.5 245.5,132.5C 245.567,133.959 245.234,135.292 244.5,136.5C 239.5,136.5 234.5,136.5 229.5,136.5C 229.5,135.167 229.5,133.833 229.5,132.5 Z"/></g>
<g><path style="opacity:1" fill="#553724" d="M 45.5,133.5 C 47.3619,135.475 49.3619,135.808 51.5,134.5C 52.1174,134.611 52.6174,134.944 53,135.5C 53.4966,137.81 53.6633,140.143 53.5,142.5C 52.8333,142.5 52.1667,142.5 51.5,142.5C 37.3451,143.597 23.1784,144.597 9,145.5C 6.74463,145.434 4.57796,145.101 2.5,144.5C 2.5,144.167 2.5,143.833 2.5,143.5C 5.89765,141.777 9.56431,140.611 13.5,140C 14.8228,139.184 15.4894,138.017 15.5,136.5C 19.5369,137.511 23.5369,137.178 27.5,135.5C 28.6798,137.913 30.6798,138.913 33.5,138.5C 33.5,137.167 33.5,135.833 33.5,134.5C 37.1122,135.511 40.7789,135.678 44.5,135C 45.056,134.617 45.3893,134.117 45.5,133.5 Z"/></g>
<g><path style="opacity:1" fill="#8e5d37" d="M 226.5,136.5 C 227.5,136.5 228.5,136.5 229.5,136.5C 234.5,136.5 239.5,136.5 244.5,136.5C 243.944,140.666 244.944,144.332 247.5,147.5C 238.936,146.98 230.436,146.647 222,146.5C 221.5,146.167 221,145.833 220.5,145.5C 223.341,143.005 225.341,140.005 226.5,136.5 Z"/></g>
<g><path style="opacity:1" fill="#4a2b1e" d="M 131.5,137.5 C 133.621,137.325 135.621,137.659 137.5,138.5C 135.127,142.023 131.793,144.023 127.5,144.5C 117.642,143.277 107.975,143.944 98.5,146.5C 85.7587,146.271 73.092,146.938 60.5,148.5C 57.5,148.5 54.5,148.5 51.5,148.5C 51.5,146.5 51.5,144.5 51.5,142.5C 52.1667,142.5 52.8333,142.5 53.5,142.5C 71.4746,141.15 89.4746,140.15 107.5,139.5C 115.441,138.394 123.441,137.727 131.5,137.5 Z"/></g>
<g><path style="opacity:1" fill="#5c4431" d="M 182.5,138.5 C 187.078,139.843 188.578,142.843 187,147.5C 186.311,148.357 185.478,149.023 184.5,149.5C 180.449,146.261 179.782,142.594 182.5,138.5 Z"/></g>
<g><path style="opacity:1" fill="#371f18" d="M 51.5,142.5 C 51.5,144.5 51.5,146.5 51.5,148.5C 35.3716,148.89 19.3716,150.223 3.5,152.5C 2.52693,150.052 2.1936,147.385 2.5,144.5C 4.57796,145.101 6.74463,145.434 9,145.5C 23.1784,144.597 37.3451,143.597 51.5,142.5 Z"/></g>
<g><path style="opacity:1" fill="#805536" d="M 127.5,144.5 C 127.774,149.263 127.441,153.93 126.5,158.5C 122.213,157.305 117.88,157.305 113.5,158.5C 112.127,158.657 110.793,158.49 109.5,158C 108.292,154.906 106.292,153.74 103.5,154.5C 101.5,153.833 99.5,153.167 97.5,152.5C 98.1495,150.565 98.4828,148.565 98.5,146.5C 107.975,143.944 117.642,143.277 127.5,144.5 Z"/></g>
<g><path style="opacity:1" fill="#754b31" d="M 98.5,146.5 C 98.4828,148.565 98.1495,150.565 97.5,152.5C 91.1308,152.653 84.7974,152.32 78.5,151.5C 74.5841,152.645 70.5841,153.478 66.5,154C 64.7215,156.135 64.0548,158.635 64.5,161.5C 62.3792,161.675 60.3792,161.341 58.5,160.5C 58.4729,158.801 57.8062,157.467 56.5,156.5C 59.4074,154.685 60.7407,152.019 60.5,148.5C 73.092,146.938 85.7587,146.271 98.5,146.5 Z"/></g>
<g><path style="opacity:1" fill="#644432" d="M 51.5,148.5 C 54.5,148.5 57.5,148.5 60.5,148.5C 60.7407,152.019 59.4074,154.685 56.5,156.5C 49.0748,154.466 41.5748,153.799 34,154.5C 32.9701,154.836 32.4701,155.503 32.5,156.5C 30.6208,155.659 28.6208,155.325 26.5,155.5C 26.1954,159.02 25.362,162.353 24,165.5C 20.6064,164.544 17.1064,164.211 13.5,164.5C 13.3601,166.124 14.0267,167.29 15.5,168C 18.3926,169.149 21.3926,169.649 24.5,169.5C 29.9447,170.547 35.4447,171.547 41,172.5C 42.4343,172.862 43.6009,173.528 44.5,174.5C 42.7709,180.519 41.7709,186.852 41.5,193.5C 39.0672,193.273 37.4006,194.273 36.5,196.5C 25.5178,191.631 14.1845,187.631 2.5,184.5C 2.19086,173.752 2.5242,163.085 3.5,152.5C 19.3716,150.223 35.3716,148.89 51.5,148.5 Z"/></g>
<g><path style="opacity:1" fill="#524438" d="M 168.5,148.5 C 168.5,150.5 168.5,152.5 168.5,154.5C 170.292,154.634 171.958,154.301 173.5,153.5C 173.649,154.552 173.483,155.552 173,156.5C 166.584,162.449 162.418,169.782 160.5,178.5C 157.721,178.721 155.054,178.388 152.5,177.5C 152.5,175.833 152.5,174.167 152.5,172.5C 159.416,167.01 162.749,160.01 162.5,151.5C 164.053,149.615 166.053,148.615 168.5,148.5 Z"/></g>
<g><path style="opacity:1" fill="#7c7063" d="M 168.5,148.5 C 172.5,147.833 174.167,149.5 173.5,153.5C 171.958,154.301 170.292,154.634 168.5,154.5C 168.5,152.5 168.5,150.5 168.5,148.5 Z"/></g>
<g><path style="opacity:1" fill="#ae7043" d="M 78.5,151.5 C 77.3157,152.688 77.3157,153.855 78.5,155C 86.5137,155.944 94.5137,156.778 102.5,157.5C 102.077,158.265 101.743,159.098 101.5,160C 102.856,161.567 103.523,163.4 103.5,165.5C 102.29,165.932 101.29,166.599 100.5,167.5C 98.4862,167.392 96.8195,168.058 95.5,169.5C 87.4908,168.267 79.4908,166.601 71.5,164.5C 69.7211,162.656 67.3878,161.99 64.5,162.5C 64.5,162.167 64.5,161.833 64.5,161.5C 64.0548,158.635 64.7215,156.135 66.5,154C 70.5841,153.478 74.5841,152.645 78.5,151.5 Z"/></g>
<g><path style="opacity:1" fill="#b39162" d="M 78.5,151.5 C 84.7974,152.32 91.1308,152.653 97.5,152.5C 99.5,153.167 101.5,153.833 103.5,154.5C 102.89,155.391 102.557,156.391 102.5,157.5C 94.5137,156.778 86.5137,155.944 78.5,155C 77.3157,153.855 77.3157,152.688 78.5,151.5 Z"/></g>
<g><path style="opacity:1" fill="#c5b281" d="M 56.5,156.5 C 57.8062,157.467 58.4729,158.801 58.5,160.5C 58.5,160.833 58.5,161.167 58.5,161.5C 55.7628,161.401 53.0961,161.735 50.5,162.5C 44.2565,160.61 38.2565,158.61 32.5,156.5C 32.4701,155.503 32.9701,154.836 34,154.5C 41.5748,153.799 49.0748,154.466 56.5,156.5 Z"/></g>
<g><path style="opacity:1" fill="#83583e" d="M 32.5,156.5 C 38.2565,158.61 44.2565,160.61 50.5,162.5C 50.5,164.167 50.5,165.833 50.5,167.5C 49.8333,168.5 49.1667,169.5 48.5,170.5C 40.9458,168.992 33.4458,167.325 26,165.5C 24.8118,166.563 24.3118,167.897 24.5,169.5C 21.3926,169.649 18.3926,169.149 15.5,168C 14.0267,167.29 13.3601,166.124 13.5,164.5C 17.1064,164.211 20.6064,164.544 24,165.5C 25.362,162.353 26.1954,159.02 26.5,155.5C 28.6208,155.325 30.6208,155.659 32.5,156.5 Z"/></g>
<g><path style="opacity:1" fill="#d7c593" d="M 113.5,158.5 C 113.366,160.292 113.699,161.958 114.5,163.5C 112.5,163.833 110.5,164.167 108.5,164.5C 108.567,165.959 108.234,167.292 107.5,168.5C 105.77,167.974 104.436,166.974 103.5,165.5C 103.523,163.4 102.856,161.567 101.5,160C 101.743,159.098 102.077,158.265 102.5,157.5C 102.557,156.391 102.89,155.391 103.5,154.5C 106.292,153.74 108.292,154.906 109.5,158C 110.793,158.49 112.127,158.657 113.5,158.5 Z"/></g>
<g><path style="opacity:1" fill="#d9d49b" d="M 126.5,158.5 C 127.058,159.79 128.058,160.623 129.5,161C 133.833,161.333 138.167,161.667 142.5,162C 143.267,163.47 143.933,164.97 144.5,166.5C 138.217,169.555 131.55,171.555 124.5,172.5C 124.141,170.629 123.141,169.129 121.5,168C 118.761,166.974 116.428,165.474 114.5,163.5C 113.699,161.958 113.366,160.292 113.5,158.5C 117.88,157.305 122.213,157.305 126.5,158.5 Z"/></g>
<g><path style="opacity:1" fill="#d3af6f" d="M 58.5,161.5 C 60.2369,166.749 61.7369,172.082 63,177.5C 64.7742,178.965 66.6075,180.298 68.5,181.5C 68.5,183.167 68.5,184.833 68.5,186.5C 65.5,187.833 62.5,187.833 59.5,186.5C 59.3259,184.139 58.9926,181.806 58.5,179.5C 57.5,179.5 56.5,179.5 55.5,179.5C 56.0219,174.549 54.3553,170.549 50.5,167.5C 50.5,165.833 50.5,164.167 50.5,162.5C 53.0961,161.735 55.7628,161.401 58.5,161.5 Z"/></g>
<g><path style="opacity:1" fill="#ba8f63" d="M 64.5,162.5 C 67.3878,161.99 69.7211,162.656 71.5,164.5C 71.1344,165.695 70.301,166.361 69,166.5C 67.5,166 66,165.5 64.5,165C 63.2264,164.023 63.2264,163.189 64.5,162.5 Z"/></g>
<g><path style="opacity:1" fill="#a86a3e" d="M 114.5,163.5 C 116.428,165.474 118.761,166.974 121.5,168C 123.141,169.129 124.141,170.629 124.5,172.5C 124.5,175.833 124.5,179.167 124.5,182.5C 124.557,183.609 124.89,184.609 125.5,185.5C 122.57,186.299 119.57,186.632 116.5,186.5C 116.67,185.178 116.337,184.011 115.5,183C 110.475,182.414 108.142,179.581 108.5,174.5C 107.675,173.614 106.675,173.281 105.5,173.5C 106.167,171.833 106.833,170.167 107.5,168.5C 108.234,167.292 108.567,165.959 108.5,164.5C 110.5,164.167 112.5,163.833 114.5,163.5 Z"/></g>
<g><path style="opacity:1" fill="#a97145" d="M 58.5,160.5 C 60.3792,161.341 62.3792,161.675 64.5,161.5C 64.5,161.833 64.5,162.167 64.5,162.5C 63.2264,163.189 63.2264,164.023 64.5,165C 66,165.5 67.5,166 69,166.5C 70.301,166.361 71.1344,165.695 71.5,164.5C 79.4908,166.601 87.4908,168.267 95.5,169.5C 95.6775,170.695 96.0109,171.862 96.5,173C 94.9872,174.879 94.3205,177.046 94.5,179.5C 93.8333,180.167 93.1667,180.833 92.5,181.5C 92.1667,181.5 91.8333,181.5 91.5,181.5C 88.2139,180.793 84.8806,180.46 81.5,180.5C 81.5,181.5 81.5,182.5 81.5,183.5C 77.9512,182.737 74.4512,181.737 71,180.5C 70.0979,180.743 69.2646,181.077 68.5,181.5C 66.6075,180.298 64.7742,178.965 63,177.5C 61.7369,172.082 60.2369,166.749 58.5,161.5C 58.5,161.167 58.5,160.833 58.5,160.5 Z"/></g>
<g><path style="opacity:1" fill="#9b7650" d="M 48.5,170.5 C 48.5,171.167 48.5,171.833 48.5,172.5C 47.1667,173.167 45.8333,173.833 44.5,174.5C 43.6009,173.528 42.4343,172.862 41,172.5C 35.4447,171.547 29.9447,170.547 24.5,169.5C 24.3118,167.897 24.8118,166.563 26,165.5C 33.4458,167.325 40.9458,168.992 48.5,170.5 Z"/></g>
<g><path style="opacity:1" fill="#ece6ae" d="M 144.5,166.5 C 147.454,167.992 150.12,169.992 152.5,172.5C 152.5,174.167 152.5,175.833 152.5,177.5C 152.5,178.167 152.167,178.5 151.5,178.5C 142.536,180.093 133.536,181.426 124.5,182.5C 124.5,179.167 124.5,175.833 124.5,172.5C 131.55,171.555 138.217,169.555 144.5,166.5 Z"/></g>
<g><path style="opacity:1" fill="#b18b60" d="M 50.5,167.5 C 54.3553,170.549 56.0219,174.549 55.5,179.5C 56.5,179.5 57.5,179.5 58.5,179.5C 58.9926,181.806 59.3259,184.139 59.5,186.5C 58.8485,187.091 58.1818,187.757 57.5,188.5C 55.9309,187.286 55.0976,185.619 55,183.5C 54,182.833 53,182.167 52,181.5C 51.8184,178.774 51.3184,176.107 50.5,173.5C 49.8165,173.137 49.1499,172.804 48.5,172.5C 48.5,171.833 48.5,171.167 48.5,170.5C 49.1667,169.5 49.8333,168.5 50.5,167.5 Z"/></g>
<g><path style="opacity:1" fill="#d9c88e" d="M 100.5,167.5 C 101.359,171.447 101.192,175.447 100,179.5C 98.1722,180.752 96.3388,180.752 94.5,179.5C 94.3205,177.046 94.9872,174.879 96.5,173C 96.0109,171.862 95.6775,170.695 95.5,169.5C 96.8195,168.058 98.4862,167.392 100.5,167.5 Z"/></g>
<g><path style="opacity:1" fill="#8e633e" d="M 243.5,178.5 C 243.5,180.167 243.5,181.833 243.5,183.5C 240.834,183.933 238.168,184.433 235.5,185C 234.944,185.383 234.611,185.883 234.5,186.5C 232.727,187.314 232.227,188.648 233,190.5C 236.307,192.417 239.473,194.417 242.5,196.5C 242.054,199.01 242.72,201.01 244.5,202.5C 243.657,206.846 241.157,209.846 237,211.5C 235.991,213.025 235.491,214.692 235.5,216.5C 240.225,216.761 244.559,218.095 248.5,220.5C 248.5,220.833 248.5,221.167 248.5,221.5C 248.068,222.71 247.401,223.71 246.5,224.5C 239.852,223.283 233.518,221.283 227.5,218.5C 228.234,217.292 228.567,215.959 228.5,214.5C 220.49,212.442 212.49,210.275 204.5,208C 201.633,207.199 198.966,207.366 196.5,208.5C 195.542,208.047 194.708,207.381 194,206.5C 193.61,203.896 192.776,201.562 191.5,199.5C 190.167,190.5 190.167,181.5 191.5,172.5C 208.851,174.504 226.185,176.504 243.5,178.5 Z"/></g>
<g><path style="opacity:1" fill="#885131" d="M 105.5,173.5 C 106.675,173.281 107.675,173.614 108.5,174.5C 108.142,179.581 110.475,182.414 115.5,183C 116.337,184.011 116.67,185.178 116.5,186.5C 112.76,186.241 109.094,186.574 105.5,187.5C 104.482,186.807 103.482,186.141 102.5,185.5C 102.599,181.152 103.599,177.152 105.5,173.5 Z"/></g>
<g><path style="opacity:1" fill="#63442a" d="M 257.5,181.5 C 253.833,182.167 250.167,182.833 246.5,183.5C 245.5,183.5 244.5,183.5 243.5,183.5C 243.5,181.833 243.5,180.167 243.5,178.5C 243.5,177.167 243.5,175.833 243.5,174.5C 245.167,174.5 246.833,174.5 248.5,174.5C 254.579,172.56 257.579,174.893 257.5,181.5 Z"/></g>
<g><path style="opacity:1" fill="#d4b47c" d="M 152.5,177.5 C 155.054,178.388 157.721,178.721 160.5,178.5C 164.9,182.72 163.9,185.054 157.5,185.5C 153.628,185.242 149.961,185.909 146.5,187.5C 141.257,188.93 135.924,189.93 130.5,190.5C 130.5,189.5 130.5,188.5 130.5,187.5C 137.599,186.351 144.432,184.351 151,181.5C 151.483,180.552 151.649,179.552 151.5,178.5C 152.167,178.5 152.5,178.167 152.5,177.5 Z"/></g>
<g><path style="opacity:1" fill="#e0ce9b" d="M 151.5,178.5 C 151.649,179.552 151.483,180.552 151,181.5C 144.432,184.351 137.599,186.351 130.5,187.5C 128.219,187.923 126.552,187.256 125.5,185.5C 124.89,184.609 124.557,183.609 124.5,182.5C 133.536,181.426 142.536,180.093 151.5,178.5 Z"/></g>
<g><path style="opacity:1" fill="#baa374" d="M 103.5,165.5 C 104.436,166.974 105.77,167.974 107.5,168.5C 106.833,170.167 106.167,171.833 105.5,173.5C 103.599,177.152 102.599,181.152 102.5,185.5C 101.365,187.213 99.698,187.88 97.5,187.5C 97.6495,186.448 97.4828,185.448 97,184.5C 95.1222,183.947 93.6222,182.947 92.5,181.5C 93.1667,180.833 93.8333,180.167 94.5,179.5C 96.3388,180.752 98.1722,180.752 100,179.5C 101.192,175.447 101.359,171.447 100.5,167.5C 101.29,166.599 102.29,165.932 103.5,165.5 Z"/></g>
<g><path style="opacity:1" fill="#8b5333" d="M 81.5,183.5 C 84.4606,184.323 87.4606,184.99 90.5,185.5C 91.1667,187.167 91.8333,188.833 92.5,190.5C 91.7109,190.783 91.0442,191.283 90.5,192C 83.4197,192.795 76.4197,192.628 69.5,191.5C 69.7845,189.585 69.4511,187.919 68.5,186.5C 68.5,184.833 68.5,183.167 68.5,181.5C 69.2646,181.077 70.0979,180.743 71,180.5C 74.4512,181.737 77.9512,182.737 81.5,183.5 Z"/></g>
<g><path style="opacity:1" fill="#b49663" d="M 91.5,181.5 C 90.7659,182.708 90.4326,184.041 90.5,185.5C 87.4606,184.99 84.4606,184.323 81.5,183.5C 81.5,182.5 81.5,181.5 81.5,180.5C 84.8806,180.46 88.2139,180.793 91.5,181.5 Z"/></g>
<g><path style="opacity:1" fill="#cea16a" d="M 48.5,172.5 C 49.1499,172.804 49.8165,173.137 50.5,173.5C 51.3184,176.107 51.8184,178.774 52,181.5C 53,182.167 54,182.833 55,183.5C 55.0976,185.619 55.9309,187.286 57.5,188.5C 58.1818,187.757 58.8485,187.091 59.5,186.5C 62.5,187.833 65.5,187.833 68.5,186.5C 69.4511,187.919 69.7845,189.585 69.5,191.5C 69.5858,192.496 69.2524,193.329 68.5,194C 63.664,194.446 59.3307,195.946 55.5,198.5C 54.448,198.649 53.448,198.483 52.5,198C 51.8448,196.513 50.8448,195.347 49.5,194.5C 47.9884,195.991 46.9884,197.824 46.5,200C 43.4052,201.534 40.4052,201.701 37.5,200.5C 36.7659,199.292 36.4326,197.959 36.5,196.5C 37.4006,194.273 39.0672,193.273 41.5,193.5C 41.7709,186.852 42.7709,180.519 44.5,174.5C 45.8333,173.833 47.1667,173.167 48.5,172.5 Z"/></g>
<g><path style="opacity:1" fill="#e0ce8e" d="M 91.5,181.5 C 91.8333,181.5 92.1667,181.5 92.5,181.5C 93.6222,182.947 95.1222,183.947 97,184.5C 97.4828,185.448 97.6495,186.448 97.5,187.5C 97.5,188.5 97.5,189.5 97.5,190.5C 96.209,190.263 95.209,190.596 94.5,191.5C 93.5084,191.672 92.8417,191.338 92.5,190.5C 91.8333,188.833 91.1667,187.167 90.5,185.5C 90.4326,184.041 90.7659,182.708 91.5,181.5 Z"/></g>
<g><path style="opacity:1" fill="#56443d" d="M 257.5,181.5 C 261.774,181.87 265.774,182.87 269.5,184.5C 266.861,188.162 263.194,190.329 258.5,191C 257.748,191.671 257.414,192.504 257.5,193.5C 253.431,192.311 249.431,191.311 245.5,190.5C 246.369,188.283 246.702,185.95 246.5,183.5C 250.167,182.833 253.833,182.167 257.5,181.5 Z"/></g>
<g><path style="opacity:1" fill="#6b5749" d="M 243.5,183.5 C 244.5,183.5 245.5,183.5 246.5,183.5C 246.702,185.95 246.369,188.283 245.5,190.5C 241.463,189.935 237.797,188.601 234.5,186.5C 234.611,185.883 234.944,185.383 235.5,185C 238.168,184.433 240.834,183.933 243.5,183.5 Z"/></g>
<g><path style="opacity:1" fill="#56382a" d="M 2.5,184.5 C 14.1845,187.631 25.5178,191.631 36.5,196.5C 36.4326,197.959 36.7659,199.292 37.5,200.5C 37.0667,203.259 35.4,204.592 32.5,204.5C 32.5,205.833 32.5,207.167 32.5,208.5C 22.5825,205.082 12.5825,202.082 2.5,199.5C 2.5,194.5 2.5,189.5 2.5,184.5 Z"/></g>
<g><path style="opacity:1" fill="#433831" d="M 269.5,184.5 C 270.357,186.403 271.023,188.403 271.5,190.5C 271.356,192.885 271.022,195.218 270.5,197.5C 266,196.626 261.667,195.293 257.5,193.5C 257.414,192.504 257.748,191.671 258.5,191C 263.194,190.329 266.861,188.162 269.5,184.5 Z"/></g>
<g><path style="opacity:1" fill="#312524" d="M 269.5,184.5 C 271.833,184.5 274.167,184.5 276.5,184.5C 276.5,189.5 276.5,194.5 276.5,199.5C 274.302,199.125 272.302,198.458 270.5,197.5C 271.022,195.218 271.356,192.885 271.5,190.5C 271.023,188.403 270.357,186.403 269.5,184.5 Z"/></g>
<g><path style="opacity:1" fill="#c79c63" d="M 102.5,185.5 C 103.482,186.141 104.482,186.807 105.5,187.5C 109.094,186.574 112.76,186.241 116.5,186.5C 119.57,186.632 122.57,186.299 125.5,185.5C 126.552,187.256 128.219,187.923 130.5,187.5C 130.5,188.5 130.5,189.5 130.5,190.5C 120.528,192.496 110.528,194.496 100.5,196.5C 100.586,195.504 100.252,194.671 99.5,194C 97.256,193.95 95.5893,193.117 94.5,191.5C 95.209,190.596 96.209,190.263 97.5,190.5C 97.5,189.5 97.5,188.5 97.5,187.5C 99.698,187.88 101.365,187.213 102.5,185.5 Z"/></g>
<g><path style="opacity:1" fill="#a78356" d="M 157.5,185.5 C 156.766,186.708 156.433,188.041 156.5,189.5C 153.763,189.401 151.096,189.735 148.5,190.5C 147.599,189.71 146.932,188.71 146.5,187.5C 149.961,185.909 153.628,185.242 157.5,185.5 Z"/></g>
<g><path style="opacity:1" fill="#1f1313" d="M 234.5,186.5 C 237.797,188.601 241.463,189.935 245.5,190.5C 249.431,191.311 253.431,192.311 257.5,193.5C 261.667,195.293 266,196.626 270.5,197.5C 272.302,198.458 274.302,199.125 276.5,199.5C 276.5,201.167 276.5,202.833 276.5,204.5C 275.5,204.5 274.5,204.5 273.5,204.5C 268.728,202.722 263.728,201.389 258.5,200.5C 255.456,198.989 252.122,198.322 248.5,198.5C 246.421,198.029 244.421,197.363 242.5,196.5C 239.473,194.417 236.307,192.417 233,190.5C 232.227,188.648 232.727,187.314 234.5,186.5 Z"/></g>
<g><path style="opacity:1" fill="#633d2a" d="M 146.5,187.5 C 146.932,188.71 147.599,189.71 148.5,190.5C 147.612,193.054 147.279,195.721 147.5,198.5C 145.958,197.699 144.292,197.366 142.5,197.5C 142.5,196.167 142.5,194.833 142.5,193.5C 137.523,193.581 132.857,194.581 128.5,196.5C 118.918,197.881 109.585,199.881 100.5,202.5C 92.686,204.041 85.0193,205.707 77.5,207.5C 68.6343,208.924 59.801,210.591 51,212.5C 49.1878,212.507 47.6878,211.84 46.5,210.5C 42.7721,211.377 39.1055,212.377 35.5,213.5C 34.8333,211.833 34.1667,210.167 33.5,208.5C 50.7046,206.519 67.7046,203.519 84.5,199.5C 89.9238,198.93 95.2571,197.93 100.5,196.5C 110.528,194.496 120.528,192.496 130.5,190.5C 135.924,189.93 141.257,188.93 146.5,187.5 Z"/></g>
<g><path style="opacity:1" fill="#d9b575" d="M 156.5,189.5 C 156.5,190.5 156.5,191.5 156.5,192.5C 156.714,194.144 156.38,195.644 155.5,197C 152.986,198.252 150.32,198.752 147.5,198.5C 147.279,195.721 147.612,193.054 148.5,190.5C 151.096,189.735 153.763,189.401 156.5,189.5 Z"/></g>
<g><path style="opacity:1" fill="#b38559" d="M 92.5,190.5 C 92.8417,191.338 93.5084,191.672 94.5,191.5C 95.5893,193.117 97.256,193.95 99.5,194C 100.252,194.671 100.586,195.504 100.5,196.5C 95.2571,197.93 89.9238,198.93 84.5,199.5C 83.8478,198.275 82.6811,197.608 81,197.5C 74.4317,199.071 67.765,200.071 61,200.5C 58.7047,200.453 56.8714,199.787 55.5,198.5C 59.3307,195.946 63.664,194.446 68.5,194C 69.2524,193.329 69.5858,192.496 69.5,191.5C 76.4197,192.628 83.4197,192.795 90.5,192C 91.0442,191.283 91.7109,190.783 92.5,190.5 Z"/></g>
<g><path style="opacity:1" fill="#643e2b" d="M 156.5,192.5 C 159.187,192.336 161.854,192.503 164.5,193C 168.295,194.731 171.962,196.731 175.5,199C 177.134,199.494 178.801,199.66 180.5,199.5C 180.383,201.484 181.05,203.15 182.5,204.5C 185.326,202.504 188.326,200.837 191.5,199.5C 192.776,201.562 193.61,203.896 194,206.5C 194.708,207.381 195.542,208.047 196.5,208.5C 196.5,209.167 196.5,209.833 196.5,210.5C 196.039,212.55 195.372,214.55 194.5,216.5C 190.891,217.808 187.891,219.808 185.5,222.5C 184.504,222.414 183.671,222.748 183,223.5C 181.961,225.746 180.794,227.913 179.5,230C 180.056,230.383 180.389,230.883 180.5,231.5C 180.217,234.165 179.883,236.499 179.5,238.5C 177.558,241.386 175.892,244.386 174.5,247.5C 173.5,247.5 172.5,247.5 171.5,247.5C 170.42,244.353 168.253,242.353 165,241.5C 160.796,243.471 156.629,243.804 152.5,242.5C 151.773,229.928 151.773,217.428 152.5,205C 151.383,203.108 149.716,202.275 147.5,202.5C 147.5,201.167 147.5,199.833 147.5,198.5C 150.32,198.752 152.986,198.252 155.5,197C 156.38,195.644 156.714,194.144 156.5,192.5 Z"/></g>
<g><path style="opacity:1" fill="#cda269" d="M 142.5,197.5 C 138.678,199.122 134.678,200.122 130.5,200.5C 128.896,199.713 128.229,198.38 128.5,196.5C 132.857,194.581 137.523,193.581 142.5,193.5C 142.5,194.833 142.5,196.167 142.5,197.5 Z"/></g>
<g><path style="opacity:1" fill="#956443" d="M 55.5,198.5 C 56.8714,199.787 58.7047,200.453 61,200.5C 67.765,200.071 74.4317,199.071 81,197.5C 82.6811,197.608 83.8478,198.275 84.5,199.5C 67.7046,203.519 50.7046,206.519 33.5,208.5C 33.1667,208.5 32.8333,208.5 32.5,208.5C 32.5,207.167 32.5,205.833 32.5,204.5C 35.4,204.592 37.0667,203.259 37.5,200.5C 40.4052,201.701 43.4052,201.534 46.5,200C 46.9884,197.824 47.9884,195.991 49.5,194.5C 50.8448,195.347 51.8448,196.513 52.5,198C 53.448,198.483 54.448,198.649 55.5,198.5 Z"/></g>
<g><path style="opacity:1" fill="#b48356" d="M 128.5,196.5 C 128.229,198.38 128.896,199.713 130.5,200.5C 125.372,202.198 120.039,203.531 114.5,204.5C 111.008,204.446 108.008,205.446 105.5,207.5C 104.5,207.5 103.5,207.5 102.5,207.5C 102.204,205.597 101.537,203.93 100.5,202.5C 109.585,199.881 118.918,197.881 128.5,196.5 Z"/></g>
<g><path style="opacity:1" fill="#3d2b1e" d="M 242.5,196.5 C 244.421,197.363 246.421,198.029 248.5,198.5C 248.833,201.5 247.5,202.833 244.5,202.5C 242.72,201.01 242.054,199.01 242.5,196.5 Z"/></g>
<g><path style="opacity:1" fill="#3d2518" d="M 142.5,197.5 C 144.292,197.366 145.958,197.699 147.5,198.5C 147.5,199.833 147.5,201.167 147.5,202.5C 147.217,203.289 146.717,203.956 146,204.5C 145.5,212.827 145.334,221.16 145.5,229.5C 142.695,232.144 139.695,234.477 136.5,236.5C 134.287,235.227 131.954,234.227 129.5,233.5C 129.5,232.833 129.5,232.167 129.5,231.5C 127.465,226.316 123.798,224.65 118.5,226.5C 118.033,223.703 116.367,222.369 113.5,222.5C 111.854,216.351 112.188,210.351 114.5,204.5C 120.039,203.531 125.372,202.198 130.5,200.5C 134.678,200.122 138.678,199.122 142.5,197.5 Z"/></g>
<g><path style="opacity:1" fill="#754b31" d="M 248.5,198.5 C 252.122,198.322 255.456,198.989 258.5,200.5C 257.723,204.162 257.723,207.996 258.5,212C 255.987,213.039 253.653,214.372 251.5,216C 250.219,217.409 249.219,218.909 248.5,220.5C 244.559,218.095 240.225,216.761 235.5,216.5C 235.491,214.692 235.991,213.025 237,211.5C 241.157,209.846 243.657,206.846 244.5,202.5C 247.5,202.833 248.833,201.5 248.5,198.5 Z"/></g>
<g><path style="opacity:1" fill="#37241e" d="M 2.5,199.5 C 12.5825,202.082 22.5825,205.082 32.5,208.5C 32.8333,208.5 33.1667,208.5 33.5,208.5C 34.1667,210.167 34.8333,211.833 35.5,213.5C 33.0216,216.53 32.8549,219.863 35,223.5C 38.0567,224.451 41.2234,224.784 44.5,224.5C 44.5,226.5 44.5,228.5 44.5,230.5C 41.3438,229.377 38.5105,230.044 36,232.5C 35.8235,256.906 35.3235,281.239 34.5,305.5C 30.4642,304.98 27.2975,302.98 25,299.5C 24.0807,296.222 22.9141,293.055 21.5,290C 15.7842,285.804 9.45089,283.304 2.5,282.5C 2.67608,254.977 2.67608,227.311 2.5,199.5 Z"/></g>
<g><path style="opacity:1" fill="#baa282" d="M 219.5,199.5 C 225.046,199.518 230.046,201.018 234.5,204C 234.387,205.28 233.72,206.113 232.5,206.5C 228.506,205.335 224.506,204.168 220.5,203C 218.627,202.047 218.294,200.88 219.5,199.5 Z"/></g>
<g><path style="opacity:1" fill="#5f3f2e" d="M 258.5,200.5 C 263.728,201.389 268.728,202.722 273.5,204.5C 270.878,207.257 268.045,209.924 265,212.5C 264.023,214.74 263.523,217.073 263.5,219.5C 260.167,219.5 258.5,221.167 258.5,224.5C 255.299,223.077 251.966,222.077 248.5,221.5C 248.5,221.167 248.5,220.833 248.5,220.5C 249.219,218.909 250.219,217.409 251.5,216C 253.653,214.372 255.987,213.039 258.5,212C 257.723,207.996 257.723,204.162 258.5,200.5 Z"/></g>
<g><path style="opacity:1" fill="#8e6443" d="M 100.5,202.5 C 101.537,203.93 102.204,205.597 102.5,207.5C 94.8665,209.293 87.1999,210.96 79.5,212.5C 79.1075,210.716 78.4408,209.05 77.5,207.5C 85.0193,205.707 92.686,204.041 100.5,202.5 Z"/></g>
<g><path style="opacity:1" fill="#d9b56f" d="M 147.5,202.5 C 149.716,202.275 151.383,203.108 152.5,205C 151.773,217.428 151.773,229.928 152.5,242.5C 151.366,244.966 151.199,247.633 152,250.5C 152.671,251.252 153.504,251.586 154.5,251.5C 153.74,255.081 153.24,258.748 153,262.5C 149.169,271.171 143.669,272.504 136.5,266.5C 136.833,265.833 137.167,265.167 137.5,264.5C 140.096,265.265 142.763,265.599 145.5,265.5C 145.5,256.167 145.5,246.833 145.5,237.5C 145.5,234.833 145.5,232.167 145.5,229.5C 145.334,221.16 145.5,212.827 146,204.5C 146.717,203.956 147.217,203.289 147.5,202.5 Z"/></g>
<g><path style="opacity:1" fill="#371f18" d="M 102.5,207.5 C 103.5,207.5 104.5,207.5 105.5,207.5C 106.947,208.134 107.613,209.301 107.5,211C 107.182,214.832 106.182,218.332 104.5,221.5C 96.6775,221.373 89.0108,222.373 81.5,224.5C 81.5233,220.236 80.1899,216.569 77.5,213.5C 77.8417,212.662 78.5084,212.328 79.5,212.5C 87.1999,210.96 94.8665,209.293 102.5,207.5 Z"/></g>
<g><path style="opacity:1" fill="#b9a57a" d="M 227.5,218.5 C 217.108,215.985 206.774,213.319 196.5,210.5C 196.5,209.833 196.5,209.167 196.5,208.5C 198.966,207.366 201.633,207.199 204.5,208C 212.49,210.275 220.49,212.442 228.5,214.5C 228.567,215.959 228.234,217.292 227.5,218.5 Z"/></g>
<g><path style="opacity:1" fill="#724d34" d="M 77.5,207.5 C 78.4408,209.05 79.1075,210.716 79.5,212.5C 78.5084,212.328 77.8417,212.662 77.5,213.5C 68.0552,214.694 58.7218,216.527 49.5,219C 49.0434,221.956 47.3767,223.789 44.5,224.5C 41.2234,224.784 38.0567,224.451 35,223.5C 32.8549,219.863 33.0216,216.53 35.5,213.5C 39.1055,212.377 42.7721,211.377 46.5,210.5C 47.6878,211.84 49.1878,212.507 51,212.5C 59.801,210.591 68.6343,208.924 77.5,207.5 Z"/></g>
<g><path style="opacity:1" fill="#7c5737" d="M 196.5,210.5 C 206.774,213.319 217.108,215.985 227.5,218.5C 233.518,221.283 239.852,223.283 246.5,224.5C 244.453,233.979 241.786,243.312 238.5,252.5C 220.044,246.796 202.044,240.129 184.5,232.5C 187.489,229.281 187.823,225.947 185.5,222.5C 187.891,219.808 190.891,217.808 194.5,216.5C 195.372,214.55 196.039,212.55 196.5,210.5 Z"/></g>
<g><path style="opacity:1" fill="#1e120b" d="M 77.5,213.5 C 80.1899,216.569 81.5233,220.236 81.5,224.5C 70.1555,227.842 58.8221,231.509 47.5,235.5C 46.5,235.5 45.5,235.5 44.5,235.5C 44.5,233.833 44.5,232.167 44.5,230.5C 44.5,228.5 44.5,226.5 44.5,224.5C 47.3767,223.789 49.0434,221.956 49.5,219C 58.7218,216.527 68.0552,214.694 77.5,213.5 Z"/></g>
<g><path style="opacity:1" fill="#180c0b" d="M 11.5,215.5 C 16.1179,217.207 20.6179,219.207 25,221.5C 25.6667,227.5 25.6667,233.5 25,239.5C 18.052,241.049 16.3853,244.715 20,250.5C 22.8463,259.499 19.6796,263.166 10.5,261.5C 9.48353,247.189 8.98353,232.856 9,218.5C 10.045,217.627 10.8783,216.627 11.5,215.5 Z"/></g>
<g><path style="opacity:1" fill="#865333" d="M 114.5,204.5 C 112.188,210.351 111.854,216.351 113.5,222.5C 116.367,222.369 118.033,223.703 118.5,226.5C 112.833,227.833 107.167,229.167 101.5,230.5C 100.488,228.9 100.988,227.566 103,226.5C 103.608,224.846 104.108,223.179 104.5,221.5C 106.182,218.332 107.182,214.832 107.5,211C 107.613,209.301 106.947,208.134 105.5,207.5C 108.008,205.446 111.008,204.446 114.5,204.5 Z"/></g>
<g><path style="opacity:1" fill="#4e3b34" d="M 273.5,204.5 C 274.5,204.5 275.5,204.5 276.5,204.5C 276.5,206.167 276.5,207.833 276.5,209.5C 274.807,210.475 273.307,211.808 272,213.5C 270.351,220.315 266.184,224.648 259.5,226.5C 258.662,226.158 258.328,225.492 258.5,224.5C 258.5,221.167 260.167,219.5 263.5,219.5C 263.523,217.073 264.023,214.74 265,212.5C 268.045,209.924 270.878,207.257 273.5,204.5 Z"/></g>
<g><path style="opacity:1" fill="#6b4432" d="M 104.5,221.5 C 104.108,223.179 103.608,224.846 103,226.5C 100.988,227.566 100.488,228.9 101.5,230.5C 97.5,232.167 93.5,233.833 89.5,235.5C 88.8501,235.196 88.1835,234.863 87.5,234.5C 79.5457,238.485 71.2124,241.485 62.5,243.5C 57.8496,244.83 53.183,246.163 48.5,247.5C 47.5701,243.6 47.2367,239.6 47.5,235.5C 58.8221,231.509 70.1555,227.842 81.5,224.5C 89.0108,222.373 96.6775,221.373 104.5,221.5 Z"/></g>
<g><path style="opacity:1" fill="#371f18" d="M 248.5,221.5 C 251.966,222.077 255.299,223.077 258.5,224.5C 258.328,225.492 258.662,226.158 259.5,226.5C 258.583,229.417 257.916,232.417 257.5,235.5C 253.692,241.27 252.359,247.603 253.5,254.5C 251.701,260.335 251.034,266.335 251.5,272.5C 251.666,279.175 251.5,285.842 251,292.5C 249.905,293.693 249.072,295.027 248.5,296.5C 246.091,295.299 244.091,293.633 242.5,291.5C 240.594,283.393 240.594,275.393 242.5,267.5C 242.495,265.304 242.162,263.304 241.5,261.5C 240.241,258.634 239.241,255.634 238.5,252.5C 241.786,243.312 244.453,233.979 246.5,224.5C 247.401,223.71 248.068,222.71 248.5,221.5 Z"/></g>
<g><path style="opacity:1" fill="#9b704a" d="M 185.5,222.5 C 187.823,225.947 187.489,229.281 184.5,232.5C 183.041,232.567 181.708,232.234 180.5,231.5C 180.389,230.883 180.056,230.383 179.5,230C 180.794,227.913 181.961,225.746 183,223.5C 183.671,222.748 184.504,222.414 185.5,222.5 Z"/></g>
<g><path style="opacity:1" fill="#deca91" d="M 129.5,231.5 C 127.847,231.66 126.514,232.326 125.5,233.5C 122.807,233.428 120.14,233.095 117.5,232.5C 109.714,234.096 102.047,236.096 94.5,238.5C 93.2921,239.234 91.9587,239.567 90.5,239.5C 90.5674,238.041 90.2341,236.708 89.5,235.5C 93.5,233.833 97.5,232.167 101.5,230.5C 107.167,229.167 112.833,227.833 118.5,226.5C 123.798,224.65 127.465,226.316 129.5,231.5 Z"/></g>
<g><path style="opacity:1" fill="#241e1e" d="M 276.5,209.5 C 276.5,243.5 276.5,277.5 276.5,311.5C 269.167,311.5 261.833,311.5 254.5,311.5C 254.416,308.673 253.75,306.006 252.5,303.5C 252.186,300.511 250.852,298.178 248.5,296.5C 249.072,295.027 249.905,293.693 251,292.5C 251.5,285.842 251.666,279.175 251.5,272.5C 253.591,272.682 255.591,272.348 257.5,271.5C 258.25,265.501 258.916,259.501 259.5,253.5C 261.78,251.391 263.446,248.891 264.5,246C 262.619,242.169 260.285,238.669 257.5,235.5C 257.916,232.417 258.583,229.417 259.5,226.5C 266.184,224.648 270.351,220.315 272,213.5C 273.307,211.808 274.807,210.475 276.5,209.5 Z"/></g>
<g><path style="opacity:1" fill="#57382b" d="M 44.5,230.5 C 44.5,232.167 44.5,233.833 44.5,235.5C 45.5,235.5 46.5,235.5 47.5,235.5C 47.2367,239.6 47.5701,243.6 48.5,247.5C 46.2729,248.401 45.2729,250.067 45.5,252.5C 45.3433,253.873 45.51,255.207 46,256.5C 47.9917,257.665 49.825,258.998 51.5,260.5C 51.6287,262.216 51.962,263.883 52.5,265.5C 50.0774,267.855 47.0774,268.855 43.5,268.5C 43.6952,272.547 43.3619,276.547 42.5,280.5C 42.8008,282.422 43.4675,284.088 44.5,285.5C 43.701,288.43 43.3677,291.43 43.5,294.5C 43.2965,296.39 43.9632,297.89 45.5,299C 51.279,300.4 56.6123,302.567 61.5,305.5C 61.7036,307.685 62.3702,309.685 63.5,311.5C 53.5,311.5 43.5,311.5 33.5,311.5C 33.8333,309.5 34.1667,307.5 34.5,305.5C 35.3235,281.239 35.8235,256.906 36,232.5C 38.5105,230.044 41.3438,229.377 44.5,230.5 Z"/></g>
<g><path style="opacity:1" fill="#563224" d="M 145.5,229.5 C 145.5,232.167 145.5,234.833 145.5,237.5C 143.202,239.461 140.535,240.461 137.5,240.5C 137.567,239.041 137.234,237.708 136.5,236.5C 139.695,234.477 142.695,232.144 145.5,229.5 Z"/></g>
<g><path style="opacity:1" fill="#b59664" d="M 129.5,231.5 C 129.5,232.167 129.5,232.833 129.5,233.5C 129.141,237.131 130.475,239.798 133.5,241.5C 133.5,242.5 133.5,243.5 133.5,244.5C 130.016,245.761 127.35,244.761 125.5,241.5C 125.5,238.833 125.5,236.167 125.5,233.5C 126.514,232.326 127.847,231.66 129.5,231.5 Z"/></g>
<g><path style="opacity:1" fill="#5c382a" d="M 180.5,231.5 C 181.708,232.234 183.041,232.567 184.5,232.5C 202.044,240.129 220.044,246.796 238.5,252.5C 239.241,255.634 240.241,258.634 241.5,261.5C 230.31,257.937 219.144,254.27 208,250.5C 206.401,252.036 204.567,252.536 202.5,252C 196.001,249.166 190.335,245.166 185.5,240C 183.655,238.872 181.655,238.372 179.5,238.5C 179.883,236.499 180.217,234.165 180.5,231.5 Z"/></g>
<g><path style="opacity:1" fill="#ce9c64" d="M 125.5,233.5 C 125.5,236.167 125.5,238.833 125.5,241.5C 122.669,242.079 120.336,243.412 118.5,245.5C 110.948,246.462 103.948,248.795 97.5,252.5C 96.5,252.5 95.5,252.5 94.5,252.5C 94.0766,251.735 93.7432,250.902 93.5,250C 96.2715,246.188 96.6048,242.355 94.5,238.5C 102.047,236.096 109.714,234.096 117.5,232.5C 120.14,233.095 122.807,233.428 125.5,233.5 Z"/></g>
<g><path style="opacity:1" fill="#ba8950" d="M 94.5,238.5 C 96.6048,242.355 96.2715,246.188 93.5,250C 93.7432,250.902 94.0766,251.735 94.5,252.5C 90.5,254.167 86.5,255.833 82.5,257.5C 82.1667,257.5 81.8333,257.5 81.5,257.5C 81.1676,253.126 79.8342,249.126 77.5,245.5C 81.7136,243.226 86.0469,241.226 90.5,239.5C 91.9587,239.567 93.2921,239.234 94.5,238.5 Z"/></g>
<g><path style="opacity:1" fill="#694432" d="M 179.5,238.5 C 181.655,238.372 183.655,238.872 185.5,240C 190.335,245.166 196.001,249.166 202.5,252C 204.567,252.536 206.401,252.036 208,250.5C 219.144,254.27 230.31,257.937 241.5,261.5C 242.162,263.304 242.495,265.304 242.5,267.5C 240.594,275.393 240.594,283.393 242.5,291.5C 240.967,292.431 239.3,293.098 237.5,293.5C 224.221,289.694 212.221,283.528 201.5,275C 193.399,270.536 185.566,265.703 178,260.5C 176.395,261.101 175.062,262.101 174,263.5C 173.048,270.293 169.214,273.626 162.5,273.5C 162.768,271.901 162.434,270.568 161.5,269.5C 162.737,266.755 164.57,264.422 167,262.5C 167.497,259.854 167.664,257.187 167.5,254.5C 170.067,253.525 172.733,252.858 175.5,252.5C 175.634,250.708 175.301,249.042 174.5,247.5C 175.892,244.386 177.558,241.386 179.5,238.5 Z"/></g>
<g><path style="opacity:1" fill="#dbbd81" d="M 89.5,235.5 C 90.2341,236.708 90.5674,238.041 90.5,239.5C 86.0469,241.226 81.7136,243.226 77.5,245.5C 73.5621,247.035 69.5621,248.368 65.5,249.5C 63.0246,248.313 62.0246,246.313 62.5,243.5C 71.2124,241.485 79.5457,238.485 87.5,234.5C 88.1835,234.863 88.8501,235.196 89.5,235.5 Z"/></g>
<g><path style="opacity:1" fill="#956a43" d="M 133.5,241.5 C 134.721,242.028 135.887,242.695 137,243.5C 137.259,246.587 137.759,249.587 138.5,252.5C 137.167,252.5 135.833,252.5 134.5,252.5C 133.612,249.946 133.279,247.279 133.5,244.5C 133.5,243.5 133.5,242.5 133.5,241.5 Z"/></g>
<g><path style="opacity:1" fill="#7e5536" d="M 171.5,247.5 C 169.597,247.796 167.93,248.463 166.5,249.5C 162.904,250.199 159.404,251.199 156,252.5C 155.617,251.944 155.117,251.611 154.5,251.5C 153.504,251.586 152.671,251.252 152,250.5C 151.199,247.633 151.366,244.966 152.5,242.5C 156.629,243.804 160.796,243.471 165,241.5C 168.253,242.353 170.42,244.353 171.5,247.5 Z"/></g>
<g><path style="opacity:1" fill="#c0a26f" d="M 62.5,243.5 C 62.0246,246.313 63.0246,248.313 65.5,249.5C 61.5298,252.855 57.1964,254.188 52.5,253.5C 50.283,252.631 47.9496,252.298 45.5,252.5C 45.2729,250.067 46.2729,248.401 48.5,247.5C 53.183,246.163 57.8496,244.83 62.5,243.5 Z"/></g>
<g><path style="opacity:1" fill="#b68554" d="M 125.5,241.5 C 127.35,244.761 130.016,245.761 133.5,244.5C 133.279,247.279 133.612,249.946 134.5,252.5C 131.241,254.153 127.907,255.819 124.5,257.5C 124.555,253.246 122.555,250.579 118.5,249.5C 118.5,248.167 118.5,246.833 118.5,245.5C 120.336,243.412 122.669,242.079 125.5,241.5 Z"/></g>
<g><path style="opacity:1" fill="#9b6a43" d="M 77.5,245.5 C 79.8342,249.126 81.1676,253.126 81.5,257.5C 72.4261,260.205 64.0928,264.205 56.5,269.5C 55.1667,268.167 53.8333,266.833 52.5,265.5C 51.962,263.883 51.6287,262.216 51.5,260.5C 53.3535,258.309 53.6868,255.975 52.5,253.5C 57.1964,254.188 61.5298,252.855 65.5,249.5C 69.5621,248.368 73.5621,247.035 77.5,245.5 Z"/></g>
<g><path style="opacity:1" fill="#d9c182" d="M 118.5,245.5 C 118.5,246.833 118.5,248.167 118.5,249.5C 112.244,252.03 105.91,254.363 99.5,256.5C 98.8333,255.167 98.1667,253.833 97.5,252.5C 103.948,248.795 110.948,246.462 118.5,245.5 Z"/></g>
<g><path style="opacity:1" fill="#ae8350" d="M 171.5,247.5 C 172.5,247.5 173.5,247.5 174.5,247.5C 175.301,249.042 175.634,250.708 175.5,252.5C 172.733,252.858 170.067,253.525 167.5,254.5C 166.699,252.958 166.366,251.292 166.5,249.5C 167.93,248.463 169.597,247.796 171.5,247.5 Z"/></g>
<g><path style="opacity:1" fill="#9c6a44" d="M 118.5,249.5 C 122.555,250.579 124.555,253.246 124.5,257.5C 123.5,257.833 122.833,258.5 122.5,259.5C 106.811,267.676 90.8115,275.343 74.5,282.5C 73.7659,281.292 73.4326,279.959 73.5,278.5C 69.5109,278.682 65.8442,279.682 62.5,281.5C 61.716,278.205 60.716,274.871 59.5,271.5C 61.5273,271.662 63.5273,271.495 65.5,271C 71.6448,267.924 77.9782,265.424 84.5,263.5C 89.3797,260.893 94.3797,258.56 99.5,256.5C 105.91,254.363 112.244,252.03 118.5,249.5 Z"/></g>
<g><path style="opacity:1" fill="#71482f" d="M 129.5,233.5 C 131.954,234.227 134.287,235.227 136.5,236.5C 137.234,237.708 137.567,239.041 137.5,240.5C 140.535,240.461 143.202,239.461 145.5,237.5C 145.5,246.833 145.5,256.167 145.5,265.5C 142.763,265.599 140.096,265.265 137.5,264.5C 135.396,262.417 135.062,260.083 136.5,257.5C 137.167,255.833 137.833,254.167 138.5,252.5C 137.759,249.587 137.259,246.587 137,243.5C 135.887,242.695 134.721,242.028 133.5,241.5C 130.475,239.798 129.141,237.131 129.5,233.5 Z"/></g>
<g><path style="opacity:1" fill="#cdaf75" d="M 94.5,252.5 C 95.5,252.5 96.5,252.5 97.5,252.5C 98.1667,253.833 98.8333,255.167 99.5,256.5C 94.3797,258.56 89.3797,260.893 84.5,263.5C 83.2702,261.703 82.6036,259.703 82.5,257.5C 86.5,255.833 90.5,254.167 94.5,252.5 Z"/></g>
<g><path style="opacity:1" fill="#725035" d="M 45.5,252.5 C 47.9496,252.298 50.283,252.631 52.5,253.5C 53.6868,255.975 53.3535,258.309 51.5,260.5C 49.825,258.998 47.9917,257.665 46,256.5C 45.51,255.207 45.3433,253.873 45.5,252.5 Z"/></g>
<g><path style="opacity:1" fill="#d4c083" d="M 134.5,252.5 C 135.833,252.5 137.167,252.5 138.5,252.5C 137.833,254.167 137.167,255.833 136.5,257.5C 132.111,258.403 128.111,260.069 124.5,262.5C 123.833,262.5 123.167,262.5 122.5,262.5C 122.5,261.5 122.5,260.5 122.5,259.5C 122.833,258.5 123.5,257.833 124.5,257.5C 127.907,255.819 131.241,254.153 134.5,252.5 Z"/></g>
<g><path style="opacity:1" fill="#392d2d" d="M 257.5,235.5 C 260.285,238.669 262.619,242.169 264.5,246C 263.446,248.891 261.78,251.391 259.5,253.5C 258.916,259.501 258.25,265.501 257.5,271.5C 255.591,272.348 253.591,272.682 251.5,272.5C 251.034,266.335 251.701,260.335 253.5,254.5C 252.359,247.603 253.692,241.27 257.5,235.5 Z"/></g>
<g><path style="opacity:1" fill="#ba9663" d="M 81.5,257.5 C 81.8333,257.5 82.1667,257.5 82.5,257.5C 82.6036,259.703 83.2702,261.703 84.5,263.5C 77.9782,265.424 71.6448,267.924 65.5,271C 63.5273,271.495 61.5273,271.662 59.5,271.5C 57.9731,271.573 56.9731,270.906 56.5,269.5C 64.0928,264.205 72.4261,260.205 81.5,257.5 Z"/></g>
<g><path style="opacity:1" fill="#ba8f56" d="M 136.5,257.5 C 135.062,260.083 135.396,262.417 137.5,264.5C 137.167,265.167 136.833,265.833 136.5,266.5C 134.228,267.441 132.228,268.774 130.5,270.5C 130.167,270.5 129.833,270.5 129.5,270.5C 127.438,268.099 125.771,265.433 124.5,262.5C 128.111,260.069 132.111,258.403 136.5,257.5 Z"/></g>
<g><path style="opacity:1" fill="#e8c989" d="M 166.5,249.5 C 166.366,251.292 166.699,252.958 167.5,254.5C 167.664,257.187 167.497,259.854 167,262.5C 164.57,264.422 162.737,266.755 161.5,269.5C 160.143,270.59 159.143,271.924 158.5,273.5C 154.083,270.341 151.583,271.674 151,277.5C 149.247,278.627 147.413,279.627 145.5,280.5C 143.925,279.544 142.258,278.877 140.5,278.5C 140.5,277.5 140.5,276.5 140.5,275.5C 138.379,275.325 136.379,275.659 134.5,276.5C 132.571,274.94 131.238,272.94 130.5,270.5C 132.228,268.774 134.228,267.441 136.5,266.5C 143.669,272.504 149.169,271.171 153,262.5C 153.24,258.748 153.74,255.081 154.5,251.5C 155.117,251.611 155.617,251.944 156,252.5C 159.404,251.199 162.904,250.199 166.5,249.5 Z"/></g>
<g><path style="opacity:1" fill="#56372a" d="M 242.5,291.5 C 244.091,293.633 246.091,295.299 248.5,296.5C 250.852,298.178 252.186,300.511 252.5,303.5C 249.794,305.527 246.794,306.36 243.5,306C 225.725,298.029 207.892,290.196 190,282.5C 186.831,283.927 186.331,285.76 188.5,288C 193.271,288.883 197.271,291.05 200.5,294.5C 211.764,295.577 213.264,299.91 205,307.5C 204.51,308.793 204.343,310.127 204.5,311.5C 173.5,311.5 142.5,311.5 111.5,311.5C 120.672,305.748 129.672,299.748 138.5,293.5C 139.239,293.631 139.906,293.464 140.5,293C 141.085,291.698 141.751,290.531 142.5,289.5C 144.996,288.42 147.33,287.086 149.5,285.5C 149.611,286.117 149.944,286.617 150.5,287C 152.473,287.495 154.473,287.662 156.5,287.5C 157.87,287.856 158.87,288.69 159.5,290C 158.013,292.821 155.846,294.987 153,296.5C 152.333,298.833 152.333,301.167 153,303.5C 162.335,306.166 169.501,303.333 174.5,295C 179.033,293.3 182.033,290.133 183.5,285.5C 178.091,283.501 172.758,281.501 167.5,279.5C 165.14,278.135 163.473,276.135 162.5,273.5C 169.214,273.626 173.048,270.293 174,263.5C 175.062,262.101 176.395,261.101 178,260.5C 185.566,265.703 193.399,270.536 201.5,275C 212.221,283.528 224.221,289.694 237.5,293.5C 239.3,293.098 240.967,292.431 242.5,291.5 Z"/></g>
<g><path style="opacity:1" fill="#a7764a" d="M 122.5,262.5 C 123.167,262.5 123.833,262.5 124.5,262.5C 125.771,265.433 127.438,268.099 129.5,270.5C 126.669,272.417 123.669,274.083 120.5,275.5C 120.189,274.522 119.522,273.855 118.5,273.5C 115.591,274.424 112.924,275.757 110.5,277.5C 106.993,279.754 103.327,281.754 99.5,283.5C 97.7745,281.772 96.4411,279.772 95.5,277.5C 104.885,273.305 113.885,268.305 122.5,262.5 Z"/></g>
<g><path style="opacity:1" fill="#4a3124" d="M 52.5,265.5 C 53.8333,266.833 55.1667,268.167 56.5,269.5C 56.9731,270.906 57.9731,271.573 59.5,271.5C 60.716,274.871 61.716,278.205 62.5,281.5C 63.3403,283.853 64.6736,285.853 66.5,287.5C 66.8333,288.5 67.5,289.167 68.5,289.5C 69.388,292.054 69.7214,294.721 69.5,297.5C 70.0431,303.248 67.3764,305.914 61.5,305.5C 56.6123,302.567 51.279,300.4 45.5,299C 43.9632,297.89 43.2965,296.39 43.5,294.5C 47.0569,295.586 49.7236,294.42 51.5,291C 50.6854,287.257 48.3521,285.424 44.5,285.5C 43.4675,284.088 42.8008,282.422 42.5,280.5C 43.3619,276.547 43.6952,272.547 43.5,268.5C 47.0774,268.855 50.0774,267.855 52.5,265.5 Z"/></g>
<g><path style="opacity:1" fill="#755137" d="M 161.5,269.5 C 162.434,270.568 162.768,271.901 162.5,273.5C 163.473,276.135 165.14,278.135 167.5,279.5C 165.676,283.141 162.676,284.974 158.5,285C 157.244,285.417 156.577,286.25 156.5,287.5C 154.473,287.662 152.473,287.495 150.5,287C 149.944,286.617 149.611,286.117 149.5,285.5C 152.429,283.018 155.429,280.518 158.5,278C 157.587,276.586 157.587,275.086 158.5,273.5C 159.143,271.924 160.143,270.59 161.5,269.5 Z"/></g>
<g><path style="opacity:1" fill="#d3b575" d="M 129.5,270.5 C 129.833,270.5 130.167,270.5 130.5,270.5C 131.238,272.94 132.571,274.94 134.5,276.5C 133.833,277.167 133.167,277.833 132.5,278.5C 129.86,279.82 127.193,281.153 124.5,282.5C 122.14,281.135 120.473,279.135 119.5,276.5C 120.167,276.5 120.5,276.167 120.5,275.5C 123.669,274.083 126.669,272.417 129.5,270.5 Z"/></g>
<g><path style="opacity:1" fill="#deb87a" d="M 158.5,273.5 C 157.587,275.086 157.587,276.586 158.5,278C 155.429,280.518 152.429,283.018 149.5,285.5C 147.33,287.086 144.996,288.42 142.5,289.5C 140.771,288.359 139.771,286.693 139.5,284.5C 139.84,282.488 140.173,280.488 140.5,278.5C 142.258,278.877 143.925,279.544 145.5,280.5C 147.413,279.627 149.247,278.627 151,277.5C 151.583,271.674 154.083,270.341 158.5,273.5 Z"/></g>
<g><path style="opacity:1" fill="#b78f5d" d="M 122.5,259.5 C 122.5,260.5 122.5,261.5 122.5,262.5C 113.885,268.305 104.885,273.305 95.5,277.5C 86.8695,282.315 77.8695,286.315 68.5,289.5C 67.5,289.167 66.8333,288.5 66.5,287.5C 68.7937,285.347 71.4604,283.68 74.5,282.5C 90.8115,275.343 106.811,267.676 122.5,259.5 Z"/></g>
<g><path style="opacity:1" fill="#be9261" d="M 119.5,276.5 C 120.473,279.135 122.14,281.135 124.5,282.5C 124.67,283.822 124.337,284.989 123.5,286C 121.167,287.167 118.833,288.333 116.5,289.5C 115.914,289.291 115.414,288.957 115,288.5C 115.319,286.257 115.152,284.09 114.5,282C 116.291,280.229 117.957,278.396 119.5,276.5 Z"/></g>
<g><path style="opacity:1" fill="#8e643d" d="M 95.5,277.5 C 96.4411,279.772 97.7745,281.772 99.5,283.5C 95.8822,285.137 92.5488,287.137 89.5,289.5C 84.2432,291.462 79.2432,293.962 74.5,297C 72.8659,297.494 71.1992,297.66 69.5,297.5C 69.7214,294.721 69.388,292.054 68.5,289.5C 77.8695,286.315 86.8695,282.315 95.5,277.5 Z"/></g>
<g><path style="opacity:1" fill="#7c5137" d="M 74.5,282.5 C 71.4604,283.68 68.7937,285.347 66.5,287.5C 64.6736,285.853 63.3403,283.853 62.5,281.5C 65.8442,279.682 69.5109,278.682 73.5,278.5C 73.4326,279.959 73.7659,281.292 74.5,282.5 Z"/></g>
<g><path style="opacity:1" fill="#7c5638" d="M 120.5,275.5 C 120.5,276.167 120.167,276.5 119.5,276.5C 117.957,278.396 116.291,280.229 114.5,282C 115.152,284.09 115.319,286.257 115,288.5C 115.414,288.957 115.914,289.291 116.5,289.5C 118.833,288.333 121.167,287.167 123.5,286C 124.337,284.989 124.67,283.822 124.5,282.5C 127.193,281.153 129.86,279.82 132.5,278.5C 134.624,280.059 136.291,282.059 137.5,284.5C 135.907,286.054 134.574,287.721 133.5,289.5C 128.58,287.955 124.58,289.288 121.5,293.5C 113.594,297.405 105.927,301.738 98.5,306.5C 96.3809,305.014 94.8809,303.014 94,300.5C 87.721,303.72 81.221,306.553 74.5,309C 73.7476,309.671 73.4142,310.504 73.5,311.5C 70.1667,311.5 66.8333,311.5 63.5,311.5C 62.3702,309.685 61.7036,307.685 61.5,305.5C 67.3764,305.914 70.0431,303.248 69.5,297.5C 71.1992,297.66 72.8659,297.494 74.5,297C 79.2432,293.962 84.2432,291.462 89.5,289.5C 90.5307,290.355 91.6974,291.022 93,291.5C 99.9274,288.617 106.761,285.617 113.5,282.5C 112.237,280.971 111.237,279.305 110.5,277.5C 112.924,275.757 115.591,274.424 118.5,273.5C 119.522,273.855 120.189,274.522 120.5,275.5 Z"/></g>
<g><path style="opacity:1" fill="#6b4532" d="M 110.5,277.5 C 111.237,279.305 112.237,280.971 113.5,282.5C 106.761,285.617 99.9274,288.617 93,291.5C 91.6974,291.022 90.5307,290.355 89.5,289.5C 92.5488,287.137 95.8822,285.137 99.5,283.5C 103.327,281.754 106.993,279.754 110.5,277.5 Z"/></g>
<g><path style="opacity:1" fill="#634431" d="M 167.5,279.5 C 172.758,281.501 178.091,283.501 183.5,285.5C 182.033,290.133 179.033,293.3 174.5,295C 169.501,303.333 162.335,306.166 153,303.5C 152.333,301.167 152.333,298.833 153,296.5C 155.846,294.987 158.013,292.821 159.5,290C 158.87,288.69 157.87,287.856 156.5,287.5C 156.577,286.25 157.244,285.417 158.5,285C 162.676,284.974 165.676,283.141 167.5,279.5 Z"/></g>
<g><path style="opacity:1" fill="#432b24" d="M 2.5,282.5 C 9.45089,283.304 15.7842,285.804 21.5,290C 22.9141,293.055 24.0807,296.222 25,299.5C 27.2975,302.98 30.4642,304.98 34.5,305.5C 34.1667,307.5 33.8333,309.5 33.5,311.5C 26.8333,311.5 20.1667,311.5 13.5,311.5C 11.0469,307.914 7.71353,305.248 3.5,303.5C 2.53785,296.588 2.20452,289.588 2.5,282.5 Z"/></g>
<g><path style="opacity:1" fill="#4a3224" d="M 252.5,303.5 C 253.75,306.006 254.416,308.673 254.5,311.5C 237.833,311.5 221.167,311.5 204.5,311.5C 204.343,310.127 204.51,308.793 205,307.5C 213.264,299.91 211.764,295.577 200.5,294.5C 197.271,291.05 193.271,288.883 188.5,288C 186.331,285.76 186.831,283.927 190,282.5C 207.892,290.196 225.725,298.029 243.5,306C 246.794,306.36 249.794,305.527 252.5,303.5 Z"/></g>
<g><path style="opacity:1" fill="#9a704a" d="M 140.5,278.5 C 140.173,280.488 139.84,282.488 139.5,284.5C 139.771,286.693 140.771,288.359 142.5,289.5C 141.751,290.531 141.085,291.698 140.5,293C 139.906,293.464 139.239,293.631 138.5,293.5C 137.656,291.241 135.989,290.241 133.5,290.5C 133.5,290.167 133.5,289.833 133.5,289.5C 134.574,287.721 135.907,286.054 137.5,284.5C 136.291,282.059 134.624,280.059 132.5,278.5C 133.167,277.833 133.833,277.167 134.5,276.5C 136.379,275.659 138.379,275.325 140.5,275.5C 140.5,276.5 140.5,277.5 140.5,278.5 Z"/></g>
<g><path style="opacity:1" fill="#2a1911" d="M 44.5,285.5 C 48.3521,285.424 50.6854,287.257 51.5,291C 49.7236,294.42 47.0569,295.586 43.5,294.5C 43.3677,291.43 43.701,288.43 44.5,285.5 Z"/></g>
<g><path style="opacity:1" fill="#b48f5c" d="M 133.5,289.5 C 133.5,289.833 133.5,290.167 133.5,290.5C 131.074,292.799 128.24,294.465 125,295.5C 123.887,294.695 122.721,294.028 121.5,293.5C 124.58,289.288 128.58,287.955 133.5,289.5 Z"/></g>
<g><path style="opacity:1" fill="#d9b47c" d="M 133.5,290.5 C 135.989,290.241 137.656,291.241 138.5,293.5C 129.672,299.748 120.672,305.748 111.5,311.5C 105.5,311.5 99.5,311.5 93.5,311.5C 94.8606,309.473 96.5273,307.806 98.5,306.5C 105.927,301.738 113.594,297.405 121.5,293.5C 122.721,294.028 123.887,294.695 125,295.5C 128.24,294.465 131.074,292.799 133.5,290.5 Z"/></g>
<g><path style="opacity:1" fill="#2a1918" d="M 3.5,303.5 C 7.71353,305.248 11.0469,307.914 13.5,311.5C 9.83333,311.5 6.16667,311.5 2.5,311.5C 3.26535,308.904 3.59868,306.237 3.5,303.5 Z"/></g>
<g><path style="opacity:1" fill="#603f2d" d="M 98.5,306.5 C 96.5273,307.806 94.8606,309.473 93.5,311.5C 86.8333,311.5 80.1667,311.5 73.5,311.5C 73.4142,310.504 73.7476,309.671 74.5,309C 81.221,306.553 87.721,303.72 94,300.5C 94.8809,303.014 96.3809,305.014 98.5,306.5 Z"/></g>
</svg>
