<?xml version="1.0" encoding="UTF-8"?>
<!DOCTYPE svg PUBLIC "-//W3C//DTD SVG 1.1//EN" "http://www.w3.org/Graphics/SVG/1.1/DTD/svg11.dtd">
<svg xmlns="http://www.w3.org/2000/svg" version="1.1" width="278px" height="312px" style="shape-rendering:geometricPrecision; text-rendering:geometricPrecision; image-rendering:optimizeQuality; fill-rule:evenodd; clip-rule:evenodd" xmlns:xlink="http://www.w3.org/1999/xlink">
<g><path style="opacity:1" fill="#1f1925" d="M -0.5,-0.5 C 15.1667,-0.5 30.8333,-0.5 46.5,-0.5C 42.063,5.52092 37.7296,11.6876 33.5,18C 34.5902,20.6517 36.5902,22.1517 39.5,22.5C 50.6951,16.6249 60.3618,8.95819 68.5,-0.5C 89.8333,-0.5 111.167,-0.5 132.5,-0.5C 128.223,4.50246 122.89,8.33579 116.5,11C 114.659,14.6284 111.659,16.6284 107.5,17C 105.077,18.5707 103.744,20.7374 103.5,23.5C 99.7617,26.626 97.2617,30.626 96,35.5C 89.4342,38.6287 87.2676,43.6287 89.5,50.5C 88.9112,53.0217 88.2446,55.5217 87.5,58C 88.2865,60.0989 88.6199,62.2655 88.5,64.5C 87.6993,66.0418 87.366,67.7085 87.5,69.5C 85.3298,68.232 83.1632,68.232 81,69.5C 78.5297,67.5625 75.6964,66.3958 72.5,66C 63.5075,64.4347 54.5075,62.9347 45.5,61.5C 43.3587,61.6132 41.5253,62.2799 40,63.5C 38.1002,71.1823 38.1002,78.8489 40,86.5C 41.1217,88.6238 42.6217,90.4571 44.5,92C 55.054,93.6131 65.554,95.4464 76,97.5C 79.2408,96.471 82.4075,96.471 85.5,97.5C 84.5254,99.7952 83.1921,101.795 81.5,103.5C 79.5477,103.995 77.5477,104.328 75.5,104.5C 64.5989,102.312 53.5989,101.479 42.5,102C 39.2626,105.71 37.596,110.043 37.5,115C 37.9018,123.543 38.2351,132.043 38.5,140.5C 37.408,146.301 36.0746,151.968 34.5,157.5C 33.8333,157.5 33.1667,157.5 32.5,157.5C 29.7212,157.279 27.0545,157.612 24.5,158.5C 23.3272,156.496 21.6605,154.996 19.5,154C 13.6187,152.71 7.78534,152.544 2,153.5C 1.8875,158.5 2.22084,163.5 3,168.5C 3.66667,170.5 5,171.833 7,172.5C 8.32579,176.143 9.49245,179.81 10.5,183.5C 7.06787,184.599 5.06787,186.933 4.5,190.5C 3.5,190.5 2.5,190.5 1.5,190.5C 1.15829,189.662 0.491622,189.328 -0.5,189.5C -0.5,162.5 -0.5,135.5 -0.5,108.5C 0.5,108.5 1.5,108.5 2.5,108.5C 3.16667,108.5 3.5,108.833 3.5,109.5C 2.53862,111.265 2.20528,113.265 2.5,115.5C 2.201,123.253 2.53433,130.92 3.5,138.5C 2.23204,140.67 2.23204,142.837 3.5,145C 8.5,145.667 13.5,145.667 18.5,145C 19.056,144.617 19.3893,144.117 19.5,143.5C 21.0174,143.489 22.1841,142.823 23,141.5C 24.5583,112.854 24.8916,84.1873 24,55.5C 22.3333,52.8333 20.6667,50.1667 19,47.5C 18.2828,48.0442 17.7828,48.7109 17.5,49.5C 15.7839,49.3713 14.1172,49.038 12.5,48.5C 15.0947,42.288 13.2614,38.288 7,36.5C 5.30085,36.3866 4.13419,37.0532 3.5,38.5C 2.29208,39.2341 0.95875,39.5674 -0.5,39.5C -0.5,26.1667 -0.5,12.8333 -0.5,-0.5 Z"/></g>
<g><path style="opacity:1" fill="#242531" d="M 46.5,-0.5 C 53.8333,-0.5 61.1667,-0.5 68.5,-0.5C 60.3618,8.95819 50.6951,16.6249 39.5,22.5C 36.5902,22.1517 34.5902,20.6517 33.5,18C 37.7296,11.6876 42.063,5.52092 46.5,-0.5 Z"/></g>
<g><path style="opacity:1" fill="#191219" d="M 162.5,-0.5 C 200.833,-0.5 239.167,-0.5 277.5,-0.5C 277.5,14.1667 277.5,28.8333 277.5,43.5C 275.064,43.683 272.897,43.0163 271,41.5C 270.315,35.4248 271.482,29.7581 274.5,24.5C 273.687,23.1861 272.687,22.0195 271.5,21C 268.101,20.454 264.768,20.7873 261.5,22C 254.936,24.3081 248.27,26.3081 241.5,28C 239.273,28.941 237.273,30.1077 235.5,31.5C 231.739,32.5472 228.406,34.3805 225.5,37C 219.252,38.1002 213.252,38.9336 207.5,39.5C 203.06,35.9691 199.56,31.6358 197,26.5C 196.882,21.7972 195.049,17.9639 191.5,15C 185.985,12.0765 180.318,9.40983 174.5,7C 172.866,6.50649 171.199,6.33982 169.5,6.5C 167.779,4.30566 165.445,3.139 162.5,3C 163.171,2.01381 163.171,0.847141 162.5,-0.5 Z"/></g>
<g><path style="opacity:1" fill="#29303c" d="M 132.5,-0.5 C 142.5,-0.5 152.5,-0.5 162.5,-0.5C 163.171,0.847141 163.171,2.01381 162.5,3C 165.445,3.139 167.779,4.30566 169.5,6.5C 169.062,6.43456 168.728,6.60123 168.5,7C 169.191,8.06743 169.691,9.23409 170,10.5C 172.806,12.3947 175.14,14.7281 177,17.5C 178.955,22.318 180.121,27.318 180.5,32.5C 174.546,30.5615 168.546,28.7281 162.5,27C 161,23.5 158.5,21 155,19.5C 154.232,16.4891 152.732,13.9891 150.5,12C 141.413,10.3882 133.58,12.8882 127,19.5C 125.956,21.7148 125.29,24.0481 125,26.5C 121.365,23.759 117.365,21.759 113,20.5C 109.992,22.9699 106.825,23.9699 103.5,23.5C 103.744,20.7374 105.077,18.5707 107.5,17C 111.659,16.6284 114.659,14.6284 116.5,11C 122.89,8.33579 128.223,4.50246 132.5,-0.5 Z"/></g>
<g><path style="opacity:1" fill="#323d4a" d="M 180.5,32.5 C 180.733,34.0618 181.4,35.3951 182.5,36.5C 183.833,38.8333 183.833,41.1667 182.5,43.5C 178.199,41.9341 174.032,39.9341 170,37.5C 168.483,39.2395 166.983,40.9062 165.5,42.5C 159.813,40.9389 154.479,38.6056 149.5,35.5C 150.82,29.4671 148.82,24.8004 143.5,21.5C 140.287,21.7218 138.454,23.3885 138,26.5C 137.31,30.0265 137.81,33.3598 139.5,36.5C 137.833,36.5 136.167,36.5 134.5,36.5C 133.241,24.4802 128.408,23.1468 120,32.5C 119.51,33.7932 119.343,35.1266 119.5,36.5C 111.421,34.7152 106.087,37.8819 103.5,46C 104.317,49.1526 105.983,51.6526 108.5,53.5C 107.5,55.1667 106.167,56.5 104.5,57.5C 102.363,51.3495 99.5295,51.0162 96,56.5C 95.6667,58.8333 95.3333,61.1667 95,63.5C 92.9592,64.4231 90.7925,64.7564 88.5,64.5C 88.6199,62.2655 88.2865,60.0989 87.5,58C 88.2446,55.5217 88.9112,53.0217 89.5,50.5C 87.2676,43.6287 89.4342,38.6287 96,35.5C 97.2617,30.626 99.7617,26.626 103.5,23.5C 106.825,23.9699 109.992,22.9699 113,20.5C 117.365,21.759 121.365,23.759 125,26.5C 125.29,24.0481 125.956,21.7148 127,19.5C 133.58,12.8882 141.413,10.3882 150.5,12C 152.732,13.9891 154.232,16.4891 155,19.5C 158.5,21 161,23.5 162.5,27C 168.546,28.7281 174.546,30.5615 180.5,32.5 Z"/></g>
<g><path style="opacity:1" fill="#24242b" d="M 277.5,43.5 C 277.5,51.8333 277.5,60.1667 277.5,68.5C 275.167,68.5 272.833,68.5 270.5,68.5C 270.5,66.5 270.5,64.5 270.5,62.5C 271.567,57.2185 271.733,51.8851 271,46.5C 270.439,45.9781 269.772,45.6448 269,45.5C 266.974,46.5202 265.641,48.1868 265,50.5C 264.322,54.2211 264.489,57.8878 265.5,61.5C 264.657,63.1733 263.324,64.34 261.5,65C 256.173,67.6233 251.506,66.9567 247.5,63C 244.183,62.5017 240.85,62.335 237.5,62.5C 237.5,60.5 237.5,58.5 237.5,56.5C 235.692,56.5086 234.025,56.0086 232.5,55C 231.415,52.828 230.081,50.828 228.5,49C 233.026,43.9965 235.36,38.1632 235.5,31.5C 237.273,30.1077 239.273,28.941 241.5,28C 248.27,26.3081 254.936,24.3081 261.5,22C 264.768,20.7873 268.101,20.454 271.5,21C 272.687,22.0195 273.687,23.1861 274.5,24.5C 271.482,29.7581 270.315,35.4248 271,41.5C 272.897,43.0163 275.064,43.683 277.5,43.5 Z"/></g>
<g><path style="opacity:1" fill="#435763" d="M 149.5,35.5 C 146.236,36.3242 142.902,36.6576 139.5,36.5C 137.81,33.3598 137.31,30.0265 138,26.5C 138.454,23.3885 140.287,21.7218 143.5,21.5C 148.82,24.8004 150.82,29.4671 149.5,35.5 Z"/></g>
<g><path style="opacity:1" fill="#23232f" d="M 169.5,6.5 C 171.199,6.33982 172.866,6.50649 174.5,7C 180.318,9.40983 185.985,12.0765 191.5,15C 195.049,17.9639 196.882,21.7972 197,26.5C 199.56,31.6358 203.06,35.9691 207.5,39.5C 209.966,44.3322 210.633,49.3322 209.5,54.5C 204.688,53.515 202.188,50.515 202,45.5C 199.705,43.0622 196.872,41.5622 193.5,41C 190.892,37.0237 187.225,35.5237 182.5,36.5C 181.4,35.3951 180.733,34.0618 180.5,32.5C 180.121,27.318 178.955,22.318 177,17.5C 175.14,14.7281 172.806,12.3947 170,10.5C 169.691,9.23409 169.191,8.06743 168.5,7C 168.728,6.60123 169.062,6.43456 169.5,6.5 Z"/></g>
<g><path style="opacity:1" fill="#435667" d="M 134.5,36.5 C 129.172,39.991 123.505,42.8244 117.5,45C 114.631,48.0379 111.631,50.8712 108.5,53.5C 105.983,51.6526 104.317,49.1526 103.5,46C 106.087,37.8819 111.421,34.7152 119.5,36.5C 119.343,35.1266 119.51,33.7932 120,32.5C 128.408,23.1468 133.241,24.4802 134.5,36.5 Z"/></g>
<g><path style="opacity:1" fill="#292932" d="M 149.5,35.5 C 154.479,38.6056 159.813,40.9389 165.5,42.5C 163.977,45.345 162.977,48.345 162.5,51.5C 161.735,51.9234 160.902,52.2568 160,52.5C 156.598,49.4658 152.764,48.7992 148.5,50.5C 147.542,50.0472 146.708,49.3805 146,48.5C 145.915,44.3064 143.915,41.6397 140,40.5C 135.915,43.4233 131.415,45.5899 126.5,47C 123.025,51.41 119.192,55.5766 115,59.5C 111.404,65.7934 108.904,72.46 107.5,79.5C 104.167,77.5 100.833,75.5 97.5,73.5C 99.8321,68.1717 102.165,62.8384 104.5,57.5C 106.167,56.5 107.5,55.1667 108.5,53.5C 111.631,50.8712 114.631,48.0379 117.5,45C 123.505,42.8244 129.172,39.991 134.5,36.5C 136.167,36.5 137.833,36.5 139.5,36.5C 142.902,36.6576 146.236,36.3242 149.5,35.5 Z"/></g>
<g><path style="opacity:1" fill="#b4dae0" d="M 12.5,48.5 C 12.666,53.8437 12.4994,59.1771 12,64.5C 9.53352,65.7883 7.03352,65.7883 4.5,64.5C 3.50196,55.8589 3.16863,47.1922 3.5,38.5C 4.13419,37.0532 5.30085,36.3866 7,36.5C 13.2614,38.288 15.0947,42.288 12.5,48.5 Z"/></g>
<g><path style="opacity:1" fill="#292f3b" d="M 182.5,36.5 C 187.225,35.5237 190.892,37.0237 193.5,41C 196.872,41.5622 199.705,43.0622 202,45.5C 202.188,50.515 204.688,53.515 209.5,54.5C 209.5,56.1667 209.5,57.8333 209.5,59.5C 211.5,59.5 213.5,59.5 215.5,59.5C 215.5,63.1667 215.5,66.8333 215.5,70.5C 215.5,71.8333 215.5,73.1667 215.5,74.5C 212.43,74.6323 209.43,74.299 206.5,73.5C 203.273,67.0831 199.773,60.7498 196,54.5C 192.181,49.8329 187.681,46.1663 182.5,43.5C 183.833,41.1667 183.833,38.8333 182.5,36.5 Z"/></g>
<g><path style="opacity:1" fill="#424d5a" d="M 182.5,43.5 C 187.681,46.1663 192.181,49.8329 196,54.5C 199.773,60.7498 203.273,67.0831 206.5,73.5C 206.19,76.7131 206.523,79.7131 207.5,82.5C 207.5,83.1667 207.5,83.8333 207.5,84.5C 203.726,83.1817 200.059,83.515 196.5,85.5C 196.666,81.4862 196.499,77.4862 196,73.5C 193.35,72.2819 190.85,72.6152 188.5,74.5C 188.702,72.0108 188.202,69.6775 187,67.5C 184.116,65.616 181.949,63.116 180.5,60C 174.878,59.3465 169.711,57.5131 165,54.5C 162.549,58.3199 161.716,62.3199 162.5,66.5C 162.5,67.1667 162.5,67.8333 162.5,68.5C 158.437,67.9782 155.771,65.8115 154.5,62C 156.321,58.8458 158.821,56.3458 162,54.5C 162.483,53.552 162.649,52.552 162.5,51.5C 162.977,48.345 163.977,45.345 165.5,42.5C 166.983,40.9062 168.483,39.2395 170,37.5C 174.032,39.9341 178.199,41.9341 182.5,43.5 Z"/></g>
<g><path style="opacity:1" fill="#19191f" d="M 148.5,50.5 C 145.868,54.067 145.035,58.067 146,62.5C 149.39,64.4458 152.89,66.2792 156.5,68C 157.576,69.7261 157.743,71.5594 157,73.5C 154.817,75.9071 152.65,78.2404 150.5,80.5C 148.973,80.427 147.973,81.0937 147.5,82.5C 143.393,83.4402 140.726,85.9402 139.5,90C 138.552,90.4828 137.552,90.6495 136.5,90.5C 135.658,95.0506 136.992,98.7173 140.5,101.5C 140.751,103.17 141.418,104.67 142.5,106C 141.446,108.382 140.779,110.882 140.5,113.5C 139.833,114.5 139.167,115.5 138.5,116.5C 134.603,117.055 130.937,118.055 127.5,119.5C 124.429,118.925 122.429,120.091 121.5,123C 122.396,125.829 123.729,128.329 125.5,130.5C 125.297,132.208 124.464,133.541 123,134.5C 122.5,140.825 122.334,147.158 122.5,153.5C 121.833,154.833 121.167,156.167 120.5,157.5C 116.5,157.5 112.5,157.5 108.5,157.5C 106.743,154.829 105.743,151.829 105.5,148.5C 106.767,145.623 107.767,142.623 108.5,139.5C 106.833,139.5 105.167,139.5 103.5,139.5C 104.314,121.169 105.147,102.836 106,84.5C 106.352,82.7525 106.852,81.0858 107.5,79.5C 108.904,72.46 111.404,65.7934 115,59.5C 119.192,55.5766 123.025,51.41 126.5,47C 131.415,45.5899 135.915,43.4233 140,40.5C 143.915,41.6397 145.915,44.3064 146,48.5C 146.708,49.3805 147.542,50.0472 148.5,50.5 Z"/></g>
<g><path style="opacity:1" fill="#4f5a61" d="M 19.5,143.5 C 18.8826,143.389 18.3826,143.056 18,142.5C 17.1273,137.538 16.6273,132.538 16.5,127.5C 16.6266,101.524 16.9599,75.5244 17.5,49.5C 17.7828,48.7109 18.2828,48.0442 19,47.5C 20.6667,50.1667 22.3333,52.8333 24,55.5C 24.8916,84.1873 24.5583,112.854 23,141.5C 22.1841,142.823 21.0174,143.489 19.5,143.5 Z"/></g>
<g><path style="opacity:1" fill="#5b7a92" d="M 270.5,62.5 C 268.708,62.634 267.042,62.3007 265.5,61.5C 264.489,57.8878 264.322,54.2211 265,50.5C 265.641,48.1868 266.974,46.5202 269,45.5C 269.772,45.6448 270.439,45.9781 271,46.5C 271.733,51.8851 271.567,57.2185 270.5,62.5 Z"/></g>
<g><path style="opacity:1" fill="#37373d" d="M 3.5,38.5 C 3.16863,47.1922 3.50196,55.8589 4.5,64.5C 7.03352,65.7883 9.53352,65.7883 12,64.5C 12.4994,59.1771 12.666,53.8437 12.5,48.5C 14.1172,49.038 15.7839,49.3713 17.5,49.5C 16.9599,75.5244 16.6266,101.524 16.5,127.5C 16.6273,132.538 17.1273,137.538 18,142.5C 18.3826,143.056 18.8826,143.389 19.5,143.5C 19.3893,144.117 19.056,144.617 18.5,145C 13.5,145.667 8.5,145.667 3.5,145C 2.23204,142.837 2.23204,140.67 3.5,138.5C 5.75654,140.584 8.25654,140.917 11,139.5C 12.7161,131.508 12.8828,123.508 11.5,115.5C 11.5,113.5 11.5,111.5 11.5,109.5C 12.6599,97.3403 12.8265,85.0069 12,72.5C 9.91598,69.5495 7.24931,68.8828 4,70.5C 3.75432,83.1916 3.25432,95.8583 2.5,108.5C 1.5,108.5 0.5,108.5 -0.5,108.5C -0.5,85.5 -0.5,62.5 -0.5,39.5C 0.95875,39.5674 2.29208,39.2341 3.5,38.5 Z"/></g>
<g><path style="opacity:1" fill="#384b5d" d="M 240.5,48.5 C 245.465,49.6075 245.798,51.7742 241.5,55C 240.207,55.49 238.873,55.6567 237.5,55.5C 237.15,52.5466 238.15,50.2133 240.5,48.5 Z"/></g>
<g><path style="opacity:1" fill="#1c1c22" d="M 235.5,31.5 C 235.36,38.1632 233.026,43.9965 228.5,49C 230.081,50.828 231.415,52.828 232.5,55C 234.025,56.0086 235.692,56.5086 237.5,56.5C 237.5,58.5 237.5,60.5 237.5,62.5C 237.534,65.1985 236.867,67.6985 235.5,70C 232.064,71.0873 228.564,71.9207 225,72.5C 223.624,72.3158 222.791,71.6491 222.5,70.5C 221.751,66.2533 221.751,62.0866 222.5,58C 221.953,57.0754 221.287,56.2421 220.5,55.5C 218.185,56.1598 216.519,57.4931 215.5,59.5C 213.5,59.5 211.5,59.5 209.5,59.5C 209.5,57.8333 209.5,56.1667 209.5,54.5C 210.633,49.3322 209.966,44.3322 207.5,39.5C 213.252,38.9336 219.252,38.1002 225.5,37C 228.406,34.3805 231.739,32.5472 235.5,31.5 Z"/></g>
<g><path style="opacity:1" fill="#2c3448" d="M 162.5,51.5 C 162.649,52.552 162.483,53.552 162,54.5C 158.821,56.3458 156.321,58.8458 154.5,62C 155.771,65.8115 158.437,67.9782 162.5,68.5C 163.249,69.531 163.915,70.6976 164.5,72C 162.595,73.87 160.428,75.37 158,76.5C 157.963,78.9739 157.13,80.9739 155.5,82.5C 153.716,82.1075 152.05,81.4408 150.5,80.5C 152.65,78.2404 154.817,75.9071 157,73.5C 157.743,71.5594 157.576,69.7261 156.5,68C 152.89,66.2792 149.39,64.4458 146,62.5C 145.035,58.067 145.868,54.067 148.5,50.5C 152.764,48.7992 156.598,49.4658 160,52.5C 160.902,52.2568 161.735,51.9234 162.5,51.5 Z"/></g>
<g><path style="opacity:1" fill="#536578" d="M 104.5,57.5 C 102.165,62.8384 99.8321,68.1717 97.5,73.5C 97.6716,74.4916 97.3382,75.1583 96.5,75.5C 95.5943,74.0351 94.261,73.0351 92.5,72.5C 91.0603,73.9524 89.3936,74.9524 87.5,75.5C 87.5,73.5 87.5,71.5 87.5,69.5C 87.366,67.7085 87.6993,66.0418 88.5,64.5C 90.7925,64.7564 92.9592,64.4231 95,63.5C 95.3333,61.1667 95.6667,58.8333 96,56.5C 99.5295,51.0162 102.363,51.3495 104.5,57.5 Z"/></g>
<g><path style="opacity:1" fill="#333339" d="M 87.5,69.5 C 87.5,71.5 87.5,73.5 87.5,75.5C 87.8366,79.0111 87.8366,82.3444 87.5,85.5C 86.8826,85.6107 86.3826,85.944 86,86.5C 85.5014,90.1516 85.3347,93.8183 85.5,97.5C 82.4075,96.471 79.2408,96.471 76,97.5C 65.554,95.4464 55.054,93.6131 44.5,92C 42.6217,90.4571 41.1217,88.6238 40,86.5C 38.1002,78.8489 38.1002,71.1823 40,63.5C 41.5253,62.2799 43.3587,61.6132 45.5,61.5C 54.5075,62.9347 63.5075,64.4347 72.5,66C 75.6964,66.3958 78.5297,67.5625 81,69.5C 83.1632,68.232 85.3298,68.232 87.5,69.5 Z"/></g>
<g><path style="opacity:1" fill="#3d383e" d="M 265.5,61.5 C 267.042,62.3007 268.708,62.634 270.5,62.5C 270.5,64.5 270.5,66.5 270.5,68.5C 267.094,70.109 263.427,71.2756 259.5,72C 244.996,74.6678 230.663,77.5011 216.5,80.5C 213.162,80.0653 210.162,80.7319 207.5,82.5C 206.523,79.7131 206.19,76.7131 206.5,73.5C 209.43,74.299 212.43,74.6323 215.5,74.5C 215.5,73.1667 215.5,71.8333 215.5,70.5C 217.833,71.8333 220.167,71.8333 222.5,70.5C 222.791,71.6491 223.624,72.3158 225,72.5C 228.564,71.9207 232.064,71.0873 235.5,70C 236.867,67.6985 237.534,65.1985 237.5,62.5C 240.85,62.335 244.183,62.5017 247.5,63C 251.506,66.9567 256.173,67.6233 261.5,65C 263.324,64.34 264.657,63.1733 265.5,61.5 Z"/></g>
<g><path style="opacity:1" fill="#445d75" d="M 188.5,74.5 C 187.12,74.9623 186.453,75.9623 186.5,77.5C 187.46,79.4771 188.46,81.4771 189.5,83.5C 186.784,87.2032 184.117,90.8699 181.5,94.5C 180.469,95.355 179.303,96.0217 178,96.5C 175.901,95.7135 173.734,95.3801 171.5,95.5C 170.422,93.2624 170.922,91.2624 173,89.5C 170.715,81.7655 173.548,76.9322 181.5,75C 183.831,72.2098 183.664,69.3765 181,66.5C 180.097,65.2986 178.931,64.4652 177.5,64C 173.5,63.3333 169.5,63.3333 165.5,64C 164.627,65.045 163.627,65.8783 162.5,66.5C 161.716,62.3199 162.549,58.3199 165,54.5C 169.711,57.5131 174.878,59.3465 180.5,60C 181.949,63.116 184.116,65.616 187,67.5C 188.202,69.6775 188.702,72.0108 188.5,74.5 Z"/></g>
<g><path style="opacity:1" fill="#394456" d="M 222.5,70.5 C 220.167,71.8333 217.833,71.8333 215.5,70.5C 215.5,66.8333 215.5,63.1667 215.5,59.5C 216.519,57.4931 218.185,56.1598 220.5,55.5C 221.287,56.2421 221.953,57.0754 222.5,58C 221.751,62.0866 221.751,66.2533 222.5,70.5 Z"/></g>
<g><path style="opacity:1" fill="#1e1918" d="M 270.5,68.5 C 272.833,68.5 275.167,68.5 277.5,68.5C 277.5,71.8333 277.5,75.1667 277.5,78.5C 264.185,80.9988 250.852,83.4988 237.5,86C 234.726,86.6236 232.726,88.1236 231.5,90.5C 225.599,90.8463 220.765,88.8463 217,84.5C 216.51,83.2068 216.343,81.8734 216.5,80.5C 230.663,77.5011 244.996,74.6678 259.5,72C 263.427,71.2756 267.094,70.109 270.5,68.5 Z"/></g>
<g><path style="opacity:1" fill="#aedae0" d="M 11.5,109.5 C 8.83333,110.833 6.16667,110.833 3.5,109.5C 3.5,108.833 3.16667,108.5 2.5,108.5C 3.25432,95.8583 3.75432,83.1916 4,70.5C 7.24931,68.8828 9.91598,69.5495 12,72.5C 12.8265,85.0069 12.6599,97.3403 11.5,109.5 Z"/></g>
<g><path style="opacity:1" fill="#6384a0" d="M 171.5,95.5 C 169.598,97.1511 167.598,97.4845 165.5,96.5C 167.212,94.1043 167.712,91.4376 167,88.5C 163.129,86.3622 159.296,84.3622 155.5,82.5C 157.13,80.9739 157.963,78.9739 158,76.5C 160.428,75.37 162.595,73.87 164.5,72C 163.915,70.6976 163.249,69.531 162.5,68.5C 162.5,67.8333 162.5,67.1667 162.5,66.5C 163.627,65.8783 164.627,65.045 165.5,64C 169.5,63.3333 173.5,63.3333 177.5,64C 178.931,64.4652 180.097,65.2986 181,66.5C 183.664,69.3765 183.831,72.2098 181.5,75C 173.548,76.9322 170.715,81.7655 173,89.5C 170.922,91.2624 170.422,93.2624 171.5,95.5 Z"/></g>
<g><path style="opacity:1" fill="#31384b" d="M 196.5,85.5 C 196.5,86.8333 196.5,88.1667 196.5,89.5C 191.655,91.4117 186.655,93.0783 181.5,94.5C 184.117,90.8699 186.784,87.2032 189.5,83.5C 188.46,81.4771 187.46,79.4771 186.5,77.5C 186.453,75.9623 187.12,74.9623 188.5,74.5C 190.85,72.6152 193.35,72.2819 196,73.5C 196.499,77.4862 196.666,81.4862 196.5,85.5 Z"/></g>
<g><path style="opacity:1" fill="#374450" d="M 66.5,75.5 C 70.568,75.9307 72.568,78.264 72.5,82.5C 71.585,89.8403 68.4183,91.1736 63,86.5C 62.4321,82.2976 63.5988,78.6309 66.5,75.5 Z"/></g>
<g><path style="opacity:1" fill="#7da8c0" d="M 150.5,80.5 C 152.05,81.4408 153.716,82.1075 155.5,82.5C 159.296,84.3622 163.129,86.3622 167,88.5C 167.712,91.4376 167.212,94.1043 165.5,96.5C 165.5,97.1667 165.167,97.5 164.5,97.5C 161.655,96.6562 158.655,95.9896 155.5,95.5C 155.163,89.8415 152.496,85.5082 147.5,82.5C 147.973,81.0937 148.973,80.427 150.5,80.5 Z"/></g>
<g><path style="opacity:1" fill="#1f1f25" d="M 216.5,80.5 C 216.343,81.8734 216.51,83.2068 217,84.5C 220.765,88.8463 225.599,90.8463 231.5,90.5C 231.5,91.5 231.5,92.5 231.5,93.5C 229.018,96.4293 226.518,99.4293 224,102.5C 222.283,101.012 221.116,99.1785 220.5,97C 218.101,96.289 215.768,96.4557 213.5,97.5C 212.715,93.8027 210.715,92.8027 207.5,94.5C 207.016,91.2842 207.016,87.9509 207.5,84.5C 207.5,83.8333 207.5,83.1667 207.5,82.5C 210.162,80.7319 213.162,80.0653 216.5,80.5 Z"/></g>
<g><path style="opacity:1" fill="#92bcd0" d="M 147.5,82.5 C 152.496,85.5082 155.163,89.8415 155.5,95.5C 154.49,99.4521 155.824,102.452 159.5,104.5C 159.634,106.292 159.301,107.958 158.5,109.5C 153.569,110.209 149.569,108.376 146.5,104C 144.512,103.062 142.512,102.228 140.5,101.5C 136.992,98.7173 135.658,95.0506 136.5,90.5C 137.552,90.6495 138.552,90.4828 139.5,90C 140.726,85.9402 143.393,83.4402 147.5,82.5 Z"/></g>
<g><path style="opacity:1" fill="#2d262d" d="M 277.5,78.5 C 277.5,81.8333 277.5,85.1667 277.5,88.5C 273.655,88.7114 269.655,88.8781 265.5,89C 264.667,89.8333 263.833,90.6667 263,91.5C 256.91,89.8568 251.077,90.5235 245.5,93.5C 240.995,92.5013 236.328,92.5013 231.5,93.5C 231.5,92.5 231.5,91.5 231.5,90.5C 232.726,88.1236 234.726,86.6236 237.5,86C 250.852,83.4988 264.185,80.9988 277.5,78.5 Z"/></g>
<g><path style="opacity:1" fill="#647484" d="M 96.5,75.5 C 96.3535,78.4431 95.6868,81.2764 94.5,84C 95.1472,92.484 95.4805,100.984 95.5,109.5C 93.5,109.5 91.5,109.5 89.5,109.5C 89.683,107.064 89.0163,104.897 87.5,103C 87.5526,99.2527 88.2192,95.4194 89.5,91.5C 89.4008,89.2014 88.7342,87.2014 87.5,85.5C 87.8366,82.3444 87.8366,79.0111 87.5,75.5C 89.3936,74.9524 91.0603,73.9524 92.5,72.5C 94.261,73.0351 95.5943,74.0351 96.5,75.5 Z"/></g>
<g><path style="opacity:1" fill="#2a2a31" d="M 196.5,89.5 C 196.525,103.829 196.858,118.162 197.5,132.5C 196.417,136.085 195.751,139.751 195.5,143.5C 193.112,146.538 190.112,148.871 186.5,150.5C 185.675,152.801 185.008,155.135 184.5,157.5C 182.833,157.5 181.167,157.5 179.5,157.5C 176.193,158.051 172.86,158.384 169.5,158.5C 165.5,158.5 161.5,158.5 157.5,158.5C 158.831,149.865 159.831,141.199 160.5,132.5C 159.76,128.508 159.094,124.508 158.5,120.5C 159.5,120.5 160.5,120.5 161.5,120.5C 160.373,116.861 159.373,113.194 158.5,109.5C 159.301,107.958 159.634,106.292 159.5,104.5C 162.268,103.049 163.935,100.716 164.5,97.5C 165.167,97.5 165.5,97.1667 165.5,96.5C 167.598,97.4845 169.598,97.1511 171.5,95.5C 173.734,95.3801 175.901,95.7135 178,96.5C 179.303,96.0217 180.469,95.355 181.5,94.5C 186.655,93.0783 191.655,91.4117 196.5,89.5 Z"/></g>
<g><path style="opacity:1" fill="#393b41" d="M 277.5,88.5 C 277.5,104.167 277.5,119.833 277.5,135.5C 269.017,137.422 267.017,142.255 271.5,150C 269.542,152.003 269.209,154.169 270.5,156.5C 265.352,157.202 260.185,157.869 255,158.5C 253.615,158.486 252.449,158.152 251.5,157.5C 252.833,155.167 252.833,152.833 251.5,150.5C 252.833,150.5 254.167,150.5 255.5,150.5C 256.946,151.613 258.613,151.78 260.5,151C 262.113,148.772 262.78,146.272 262.5,143.5C 261.761,137.573 263.928,133.239 269,130.5C 269.667,128.167 269.667,125.833 269,123.5C 265.984,121.294 263.817,118.461 262.5,115C 259.286,115.917 255.953,116.25 252.5,116C 250.707,114.22 249.04,112.387 247.5,110.5C 245.907,114.299 245.074,118.299 245,122.5C 244.347,125.139 243.18,127.473 241.5,129.5C 239.326,129.75 237.659,130.75 236.5,132.5C 235.504,132.586 234.671,132.252 234,131.5C 234.094,128.499 232.761,126.499 230,125.5C 228.93,119.856 229.764,114.523 232.5,109.5C 239.833,110.381 244.833,107.214 247.5,100C 246.391,97.9534 245.724,95.7867 245.5,93.5C 251.077,90.5235 256.91,89.8568 263,91.5C 263.833,90.6667 264.667,89.8333 265.5,89C 269.655,88.8781 273.655,88.7114 277.5,88.5 Z"/></g>
<g><path style="opacity:1" fill="#333339" d="M 97.5,73.5 C 100.833,75.5 104.167,77.5 107.5,79.5C 106.852,81.0858 106.352,82.7525 106,84.5C 105.147,102.836 104.314,121.169 103.5,139.5C 105.167,139.5 106.833,139.5 108.5,139.5C 107.767,142.623 106.767,145.623 105.5,148.5C 105.743,151.829 106.743,154.829 108.5,157.5C 104.265,158.436 99.9315,158.769 95.5,158.5C 95.4141,152.533 95.4141,146.533 95.5,140.5C 95.5,137.833 95.5,135.167 95.5,132.5C 96.0568,125.119 96.0568,117.452 95.5,109.5C 95.4805,100.984 95.1472,92.484 94.5,84C 95.6868,81.2764 96.3535,78.4431 96.5,75.5C 97.3382,75.1583 97.6716,74.4916 97.5,73.5 Z"/></g>
<g><path style="opacity:1" fill="#2e2d32" d="M 245.5,93.5 C 245.724,95.7867 246.391,97.9534 247.5,100C 244.833,107.214 239.833,110.381 232.5,109.5C 229.764,114.523 228.93,119.856 230,125.5C 232.761,126.499 234.094,128.499 234,131.5C 234.671,132.252 235.504,132.586 236.5,132.5C 235.519,137.129 235.352,141.796 236,146.5C 237.126,147.944 238.626,148.61 240.5,148.5C 244.735,146.615 248.402,147.282 251.5,150.5C 252.833,152.833 252.833,155.167 251.5,157.5C 237.167,157.5 222.833,157.5 208.5,157.5C 206.585,157.784 204.919,157.451 203.5,156.5C 203.253,153.061 203.586,149.728 204.5,146.5C 205.458,146.047 206.292,145.381 207,144.5C 207.499,140.179 207.666,135.846 207.5,131.5C 207.429,128.689 206.762,126.022 205.5,123.5C 206.985,119.944 206.652,116.611 204.5,113.5C 205.909,107.224 206.909,100.891 207.5,94.5C 210.715,92.8027 212.715,93.8027 213.5,97.5C 215.768,96.4557 218.101,96.289 220.5,97C 221.116,99.1785 222.283,101.012 224,102.5C 226.518,99.4293 229.018,96.4293 231.5,93.5C 236.328,92.5013 240.995,92.5013 245.5,93.5 Z"/></g>
<g><path style="opacity:1" fill="#5a616d" d="M 207.5,84.5 C 207.016,87.9509 207.016,91.2842 207.5,94.5C 206.909,100.891 205.909,107.224 204.5,113.5C 206.652,116.611 206.985,119.944 205.5,123.5C 206.762,126.022 207.429,128.689 207.5,131.5C 204.236,132.324 200.902,132.658 197.5,132.5C 196.858,118.162 196.525,103.829 196.5,89.5C 196.5,88.1667 196.5,86.8333 196.5,85.5C 200.059,83.515 203.726,83.1817 207.5,84.5 Z"/></g>
<g><path style="opacity:1" fill="#517089" d="M 155.5,95.5 C 158.655,95.9896 161.655,96.6562 164.5,97.5C 163.935,100.716 162.268,103.049 159.5,104.5C 155.824,102.452 154.49,99.4521 155.5,95.5 Z"/></g>
<g><path style="opacity:1" fill="#31323d" d="M 81.5,103.5 C 81.3657,109.273 80.5324,114.94 79,120.5C 74.727,122.445 72.3937,125.778 72,130.5C 70.2359,132.389 68.7359,134.389 67.5,136.5C 64.3084,136.405 61.3084,137.071 58.5,138.5C 54.9147,134.449 51.5814,134.782 48.5,139.5C 45.0618,138.249 41.7284,138.583 38.5,140.5C 38.2351,132.043 37.9018,123.543 37.5,115C 37.596,110.043 39.2626,105.71 42.5,102C 53.5989,101.479 64.5989,102.312 75.5,104.5C 77.5477,104.328 79.5477,103.995 81.5,103.5 Z"/></g>
<g><path style="opacity:1" fill="#6f767c" d="M 3.5,109.5 C 6.16667,110.833 8.83333,110.833 11.5,109.5C 11.5,111.5 11.5,113.5 11.5,115.5C 8.5,114.167 5.5,114.167 2.5,115.5C 2.20528,113.265 2.53862,111.265 3.5,109.5 Z"/></g>
<g><path style="opacity:1" fill="#637075" d="M 262.5,143.5 C 260.126,142.314 257.792,142.314 255.5,143.5C 254.373,142.878 253.373,142.045 252.5,141C 250.888,140.28 249.388,140.446 248,141.5C 245.993,140.331 243.827,139.665 241.5,139.5C 241.016,136.049 241.016,132.716 241.5,129.5C 243.18,127.473 244.347,125.139 245,122.5C 245.074,118.299 245.907,114.299 247.5,110.5C 249.04,112.387 250.707,114.22 252.5,116C 255.953,116.25 259.286,115.917 262.5,115C 263.817,118.461 265.984,121.294 269,123.5C 269.667,125.833 269.667,128.167 269,130.5C 263.928,133.239 261.761,137.573 262.5,143.5 Z"/></g>
<g><path style="opacity:1" fill="#445770" d="M 140.5,113.5 C 142.5,113.5 144.5,113.5 146.5,113.5C 146.294,116.914 144.794,119.581 142,121.5C 141.506,123.134 141.34,124.801 141.5,126.5C 140.041,126.433 138.708,126.766 137.5,127.5C 137.713,124.525 138.713,121.858 140.5,119.5C 139.807,118.482 139.141,117.482 138.5,116.5C 139.167,115.5 139.833,114.5 140.5,113.5 Z"/></g>
<g><path style="opacity:1" fill="#303447" d="M 140.5,101.5 C 142.512,102.228 144.512,103.062 146.5,104C 149.569,108.376 153.569,110.209 158.5,109.5C 159.373,113.194 160.373,116.861 161.5,120.5C 160.5,120.5 159.5,120.5 158.5,120.5C 154.064,120.21 149.73,120.71 145.5,122C 143.039,123.982 142.539,126.149 144,128.5C 144.157,138.583 144.324,148.583 144.5,158.5C 143.833,158.5 143.167,158.5 142.5,158.5C 135.132,158.683 127.799,158.35 120.5,157.5C 121.167,156.167 121.833,154.833 122.5,153.5C 126.168,154.158 129.835,154.492 133.5,154.5C 136.861,153.972 139.194,152.139 140.5,149C 138.816,146.113 137.816,142.946 137.5,139.5C 137.5,135.5 137.5,131.5 137.5,127.5C 138.708,126.766 140.041,126.433 141.5,126.5C 141.34,124.801 141.506,123.134 142,121.5C 144.794,119.581 146.294,116.914 146.5,113.5C 144.5,113.5 142.5,113.5 140.5,113.5C 140.779,110.882 141.446,108.382 142.5,106C 141.418,104.67 140.751,103.17 140.5,101.5 Z"/></g>
<g><path style="opacity:1" fill="#a7ced9" d="M 11.5,115.5 C 12.8828,123.508 12.7161,131.508 11,139.5C 8.25654,140.917 5.75654,140.584 3.5,138.5C 2.53433,130.92 2.201,123.253 2.5,115.5C 5.5,114.167 8.5,114.167 11.5,115.5 Z"/></g>
<g><path style="opacity:1" fill="#738ca5" d="M 138.5,116.5 C 139.141,117.482 139.807,118.482 140.5,119.5C 138.713,121.858 137.713,124.525 137.5,127.5C 135.958,126.699 134.292,126.366 132.5,126.5C 130.117,124.763 128.451,122.43 127.5,119.5C 130.937,118.055 134.603,117.055 138.5,116.5 Z"/></g>
<g><path style="opacity:1" fill="#778c99" d="M 89.5,109.5 C 91.5,109.5 93.5,109.5 95.5,109.5C 96.0568,117.452 96.0568,125.119 95.5,132.5C 93.1667,132.5 90.8333,132.5 88.5,132.5C 88.6979,126.468 88.3645,120.468 87.5,114.5C 87.4357,112.443 88.1024,110.777 89.5,109.5 Z"/></g>
<g><path style="opacity:1" fill="#18121f" d="M 158.5,120.5 C 159.094,124.508 159.76,128.508 160.5,132.5C 159.831,141.199 158.831,149.865 157.5,158.5C 153.167,158.5 148.833,158.5 144.5,158.5C 144.324,148.583 144.157,138.583 144,128.5C 142.539,126.149 143.039,123.982 145.5,122C 149.73,120.71 154.064,120.21 158.5,120.5 Z"/></g>
<g><path style="opacity:1" fill="#556e8a" d="M 127.5,119.5 C 128.451,122.43 130.117,124.763 132.5,126.5C 131.119,131.507 131.286,136.507 133,141.5C 134.47,140.733 135.97,140.067 137.5,139.5C 137.816,142.946 138.816,146.113 140.5,149C 139.194,152.139 136.861,153.972 133.5,154.5C 129.835,154.492 126.168,154.158 122.5,153.5C 122.334,147.158 122.5,140.825 123,134.5C 124.464,133.541 125.297,132.208 125.5,130.5C 123.729,128.329 122.396,125.829 121.5,123C 122.429,120.091 124.429,118.925 127.5,119.5 Z"/></g>
<g><path style="opacity:1" fill="#3f424e" d="M 87.5,85.5 C 88.7342,87.2014 89.4008,89.2014 89.5,91.5C 88.2192,95.4194 87.5526,99.2527 87.5,103C 89.0163,104.897 89.683,107.064 89.5,109.5C 88.1024,110.777 87.4357,112.443 87.5,114.5C 88.3645,120.468 88.6979,126.468 88.5,132.5C 82.9108,141.913 85.2441,144.58 95.5,140.5C 95.4141,146.533 95.4141,152.533 95.5,158.5C 94.1667,158.5 92.8333,158.5 91.5,158.5C 85.7848,158.299 80.2848,157.299 75,155.5C 72.0137,155.953 69.0137,156.287 66,156.5C 63.7047,156.453 61.8714,155.787 60.5,154.5C 62.5834,153.971 64.4167,152.971 66,151.5C 66.7478,146.519 67.2478,141.519 67.5,136.5C 68.7359,134.389 70.2359,132.389 72,130.5C 72.3937,125.778 74.727,122.445 79,120.5C 80.5324,114.94 81.3657,109.273 81.5,103.5C 83.1921,101.795 84.5254,99.7952 85.5,97.5C 85.3347,93.8183 85.5014,90.1516 86,86.5C 86.3826,85.944 86.8826,85.6107 87.5,85.5 Z"/></g>
<g><path style="opacity:1" fill="#50515c" d="M 207.5,131.5 C 207.666,135.846 207.499,140.179 207,144.5C 206.292,145.381 205.458,146.047 204.5,146.5C 204.389,145.883 204.056,145.383 203.5,145C 200.793,144.605 198.127,144.105 195.5,143.5C 195.751,139.751 196.417,136.085 197.5,132.5C 200.902,132.658 204.236,132.324 207.5,131.5 Z"/></g>
<g><path style="opacity:1" fill="#63707c" d="M 88.5,132.5 C 90.8333,132.5 93.1667,132.5 95.5,132.5C 95.5,135.167 95.5,137.833 95.5,140.5C 85.2441,144.58 82.9108,141.913 88.5,132.5 Z"/></g>
<g><path style="opacity:1" fill="#99b2c5" d="M 132.5,126.5 C 134.292,126.366 135.958,126.699 137.5,127.5C 137.5,131.5 137.5,135.5 137.5,139.5C 135.97,140.067 134.47,140.733 133,141.5C 131.286,136.507 131.119,131.507 132.5,126.5 Z"/></g>
<g><path style="opacity:1" fill="#676567" d="M 58.5,138.5 C 58.5,141.5 58.5,144.5 58.5,147.5C 57.1667,147.5 55.8333,147.5 54.5,147.5C 54.5,145.167 54.5,142.833 54.5,140.5C 52.3792,140.325 50.3792,140.659 48.5,141.5C 48.5,140.833 48.5,140.167 48.5,139.5C 51.5814,134.782 54.9147,134.449 58.5,138.5 Z"/></g>
<g><path style="opacity:1" fill="#373231" d="M 67.5,136.5 C 67.2478,141.519 66.7478,146.519 66,151.5C 64.4167,152.971 62.5834,153.971 60.5,154.5C 59.8571,152.924 58.8571,151.59 57.5,150.5C 58.1098,149.609 58.4431,148.609 58.5,147.5C 58.5,144.5 58.5,141.5 58.5,138.5C 61.3084,137.071 64.3084,136.405 67.5,136.5 Z"/></g>
<g><path style="opacity:1" fill="#373e43" d="M 48.5,139.5 C 48.5,140.167 48.5,140.833 48.5,141.5C 48.5407,145.616 49.2073,149.616 50.5,153.5C 50.5,154.5 50.5,155.5 50.5,156.5C 46.8815,157.244 43.2148,157.577 39.5,157.5C 37.8333,157.5 36.1667,157.5 34.5,157.5C 36.0746,151.968 37.408,146.301 38.5,140.5C 41.7284,138.583 45.0618,138.249 48.5,139.5 Z"/></g>
<g><path style="opacity:1" fill="#50575d" d="M 241.5,129.5 C 241.016,132.716 241.016,136.049 241.5,139.5C 243.827,139.665 245.993,140.331 248,141.5C 249.388,140.446 250.888,140.28 252.5,141C 253.373,142.045 254.373,142.878 255.5,143.5C 254.562,145.91 254.562,148.244 255.5,150.5C 254.167,150.5 252.833,150.5 251.5,150.5C 248.402,147.282 244.735,146.615 240.5,148.5C 238.626,148.61 237.126,147.944 236,146.5C 235.352,141.796 235.519,137.129 236.5,132.5C 237.659,130.75 239.326,129.75 241.5,129.5 Z"/></g>
<g><path style="opacity:1" fill="#aeb3ad" d="M 58.5,147.5 C 58.4431,148.609 58.1098,149.609 57.5,150.5C 55.7867,152.85 53.4534,153.85 50.5,153.5C 49.2073,149.616 48.5407,145.616 48.5,141.5C 50.3792,140.659 52.3792,140.325 54.5,140.5C 54.5,142.833 54.5,145.167 54.5,147.5C 55.8333,147.5 57.1667,147.5 58.5,147.5 Z"/></g>
<g><path style="opacity:1" fill="#829cae" d="M 262.5,143.5 C 262.78,146.272 262.113,148.772 260.5,151C 258.613,151.78 256.946,151.613 255.5,150.5C 254.562,148.244 254.562,145.91 255.5,143.5C 257.792,142.314 260.126,142.314 262.5,143.5 Z"/></g>
<g><path style="opacity:1" fill="#3f3b41" d="M 195.5,143.5 C 198.127,144.105 200.793,144.605 203.5,145C 204.056,145.383 204.389,145.883 204.5,146.5C 203.586,149.728 203.253,153.061 203.5,156.5C 197.19,157.19 190.857,157.524 184.5,157.5C 185.008,155.135 185.675,152.801 186.5,150.5C 190.112,148.871 193.112,146.538 195.5,143.5 Z"/></g>
<g><path style="opacity:1" fill="#6f7b8c" d="M 57.5,150.5 C 58.8571,151.59 59.8571,152.924 60.5,154.5C 61.8714,155.787 63.7047,156.453 66,156.5C 69.0137,156.287 72.0137,155.953 75,155.5C 80.2848,157.299 85.7848,158.299 91.5,158.5C 92.2341,159.708 92.5674,161.041 92.5,162.5C 91.1667,162.5 89.8333,162.5 88.5,162.5C 76.7853,162.19 65.1186,162.19 53.5,162.5C 55.1667,159.167 54.1667,157.167 50.5,156.5C 50.5,155.5 50.5,154.5 50.5,153.5C 53.4534,153.85 55.7867,152.85 57.5,150.5 Z"/></g>
<g><path style="opacity:1" fill="#313743" d="M 24.5,158.5 C 23.1201,158.962 22.4534,159.962 22.5,161.5C 23.2217,163.944 24.2217,166.278 25.5,168.5C 27.7427,169.474 30.076,169.808 32.5,169.5C 32.8333,169.5 33.1667,169.5 33.5,169.5C 33.5,170.833 33.5,172.167 33.5,173.5C 31.4727,173.338 29.4727,173.505 27.5,174C 27.0338,175.299 27.0338,176.799 27.5,178.5C 26.2888,181.151 24.9555,183.818 23.5,186.5C 19.1667,186.5 14.8333,186.5 10.5,186.5C 10.5,185.5 10.5,184.5 10.5,183.5C 9.49245,179.81 8.32579,176.143 7,172.5C 5,171.833 3.66667,170.5 3,168.5C 2.22084,163.5 1.8875,158.5 2,153.5C 7.78534,152.544 13.6187,152.71 19.5,154C 21.6605,154.996 23.3272,156.496 24.5,158.5 Z"/></g>
<g><path style="opacity:1" fill="#cde7ec" d="M 32.5,157.5 C 32.6953,161.54 32.6953,165.54 32.5,169.5C 30.076,169.808 27.7427,169.474 25.5,168.5C 24.2217,166.278 23.2217,163.944 22.5,161.5C 22.4534,159.962 23.1201,158.962 24.5,158.5C 27.0545,157.612 29.7212,157.279 32.5,157.5 Z"/></g>
<g><path style="opacity:1" fill="#9bb5c0" d="M 32.5,157.5 C 33.1667,157.5 33.8333,157.5 34.5,157.5C 36.1667,157.5 37.8333,157.5 39.5,157.5C 39.8925,159.284 40.5592,160.95 41.5,162.5C 39.461,163.911 38.461,165.911 38.5,168.5C 36.8828,169.038 35.2161,169.371 33.5,169.5C 33.1667,169.5 32.8333,169.5 32.5,169.5C 32.6953,165.54 32.6953,161.54 32.5,157.5 Z"/></g>
<g><path style="opacity:1" fill="#899bae" d="M 50.5,156.5 C 54.1667,157.167 55.1667,159.167 53.5,162.5C 49.5,162.5 45.5,162.5 41.5,162.5C 40.5592,160.95 39.8925,159.284 39.5,157.5C 43.2148,157.577 46.8815,157.244 50.5,156.5 Z"/></g>
<g><path style="opacity:1" fill="#75727a" d="M 108.5,157.5 C 112.5,157.5 116.5,157.5 120.5,157.5C 127.799,158.35 135.132,158.683 142.5,158.5C 140.964,161.417 138.464,162.75 135,162.5C 128.194,161.639 121.361,161.306 114.5,161.5C 113.508,161.328 112.842,161.662 112.5,162.5C 105.833,162.5 99.1667,162.5 92.5,162.5C 92.5674,161.041 92.2341,159.708 91.5,158.5C 92.8333,158.5 94.1667,158.5 95.5,158.5C 99.9315,158.769 104.265,158.436 108.5,157.5 Z"/></g>
<g><path style="opacity:1" fill="#5b4a4a" d="M 179.5,157.5 C 179.76,159.595 180.926,160.928 183,161.5C 187.831,160.266 192.664,160.266 197.5,161.5C 197.433,162.959 197.766,164.292 198.5,165.5C 194.906,166.457 191.24,167.124 187.5,167.5C 184.479,167.583 181.645,166.916 179,165.5C 177.594,166.414 176.094,167.08 174.5,167.5C 172.473,164.78 170.807,161.78 169.5,158.5C 172.86,158.384 176.193,158.051 179.5,157.5 Z"/></g>
<g><path style="opacity:1" fill="#63575d" d="M 203.5,156.5 C 204.919,157.451 206.585,157.784 208.5,157.5C 207.017,160.411 207.35,163.078 209.5,165.5C 205.684,166.62 202.017,166.62 198.5,165.5C 197.766,164.292 197.433,162.959 197.5,161.5C 192.664,160.266 187.831,160.266 183,161.5C 180.926,160.928 179.76,159.595 179.5,157.5C 181.167,157.5 182.833,157.5 184.5,157.5C 190.857,157.524 197.19,157.19 203.5,156.5 Z"/></g>
<g><path style="opacity:1" fill="#85858c" d="M 270.5,156.5 C 271.124,156.917 271.457,157.584 271.5,158.5C 270.553,160.4 269.053,161.733 267,162.5C 266.59,163.901 266.09,165.234 265.5,166.5C 256.677,166.225 248.01,166.225 239.5,166.5C 233.824,166.666 228.157,166.499 222.5,166C 221.892,165.13 221.059,164.63 220,164.5C 216.559,165.382 213.059,165.716 209.5,165.5C 207.35,163.078 207.017,160.411 208.5,157.5C 222.833,157.5 237.167,157.5 251.5,157.5C 252.449,158.152 253.615,158.486 255,158.5C 260.185,157.869 265.352,157.202 270.5,156.5 Z"/></g>
<g><path style="opacity:1" fill="#70534e" d="M 142.5,158.5 C 143.167,158.5 143.833,158.5 144.5,158.5C 148.833,158.5 153.167,158.5 157.5,158.5C 161.5,158.5 165.5,158.5 169.5,158.5C 170.807,161.78 172.473,164.78 174.5,167.5C 174.5,167.833 174.5,168.167 174.5,168.5C 168.824,168.666 163.157,168.499 157.5,168C 154.523,166.298 151.856,166.798 149.5,169.5C 144.155,169.313 138.822,168.98 133.5,168.5C 132.626,167.475 131.459,166.808 130,166.5C 122.478,171.492 117.312,169.826 114.5,161.5C 121.361,161.306 128.194,161.639 135,162.5C 138.464,162.75 140.964,161.417 142.5,158.5 Z"/></g>
<g><path style="opacity:1" fill="#2b252a" d="M 277.5,135.5 C 277.5,149.167 277.5,162.833 277.5,176.5C 275.421,176.971 273.421,177.637 271.5,178.5C 271.201,174.868 269.201,172.868 265.5,172.5C 265.5,170.5 265.5,168.5 265.5,166.5C 266.09,165.234 266.59,163.901 267,162.5C 269.053,161.733 270.553,160.4 271.5,158.5C 271.457,157.584 271.124,156.917 270.5,156.5C 269.209,154.169 269.542,152.003 271.5,150C 267.017,142.255 269.017,137.422 277.5,135.5 Z"/></g>
<g><path style="opacity:1" fill="#514c54" d="M 88.5,162.5 C 88.5,164.5 88.5,166.5 88.5,168.5C 74.8199,169.882 61.1532,170.216 47.5,169.5C 44.7131,168.523 41.7131,168.19 38.5,168.5C 38.461,165.911 39.461,163.911 41.5,162.5C 45.5,162.5 49.5,162.5 53.5,162.5C 65.1186,162.19 76.7853,162.19 88.5,162.5 Z"/></g>
<g><path style="opacity:1" fill="#685254" d="M 88.5,162.5 C 89.8333,162.5 91.1667,162.5 92.5,162.5C 99.1667,162.5 105.833,162.5 112.5,162.5C 112.978,170.062 109.978,172.395 103.5,169.5C 98.7091,169.219 93.7091,169.219 88.5,169.5C 88.5,169.167 88.5,168.833 88.5,168.5C 88.5,166.5 88.5,164.5 88.5,162.5 Z"/></g>
<g><path style="opacity:1" fill="#3d2b31" d="M 239.5,166.5 C 248.01,166.225 256.677,166.225 265.5,166.5C 265.5,168.5 265.5,170.5 265.5,172.5C 269.201,172.868 271.201,174.868 271.5,178.5C 270.66,204.83 270.494,231.163 271,257.5C 273.007,258.669 275.173,259.335 277.5,259.5C 277.5,263.833 277.5,268.167 277.5,272.5C 275.184,273.36 272.851,273.86 270.5,274C 269.667,273.167 268.833,272.333 268,271.5C 267.892,267.823 267.892,264.157 268,260.5C 266.51,259.272 265.01,259.272 263.5,260.5C 262.225,257.949 260.391,256.949 258,257.5C 249.143,255.695 240.31,253.695 231.5,251.5C 231.174,248.393 232.341,246.06 235,244.5C 235.607,241.798 235.44,239.132 234.5,236.5C 236.971,232.229 237.971,227.562 237.5,222.5C 237.333,219.5 237.167,216.5 237,213.5C 234.597,212.219 232.763,210.386 231.5,208C 231.728,207.601 232.062,207.435 232.5,207.5C 238.491,207.966 244.491,208.299 250.5,208.5C 254.052,206.633 256.886,203.966 259,200.5C 259.031,196.536 257.864,192.869 255.5,189.5C 246.675,188.006 244.008,183.006 247.5,174.5C 244.8,171.827 242.133,169.16 239.5,166.5 Z"/></g>
<g><path style="opacity:1" fill="#4c3938" d="M 239.5,166.5 C 242.133,169.16 244.8,171.827 247.5,174.5C 244.008,183.006 246.675,188.006 255.5,189.5C 257.864,192.869 259.031,196.536 259,200.5C 256.886,203.966 254.052,206.633 250.5,208.5C 250.144,207.13 249.31,206.13 248,205.5C 244.522,204.671 241.022,204.004 237.5,203.5C 237.511,201.453 237.844,199.453 238.5,197.5C 236.755,194.262 235.255,190.928 234,187.5C 231.619,186.565 229.119,186.232 226.5,186.5C 226.5,184.5 226.5,182.5 226.5,180.5C 223.833,180.5 221.167,180.5 218.5,180.5C 218.658,176.788 218.658,173.288 218.5,170C 217.167,169.333 215.833,169.333 214.5,170C 213.154,171.669 211.487,172.836 209.5,173.5C 209.014,171.048 209.014,168.382 209.5,165.5C 213.059,165.716 216.559,165.382 220,164.5C 221.059,164.63 221.892,165.13 222.5,166C 228.157,166.499 233.824,166.666 239.5,166.5 Z"/></g>
<g><path style="opacity:1" fill="#110c11" d="M 88.5,168.5 C 88.5,168.833 88.5,169.167 88.5,169.5C 89.6567,173.117 89.6567,176.784 88.5,180.5C 74.5821,181.875 60.5821,182.375 46.5,182C 44.9557,177.62 45.289,173.454 47.5,169.5C 61.1532,170.216 74.8199,169.882 88.5,168.5 Z"/></g>
<g><path style="opacity:1" fill="#3d2b2a" d="M 103.5,169.5 C 101.181,176.04 100.847,182.707 102.5,189.5C 102.5,190.167 102.167,190.5 101.5,190.5C 97.8212,190.724 94.1545,191.058 90.5,191.5C 90.5701,187.575 89.9034,183.909 88.5,180.5C 89.6567,176.784 89.6567,173.117 88.5,169.5C 93.7091,169.219 98.7091,169.219 103.5,169.5 Z"/></g>
<g><path style="opacity:1" fill="#724538" d="M 133.5,168.5 C 138.822,168.98 144.155,169.313 149.5,169.5C 149.247,173.415 149.913,177.081 151.5,180.5C 148.692,181.929 145.692,182.595 142.5,182.5C 138.865,181.886 135.198,181.552 131.5,181.5C 132.007,177.14 132.673,172.807 133.5,168.5 Z"/></g>
<g><path style="opacity:1" fill="#5a3c37" d="M 114.5,161.5 C 117.312,169.826 122.478,171.492 130,166.5C 131.459,166.808 132.626,167.475 133.5,168.5C 132.673,172.807 132.007,177.14 131.5,181.5C 127.809,182.519 124.143,182.685 120.5,182C 117.583,183.528 114.583,184.861 111.5,186C 109.859,187.129 108.859,188.629 108.5,190.5C 106.379,190.675 104.379,190.341 102.5,189.5C 100.847,182.707 101.181,176.04 103.5,169.5C 109.978,172.395 112.978,170.062 112.5,162.5C 112.842,161.662 113.508,161.328 114.5,161.5 Z"/></g>
<g><path style="opacity:1" fill="#754b3d" d="M 218.5,180.5 C 217.655,191.143 217.321,201.81 217.5,212.5C 214.721,212.279 212.054,212.612 209.5,213.5C 209.5,212.833 209.5,212.167 209.5,211.5C 209.5,204.167 209.5,196.833 209.5,189.5C 209.5,184.167 209.5,178.833 209.5,173.5C 211.487,172.836 213.154,171.669 214.5,170C 215.833,169.333 217.167,169.333 218.5,170C 218.658,173.288 218.658,176.788 218.5,180.5 Z"/></g>
<g><path style="opacity:1" fill="#5d3c36" d="M 174.5,168.5 C 175.249,169.531 175.915,170.698 176.5,172C 180.585,172.233 184.585,172.733 188.5,173.5C 188.372,175.655 188.872,177.655 190,179.5C 193.167,182.667 196.333,185.833 199.5,189C 200.793,189.49 202.127,189.657 203.5,189.5C 203.5,189.833 203.5,190.167 203.5,190.5C 203.676,195.88 203.342,201.213 202.5,206.5C 200.45,206.039 198.45,205.372 196.5,204.5C 195.893,204.624 195.56,204.957 195.5,205.5C 194.533,204.194 193.199,203.527 191.5,203.5C 191.666,198.489 191.499,193.489 191,188.5C 189.605,186.86 188.105,185.36 186.5,184C 178.413,182.475 170.246,181.309 162,180.5C 159.612,182.917 157.445,185.584 155.5,188.5C 155.167,188.5 154.833,188.5 154.5,188.5C 154.267,186.938 153.6,185.605 152.5,184.5C 152.567,183.041 152.234,181.708 151.5,180.5C 149.913,177.081 149.247,173.415 149.5,169.5C 151.856,166.798 154.523,166.298 157.5,168C 163.157,168.499 168.824,168.666 174.5,168.5 Z"/></g>
<g><path style="opacity:1" fill="#6f7d8e" d="M 33.5,173.5 C 34.7199,175.284 34.7199,176.95 33.5,178.5C 31.5,179.833 29.5,179.833 27.5,178.5C 27.0338,176.799 27.0338,175.299 27.5,174C 29.4727,173.505 31.4727,173.338 33.5,173.5 Z"/></g>
<g><path style="opacity:1" fill="#4a3837" d="M 188.5,173.5 C 192.846,173.334 197.179,173.501 201.5,174C 202,174.5 202.5,175 203,175.5C 203.499,180.155 203.666,184.821 203.5,189.5C 202.127,189.657 200.793,189.49 199.5,189C 196.333,185.833 193.167,182.667 190,179.5C 188.872,177.655 188.372,175.655 188.5,173.5 Z"/></g>
<g><path style="opacity:1" fill="#322323" d="M 38.5,168.5 C 41.7131,168.19 44.7131,168.523 47.5,169.5C 45.289,173.454 44.9557,177.62 46.5,182C 60.5821,182.375 74.5821,181.875 88.5,180.5C 89.9034,183.909 90.5701,187.575 90.5,191.5C 90.5,196.833 90.5,202.167 90.5,207.5C 82.1667,209.167 78.8333,205.833 80.5,197.5C 81.5,197.5 82.5,197.5 83.5,197.5C 86.7757,187.021 83.109,183.354 72.5,186.5C 63.8417,187.011 55.175,187.344 46.5,187.5C 45.3046,191.88 45.3046,196.213 46.5,200.5C 45.1144,203.393 45.4477,206.226 47.5,209C 56.5441,209.399 65.5441,208.899 74.5,207.5C 73.9285,208.973 73.9285,210.64 74.5,212.5C 65.101,212.855 55.7676,213.688 46.5,215C 45.7476,215.671 45.4142,216.504 45.5,217.5C 42.4781,217.804 39.4781,218.304 36.5,219C 35.8742,219.75 35.3742,220.584 35,221.5C 34.5126,228.898 35.0126,236.231 36.5,243.5C 35.1779,243.67 34.0113,243.337 33,242.5C 30.8686,235.974 29.3686,229.308 28.5,222.5C 28.481,219.761 29.1477,217.261 30.5,215C 29.2116,212.303 28.2116,209.47 27.5,206.5C 30.1466,205.927 32.8133,205.26 35.5,204.5C 34.8075,203.482 34.1408,202.482 33.5,201.5C 33.5,196.167 33.5,190.833 33.5,185.5C 33.5,183.167 33.5,180.833 33.5,178.5C 34.7199,176.95 34.7199,175.284 33.5,173.5C 33.5,172.167 33.5,170.833 33.5,169.5C 35.2161,169.371 36.8828,169.038 38.5,168.5 Z"/></g>
<g><path style="opacity:1" fill="#372525" d="M 198.5,165.5 C 202.017,166.62 205.684,166.62 209.5,165.5C 209.014,168.382 209.014,171.048 209.5,173.5C 209.5,178.833 209.5,184.167 209.5,189.5C 207.621,190.341 205.621,190.675 203.5,190.5C 203.5,190.167 203.5,189.833 203.5,189.5C 203.666,184.821 203.499,180.155 203,175.5C 202.5,175 202,174.5 201.5,174C 197.179,173.501 192.846,173.334 188.5,173.5C 184.585,172.733 180.585,172.233 176.5,172C 175.915,170.698 175.249,169.531 174.5,168.5C 174.5,168.167 174.5,167.833 174.5,167.5C 176.094,167.08 177.594,166.414 179,165.5C 181.645,166.916 184.479,167.583 187.5,167.5C 191.24,167.124 194.906,166.457 198.5,165.5 Z"/></g>
<g><path style="opacity:1" fill="#4a5163" d="M 27.5,178.5 C 29.5,179.833 31.5,179.833 33.5,178.5C 33.5,180.833 33.5,183.167 33.5,185.5C 30.4372,187.365 27.1039,187.699 23.5,186.5C 24.9555,183.818 26.2888,181.151 27.5,178.5 Z"/></g>
<g><path style="opacity:1" fill="#522b25" d="M 191.5,203.5 C 191.5,204.833 191.5,206.167 191.5,207.5C 188.751,207.726 186.084,207.393 183.5,206.5C 182.148,207.524 180.815,208.524 179.5,209.5C 175.99,208.155 173.656,205.655 172.5,202C 171.207,201.51 169.873,201.343 168.5,201.5C 167.5,201.167 166.833,200.5 166.5,199.5C 168.809,197.692 168.809,195.692 166.5,193.5C 164.929,192.691 163.262,192.357 161.5,192.5C 160.071,190.31 158.071,188.976 155.5,188.5C 157.445,185.584 159.612,182.917 162,180.5C 170.246,181.309 178.413,182.475 186.5,184C 188.105,185.36 189.605,186.86 191,188.5C 191.499,193.489 191.666,198.489 191.5,203.5 Z"/></g>
<g><path style="opacity:1" fill="#56382a" d="M 218.5,180.5 C 221.167,180.5 223.833,180.5 226.5,180.5C 226.5,182.5 226.5,184.5 226.5,186.5C 224.335,186.116 222.668,186.783 221.5,188.5C 222.167,194.196 222.834,199.863 223.5,205.5C 222.207,215.334 222.207,225.167 223.5,235C 222.615,237.157 220.948,237.99 218.5,237.5C 218.388,229.156 218.055,220.822 217.5,212.5C 217.321,201.81 217.655,191.143 218.5,180.5 Z"/></g>
<g><path style="opacity:1" fill="#522b1f" d="M 131.5,181.5 C 135.198,181.552 138.865,181.886 142.5,182.5C 142.461,183.583 142.127,184.583 141.5,185.5C 133.613,189.629 125.28,192.462 116.5,194C 115.944,194.383 115.611,194.883 115.5,195.5C 109.742,199.096 107.409,197.429 108.5,190.5C 108.859,188.629 109.859,187.129 111.5,186C 114.583,184.861 117.583,183.528 120.5,182C 124.143,182.685 127.809,182.519 131.5,181.5 Z"/></g>
<g><path style="opacity:1" fill="#2a2a36" d="M 10.5,183.5 C 10.5,184.5 10.5,185.5 10.5,186.5C 14.8333,186.5 19.1667,186.5 23.5,186.5C 27.1039,187.699 30.4372,187.365 33.5,185.5C 33.5,190.833 33.5,196.167 33.5,201.5C 31.1667,201.5 28.8333,201.5 26.5,201.5C 27.2186,199.236 27.552,196.903 27.5,194.5C 24.1667,194.5 20.8333,194.5 17.5,194.5C 16.6398,192.386 14.9732,191.22 12.5,191C 9.85397,190.503 7.1873,190.336 4.5,190.5C 5.06787,186.933 7.06787,184.599 10.5,183.5 Z"/></g>
<g><path style="opacity:1" fill="#e6a83d" d="M 152.5,184.5 C 153.6,185.605 154.267,186.938 154.5,188.5C 155.084,191.003 155.751,193.503 156.5,196C 156.361,197.301 155.695,198.134 154.5,198.5C 152.784,196.975 150.784,195.975 148.5,195.5C 149.265,192.904 149.599,190.237 149.5,187.5C 149.5,185.5 150.5,184.5 152.5,184.5 Z"/></g>
<g><path style="opacity:1" fill="#110c11" d="M 72.5,186.5 C 70.7984,190.23 68.7984,193.896 66.5,197.5C 60.81,198.672 55.1434,200.006 49.5,201.5C 48.4163,201.315 47.4163,200.982 46.5,200.5C 45.3046,196.213 45.3046,191.88 46.5,187.5C 55.175,187.344 63.8417,187.011 72.5,186.5 Z"/></g>
<g><path style="opacity:1" fill="#7a3a27" d="M 151.5,180.5 C 152.234,181.708 152.567,183.041 152.5,184.5C 150.5,184.5 149.5,185.5 149.5,187.5C 145.796,188.706 142.796,190.872 140.5,194C 137.247,195.036 133.914,195.703 130.5,196C 127.617,200.217 123.617,201.551 118.5,200C 117.956,199.283 117.289,198.783 116.5,198.5C 116.737,197.209 116.404,196.209 115.5,195.5C 115.611,194.883 115.944,194.383 116.5,194C 125.28,192.462 133.613,189.629 141.5,185.5C 142.127,184.583 142.461,183.583 142.5,182.5C 145.692,182.595 148.692,181.929 151.5,180.5 Z"/></g>
<g><path style="opacity:1" fill="#634b3d" d="M 226.5,186.5 C 229.119,186.232 231.619,186.565 234,187.5C 235.255,190.928 236.755,194.262 238.5,197.5C 237.844,199.453 237.511,201.453 237.5,203.5C 233.029,202.911 229.029,203.577 225.5,205.5C 224.833,205.5 224.167,205.5 223.5,205.5C 222.834,199.863 222.167,194.196 221.5,188.5C 222.668,186.783 224.335,186.116 226.5,186.5 Z"/></g>
<g><path style="opacity:1" fill="#26191f" d="M 80.5,197.5 C 78.9582,198.301 77.2915,198.634 75.5,198.5C 75.6204,200.199 75.9537,201.865 76.5,203.5C 76.3318,205.171 75.6651,206.504 74.5,207.5C 65.5441,208.899 56.5441,209.399 47.5,209C 45.4477,206.226 45.1144,203.393 46.5,200.5C 47.4163,200.982 48.4163,201.315 49.5,201.5C 55.1434,200.006 60.81,198.672 66.5,197.5C 68.7984,193.896 70.7984,190.23 72.5,186.5C 83.109,183.354 86.7757,187.021 83.5,197.5C 82.5,197.5 81.5,197.5 80.5,197.5 Z"/></g>
<g><path style="opacity:1" fill="#714330" d="M 102.5,189.5 C 104.379,190.341 106.379,190.675 108.5,190.5C 107.409,197.429 109.742,199.096 115.5,195.5C 116.404,196.209 116.737,197.209 116.5,198.5C 114.892,201.382 113.559,204.382 112.5,207.5C 111.735,207.923 110.902,208.257 110,208.5C 108.433,207.144 106.6,206.477 104.5,206.5C 104.662,208.527 104.495,210.527 104,212.5C 103.583,213.756 102.75,214.423 101.5,214.5C 102.202,206.554 102.202,198.554 101.5,190.5C 102.167,190.5 102.5,190.167 102.5,189.5 Z"/></g>
<g><path style="opacity:1" fill="#432b24" d="M 209.5,189.5 C 209.5,196.833 209.5,204.167 209.5,211.5C 207.167,211.5 204.833,211.5 202.5,211.5C 202.5,209.833 202.5,208.167 202.5,206.5C 203.342,201.213 203.676,195.88 203.5,190.5C 205.621,190.675 207.621,190.341 209.5,189.5 Z"/></g>
<g><path style="opacity:1" fill="#6b7783" d="M 1.5,190.5 C 2.5,190.5 3.5,190.5 4.5,190.5C 7.1873,190.336 9.85397,190.503 12.5,191C 14.9732,191.22 16.6398,192.386 17.5,194.5C 12.3595,195.488 7.02621,195.821 1.5,195.5C 1.5,193.833 1.5,192.167 1.5,190.5 Z"/></g>
<g><path style="opacity:1" fill="#5c322a" d="M 101.5,190.5 C 102.202,198.554 102.202,206.554 101.5,214.5C 101.5,216.167 101.5,217.833 101.5,219.5C 97.3272,220.224 93.3272,221.558 89.5,223.5C 89.5,220.167 89.5,216.833 89.5,213.5C 90.3414,211.621 90.6747,209.621 90.5,207.5C 90.5,202.167 90.5,196.833 90.5,191.5C 94.1545,191.058 97.8212,190.724 101.5,190.5 Z"/></g>
<g><path style="opacity:1" fill="#b8612b" d="M 154.5,188.5 C 154.833,188.5 155.167,188.5 155.5,188.5C 158.071,188.976 160.071,190.31 161.5,192.5C 161.975,194.784 162.975,196.784 164.5,198.5C 162.5,199.5 160.5,200.5 158.5,201.5C 156.938,201.267 155.605,200.6 154.5,199.5C 154.5,199.167 154.5,198.833 154.5,198.5C 155.695,198.134 156.361,197.301 156.5,196C 155.751,193.503 155.084,191.003 154.5,188.5 Z"/></g>
<g><path style="opacity:1" fill="#823e24" d="M 161.5,192.5 C 163.262,192.357 164.929,192.691 166.5,193.5C 168.809,195.692 168.809,197.692 166.5,199.5C 165.833,199.167 165.167,198.833 164.5,198.5C 162.975,196.784 161.975,194.784 161.5,192.5 Z"/></g>
<g><path style="opacity:1" fill="#9d4c25" d="M 149.5,187.5 C 149.599,190.237 149.265,192.904 148.5,195.5C 147.5,195.833 146.833,196.5 146.5,197.5C 140.803,197.866 138.469,200.866 139.5,206.5C 138.078,207.925 136.411,208.925 134.5,209.5C 132.708,209.634 131.042,209.301 129.5,208.5C 125.023,205.706 120.69,206.039 116.5,209.5C 115.167,208.833 113.833,208.167 112.5,207.5C 113.559,204.382 114.892,201.382 116.5,198.5C 117.289,198.783 117.956,199.283 118.5,200C 123.617,201.551 127.617,200.217 130.5,196C 133.914,195.703 137.247,195.036 140.5,194C 142.796,190.872 145.796,188.706 149.5,187.5 Z"/></g>
<g><path style="opacity:1" fill="#432b24" d="M 80.5,197.5 C 78.8333,205.833 82.1667,209.167 90.5,207.5C 90.6747,209.621 90.3414,211.621 89.5,213.5C 87.2102,211.661 84.8769,211.328 82.5,212.5C 79.8333,212.5 77.1667,212.5 74.5,212.5C 73.9285,210.64 73.9285,208.973 74.5,207.5C 75.6651,206.504 76.3318,205.171 76.5,203.5C 75.9537,201.865 75.6204,200.199 75.5,198.5C 77.2915,198.634 78.9582,198.301 80.5,197.5 Z"/></g>
<g><path style="opacity:1" fill="#c06a2a" d="M 146.5,197.5 C 146.814,201.532 145.481,204.865 142.5,207.5C 141.609,206.89 140.609,206.557 139.5,206.5C 138.469,200.866 140.803,197.866 146.5,197.5 Z"/></g>
<g><path style="opacity:1" fill="#d97631" d="M 164.5,198.5 C 165.167,198.833 165.833,199.167 166.5,199.5C 166.833,200.5 167.5,201.167 168.5,201.5C 168.629,203.216 168.962,204.883 169.5,206.5C 167.833,208.5 166.167,210.5 164.5,212.5C 163.167,210.833 161.833,209.167 160.5,207.5C 159.833,205.5 159.167,203.5 158.5,201.5C 160.5,200.5 162.5,199.5 164.5,198.5 Z"/></g>
<g><path style="opacity:1" fill="#e09c37" d="M 154.5,199.5 C 155.605,200.6 156.938,201.267 158.5,201.5C 159.167,203.5 159.833,205.5 160.5,207.5C 159.602,208.158 158.602,208.824 157.5,209.5C 156.871,211.741 155.871,213.741 154.5,215.5C 153.391,215.443 152.391,215.11 151.5,214.5C 150.658,209.804 151.158,205.137 153,200.5C 153.383,199.944 153.883,199.611 154.5,199.5 Z"/></g>
<g><path style="opacity:1" fill="#4f4f55" d="M 26.5,201.5 C 28.8333,201.5 31.1667,201.5 33.5,201.5C 34.1408,202.482 34.8075,203.482 35.5,204.5C 32.8133,205.26 30.1466,205.927 27.5,206.5C 21.1749,205.168 14.8416,205.168 8.5,206.5C 5.67937,206.832 3.34604,205.999 1.5,204C 2.32791,203.085 3.32791,202.419 4.5,202C 11.8258,201.5 19.1591,201.334 26.5,201.5 Z"/></g>
<g><path style="opacity:1" fill="#f3dd71" d="M 148.5,195.5 C 150.784,195.975 152.784,196.975 154.5,198.5C 154.5,198.833 154.5,199.167 154.5,199.5C 153.883,199.611 153.383,199.944 153,200.5C 151.158,205.137 150.658,209.804 151.5,214.5C 150.833,214.5 150.167,214.5 149.5,214.5C 148.504,214.586 147.671,214.252 147,213.5C 145.275,214.464 143.441,215.131 141.5,215.5C 141.062,215.565 140.728,215.399 140.5,215C 141.554,212.618 142.221,210.118 142.5,207.5C 145.481,204.865 146.814,201.532 146.5,197.5C 146.833,196.5 147.5,195.833 148.5,195.5 Z"/></g>
<g><path style="opacity:1" fill="#a76437" d="M 191.5,203.5 C 193.199,203.527 194.533,204.194 195.5,205.5C 195.157,212.066 195.157,218.566 195.5,225C 194.555,230.556 193.555,236.056 192.5,241.5C 191.5,241.5 190.5,241.5 189.5,241.5C 187.613,236.471 185.947,231.304 184.5,226C 184.728,225.601 185.062,225.435 185.5,225.5C 187.042,226.301 188.708,226.634 190.5,226.5C 191.207,223.214 191.54,219.881 191.5,216.5C 191.5,213.5 191.5,210.5 191.5,207.5C 191.5,206.167 191.5,204.833 191.5,203.5 Z"/></g>
<g><path style="opacity:1" fill="#5a5254" d="M 237.5,203.5 C 241.022,204.004 244.522,204.671 248,205.5C 249.31,206.13 250.144,207.13 250.5,208.5C 244.491,208.299 238.491,207.966 232.5,207.5C 230.285,206.732 227.952,206.065 225.5,205.5C 229.029,203.577 233.029,202.911 237.5,203.5 Z"/></g>
<g><path style="opacity:1" fill="#825137" d="M 202.5,206.5 C 202.5,208.167 202.5,209.833 202.5,211.5C 204.159,219.391 205.159,227.391 205.5,235.5C 204.833,235.5 204.5,235.833 204.5,236.5C 203.262,235.588 201.928,235.421 200.5,236C 199.065,238.659 198.065,241.492 197.5,244.5C 194.167,246.252 192.501,245.252 192.5,241.5C 193.555,236.056 194.555,230.556 195.5,225C 195.157,218.566 195.157,212.066 195.5,205.5C 195.56,204.957 195.893,204.624 196.5,204.5C 198.45,205.372 200.45,206.039 202.5,206.5 Z"/></g>
<g><path style="opacity:1" fill="#201b21" d="M -0.5,189.5 C 0.491622,189.328 1.15829,189.662 1.5,190.5C 1.5,192.167 1.5,193.833 1.5,195.5C 7.02621,195.821 12.3595,195.488 17.5,194.5C 20.8333,194.5 24.1667,194.5 27.5,194.5C 27.552,196.903 27.2186,199.236 26.5,201.5C 19.1591,201.334 11.8258,201.5 4.5,202C 3.32791,202.419 2.32791,203.085 1.5,204C 3.34604,205.999 5.67937,206.832 8.5,206.5C 14.8416,205.168 21.1749,205.168 27.5,206.5C 28.2116,209.47 29.2116,212.303 30.5,215C 29.1477,217.261 28.481,219.761 28.5,222.5C 29.3686,229.308 30.8686,235.974 33,242.5C 34.0113,243.337 35.1779,243.67 36.5,243.5C 37.0755,248.076 39.7422,250.743 44.5,251.5C 45.4252,252.357 46.0919,253.357 46.5,254.5C 44.5856,255.185 42.5856,255.685 40.5,256C 38.7577,259.872 35.7577,261.705 31.5,261.5C 28.8333,261.167 26.1667,260.833 23.5,260.5C 23.5,259.5 23.5,258.5 23.5,257.5C 19.9581,257.813 16.6248,257.479 13.5,256.5C 15.3427,254.841 16.3427,252.675 16.5,250C 15.9144,245.98 15.2478,241.98 14.5,238C 16.5189,233.296 17.6855,228.463 18,223.5C 16.9148,222.707 15.7481,222.04 14.5,221.5C 9.52604,222.628 4.52604,223.628 -0.5,224.5C -0.5,212.833 -0.5,201.167 -0.5,189.5 Z"/></g>
<g><path style="opacity:1" fill="#633e31" d="M 223.5,205.5 C 224.167,205.5 224.833,205.5 225.5,205.5C 227.952,206.065 230.285,206.732 232.5,207.5C 232.062,207.435 231.728,207.601 231.5,208C 232.763,210.386 234.597,212.219 237,213.5C 237.167,216.5 237.333,219.5 237.5,222.5C 237.971,227.562 236.971,232.229 234.5,236.5C 235.44,239.132 235.607,241.798 235,244.5C 232.341,246.06 231.174,248.393 231.5,251.5C 227.292,251.323 223.626,249.99 220.5,247.5C 220.067,244.809 218.733,242.809 216.5,241.5C 216.989,240.005 217.655,238.671 218.5,237.5C 220.948,237.99 222.615,237.157 223.5,235C 222.207,225.167 222.207,215.334 223.5,205.5 Z"/></g>
<g><path style="opacity:1" fill="#9b5731" d="M 112.5,207.5 C 113.833,208.167 115.167,208.833 116.5,209.5C 115.605,213.13 114.272,216.63 112.5,220C 112.743,220.902 113.077,221.735 113.5,222.5C 111.075,225.762 107.742,227.262 103.5,227C 102.627,228.045 101.627,228.878 100.5,229.5C 100.833,226.167 101.167,222.833 101.5,219.5C 101.5,217.833 101.5,216.167 101.5,214.5C 102.75,214.423 103.583,213.756 104,212.5C 104.495,210.527 104.662,208.527 104.5,206.5C 106.6,206.477 108.433,207.144 110,208.5C 110.902,208.257 111.735,207.923 112.5,207.5 Z"/></g>
<g><path style="opacity:1" fill="#c06431" d="M 129.5,208.5 C 124.226,212.953 119.226,217.62 114.5,222.5C 114.167,222.5 113.833,222.5 113.5,222.5C 113.077,221.735 112.743,220.902 112.5,220C 114.272,216.63 115.605,213.13 116.5,209.5C 120.69,206.039 125.023,205.706 129.5,208.5 Z"/></g>
<g><path style="opacity:1" fill="#e08931" d="M 169.5,206.5 C 172.516,209.52 175.183,212.854 177.5,216.5C 176.488,217.872 175.488,219.205 174.5,220.5C 171.429,217.287 167.762,216.621 163.5,218.5C 163.517,216.435 163.85,214.435 164.5,212.5C 166.167,210.5 167.833,208.5 169.5,206.5 Z"/></g>
<g><path style="opacity:1" fill="#6f3824" d="M 191.5,207.5 C 191.5,210.5 191.5,213.5 191.5,216.5C 186.016,216.677 182.016,214.344 179.5,209.5C 180.815,208.524 182.148,207.524 183.5,206.5C 186.084,207.393 188.751,207.726 191.5,207.5 Z"/></g>
<g><path style="opacity:1" fill="#ecbb43" d="M 160.5,207.5 C 161.833,209.167 163.167,210.833 164.5,212.5C 163.85,214.435 163.517,216.435 163.5,218.5C 163.5,219.167 163.5,219.833 163.5,220.5C 162.167,220.167 160.833,219.833 159.5,219.5C 159.011,216.676 157.344,215.343 154.5,215.5C 155.871,213.741 156.871,211.741 157.5,209.5C 158.602,208.824 159.602,208.158 160.5,207.5 Z"/></g>
<g><path style="opacity:1" fill="#311f1e" d="M 89.5,213.5 C 89.5,216.833 89.5,220.167 89.5,223.5C 89.2256,228.263 89.559,232.93 90.5,237.5C 87.7847,239.123 84.7847,239.79 81.5,239.5C 82.4711,230.584 82.8044,221.584 82.5,212.5C 84.8769,211.328 87.2102,211.661 89.5,213.5 Z"/></g>
<g><path style="opacity:1" fill="#eba940" d="M 139.5,206.5 C 140.609,206.557 141.609,206.89 142.5,207.5C 142.221,210.118 141.554,212.618 140.5,215C 140.728,215.399 141.062,215.565 141.5,215.5C 141.167,216.167 140.833,216.833 140.5,217.5C 137.644,219.093 134.644,220.427 131.5,221.5C 130.89,220.609 130.557,219.609 130.5,218.5C 131.84,215.471 133.173,212.471 134.5,209.5C 136.411,208.925 138.078,207.925 139.5,206.5 Z"/></g>
<g><path style="opacity:1" fill="#563224" d="M 202.5,211.5 C 204.833,211.5 207.167,211.5 209.5,211.5C 209.5,212.167 209.5,212.833 209.5,213.5C 209.894,220.496 210.227,227.496 210.5,234.5C 208.784,234.629 207.117,234.962 205.5,235.5C 205.159,227.391 204.159,219.391 202.5,211.5 Z"/></g>
<g><path style="opacity:1" fill="#140d13" d="M 74.5,212.5 C 77.1667,212.5 79.8333,212.5 82.5,212.5C 82.8044,221.584 82.4711,230.584 81.5,239.5C 79.4086,239.682 77.4086,239.348 75.5,238.5C 74.0561,234.776 73.0561,230.943 72.5,227C 69.588,225.76 66.9213,224.094 64.5,222C 62.8659,221.506 61.1992,221.34 59.5,221.5C 56.6424,221.595 54.3091,222.762 52.5,225C 45.0286,227.033 42.6953,224.533 45.5,217.5C 45.4142,216.504 45.7476,215.671 46.5,215C 55.7676,213.688 65.101,212.855 74.5,212.5 Z"/></g>
<g><path style="opacity:1" fill="#6f3e31" d="M 217.5,212.5 C 218.055,220.822 218.388,229.156 218.5,237.5C 217.655,238.671 216.989,240.005 216.5,241.5C 215.262,240.588 213.928,240.421 212.5,241C 211.793,243.52 210.96,246.02 210,248.5C 208.89,250.037 207.39,250.703 205.5,250.5C 204.929,252.36 204.929,254.027 205.5,255.5C 202.5,255.833 201.167,254.5 201.5,251.5C 202.031,246.38 203.031,241.38 204.5,236.5C 204.5,235.833 204.833,235.5 205.5,235.5C 207.117,234.962 208.784,234.629 210.5,234.5C 210.227,227.496 209.894,220.496 209.5,213.5C 212.054,212.612 214.721,212.279 217.5,212.5 Z"/></g>
<g><path style="opacity:1" fill="#f9f3d9" d="M 149.5,214.5 C 150.34,218.8 150.507,223.134 150,227.5C 151.33,228.582 152.83,229.249 154.5,229.5C 156.196,231.525 157.863,233.525 159.5,235.5C 159.5,236.167 159.5,236.833 159.5,237.5C 157.186,238.821 154.853,238.821 152.5,237.5C 150.577,238.092 148.911,239.092 147.5,240.5C 147.167,240.5 146.833,240.5 146.5,240.5C 145.29,240.068 144.29,239.401 143.5,238.5C 143.383,236.516 144.05,234.85 145.5,233.5C 144.995,232.081 143.995,231.415 142.5,231.5C 142.008,229.181 141.008,227.181 139.5,225.5C 141.744,223.149 142.077,220.482 140.5,217.5C 140.833,216.833 141.167,216.167 141.5,215.5C 143.441,215.131 145.275,214.464 147,213.5C 147.671,214.252 148.504,214.586 149.5,214.5 Z"/></g>
<g><path style="opacity:1" fill="#974d2b" d="M 168.5,201.5 C 169.873,201.343 171.207,201.51 172.5,202C 173.656,205.655 175.99,208.155 179.5,209.5C 182.016,214.344 186.016,216.677 191.5,216.5C 191.54,219.881 191.207,223.214 190.5,226.5C 188.708,226.634 187.042,226.301 185.5,225.5C 184.895,220.599 182.228,217.599 177.5,216.5C 175.183,212.854 172.516,209.52 169.5,206.5C 168.962,204.883 168.629,203.216 168.5,201.5 Z"/></g>
<g><path style="opacity:1" fill="#1e191e" d="M 277.5,176.5 C 277.5,204.167 277.5,231.833 277.5,259.5C 275.173,259.335 273.007,258.669 271,257.5C 270.494,231.163 270.66,204.83 271.5,178.5C 273.421,177.637 275.421,176.971 277.5,176.5 Z"/></g>
<g><path style="opacity:1" fill="#f2ed8e" d="M 149.5,214.5 C 150.167,214.5 150.833,214.5 151.5,214.5C 152.391,215.11 153.391,215.443 154.5,215.5C 157.344,215.343 159.011,216.676 159.5,219.5C 158.877,221.711 157.877,223.711 156.5,225.5C 154.824,226.183 154.157,227.517 154.5,229.5C 152.83,229.249 151.33,228.582 150,227.5C 150.507,223.134 150.34,218.8 149.5,214.5 Z"/></g>
<g><path style="opacity:1" fill="#dd833c" d="M 129.5,208.5 C 131.042,209.301 132.708,209.634 134.5,209.5C 133.173,212.471 131.84,215.471 130.5,218.5C 128.5,218.5 126.5,218.5 124.5,218.5C 125.609,223.489 123.942,227.156 119.5,229.5C 118.571,230.689 118.238,232.022 118.5,233.5C 116.418,233.376 114.918,232.376 114,230.5C 114.083,227.881 114.25,225.214 114.5,222.5C 119.226,217.62 124.226,212.953 129.5,208.5 Z"/></g>
<g><path style="opacity:1" fill="#c07037" d="M 177.5,216.5 C 182.228,217.599 184.895,220.599 185.5,225.5C 185.062,225.435 184.728,225.601 184.5,226C 185.947,231.304 187.613,236.471 189.5,241.5C 189.519,243.06 189.852,244.56 190.5,246C 189.644,247.595 188.311,248.428 186.5,248.5C 184.724,244.266 182.891,239.933 181,235.5C 180.23,234.402 179.397,234.402 178.5,235.5C 178.443,234.391 178.11,233.391 177.5,232.5C 178.511,230.598 178.678,228.598 178,226.5C 176.606,224.612 175.44,222.612 174.5,220.5C 175.488,219.205 176.488,217.872 177.5,216.5 Z"/></g>
<g><path style="opacity:1" fill="#25191f" d="M 45.5,217.5 C 42.6953,224.533 45.0286,227.033 52.5,225C 54.3091,222.762 56.6424,221.595 59.5,221.5C 59.1486,225.529 59.8152,229.362 61.5,233C 60.9561,234.585 60.2894,236.085 59.5,237.5C 57.9408,239.624 55.9408,241.291 53.5,242.5C 52.9044,246.951 51.9044,251.284 50.5,255.5C 49.0413,255.567 47.7079,255.234 46.5,254.5C 46.0919,253.357 45.4252,252.357 44.5,251.5C 39.7422,250.743 37.0755,248.076 36.5,243.5C 35.0126,236.231 34.5126,228.898 35,221.5C 35.3742,220.584 35.8742,219.75 36.5,219C 39.4781,218.304 42.4781,217.804 45.5,217.5 Z"/></g>
<g><path style="opacity:1" fill="#f2da63" d="M 140.5,217.5 C 142.077,220.482 141.744,223.149 139.5,225.5C 137.668,226.248 136.001,227.248 134.5,228.5C 133.691,226.972 133.024,225.306 132.5,223.5C 132.167,222.833 131.833,222.167 131.5,221.5C 134.644,220.427 137.644,219.093 140.5,217.5 Z"/></g>
<g><path style="opacity:1" fill="#eda640" d="M 174.5,220.5 C 175.44,222.612 176.606,224.612 178,226.5C 178.678,228.598 178.511,230.598 177.5,232.5C 175.833,232.5 174.167,232.5 172.5,232.5C 169.833,231.833 167.167,231.167 164.5,230.5C 165.801,227.025 165.467,223.692 163.5,220.5C 163.5,219.833 163.5,219.167 163.5,218.5C 167.762,216.621 171.429,217.287 174.5,220.5 Z"/></g>
<g><path style="opacity:1" fill="#ec9c43" d="M 130.5,218.5 C 130.557,219.609 130.89,220.609 131.5,221.5C 131.833,222.167 132.167,222.833 132.5,223.5C 130.301,225.102 128.301,226.936 126.5,229C 127.267,230.47 127.933,231.97 128.5,233.5C 126.379,233.325 124.379,233.659 122.5,234.5C 121.833,234.833 121.167,235.167 120.5,235.5C 120.167,234.5 119.5,233.833 118.5,233.5C 118.238,232.022 118.571,230.689 119.5,229.5C 123.942,227.156 125.609,223.489 124.5,218.5C 126.5,218.5 128.5,218.5 130.5,218.5 Z"/></g>
<g><path style="opacity:1" fill="#753e31" d="M 101.5,219.5 C 101.167,222.833 100.833,226.167 100.5,229.5C 102.953,235.88 104.62,242.547 105.5,249.5C 105.167,250.5 104.5,251.167 103.5,251.5C 100.303,251.405 97.3033,252.072 94.5,253.5C 93.5,253.5 92.5,253.5 91.5,253.5C 91.5,252.167 91.5,250.833 91.5,249.5C 90.8379,245.534 90.5045,241.534 90.5,237.5C 89.559,232.93 89.2256,228.263 89.5,223.5C 93.3272,221.558 97.3272,220.224 101.5,219.5 Z"/></g>
<g><path style="opacity:1" fill="#f2da6f" d="M 159.5,219.5 C 160.833,219.833 162.167,220.167 163.5,220.5C 165.467,223.692 165.801,227.025 164.5,230.5C 164.167,230.5 163.833,230.5 163.5,230.5C 160.888,229.221 158.555,227.555 156.5,225.5C 157.877,223.711 158.877,221.711 159.5,219.5 Z"/></g>
<g><path style="opacity:1" fill="#18131a" d="M 13.5,256.5 C 10.2011,255.624 6.86778,255.457 3.5,256C 1.98368,257.897 1.31701,260.064 1.5,262.5C 1.63228,265.57 1.29895,268.57 0.5,271.5C 0.5,274.5 0.5,277.5 0.5,280.5C 0.5,282.833 0.5,285.167 0.5,287.5C 0.427391,293.258 0.760724,298.924 1.5,304.5C 1.26057,306.467 1.59391,308.301 2.5,310C 7.01945,310.175 11.3528,310.675 15.5,311.5C 10.1667,311.5 4.83333,311.5 -0.5,311.5C -0.5,282.5 -0.5,253.5 -0.5,224.5C 4.52604,223.628 9.52604,222.628 14.5,221.5C 15.7481,222.04 16.9148,222.707 18,223.5C 17.6855,228.463 16.5189,233.296 14.5,238C 15.2478,241.98 15.9144,245.98 16.5,250C 16.3427,252.675 15.3427,254.841 13.5,256.5 Z"/></g>
<g><path style="opacity:1" fill="#b46a37" d="M 113.5,222.5 C 113.833,222.5 114.167,222.5 114.5,222.5C 114.25,225.214 114.083,227.881 114,230.5C 114.918,232.376 116.418,233.376 118.5,233.5C 119.5,233.833 120.167,234.5 120.5,235.5C 119.13,235.856 118.13,236.69 117.5,238C 116.385,242.4 114.385,246.233 111.5,249.5C 109.611,248.258 107.611,248.258 105.5,249.5C 104.62,242.547 102.953,235.88 100.5,229.5C 101.627,228.878 102.627,228.045 103.5,227C 107.742,227.262 111.075,225.762 113.5,222.5 Z"/></g>
<g><path style="opacity:1" fill="#f2bb4a" d="M 132.5,223.5 C 133.024,225.306 133.691,226.972 134.5,228.5C 133.595,229.702 133.595,231.036 134.5,232.5C 132.817,232.619 131.15,232.952 129.5,233.5C 129.167,233.5 128.833,233.5 128.5,233.5C 127.933,231.97 127.267,230.47 126.5,229C 128.301,226.936 130.301,225.102 132.5,223.5 Z"/></g>
<g><path style="opacity:1" fill="#492a2a" d="M 59.5,221.5 C 61.1992,221.34 62.8659,221.506 64.5,222C 66.9213,224.094 69.588,225.76 72.5,227C 73.0561,230.943 74.0561,234.776 75.5,238.5C 77.4086,239.348 79.4086,239.682 81.5,239.5C 84.7847,239.79 87.7847,239.123 90.5,237.5C 90.5045,241.534 90.8379,245.534 91.5,249.5C 85.7044,248.393 79.8711,248.393 74,249.5C 65.6255,249.616 60.7922,245.616 59.5,237.5C 60.2894,236.085 60.9561,234.585 61.5,233C 59.8152,229.362 59.1486,225.529 59.5,221.5 Z"/></g>
<g><path style="opacity:1" fill="#f2f3ba" d="M 139.5,225.5 C 141.008,227.181 142.008,229.181 142.5,231.5C 139.988,233.467 137.321,233.8 134.5,232.5C 133.595,231.036 133.595,229.702 134.5,228.5C 136.001,227.248 137.668,226.248 139.5,225.5 Z"/></g>
<g><path style="opacity:1" fill="#cd8f43" d="M 156.5,225.5 C 158.555,227.555 160.888,229.221 163.5,230.5C 162.396,232.389 161.063,234.055 159.5,235.5C 157.863,233.525 156.196,231.525 154.5,229.5C 154.157,227.517 154.824,226.183 156.5,225.5 Z"/></g>
<g><path style="opacity:1" fill="#b3763c" d="M 163.5,230.5 C 163.833,230.5 164.167,230.5 164.5,230.5C 167.167,231.167 169.833,231.833 172.5,232.5C 170.59,236.106 171.59,238.44 175.5,239.5C 175.5,240.167 175.5,240.833 175.5,241.5C 173.858,243.081 171.858,243.747 169.5,243.5C 167.038,240.571 164.038,239.904 160.5,241.5C 159.566,240.432 159.232,239.099 159.5,237.5C 159.5,236.833 159.5,236.167 159.5,235.5C 161.063,234.055 162.396,232.389 163.5,230.5 Z"/></g>
<g><path style="opacity:1" fill="#c38448" d="M 142.5,231.5 C 143.995,231.415 144.995,232.081 145.5,233.5C 144.05,234.85 143.383,236.516 143.5,238.5C 142.022,238.238 140.689,238.571 139.5,239.5C 138.151,240.909 136.818,242.243 135.5,243.5C 134.518,242.859 133.518,242.193 132.5,241.5C 131.449,242.885 130.116,243.885 128.5,244.5C 127.081,243.995 126.415,242.995 126.5,241.5C 127.207,239.866 128.373,238.532 130,237.5C 130.765,235.934 130.598,234.601 129.5,233.5C 131.15,232.952 132.817,232.619 134.5,232.5C 137.321,233.8 139.988,233.467 142.5,231.5 Z"/></g>
<g><path style="opacity:1" fill="#885131" d="M 172.5,232.5 C 174.167,232.5 175.833,232.5 177.5,232.5C 178.11,233.391 178.443,234.391 178.5,235.5C 177.143,236.59 176.143,237.924 175.5,239.5C 171.59,238.44 170.59,236.106 172.5,232.5 Z"/></g>
<g><path style="opacity:1" fill="#a16437" d="M 128.5,233.5 C 128.833,233.5 129.167,233.5 129.5,233.5C 130.598,234.601 130.765,235.934 130,237.5C 128.373,238.532 127.207,239.866 126.5,241.5C 125.504,241.586 124.671,241.252 124,240.5C 123.495,238.482 122.995,236.482 122.5,234.5C 124.379,233.659 126.379,233.325 128.5,233.5 Z"/></g>
<g><path style="opacity:1" fill="#4d291d" d="M 186.5,248.5 C 186.5,249.5 186.5,250.5 186.5,251.5C 184.694,252.024 183.028,252.691 181.5,253.5C 180.833,253.5 180.167,253.5 179.5,253.5C 178.069,250.006 177.236,246.339 177,242.5C 176.617,241.944 176.117,241.611 175.5,241.5C 175.5,240.833 175.5,240.167 175.5,239.5C 176.143,237.924 177.143,236.59 178.5,235.5C 179.397,234.402 180.23,234.402 181,235.5C 182.891,239.933 184.724,244.266 186.5,248.5 Z"/></g>
<g><path style="opacity:1" fill="#a26943" d="M 204.5,236.5 C 203.031,241.38 202.031,246.38 201.5,251.5C 196.434,251.633 191.434,251.633 186.5,251.5C 186.5,250.5 186.5,249.5 186.5,248.5C 188.311,248.428 189.644,247.595 190.5,246C 189.852,244.56 189.519,243.06 189.5,241.5C 190.5,241.5 191.5,241.5 192.5,241.5C 192.501,245.252 194.167,246.252 197.5,244.5C 198.065,241.492 199.065,238.659 200.5,236C 201.928,235.421 203.262,235.588 204.5,236.5 Z"/></g>
<g><path style="opacity:1" fill="#332424" d="M 59.5,237.5 C 60.7922,245.616 65.6255,249.616 74,249.5C 79.8711,248.393 85.7044,248.393 91.5,249.5C 91.5,250.833 91.5,252.167 91.5,253.5C 89.6119,254.275 87.6119,254.275 85.5,253.5C 82.2869,253.19 79.2869,253.523 76.5,254.5C 68.8782,254.056 61.3782,254.722 54,256.5C 52.7441,256.352 51.5774,256.018 50.5,255.5C 51.9044,251.284 52.9044,246.951 53.5,242.5C 55.9408,241.291 57.9408,239.624 59.5,237.5 Z"/></g>
<g><path style="opacity:1" fill="#dfc384" d="M 159.5,237.5 C 159.232,239.099 159.566,240.432 160.5,241.5C 160.5,241.833 160.5,242.167 160.5,242.5C 157.123,245.048 153.457,246.048 149.5,245.5C 149.608,243.486 148.942,241.82 147.5,240.5C 148.911,239.092 150.577,238.092 152.5,237.5C 154.853,238.821 157.186,238.821 159.5,237.5 Z"/></g>
<g><path style="opacity:1" fill="#ddb466" d="M 143.5,238.5 C 144.29,239.401 145.29,240.068 146.5,240.5C 144.115,242.884 142.115,245.55 140.5,248.5C 139.833,248.5 139.5,248.833 139.5,249.5C 138.041,249.567 136.708,249.234 135.5,248.5C 135.5,246.833 135.5,245.167 135.5,243.5C 136.818,242.243 138.151,240.909 139.5,239.5C 140.689,238.571 142.022,238.238 143.5,238.5 Z"/></g>
<g><path style="opacity:1" fill="#422a24" d="M 216.5,241.5 C 218.733,242.809 220.067,244.809 220.5,247.5C 217.736,249.431 216.069,252.098 215.5,255.5C 212.368,256.012 209.035,256.012 205.5,255.5C 204.929,254.027 204.929,252.36 205.5,250.5C 207.39,250.703 208.89,250.037 210,248.5C 210.96,246.02 211.793,243.52 212.5,241C 213.928,240.421 215.262,240.588 216.5,241.5 Z"/></g>
<g><path style="opacity:1" fill="#602f22" d="M 122.5,234.5 C 122.995,236.482 123.495,238.482 124,240.5C 124.671,241.252 125.504,241.586 126.5,241.5C 126.415,242.995 127.081,243.995 128.5,244.5C 130.116,243.885 131.449,242.885 132.5,241.5C 133.518,242.193 134.518,242.859 135.5,243.5C 135.5,245.167 135.5,246.833 135.5,248.5C 133.428,250.35 132.095,252.683 131.5,255.5C 125.643,255.395 119.976,254.395 114.5,252.5C 112.5,252.5 111.5,251.5 111.5,249.5C 114.385,246.233 116.385,242.4 117.5,238C 118.13,236.69 119.13,235.856 120.5,235.5C 121.167,235.167 121.833,234.833 122.5,234.5 Z"/></g>
<g><path style="opacity:1" fill="#884b31" d="M 175.5,241.5 C 176.117,241.611 176.617,241.944 177,242.5C 177.236,246.339 178.069,250.006 179.5,253.5C 178.292,254.234 176.959,254.567 175.5,254.5C 173.57,250.875 171.57,247.208 169.5,243.5C 171.858,243.747 173.858,243.081 175.5,241.5 Z"/></g>
<g><path style="opacity:1" fill="#d59a57" d="M 160.5,242.5 C 161.319,244.772 161.985,247.106 162.5,249.5C 162.582,251.252 161.749,252.252 160,252.5C 156.768,250.513 153.435,250.18 150,251.5C 146.979,249.733 146.812,247.733 149.5,245.5C 153.457,246.048 157.123,245.048 160.5,242.5 Z"/></g>
<g><path style="opacity:1" fill="#5c291a" d="M 169.5,243.5 C 171.57,247.208 173.57,250.875 175.5,254.5C 173.718,256.357 171.385,257.357 168.5,257.5C 167.921,253.639 165.921,250.973 162.5,249.5C 161.985,247.106 161.319,244.772 160.5,242.5C 160.5,242.167 160.5,241.833 160.5,241.5C 164.038,239.904 167.038,240.571 169.5,243.5 Z"/></g>
<g><path style="opacity:1" fill="#291d1f" d="M 220.5,247.5 C 223.626,249.99 227.292,251.323 231.5,251.5C 240.31,253.695 249.143,255.695 258,257.5C 260.391,256.949 262.225,257.949 263.5,260.5C 263.53,261.497 263.03,262.164 262,262.5C 258.159,263.98 254.326,264.313 250.5,263.5C 248.898,261.926 246.898,261.259 244.5,261.5C 239.809,259.409 234.809,258.076 229.5,257.5C 228.737,256.732 227.737,256.232 226.5,256C 222.848,255.501 219.182,255.335 215.5,255.5C 216.069,252.098 217.736,249.431 220.5,247.5 Z"/></g>
<g><path style="opacity:1" fill="#e6af69" d="M 111.5,249.5 C 111.5,251.5 112.5,252.5 114.5,252.5C 115.146,254.156 115.813,255.823 116.5,257.5C 115.813,259.177 115.146,260.844 114.5,262.5C 110.4,262.763 106.4,262.43 102.5,261.5C 103.051,258.193 103.384,254.86 103.5,251.5C 104.5,251.167 105.167,250.5 105.5,249.5C 107.611,248.258 109.611,248.258 111.5,249.5 Z"/></g>
<g><path style="opacity:1" fill="#884b31" d="M 135.5,248.5 C 136.708,249.234 138.041,249.567 139.5,249.5C 138.344,251.824 137.344,254.157 136.5,256.5C 134.585,256.784 132.919,256.451 131.5,255.5C 132.095,252.683 133.428,250.35 135.5,248.5 Z"/></g>
<g><path style="opacity:1" fill="#632b1e" d="M 140.5,248.5 C 142.358,249.595 144.025,250.929 145.5,252.5C 144.652,254.409 144.318,256.409 144.5,258.5C 142.922,261.422 140.588,262.089 137.5,260.5C 136.754,259.264 136.421,257.93 136.5,256.5C 137.344,254.157 138.344,251.824 139.5,249.5C 139.5,248.833 139.833,248.5 140.5,248.5 Z"/></g>
<g><path style="opacity:1" fill="#8d442a" d="M 146.5,240.5 C 146.833,240.5 147.167,240.5 147.5,240.5C 148.942,241.82 149.608,243.486 149.5,245.5C 146.812,247.733 146.979,249.733 150,251.5C 153.435,250.18 156.768,250.513 160,252.5C 161.749,252.252 162.582,251.252 162.5,249.5C 165.921,250.973 167.921,253.639 168.5,257.5C 164.215,258.208 159.882,258.708 155.5,259C 154.944,259.383 154.611,259.883 154.5,260.5C 153.5,260.5 152.5,260.5 151.5,260.5C 149.485,259.076 147.152,258.41 144.5,258.5C 144.318,256.409 144.652,254.409 145.5,252.5C 144.025,250.929 142.358,249.595 140.5,248.5C 142.115,245.55 144.115,242.884 146.5,240.5 Z"/></g>
<g><path style="opacity:1" fill="#a16951" d="M 201.5,251.5 C 201.167,254.5 202.5,255.833 205.5,255.5C 209.035,256.012 212.368,256.012 215.5,255.5C 219.182,255.335 222.848,255.501 226.5,256C 227.737,256.232 228.737,256.732 229.5,257.5C 227.358,259.765 225.691,262.432 224.5,265.5C 221.855,266.192 219.355,267.192 217,268.5C 216.51,269.793 216.343,271.127 216.5,272.5C 214.321,272.84 212.488,273.84 211,275.5C 208.25,274.709 205.417,274.709 202.5,275.5C 199.592,274.431 196.592,274.264 193.5,275C 192.929,276.205 192.262,277.372 191.5,278.5C 188.47,279.169 185.47,279.835 182.5,280.5C 181.74,276.949 181.906,273.282 183,269.5C 186.494,267.527 187.994,264.527 187.5,260.5C 186.5,260.5 185.5,260.5 184.5,260.5C 184.478,258.079 183.478,255.746 181.5,253.5C 183.028,252.691 184.694,252.024 186.5,251.5C 191.434,251.633 196.434,251.633 201.5,251.5 Z"/></g>
<g><path style="opacity:1" fill="#c08956" d="M 103.5,251.5 C 103.384,254.86 103.051,258.193 102.5,261.5C 100.167,261.5 97.8333,261.5 95.5,261.5C 94.7347,258.904 94.4013,256.237 94.5,253.5C 97.3033,252.072 100.303,251.405 103.5,251.5 Z"/></g>
<g><path style="opacity:1" fill="#9b7056" d="M 85.5,253.5 C 87.6119,254.275 89.6119,254.275 91.5,253.5C 92.5,253.5 93.5,253.5 94.5,253.5C 94.4013,256.237 94.7347,258.904 95.5,261.5C 93.9812,262.41 92.3146,263.243 90.5,264C 89.1772,264.816 88.5106,265.983 88.5,267.5C 87.0413,267.433 85.7079,267.766 84.5,268.5C 83.3146,267.143 82.3146,265.643 81.5,264C 83.6683,260.834 85.0016,257.334 85.5,253.5 Z"/></g>
<g><path style="opacity:1" fill="#d79f5b" d="M 179.5,253.5 C 180.167,253.5 180.833,253.5 181.5,253.5C 183.478,255.746 184.478,258.079 184.5,260.5C 182.247,265.952 178.247,267.619 172.5,265.5C 170.952,267.376 168.952,268.376 166.5,268.5C 164.993,265.258 162.326,263.758 158.5,264C 157.269,262.595 155.936,261.429 154.5,260.5C 154.611,259.883 154.944,259.383 155.5,259C 159.882,258.708 164.215,258.208 168.5,257.5C 171.385,257.357 173.718,256.357 175.5,254.5C 176.959,254.567 178.292,254.234 179.5,253.5 Z"/></g>
<g><path style="opacity:1" fill="#67565c" d="M 46.5,254.5 C 47.7079,255.234 49.0413,255.567 50.5,255.5C 51.5774,256.018 52.7441,256.352 54,256.5C 61.3782,254.722 68.8782,254.056 76.5,254.5C 76.7831,255.216 77.1164,256.049 77.5,257C 75.0695,259.305 74.0695,262.138 74.5,265.5C 68.6129,265.007 63.9462,267.007 60.5,271.5C 50.6895,271.012 41.0228,271.679 31.5,273.5C 30.4357,269.559 30.4357,265.559 31.5,261.5C 35.7577,261.705 38.7577,259.872 40.5,256C 42.5856,255.685 44.5856,255.185 46.5,254.5 Z"/></g>
<g><path style="opacity:1" fill="#242b3e" d="M 13.5,256.5 C 16.6248,257.479 19.9581,257.813 23.5,257.5C 23.5,258.5 23.5,259.5 23.5,260.5C 16.104,261.003 8.77065,261.669 1.5,262.5C 1.31701,260.064 1.98368,257.897 3.5,256C 6.86778,255.457 10.2011,255.624 13.5,256.5 Z"/></g>
<g><path style="opacity:1" fill="#79554b" d="M 229.5,257.5 C 234.809,258.076 239.809,259.409 244.5,261.5C 243.751,262.531 243.085,263.698 242.5,265C 238.168,267.499 233.501,268.832 228.5,269C 227.242,270.741 226.242,272.574 225.5,274.5C 224.29,274.932 223.29,275.599 222.5,276.5C 220.463,275.154 218.463,273.82 216.5,272.5C 216.343,271.127 216.51,269.793 217,268.5C 219.355,267.192 221.855,266.192 224.5,265.5C 225.691,262.432 227.358,259.765 229.5,257.5 Z"/></g>
<g><path style="opacity:1" fill="#404d61" d="M 23.5,260.5 C 26.1667,260.833 28.8333,261.167 31.5,261.5C 30.4357,265.559 30.4357,269.559 31.5,273.5C 30.5084,273.328 29.8417,273.662 29.5,274.5C 28.609,273.89 27.609,273.557 26.5,273.5C 24.7226,272.4 22.7226,271.566 20.5,271C 13.7526,270.208 7.08589,270.374 0.5,271.5C 1.29895,268.57 1.63228,265.57 1.5,262.5C 8.77065,261.669 16.104,261.003 23.5,260.5 Z"/></g>
<g><path style="opacity:1" fill="#b17b51" d="M 114.5,252.5 C 119.976,254.395 125.643,255.395 131.5,255.5C 132.919,256.451 134.585,256.784 136.5,256.5C 136.421,257.93 136.754,259.264 137.5,260.5C 140.588,262.089 142.922,261.422 144.5,258.5C 147.152,258.41 149.485,259.076 151.5,260.5C 151.027,261.906 150.027,262.573 148.5,262.5C 147.5,262.5 146.5,262.5 145.5,262.5C 145.834,265.491 144.834,267.824 142.5,269.5C 139.896,268.47 137.229,268.47 134.5,269.5C 134.267,267.938 133.6,266.605 132.5,265.5C 132.55,263.41 131.55,262.077 129.5,261.5C 126.145,262.846 122.812,264.18 119.5,265.5C 118.952,262.916 117.285,261.916 114.5,262.5C 115.146,260.844 115.813,259.177 116.5,257.5C 115.813,255.823 115.146,254.156 114.5,252.5 Z"/></g>
<g><path style="opacity:1" fill="#e6c16f" d="M 151.5,260.5 C 152.5,260.5 153.5,260.5 154.5,260.5C 155.936,261.429 157.269,262.595 158.5,264C 162.326,263.758 164.993,265.258 166.5,268.5C 164.967,270.245 162.967,271.245 160.5,271.5C 156.32,270.64 152.32,269.306 148.5,267.5C 148.5,265.833 148.5,264.167 148.5,262.5C 150.027,262.573 151.027,261.906 151.5,260.5 Z"/></g>
<g><path style="opacity:1" fill="#ba8256" d="M 184.5,260.5 C 185.5,260.5 186.5,260.5 187.5,260.5C 187.994,264.527 186.494,267.527 183,269.5C 181.906,273.282 181.74,276.949 182.5,280.5C 174.5,283.082 166.834,286.416 159.5,290.5C 158.833,290.5 158.167,290.5 157.5,290.5C 154.977,289.616 152.31,288.782 149.5,288C 148.058,287.623 147.058,286.79 146.5,285.5C 148.631,284.686 150.964,284.186 153.5,284C 154.249,282.266 154.749,280.433 155,278.5C 157.779,276.873 159.613,274.54 160.5,271.5C 162.967,271.245 164.967,270.245 166.5,268.5C 168.952,268.376 170.952,267.376 172.5,265.5C 178.247,267.619 182.247,265.952 184.5,260.5 Z"/></g>
<g><path style="opacity:1" fill="#7c6a63" d="M 95.5,261.5 C 97.8333,261.5 100.167,261.5 102.5,261.5C 106.4,262.43 110.4,262.763 114.5,262.5C 117.285,261.916 118.952,262.916 119.5,265.5C 116.833,266.833 114.167,268.167 111.5,269.5C 103.821,268.953 96.1541,268.287 88.5,267.5C 88.5106,265.983 89.1772,264.816 90.5,264C 92.3146,263.243 93.9812,262.41 95.5,261.5 Z"/></g>
<g><path style="opacity:1" fill="#cd9c63" d="M 148.5,262.5 C 148.5,264.167 148.5,265.833 148.5,267.5C 152.32,269.306 156.32,270.64 160.5,271.5C 159.613,274.54 157.779,276.873 155,278.5C 154.749,280.433 154.249,282.266 153.5,284C 150.964,284.186 148.631,284.686 146.5,285.5C 145.167,285.167 143.833,284.833 142.5,284.5C 142.5,279.5 142.5,274.5 142.5,269.5C 144.834,267.824 145.834,265.491 145.5,262.5C 146.5,262.5 147.5,262.5 148.5,262.5 Z"/></g>
<g><path style="opacity:1" fill="#907268" d="M 76.5,254.5 C 79.2869,253.523 82.2869,253.19 85.5,253.5C 85.0016,257.334 83.6683,260.834 81.5,264C 82.3146,265.643 83.3146,267.143 84.5,268.5C 85.0978,273.813 85.4312,279.146 85.5,284.5C 79.6357,283.977 74.969,281.31 71.5,276.5C 67.6472,275.004 63.9805,273.338 60.5,271.5C 63.9462,267.007 68.6129,265.007 74.5,265.5C 74.0695,262.138 75.0695,259.305 77.5,257C 77.1164,256.049 76.7831,255.216 76.5,254.5 Z"/></g>
<g><path style="opacity:1" fill="#574949" d="M 244.5,261.5 C 246.898,261.259 248.898,261.926 250.5,263.5C 250.5,265.5 250.5,267.5 250.5,269.5C 248.011,269.298 245.677,269.798 243.5,271C 242,273.833 239.833,276 237,277.5C 235.847,280.755 235.013,284.088 234.5,287.5C 233.726,288.147 232.726,288.48 231.5,288.5C 229.645,288.66 228.312,287.993 227.5,286.5C 230.792,281.643 230.125,277.643 225.5,274.5C 226.242,272.574 227.242,270.741 228.5,269C 233.501,268.832 238.168,267.499 242.5,265C 243.085,263.698 243.751,262.531 244.5,261.5 Z"/></g>
<g><path style="opacity:1" fill="#6f4b37" d="M 132.5,265.5 C 133.6,266.605 134.267,267.938 134.5,269.5C 130.658,271.502 126.492,272.835 122,273.5C 118.962,272.455 118.962,271.122 122,269.5C 125.49,268.06 128.99,266.727 132.5,265.5 Z"/></g>
<g><path style="opacity:1" fill="#313237" d="M 88.5,267.5 C 96.1541,268.287 103.821,268.953 111.5,269.5C 113.295,280.817 113.962,292.484 113.5,304.5C 111.381,304.468 110.048,305.468 109.5,307.5C 102.562,303.534 95.2289,300.367 87.5,298C 86.695,296.887 86.0283,295.721 85.5,294.5C 85.5,291.167 85.5,287.833 85.5,284.5C 85.4312,279.146 85.0978,273.813 84.5,268.5C 85.7079,267.766 87.0413,267.433 88.5,267.5 Z"/></g>
<g><path style="opacity:1" fill="#2b191f" d="M 132.5,265.5 C 128.99,266.727 125.49,268.06 122,269.5C 118.962,271.122 118.962,272.455 122,273.5C 126.492,272.835 130.658,271.502 134.5,269.5C 137.229,268.47 139.896,268.47 142.5,269.5C 142.5,274.5 142.5,279.5 142.5,284.5C 142.5,287.167 142.5,289.833 142.5,292.5C 141.549,293.919 141.216,295.585 141.5,297.5C 137.244,297.643 133.578,299.143 130.5,302C 124.75,302.434 119.083,303.268 113.5,304.5C 113.962,292.484 113.295,280.817 111.5,269.5C 114.167,268.167 116.833,266.833 119.5,265.5C 122.812,264.18 126.145,262.846 129.5,261.5C 131.55,262.077 132.55,263.41 132.5,265.5 Z"/></g>
<g><path style="opacity:1" fill="#9bb5c0" d="M 26.5,273.5 C 25.5475,275.61 23.8808,276.777 21.5,277C 14.3504,278.671 7.35045,279.838 0.5,280.5C 0.5,277.5 0.5,274.5 0.5,271.5C 7.08589,270.374 13.7526,270.208 20.5,271C 22.7226,271.566 24.7226,272.4 26.5,273.5 Z"/></g>
<g><path style="opacity:1" fill="#aec8d3" d="M 26.5,273.5 C 27.609,273.557 28.609,273.89 29.5,274.5C 31.1271,276.63 32.9604,278.63 35,280.5C 35.49,281.793 35.6567,283.127 35.5,284.5C 29.491,284.701 23.491,285.034 17.5,285.5C 12.7031,285.161 8.20313,286.161 4,288.5C 2.86151,288.011 1.69484,287.678 0.5,287.5C 0.5,285.167 0.5,282.833 0.5,280.5C 7.35045,279.838 14.3504,278.671 21.5,277C 23.8808,276.777 25.5475,275.61 26.5,273.5 Z"/></g>
<g><path style="opacity:1" fill="#865c51" d="M 202.5,275.5 C 200.444,279.238 198.944,283.238 198,287.5C 197.259,288.641 196.425,288.641 195.5,287.5C 194.738,288.628 194.071,289.795 193.5,291C 190.106,291.752 186.773,291.585 183.5,290.5C 175.583,296.87 167.583,296.87 159.5,290.5C 166.834,286.416 174.5,283.082 182.5,280.5C 185.47,279.835 188.47,279.169 191.5,278.5C 192.262,277.372 192.929,276.205 193.5,275C 196.592,274.264 199.592,274.431 202.5,275.5 Z"/></g>
<g><path style="opacity:1" fill="#685555" d="M 216.5,272.5 C 218.463,273.82 220.463,275.154 222.5,276.5C 222.389,277.117 222.056,277.617 221.5,278C 217.5,278.333 213.5,278.667 209.5,279C 208.594,280.699 208.261,282.533 208.5,284.5C 204.877,290.644 200.211,296.144 194.5,301C 192.51,302.751 190.177,303.751 187.5,304C 185.585,306.4 183.919,308.9 182.5,311.5C 169.833,311.5 157.167,311.5 144.5,311.5C 144.205,309.577 143.372,307.91 142,306.5C 141.502,303.518 141.335,300.518 141.5,297.5C 141.216,295.585 141.549,293.919 142.5,292.5C 148.191,297.028 153.191,296.362 157.5,290.5C 158.167,290.5 158.833,290.5 159.5,290.5C 167.583,296.87 175.583,296.87 183.5,290.5C 186.773,291.585 190.106,291.752 193.5,291C 194.071,289.795 194.738,288.628 195.5,287.5C 196.425,288.641 197.259,288.641 198,287.5C 198.944,283.238 200.444,279.238 202.5,275.5C 205.417,274.709 208.25,274.709 211,275.5C 212.488,273.84 214.321,272.84 216.5,272.5 Z"/></g>
<g><path style="opacity:1" fill="#353339" d="M 277.5,272.5 C 277.5,278.5 277.5,284.5 277.5,290.5C 274.252,290.762 271.252,290.762 268.5,290.5C 269.96,285.008 267.96,281.842 262.5,281C 261.277,278.948 260.277,276.781 259.5,274.5C 258.833,274.167 258.167,273.833 257.5,273.5C 253.633,274.135 249.8,274.801 246,275.5C 244.413,281.606 245.913,286.772 250.5,291C 249.944,291.383 249.611,291.883 249.5,292.5C 243.875,292.482 238.875,290.815 234.5,287.5C 235.013,284.088 235.847,280.755 237,277.5C 239.833,276 242,273.833 243.5,271C 245.677,269.798 248.011,269.298 250.5,269.5C 250.5,267.5 250.5,265.5 250.5,263.5C 254.326,264.313 258.159,263.98 262,262.5C 263.03,262.164 263.53,261.497 263.5,260.5C 265.01,259.272 266.51,259.272 268,260.5C 267.892,264.157 267.892,267.823 268,271.5C 268.833,272.333 269.667,273.167 270.5,274C 272.851,273.86 275.184,273.36 277.5,272.5 Z"/></g>
<g><path style="opacity:1" fill="#342e2f" d="M 225.5,274.5 C 230.125,277.643 230.792,281.643 227.5,286.5C 220.816,288.461 214.483,287.794 208.5,284.5C 208.261,282.533 208.594,280.699 209.5,279C 213.5,278.667 217.5,278.333 221.5,278C 222.056,277.617 222.389,277.117 222.5,276.5C 223.29,275.599 224.29,274.932 225.5,274.5 Z"/></g>
<g><path style="opacity:1" fill="#222026" d="M 268.5,290.5 C 263.833,291.833 259.167,293.167 254.5,294.5C 252.95,293.559 251.284,292.893 249.5,292.5C 249.611,291.883 249.944,291.383 250.5,291C 245.913,286.772 244.413,281.606 246,275.5C 249.8,274.801 253.633,274.135 257.5,273.5C 258.167,273.833 258.833,274.167 259.5,274.5C 260.277,276.781 261.277,278.948 262.5,281C 267.96,281.842 269.96,285.008 268.5,290.5 Z"/></g>
<g><path style="opacity:1" fill="#8e6a56" d="M 142.5,284.5 C 143.833,284.833 145.167,285.167 146.5,285.5C 147.058,286.79 148.058,287.623 149.5,288C 152.31,288.782 154.977,289.616 157.5,290.5C 153.191,296.362 148.191,297.028 142.5,292.5C 142.5,289.833 142.5,287.167 142.5,284.5 Z"/></g>
<g><path style="opacity:1" fill="#534854" d="M 208.5,284.5 C 214.483,287.794 220.816,288.461 227.5,286.5C 228.312,287.993 229.645,288.66 231.5,288.5C 232.726,288.48 233.726,288.147 234.5,287.5C 238.875,290.815 243.875,292.482 249.5,292.5C 251.284,292.893 252.95,293.559 254.5,294.5C 255.15,296.435 255.483,298.435 255.5,300.5C 253.184,302.748 250.35,304.082 247,304.5C 246.862,306.432 247.362,308.266 248.5,310C 247.944,310.383 247.611,310.883 247.5,311.5C 225.833,311.5 204.167,311.5 182.5,311.5C 183.919,308.9 185.585,306.4 187.5,304C 190.177,303.751 192.51,302.751 194.5,301C 200.211,296.144 204.877,290.644 208.5,284.5 Z"/></g>
<g><path style="opacity:1" fill="#81939f" d="M 17.5,285.5 C 17.762,286.978 17.4287,288.311 16.5,289.5C 12.8691,290.352 9.20243,291.019 5.5,291.5C 6.66453,294.693 8.3312,297.693 10.5,300.5C 8.38722,303.721 5.38722,305.055 1.5,304.5C 0.760724,298.924 0.427391,293.258 0.5,287.5C 1.69484,287.678 2.86151,288.011 4,288.5C 8.20313,286.161 12.7031,285.161 17.5,285.5 Z"/></g>
<g><path style="opacity:1" fill="#a3b4b9" d="M 60.5,271.5 C 63.9805,273.338 67.6472,275.004 71.5,276.5C 74.969,281.31 79.6357,283.977 85.5,284.5C 85.5,287.833 85.5,291.167 85.5,294.5C 84.3734,295.122 83.3734,295.955 82.5,297C 77.1433,298.171 72.1433,300.004 67.5,302.5C 61.4853,302.148 57.4853,299.148 55.5,293.5C 58.4563,291.212 60.123,288.212 60.5,284.5C 53.0882,284.605 45.7549,283.938 38.5,282.5C 38.0502,286.224 39.7168,288.391 43.5,289C 44.5322,291.874 46.5322,293.374 49.5,293.5C 50.962,296.039 52.6287,298.372 54.5,300.5C 50.4139,302.87 46.0806,304.87 41.5,306.5C 38.3141,306.625 35.6474,307.792 33.5,310C 29.3123,310.176 25.3123,310.676 21.5,311.5C 19.5,311.5 17.5,311.5 15.5,311.5C 11.3528,310.675 7.01945,310.175 2.5,310C 1.59391,308.301 1.26057,306.467 1.5,304.5C 5.38722,305.055 8.38722,303.721 10.5,300.5C 8.3312,297.693 6.66453,294.693 5.5,291.5C 9.20243,291.019 12.8691,290.352 16.5,289.5C 17.4287,288.311 17.762,286.978 17.5,285.5C 23.491,285.034 29.491,284.701 35.5,284.5C 35.6567,283.127 35.49,281.793 35,280.5C 32.9604,278.63 31.1271,276.63 29.5,274.5C 29.8417,273.662 30.5084,273.328 31.5,273.5C 41.0228,271.679 50.6895,271.012 60.5,271.5 Z"/></g>
<g><path style="opacity:1" fill="#7d8990" d="M 55.5,293.5 C 54.2794,292.972 53.1127,292.305 52,291.5C 51.2917,292.381 50.4584,293.047 49.5,293.5C 46.5322,293.374 44.5322,291.874 43.5,289C 39.7168,288.391 38.0502,286.224 38.5,282.5C 45.7549,283.938 53.0882,284.605 60.5,284.5C 60.123,288.212 58.4563,291.212 55.5,293.5 Z"/></g>
<g><path style="opacity:1" fill="#3d3e4a" d="M 268.5,290.5 C 271.252,290.762 274.252,290.762 277.5,290.5C 277.5,294.833 277.5,299.167 277.5,303.5C 275.158,303.496 273.158,302.663 271.5,301C 266.122,299.971 260.789,299.804 255.5,300.5C 255.483,298.435 255.15,296.435 254.5,294.5C 259.167,293.167 263.833,291.833 268.5,290.5 Z"/></g>
<g><path style="opacity:1" fill="#93abb1" d="M 85.5,294.5 C 86.0283,295.721 86.695,296.887 87.5,298C 95.2289,300.367 102.562,303.534 109.5,307.5C 109.5,308.5 109.5,309.5 109.5,310.5C 102.313,310.175 95.3134,310.509 88.5,311.5C 83.8333,311.5 79.1667,311.5 74.5,311.5C 71.7915,308.792 69.4581,305.792 67.5,302.5C 72.1433,300.004 77.1433,298.171 82.5,297C 83.3734,295.955 84.3734,295.122 85.5,294.5 Z"/></g>
<g><path style="opacity:1" fill="#303036" d="M 277.5,303.5 C 277.5,306.167 277.5,308.833 277.5,311.5C 267.5,311.5 257.5,311.5 247.5,311.5C 247.611,310.883 247.944,310.383 248.5,310C 247.362,308.266 246.862,306.432 247,304.5C 250.35,304.082 253.184,302.748 255.5,300.5C 260.789,299.804 266.122,299.971 271.5,301C 273.158,302.663 275.158,303.496 277.5,303.5 Z"/></g>
<g><path style="opacity:1" fill="#656c77" d="M 55.5,293.5 C 57.4853,299.148 61.4853,302.148 67.5,302.5C 69.4581,305.792 71.7915,308.792 74.5,311.5C 71.1667,311.5 67.8333,311.5 64.5,311.5C 66.1638,309.321 65.8305,307.488 63.5,306C 60.9865,304.748 58.3198,304.248 55.5,304.5C 55.7678,302.901 55.4345,301.568 54.5,300.5C 52.6287,298.372 50.962,296.039 49.5,293.5C 50.4584,293.047 51.2917,292.381 52,291.5C 53.1127,292.305 54.2794,292.972 55.5,293.5 Z"/></g>
<g><path style="opacity:1" fill="#2c2d39" d="M 141.5,297.5 C 141.335,300.518 141.502,303.518 142,306.5C 143.372,307.91 144.205,309.577 144.5,311.5C 125.833,311.5 107.167,311.5 88.5,311.5C 95.3134,310.509 102.313,310.175 109.5,310.5C 109.5,309.5 109.5,308.5 109.5,307.5C 110.048,305.468 111.381,304.468 113.5,304.5C 119.083,303.268 124.75,302.434 130.5,302C 133.578,299.143 137.244,297.643 141.5,297.5 Z"/></g>
<g><path style="opacity:1" fill="#94a0a9" d="M 54.5,300.5 C 55.4345,301.568 55.7678,302.901 55.5,304.5C 58.3198,304.248 60.9865,304.748 63.5,306C 65.8305,307.488 66.1638,309.321 64.5,311.5C 57.5,311.5 50.5,311.5 43.5,311.5C 42.0582,310.18 41.3915,308.514 41.5,306.5C 46.0806,304.87 50.4139,302.87 54.5,300.5 Z"/></g>
<g><path style="opacity:1" fill="#3c434a" d="M 41.5,306.5 C 41.3915,308.514 42.0582,310.18 43.5,311.5C 36.1667,311.5 28.8333,311.5 21.5,311.5C 25.3123,310.676 29.3123,310.176 33.5,310C 35.6474,307.792 38.3141,306.625 41.5,306.5 Z"/></g>
</svg>
