<?xml version="1.0" encoding="UTF-8"?>
<!DOCTYPE svg PUBLIC "-//W3C//DTD SVG 1.1//EN" "http://www.w3.org/Graphics/SVG/1.1/DTD/svg11.dtd">
<svg xmlns="http://www.w3.org/2000/svg" version="1.1" width="277px" height="312px" style="shape-rendering:geometricPrecision; text-rendering:geometricPrecision; image-rendering:optimizeQuality; fill-rule:evenodd; clip-rule:evenodd" xmlns:xlink="http://www.w3.org/1999/xlink">
<g><path style="opacity:1" fill="#0c1217" d="M -0.5,-0.5 C 12.5,-0.5 25.5,-0.5 38.5,-0.5C 38.1667,0.166667 37.8333,0.833333 37.5,1.5C 26.1618,1.33348 14.8284,1.50014 3.5,2C 2.29493,3.37561 0.961599,4.54227 -0.5,5.5C -0.5,3.5 -0.5,1.5 -0.5,-0.5 Z"/></g>
<g><path style="opacity:1" fill="#1e312b" d="M 38.5,-0.5 C 66.8333,-0.5 95.1667,-0.5 123.5,-0.5C 123.5,0.5 123.5,1.5 123.5,2.5C 94.9072,1.50872 66.2405,1.17539 37.5,1.5C 37.8333,0.833333 38.1667,0.166667 38.5,-0.5 Z"/></g>
<g><path style="opacity:1" fill="#373843" d="M 123.5,-0.5 C 148.5,-0.5 173.5,-0.5 198.5,-0.5C 198.557,0.608953 198.89,1.60895 199.5,2.5C 174.167,2.5 148.833,2.5 123.5,2.5C 123.5,1.5 123.5,0.5 123.5,-0.5 Z"/></g>
<g><path style="opacity:1" fill="#1e322a" d="M 198.5,-0.5 C 212.5,-0.5 226.5,-0.5 240.5,-0.5C 240.5,0.166667 240.5,0.833333 240.5,1.5C 226.804,1.23958 213.137,1.57291 199.5,2.5C 198.89,1.60895 198.557,0.608953 198.5,-0.5 Z"/></g>
<g><path style="opacity:1" fill="#0e1018" d="M 240.5,-0.5 C 252.5,-0.5 264.5,-0.5 276.5,-0.5C 276.5,0.166667 276.5,0.833333 276.5,1.5C 264.5,1.5 252.5,1.5 240.5,1.5C 240.5,0.833333 240.5,0.166667 240.5,-0.5 Z"/></g>
<g><path style="opacity:1" fill="#d3edf2" d="M 37.5,1.5 C 66.2405,1.17539 94.9072,1.50872 123.5,2.5C 148.833,2.5 174.167,2.5 199.5,2.5C 213.137,1.57291 226.804,1.23958 240.5,1.5C 252.5,1.5 264.5,1.5 276.5,1.5C 276.5,19.5 276.5,37.5 276.5,55.5C 273.326,56.0102 270.992,57.6769 269.5,60.5C 264.477,62.3405 259.81,64.8405 255.5,68C 254.207,68.49 252.873,68.6567 251.5,68.5C 248.991,65.7912 246.658,66.1245 244.5,69.5C 242.167,70.1667 239.833,70.8333 237.5,71.5C 236.652,73.4086 236.318,75.4086 236.5,77.5C 232.275,79.0781 228.608,81.4114 225.5,84.5C 215.391,79.7943 204.724,76.7943 193.5,75.5C 187.274,77.0183 180.94,77.8516 174.5,78C 163.426,82.4142 152.092,85.9142 140.5,88.5C 139.942,87.2101 138.942,86.3768 137.5,86C 124.452,83.9828 111.452,84.3161 98.5,87C 97.6195,87.7083 96.9528,88.5416 96.5,89.5C 95.7281,88.3065 94.7281,87.3065 93.5,86.5C 92.5719,82.6379 91.0719,78.9712 89,75.5C 87.3621,73.2663 85.1955,71.933 82.5,71.5C 82.5,71.1667 82.5,70.8333 82.5,70.5C 82.9528,69.5416 83.6195,68.7083 84.5,68C 83.6634,66.9887 83.33,65.8221 83.5,64.5C 80.6874,64.0246 78.6874,65.0246 77.5,67.5C 76.3951,66.3995 75.0618,65.7329 73.5,65.5C 69.6165,64.5526 66.2832,62.5526 63.5,59.5C 60.6306,56.9779 57.2972,55.3112 53.5,54.5C 51.2487,53.3052 48.9154,52.3052 46.5,51.5C 44.0914,48.4246 41.4247,45.7579 38.5,43.5C 38.1583,42.6618 37.4916,42.3284 36.5,42.5C 34.3719,39.8697 32.0386,37.3697 29.5,35C 26.344,34.0628 23.5106,32.5628 21,30.5C 17.632,26.4696 15.132,21.9696 13.5,17C 10.7303,17.7035 7.89701,18.5368 5,19.5C 2.8218,19.6052 0.988468,18.9385 -0.5,17.5C -0.5,13.5 -0.5,9.5 -0.5,5.5C 0.961599,4.54227 2.29493,3.37561 3.5,2C 14.8284,1.50014 26.1618,1.33348 37.5,1.5 Z"/></g>
<g><path style="opacity:1" fill="#987b5d" d="M -0.5,25.5 C 5.73567,28.8804 12.4023,31.0471 19.5,32C 19.5649,33.8288 19.8982,35.6621 20.5,37.5C 18.3945,38.8189 16.3945,38.4856 14.5,36.5C 13.4822,37.1925 12.4822,37.8592 11.5,38.5C 9.58686,34.928 6.58686,32.928 2.5,32.5C 1.5,31.8333 0.5,31.1667 -0.5,30.5C -0.5,28.8333 -0.5,27.1667 -0.5,25.5 Z"/></g>
<g><path style="opacity:1" fill="#170c10" d="M -0.5,30.5 C 0.5,31.1667 1.5,31.8333 2.5,32.5C 2.66615,38.5092 2.49949,44.5092 2,50.5C 1.2917,51.3805 0.458367,52.0472 -0.5,52.5C -0.5,45.1667 -0.5,37.8333 -0.5,30.5 Z"/></g>
<g><path style="opacity:1" fill="#5c3831" d="M 2.5,32.5 C 6.58686,32.928 9.58686,34.928 11.5,38.5C 12.5403,44.2434 13.8737,49.9101 15.5,55.5C 11.9073,55.359 8.40734,54.6924 5,53.5C 2.99066,53.7579 1.15733,54.4245 -0.5,55.5C -0.5,54.5 -0.5,53.5 -0.5,52.5C 0.458367,52.0472 1.2917,51.3805 2,50.5C 2.49949,44.5092 2.66615,38.5092 2.5,32.5 Z"/></g>
<g><path style="opacity:1" fill="#a4a292" d="M 36.5,42.5 C 34.7354,43.4614 32.7354,43.7947 30.5,43.5C 28.4079,39.4531 25.0746,37.4531 20.5,37.5C 19.8982,35.6621 19.5649,33.8288 19.5,32C 12.4023,31.0471 5.73567,28.8804 -0.5,25.5C -0.5,22.8333 -0.5,20.1667 -0.5,17.5C 0.988468,18.9385 2.8218,19.6052 5,19.5C 7.89701,18.5368 10.7303,17.7035 13.5,17C 15.132,21.9696 17.632,26.4696 21,30.5C 23.5106,32.5628 26.344,34.0628 29.5,35C 32.0386,37.3697 34.3719,39.8697 36.5,42.5 Z"/></g>
<g><path style="opacity:1" fill="#cd8e5d" d="M 38.5,43.5 C 41.4247,45.7579 44.0914,48.4246 46.5,51.5C 45.4017,52.6009 45.235,53.9343 46,55.5C 48.0902,58.0217 49.9235,60.6884 51.5,63.5C 48.7507,65.1132 45.7507,66.2799 42.5,67C 41.6198,68.3561 41.2865,69.8561 41.5,71.5C 39.8828,70.962 38.2161,70.6287 36.5,70.5C 37.4508,75.0684 39.4508,79.0684 42.5,82.5C 43.6888,83.4287 45.0222,83.762 46.5,83.5C 46.5,82.5 46.5,81.5 46.5,80.5C 48.4672,80.2606 50.3005,80.5939 52,81.5C 54.2237,85.9368 53.3904,89.2701 49.5,91.5C 53.0724,96.7815 51.7391,100.115 45.5,101.5C 43.1401,99.1468 40.4735,97.1468 37.5,95.5C 35.8119,97.0294 34.4786,98.8627 33.5,101C 36.7843,107.014 39.7843,113.181 42.5,119.5C 39.4022,121.892 36.0689,124.058 32.5,126C 30.393,127.264 29.393,129.097 29.5,131.5C 27.0672,131.273 25.4006,132.273 24.5,134.5C 22.461,135.911 21.461,137.911 21.5,140.5C 19.8333,140.5 18.1667,140.5 16.5,140.5C 12.5299,135.916 9.02987,130.916 6,125.5C 4.88732,124.695 3.72065,124.028 2.5,123.5C 2.44312,122.391 2.10978,121.391 1.5,120.5C 3.18571,118.984 5.01904,117.65 7,116.5C 8.22469,116.862 9.39136,117.362 10.5,118C 13.6667,121.833 16.8333,125.667 20,129.5C 25.2818,126.857 25.9484,123.19 22,118.5C 17.6157,112.956 13.449,107.289 9.5,101.5C 9.61071,100.883 9.94404,100.383 10.5,100C 13.146,99.5026 15.8127,99.3359 18.5,99.5C 18.6567,98.1266 18.49,96.7932 18,95.5C 14.2012,92.7031 10.7012,89.5364 7.5,86C 4.66727,85.5538 2.0006,86.0538 -0.5,87.5C -0.5,86.1667 -0.5,84.8333 -0.5,83.5C 4.61214,79.809 10.2788,77.809 16.5,77.5C 17.1667,77.5 17.5,77.8333 17.5,78.5C 20.2956,81.7974 23.2956,84.9641 26.5,88C 30.0553,89.1225 32.0553,87.7892 32.5,84C 30.9398,80.3822 29.2731,76.8822 27.5,73.5C 26.6442,69.4558 24.9776,65.7892 22.5,62.5C 24.0156,60.0638 26.0156,58.0638 28.5,56.5C 30.0098,57.7279 31.5098,57.7279 33,56.5C 32.7932,54.2487 32.6265,51.9154 32.5,49.5C 36.1285,49.205 38.1285,47.205 38.5,43.5 Z"/></g>
<g><path style="opacity:1" fill="#794d3a" d="M 36.5,42.5 C 37.4916,42.3284 38.1583,42.6618 38.5,43.5C 38.1285,47.205 36.1285,49.205 32.5,49.5C 32.6265,51.9154 32.7932,54.2487 33,56.5C 31.5098,57.7279 30.0098,57.7279 28.5,56.5C 25.8433,54.534 24.1767,51.8673 23.5,48.5C 23.8333,47.8333 24.1667,47.1667 24.5,46.5C 27.0473,46.229 29.0473,45.229 30.5,43.5C 32.7354,43.7947 34.7354,43.4614 36.5,42.5 Z"/></g>
<g><path style="opacity:1" fill="#a56f51" d="M 20.5,37.5 C 25.0746,37.4531 28.4079,39.4531 30.5,43.5C 29.0473,45.229 27.0473,46.229 24.5,46.5C 24.1667,47.1667 23.8333,47.8333 23.5,48.5C 24.1767,51.8673 25.8433,54.534 28.5,56.5C 26.0156,58.0638 24.0156,60.0638 22.5,62.5C 19.1501,62.335 15.8168,62.5017 12.5,63C 11.572,63.3879 10.9054,64.0546 10.5,65C 11.8457,69.5681 13.8457,73.7347 16.5,77.5C 10.2788,77.809 4.61214,79.809 -0.5,83.5C -0.5,74.1667 -0.5,64.8333 -0.5,55.5C 1.15733,54.4245 2.99066,53.7579 5,53.5C 8.40734,54.6924 11.9073,55.359 15.5,55.5C 13.8737,49.9101 12.5403,44.2434 11.5,38.5C 12.4822,37.8592 13.4822,37.1925 14.5,36.5C 16.3945,38.4856 18.3945,38.8189 20.5,37.5 Z"/></g>
<g><path style="opacity:1" fill="#956a4a" d="M 53.5,54.5 C 57.2972,55.3112 60.6306,56.9779 63.5,59.5C 63.4993,63.3436 61.8327,66.0103 58.5,67.5C 55.4399,63.7114 53.7732,59.3781 53.5,54.5 Z"/></g>
<g><path style="opacity:1" fill="#a18f75" d="M 276.5,55.5 C 276.5,57.1667 276.5,58.8333 276.5,60.5C 274.059,61.7563 271.726,61.7563 269.5,60.5C 270.992,57.6769 273.326,56.0102 276.5,55.5 Z"/></g>
<g><path style="opacity:1" fill="#7d4d36" d="M 46.5,51.5 C 48.9154,52.3052 51.2487,53.3052 53.5,54.5C 53.7732,59.3781 55.4399,63.7114 58.5,67.5C 59.2178,69.1368 59.3845,70.8034 59,72.5C 58.2825,73.4506 57.4491,73.6172 56.5,73C 54.6932,69.8855 53.0265,66.7188 51.5,63.5C 49.9235,60.6884 48.0902,58.0217 46,55.5C 45.235,53.9343 45.4017,52.6009 46.5,51.5 Z"/></g>
<g><path style="opacity:1" fill="#d9a269" d="M 63.5,59.5 C 66.2832,62.5526 69.6165,64.5526 73.5,65.5C 72.645,66.5307 71.9783,67.6974 71.5,69C 72.7823,76.4533 76.7823,81.62 83.5,84.5C 83.369,85.2389 83.5357,85.9056 84,86.5C 86.8808,84.9717 89.2141,85.6384 91,88.5C 91.7083,87.6195 92.5416,86.9528 93.5,86.5C 94.7281,87.3065 95.7281,88.3065 96.5,89.5C 96.8333,90.1667 97.1667,90.8333 97.5,91.5C 96.3871,92.9464 96.2204,94.6131 97,96.5C 98.7611,99.4111 100.261,102.411 101.5,105.5C 99.1352,107.527 96.4686,109.193 93.5,110.5C 92.4756,111.852 91.4756,113.185 90.5,114.5C 88.6943,113.976 87.0276,113.309 85.5,112.5C 86.4756,111.185 87.4756,109.852 88.5,108.5C 86.2986,101.622 81.6319,98.2887 74.5,98.5C 74.3505,99.552 74.5172,100.552 75,101.5C 78.0486,105.043 80.8819,108.709 83.5,112.5C 80.6965,113.638 77.6965,113.805 74.5,113C 71.9036,111.864 69.237,111.031 66.5,110.5C 62.3791,109.658 59.3791,110.991 57.5,114.5C 52.4215,115.87 47.4215,117.536 42.5,119.5C 39.7843,113.181 36.7843,107.014 33.5,101C 34.4786,98.8627 35.8119,97.0294 37.5,95.5C 40.4735,97.1468 43.1401,99.1468 45.5,101.5C 51.7391,100.115 53.0724,96.7815 49.5,91.5C 53.3904,89.2701 54.2237,85.9368 52,81.5C 50.3005,80.5939 48.4672,80.2606 46.5,80.5C 44.5797,77.6612 42.9131,74.6612 41.5,71.5C 41.2865,69.8561 41.6198,68.3561 42.5,67C 45.7507,66.2799 48.7507,65.1132 51.5,63.5C 53.0265,66.7188 54.6932,69.8855 56.5,73C 57.4491,73.6172 58.2825,73.4506 59,72.5C 59.3845,70.8034 59.2178,69.1368 58.5,67.5C 61.8327,66.0103 63.4993,63.3436 63.5,59.5 Z"/></g>
<g><path style="opacity:1" fill="#69382a" d="M 22.5,62.5 C 24.9776,65.7892 26.6442,69.4558 27.5,73.5C 24.511,75.7569 21.1777,77.4236 17.5,78.5C 17.5,77.8333 17.1667,77.5 16.5,77.5C 13.8457,73.7347 11.8457,69.5681 10.5,65C 10.9054,64.0546 11.572,63.3879 12.5,63C 15.8168,62.5017 19.1501,62.335 22.5,62.5 Z"/></g>
<g><path style="opacity:1" fill="#695144" d="M 269.5,60.5 C 271.726,61.7563 274.059,61.7563 276.5,60.5C 276.5,91.8333 276.5,123.167 276.5,154.5C 272.897,151.074 268.563,149.408 263.5,149.5C 262.314,154.393 263.981,157.727 268.5,159.5C 270.816,157.506 273.482,156.506 276.5,156.5C 276.5,164.167 276.5,171.833 276.5,179.5C 272.956,178.69 269.456,177.69 266,176.5C 264.905,177.693 264.072,179.027 263.5,180.5C 263.167,180.5 262.833,180.5 262.5,180.5C 258.356,177.432 253.69,175.432 248.5,174.5C 246.5,173.833 245.167,172.5 244.5,170.5C 245.708,169.766 247.041,169.433 248.5,169.5C 248.338,167.473 248.505,165.473 249,163.5C 251.226,161.715 252.392,159.382 252.5,156.5C 247.915,156.474 243.581,157.474 239.5,159.5C 233.896,157.066 228.396,154.399 223,151.5C 221.961,152.244 221.461,153.244 221.5,154.5C 219.801,154.66 218.134,154.494 216.5,154C 213.919,151.464 211.086,149.298 208,147.5C 203.596,149.898 199.762,153.065 196.5,157C 194.783,158.559 192.783,159.392 190.5,159.5C 189.298,157.608 187.965,155.774 186.5,154C 183.761,152.974 181.428,151.474 179.5,149.5C 182.768,144.397 186.935,140.063 192,136.5C 192.678,134.402 192.511,132.402 191.5,130.5C 197.187,130.816 200.52,128.15 201.5,122.5C 206.179,117.982 210.346,112.982 214,107.5C 216.792,99.2489 220.626,91.5822 225.5,84.5C 228.608,81.4114 232.275,79.0781 236.5,77.5C 239.042,76.3756 241.708,75.5423 244.5,75C 246.981,72.8005 249.314,70.6339 251.5,68.5C 252.873,68.6567 254.207,68.49 255.5,68C 259.81,64.8405 264.477,62.3405 269.5,60.5 Z"/></g>
<g><path style="opacity:1" fill="#b4af95" d="M 82.5,70.5 C 80.6316,69.7368 78.9649,68.7368 77.5,67.5C 78.6874,65.0246 80.6874,64.0246 83.5,64.5C 83.33,65.8221 83.6634,66.9887 84.5,68C 83.6195,68.7083 82.9528,69.5416 82.5,70.5 Z"/></g>
<g><path style="opacity:1" fill="#8b573e" d="M 73.5,65.5 C 75.0618,65.7329 76.3951,66.3995 77.5,67.5C 78.9649,68.7368 80.6316,69.7368 82.5,70.5C 82.5,70.8333 82.5,71.1667 82.5,71.5C 80.906,75.8846 81.5727,80.0513 84.5,84C 84.2716,84.3988 83.9382,84.5654 83.5,84.5C 76.7823,81.62 72.7823,76.4533 71.5,69C 71.9783,67.6974 72.645,66.5307 73.5,65.5 Z"/></g>
<g><path style="opacity:1" fill="#ab6d45" d="M 41.5,71.5 C 42.9131,74.6612 44.5797,77.6612 46.5,80.5C 46.5,81.5 46.5,82.5 46.5,83.5C 45.0222,83.762 43.6888,83.4287 42.5,82.5C 39.4508,79.0684 37.4508,75.0684 36.5,70.5C 38.2161,70.6287 39.8828,70.962 41.5,71.5 Z"/></g>
<g><path style="opacity:1" fill="#8c826d" d="M 251.5,68.5 C 249.314,70.6339 246.981,72.8005 244.5,75C 241.708,75.5423 239.042,76.3756 236.5,77.5C 236.318,75.4086 236.652,73.4086 237.5,71.5C 239.833,70.8333 242.167,70.1667 244.5,69.5C 246.658,66.1245 248.991,65.7912 251.5,68.5 Z"/></g>
<g><path style="opacity:1" fill="#a3704b" d="M 82.5,71.5 C 85.1955,71.933 87.3621,73.2663 89,75.5C 91.0719,78.9712 92.5719,82.6379 93.5,86.5C 92.5416,86.9528 91.7083,87.6195 91,88.5C 89.2141,85.6384 86.8808,84.9717 84,86.5C 83.5357,85.9056 83.369,85.2389 83.5,84.5C 83.9382,84.5654 84.2716,84.3988 84.5,84C 81.5727,80.0513 80.906,75.8846 82.5,71.5 Z"/></g>
<g><path style="opacity:1" fill="#824b31" d="M 27.5,73.5 C 29.2731,76.8822 30.9398,80.3822 32.5,84C 32.0553,87.7892 30.0553,89.1225 26.5,88C 23.2956,84.9641 20.2956,81.7974 17.5,78.5C 21.1777,77.4236 24.511,75.7569 27.5,73.5 Z"/></g>
<g><path style="opacity:1" fill="#9cb5b5" d="M 225.5,84.5 C 220.626,91.5822 216.792,99.2489 214,107.5C 210.346,112.982 206.179,117.982 201.5,122.5C 200.942,121.21 199.942,120.377 198.5,120C 191.506,119.273 184.506,118.607 177.5,118C 176.229,115.671 174.229,114.505 171.5,114.5C 166.5,115.833 161.5,115.833 156.5,114.5C 155.167,114.667 153.833,114.833 152.5,115C 151.944,115.383 151.611,115.883 151.5,116.5C 151.167,116.5 150.833,116.5 150.5,116.5C 145.352,111.51 140.686,106.01 136.5,100C 134.975,98.9914 133.308,98.4914 131.5,98.5C 125.418,99.1978 119.751,98.1978 114.5,95.5C 123.007,93.4501 131.673,91.1168 140.5,88.5C 152.092,85.9142 163.426,82.4142 174.5,78C 180.94,77.8516 187.274,77.0183 193.5,75.5C 204.724,76.7943 215.391,79.7943 225.5,84.5 Z"/></g>
<g><path style="opacity:1" fill="#c0dae0" d="M 140.5,88.5 C 131.673,91.1168 123.007,93.4501 114.5,95.5C 108.597,95.0566 102.93,93.7232 97.5,91.5C 97.1667,90.8333 96.8333,90.1667 96.5,89.5C 96.9528,88.5416 97.6195,87.7083 98.5,87C 111.452,84.3161 124.452,83.9828 137.5,86C 138.942,86.3768 139.942,87.2101 140.5,88.5 Z"/></g>
<g><path style="opacity:1" fill="#e0af6f" d="M 9.5,101.5 C 6.69831,98.3583 3.36498,96.0249 -0.5,94.5C -0.5,92.1667 -0.5,89.8333 -0.5,87.5C 2.0006,86.0538 4.66727,85.5538 7.5,86C 10.7012,89.5364 14.2012,92.7031 18,95.5C 18.49,96.7932 18.6567,98.1266 18.5,99.5C 15.8127,99.3359 13.146,99.5026 10.5,100C 9.94404,100.383 9.61071,100.883 9.5,101.5 Z"/></g>
<g><path style="opacity:1" fill="#917460" d="M 97.5,91.5 C 102.93,93.7232 108.597,95.0566 114.5,95.5C 119.751,98.1978 125.418,99.1978 131.5,98.5C 132.929,101.308 133.595,104.308 133.5,107.5C 133.53,108.497 133.03,109.164 132,109.5C 128.162,107.66 124.329,105.994 120.5,104.5C 120.36,109.747 118.194,110.747 114,107.5C 110.729,109.657 107.229,109.99 103.5,108.5C 103.068,107.29 102.401,106.29 101.5,105.5C 100.261,102.411 98.7611,99.4111 97,96.5C 96.2204,94.6131 96.3871,92.9464 97.5,91.5 Z"/></g>
<g><path style="opacity:1" fill="#ba7d50" d="M -0.5,94.5 C 3.36498,96.0249 6.69831,98.3583 9.5,101.5C 13.449,107.289 17.6157,112.956 22,118.5C 25.9484,123.19 25.2818,126.857 20,129.5C 16.8333,125.667 13.6667,121.833 10.5,118C 9.39136,117.362 8.22469,116.862 7,116.5C 5.01904,117.65 3.18571,118.984 1.5,120.5C 0.833333,120.167 0.166667,119.833 -0.5,119.5C -0.5,111.167 -0.5,102.833 -0.5,94.5 Z"/></g>
<g><path style="opacity:1" fill="#ba7d50" d="M 85.5,112.5 C 84.8333,112.5 84.1667,112.5 83.5,112.5C 80.8819,108.709 78.0486,105.043 75,101.5C 74.5172,100.552 74.3505,99.552 74.5,98.5C 81.6319,98.2887 86.2986,101.622 88.5,108.5C 87.4756,109.852 86.4756,111.185 85.5,112.5 Z"/></g>
<g><path style="opacity:1" fill="#a48f76" d="M 131.5,98.5 C 133.308,98.4914 134.975,98.9914 136.5,100C 140.686,106.01 145.352,111.51 150.5,116.5C 148.712,117.622 146.712,117.789 144.5,117C 142.467,114.104 141.134,110.937 140.5,107.5C 138.167,107.5 135.833,107.5 133.5,107.5C 133.595,104.308 132.929,101.308 131.5,98.5 Z"/></g>
<g><path style="opacity:1" fill="#e6b582" d="M 101.5,105.5 C 102.401,106.29 103.068,107.29 103.5,108.5C 104.653,110.807 105.82,113.14 107,115.5C 107.78,117.387 107.613,119.054 106.5,120.5C 106.167,120.5 105.833,120.5 105.5,120.5C 104.833,120.5 104.167,120.5 103.5,120.5C 103.426,118.589 102.426,117.422 100.5,117C 97.2321,115.85 93.8988,115.016 90.5,114.5C 91.4756,113.185 92.4756,111.852 93.5,110.5C 96.4686,109.193 99.1352,107.527 101.5,105.5 Z"/></g>
<g><path style="opacity:1" fill="#cda87d" d="M 133.5,107.5 C 135.833,107.5 138.167,107.5 140.5,107.5C 141.134,110.937 142.467,114.104 144.5,117C 146.712,117.789 148.712,117.622 150.5,116.5C 150.833,116.5 151.167,116.5 151.5,116.5C 152.219,118.888 153.885,120.388 156.5,121C 166.738,121.248 176.738,122.914 186.5,126C 188.041,127.371 189.375,128.871 190.5,130.5C 187.095,131.364 183.762,132.531 180.5,134C 172.263,139.618 163.596,144.451 154.5,148.5C 150.385,146.225 146.385,143.725 142.5,141C 140.527,140.505 138.527,140.338 136.5,140.5C 131.026,138.119 125.359,136.119 119.5,134.5C 116.075,131.238 114.742,127.238 115.5,122.5C 112.311,122.142 109.311,121.475 106.5,120.5C 107.613,119.054 107.78,117.387 107,115.5C 105.82,113.14 104.653,110.807 103.5,108.5C 107.229,109.99 110.729,109.657 114,107.5C 118.194,110.747 120.36,109.747 120.5,104.5C 124.329,105.994 128.162,107.66 132,109.5C 133.03,109.164 133.53,108.497 133.5,107.5 Z"/></g>
<g><path style="opacity:1" fill="#616c72" d="M 66.5,110.5 C 66.585,112.929 67.585,114.929 69.5,116.5C 67.5544,118.085 66.221,120.085 65.5,122.5C 63.7085,122.366 62.0418,122.699 60.5,123.5C 61.5418,119.897 60.5418,116.897 57.5,114.5C 59.3791,110.991 62.3791,109.658 66.5,110.5 Z"/></g>
<g><path style="opacity:1" fill="#9faeb5" d="M 66.5,110.5 C 69.237,111.031 71.9036,111.864 74.5,113C 77.6965,113.805 80.6965,113.638 83.5,112.5C 84.1667,112.5 84.8333,112.5 85.5,112.5C 87.0276,113.309 88.6943,113.976 90.5,114.5C 93.8988,115.016 97.2321,115.85 100.5,117C 102.426,117.422 103.426,118.589 103.5,120.5C 94.8492,119.58 86.1825,119.413 77.5,120C 75.5049,120.924 75.1716,122.09 76.5,123.5C 76.5,125.167 76.5,126.833 76.5,128.5C 75.4097,129.857 74.0764,130.857 72.5,131.5C 69.083,129.408 66.7497,126.408 65.5,122.5C 66.221,120.085 67.5544,118.085 69.5,116.5C 67.585,114.929 66.585,112.929 66.5,110.5 Z"/></g>
<g><path style="opacity:1" fill="#95a2a7" d="M 57.5,114.5 C 60.5418,116.897 61.5418,119.897 60.5,123.5C 49.6256,124.135 39.2922,126.802 29.5,131.5C 29.393,129.097 30.393,127.264 32.5,126C 36.0689,124.058 39.4022,121.892 42.5,119.5C 47.4215,117.536 52.4215,115.87 57.5,114.5 Z"/></g>
<g><path style="opacity:1" fill="#badacd" d="M 201.5,122.5 C 200.52,128.15 197.187,130.816 191.5,130.5C 191.167,130.5 190.833,130.5 190.5,130.5C 189.375,128.871 188.041,127.371 186.5,126C 176.738,122.914 166.738,121.248 156.5,121C 153.885,120.388 152.219,118.888 151.5,116.5C 151.611,115.883 151.944,115.383 152.5,115C 153.833,114.833 155.167,114.667 156.5,114.5C 161.5,115.833 166.5,115.833 171.5,114.5C 174.229,114.505 176.229,115.671 177.5,118C 184.506,118.607 191.506,119.273 198.5,120C 199.942,120.377 200.942,121.21 201.5,122.5 Z"/></g>
<g><path style="opacity:1" fill="#100a0a" d="M -0.5,119.5 C 0.166667,119.833 0.833333,120.167 1.5,120.5C 2.10978,121.391 2.44312,122.391 2.5,123.5C 2.66409,126.187 2.49742,128.854 2,131.5C 1.2917,132.381 0.458367,133.047 -0.5,133.5C -0.5,128.833 -0.5,124.167 -0.5,119.5 Z"/></g>
<g><path style="opacity:1" fill="#565143" d="M 103.5,120.5 C 104.167,120.5 104.833,120.5 105.5,120.5C 104.833,121.833 104.167,123.167 103.5,124.5C 94.5404,123.585 85.5404,123.252 76.5,123.5C 75.1716,122.09 75.5049,120.924 77.5,120C 86.1825,119.413 94.8492,119.58 103.5,120.5 Z"/></g>
<g><path style="opacity:1" fill="#3d2f2c" d="M 65.5,122.5 C 66.7497,126.408 69.083,129.408 72.5,131.5C 73.1667,132.5 73.8333,133.5 74.5,134.5C 74.5,135.167 74.5,135.833 74.5,136.5C 72.847,136.66 71.5137,137.326 70.5,138.5C 68.0551,134.553 65.0551,131.053 61.5,128C 57.4631,127.393 53.4631,127.56 49.5,128.5C 41.7957,130.179 34.4624,132.846 27.5,136.5C 25.9623,136.547 24.9623,135.88 24.5,134.5C 25.4006,132.273 27.0672,131.273 29.5,131.5C 39.2922,126.802 49.6256,124.135 60.5,123.5C 62.0418,122.699 63.7085,122.366 65.5,122.5 Z"/></g>
<g><path style="opacity:1" fill="#e0ae75" d="M 76.5,123.5 C 85.5404,123.252 94.5404,123.585 103.5,124.5C 105.92,124.292 108.253,124.626 110.5,125.5C 111.104,129.798 111.27,134.131 111,138.5C 112.277,140.747 113.777,142.747 115.5,144.5C 116.773,146.713 117.773,149.046 118.5,151.5C 116.409,153.753 113.909,155.42 111,156.5C 110.167,156.333 109.333,156.167 108.5,156C 107.359,153.692 105.692,151.859 103.5,150.5C 102.914,150.709 102.414,151.043 102,151.5C 101.921,154.831 101.087,157.831 99.5,160.5C 96.0806,158.373 92.5806,156.373 89,154.5C 85.3212,148.148 82.4878,141.481 80.5,134.5C 81.7933,133.842 83.2933,133.508 85,133.5C 88.5721,133.859 92.0721,134.526 95.5,135.5C 95.128,131.957 93.128,129.79 89.5,129C 85.1568,127.41 80.8235,127.243 76.5,128.5C 76.5,126.833 76.5,125.167 76.5,123.5 Z"/></g>
<g><path style="opacity:1" fill="#7e5239" d="M 70.5,138.5 C 70.5,138.833 70.5,139.167 70.5,139.5C 68.6198,140.078 67.6198,141.412 67.5,143.5C 68.0267,146.581 68.86,149.581 70,152.5C 76.9401,166.713 83.6068,181.047 90,195.5C 93.7677,204.048 98.2677,212.048 103.5,219.5C 103.5,220.5 103.5,221.5 103.5,222.5C 100.99,222.054 98.9899,222.72 97.5,224.5C 94.3243,223.66 91.6576,221.993 89.5,219.5C 91.1128,218.162 91.6128,216.495 91,214.5C 86.295,202.854 81.1284,191.521 75.5,180.5C 70.1664,164.666 62.8331,149.833 53.5,136C 51.9419,135.79 50.6085,135.29 49.5,134.5C 50.8333,132.5 50.8333,130.5 49.5,128.5C 53.4631,127.56 57.4631,127.393 61.5,128C 65.0551,131.053 68.0551,134.553 70.5,138.5 Z"/></g>
<g><path style="opacity:1" fill="#926745" d="M 80.5,134.5 C 78.2967,134.065 76.2967,134.065 74.5,134.5C 73.8333,133.5 73.1667,132.5 72.5,131.5C 74.0764,130.857 75.4097,129.857 76.5,128.5C 80.8235,127.243 85.1568,127.41 89.5,129C 93.128,129.79 95.128,131.957 95.5,135.5C 92.0721,134.526 88.5721,133.859 85,133.5C 83.2933,133.508 81.7933,133.842 80.5,134.5 Z"/></g>
<g><path style="opacity:1" fill="#6c4533" d="M 49.5,128.5 C 50.8333,130.5 50.8333,132.5 49.5,134.5C 46.0611,134.788 42.7278,135.454 39.5,136.5C 35.4632,137.065 31.7966,138.399 28.5,140.5C 26.5588,140.869 24.7255,141.536 23,142.5C 22.2828,141.956 21.7828,141.289 21.5,140.5C 21.461,137.911 22.461,135.911 24.5,134.5C 24.9623,135.88 25.9623,136.547 27.5,136.5C 34.4624,132.846 41.7957,130.179 49.5,128.5 Z"/></g>
<g><path style="opacity:1" fill="#57443e" d="M 190.5,130.5 C 190.833,130.5 191.167,130.5 191.5,130.5C 192.511,132.402 192.678,134.402 192,136.5C 186.935,140.063 182.768,144.397 179.5,149.5C 175.65,153.589 170.984,154.922 165.5,153.5C 167.426,158.615 170.426,163.115 174.5,167C 176.025,168.009 177.692,168.509 179.5,168.5C 178.64,171.911 177.474,175.244 176,178.5C 175.503,180.81 175.337,183.143 175.5,185.5C 173.5,185.5 171.5,185.5 169.5,185.5C 167.795,183.808 165.795,182.475 163.5,181.5C 161.833,176.334 158.333,173.001 153,171.5C 151.941,171.63 151.108,172.13 150.5,173C 152.667,175.167 154.833,177.333 157,179.5C 158.08,182.237 157.246,183.904 154.5,184.5C 152.523,183.54 150.523,182.54 148.5,181.5C 147.893,181.624 147.56,181.957 147.5,182.5C 145.5,183.167 143.5,183.833 141.5,184.5C 134.765,177.338 128.765,169.672 123.5,161.5C 121.745,158.116 120.078,154.783 118.5,151.5C 117.773,149.046 116.773,146.713 115.5,144.5C 117.199,142.559 119.366,141.226 122,140.5C 125.442,142.138 128.942,143.638 132.5,145C 134.066,145.765 135.399,145.598 136.5,144.5C 139.251,147.187 141.585,150.187 143.5,153.5C 147.997,153.389 151.664,151.722 154.5,148.5C 163.596,144.451 172.263,139.618 180.5,134C 183.762,132.531 187.095,131.364 190.5,130.5 Z"/></g>
<g><path style="opacity:1" fill="#8b6f5a" d="M 105.5,120.5 C 105.833,120.5 106.167,120.5 106.5,120.5C 109.311,121.475 112.311,122.142 115.5,122.5C 114.742,127.238 116.075,131.238 119.5,134.5C 125.359,136.119 131.026,138.119 136.5,140.5C 136.5,141.833 136.5,143.167 136.5,144.5C 135.399,145.598 134.066,145.765 132.5,145C 128.942,143.638 125.442,142.138 122,140.5C 119.366,141.226 117.199,142.559 115.5,144.5C 113.777,142.747 112.277,140.747 111,138.5C 111.27,134.131 111.104,129.798 110.5,125.5C 108.253,124.626 105.92,124.292 103.5,124.5C 104.167,123.167 104.833,121.833 105.5,120.5 Z"/></g>
<g><path style="opacity:1" fill="#e0a86f" d="M 49.5,134.5 C 50.6085,135.29 51.9419,135.79 53.5,136C 62.8331,149.833 70.1664,164.666 75.5,180.5C 73.2114,182.387 70.5447,183.721 67.5,184.5C 64.9103,178.928 61.5769,173.928 57.5,169.5C 56.6324,164.565 54.9657,159.898 52.5,155.5C 44.9226,151.333 40.5892,145 39.5,136.5C 42.7278,135.454 46.0611,134.788 49.5,134.5 Z"/></g>
<g><path style="opacity:1" fill="#d49664" d="M 39.5,136.5 C 40.5892,145 44.9226,151.333 52.5,155.5C 54.9657,159.898 56.6324,164.565 57.5,169.5C 51.4855,164.159 45.1522,159.159 38.5,154.5C 35.516,151.015 32.3493,147.682 29,144.5C 28.51,143.207 28.3433,141.873 28.5,140.5C 31.7966,138.399 35.4632,137.065 39.5,136.5 Z"/></g>
<g><path style="opacity:1" fill="#b98c61" d="M 80.5,134.5 C 82.4878,141.481 85.3212,148.148 89,154.5C 92.5806,156.373 96.0806,158.373 99.5,160.5C 99.5,161.5 99.5,162.5 99.5,163.5C 98.1667,163.5 96.8333,163.5 95.5,163.5C 95.3305,168.152 96.9971,171.819 100.5,174.5C 100.46,177.425 101.293,180.091 103,182.5C 105.041,186.617 107.541,190.284 110.5,193.5C 109.833,197.5 111.5,199.167 115.5,198.5C 112.685,202.721 113.685,205.721 118.5,207.5C 119.147,209.141 120.147,210.474 121.5,211.5C 118.901,213.921 118.901,216.421 121.5,219C 125.295,218.008 129.295,217.508 133.5,217.5C 134.167,218.833 134.833,220.167 135.5,221.5C 135.108,223.179 134.608,224.846 134,226.5C 131.674,228.066 129.508,229.732 127.5,231.5C 125.473,229.135 123.807,226.469 122.5,223.5C 120.257,222.526 117.924,222.192 115.5,222.5C 102.366,193.566 88.6994,164.899 74.5,136.5C 74.5,135.833 74.5,135.167 74.5,134.5C 76.2967,134.065 78.2967,134.065 80.5,134.5 Z"/></g>
<g><path style="opacity:1" fill="#ae7650" d="M 15.5,151.5 C 11.9081,151.784 8.7414,150.784 6,148.5C 3.96543,149.789 1.79876,150.789 -0.5,151.5C -0.5,147.5 -0.5,143.5 -0.5,139.5C 2.44381,137.452 5.44381,137.285 8.5,139C 11.7465,142.66 14.0799,146.827 15.5,151.5 Z"/></g>
<g><path style="opacity:1" fill="#d3a26f" d="M 70.5,139.5 C 83.6344,165.437 95.9677,191.77 107.5,218.5C 106.292,219.234 104.959,219.567 103.5,219.5C 98.2677,212.048 93.7677,204.048 90,195.5C 83.6068,181.047 76.9401,166.713 70,152.5C 68.86,149.581 68.0267,146.581 67.5,143.5C 67.6198,141.412 68.6198,140.078 70.5,139.5 Z"/></g>
<g><path style="opacity:1" fill="#634331" d="M 74.5,136.5 C 88.6994,164.899 102.366,193.566 115.5,222.5C 115.5,222.833 115.5,223.167 115.5,223.5C 113.549,222.359 111.549,222.359 109.5,223.5C 109.598,221.447 108.931,219.78 107.5,218.5C 95.9677,191.77 83.6344,165.437 70.5,139.5C 70.5,139.167 70.5,138.833 70.5,138.5C 71.5137,137.326 72.847,136.66 74.5,136.5 Z"/></g>
<g><path style="opacity:1" fill="#b38c6b" d="M 136.5,140.5 C 138.527,140.338 140.527,140.505 142.5,141C 146.385,143.725 150.385,146.225 154.5,148.5C 151.664,151.722 147.997,153.389 143.5,153.5C 141.585,150.187 139.251,147.187 136.5,144.5C 136.5,143.167 136.5,141.833 136.5,140.5 Z"/></g>
<g><path style="opacity:1" fill="#5d3e38" d="M 221.5,154.5 C 225.528,157.181 229.861,159.347 234.5,161C 235.252,161.671 235.586,162.504 235.5,163.5C 233.654,165.03 232.654,167.03 232.5,169.5C 231.539,171.265 231.205,173.265 231.5,175.5C 231.5,176.5 231.5,177.5 231.5,178.5C 227.401,176.991 223.401,175.491 219.5,174C 219.043,174.414 218.709,174.914 218.5,175.5C 220.008,177.507 221.842,179.174 224,180.5C 224.667,181.5 224.667,182.5 224,183.5C 220.5,187 217,190.5 213.5,194C 209.817,193.663 207.484,195.163 206.5,198.5C 204.302,197.933 201.969,197.933 199.5,198.5C 198.855,197.188 197.855,196.188 196.5,195.5C 195.571,194.311 195.238,192.978 195.5,191.5C 194.5,191.5 193.5,191.5 192.5,191.5C 191.256,187.223 188.589,185.556 184.5,186.5C 184.167,186.5 183.833,186.5 183.5,186.5C 179.327,181.153 179.827,176.153 185,171.5C 184.503,167.106 186.336,164.772 190.5,164.5C 190.5,163.5 190.5,162.5 190.5,161.5C 190.5,160.833 190.5,160.167 190.5,159.5C 192.783,159.392 194.783,158.559 196.5,157C 199.762,153.065 203.596,149.898 208,147.5C 211.086,149.298 213.919,151.464 216.5,154C 218.134,154.494 219.801,154.66 221.5,154.5 Z"/></g>
<g><path style="opacity:1" fill="#cd9663" d="M 15.5,151.5 C 21.0134,161.349 28.0134,170.015 36.5,177.5C 37.1667,179.5 37.8333,181.5 38.5,183.5C 36.5,184.976 34.8334,186.809 33.5,189C 32.2068,189.49 30.8734,189.657 29.5,189.5C 27.8333,189.5 26.1667,189.5 24.5,189.5C 21.998,188.33 19.498,186.997 17,185.5C 15.5603,186.148 14.0603,186.481 12.5,186.5C 10.0374,182.7 6.70402,180.033 2.5,178.5C 1.83333,177.5 1.16667,176.5 0.5,175.5C 1.91417,173.946 3.58083,172.612 5.5,171.5C 7.98229,173.344 10.649,174.677 13.5,175.5C 11.672,169.477 8.33866,164.311 3.5,160C 2.0993,159.59 0.765972,159.09 -0.5,158.5C -0.5,156.167 -0.5,153.833 -0.5,151.5C 1.79876,150.789 3.96543,149.789 6,148.5C 8.7414,150.784 11.9081,151.784 15.5,151.5 Z"/></g>
<g><path style="opacity:1" fill="#604e4d" d="M 179.5,149.5 C 181.428,151.474 183.761,152.974 186.5,154C 187.965,155.774 189.298,157.608 190.5,159.5C 190.5,160.167 190.5,160.833 190.5,161.5C 185.587,161.725 181.92,164.059 179.5,168.5C 177.692,168.509 176.025,168.009 174.5,167C 170.426,163.115 167.426,158.615 165.5,153.5C 170.984,154.922 175.65,153.589 179.5,149.5 Z"/></g>
<g><path style="opacity:1" fill="#ae7d5c" d="M 276.5,154.5 C 276.5,155.167 276.5,155.833 276.5,156.5C 273.482,156.506 270.816,157.506 268.5,159.5C 263.981,157.727 262.314,154.393 263.5,149.5C 268.563,149.408 272.897,151.074 276.5,154.5 Z"/></g>
<g><path style="opacity:1" fill="#d39663" d="M 118.5,151.5 C 120.078,154.783 121.745,158.116 123.5,161.5C 122.85,161.804 122.183,162.137 121.5,162.5C 120.711,166.074 119.378,169.408 117.5,172.5C 113.044,169.878 109.377,166.378 106.5,162C 105.552,161.517 104.552,161.351 103.5,161.5C 103.688,164.206 104.688,166.539 106.5,168.5C 105.549,171.606 103.549,173.606 100.5,174.5C 96.9971,171.819 95.3305,168.152 95.5,163.5C 96.8333,163.5 98.1667,163.5 99.5,163.5C 99.5,162.5 99.5,161.5 99.5,160.5C 101.087,157.831 101.921,154.831 102,151.5C 102.414,151.043 102.914,150.709 103.5,150.5C 105.692,151.859 107.359,153.692 108.5,156C 109.333,156.167 110.167,156.333 111,156.5C 113.909,155.42 116.409,153.753 118.5,151.5 Z"/></g>
<g><path style="opacity:1" fill="#9a5e3f" d="M 2.5,123.5 C 3.72065,124.028 4.88732,124.695 6,125.5C 9.02987,130.916 12.5299,135.916 16.5,140.5C 18.8249,145.15 21.1582,149.816 23.5,154.5C 27.4452,155.268 31.4452,155.768 35.5,156C 42.2431,161.24 46.2431,168.073 47.5,176.5C 43.8282,176.94 40.1616,177.273 36.5,177.5C 28.0134,170.015 21.0134,161.349 15.5,151.5C 14.0799,146.827 11.7465,142.66 8.5,139C 5.44381,137.285 2.44381,137.452 -0.5,139.5C -0.5,137.5 -0.5,135.5 -0.5,133.5C 0.458367,133.047 1.2917,132.381 2,131.5C 2.49742,128.854 2.66409,126.187 2.5,123.5 Z"/></g>
<g><path style="opacity:1" fill="#be7f54" d="M 16.5,140.5 C 18.1667,140.5 19.8333,140.5 21.5,140.5C 21.7828,141.289 22.2828,141.956 23,142.5C 24.7255,141.536 26.5588,140.869 28.5,140.5C 28.3433,141.873 28.51,143.207 29,144.5C 32.3493,147.682 35.516,151.015 38.5,154.5C 45.1522,159.159 51.4855,164.159 57.5,169.5C 61.5769,173.928 64.9103,178.928 67.5,184.5C 65.8764,187.79 63.5431,190.457 60.5,192.5C 53.3982,192.339 50.5649,188.672 52,181.5C 51.0041,179.34 49.5041,177.673 47.5,176.5C 46.2431,168.073 42.2431,161.24 35.5,156C 31.4452,155.768 27.4452,155.268 23.5,154.5C 21.1582,149.816 18.8249,145.15 16.5,140.5 Z"/></g>
<g><path style="opacity:1" fill="#8a6651" d="M 239.5,159.5 C 240.352,162.683 242.018,165.35 244.5,167.5C 244.376,168.107 244.043,168.44 243.5,168.5C 241.034,166.656 238.367,164.99 235.5,163.5C 235.586,162.504 235.252,161.671 234.5,161C 229.861,159.347 225.528,157.181 221.5,154.5C 221.461,153.244 221.961,152.244 223,151.5C 228.396,154.399 233.896,157.066 239.5,159.5 Z"/></g>
<g><path style="opacity:1" fill="#7c5143" d="M 244.5,170.5 C 244.167,170.5 243.833,170.5 243.5,170.5C 243.5,169.833 243.5,169.167 243.5,168.5C 244.043,168.44 244.376,168.107 244.5,167.5C 242.018,165.35 240.352,162.683 239.5,159.5C 243.581,157.474 247.915,156.474 252.5,156.5C 252.392,159.382 251.226,161.715 249,163.5C 248.505,165.473 248.338,167.473 248.5,169.5C 247.041,169.433 245.708,169.766 244.5,170.5 Z"/></g>
<g><path style="opacity:1" fill="#b47d50" d="M -0.5,158.5 C 0.765972,159.09 2.0993,159.59 3.5,160C 8.33866,164.311 11.672,169.477 13.5,175.5C 10.649,174.677 7.98229,173.344 5.5,171.5C 3.58083,172.612 1.91417,173.946 0.5,175.5C 0.166667,175.5 -0.166667,175.5 -0.5,175.5C -0.5,169.833 -0.5,164.167 -0.5,158.5 Z"/></g>
<g><path style="opacity:1" fill="#bf7a46" d="M 117.5,172.5 C 119.85,174.213 120.85,176.547 120.5,179.5C 118.345,179.628 116.345,179.128 114.5,178C 112.172,174.484 109.505,171.318 106.5,168.5C 104.688,166.539 103.688,164.206 103.5,161.5C 104.552,161.351 105.552,161.517 106.5,162C 109.377,166.378 113.044,169.878 117.5,172.5 Z"/></g>
<g><path style="opacity:1" fill="#dfa66f" d="M 123.5,161.5 C 128.765,169.672 134.765,177.338 141.5,184.5C 142.598,185.397 142.598,186.23 141.5,187C 144.35,189.924 147.684,192.091 151.5,193.5C 154.876,195.082 158.542,195.749 162.5,195.5C 164.527,195.338 166.527,195.505 168.5,196C 169.252,196.671 169.586,197.504 169.5,198.5C 167.695,200.197 165.361,201.03 162.5,201C 161.374,203.655 159.374,205.155 156.5,205.5C 148.988,203.324 142.154,199.657 136,194.5C 134.991,196.025 134.491,197.692 134.5,199.5C 133.167,200.167 132.167,201.167 131.5,202.5C 129.7,203.308 128.033,202.808 126.5,201C 125.5,200.333 124.5,200.333 123.5,201C 121.946,203.287 120.279,205.454 118.5,207.5C 113.685,205.721 112.685,202.721 115.5,198.5C 116.74,193.951 115.073,192.284 110.5,193.5C 107.541,190.284 105.041,186.617 103,182.5C 101.293,180.091 100.46,177.425 100.5,174.5C 103.549,173.606 105.549,171.606 106.5,168.5C 109.505,171.318 112.172,174.484 114.5,178C 116.345,179.128 118.345,179.628 120.5,179.5C 120.85,176.547 119.85,174.213 117.5,172.5C 119.378,169.408 120.711,166.074 121.5,162.5C 122.183,162.137 122.85,161.804 123.5,161.5 Z"/></g>
<g><path style="opacity:1" fill="#3d3231" d="M 190.5,161.5 C 190.5,162.5 190.5,163.5 190.5,164.5C 186.336,164.772 184.503,167.106 185,171.5C 179.827,176.153 179.327,181.153 183.5,186.5C 183.134,187.695 182.301,188.361 181,188.5C 179.142,187.394 177.308,186.394 175.5,185.5C 175.337,183.143 175.503,180.81 176,178.5C 177.474,175.244 178.64,171.911 179.5,168.5C 181.92,164.059 185.587,161.725 190.5,161.5 Z"/></g>
<g><path style="opacity:1" fill="#4a444a" d="M 235.5,163.5 C 238.367,164.99 241.034,166.656 243.5,168.5C 243.5,169.167 243.5,169.833 243.5,170.5C 242.228,171.434 240.728,172.101 239,172.5C 237.022,171.094 234.855,170.094 232.5,169.5C 232.654,167.03 233.654,165.03 235.5,163.5 Z"/></g>
<g><path style="opacity:1" fill="#5c4b4a" d="M 248.5,174.5 C 253.69,175.432 258.356,177.432 262.5,180.5C 261.601,181.472 260.434,182.138 259,182.5C 256.178,181.725 253.344,181.058 250.5,180.5C 250.029,178.421 249.363,176.421 248.5,174.5 Z"/></g>
<g><path style="opacity:1" fill="#110c0b" d="M -0.5,175.5 C -0.166667,175.5 0.166667,175.5 0.5,175.5C 1.16667,176.5 1.83333,177.5 2.5,178.5C 2.18054,183.363 2.51388,188.03 3.5,192.5C 3.5,193.167 3.5,193.833 3.5,194.5C 2.71721,196.328 1.38388,197.661 -0.5,198.5C -0.5,190.833 -0.5,183.167 -0.5,175.5 Z"/></g>
<g><path style="opacity:1" fill="#6d4d39" d="M 231.5,175.5 C 232.5,175.5 233.5,175.5 234.5,175.5C 234.509,177.308 234.009,178.975 233,180.5C 229.629,183.703 226.462,187.036 223.5,190.5C 219.479,194.519 215.146,198.186 210.5,201.5C 209.583,200.873 208.583,200.539 207.5,200.5C 207.167,199.833 206.833,199.167 206.5,198.5C 207.484,195.163 209.817,193.663 213.5,194C 217,190.5 220.5,187 224,183.5C 224.667,182.5 224.667,181.5 224,180.5C 221.842,179.174 220.008,177.507 218.5,175.5C 218.709,174.914 219.043,174.414 219.5,174C 223.401,175.491 227.401,176.991 231.5,178.5C 231.5,177.5 231.5,176.5 231.5,175.5 Z"/></g>
<g><path style="opacity:1" fill="#a76f49" d="M 47.5,176.5 C 49.5041,177.673 51.0041,179.34 52,181.5C 50.5649,188.672 53.3982,192.339 60.5,192.5C 63.8289,194.834 66.4956,197.834 68.5,201.5C 67.3319,203.397 65.6652,203.564 63.5,202C 61.8333,199 59.5,196.667 56.5,195C 51.4481,193.687 46.7814,191.854 42.5,189.5C 43.4015,185.759 42.0681,183.759 38.5,183.5C 37.8333,181.5 37.1667,179.5 36.5,177.5C 40.1616,177.273 43.8282,176.94 47.5,176.5 Z"/></g>
<g><path style="opacity:1" fill="#47302b" d="M 232.5,169.5 C 234.855,170.094 237.022,171.094 239,172.5C 240.728,172.101 242.228,171.434 243.5,170.5C 243.833,170.5 244.167,170.5 244.5,170.5C 245.167,172.5 246.5,173.833 248.5,174.5C 249.363,176.421 250.029,178.421 250.5,180.5C 244.161,181.841 238.827,185.008 234.5,190C 231.78,190.797 229.28,191.963 227,193.5C 225.961,192.29 224.794,191.29 223.5,190.5C 226.462,187.036 229.629,183.703 233,180.5C 234.009,178.975 234.509,177.308 234.5,175.5C 233.5,175.5 232.5,175.5 231.5,175.5C 231.205,173.265 231.539,171.265 232.5,169.5 Z"/></g>
<g><path style="opacity:1" fill="#b28d69" d="M 276.5,179.5 C 276.5,181.5 276.5,183.5 276.5,185.5C 272.093,184.031 267.76,182.364 263.5,180.5C 264.072,179.027 264.905,177.693 266,176.5C 269.456,177.69 272.956,178.69 276.5,179.5 Z"/></g>
<g><path style="opacity:1" fill="#7c4b31" d="M 2.5,178.5 C 6.70402,180.033 10.0374,182.7 12.5,186.5C 12.8342,189.188 12.1675,191.521 10.5,193.5C 8.28298,192.631 5.94965,192.298 3.5,192.5C 2.51388,188.03 2.18054,183.363 2.5,178.5 Z"/></g>
<g><path style="opacity:1" fill="#cd8f63" d="M 75.5,180.5 C 81.1284,191.521 86.295,202.854 91,214.5C 91.6128,216.495 91.1128,218.162 89.5,219.5C 88.8333,219.833 88.1667,220.167 87.5,220.5C 84.1401,218.82 80.8068,217.153 77.5,215.5C 76.3409,213.623 74.6742,213.123 72.5,214C 69.9704,217.237 66.637,219.07 62.5,219.5C 57.7287,215.231 53.062,210.731 48.5,206C 46.8068,205.153 45.1401,204.32 43.5,203.5C 42.8333,200.167 42.1667,196.833 41.5,193.5C 41.2322,191.901 41.5655,190.568 42.5,189.5C 46.7814,191.854 51.4481,193.687 56.5,195C 59.5,196.667 61.8333,199 63.5,202C 65.6652,203.564 67.3319,203.397 68.5,201.5C 66.4956,197.834 63.8289,194.834 60.5,192.5C 63.5431,190.457 65.8764,187.79 67.5,184.5C 70.5447,183.721 73.2114,182.387 75.5,180.5 Z"/></g>
<g><path style="opacity:1" fill="#674337" d="M 250.5,180.5 C 253.344,181.058 256.178,181.725 259,182.5C 260.434,182.138 261.601,181.472 262.5,180.5C 262.833,180.5 263.167,180.5 263.5,180.5C 267.76,182.364 272.093,184.031 276.5,185.5C 276.5,187.833 276.5,190.167 276.5,192.5C 273.086,190.454 269.419,189.621 265.5,190C 259.652,194.357 253.985,198.857 248.5,203.5C 247.4,202.442 246.066,201.608 244.5,201C 241.183,200.502 237.85,200.335 234.5,200.5C 232.958,201.301 231.292,201.634 229.5,201.5C 225.818,201.335 222.152,201.501 218.5,202C 217.663,203.011 217.33,204.178 217.5,205.5C 214.52,206.829 213.187,209.163 213.5,212.5C 211.833,212.5 210.167,212.5 208.5,212.5C 207.713,209.592 206.38,206.926 204.5,204.5C 205.5,203.167 206.5,201.833 207.5,200.5C 208.583,200.539 209.583,200.873 210.5,201.5C 215.146,198.186 219.479,194.519 223.5,190.5C 224.794,191.29 225.961,192.29 227,193.5C 229.28,191.963 231.78,190.797 234.5,190C 238.827,185.008 244.161,181.841 250.5,180.5 Z"/></g>
<g><path style="opacity:1" fill="#b48f6f" d="M 163.5,181.5 C 165.795,182.475 167.795,183.808 169.5,185.5C 169.915,187.948 168.915,189.281 166.5,189.5C 164.484,188.822 162.484,188.156 160.5,187.5C 159.058,186.18 158.392,184.514 158.5,182.5C 160.415,182.784 162.081,182.451 163.5,181.5 Z"/></g>
<g><path style="opacity:1" fill="#5c3e2a" d="M 147.5,182.5 C 148.373,184.886 149.873,186.886 152,188.5C 152.64,190.265 152.473,191.932 151.5,193.5C 147.684,192.091 144.35,189.924 141.5,187C 142.598,186.23 142.598,185.397 141.5,184.5C 143.5,183.833 145.5,183.167 147.5,182.5 Z"/></g>
<g><path style="opacity:1" fill="#757675" d="M 38.5,183.5 C 42.0681,183.759 43.4015,185.759 42.5,189.5C 41.5655,190.568 41.2322,191.901 41.5,193.5C 40.7354,193.077 39.9021,192.743 39,192.5C 36.7211,193.391 34.5544,194.391 32.5,195.5C 31.2055,193.672 30.2055,191.672 29.5,189.5C 30.8734,189.657 32.2068,189.49 33.5,189C 34.8334,186.809 36.5,184.976 38.5,183.5 Z"/></g>
<g><path style="opacity:1" fill="#936b54" d="M 163.5,181.5 C 162.081,182.451 160.415,182.784 158.5,182.5C 158.392,184.514 159.058,186.18 160.5,187.5C 159.12,187.962 158.453,188.962 158.5,190.5C 159.823,192.165 161.156,193.832 162.5,195.5C 158.542,195.749 154.876,195.082 151.5,193.5C 152.473,191.932 152.64,190.265 152,188.5C 149.873,186.886 148.373,184.886 147.5,182.5C 147.56,181.957 147.893,181.624 148.5,181.5C 150.523,182.54 152.523,183.54 154.5,184.5C 157.246,183.904 158.08,182.237 157,179.5C 154.833,177.333 152.667,175.167 150.5,173C 151.108,172.13 151.941,171.63 153,171.5C 158.333,173.001 161.833,176.334 163.5,181.5 Z"/></g>
<g><path style="opacity:1" fill="#955d3d" d="M 24.5,189.5 C 23.5386,191.265 23.2053,193.265 23.5,195.5C 22.391,195.557 21.391,195.89 20.5,196.5C 18.1667,197.167 15.8333,197.833 13.5,198.5C 13.5,196.833 13.5,195.167 13.5,193.5C 12.5,193.5 11.5,193.5 10.5,193.5C 12.1675,191.521 12.8342,189.188 12.5,186.5C 14.0603,186.481 15.5603,186.148 17,185.5C 19.498,186.997 21.998,188.33 24.5,189.5 Z"/></g>
<g><path style="opacity:1" fill="#ae764a" d="M 123.5,185.5 C 126.869,186.559 128.536,188.892 128.5,192.5C 123.613,192.269 121.947,189.935 123.5,185.5 Z"/></g>
<g><path style="opacity:1" fill="#a17d5c" d="M 192.5,191.5 C 188.49,192.456 185.823,190.789 184.5,186.5C 188.589,185.556 191.256,187.223 192.5,191.5 Z"/></g>
<g><path style="opacity:1" fill="#805c47" d="M 169.5,185.5 C 171.5,185.5 173.5,185.5 175.5,185.5C 177.308,186.394 179.142,187.394 181,188.5C 182.301,188.361 183.134,187.695 183.5,186.5C 183.833,186.5 184.167,186.5 184.5,186.5C 185.823,190.789 188.49,192.456 192.5,191.5C 193.5,191.5 194.5,191.5 195.5,191.5C 195.238,192.978 195.571,194.311 196.5,195.5C 197.855,196.188 198.855,197.188 199.5,198.5C 197.167,198.5 194.833,198.5 192.5,198.5C 190.052,197.527 187.385,197.194 184.5,197.5C 182.167,198.167 179.833,198.833 177.5,199.5C 174.763,199.599 172.096,199.265 169.5,198.5C 169.586,197.504 169.252,196.671 168.5,196C 166.527,195.505 164.527,195.338 162.5,195.5C 161.156,193.832 159.823,192.165 158.5,190.5C 158.453,188.962 159.12,187.962 160.5,187.5C 162.484,188.156 164.484,188.822 166.5,189.5C 168.915,189.281 169.915,187.948 169.5,185.5 Z"/></g>
<g><path style="opacity:1" fill="#4e4e54" d="M 24.5,189.5 C 26.1667,189.5 27.8333,189.5 29.5,189.5C 30.2055,191.672 31.2055,193.672 32.5,195.5C 32.5299,196.497 32.0299,197.164 31,197.5C 29.0153,195.551 26.8487,195.218 24.5,196.5C 23.8333,196.5 23.5,196.167 23.5,195.5C 23.2053,193.265 23.5386,191.265 24.5,189.5 Z"/></g>
<g><path style="opacity:1" fill="#c7a175" d="M 276.5,192.5 C 276.5,192.833 276.5,193.167 276.5,193.5C 271.179,197.155 266.513,201.488 262.5,206.5C 257.206,210.127 252.539,214.46 248.5,219.5C 244.435,223.572 240.102,227.238 235.5,230.5C 225.872,238.126 216.539,246.126 207.5,254.5C 203.993,252.246 200.327,250.246 196.5,248.5C 197.031,246.456 198.198,244.789 200,243.5C 200.494,241.866 200.66,240.199 200.5,238.5C 201.5,238.5 202.5,238.5 203.5,238.5C 203.5,239.5 203.5,240.5 203.5,241.5C 207.217,240.473 210.55,238.639 213.5,236C 215.439,234.568 216.772,232.735 217.5,230.5C 219.754,229.876 221.421,228.543 222.5,226.5C 224.5,225.167 226.167,223.5 227.5,221.5C 228.552,221.649 229.552,221.483 230.5,221C 233.729,217.601 237.062,214.435 240.5,211.5C 242.645,210.011 244.978,209.011 247.5,208.5C 247.629,206.784 247.962,205.117 248.5,203.5C 253.985,198.857 259.652,194.357 265.5,190C 269.419,189.621 273.086,190.454 276.5,192.5 Z"/></g>
<g><path style="opacity:1" fill="#c08f63" d="M 3.5,192.5 C 5.94965,192.298 8.28298,192.631 10.5,193.5C 11.5,193.5 12.5,193.5 13.5,193.5C 13.5,195.167 13.5,196.833 13.5,198.5C 14.2341,199.708 14.5674,201.041 14.5,202.5C 12.5,203.833 10.5,203.833 8.5,202.5C 6.54565,199.974 4.87899,197.307 3.5,194.5C 3.5,193.833 3.5,193.167 3.5,192.5 Z"/></g>
<g><path style="opacity:1" fill="#9aa8b9" d="M 41.5,193.5 C 42.1667,196.833 42.8333,200.167 43.5,203.5C 41.9731,203.427 40.9731,204.094 40.5,205.5C 36.544,203.124 32.2106,201.957 27.5,202C 26.0289,200.417 25.0289,198.583 24.5,196.5C 26.8487,195.218 29.0153,195.551 31,197.5C 32.0299,197.164 32.5299,196.497 32.5,195.5C 34.5544,194.391 36.7211,193.391 39,192.5C 39.9021,192.743 40.7354,193.077 41.5,193.5 Z"/></g>
<g><path style="opacity:1" fill="#885737" d="M 115.5,198.5 C 111.5,199.167 109.833,197.5 110.5,193.5C 115.073,192.284 116.74,193.951 115.5,198.5 Z"/></g>
<g><path style="opacity:1" fill="#6f573d" d="M 276.5,193.5 C 276.5,195.833 276.5,198.167 276.5,200.5C 272.287,201.708 269.287,204.375 267.5,208.5C 265.597,208.204 263.93,207.537 262.5,206.5C 266.513,201.488 271.179,197.155 276.5,193.5 Z"/></g>
<g><path style="opacity:1" fill="#693e2a" d="M 3.5,194.5 C 4.87899,197.307 6.54565,199.974 8.5,202.5C 8.5,203.833 8.5,205.167 8.5,206.5C 6.14166,206.253 4.14166,206.919 2.5,208.5C 1.5,207.833 0.5,207.167 -0.5,206.5C -0.5,203.833 -0.5,201.167 -0.5,198.5C 1.38388,197.661 2.71721,196.328 3.5,194.5 Z"/></g>
<g><path style="opacity:1" fill="#5c3725" d="M 20.5,196.5 C 20.3379,198.527 20.5045,200.527 21,202.5C 24.828,205.415 28.828,208.081 33,210.5C 35.0401,212.281 35.5401,214.281 34.5,216.5C 30.9663,214.234 27.2996,212.234 23.5,210.5C 21.6115,209.678 19.6115,208.845 17.5,208C 16.7709,205.942 15.7709,204.109 14.5,202.5C 14.5674,201.041 14.2341,199.708 13.5,198.5C 15.8333,197.833 18.1667,197.167 20.5,196.5 Z"/></g>
<g><path style="opacity:1" fill="#b58357" d="M 156.5,205.5 C 155.557,207.001 155.891,208.335 157.5,209.5C 155.484,210.588 153.317,211.588 151,212.5C 144.876,210.432 138.709,209.765 132.5,210.5C 132.557,209.391 132.89,208.391 133.5,207.5C 140.734,209.393 142.234,207.059 138,200.5C 136.989,199.663 135.822,199.33 134.5,199.5C 134.491,197.692 134.991,196.025 136,194.5C 142.154,199.657 148.988,203.324 156.5,205.5 Z"/></g>
<g><path style="opacity:1" fill="#dfac7a" d="M 184.5,197.5 C 185.578,200.402 186.244,203.402 186.5,206.5C 183.925,207.787 181.259,209.121 178.5,210.5C 177.614,211.325 177.281,212.325 177.5,213.5C 175.288,216.358 172.288,217.691 168.5,217.5C 166.143,217.337 163.81,217.503 161.5,218C 160.944,218.383 160.611,218.883 160.5,219.5C 158.589,220.075 156.922,221.075 155.5,222.5C 153.901,222.232 152.568,222.566 151.5,223.5C 151.167,223.5 150.833,223.5 150.5,223.5C 148.117,221.642 145.45,220.308 142.5,219.5C 140.197,216.303 137.197,215.637 133.5,217.5C 129.295,217.508 125.295,218.008 121.5,219C 118.901,216.421 118.901,213.921 121.5,211.5C 122.416,211.982 123.416,212.315 124.5,212.5C 126.902,210.951 129.568,210.284 132.5,210.5C 138.709,209.765 144.876,210.432 151,212.5C 153.317,211.588 155.484,210.588 157.5,209.5C 160.518,209.665 163.518,209.498 166.5,209C 167.167,207.667 167.833,206.333 168.5,205C 170.999,205.117 173.665,204.784 176.5,204C 177.38,202.644 177.714,201.144 177.5,199.5C 179.833,198.833 182.167,198.167 184.5,197.5 Z"/></g>
<g><path style="opacity:1" fill="#ab7e58" d="M 184.5,197.5 C 187.385,197.194 190.052,197.527 192.5,198.5C 192.366,200.292 192.699,201.958 193.5,203.5C 191.491,205.065 189.157,206.065 186.5,206.5C 186.244,203.402 185.578,200.402 184.5,197.5 Z"/></g>
<g><path style="opacity:1" fill="#ca9c71" d="M 206.5,198.5 C 206.833,199.167 207.167,199.833 207.5,200.5C 206.5,201.833 205.5,203.167 204.5,204.5C 203.735,204.923 202.902,205.257 202,205.5C 199.453,203.823 196.62,203.156 193.5,203.5C 192.699,201.958 192.366,200.292 192.5,198.5C 194.833,198.5 197.167,198.5 199.5,198.5C 201.969,197.933 204.302,197.933 206.5,198.5 Z"/></g>
<g><path style="opacity:1" fill="#a47a57" d="M 169.5,198.5 C 172.096,199.265 174.763,199.599 177.5,199.5C 177.714,201.144 177.38,202.644 176.5,204C 173.665,204.784 170.999,205.117 168.5,205C 167.833,206.333 167.167,207.667 166.5,209C 163.518,209.498 160.518,209.665 157.5,209.5C 155.891,208.335 155.557,207.001 156.5,205.5C 159.374,205.155 161.374,203.655 162.5,201C 165.361,201.03 167.695,200.197 169.5,198.5 Z"/></g>
<g><path style="opacity:1" fill="#633e2a" d="M 134.5,199.5 C 135.822,199.33 136.989,199.663 138,200.5C 142.234,207.059 140.734,209.393 133.5,207.5C 132.032,206.221 131.365,204.554 131.5,202.5C 132.167,201.167 133.167,200.167 134.5,199.5 Z"/></g>
<g><path style="opacity:1" fill="#926742" d="M 131.5,202.5 C 131.365,204.554 132.032,206.221 133.5,207.5C 132.89,208.391 132.557,209.391 132.5,210.5C 129.568,210.284 126.902,210.951 124.5,212.5C 123.416,212.315 122.416,211.982 121.5,211.5C 120.147,210.474 119.147,209.141 118.5,207.5C 120.279,205.454 121.946,203.287 123.5,201C 124.5,200.333 125.5,200.333 126.5,201C 128.033,202.808 129.7,203.308 131.5,202.5 Z"/></g>
<g><path style="opacity:1" fill="#9c8274" d="M 234.5,200.5 C 237.85,200.335 241.183,200.502 244.5,201C 246.066,201.608 247.4,202.442 248.5,203.5C 247.962,205.117 247.629,206.784 247.5,208.5C 244.978,209.011 242.645,210.011 240.5,211.5C 240.649,210.448 240.483,209.448 240,208.5C 236.335,207.015 234.502,204.349 234.5,200.5 Z"/></g>
<g><path style="opacity:1" fill="#b48f69" d="M 276.5,200.5 C 276.5,203.167 276.5,205.833 276.5,208.5C 273.67,208.963 271.003,209.629 268.5,210.5C 267.662,210.158 267.328,209.492 267.5,208.5C 269.287,204.375 272.287,201.708 276.5,200.5 Z"/></g>
<g><path style="opacity:1" fill="#9f8573" d="M 229.5,201.5 C 230.701,204.068 232.034,206.568 233.5,209C 233.164,210.03 232.497,210.53 231.5,210.5C 228.487,209.662 225.82,208.162 223.5,206C 221.866,205.506 220.199,205.34 218.5,205.5C 218.167,205.5 217.833,205.5 217.5,205.5C 217.33,204.178 217.663,203.011 218.5,202C 222.152,201.501 225.818,201.335 229.5,201.5 Z"/></g>
<g><path style="opacity:1" fill="#3f2721" d="M 23.5,195.5 C 23.5,196.167 23.8333,196.5 24.5,196.5C 25.0289,198.583 26.0289,200.417 27.5,202C 32.2106,201.957 36.544,203.124 40.5,205.5C 51.172,216.172 62.172,226.505 73.5,236.5C 76.5466,239.545 79.2133,242.878 81.5,246.5C 77.7657,246.677 74.0991,246.344 70.5,245.5C 70.3893,244.883 70.056,244.383 69.5,244C 62.7842,243 56.7842,240.5 51.5,236.5C 49.7451,233.32 47.7451,230.32 45.5,227.5C 42.8272,222.827 39.1605,219.161 34.5,216.5C 35.5401,214.281 35.0401,212.281 33,210.5C 28.828,208.081 24.828,205.415 21,202.5C 20.5045,200.527 20.3379,198.527 20.5,196.5C 21.391,195.89 22.391,195.557 23.5,195.5 Z"/></g>
<g><path style="opacity:1" fill="#a7896f" d="M 43.5,203.5 C 45.1401,204.32 46.8068,205.153 48.5,206C 53.062,210.731 57.7287,215.231 62.5,219.5C 64.0828,223.759 67.0828,226.092 71.5,226.5C 72.8333,229.167 74.1667,231.833 75.5,234.5C 74.5,234.833 73.8333,235.5 73.5,236.5C 62.172,226.505 51.172,216.172 40.5,205.5C 40.9731,204.094 41.9731,203.427 43.5,203.5 Z"/></g>
<g><path style="opacity:1" fill="#503e37" d="M 193.5,203.5 C 196.62,203.156 199.453,203.823 202,205.5C 202.902,205.257 203.735,204.923 204.5,204.5C 206.38,206.926 207.713,209.592 208.5,212.5C 208.848,216.344 211.181,219.011 215.5,220.5C 215.5,221.833 215.5,223.167 215.5,224.5C 213.265,224.205 211.265,224.539 209.5,225.5C 203.37,225.274 197.37,224.274 191.5,222.5C 190.914,222.709 190.414,223.043 190,223.5C 187.433,222.413 184.933,221.413 182.5,220.5C 180.649,218.224 178.982,215.891 177.5,213.5C 177.281,212.325 177.614,211.325 178.5,210.5C 181.259,209.121 183.925,207.787 186.5,206.5C 189.157,206.065 191.491,205.065 193.5,203.5 Z"/></g>
<g><path style="opacity:1" fill="#564946" d="M 234.5,200.5 C 234.502,204.349 236.335,207.015 240,208.5C 240.483,209.448 240.649,210.448 240.5,211.5C 237.062,214.435 233.729,217.601 230.5,221C 229.552,221.483 228.552,221.649 227.5,221.5C 226.712,219.185 225.046,217.852 222.5,217.5C 220.513,219.327 218.179,220.327 215.5,220.5C 215.893,217.487 215.226,214.82 213.5,212.5C 213.187,209.163 214.52,206.829 217.5,205.5C 217.833,205.5 218.167,205.5 218.5,205.5C 219.297,213.863 223.297,216.363 230.5,213C 231.252,212.329 231.586,211.496 231.5,210.5C 232.497,210.53 233.164,210.03 233.5,209C 232.034,206.568 230.701,204.068 229.5,201.5C 231.292,201.634 232.958,201.301 234.5,200.5 Z"/></g>
<g><path style="opacity:1" fill="#6f645c" d="M 218.5,205.5 C 220.199,205.34 221.866,205.506 223.5,206C 225.82,208.162 228.487,209.662 231.5,210.5C 231.586,211.496 231.252,212.329 230.5,213C 223.297,216.363 219.297,213.863 218.5,205.5 Z"/></g>
<g><path style="opacity:1" fill="#886a50" d="M 276.5,208.5 C 276.5,210.167 276.5,211.833 276.5,213.5C 273.058,214.172 270.391,213.172 268.5,210.5C 271.003,209.629 273.67,208.963 276.5,208.5 Z"/></g>
<g><path style="opacity:1" fill="#b47d50" d="M 23.5,210.5 C 27.2996,212.234 30.9663,214.234 34.5,216.5C 39.1605,219.161 42.8272,222.827 45.5,227.5C 42.479,230.509 38.8124,232.176 34.5,232.5C 27.9537,227.955 23.287,221.955 20.5,214.5C 21.0256,212.77 22.0256,211.436 23.5,210.5 Z"/></g>
<g><path style="opacity:1" fill="#a36c4e" d="M 8.5,202.5 C 10.5,203.833 12.5,203.833 14.5,202.5C 15.7709,204.109 16.7709,205.942 17.5,208C 19.6115,208.845 21.6115,209.678 23.5,210.5C 22.0256,211.436 21.0256,212.77 20.5,214.5C 15.4137,212.417 13.5804,214.083 15,219.5C 15.9383,221.488 16.7717,223.488 17.5,225.5C 15.4558,226.778 13.4558,226.612 11.5,225C 7.97128,222.669 5.97128,219.503 5.5,215.5C 3.69161,215.509 2.02494,215.009 0.5,214C 1.86135,212.416 2.52801,210.582 2.5,208.5C 4.14166,206.919 6.14166,206.253 8.5,206.5C 8.5,205.167 8.5,203.833 8.5,202.5 Z"/></g>
<g><path style="opacity:1" fill="#957d69" d="M 208.5,212.5 C 210.167,212.5 211.833,212.5 213.5,212.5C 215.226,214.82 215.893,217.487 215.5,220.5C 211.181,219.011 208.848,216.344 208.5,212.5 Z"/></g>
<g><path style="opacity:1" fill="#452525" d="M 20.5,214.5 C 23.287,221.955 27.9537,227.955 34.5,232.5C 34.6495,233.552 34.4828,234.552 34,235.5C 31.1816,234.872 28.5149,233.872 26,232.5C 24.2725,232.899 22.7725,233.566 21.5,234.5C 19.8333,233.167 18.1667,231.833 16.5,230.5C 16.6287,228.784 16.962,227.117 17.5,225.5C 16.7717,223.488 15.9383,221.488 15,219.5C 13.5804,214.083 15.4137,212.417 20.5,214.5 Z"/></g>
<g><path style="opacity:1" fill="#956a4a" d="M 77.5,215.5 C 76.5075,218.073 75.6741,220.74 75,223.5C 73.8549,224.636 72.6883,225.636 71.5,226.5C 67.0828,226.092 64.0828,223.759 62.5,219.5C 66.637,219.07 69.9704,217.237 72.5,214C 74.6742,213.123 76.3409,213.623 77.5,215.5 Z"/></g>
<g><path style="opacity:1" fill="#462d27" d="M 262.5,206.5 C 263.93,207.537 265.597,208.204 267.5,208.5C 267.328,209.492 267.662,210.158 268.5,210.5C 270.391,213.172 273.058,214.172 276.5,213.5C 276.5,217.833 276.5,222.167 276.5,226.5C 269.737,227.55 263.737,230.217 258.5,234.5C 255.427,229.362 252.093,224.362 248.5,219.5C 252.539,214.46 257.206,210.127 262.5,206.5 Z"/></g>
<g><path style="opacity:1" fill="#44312a" d="M -0.5,206.5 C 0.5,207.167 1.5,207.833 2.5,208.5C 2.52801,210.582 1.86135,212.416 0.5,214C 2.02494,215.009 3.69161,215.509 5.5,215.5C 5.97128,219.503 7.97128,222.669 11.5,225C 13.4558,226.612 15.4558,226.778 17.5,225.5C 16.962,227.117 16.6287,228.784 16.5,230.5C 13.4373,230.137 10.4373,229.47 7.5,228.5C 5.3074,228.771 3.64073,229.771 2.5,231.5C 1.39105,231.443 0.391047,231.11 -0.5,230.5C -0.5,222.5 -0.5,214.5 -0.5,206.5 Z"/></g>
<g><path style="opacity:1" fill="#b2815d" d="M 77.5,215.5 C 80.8068,217.153 84.1401,218.82 87.5,220.5C 86.3146,221.857 85.3146,223.357 84.5,225C 86.0072,227.434 88.0072,229.434 90.5,231C 85.6684,232.141 84.335,234.974 86.5,239.5C 82.5967,238.24 78.93,236.573 75.5,234.5C 74.1667,231.833 72.8333,229.167 71.5,226.5C 72.6883,225.636 73.8549,224.636 75,223.5C 75.6741,220.74 76.5075,218.073 77.5,215.5 Z"/></g>
<g><path style="opacity:1" fill="#694431" d="M 142.5,219.5 C 142.389,220.117 142.056,220.617 141.5,221C 139.527,221.495 137.527,221.662 135.5,221.5C 134.833,220.167 134.167,218.833 133.5,217.5C 137.197,215.637 140.197,216.303 142.5,219.5 Z"/></g>
<g><path style="opacity:1" fill="#ad7b55" d="M 177.5,213.5 C 178.982,215.891 180.649,218.224 182.5,220.5C 178.938,221.899 175.771,223.899 173,226.5C 170.599,225.601 169.099,223.934 168.5,221.5C 169.686,220.295 169.686,218.961 168.5,217.5C 172.288,217.691 175.288,216.358 177.5,213.5 Z"/></g>
<g><path style="opacity:1" fill="#694b31" d="M 168.5,217.5 C 169.686,218.961 169.686,220.295 168.5,221.5C 166.143,221.663 163.81,221.497 161.5,221C 160.944,220.617 160.611,220.117 160.5,219.5C 160.611,218.883 160.944,218.383 161.5,218C 163.81,217.503 166.143,217.337 168.5,217.5 Z"/></g>
<g><path style="opacity:1" fill="#312524" d="M 227.5,221.5 C 226.167,223.5 224.5,225.167 222.5,226.5C 220.562,224.837 218.228,224.171 215.5,224.5C 215.5,223.167 215.5,221.833 215.5,220.5C 218.179,220.327 220.513,219.327 222.5,217.5C 225.046,217.852 226.712,219.185 227.5,221.5 Z"/></g>
<g><path style="opacity:1" fill="#a77d63" d="M 107.5,218.5 C 108.931,219.78 109.598,221.447 109.5,223.5C 110.566,225.701 111.233,228.035 111.5,230.5C 109.143,230.663 106.81,230.497 104.5,230C 102.531,227.511 100.198,225.678 97.5,224.5C 98.9899,222.72 100.99,222.054 103.5,222.5C 103.5,221.5 103.5,220.5 103.5,219.5C 104.959,219.567 106.292,219.234 107.5,218.5 Z"/></g>
<g><path style="opacity:1" fill="#634435" d="M 89.5,219.5 C 91.6576,221.993 94.3243,223.66 97.5,224.5C 100.198,225.678 102.531,227.511 104.5,230C 106.81,230.497 109.143,230.663 111.5,230.5C 111.572,233.553 112.572,236.219 114.5,238.5C 114.565,238.938 114.399,239.272 114,239.5C 111.808,238.601 109.642,237.601 107.5,236.5C 100.656,237.55 93.9897,238.883 87.5,240.5C 86.8333,240.5 86.5,240.167 86.5,239.5C 84.335,234.974 85.6684,232.141 90.5,231C 88.0072,229.434 86.0072,227.434 84.5,225C 85.3146,223.357 86.3146,221.857 87.5,220.5C 88.1667,220.167 88.8333,219.833 89.5,219.5 Z"/></g>
<g><path style="opacity:1" fill="#cc9b69" d="M 142.5,219.5 C 145.45,220.308 148.117,221.642 150.5,223.5C 148.586,225.628 146.586,227.795 144.5,230C 145.579,230.956 146.745,231.789 148,232.5C 150.102,230.905 151.602,228.905 152.5,226.5C 154.992,228.092 156.992,227.592 158.5,225C 157.429,224.148 156.429,223.315 155.5,222.5C 156.922,221.075 158.589,220.075 160.5,219.5C 160.611,220.117 160.944,220.617 161.5,221C 163.81,221.497 166.143,221.663 168.5,221.5C 169.099,223.934 170.599,225.601 173,226.5C 175.771,223.899 178.938,221.899 182.5,220.5C 184.933,221.413 187.433,222.413 190,223.5C 190.414,223.043 190.914,222.709 191.5,222.5C 197.37,224.274 203.37,225.274 209.5,225.5C 210.5,226.833 211.5,228.167 212.5,229.5C 211.751,230.531 211.085,231.698 210.5,233C 206.218,232.468 203.884,234.302 203.5,238.5C 202.5,238.5 201.5,238.5 200.5,238.5C 200.66,240.199 200.494,241.866 200,243.5C 198.198,244.789 197.031,246.456 196.5,248.5C 194.067,248.273 192.401,249.273 191.5,251.5C 184.418,256.731 177.418,262.231 170.5,268C 168.536,269.451 167.203,271.284 166.5,273.5C 163.385,273.394 160.719,274.394 158.5,276.5C 155.088,278.359 151.422,279.526 147.5,280C 146.167,281.667 146.167,283.333 147.5,285C 151.885,284.913 156.219,285.08 160.5,285.5C 160.833,286.167 161.167,286.833 161.5,287.5C 160.37,288.622 159.703,289.956 159.5,291.5C 155.869,290.588 152.203,290.421 148.5,291C 147.944,291.383 147.611,291.883 147.5,292.5C 143.945,293.054 141.612,295.054 140.5,298.5C 137.994,299.75 135.327,300.416 132.5,300.5C 130.064,300.317 127.897,300.984 126,302.5C 124.829,301.107 123.329,300.273 121.5,300C 116.833,299.667 112.167,299.333 107.5,299C 104.998,296.788 101.998,295.955 98.5,296.5C 96.5212,295.188 94.8545,293.521 93.5,291.5C 91.9291,290.691 90.2624,290.357 88.5,290.5C 87.4863,289.326 86.153,288.66 84.5,288.5C 81.9964,284.064 81.9964,279.731 84.5,275.5C 85.391,274.89 86.391,274.557 87.5,274.5C 94.1131,274.519 100.78,274.852 107.5,275.5C 112.986,275.669 118.653,275.669 124.5,275.5C 124.5,274.5 124.5,273.5 124.5,272.5C 125.239,272.631 125.906,272.464 126.5,272C 125.896,269.532 124.562,267.532 122.5,266C 118.28,264.658 113.947,263.825 109.5,263.5C 109.5,262.5 109.5,261.5 109.5,260.5C 112.812,260.007 115.979,259.007 119,257.5C 121.421,259.271 123.921,259.604 126.5,258.5C 133.051,260.133 139.717,260.799 146.5,260.5C 146.5,259.167 146.5,257.833 146.5,256.5C 146.5,254.833 146.5,253.167 146.5,251.5C 142.486,251.334 138.486,251.501 134.5,252C 133.619,252.708 132.953,253.542 132.5,254.5C 130.958,253.699 129.292,253.366 127.5,253.5C 126.685,252.163 125.518,251.163 124,250.5C 123.51,249.207 123.343,247.873 123.5,246.5C 125.316,244.383 125.65,242.049 124.5,239.5C 126.386,238.935 128.053,237.935 129.5,236.5C 128.544,234.925 127.877,233.258 127.5,231.5C 129.508,229.732 131.674,228.066 134,226.5C 134.608,224.846 135.108,223.179 135.5,221.5C 137.527,221.662 139.527,221.495 141.5,221C 142.056,220.617 142.389,220.117 142.5,219.5 Z"/></g>
<g><path style="opacity:1" fill="#503224" d="M 248.5,219.5 C 252.093,224.362 255.427,229.362 258.5,234.5C 257.699,236.042 257.366,237.708 257.5,239.5C 256.5,239.5 255.5,239.5 254.5,239.5C 253.855,237.174 252.522,235.507 250.5,234.5C 246.648,233.356 242.648,233.356 238.5,234.5C 237.974,232.77 236.974,231.436 235.5,230.5C 240.102,227.238 244.435,223.572 248.5,219.5 Z"/></g>
<g><path style="opacity:1" fill="#8e8f95" d="M 115.5,222.5 C 117.924,222.192 120.257,222.526 122.5,223.5C 123.807,226.469 125.473,229.135 127.5,231.5C 127.877,233.258 128.544,234.925 129.5,236.5C 128.053,237.935 126.386,238.935 124.5,239.5C 123.5,239.5 122.5,239.5 121.5,239.5C 118.378,234.589 116.378,229.256 115.5,223.5C 115.5,223.167 115.5,222.833 115.5,222.5 Z"/></g>
<g><path style="opacity:1" fill="#6f513d" d="M 155.5,222.5 C 156.429,223.315 157.429,224.148 158.5,225C 156.992,227.592 154.992,228.092 152.5,226.5C 151.596,225.791 151.263,224.791 151.5,223.5C 152.568,222.566 153.901,222.232 155.5,222.5 Z"/></g>
<g><path style="opacity:1" fill="#6b4939" d="M 215.5,224.5 C 218.228,224.171 220.562,224.837 222.5,226.5C 221.421,228.543 219.754,229.876 217.5,230.5C 215.883,229.962 214.216,229.629 212.5,229.5C 211.5,228.167 210.5,226.833 209.5,225.5C 211.265,224.539 213.265,224.205 215.5,224.5 Z"/></g>
<g><path style="opacity:1" fill="#342e2e" d="M 276.5,226.5 C 276.5,233.167 276.5,239.833 276.5,246.5C 274.299,245.434 271.965,244.767 269.5,244.5C 266.484,243.657 263.817,242.157 261.5,240C 260.207,239.51 258.873,239.343 257.5,239.5C 257.366,237.708 257.699,236.042 258.5,234.5C 263.737,230.217 269.737,227.55 276.5,226.5 Z"/></g>
<g><path style="opacity:1" fill="#372928" d="M 115.5,223.5 C 116.378,229.256 118.378,234.589 121.5,239.5C 118.993,240.898 116.66,240.564 114.5,238.5C 112.572,236.219 111.572,233.553 111.5,230.5C 111.233,228.035 110.566,225.701 109.5,223.5C 111.549,222.359 113.549,222.359 115.5,223.5 Z"/></g>
<g><path style="opacity:1" fill="#a57655" d="M 150.5,223.5 C 150.833,223.5 151.167,223.5 151.5,223.5C 151.263,224.791 151.596,225.791 152.5,226.5C 151.602,228.905 150.102,230.905 148,232.5C 146.745,231.789 145.579,230.956 144.5,230C 146.586,227.795 148.586,225.628 150.5,223.5 Z"/></g>
<g><path style="opacity:1" fill="#a27f65" d="M 16.5,230.5 C 18.1667,231.833 19.8333,233.167 21.5,234.5C 22.7738,237.76 24.4405,240.76 26.5,243.5C 26.3398,245.199 26.5065,246.866 27,248.5C 30.0657,251.396 32.8991,254.396 35.5,257.5C 35.4552,262.212 33.1219,264.545 28.5,264.5C 26.2245,260.385 23.7245,256.385 21,252.5C 20.5034,250.19 20.3367,247.857 20.5,245.5C 19.5,245.5 18.5,245.5 17.5,245.5C 12.8954,242.704 7.89538,240.704 2.5,239.5C 2.5,236.833 2.5,234.167 2.5,231.5C 3.64073,229.771 5.3074,228.771 7.5,228.5C 10.4373,229.47 13.4373,230.137 16.5,230.5 Z"/></g>
<g><path style="opacity:1" fill="#63402f" d="M 235.5,230.5 C 236.974,231.436 237.974,232.77 238.5,234.5C 234.87,238.631 231.037,242.631 227,246.5C 226.517,247.448 226.351,248.448 226.5,249.5C 225.205,250.488 223.872,251.488 222.5,252.5C 221.211,251.499 219.878,251.666 218.5,253C 216.215,254.96 214.215,257.126 212.5,259.5C 215.086,260.48 217.753,260.813 220.5,260.5C 219.524,265.225 221.024,268.892 225,271.5C 226.036,273.299 226.203,274.966 225.5,276.5C 221.749,276.918 219.582,275.251 219,271.5C 215.801,268.871 212.801,269.204 210,272.5C 209.014,271.829 207.847,271.829 206.5,272.5C 205.692,270.7 206.192,269.033 208,267.5C 208.49,266.207 208.657,264.873 208.5,263.5C 210.086,260.784 209.753,258.45 207.5,256.5C 207.5,255.833 207.5,255.167 207.5,254.5C 216.539,246.126 225.872,238.126 235.5,230.5 Z"/></g>
<g><path style="opacity:1" fill="#8c644b" d="M 45.5,227.5 C 47.7451,230.32 49.7451,233.32 51.5,236.5C 47.7627,236.505 44.4294,237.505 41.5,239.5C 35.3755,239.292 34.8755,240.959 40,244.5C 40.4828,245.448 40.6495,246.448 40.5,247.5C 39.1667,247.5 37.8333,247.5 36.5,247.5C 34.4286,246.109 32.7619,244.276 31.5,242C 29.4652,241.401 27.7985,241.901 26.5,243.5C 24.4405,240.76 22.7738,237.76 21.5,234.5C 22.7725,233.566 24.2725,232.899 26,232.5C 28.5149,233.872 31.1816,234.872 34,235.5C 34.4828,234.552 34.6495,233.552 34.5,232.5C 38.8124,232.176 42.479,230.509 45.5,227.5 Z"/></g>
<g><path style="opacity:1" fill="#946b4e" d="M 212.5,229.5 C 214.216,229.629 215.883,229.962 217.5,230.5C 216.772,232.735 215.439,234.568 213.5,236C 210.55,238.639 207.217,240.473 203.5,241.5C 203.5,240.5 203.5,239.5 203.5,238.5C 203.884,234.302 206.218,232.468 210.5,233C 211.085,231.698 211.751,230.531 212.5,229.5 Z"/></g>
<g><path style="opacity:1" fill="#8f8887" d="M 75.5,234.5 C 78.93,236.573 82.5967,238.24 86.5,239.5C 86.5,240.167 86.8333,240.5 87.5,240.5C 87.3505,241.552 87.5172,242.552 88,243.5C 90.1019,245.095 91.6019,247.095 92.5,249.5C 91.5084,249.328 90.8417,249.662 90.5,250.5C 87.2558,249.537 84.2558,248.204 81.5,246.5C 79.2133,242.878 76.5466,239.545 73.5,236.5C 73.8333,235.5 74.5,234.833 75.5,234.5 Z"/></g>
<g><path style="opacity:1" fill="#a97d57" d="M 250.5,234.5 C 249.445,236.957 247.612,238.623 245,239.5C 244.235,241.066 244.402,242.399 245.5,243.5C 242.628,244.325 239.628,245.159 236.5,246C 235.934,246.995 235.267,247.828 234.5,248.5C 231.794,248.575 229.127,248.908 226.5,249.5C 226.351,248.448 226.517,247.448 227,246.5C 231.037,242.631 234.87,238.631 238.5,234.5C 242.648,233.356 246.648,233.356 250.5,234.5 Z"/></g>
<g><path style="opacity:1" fill="#815b47" d="M 250.5,234.5 C 252.522,235.507 253.855,237.174 254.5,239.5C 251.82,241.273 248.82,242.607 245.5,243.5C 244.402,242.399 244.235,241.066 245,239.5C 247.612,238.623 249.445,236.957 250.5,234.5 Z"/></g>
<g><path style="opacity:1" fill="#a67659" d="M 51.5,236.5 C 56.7842,240.5 62.7842,243 69.5,244C 70.056,244.383 70.3893,244.883 70.5,245.5C 67.46,246.734 66.1267,249.068 66.5,252.5C 64.1432,252.337 61.8098,252.503 59.5,253C 57.5435,254.907 55.2102,256.074 52.5,256.5C 50.5,255.833 48.5,255.167 46.5,254.5C 46.1075,252.716 45.4408,251.05 44.5,249.5C 44.33,248.178 44.6634,247.011 45.5,246C 43.9415,243.948 42.6082,241.781 41.5,239.5C 44.4294,237.505 47.7627,236.505 51.5,236.5 Z"/></g>
<g><path style="opacity:1" fill="#c0895c" d="M 114.5,238.5 C 116.66,240.564 118.993,240.898 121.5,239.5C 122.5,239.5 123.5,239.5 124.5,239.5C 125.65,242.049 125.316,244.383 123.5,246.5C 120.923,246.455 118.923,247.455 117.5,249.5C 115.801,247.984 113.801,246.984 111.5,246.5C 109.583,246.754 108.249,247.754 107.5,249.5C 105.219,251.428 102.553,252.428 99.5,252.5C 97.0462,251.773 94.7128,250.773 92.5,249.5C 91.6019,247.095 90.1019,245.095 88,243.5C 87.5172,242.552 87.3505,241.552 87.5,240.5C 93.9897,238.883 100.656,237.55 107.5,236.5C 109.642,237.601 111.808,238.601 114,239.5C 114.399,239.272 114.565,238.938 114.5,238.5 Z"/></g>
<g><path style="opacity:1" fill="#0e0707" d="M -0.5,230.5 C 0.391047,231.11 1.39105,231.443 2.5,231.5C 2.5,234.167 2.5,236.833 2.5,239.5C 2.5,242.5 2.5,245.5 2.5,248.5C 2.5,254.167 2.5,259.833 2.5,265.5C 2.5,268.167 2.5,270.833 2.5,273.5C 2.5,277.167 2.5,280.833 2.5,284.5C 1.5,285.167 0.5,285.833 -0.5,286.5C -0.5,267.833 -0.5,249.167 -0.5,230.5 Z"/></g>
<g><path style="opacity:1" fill="#565150" d="M 2.5,239.5 C 7.89538,240.704 12.8954,242.704 17.5,245.5C 13.5257,252.028 8.52574,253.028 2.5,248.5C 2.5,245.5 2.5,242.5 2.5,239.5 Z"/></g>
<g><path style="opacity:1" fill="#7c5c48" d="M 163.5,238.5 C 166.513,238.72 168.847,240.053 170.5,242.5C 163.477,244.279 156.477,244.446 149.5,243C 148.663,241.989 148.33,240.822 148.5,239.5C 151.867,239.457 155.201,239.79 158.5,240.5C 160.557,240.564 162.223,239.898 163.5,238.5 Z"/></g>
<g><path style="opacity:1" fill="#a78875" d="M 254.5,239.5 C 255.5,239.5 256.5,239.5 257.5,239.5C 258.873,239.343 260.207,239.51 261.5,240C 263.817,242.157 266.484,243.657 269.5,244.5C 270.323,246.455 270.49,248.455 270,250.5C 263.945,252.722 260.778,257.055 260.5,263.5C 255.187,264.068 250.187,263.235 245.5,261C 241.997,256.665 238.33,252.499 234.5,248.5C 235.267,247.828 235.934,246.995 236.5,246C 239.628,245.159 242.628,244.325 245.5,243.5C 248.82,242.607 251.82,241.273 254.5,239.5 Z"/></g>
<g><path style="opacity:1" fill="#654f45" d="M 41.5,239.5 C 42.6082,241.781 43.9415,243.948 45.5,246C 44.6634,247.011 44.33,248.178 44.5,249.5C 43.0222,249.238 41.6888,249.571 40.5,250.5C 38.6416,254.29 36.975,254.29 35.5,250.5C 36.1272,249.583 36.4606,248.583 36.5,247.5C 37.8333,247.5 39.1667,247.5 40.5,247.5C 40.6495,246.448 40.4828,245.448 40,244.5C 34.8755,240.959 35.3755,239.292 41.5,239.5 Z"/></g>
<g><path style="opacity:1" fill="#363030" d="M 17.5,245.5 C 18.5,245.5 19.5,245.5 20.5,245.5C 20.3367,247.857 20.5034,250.19 21,252.5C 23.7245,256.385 26.2245,260.385 28.5,264.5C 28.5,265.167 28.5,265.833 28.5,266.5C 25.4486,266.364 22.4486,266.698 19.5,267.5C 17.5526,265.283 15.386,263.283 13,261.5C 11.3566,262.315 9.85659,263.315 8.5,264.5C 6.3792,264.325 4.3792,264.659 2.5,265.5C 2.5,259.833 2.5,254.167 2.5,248.5C 8.52574,253.028 13.5257,252.028 17.5,245.5 Z"/></g>
<g><path style="opacity:1" fill="#b29880" d="M 70.5,245.5 C 74.0991,246.344 77.7657,246.677 81.5,246.5C 84.2558,248.204 87.2558,249.537 90.5,250.5C 91.4194,253.089 93.086,255.089 95.5,256.5C 95.9443,258.113 96.9443,259.28 98.5,260C 102.152,260.499 105.818,260.665 109.5,260.5C 109.5,261.5 109.5,262.5 109.5,263.5C 113.947,263.825 118.28,264.658 122.5,266C 124.562,267.532 125.896,269.532 126.5,272C 125.906,272.464 125.239,272.631 124.5,272.5C 122.843,271.425 121.009,270.758 119,270.5C 116.081,272.072 112.915,272.739 109.5,272.5C 106.052,268.559 101.885,265.559 97,263.5C 94.7765,265.054 92.2765,266.054 89.5,266.5C 88.5748,267.357 87.9081,268.357 87.5,269.5C 84.213,268.736 81.5463,266.903 79.5,264C 76.4349,263.632 73.7682,262.465 71.5,260.5C 69.8333,257.833 68.1667,255.167 66.5,252.5C 66.1267,249.068 67.46,246.734 70.5,245.5 Z"/></g>
<g><path style="opacity:1" fill="#563831" d="M 117.5,249.5 C 117.5,250.5 117.5,251.5 117.5,252.5C 115.143,252.663 112.81,252.497 110.5,252C 108.881,251.764 107.881,250.931 107.5,249.5C 108.249,247.754 109.583,246.754 111.5,246.5C 113.801,246.984 115.801,247.984 117.5,249.5 Z"/></g>
<g><path style="opacity:1" fill="#6f7675" d="M 196.5,248.5 C 200.327,250.246 203.993,252.246 207.5,254.5C 207.5,255.167 207.5,255.833 207.5,256.5C 205.184,257.806 202.85,259.139 200.5,260.5C 196.5,258.5 193.5,255.5 191.5,251.5C 192.401,249.273 194.067,248.273 196.5,248.5 Z"/></g>
<g><path style="opacity:1" fill="#423532" d="M 36.5,247.5 C 36.4606,248.583 36.1272,249.583 35.5,250.5C 36.975,254.29 38.6416,254.29 40.5,250.5C 41.6888,249.571 43.0222,249.238 44.5,249.5C 45.4408,251.05 46.1075,252.716 46.5,254.5C 46.5,255.5 46.5,256.5 46.5,257.5C 43.7212,257.279 41.0545,257.612 38.5,258.5C 37.791,257.596 36.791,257.263 35.5,257.5C 32.8991,254.396 30.0657,251.396 27,248.5C 26.5065,246.866 26.3398,245.199 26.5,243.5C 27.7985,241.901 29.4652,241.401 31.5,242C 32.7619,244.276 34.4286,246.109 36.5,247.5 Z"/></g>
<g><path style="opacity:1" fill="#75574a" d="M 92.5,249.5 C 94.7128,250.773 97.0462,251.773 99.5,252.5C 99.4754,255.179 98.142,256.512 95.5,256.5C 93.086,255.089 91.4194,253.089 90.5,250.5C 90.8417,249.662 91.5084,249.328 92.5,249.5 Z"/></g>
<g><path style="opacity:1" fill="#ae7d58" d="M 123.5,246.5 C 123.343,247.873 123.51,249.207 124,250.5C 125.518,251.163 126.685,252.163 127.5,253.5C 126.699,255.042 126.366,256.708 126.5,258.5C 123.921,259.604 121.421,259.271 119,257.5C 115.979,259.007 112.812,260.007 109.5,260.5C 105.818,260.665 102.152,260.499 98.5,260C 96.9443,259.28 95.9443,258.113 95.5,256.5C 98.142,256.512 99.4754,255.179 99.5,252.5C 102.553,252.428 105.219,251.428 107.5,249.5C 107.881,250.931 108.881,251.764 110.5,252C 112.81,252.497 115.143,252.663 117.5,252.5C 117.5,251.5 117.5,250.5 117.5,249.5C 118.923,247.455 120.923,246.455 123.5,246.5 Z"/></g>
<g><path style="opacity:1" fill="#ba967c" d="M 146.5,256.5 C 141.6,256.967 136.933,256.301 132.5,254.5C 132.953,253.542 133.619,252.708 134.5,252C 138.486,251.501 142.486,251.334 146.5,251.5C 146.5,253.167 146.5,254.833 146.5,256.5 Z"/></g>
<g><path style="opacity:1" fill="#b48963" d="M 222.5,252.5 C 222.717,255.421 222.051,258.087 220.5,260.5C 217.753,260.813 215.086,260.48 212.5,259.5C 214.215,257.126 216.215,254.96 218.5,253C 219.878,251.666 221.211,251.499 222.5,252.5 Z"/></g>
<g><path style="opacity:1" fill="#3a3232" d="M 66.5,252.5 C 68.1667,255.167 69.8333,257.833 71.5,260.5C 70.1634,262.349 69.4967,264.516 69.5,267C 70.2265,269.907 71.2265,272.74 72.5,275.5C 69.9742,276.076 67.4742,276.41 65,276.5C 57.8945,275.035 50.7279,273.868 43.5,273C 42.0577,272.623 41.0577,271.79 40.5,270.5C 41.5294,268.483 42.5294,266.483 43.5,264.5C 44.552,264.649 45.552,264.483 46.5,264C 47.3636,262.303 48.6969,261.137 50.5,260.5C 51.7051,259.423 52.3718,258.09 52.5,256.5C 55.2102,256.074 57.5435,254.907 59.5,253C 61.8098,252.503 64.1432,252.337 66.5,252.5 Z"/></g>
<g><path style="opacity:1" fill="#886f63" d="M 269.5,244.5 C 271.965,244.767 274.299,245.434 276.5,246.5C 276.5,250.5 276.5,254.5 276.5,258.5C 274.095,259.398 272.095,260.898 270.5,263C 267.183,263.498 263.85,263.665 260.5,263.5C 260.778,257.055 263.945,252.722 270,250.5C 270.49,248.455 270.323,246.455 269.5,244.5 Z"/></g>
<g><path style="opacity:1" fill="#5c6369" d="M 191.5,251.5 C 193.5,255.5 196.5,258.5 200.5,260.5C 195.613,265.891 190.446,271.224 185,276.5C 184.51,277.793 184.343,279.127 184.5,280.5C 183.22,281.931 181.553,282.598 179.5,282.5C 175.334,279.583 171.001,276.916 166.5,274.5C 166.5,274.167 166.5,273.833 166.5,273.5C 167.203,271.284 168.536,269.451 170.5,268C 177.418,262.231 184.418,256.731 191.5,251.5 Z"/></g>
<g><path style="opacity:1" fill="#654c3f" d="M 127.5,253.5 C 129.292,253.366 130.958,253.699 132.5,254.5C 136.933,256.301 141.6,256.967 146.5,256.5C 146.5,257.833 146.5,259.167 146.5,260.5C 139.717,260.799 133.051,260.133 126.5,258.5C 126.366,256.708 126.699,255.042 127.5,253.5 Z"/></g>
<g><path style="opacity:1" fill="#3e3d42" d="M 207.5,256.5 C 209.753,258.45 210.086,260.784 208.5,263.5C 203.634,264.857 200.801,267.857 200,272.5C 200.383,273.056 200.883,273.389 201.5,273.5C 196.445,277.821 190.778,280.154 184.5,280.5C 184.343,279.127 184.51,277.793 185,276.5C 190.446,271.224 195.613,265.891 200.5,260.5C 202.85,259.139 205.184,257.806 207.5,256.5 Z"/></g>
<g><path style="opacity:1" fill="#564741" d="M 35.5,257.5 C 36.791,257.263 37.791,257.596 38.5,258.5C 39.4735,261.135 41.1402,263.135 43.5,264.5C 42.5294,266.483 41.5294,268.483 40.5,270.5C 36.8815,269.756 33.2148,269.423 29.5,269.5C 28.8902,268.609 28.5569,267.609 28.5,266.5C 28.5,265.833 28.5,265.167 28.5,264.5C 33.1219,264.545 35.4552,262.212 35.5,257.5 Z"/></g>
<g><path style="opacity:1" fill="#796053" d="M 46.5,254.5 C 48.5,255.167 50.5,255.833 52.5,256.5C 52.3718,258.09 51.7051,259.423 50.5,260.5C 48.6969,261.137 47.3636,262.303 46.5,264C 45.552,264.483 44.552,264.649 43.5,264.5C 41.1402,263.135 39.4735,261.135 38.5,258.5C 41.0545,257.612 43.7212,257.279 46.5,257.5C 46.5,256.5 46.5,255.5 46.5,254.5 Z"/></g>
<g><path style="opacity:1" fill="#392d2d" d="M 234.5,248.5 C 238.33,252.499 241.997,256.665 245.5,261C 250.187,263.235 255.187,264.068 260.5,263.5C 263.85,263.665 267.183,263.498 270.5,263C 272.095,260.898 274.095,259.398 276.5,258.5C 276.5,265.833 276.5,273.167 276.5,280.5C 264.174,279.955 251.84,279.622 239.5,279.5C 239.011,278.005 238.345,276.671 237.5,275.5C 237.833,271.167 235.833,269.167 231.5,269.5C 227.957,269.128 225.79,267.128 225,263.5C 223.385,262.614 221.885,261.614 220.5,260.5C 222.051,258.087 222.717,255.421 222.5,252.5C 223.872,251.488 225.205,250.488 226.5,249.5C 229.127,248.908 231.794,248.575 234.5,248.5 Z"/></g>
<g><path style="opacity:1" fill="#584543" d="M 71.5,260.5 C 73.7682,262.465 76.4349,263.632 79.5,264C 81.5463,266.903 84.213,268.736 87.5,269.5C 86.1667,271.167 86.1667,272.833 87.5,274.5C 86.391,274.557 85.391,274.89 84.5,275.5C 80.6566,275.162 76.6566,275.162 72.5,275.5C 71.2265,272.74 70.2265,269.907 69.5,267C 69.4967,264.516 70.1634,262.349 71.5,260.5 Z"/></g>
<g><path style="opacity:1" fill="#43322a" d="M 208.5,263.5 C 208.657,264.873 208.49,266.207 208,267.5C 206.192,269.033 205.692,270.7 206.5,272.5C 204.883,273.038 203.216,273.371 201.5,273.5C 200.883,273.389 200.383,273.056 200,272.5C 200.801,267.857 203.634,264.857 208.5,263.5 Z"/></g>
<g><path style="opacity:1" fill="#a1836f" d="M 8.5,264.5 C 11.3679,266.52 14.5346,268.186 18,269.5C 19.3116,272.248 19.8116,274.915 19.5,277.5C 19.5,278.5 19.5,279.5 19.5,280.5C 13.2726,279.554 7.60592,277.22 2.5,273.5C 2.5,270.833 2.5,268.167 2.5,265.5C 4.3792,264.659 6.3792,264.325 8.5,264.5 Z"/></g>
<g><path style="opacity:1" fill="#3b2f2d" d="M 109.5,272.5 C 108.599,273.29 107.932,274.29 107.5,275.5C 100.78,274.852 94.1131,274.519 87.5,274.5C 86.1667,272.833 86.1667,271.167 87.5,269.5C 87.9081,268.357 88.5748,267.357 89.5,266.5C 92.2765,266.054 94.7765,265.054 97,263.5C 101.885,265.559 106.052,268.559 109.5,272.5 Z"/></g>
<g><path style="opacity:1" fill="#7b5f52" d="M 28.5,266.5 C 28.5569,267.609 28.8902,268.609 29.5,269.5C 28.8333,271.167 28.1667,272.833 27.5,274.5C 24.8284,275.501 22.1618,276.501 19.5,277.5C 19.8116,274.915 19.3116,272.248 18,269.5C 14.5346,268.186 11.3679,266.52 8.5,264.5C 9.85659,263.315 11.3566,262.315 13,261.5C 15.386,263.283 17.5526,265.283 19.5,267.5C 22.4486,266.698 25.4486,266.364 28.5,266.5 Z"/></g>
<g><path style="opacity:1" fill="#755743" d="M 231.5,269.5 C 235.833,269.167 237.833,271.167 237.5,275.5C 233.833,275.167 231.833,273.167 231.5,269.5 Z"/></g>
<g><path style="opacity:1" fill="#775a49" d="M 124.5,272.5 C 124.5,273.5 124.5,274.5 124.5,275.5C 118.653,275.669 112.986,275.669 107.5,275.5C 107.932,274.29 108.599,273.29 109.5,272.5C 112.915,272.739 116.081,272.072 119,270.5C 121.009,270.758 122.843,271.425 124.5,272.5 Z"/></g>
<g><path style="opacity:1" fill="#c18a60" d="M 225.5,276.5 C 228.984,280.132 233.317,281.465 238.5,280.5C 239.019,285.242 239.019,289.908 238.5,294.5C 235.284,294.345 232.617,295.345 230.5,297.5C 226.861,298.627 223.194,299.627 219.5,300.5C 213.449,299.821 207.449,299.821 201.5,300.5C 200.417,301.365 200.251,302.365 201,303.5C 203.52,304.207 206.02,305.04 208.5,306C 210.037,307.11 210.703,308.61 210.5,310.5C 202.184,309.815 193.851,309.482 185.5,309.5C 184.699,307.958 184.366,306.292 184.5,304.5C 180.036,303.909 176.369,305.242 173.5,308.5C 159.912,309.481 146.246,309.815 132.5,309.5C 131.167,306.5 131.167,303.5 132.5,300.5C 135.327,300.416 137.994,299.75 140.5,298.5C 140.611,299.117 140.944,299.617 141.5,300C 146.045,300.775 150.378,301.275 154.5,301.5C 155.496,302.665 156.829,303.332 158.5,303.5C 161.449,302.698 164.449,302.364 167.5,302.5C 166.457,298.486 163.791,296.82 159.5,297.5C 160.641,295.549 160.641,293.549 159.5,291.5C 159.703,289.956 160.37,288.622 161.5,287.5C 161.167,286.833 160.833,286.167 160.5,285.5C 156.219,285.08 151.885,284.913 147.5,285C 146.167,283.333 146.167,281.667 147.5,280C 151.422,279.526 155.088,278.359 158.5,276.5C 159.931,280.723 162.931,282.723 167.5,282.5C 169.895,283.766 172.562,284.432 175.5,284.5C 177.333,284.415 178.666,283.748 179.5,282.5C 181.553,282.598 183.22,281.931 184.5,280.5C 190.778,280.154 196.445,277.821 201.5,273.5C 203.216,273.371 204.883,273.038 206.5,272.5C 207.847,271.829 209.014,271.829 210,272.5C 212.801,269.204 215.801,268.871 219,271.5C 219.582,275.251 221.749,276.918 225.5,276.5 Z"/></g>
<g><path style="opacity:1" fill="#4c352f" d="M 220.5,260.5 C 221.885,261.614 223.385,262.614 225,263.5C 225.79,267.128 227.957,269.128 231.5,269.5C 231.833,273.167 233.833,275.167 237.5,275.5C 238.345,276.671 239.011,278.005 239.5,279.5C 239.5,280.167 239.167,280.5 238.5,280.5C 233.317,281.465 228.984,280.132 225.5,276.5C 226.203,274.966 226.036,273.299 225,271.5C 221.024,268.892 219.524,265.225 220.5,260.5 Z"/></g>
<g><path style="opacity:1" fill="#7c5131" d="M 166.5,273.5 C 166.5,273.833 166.5,274.167 166.5,274.5C 165.861,275.097 165.528,275.93 165.5,277C 165.954,278.939 166.621,280.772 167.5,282.5C 162.931,282.723 159.931,280.723 158.5,276.5C 160.719,274.394 163.385,273.394 166.5,273.5 Z"/></g>
<g><path style="opacity:1" fill="#412e2b" d="M 2.5,273.5 C 7.60592,277.22 13.2726,279.554 19.5,280.5C 19.5,279.5 19.5,278.5 19.5,277.5C 22.1618,276.501 24.8284,275.501 27.5,274.5C 28.9131,277.661 30.5797,280.661 32.5,283.5C 30.8333,284.833 29.1667,286.167 27.5,287.5C 19.3159,285.435 10.9826,284.435 2.5,284.5C 2.5,280.833 2.5,277.167 2.5,273.5 Z"/></g>
<g><path style="opacity:1" fill="#a87859" d="M 29.5,269.5 C 33.2148,269.423 36.8815,269.756 40.5,270.5C 41.0577,271.79 42.0577,272.623 43.5,273C 50.7279,273.868 57.8945,275.035 65,276.5C 67.4742,276.41 69.9742,276.076 72.5,275.5C 76.6566,275.162 80.6566,275.162 84.5,275.5C 81.9964,279.731 81.9964,284.064 84.5,288.5C 81.7531,288.187 79.0865,288.52 76.5,289.5C 75.8728,290.417 75.5394,291.417 75.5,292.5C 74.0413,292.433 72.7079,292.766 71.5,293.5C 70.145,290.482 67.8116,289.149 64.5,289.5C 64.5858,288.504 64.2524,287.671 63.5,287C 59.5256,284.341 55.1923,282.841 50.5,282.5C 47.592,281.431 44.592,281.264 41.5,282C 39.563,282.122 38.2297,282.955 37.5,284.5C 35.7085,284.634 34.0418,284.301 32.5,283.5C 30.5797,280.661 28.9131,277.661 27.5,274.5C 28.1667,272.833 28.8333,271.167 29.5,269.5 Z"/></g>
<g><path style="opacity:1" fill="#503831" d="M 166.5,274.5 C 171.001,276.916 175.334,279.583 179.5,282.5C 178.666,283.748 177.333,284.415 175.5,284.5C 172.562,284.432 169.895,283.766 167.5,282.5C 166.621,280.772 165.954,278.939 165.5,277C 165.528,275.93 165.861,275.097 166.5,274.5 Z"/></g>
<g><path style="opacity:1" fill="#b88661" d="M 239.5,279.5 C 251.84,279.622 264.174,279.955 276.5,280.5C 276.5,283.167 276.5,285.833 276.5,288.5C 273.15,288.335 269.817,288.502 266.5,289C 264.859,290.129 263.859,291.629 263.5,293.5C 262.508,293.328 261.842,293.662 261.5,294.5C 259.046,296.06 256.38,297.06 253.5,297.5C 253.047,296.542 252.381,295.708 251.5,295C 247.179,294.501 242.846,294.334 238.5,294.5C 239.019,289.908 239.019,285.242 238.5,280.5C 239.167,280.5 239.5,280.167 239.5,279.5 Z"/></g>
<g><path style="opacity:1" fill="#7c6450" d="M 50.5,282.5 C 50.5,284.5 50.5,286.5 50.5,288.5C 47.8589,289.263 45.1922,289.43 42.5,289C 40.9625,287.293 39.2959,285.793 37.5,284.5C 38.2297,282.955 39.563,282.122 41.5,282C 44.592,281.264 47.592,281.431 50.5,282.5 Z"/></g>
<g><path style="opacity:1" fill="#8e7d75" d="M 50.5,282.5 C 55.1923,282.841 59.5256,284.341 63.5,287C 64.2524,287.671 64.5858,288.504 64.5,289.5C 62.5375,294.072 59.5375,294.739 55.5,291.5C 53.6675,290.752 52.0009,289.752 50.5,288.5C 50.5,286.5 50.5,284.5 50.5,282.5 Z"/></g>
<g><path style="opacity:1" fill="#956a50" d="M 211.5,282.5 C 214.364,282.064 216.697,282.897 218.5,285C 216.386,286.518 214.053,286.851 211.5,286C 210.316,284.855 210.316,283.688 211.5,282.5 Z"/></g>
<g><path style="opacity:1" fill="#ae8363" d="M 2.5,284.5 C 10.9826,284.435 19.3159,285.435 27.5,287.5C 27.5,287.833 27.5,288.167 27.5,288.5C 25.6418,290.883 24.3084,293.55 23.5,296.5C 16.1941,300.716 9.19412,300.049 2.5,294.5C 1.5,293.833 0.5,293.167 -0.5,292.5C -0.5,290.5 -0.5,288.5 -0.5,286.5C 0.5,285.833 1.5,285.167 2.5,284.5 Z"/></g>
<g><path style="opacity:1" fill="#5c4b3d" d="M 117.5,285.5 C 121.342,285.023 124.342,286.356 126.5,289.5C 125.562,290.553 124.395,291.22 123,291.5C 120.865,290.873 118.698,290.373 116.5,290C 115.419,288.289 115.752,286.789 117.5,285.5 Z"/></g>
<g><path style="opacity:1" fill="#966b54" d="M 27.5,288.5 C 29.5214,291.7 32.5214,293.534 36.5,294C 42.4403,295.451 48.4403,295.617 54.5,294.5C 55.1667,295.833 55.8333,297.167 56.5,298.5C 55.8333,298.833 55.1667,299.167 54.5,299.5C 50.924,302.447 47.5907,305.613 44.5,309C 37.4711,309.238 30.4711,309.738 23.5,310.5C 21.8295,310.332 20.4961,309.665 19.5,308.5C 20.2674,307.828 20.9341,306.995 21.5,306C 24.6237,305.521 27.4571,304.354 30,302.5C 30.6838,301.216 30.5171,300.049 29.5,299C 27.7834,297.441 25.7834,296.608 23.5,296.5C 24.3084,293.55 25.6418,290.883 27.5,288.5 Z"/></g>
<g><path style="opacity:1" fill="#553c33" d="M 32.5,283.5 C 34.0418,284.301 35.7085,284.634 37.5,284.5C 39.2959,285.793 40.9625,287.293 42.5,289C 45.1922,289.43 47.8589,289.263 50.5,288.5C 52.0009,289.752 53.6675,290.752 55.5,291.5C 54.8902,292.391 54.5569,293.391 54.5,294.5C 48.4403,295.617 42.4403,295.451 36.5,294C 32.5214,293.534 29.5214,291.7 27.5,288.5C 27.5,288.167 27.5,287.833 27.5,287.5C 29.1667,286.167 30.8333,284.833 32.5,283.5 Z"/></g>
<g><path style="opacity:1" fill="#856855" d="M 84.5,288.5 C 86.153,288.66 87.4863,289.326 88.5,290.5C 86.6889,293.444 84.8556,296.444 83,299.5C 82.5403,302.962 83.0403,306.296 84.5,309.5C 82.3792,309.675 80.3792,309.341 78.5,308.5C 77.7106,307.085 77.0439,305.585 76.5,304C 80.637,299.732 80.3036,295.899 75.5,292.5C 75.5394,291.417 75.8728,290.417 76.5,289.5C 79.0865,288.52 81.7531,288.187 84.5,288.5 Z"/></g>
<g><path style="opacity:1" fill="#7c6a5c" d="M 276.5,288.5 C 276.5,290.833 276.5,293.167 276.5,295.5C 275.417,295.539 274.417,295.873 273.5,296.5C 270.023,295.744 266.69,294.744 263.5,293.5C 263.859,291.629 264.859,290.129 266.5,289C 269.817,288.502 273.15,288.335 276.5,288.5 Z"/></g>
<g><path style="opacity:1" fill="#a17d63" d="M 88.5,290.5 C 90.2624,290.357 91.9291,290.691 93.5,291.5C 94.8545,293.521 96.5212,295.188 98.5,296.5C 97.2702,298.297 96.6036,300.297 96.5,302.5C 93.6806,304.419 91.014,306.585 88.5,309C 87.2068,309.49 85.8734,309.657 84.5,309.5C 83.0403,306.296 82.5403,302.962 83,299.5C 84.8556,296.444 86.6889,293.444 88.5,290.5 Z"/></g>
<g><path style="opacity:1" fill="#a78f75" d="M 159.5,291.5 C 160.641,293.549 160.641,295.549 159.5,297.5C 158.167,297.167 156.833,296.833 155.5,296.5C 154.127,296.657 152.793,296.49 151.5,296C 150.295,294.624 148.962,293.458 147.5,292.5C 147.611,291.883 147.944,291.383 148.5,291C 152.203,290.421 155.869,290.588 159.5,291.5 Z"/></g>
<g><path style="opacity:1" fill="#6d5546" d="M 64.5,289.5 C 67.8116,289.149 70.145,290.482 71.5,293.5C 66.5169,294.897 61.5169,296.563 56.5,298.5C 55.8333,297.167 55.1667,295.833 54.5,294.5C 54.5569,293.391 54.8902,292.391 55.5,291.5C 59.5375,294.739 62.5375,294.072 64.5,289.5 Z"/></g>
<g><path style="opacity:1" fill="#050605" d="M -0.5,292.5 C 0.5,293.167 1.5,293.833 2.5,294.5C 2.5,297.833 2.5,301.167 2.5,304.5C 2.29803,306.95 2.63137,309.283 3.5,311.5C 2.16667,311.5 0.833333,311.5 -0.5,311.5C -0.5,305.167 -0.5,298.833 -0.5,292.5 Z"/></g>
<g><path style="opacity:1" fill="#4a3e37" d="M 75.5,292.5 C 80.3036,295.899 80.637,299.732 76.5,304C 77.0439,305.585 77.7106,307.085 78.5,308.5C 67.965,311.772 59.965,308.772 54.5,299.5C 55.1667,299.167 55.8333,298.833 56.5,298.5C 61.5169,296.563 66.5169,294.897 71.5,293.5C 72.7079,292.766 74.0413,292.433 75.5,292.5 Z"/></g>
<g><path style="opacity:1" fill="#4a3831" d="M 147.5,292.5 C 148.962,293.458 150.295,294.624 151.5,296C 152.793,296.49 154.127,296.657 155.5,296.5C 155.634,298.292 155.301,299.958 154.5,301.5C 150.378,301.275 146.045,300.775 141.5,300C 140.944,299.617 140.611,299.117 140.5,298.5C 141.612,295.054 143.945,293.054 147.5,292.5 Z"/></g>
<g><path style="opacity:1" fill="#433231" d="M 263.5,293.5 C 266.69,294.744 270.023,295.744 273.5,296.5C 274.417,295.873 275.417,295.539 276.5,295.5C 276.5,299.167 276.5,302.833 276.5,306.5C 272.698,307.12 269.365,306.286 266.5,304C 265.207,303.51 263.873,303.343 262.5,303.5C 262.632,300.43 262.299,297.43 261.5,294.5C 261.842,293.662 262.508,293.328 263.5,293.5 Z"/></g>
<g><path style="opacity:1" fill="#4d342f" d="M 2.5,294.5 C 9.19412,300.049 16.1941,300.716 23.5,296.5C 25.7834,296.608 27.7834,297.441 29.5,299C 30.5171,300.049 30.6838,301.216 30,302.5C 27.4571,304.354 24.6237,305.521 21.5,306C 20.9341,306.995 20.2674,307.828 19.5,308.5C 18.5178,309.141 17.5178,309.807 16.5,310.5C 13.557,309.756 10.557,309.256 7.5,309C 6.07619,307.184 4.40953,305.684 2.5,304.5C 2.5,301.167 2.5,297.833 2.5,294.5 Z"/></g>
<g><path style="opacity:1" fill="#9b8375" d="M 238.5,294.5 C 242.846,294.334 247.179,294.501 251.5,295C 252.381,295.708 253.047,296.542 253.5,297.5C 247.941,300.289 241.941,301.622 235.5,301.5C 234.421,299.457 232.754,298.124 230.5,297.5C 232.617,295.345 235.284,294.345 238.5,294.5 Z"/></g>
<g><path style="opacity:1" fill="#966c4f" d="M 98.5,296.5 C 101.998,295.955 104.998,296.788 107.5,299C 112.167,299.333 116.833,299.667 121.5,300C 123.329,300.273 124.829,301.107 126,302.5C 127.897,300.984 130.064,300.317 132.5,300.5C 131.167,303.5 131.167,306.5 132.5,309.5C 121.936,310.041 111.269,310.041 100.5,309.5C 100.662,307.473 100.495,305.473 100,303.5C 98.9887,302.663 97.8221,302.33 96.5,302.5C 96.6036,300.297 97.2702,298.297 98.5,296.5 Z"/></g>
<g><path style="opacity:1" fill="#845d4b" d="M 155.5,296.5 C 156.833,296.833 158.167,297.167 159.5,297.5C 163.791,296.82 166.457,298.486 167.5,302.5C 164.449,302.364 161.449,302.698 158.5,303.5C 156.829,303.332 155.496,302.665 154.5,301.5C 155.301,299.958 155.634,298.292 155.5,296.5 Z"/></g>
<g><path style="opacity:1" fill="#463332" d="M 230.5,297.5 C 232.754,298.124 234.421,299.457 235.5,301.5C 235.5,302.833 235.5,304.167 235.5,305.5C 230.42,305.75 225.42,305.25 220.5,304C 219.663,302.989 219.33,301.822 219.5,300.5C 223.194,299.627 226.861,298.627 230.5,297.5 Z"/></g>
<g><path style="opacity:1" fill="#62453a" d="M 261.5,294.5 C 262.299,297.43 262.632,300.43 262.5,303.5C 263.873,303.343 265.207,303.51 266.5,304C 269.365,306.286 272.698,307.12 276.5,306.5C 276.5,307.5 276.5,308.5 276.5,309.5C 271.482,309.387 266.482,309.053 261.5,308.5C 261.5,307.167 261.5,305.833 261.5,304.5C 259.512,304.173 257.512,303.84 255.5,303.5C 248.878,304.661 242.211,305.328 235.5,305.5C 235.5,304.167 235.5,302.833 235.5,301.5C 241.941,301.622 247.941,300.289 253.5,297.5C 256.38,297.06 259.046,296.06 261.5,294.5 Z"/></g>
<g><path style="opacity:1" fill="#352c2b" d="M 54.5,299.5 C 59.965,308.772 67.965,311.772 78.5,308.5C 80.3792,309.341 82.3792,309.675 84.5,309.5C 85.8734,309.657 87.2068,309.49 88.5,309C 91.014,306.585 93.6806,304.419 96.5,302.5C 97.8221,302.33 98.9887,302.663 100,303.5C 100.495,305.473 100.662,307.473 100.5,309.5C 100.5,310.167 100.5,310.833 100.5,311.5C 68.1667,311.5 35.8333,311.5 3.5,311.5C 2.63137,309.283 2.29803,306.95 2.5,304.5C 4.40953,305.684 6.07619,307.184 7.5,309C 10.557,309.256 13.557,309.756 16.5,310.5C 17.5178,309.807 18.5178,309.141 19.5,308.5C 20.4961,309.665 21.8295,310.332 23.5,310.5C 30.4711,309.738 37.4711,309.238 44.5,309C 47.5907,305.613 50.924,302.447 54.5,299.5 Z"/></g>
<g><path style="opacity:1" fill="#966a50" d="M 219.5,300.5 C 219.33,301.822 219.663,302.989 220.5,304C 225.42,305.25 230.42,305.75 235.5,305.5C 242.211,305.328 248.878,304.661 255.5,303.5C 257.512,303.84 259.512,304.173 261.5,304.5C 261.5,305.833 261.5,307.167 261.5,308.5C 244.654,310.377 227.654,311.044 210.5,310.5C 210.703,308.61 210.037,307.11 208.5,306C 206.02,305.04 203.52,304.207 201,303.5C 200.251,302.365 200.417,301.365 201.5,300.5C 207.449,299.821 213.449,299.821 219.5,300.5 Z"/></g>
<g><path style="opacity:1" fill="#8e5d43" d="M 185.5,309.5 C 182.024,310.643 178.358,310.81 174.5,310C 173.944,309.617 173.611,309.117 173.5,308.5C 176.369,305.242 180.036,303.909 184.5,304.5C 184.366,306.292 184.699,307.958 185.5,309.5 Z"/></g>
<g><path style="opacity:1" fill="#4b413b" d="M 173.5,308.5 C 173.611,309.117 173.944,309.617 174.5,310C 178.358,310.81 182.024,310.643 185.5,309.5C 193.851,309.482 202.184,309.815 210.5,310.5C 227.654,311.044 244.654,310.377 261.5,308.5C 266.482,309.053 271.482,309.387 276.5,309.5C 276.5,310.167 276.5,310.833 276.5,311.5C 217.833,311.5 159.167,311.5 100.5,311.5C 100.5,310.833 100.5,310.167 100.5,309.5C 111.269,310.041 121.936,310.041 132.5,309.5C 146.246,309.815 159.912,309.481 173.5,308.5 Z"/></g>
</svg>
