<?xml version="1.0" encoding="UTF-8"?>
<!DOCTYPE svg PUBLIC "-//W3C//DTD SVG 1.1//EN" "http://www.w3.org/Graphics/SVG/1.1/DTD/svg11.dtd">
<svg xmlns="http://www.w3.org/2000/svg" version="1.1" width="278px" height="312px" style="shape-rendering:geometricPrecision; text-rendering:geometricPrecision; image-rendering:optimizeQuality; fill-rule:evenodd; clip-rule:evenodd" xmlns:xlink="http://www.w3.org/1999/xlink">
<g><path style="opacity:1" fill="#0c1217" d="M -0.5,-0.5 C 62.1667,-0.5 124.833,-0.5 187.5,-0.5C 187.5,-0.166667 187.5,0.166667 187.5,0.5C 125.499,0.333338 63.4991,0.500005 1.5,1C 0.944043,1.38258 0.610709,1.88258 0.5,2.5C 0.166667,2.5 -0.166667,2.5 -0.5,2.5C -0.5,1.5 -0.5,0.5 -0.5,-0.5 Z"/></g>
<g><path style="opacity:1" fill="#2a373f" d="M 187.5,0.5 C 187.5,0.166667 187.5,-0.166667 187.5,-0.5C 217.5,-0.5 247.5,-0.5 277.5,-0.5C 277.5,-0.166667 277.5,0.166667 277.5,0.5C 247.474,1.25251 217.474,1.25251 187.5,0.5 Z"/></g>
<g><path style="opacity:1" fill="#89c1d9" d="M 187.5,0.5 C 217.474,1.25251 247.474,1.25251 277.5,0.5C 277.5,10.5 277.5,20.5 277.5,30.5C 275.629,30.8588 274.129,31.8588 273,33.5C 266.823,42.5288 260.657,51.5288 254.5,60.5C 254.167,60.5 253.833,60.5 253.5,60.5C 247.977,55.963 243.644,56.963 240.5,63.5C 236.714,61.2434 232.714,60.9101 228.5,62.5C 228.616,57.8979 226.949,54.0646 223.5,51C 225.29,48.5087 227.457,46.342 230,44.5C 230.453,41.2329 231.287,38.0662 232.5,35C 229.612,30.7258 227.112,26.2258 225,21.5C 221.217,16.2769 216.55,15.2769 211,18.5C 209.189,17.9221 207.355,17.4221 205.5,17C 202.355,13.1432 198.188,11.3099 193,11.5C 188.255,12.0778 185.755,14.7444 185.5,19.5C 181.256,19.7477 177.422,21.081 174,23.5C 172.752,27.9819 172.252,32.4819 172.5,37C 162.033,34.2267 155.699,38.0601 153.5,48.5C 153.711,50.686 154.044,52.8527 154.5,55C 153.528,57.7816 152.695,60.615 152,63.5C 146.936,65.1904 141.936,67.1904 137,69.5C 134.64,72.3603 132.473,75.3603 130.5,78.5C 132.262,82.0018 132.762,85.6684 132,89.5C 127.833,92.3333 124.333,95.8333 121.5,100C 114.273,105.463 108.273,104.463 103.5,97C 99.766,97.0884 96.766,95.755 94.5,93C 90.1079,92.6693 87.1079,90.5026 85.5,86.5C 91.0238,79.6467 90.6905,73.1467 84.5,67C 80.4583,66.6585 77.125,64.9918 74.5,62C 70.1461,60.6609 65.8128,60.9942 61.5,63C 58.3821,67.7861 54.8821,72.2861 51,76.5C 48.2286,72.8975 44.7286,70.2309 40.5,68.5C 39.1851,66.6841 37.6851,65.0175 36,63.5C 35.6892,61.444 35.1892,59.444 34.5,57.5C 37.8447,53.9153 38.3447,49.9153 36,45.5C 32.9925,43.9138 30.4925,41.7472 28.5,39C 22.3098,34.6979 17.9765,36.0312 15.5,43C 13.6332,43.7112 12.1332,43.2112 11,41.5C 10.8787,34.7536 10.212,28.087 9,21.5C 7.58335,17.2479 4.75001,14.5812 0.5,13.5C 0.5,9.83333 0.5,6.16667 0.5,2.5C 0.610709,1.88258 0.944043,1.38258 1.5,1C 63.4991,0.500005 125.499,0.333338 187.5,0.5 Z"/></g>
<g><path style="opacity:1" fill="#d9ecf2" d="M 228.5,62.5 C 228.657,63.8734 228.49,65.2068 228,66.5C 225.815,67.9284 223.815,69.5951 222,71.5C 220.92,74.2371 221.754,75.9037 224.5,76.5C 226.61,75.9456 228.61,75.1123 230.5,74C 234.586,71.1435 237.919,67.6435 240.5,63.5C 243.644,56.963 247.977,55.963 253.5,60.5C 243.83,75.8414 234.164,91.1748 224.5,106.5C 222.076,105.97 219.743,105.136 217.5,104C 215.167,103.333 212.833,103.333 210.5,104C 200.204,109.728 190.037,115.561 180,121.5C 172.063,118.64 163.897,116.974 155.5,116.5C 144.558,118.076 133.558,119.243 122.5,120C 119.242,121.467 115.908,122.633 112.5,123.5C 111.85,123.804 111.183,124.137 110.5,124.5C 98.1018,119.467 86.1018,113.634 74.5,107C 70.8333,106.667 67.1667,106.333 63.5,106C 56.6366,103.268 49.6366,100.934 42.5,99C 41.6198,97.6439 41.2865,96.1439 41.5,94.5C 39.8333,94.5 38.1667,94.5 36.5,94.5C 35.6387,89.5666 34.972,84.5666 34.5,79.5C 33.1667,79.5 31.8333,79.5 30.5,79.5C 29.7596,84.775 29.093,89.775 28.5,94.5C 26.5648,95.1495 24.5648,95.4828 22.5,95.5C 21.7347,92.9039 21.4013,90.2372 21.5,87.5C 20.5,87.5 19.5,87.5 18.5,87.5C 18.6323,90.5701 18.299,93.5701 17.5,96.5C 15.8333,96.5 14.1667,96.5 12.5,96.5C 10.4301,91.4206 9.43013,86.0872 9.5,80.5C 8.82401,78.1409 7.99068,75.8076 7,73.5C 5.64387,72.6198 4.14387,72.2865 2.5,72.5C 1.75895,69.5867 1.25895,66.5867 1,63.5C 0.500067,46.8367 0.3334,30.17 0.5,13.5C 4.75001,14.5812 7.58335,17.2479 9,21.5C 10.212,28.087 10.8787,34.7536 11,41.5C 12.1332,43.2112 13.6332,43.7112 15.5,43C 17.9765,36.0312 22.3098,34.6979 28.5,39C 30.4925,41.7472 32.9925,43.9138 36,45.5C 38.3447,49.9153 37.8447,53.9153 34.5,57.5C 35.1892,59.444 35.6892,61.444 36,63.5C 37.6851,65.0175 39.1851,66.6841 40.5,68.5C 44.7286,70.2309 48.2286,72.8975 51,76.5C 54.8821,72.2861 58.3821,67.7861 61.5,63C 65.8128,60.9942 70.1461,60.6609 74.5,62C 77.125,64.9918 80.4583,66.6585 84.5,67C 90.6905,73.1467 91.0238,79.6467 85.5,86.5C 87.1079,90.5026 90.1079,92.6693 94.5,93C 96.766,95.755 99.766,97.0884 103.5,97C 108.273,104.463 114.273,105.463 121.5,100C 124.333,95.8333 127.833,92.3333 132,89.5C 132.762,85.6684 132.262,82.0018 130.5,78.5C 132.473,75.3603 134.64,72.3603 137,69.5C 141.936,67.1904 146.936,65.1904 152,63.5C 152.695,60.615 153.528,57.7816 154.5,55C 154.044,52.8527 153.711,50.686 153.5,48.5C 155.699,38.0601 162.033,34.2267 172.5,37C 172.252,32.4819 172.752,27.9819 174,23.5C 177.422,21.081 181.256,19.7477 185.5,19.5C 185.755,14.7444 188.255,12.0778 193,11.5C 198.188,11.3099 202.355,13.1432 205.5,17C 207.355,17.4221 209.189,17.9221 211,18.5C 216.55,15.2769 221.217,16.2769 225,21.5C 227.112,26.2258 229.612,30.7258 232.5,35C 231.287,38.0662 230.453,41.2329 230,44.5C 227.457,46.342 225.29,48.5087 223.5,51C 226.949,54.0646 228.616,57.8979 228.5,62.5 Z"/></g>
<g><path style="opacity:1" fill="#526065" d="M 277.5,30.5 C 277.5,32.1667 277.5,33.8333 277.5,35.5C 276.624,35.3691 275.957,35.7025 275.5,36.5C 274.833,38.1667 274.167,39.8333 273.5,41.5C 270.761,44.2327 268.427,47.2327 266.5,50.5C 263.312,53.1933 262.146,56.5266 263,60.5C 261.185,61.2444 259.352,61.9111 257.5,62.5C 256.29,62.0679 255.29,61.4013 254.5,60.5C 260.657,51.5288 266.823,42.5288 273,33.5C 274.129,31.8588 275.629,30.8588 277.5,30.5 Z"/></g>
<g><path style="opacity:1" fill="#a7d4e6" d="M 277.5,35.5 C 277.5,42.8333 277.5,50.1667 277.5,57.5C 275.833,58.1667 274.167,58.8333 272.5,59.5C 273.201,54.5565 271.201,51.5565 266.5,50.5C 268.427,47.2327 270.761,44.2327 273.5,41.5C 274.167,39.8333 274.833,38.1667 275.5,36.5C 275.957,35.7025 276.624,35.3691 277.5,35.5 Z"/></g>
<g><path style="opacity:1" fill="#e0ecf2" d="M 266.5,50.5 C 271.201,51.5565 273.201,54.5565 272.5,59.5C 273.054,66.2153 273.054,72.8819 272.5,79.5C 272.666,88.5062 272.5,97.5062 272,106.5C 271.153,108.854 270.32,111.188 269.5,113.5C 268.685,114.429 267.852,115.429 267,116.5C 264.408,115.018 262.075,115.352 260,117.5C 258.809,115.153 256.976,114.32 254.5,115C 252.957,116.878 251.124,118.378 249,119.5C 246.984,118.045 246.151,116.045 246.5,113.5C 245.5,113.5 244.5,113.5 243.5,113.5C 243.5,114.5 243.5,115.5 243.5,116.5C 242.5,116.5 241.5,116.5 240.5,116.5C 239.698,115.048 239.198,113.382 239,111.5C 237.708,110.209 236.542,110.209 235.5,111.5C 233.611,110.396 231.945,109.063 230.5,107.5C 234.39,100.059 238.556,92.7255 243,85.5C 244.509,84.9103 246.009,84.2436 247.5,83.5C 246.572,82.2322 246.405,80.8989 247,79.5C 250.01,73.4704 253.51,67.8037 257.5,62.5C 259.352,61.9111 261.185,61.2444 263,60.5C 262.146,56.5266 263.312,53.1933 266.5,50.5 Z"/></g>
<g><path style="opacity:1" fill="#221616" d="M -0.5,2.5 C -0.166667,2.5 0.166667,2.5 0.5,2.5C 0.5,6.16667 0.5,9.83333 0.5,13.5C 0.3334,30.17 0.500067,46.8367 1,63.5C 1.25895,66.5867 1.75895,69.5867 2.5,72.5C 2.03714,75.4824 1.70381,78.4824 1.5,81.5C 1.5,96.1667 1.5,110.833 1.5,125.5C 1.88654,133.054 2.21987,140.387 2.5,147.5C 2.5,149.167 2.5,150.833 2.5,152.5C 1.5,152.5 0.5,152.5 -0.5,152.5C -0.5,102.5 -0.5,52.5 -0.5,2.5 Z"/></g>
<g><path style="opacity:1" fill="#a1d4e0" d="M 240.5,63.5 C 237.919,67.6435 234.586,71.1435 230.5,74C 228.61,75.1123 226.61,75.9456 224.5,76.5C 221.754,75.9037 220.92,74.2371 222,71.5C 223.815,69.5951 225.815,67.9284 228,66.5C 228.49,65.2068 228.657,63.8734 228.5,62.5C 232.714,60.9101 236.714,61.2434 240.5,63.5 Z"/></g>
<g><path style="opacity:1" fill="#6ba1ba" d="M 277.5,57.5 C 277.5,64.8333 277.5,72.1667 277.5,79.5C 275.833,79.5 274.167,79.5 272.5,79.5C 273.054,72.8819 273.054,66.2153 272.5,59.5C 274.167,58.8333 275.833,58.1667 277.5,57.5 Z"/></g>
<g><path style="opacity:1" fill="#567075" d="M 2.5,72.5 C 4.14387,72.2865 5.64387,72.6198 7,73.5C 7.99068,75.8076 8.82401,78.1409 9.5,80.5C 6.83333,80.8333 4.16667,81.1667 1.5,81.5C 1.70381,78.4824 2.03714,75.4824 2.5,72.5 Z"/></g>
<g><path style="opacity:1" fill="#52829a" d="M 272.5,79.5 C 274.167,79.5 275.833,79.5 277.5,79.5C 277.5,91.5 277.5,103.5 277.5,115.5C 277.167,115.5 276.833,115.5 276.5,115.5C 274.285,114.732 271.952,114.065 269.5,113.5C 270.32,111.188 271.153,108.854 272,106.5C 272.5,97.5062 272.666,88.5062 272.5,79.5 Z"/></g>
<g><path style="opacity:1" fill="#263f45" d="M 36.5,94.5 C 36.908,98.0834 38.0747,101.417 40,104.5C 40.4986,108.152 40.6653,111.818 40.5,115.5C 44.1007,116.463 47.7674,117.13 51.5,117.5C 51.5,116.5 51.5,115.5 51.5,114.5C 52.8221,114.33 53.9887,114.663 55,115.5C 56.1739,119.535 57.3406,123.535 58.5,127.5C 56.061,134.945 51.3943,140.611 44.5,144.5C 43.6906,146.071 43.3573,147.738 43.5,149.5C 37.5461,147.67 31.5461,147.337 25.5,148.5C 22.2777,149.603 20.611,151.936 20.5,155.5C 19.2342,156.362 17.9008,157.029 16.5,157.5C 15.15,154.467 13.65,151.467 12,148.5C 9.21852,151.462 6.05185,153.796 2.5,155.5C 2.5,154.5 2.5,153.5 2.5,152.5C 2.5,150.833 2.5,149.167 2.5,147.5C 4.13471,146.185 5.80137,146.185 7.5,147.5C 8.47758,147.023 9.31091,146.357 10,145.5C 9.44676,140.992 9.61343,136.492 10.5,132C 9.33332,127.408 6.33332,125.241 1.5,125.5C 1.5,110.833 1.5,96.1667 1.5,81.5C 4.16667,81.1667 6.83333,80.8333 9.5,80.5C 9.43013,86.0872 10.4301,91.4206 12.5,96.5C 14.1667,104.5 15.8333,104.5 17.5,96.5C 18.299,93.5701 18.6323,90.5701 18.5,87.5C 19.5,87.5 20.5,87.5 21.5,87.5C 21.4013,90.2372 21.7347,92.9039 22.5,95.5C 22.0146,100.159 23.848,101.492 28,99.5C 28.4935,97.8659 28.6602,96.1992 28.5,94.5C 29.093,89.775 29.7596,84.775 30.5,79.5C 31.8333,79.5 33.1667,79.5 34.5,79.5C 34.972,84.5666 35.6387,89.5666 36.5,94.5 Z"/></g>
<g><path style="opacity:1" fill="#6d6962" d="M 253.5,60.5 C 253.833,60.5 254.167,60.5 254.5,60.5C 255.29,61.4013 256.29,62.0679 257.5,62.5C 253.51,67.8037 250.01,73.4704 247,79.5C 246.405,80.8989 246.572,82.2322 247.5,83.5C 246.009,84.2436 244.509,84.9103 243,85.5C 238.556,92.7255 234.39,100.059 230.5,107.5C 227.586,111.658 224.919,115.991 222.5,120.5C 221.527,122.139 220.194,123.473 218.5,124.5C 217.71,123.599 216.71,122.932 215.5,122.5C 218.488,117.194 221.488,111.861 224.5,106.5C 234.164,91.1748 243.83,75.8414 253.5,60.5 Z"/></g>
<g><path style="opacity:1" fill="#82a2a7" d="M 28.5,94.5 C 28.6602,96.1992 28.4935,97.8659 28,99.5C 23.848,101.492 22.0146,100.159 22.5,95.5C 24.5648,95.4828 26.5648,95.1495 28.5,94.5 Z"/></g>
<g><path style="opacity:1" fill="#63767c" d="M 12.5,96.5 C 14.1667,96.5 15.8333,96.5 17.5,96.5C 15.8333,104.5 14.1667,104.5 12.5,96.5 Z"/></g>
<g><path style="opacity:1" fill="#69a5bd" d="M 36.5,94.5 C 38.1667,94.5 39.8333,94.5 41.5,94.5C 41.2865,96.1439 41.6198,97.6439 42.5,99C 49.6366,100.934 56.6366,103.268 63.5,106C 67.1667,106.333 70.8333,106.667 74.5,107C 86.1018,113.634 98.1018,119.467 110.5,124.5C 111.183,124.137 111.85,123.804 112.5,123.5C 112.916,125.752 114.249,127.252 116.5,128C 123.695,130.465 131.028,132.299 138.5,133.5C 138.5,133.833 138.5,134.167 138.5,134.5C 136.105,136.48 133.271,137.813 130,138.5C 125.221,136.721 120.888,137.387 117,140.5C 116.517,141.448 116.351,142.448 116.5,143.5C 114.435,143.517 112.435,143.85 110.5,144.5C 107.761,141.976 104.428,140.976 100.5,141.5C 96.5239,142.331 92.5239,142.497 88.5,142C 85.7656,139.232 82.599,137.399 79,136.5C 75.3845,138.573 71.3845,139.906 67,140.5C 66.0979,140.257 65.2646,139.923 64.5,139.5C 62.8296,136.188 62.163,132.854 62.5,129.5C 61.4231,128.295 60.0898,127.628 58.5,127.5C 57.3406,123.535 56.1739,119.535 55,115.5C 53.9887,114.663 52.8221,114.33 51.5,114.5C 51.5,115.5 51.5,116.5 51.5,117.5C 47.7674,117.13 44.1007,116.463 40.5,115.5C 40.6653,111.818 40.4986,108.152 40,104.5C 38.0747,101.417 36.908,98.0834 36.5,94.5 Z"/></g>
<g><path style="opacity:1" fill="#83bbcd" d="M 224.5,106.5 C 221.488,111.861 218.488,117.194 215.5,122.5C 214.5,122.833 213.833,123.5 213.5,124.5C 207.85,124.179 202.35,124.846 197,126.5C 186.93,125.672 176.93,126.339 167,128.5C 165.14,128.306 163.307,127.972 161.5,127.5C 155.451,130.043 149.451,130.043 143.5,127.5C 141.086,128.911 139.419,130.911 138.5,133.5C 131.028,132.299 123.695,130.465 116.5,128C 114.249,127.252 112.916,125.752 112.5,123.5C 115.908,122.633 119.242,121.467 122.5,120C 133.558,119.243 144.558,118.076 155.5,116.5C 163.897,116.974 172.063,118.64 180,121.5C 190.037,115.561 200.204,109.728 210.5,104C 212.833,103.333 215.167,103.333 217.5,104C 219.743,105.136 222.076,105.97 224.5,106.5 Z"/></g>
<g><path style="opacity:1" fill="#86bacd" d="M 230.5,107.5 C 231.945,109.063 233.611,110.396 235.5,111.5C 234.852,113.086 234.352,114.753 234,116.5C 231.511,118.469 229.678,120.802 228.5,123.5C 226.517,122.529 224.517,121.529 222.5,120.5C 224.919,115.991 227.586,111.658 230.5,107.5 Z"/></g>
<g><path style="opacity:1" fill="#325063" d="M 269.5,113.5 C 271.952,114.065 274.285,114.732 276.5,115.5C 272.811,122.568 271.144,130.235 271.5,138.5C 271.667,141.167 271.833,143.833 272,146.5C 273.444,148.155 275.278,148.822 277.5,148.5C 277.5,151.833 277.5,155.167 277.5,158.5C 272.908,157.957 270.908,155.29 271.5,150.5C 270.5,150.5 269.5,150.5 268.5,150.5C 266.855,149.521 265.521,148.188 264.5,146.5C 261.97,145.868 259.637,144.868 257.5,143.5C 255.929,144.975 254.595,146.642 253.5,148.5C 249.629,148.185 245.962,148.518 242.5,149.5C 237.066,149.248 233.066,151.581 230.5,156.5C 227.482,156.665 224.482,156.498 221.5,156C 221.216,154.044 221.216,151.877 221.5,149.5C 223.422,145.987 225.088,142.321 226.5,138.5C 227.845,133.817 229.178,129.151 230.5,124.5C 233.847,121.744 237.18,119.077 240.5,116.5C 241.5,116.5 242.5,116.5 243.5,116.5C 243.5,115.5 243.5,114.5 243.5,113.5C 244.5,113.5 245.5,113.5 246.5,113.5C 246.151,116.045 246.984,118.045 249,119.5C 251.124,118.378 252.957,116.878 254.5,115C 256.976,114.32 258.809,115.153 260,117.5C 262.075,115.352 264.408,115.018 267,116.5C 267.852,115.429 268.685,114.429 269.5,113.5 Z"/></g>
<g><path style="opacity:1" fill="#528299" d="M 240.5,116.5 C 237.18,119.077 233.847,121.744 230.5,124.5C 229.508,124.672 228.842,124.338 228.5,123.5C 229.678,120.802 231.511,118.469 234,116.5C 234.352,114.753 234.852,113.086 235.5,111.5C 236.542,110.209 237.708,110.209 239,111.5C 239.198,113.382 239.698,115.048 240.5,116.5 Z"/></g>
<g><path style="opacity:1" fill="#313837" d="M 215.5,122.5 C 216.71,122.932 217.71,123.599 218.5,124.5C 218.975,127.082 218.308,129.082 216.5,130.5C 215.71,129.599 214.71,128.932 213.5,128.5C 213.5,127.167 213.5,125.833 213.5,124.5C 213.833,123.5 214.5,122.833 215.5,122.5 Z"/></g>
<g><path style="opacity:1" fill="#5d96ae" d="M 213.5,124.5 C 213.5,125.833 213.5,127.167 213.5,128.5C 212.761,128.369 212.094,128.536 211.5,129C 209.361,131.478 207.361,133.978 205.5,136.5C 203.453,136.511 201.453,136.844 199.5,137.5C 197.588,136.149 195.422,135.482 193,135.5C 184.888,137.483 176.721,139.15 168.5,140.5C 168.5,139.167 168.5,137.833 168.5,136.5C 158.554,134.282 148.554,133.615 138.5,134.5C 138.5,134.167 138.5,133.833 138.5,133.5C 139.419,130.911 141.086,128.911 143.5,127.5C 149.451,130.043 155.451,130.043 161.5,127.5C 163.307,127.972 165.14,128.306 167,128.5C 176.93,126.339 186.93,125.672 197,126.5C 202.35,124.846 207.85,124.179 213.5,124.5 Z"/></g>
<g><path style="opacity:1" fill="#619eb3" d="M 222.5,120.5 C 224.517,121.529 226.517,122.529 228.5,123.5C 228.842,124.338 229.508,124.672 230.5,124.5C 229.178,129.151 227.845,133.817 226.5,138.5C 224.283,139.369 221.95,139.702 219.5,139.5C 218.581,136.911 216.914,134.911 214.5,133.5C 215.167,132.5 215.833,131.5 216.5,130.5C 218.308,129.082 218.975,127.082 218.5,124.5C 220.194,123.473 221.527,122.139 222.5,120.5 Z"/></g>
<g><path style="opacity:1" fill="#19323e" d="M 1.5,125.5 C 6.33332,125.241 9.33332,127.408 10.5,132C 9.61343,136.492 9.44676,140.992 10,145.5C 9.31091,146.357 8.47758,147.023 7.5,147.5C 5.80137,146.185 4.13471,146.185 2.5,147.5C 2.21987,140.387 1.88654,133.054 1.5,125.5 Z"/></g>
<g><path style="opacity:1" fill="#263a4d" d="M 276.5,115.5 C 276.833,115.5 277.167,115.5 277.5,115.5C 277.5,126.5 277.5,137.5 277.5,148.5C 275.278,148.822 273.444,148.155 272,146.5C 271.833,143.833 271.667,141.167 271.5,138.5C 271.144,130.235 272.811,122.568 276.5,115.5 Z"/></g>
<g><path style="opacity:1" fill="#2b4b50" d="M 58.5,127.5 C 60.0898,127.628 61.4231,128.295 62.5,129.5C 62.163,132.854 62.8296,136.188 64.5,139.5C 64.5,141.833 64.5,144.167 64.5,146.5C 64.0472,147.458 63.3805,148.292 62.5,149C 56.7791,148.895 51.1124,149.062 45.5,149.5C 44.8333,149.5 44.1667,149.5 43.5,149.5C 43.3573,147.738 43.6906,146.071 44.5,144.5C 51.3943,140.611 56.061,134.945 58.5,127.5 Z"/></g>
<g><path style="opacity:1" fill="#6e7066" d="M 213.5,128.5 C 214.71,128.932 215.71,129.599 216.5,130.5C 215.833,131.5 215.167,132.5 214.5,133.5C 212.926,135.643 211.592,137.976 210.5,140.5C 209.675,141.386 208.675,141.719 207.5,141.5C 206.5,141.5 205.5,141.5 204.5,141.5C 205.038,139.883 205.371,138.216 205.5,136.5C 207.361,133.978 209.361,131.478 211.5,129C 212.094,128.536 212.761,128.369 213.5,128.5 Z"/></g>
<g><path style="opacity:1" fill="#4b7d8e" d="M 168.5,140.5 C 161.88,143.489 155.213,146.489 148.5,149.5C 148.631,148.624 148.298,147.957 147.5,147.5C 145.556,146.811 143.556,146.311 141.5,146C 133.833,145.667 126.167,145.333 118.5,145C 117.584,144.722 116.918,144.222 116.5,143.5C 116.351,142.448 116.517,141.448 117,140.5C 120.888,137.387 125.221,136.721 130,138.5C 133.271,137.813 136.105,136.48 138.5,134.5C 148.554,133.615 158.554,134.282 168.5,136.5C 168.5,137.833 168.5,139.167 168.5,140.5 Z"/></g>
<g><path style="opacity:1" fill="#5c8891" d="M 214.5,133.5 C 216.914,134.911 218.581,136.911 219.5,139.5C 217.639,141.888 216.306,144.554 215.5,147.5C 213.549,151.733 211.883,156.066 210.5,160.5C 216.463,160.814 221.796,162.814 226.5,166.5C 225.699,168.042 225.366,169.708 225.5,171.5C 219.336,169.852 213.003,169.018 206.5,169C 205.897,167.175 205.23,165.341 204.5,163.5C 202.15,165.687 200.15,168.187 198.5,171C 196.899,171.273 195.399,171.773 194,172.5C 193.601,172.272 193.435,171.938 193.5,171.5C 194.15,169.565 194.483,167.565 194.5,165.5C 195.481,163.691 196.981,162.357 199,161.5C 201.281,156.387 203.781,151.387 206.5,146.5C 208.538,145.144 208.872,143.477 207.5,141.5C 208.675,141.719 209.675,141.386 210.5,140.5C 211.592,137.976 212.926,135.643 214.5,133.5 Z"/></g>
<g><path style="opacity:1" fill="#386476" d="M 205.5,136.5 C 205.371,138.216 205.038,139.883 204.5,141.5C 202.896,142.287 202.229,143.62 202.5,145.5C 199.122,148.876 196.122,152.543 193.5,156.5C 190.393,156.649 187.393,156.149 184.5,155C 181.33,148.286 177.663,147.952 173.5,154C 164.903,155.085 156.569,154.585 148.5,152.5C 148.5,151.5 148.5,150.5 148.5,149.5C 155.213,146.489 161.88,143.489 168.5,140.5C 176.721,139.15 184.888,137.483 193,135.5C 195.422,135.482 197.588,136.149 199.5,137.5C 201.453,136.844 203.453,136.511 205.5,136.5 Z"/></g>
<g><path style="opacity:1" fill="#385d6a" d="M 100.5,141.5 C 101.596,144.955 102.596,148.455 103.5,152C 103.415,153.107 103.081,154.107 102.5,155C 98.299,155.922 94.299,155.422 90.5,153.5C 86.9058,155.017 83.9058,154.184 81.5,151C 76.5822,150.194 71.9155,148.694 67.5,146.5C 66.5,146.5 65.5,146.5 64.5,146.5C 64.5,144.167 64.5,141.833 64.5,139.5C 65.2646,139.923 66.0979,140.257 67,140.5C 71.3845,139.906 75.3845,138.573 79,136.5C 82.599,137.399 85.7656,139.232 88.5,142C 92.5239,142.497 96.5239,142.331 100.5,141.5 Z"/></g>
<g><path style="opacity:1" fill="#44707c" d="M 226.5,138.5 C 225.088,142.321 223.422,145.987 221.5,149.5C 219.5,148.833 217.5,148.167 215.5,147.5C 216.306,144.554 217.639,141.888 219.5,139.5C 221.95,139.702 224.283,139.369 226.5,138.5 Z"/></g>
<g><path style="opacity:1" fill="#5c8375" d="M 100.5,141.5 C 104.428,140.976 107.761,141.976 110.5,144.5C 111.744,148.37 112.744,152.37 113.5,156.5C 113.465,160.547 111.465,163.214 107.5,164.5C 101.038,163.189 94.7043,163.189 88.5,164.5C 84.8333,164.5 81.1667,164.5 77.5,164.5C 78.1667,160.5 76.5,158.833 72.5,159.5C 71.6634,154.83 69.9968,150.497 67.5,146.5C 71.9155,148.694 76.5822,150.194 81.5,151C 83.9058,154.184 86.9058,155.017 90.5,153.5C 94.299,155.422 98.299,155.922 102.5,155C 103.081,154.107 103.415,153.107 103.5,152C 102.596,148.455 101.596,144.955 100.5,141.5 Z"/></g>
<g><path style="opacity:1" fill="#313231" d="M 204.5,141.5 C 205.5,141.5 206.5,141.5 207.5,141.5C 208.872,143.477 208.538,145.144 206.5,146.5C 205.041,146.567 203.708,146.234 202.5,145.5C 202.229,143.62 202.896,142.287 204.5,141.5 Z"/></g>
<g><path style="opacity:1" fill="#75a295" d="M 116.5,143.5 C 116.918,144.222 117.584,144.722 118.5,145C 126.167,145.333 133.833,145.667 141.5,146C 143.556,146.311 145.556,146.811 147.5,147.5C 148.298,147.957 148.631,148.624 148.5,149.5C 148.5,150.5 148.5,151.5 148.5,152.5C 147.164,154.307 145.497,155.807 143.5,157C 136.825,157.389 130.158,157.889 123.5,158.5C 120.024,158.45 116.69,157.783 113.5,156.5C 112.744,152.37 111.744,148.37 110.5,144.5C 112.435,143.85 114.435,143.517 116.5,143.5 Z"/></g>
<g><path style="opacity:1" fill="#385d63" d="M 268.5,150.5 C 266.572,152.474 264.239,153.974 261.5,155C 260.177,155.816 259.511,156.983 259.5,158.5C 258.167,158.5 256.833,158.5 255.5,158.5C 253.701,155.495 253.034,152.162 253.5,148.5C 254.595,146.642 255.929,144.975 257.5,143.5C 259.637,144.868 261.97,145.868 264.5,146.5C 265.521,148.188 266.855,149.521 268.5,150.5 Z"/></g>
<g><path style="opacity:1" fill="#6f8460" d="M 64.5,146.5 C 65.5,146.5 66.5,146.5 67.5,146.5C 69.9968,150.497 71.6634,154.83 72.5,159.5C 76.5,158.833 78.1667,160.5 77.5,164.5C 64.0886,165.912 50.7552,166.579 37.5,166.5C 35.9408,164.376 33.9408,162.709 31.5,161.5C 30.6143,160.675 30.281,159.675 30.5,158.5C 31.5,158.5 32.5,158.5 33.5,158.5C 33.2965,156.61 33.9632,155.11 35.5,154C 38.4302,152.341 41.4302,152.008 44.5,153C 45.3366,151.989 45.67,150.822 45.5,149.5C 51.1124,149.062 56.7791,148.895 62.5,149C 63.3805,148.292 64.0472,147.458 64.5,146.5 Z"/></g>
<g><path style="opacity:1" fill="#75705f" d="M 202.5,145.5 C 203.708,146.234 205.041,146.567 206.5,146.5C 203.781,151.387 201.281,156.387 199,161.5C 196.981,162.357 195.481,163.691 194.5,165.5C 193.167,165.5 191.833,165.5 190.5,165.5C 191.213,162.406 192.213,159.406 193.5,156.5C 196.122,152.543 199.122,148.876 202.5,145.5 Z"/></g>
<g><path style="opacity:1" fill="#5c837c" d="M 215.5,147.5 C 217.5,148.167 219.5,148.833 221.5,149.5C 221.216,151.877 221.216,154.044 221.5,156C 224.482,156.498 227.482,156.665 230.5,156.5C 232.299,157.27 233.632,158.603 234.5,160.5C 233.691,162.071 233.357,163.738 233.5,165.5C 231.139,165.674 228.806,166.007 226.5,166.5C 221.796,162.814 216.463,160.814 210.5,160.5C 211.883,156.066 213.549,151.733 215.5,147.5 Z"/></g>
<g><path style="opacity:1" fill="#56704a" d="M 16.5,157.5 C 16.5,157.833 16.5,158.167 16.5,158.5C 13.7348,158.604 10.7348,158.771 7.5,159C 5.92209,160.094 4.25542,160.928 2.5,161.5C 2.5,159.5 2.5,157.5 2.5,155.5C 6.05185,153.796 9.21852,151.462 12,148.5C 13.65,151.467 15.15,154.467 16.5,157.5 Z"/></g>
<g><path style="opacity:1" fill="#43574a" d="M 25.5,148.5 C 26.4636,151.807 26.9636,155.141 27,158.5C 24.846,159.23 22.6794,159.897 20.5,160.5C 19.1667,159.833 17.8333,159.167 16.5,158.5C 16.5,158.167 16.5,157.833 16.5,157.5C 17.9008,157.029 19.2342,156.362 20.5,155.5C 20.611,151.936 22.2777,149.603 25.5,148.5 Z"/></g>
<g><path style="opacity:1" fill="#456666" d="M 242.5,149.5 C 243.317,151.831 243.984,154.331 244.5,157C 244.113,159.261 242.779,160.594 240.5,161C 241.801,162.616 241.801,164.116 240.5,165.5C 238.167,165.5 235.833,165.5 233.5,165.5C 233.357,163.738 233.691,162.071 234.5,160.5C 233.632,158.603 232.299,157.27 230.5,156.5C 233.066,151.581 237.066,149.248 242.5,149.5 Z"/></g>
<g><path style="opacity:1" fill="#508794" d="M 193.5,156.5 C 192.213,159.406 191.213,162.406 190.5,165.5C 188.259,166.3 187.259,167.966 187.5,170.5C 186.71,171.401 185.71,172.068 184.5,172.5C 181.592,171.431 178.592,171.264 175.5,172C 172.354,173.657 169.354,175.491 166.5,177.5C 162.45,176.975 159.117,175.142 156.5,172C 147.858,171.848 139.358,170.682 131,168.5C 129.486,168.77 127.986,169.103 126.5,169.5C 122.797,168.56 119.297,167.227 116,165.5C 111.103,166.694 106.936,169.028 103.5,172.5C 99.5879,174.799 95.5879,176.799 91.5,178.5C 89.5477,177.897 87.5477,178.23 85.5,179.5C 85.1961,178.85 84.8627,178.183 84.5,177.5C 88.0014,173.895 89.3348,169.561 88.5,164.5C 94.7043,163.189 101.038,163.189 107.5,164.5C 111.465,163.214 113.465,160.547 113.5,156.5C 116.69,157.783 120.024,158.45 123.5,158.5C 130.158,157.889 136.825,157.389 143.5,157C 145.497,155.807 147.164,154.307 148.5,152.5C 156.569,154.585 164.903,155.085 173.5,154C 177.663,147.952 181.33,148.286 184.5,155C 187.393,156.149 190.393,156.649 193.5,156.5 Z"/></g>
<g><path style="opacity:1" fill="#758950" d="M 16.5,158.5 C 17.8333,159.167 19.1667,159.833 20.5,160.5C 20.5,163.167 20.5,165.833 20.5,168.5C 18.7839,168.629 17.1172,168.962 15.5,169.5C 15.0377,168.12 14.0377,167.453 12.5,167.5C 9.55138,166.698 6.55138,166.364 3.5,166.5C 3.37133,164.784 3.038,163.117 2.5,161.5C 4.25542,160.928 5.92209,160.094 7.5,159C 10.7348,158.771 13.7348,158.604 16.5,158.5 Z"/></g>
<g><path style="opacity:1" fill="#657a51" d="M 43.5,149.5 C 44.1667,149.5 44.8333,149.5 45.5,149.5C 45.67,150.822 45.3366,151.989 44.5,153C 41.4302,152.008 38.4302,152.341 35.5,154C 33.9632,155.11 33.2965,156.61 33.5,158.5C 32.5,158.5 31.5,158.5 30.5,158.5C 30.281,159.675 30.6143,160.675 31.5,161.5C 33.9408,162.709 35.9408,164.376 37.5,166.5C 37.0825,167.222 36.4158,167.722 35.5,168C 30.5111,168.499 25.5111,168.666 20.5,168.5C 20.5,165.833 20.5,163.167 20.5,160.5C 22.6794,159.897 24.846,159.23 27,158.5C 26.9636,155.141 26.4636,151.807 25.5,148.5C 31.5461,147.337 37.5461,147.67 43.5,149.5 Z"/></g>
<g><path style="opacity:1" fill="#537770" d="M 242.5,149.5 C 245.962,148.518 249.629,148.185 253.5,148.5C 253.034,152.162 253.701,155.495 255.5,158.5C 254.078,158.709 252.745,159.209 251.5,160C 250.359,160.741 250.359,161.575 251.5,162.5C 257.807,163.664 264.141,163.831 270.5,163C 271.38,161.644 271.714,160.144 271.5,158.5C 267.5,158.5 263.5,158.5 259.5,158.5C 259.511,156.983 260.177,155.816 261.5,155C 264.239,153.974 266.572,152.474 268.5,150.5C 269.5,150.5 270.5,150.5 271.5,150.5C 270.908,155.29 272.908,157.957 277.5,158.5C 277.5,160.833 277.5,163.167 277.5,165.5C 274.088,163.663 272.088,164.663 271.5,168.5C 270.542,168.953 269.708,169.619 269,170.5C 265.818,169.085 262.818,169.419 260,171.5C 258.225,170.73 256.725,169.563 255.5,168C 251.167,167.667 246.833,167.333 242.5,167C 241.584,166.722 240.918,166.222 240.5,165.5C 241.801,164.116 241.801,162.616 240.5,161C 242.779,160.594 244.113,159.261 244.5,157C 243.984,154.331 243.317,151.831 242.5,149.5 Z"/></g>
<g><path style="opacity:1" fill="#829c82" d="M 255.5,158.5 C 256.833,158.5 258.167,158.5 259.5,158.5C 263.5,158.5 267.5,158.5 271.5,158.5C 271.714,160.144 271.38,161.644 270.5,163C 264.141,163.831 257.807,163.664 251.5,162.5C 250.359,161.575 250.359,160.741 251.5,160C 252.745,159.209 254.078,158.709 255.5,158.5 Z"/></g>
<g><path style="opacity:1" fill="#4b6f6f" d="M 77.5,164.5 C 81.1667,164.5 84.8333,164.5 88.5,164.5C 89.3348,169.561 88.0014,173.895 84.5,177.5C 84.8627,178.183 85.1961,178.85 85.5,179.5C 84.1667,180.5 82.8333,181.5 81.5,182.5C 79.742,182.877 78.0754,183.544 76.5,184.5C 74.2487,183.305 71.9154,182.305 69.5,181.5C 68.9955,178.658 67.3289,177.325 64.5,177.5C 64.6495,178.552 64.4828,179.552 64,180.5C 62.383,182.763 60.5497,184.763 58.5,186.5C 52.5432,183.181 46.2099,180.847 39.5,179.5C 35.5826,182.29 31.2492,184.29 26.5,185.5C 25.2613,185.058 24.2613,184.391 23.5,183.5C 22.8386,180.213 22.3386,176.88 22,173.5C 19.0872,173.399 16.2539,173.066 13.5,172.5C 14.1667,171.5 14.8333,170.5 15.5,169.5C 17.1172,168.962 18.7839,168.629 20.5,168.5C 25.5111,168.666 30.5111,168.499 35.5,168C 36.4158,167.722 37.0825,167.222 37.5,166.5C 50.7552,166.579 64.0886,165.912 77.5,164.5 Z"/></g>
<g><path style="opacity:1" fill="#7bb3c1" d="M 166.5,177.5 C 166.433,178.959 166.766,180.292 167.5,181.5C 159.536,180.095 151.536,178.762 143.5,177.5C 142.025,175.59 140.025,174.424 137.5,174C 130.237,173.872 123.07,173.039 116,171.5C 111.808,172.903 107.641,173.236 103.5,172.5C 106.936,169.028 111.103,166.694 116,165.5C 119.297,167.227 122.797,168.56 126.5,169.5C 127.986,169.103 129.486,168.77 131,168.5C 139.358,170.682 147.858,171.848 156.5,172C 159.117,175.142 162.45,176.975 166.5,177.5 Z"/></g>
<g><path style="opacity:1" fill="#3d3e3d" d="M 190.5,165.5 C 191.833,165.5 193.167,165.5 194.5,165.5C 194.483,167.565 194.15,169.565 193.5,171.5C 192.662,171.842 192.328,172.508 192.5,173.5C 192.167,173.5 191.833,173.5 191.5,173.5C 190.71,172.599 189.71,171.932 188.5,171.5C 188.5,170.833 188.167,170.5 187.5,170.5C 187.259,167.966 188.259,166.3 190.5,165.5 Z"/></g>
<g><path style="opacity:1" fill="#3e6571" d="M 233.5,165.5 C 235.833,165.5 238.167,165.5 240.5,165.5C 240.918,166.222 241.584,166.722 242.5,167C 246.833,167.333 251.167,167.667 255.5,168C 256.725,169.563 258.225,170.73 260,171.5C 262.818,169.419 265.818,169.085 269,170.5C 269.708,169.619 270.542,168.953 271.5,168.5C 272.602,177.157 273.602,185.823 274.5,194.5C 271.518,194.963 268.518,195.296 265.5,195.5C 265.778,193.654 265.111,192.32 263.5,191.5C 261.749,193.064 260.749,195.064 260.5,197.5C 259.83,200.503 258.163,201.17 255.5,199.5C 253.759,197.023 252.259,194.356 251,191.5C 250.439,190.978 249.772,190.645 249,190.5C 245.765,191.253 242.598,191.586 239.5,191.5C 238.423,193.729 237.756,196.063 237.5,198.5C 235.379,198.675 233.379,198.341 231.5,197.5C 231.175,193.62 230.508,189.62 229.5,185.5C 229.5,184.833 229.5,184.167 229.5,183.5C 227.969,179.574 226.636,175.574 225.5,171.5C 225.366,169.708 225.699,168.042 226.5,166.5C 228.806,166.007 231.139,165.674 233.5,165.5 Z"/></g>
<g><path style="opacity:1" fill="#888369" d="M 3.5,166.5 C 6.55138,166.364 9.55138,166.698 12.5,167.5C 14.0377,167.453 15.0377,168.12 15.5,169.5C 14.8333,170.5 14.1667,171.5 13.5,172.5C 9.93595,171.577 6.26928,171.244 2.5,171.5C 1.95691,171.44 1.62358,171.107 1.5,170.5C 1.99431,168.974 2.66097,167.641 3.5,166.5 Z"/></g>
<g><path style="opacity:1" fill="#969483" d="M 187.5,170.5 C 188.167,170.5 188.5,170.833 188.5,171.5C 187.997,176.873 185.331,180.539 180.5,182.5C 181.809,179.207 183.142,175.874 184.5,172.5C 185.71,172.068 186.71,171.401 187.5,170.5 Z"/></g>
<g><path style="opacity:1" fill="#9accd3" d="M 143.5,177.5 C 139.145,180.005 134.478,182.005 129.5,183.5C 126.571,182.537 123.571,181.87 120.5,181.5C 116.182,182.369 111.849,182.536 107.5,182C 105.65,179.982 103.65,178.149 101.5,176.5C 98.4483,179.339 95.115,180.005 91.5,178.5C 95.5879,176.799 99.5879,174.799 103.5,172.5C 107.641,173.236 111.808,172.903 116,171.5C 123.07,173.039 130.237,173.872 137.5,174C 140.025,174.424 142.025,175.59 143.5,177.5 Z"/></g>
<g><path style="opacity:1" fill="#649ca7" d="M 184.5,172.5 C 183.142,175.874 181.809,179.207 180.5,182.5C 180.19,184.144 179.19,185.144 177.5,185.5C 175.109,182.083 171.775,180.75 167.5,181.5C 166.766,180.292 166.433,178.959 166.5,177.5C 169.354,175.491 172.354,173.657 175.5,172C 178.592,171.264 181.592,171.431 184.5,172.5 Z"/></g>
<g><path style="opacity:1" fill="#3c5957" d="M 2.5,171.5 C 6.26928,171.244 9.93595,171.577 13.5,172.5C 16.2539,173.066 19.0872,173.399 22,173.5C 22.3386,176.88 22.8386,180.213 23.5,183.5C 19.1526,186.176 14.4859,187.176 9.5,186.5C 8.8191,182.75 7.8191,179.084 6.5,175.5C 5.31116,174.571 3.97782,174.238 2.5,174.5C 2.5,173.5 2.5,172.5 2.5,171.5 Z"/></g>
<g><path style="opacity:1" fill="#7dbbcd" d="M 229.5,183.5 C 229.5,184.167 229.5,184.833 229.5,185.5C 222.679,187.882 215.679,189.882 208.5,191.5C 201.743,190.397 195.076,188.897 188.5,187C 187.619,186.292 186.953,185.458 186.5,184.5C 188.424,180.983 190.091,177.316 191.5,173.5C 191.833,173.5 192.167,173.5 192.5,173.5C 194.838,176.139 197.005,175.806 199,172.5C 200.407,177.745 203.24,182.079 207.5,185.5C 214.606,181.359 221.94,180.692 229.5,183.5 Z"/></g>
<g><path style="opacity:1" fill="#32515e" d="M 2.5,174.5 C 3.97782,174.238 5.31116,174.571 6.5,175.5C 7.8191,179.084 8.8191,182.75 9.5,186.5C 14.4859,187.176 19.1526,186.176 23.5,183.5C 24.2613,184.391 25.2613,185.058 26.5,185.5C 31.2492,184.29 35.5826,182.29 39.5,179.5C 46.2099,180.847 52.5432,183.181 58.5,186.5C 58.4601,189.988 57.7934,193.321 56.5,196.5C 56.7373,197.791 56.404,198.791 55.5,199.5C 52.2336,200.041 48.9002,200.207 45.5,200C 43.84,201.488 42.84,203.321 42.5,205.5C 42.6556,208.066 42.3223,210.566 41.5,213C 39.7974,214.37 38.464,216.036 37.5,218C 37.9891,219.138 38.3225,220.305 38.5,221.5C 37.7051,225.785 37.3718,230.119 37.5,234.5C 35.9424,238.958 33.2757,239.958 29.5,237.5C 28.7382,233.889 28.2382,230.222 28,226.5C 24.7499,223.95 23.5833,220.784 24.5,217C 20.2208,210.838 16.3875,211.338 13,218.5C 12.8823,224.437 11.7156,230.103 9.5,235.5C 7.20537,236.136 5.5387,237.469 4.5,239.5C 3.5,239.5 2.5,239.5 1.5,239.5C 1.5,227.5 1.5,215.5 1.5,203.5C 2.42148,193.873 2.75481,184.206 2.5,174.5 Z"/></g>
<g><path style="opacity:1" fill="#2d4b58" d="M 277.5,165.5 C 277.5,178.833 277.5,192.167 277.5,205.5C 276.883,205.389 276.383,205.056 276,204.5C 275.821,200.975 275.321,197.641 274.5,194.5C 273.602,185.823 272.602,177.157 271.5,168.5C 272.088,164.663 274.088,163.663 277.5,165.5 Z"/></g>
<g><path style="opacity:1" fill="#5b9baf" d="M 225.5,171.5 C 226.636,175.574 227.969,179.574 229.5,183.5C 221.94,180.692 214.606,181.359 207.5,185.5C 203.24,182.079 200.407,177.745 199,172.5C 197.005,175.806 194.838,176.139 192.5,173.5C 192.328,172.508 192.662,171.842 193.5,171.5C 193.435,171.938 193.601,172.272 194,172.5C 195.399,171.773 196.899,171.273 198.5,171C 200.15,168.187 202.15,165.687 204.5,163.5C 205.23,165.341 205.897,167.175 206.5,169C 213.003,169.018 219.336,169.852 225.5,171.5 Z"/></g>
<g><path style="opacity:1" fill="#aed9e0" d="M 143.5,177.5 C 151.536,178.762 159.536,180.095 167.5,181.5C 171.775,180.75 175.109,182.083 177.5,185.5C 173.562,196.044 168.562,206.044 162.5,215.5C 159.768,219.215 157.102,222.881 154.5,226.5C 153.599,224.273 151.933,223.273 149.5,223.5C 149.309,220.015 148.309,216.849 146.5,214C 138.659,210.087 131.993,204.753 126.5,198C 116.404,193.405 106.404,193.739 96.5,199C 94.114,200.887 92.9473,203.387 93,206.5C 89.8761,207.741 86.7095,208.908 83.5,210C 83.0037,211.996 82.0037,213.663 80.5,215C 72.4324,215.007 64.4324,214.174 56.5,212.5C 56.5,211.167 56.5,209.833 56.5,208.5C 56.6151,205.579 56.2817,202.579 55.5,199.5C 56.404,198.791 56.7373,197.791 56.5,196.5C 60.1046,195.037 63.7713,193.537 67.5,192C 71.1667,191.667 74.8333,191.333 78.5,191C 80.4049,189.185 82.0716,187.185 83.5,185C 82.6195,184.292 81.9528,183.458 81.5,182.5C 82.8333,181.5 84.1667,180.5 85.5,179.5C 87.5477,178.23 89.5477,177.897 91.5,178.5C 95.115,180.005 98.4483,179.339 101.5,176.5C 103.65,178.149 105.65,179.982 107.5,182C 111.849,182.536 116.182,182.369 120.5,181.5C 123.571,181.87 126.571,182.537 129.5,183.5C 134.478,182.005 139.145,180.005 143.5,177.5 Z"/></g>
<g><path style="opacity:1" fill="#84b7c5" d="M 81.5,182.5 C 81.9528,183.458 82.6195,184.292 83.5,185C 82.0716,187.185 80.4049,189.185 78.5,191C 74.8333,191.333 71.1667,191.667 67.5,192C 63.7713,193.537 60.1046,195.037 56.5,196.5C 57.7934,193.321 58.4601,189.988 58.5,186.5C 60.5497,184.763 62.383,182.763 64,180.5C 64.4828,179.552 64.6495,178.552 64.5,177.5C 67.3289,177.325 68.9955,178.658 69.5,181.5C 71.9154,182.305 74.2487,183.305 76.5,184.5C 78.0754,183.544 79.742,182.877 81.5,182.5 Z"/></g>
<g><path style="opacity:1" fill="#a1d3e0" d="M 186.5,184.5 C 186.953,185.458 187.619,186.292 188.5,187C 195.076,188.897 201.743,190.397 208.5,191.5C 215.679,189.882 222.679,187.882 229.5,185.5C 230.508,189.62 231.175,193.62 231.5,197.5C 231.308,202.963 233.141,207.963 237,212.5C 236.56,217.258 233.727,219.758 228.5,220C 225.518,220.498 222.518,220.665 219.5,220.5C 219.261,222.467 219.594,224.301 220.5,226C 216.659,226.876 212.993,228.209 209.5,230C 208.748,230.671 208.414,231.504 208.5,232.5C 207.833,232.5 207.167,232.5 206.5,232.5C 202.154,232.666 197.821,232.499 193.5,232C 189.719,230.173 185.719,229.173 181.5,229C 179.208,227.71 177.208,226.043 175.5,224C 171.292,225.398 167.958,224.231 165.5,220.5C 165.833,219.167 166.167,217.833 166.5,216.5C 169.253,211.992 172.253,207.659 175.5,203.5C 178.068,204.45 180.568,204.45 183,203.5C 184.222,199.754 183.056,197.087 179.5,195.5C 181.473,191.543 183.806,187.876 186.5,184.5 Z"/></g>
<g><path style="opacity:1" fill="#2b2722" d="M -0.5,152.5 C 0.5,152.5 1.5,152.5 2.5,152.5C 2.5,153.5 2.5,154.5 2.5,155.5C 2.5,157.5 2.5,159.5 2.5,161.5C 3.038,163.117 3.37133,164.784 3.5,166.5C 2.66097,167.641 1.99431,168.974 1.5,170.5C 1.62358,171.107 1.95691,171.44 2.5,171.5C 2.5,172.5 2.5,173.5 2.5,174.5C 2.75481,184.206 2.42148,193.873 1.5,203.5C 0.833333,203.167 0.166667,202.833 -0.5,202.5C -0.5,185.833 -0.5,169.167 -0.5,152.5 Z"/></g>
<g><path style="opacity:1" fill="#7dc0d9" d="M 154.5,226.5 C 153.167,228.5 151.833,230.5 150.5,232.5C 149.215,234.062 147.715,235.396 146,236.5C 142.743,235.459 139.91,233.792 137.5,231.5C 139.097,228.681 139.597,225.681 139,222.5C 137.102,220.316 134.936,219.983 132.5,221.5C 125.905,223.428 121.571,227.762 119.5,234.5C 118.883,234.389 118.383,234.056 118,233.5C 115.595,234.274 113.095,234.774 110.5,235C 109.74,236.441 109.074,237.941 108.5,239.5C 104.488,240.698 100.488,240.698 96.5,239.5C 93.7201,237.592 91.0534,235.425 88.5,233C 79.1268,230.576 69.9601,231.076 61,234.5C 53.796,232.811 47.9627,228.977 43.5,223C 41.8455,222.392 40.1789,221.892 38.5,221.5C 38.3225,220.305 37.9891,219.138 37.5,218C 38.464,216.036 39.7974,214.37 41.5,213C 42.3223,210.566 42.6556,208.066 42.5,205.5C 45.006,204.25 47.6726,203.584 50.5,203.5C 50.5,205.167 50.5,206.833 50.5,208.5C 52.5,208.5 54.5,208.5 56.5,208.5C 56.5,209.833 56.5,211.167 56.5,212.5C 64.4324,214.174 72.4324,215.007 80.5,215C 82.0037,213.663 83.0037,211.996 83.5,210C 86.7095,208.908 89.8761,207.741 93,206.5C 92.9473,203.387 94.114,200.887 96.5,199C 106.404,193.739 116.404,193.405 126.5,198C 131.993,204.753 138.659,210.087 146.5,214C 148.309,216.849 149.309,220.015 149.5,223.5C 151.933,223.273 153.599,224.273 154.5,226.5 Z"/></g>
<g><path style="opacity:1" fill="#457487" d="M 274.5,194.5 C 275.321,197.641 275.821,200.975 276,204.5C 276.383,205.056 276.883,205.389 277.5,205.5C 277.5,206.5 277.5,207.5 277.5,208.5C 274.71,208.949 272.044,208.949 269.5,208.5C 267.609,205.058 266.609,201.391 266.5,197.5C 264.5,197.5 262.5,197.5 260.5,197.5C 260.749,195.064 261.749,193.064 263.5,191.5C 265.111,192.32 265.778,193.654 265.5,195.5C 268.518,195.296 271.518,194.963 274.5,194.5 Z"/></g>
<g><path style="opacity:1" fill="#7b999f" d="M 179.5,195.5 C 183.056,197.087 184.222,199.754 183,203.5C 180.568,204.45 178.068,204.45 175.5,203.5C 176.472,200.563 177.805,197.897 179.5,195.5 Z"/></g>
<g><path style="opacity:1" fill="#7bbed1" d="M 255.5,199.5 C 254.485,200.46 254.485,201.627 255.5,203C 256.989,205.493 258.823,207.66 261,209.5C 261.494,211.134 261.66,212.801 261.5,214.5C 258.218,214.807 255.552,216.141 253.5,218.5C 251.738,218.357 250.071,218.691 248.5,219.5C 247.15,218.05 245.484,217.383 243.5,217.5C 244.746,224.528 242.079,226.861 235.5,224.5C 235.325,226.621 235.659,228.621 236.5,230.5C 235.85,232.435 235.517,234.435 235.5,236.5C 237.031,237.925 236.698,238.591 234.5,238.5C 231.882,236.469 229.049,235.802 226,236.5C 223.441,235.02 220.774,233.687 218,232.5C 217.617,233.056 217.117,233.389 216.5,233.5C 213.615,233.806 210.948,233.473 208.5,232.5C 208.414,231.504 208.748,230.671 209.5,230C 212.993,228.209 216.659,226.876 220.5,226C 219.594,224.301 219.261,222.467 219.5,220.5C 222.518,220.665 225.518,220.498 228.5,220C 233.727,219.758 236.56,217.258 237,212.5C 233.141,207.963 231.308,202.963 231.5,197.5C 233.379,198.341 235.379,198.675 237.5,198.5C 237.756,196.063 238.423,193.729 239.5,191.5C 242.598,191.586 245.765,191.253 249,190.5C 249.772,190.645 250.439,190.978 251,191.5C 252.259,194.356 253.759,197.023 255.5,199.5 Z"/></g>
<g><path style="opacity:1" fill="#6fa7b9" d="M 260.5,197.5 C 262.5,197.5 264.5,197.5 266.5,197.5C 266.609,201.391 267.609,205.058 269.5,208.5C 272.044,208.949 274.71,208.949 277.5,208.5C 277.5,210.5 277.5,212.5 277.5,214.5C 275.236,213.781 272.903,213.448 270.5,213.5C 270.808,215.924 270.474,218.257 269.5,220.5C 266.197,221.957 262.863,223.291 259.5,224.5C 257.005,223.05 255.005,221.05 253.5,218.5C 255.552,216.141 258.218,214.807 261.5,214.5C 261.66,212.801 261.494,211.134 261,209.5C 258.823,207.66 256.989,205.493 255.5,203C 254.485,201.627 254.485,200.46 255.5,199.5C 258.163,201.17 259.83,200.503 260.5,197.5 Z"/></g>
<g><path style="opacity:1" fill="#5c4f46" d="M 188.5,171.5 C 189.71,171.932 190.71,172.599 191.5,173.5C 190.091,177.316 188.424,180.983 186.5,184.5C 183.806,187.876 181.473,191.543 179.5,195.5C 177.805,197.897 176.472,200.563 175.5,203.5C 172.253,207.659 169.253,211.992 166.5,216.5C 165.292,215.766 163.959,215.433 162.5,215.5C 168.562,206.044 173.562,196.044 177.5,185.5C 179.19,185.144 180.19,184.144 180.5,182.5C 185.331,180.539 187.997,176.873 188.5,171.5 Z"/></g>
<g><path style="opacity:1" fill="#5d90a2" d="M 55.5,199.5 C 56.2817,202.579 56.6151,205.579 56.5,208.5C 54.5,208.5 52.5,208.5 50.5,208.5C 50.5,206.833 50.5,205.167 50.5,203.5C 47.6726,203.584 45.006,204.25 42.5,205.5C 42.84,203.321 43.84,201.488 45.5,200C 48.9002,200.207 52.2336,200.041 55.5,199.5 Z"/></g>
<g><path style="opacity:1" fill="#1f2532" d="M 162.5,215.5 C 163.959,215.433 165.292,215.766 166.5,216.5C 166.167,217.833 165.833,219.167 165.5,220.5C 162.515,225.798 159.515,231.132 156.5,236.5C 154.228,235.559 152.228,234.226 150.5,232.5C 151.833,230.5 153.167,228.5 154.5,226.5C 157.102,222.881 159.768,219.215 162.5,215.5 Z"/></g>
<g><path style="opacity:1" fill="#669ba3" d="M 253.5,218.5 C 255.005,221.05 257.005,223.05 259.5,224.5C 259.5,224.833 259.5,225.167 259.5,225.5C 257.455,227.984 254.788,228.984 251.5,228.5C 249.742,228.877 248.075,229.544 246.5,230.5C 243.136,229.174 239.803,229.174 236.5,230.5C 235.659,228.621 235.325,226.621 235.5,224.5C 242.079,226.861 244.746,224.528 243.5,217.5C 245.484,217.383 247.15,218.05 248.5,219.5C 250.071,218.691 251.738,218.357 253.5,218.5 Z"/></g>
<g><path style="opacity:1" fill="#6fbad3" d="M 165.5,220.5 C 167.958,224.231 171.292,225.398 175.5,224C 177.208,226.043 179.208,227.71 181.5,229C 185.719,229.173 189.719,230.173 193.5,232C 197.821,232.499 202.154,232.666 206.5,232.5C 199.757,245.521 189.091,250.521 174.5,247.5C 174.134,246.305 173.301,245.639 172,245.5C 170.056,246.688 168.556,248.354 167.5,250.5C 165.955,251.452 164.288,251.785 162.5,251.5C 160.709,248.381 158.042,246.381 154.5,245.5C 154.207,242.246 154.874,239.246 156.5,236.5C 159.515,231.132 162.515,225.798 165.5,220.5 Z"/></g>
<g><path style="opacity:1" fill="#647643" d="M 277.5,214.5 C 277.5,222.167 277.5,229.833 277.5,237.5C 276.033,240.29 273.7,241.956 270.5,242.5C 270.666,238.154 270.499,233.821 270,229.5C 267.753,227.845 265.42,227.512 263,228.5C 261.961,227.29 260.794,226.29 259.5,225.5C 259.5,225.167 259.5,224.833 259.5,224.5C 262.863,223.291 266.197,221.957 269.5,220.5C 270.474,218.257 270.808,215.924 270.5,213.5C 272.903,213.448 275.236,213.781 277.5,214.5 Z"/></g>
<g><path style="opacity:1" fill="#57a8c8" d="M 38.5,221.5 C 40.1789,221.892 41.8455,222.392 43.5,223C 47.9627,228.977 53.796,232.811 61,234.5C 69.9601,231.076 79.1268,230.576 88.5,233C 91.0534,235.425 93.7201,237.592 96.5,239.5C 94.9599,243.537 91.9599,245.703 87.5,246C 75.3983,246.397 63.3983,245.397 51.5,243C 46.9441,239.893 42.2774,237.06 37.5,234.5C 37.3718,230.119 37.7051,225.785 38.5,221.5 Z"/></g>
<g><path style="opacity:1" fill="#506c84" d="M 132.5,221.5 C 128.809,226.904 125.142,232.238 121.5,237.5C 120.094,237.027 119.427,236.027 119.5,234.5C 121.571,227.762 125.905,223.428 132.5,221.5 Z"/></g>
<g><path style="opacity:1" fill="#758243" d="M 259.5,225.5 C 260.794,226.29 261.961,227.29 263,228.5C 265.42,227.512 267.753,227.845 270,229.5C 270.499,233.821 270.666,238.154 270.5,242.5C 270.5,244.5 270.5,246.5 270.5,248.5C 267.348,250.045 264.681,249.379 262.5,246.5C 261.571,247.689 261.238,249.022 261.5,250.5C 259.139,250.326 256.806,249.993 254.5,249.5C 247.825,247.95 242.825,250.117 239.5,256C 233.486,258.01 227.486,260.01 221.5,262C 216.546,266.75 210.546,269.084 203.5,269C 201.186,270.087 199.852,271.921 199.5,274.5C 191.012,273.814 182.512,273.148 174,272.5C 161.506,274.351 149.006,276.017 136.5,277.5C 137.635,271.891 140.301,267.224 144.5,263.5C 148.904,265.128 152.57,264.128 155.5,260.5C 155.833,260.5 156.167,260.5 156.5,260.5C 157.03,262.924 157.864,265.257 159,267.5C 160.388,268.554 161.888,268.72 163.5,268C 166.3,264.225 168.966,260.392 171.5,256.5C 172.915,257.289 174.415,257.956 176,258.5C 185.908,256.154 195.408,252.82 204.5,248.5C 207.039,249.115 209.539,249.782 212,250.5C 213.878,249.947 215.378,248.947 216.5,247.5C 220.19,242.662 225.19,240.496 231.5,241C 232.942,240.623 233.942,239.79 234.5,238.5C 236.698,238.591 237.031,237.925 235.5,236.5C 240.586,234.251 245.919,233.251 251.5,233.5C 250.929,231.64 250.929,229.973 251.5,228.5C 254.788,228.984 257.455,227.984 259.5,225.5 Z"/></g>
<g><path style="opacity:1" fill="#4b9ab9" d="M 37.5,234.5 C 42.2774,237.06 46.9441,239.893 51.5,243C 63.3983,245.397 75.3983,246.397 87.5,246C 91.9599,245.703 94.9599,243.537 96.5,239.5C 100.488,240.698 104.488,240.698 108.5,239.5C 109.074,237.941 109.74,236.441 110.5,235C 113.095,234.774 115.595,234.274 118,233.5C 118.383,234.056 118.883,234.389 119.5,234.5C 119.427,236.027 120.094,237.027 121.5,237.5C 121.5,237.833 121.5,238.167 121.5,238.5C 120.099,241.634 118.432,244.634 116.5,247.5C 116.624,248.107 116.957,248.44 117.5,248.5C 116.842,252.677 118.508,254.177 122.5,253C 125.489,248.846 128.823,245.012 132.5,241.5C 134.741,242.032 136.241,243.365 137,245.5C 137.269,248.352 138.103,251.018 139.5,253.5C 139.137,254.183 138.804,254.85 138.5,255.5C 135.543,259.792 132.21,263.792 128.5,267.5C 120.63,269.235 112.963,271.568 105.5,274.5C 101.145,274.16 97.1452,272.826 93.5,270.5C 89.1534,266.836 84.4867,263.502 79.5,260.5C 78.2278,261.046 76.8945,261.379 75.5,261.5C 71.2336,260.349 66.9003,259.683 62.5,259.5C 61.0106,257.195 59.5106,254.862 58,252.5C 54.8932,254.101 52.7265,256.435 51.5,259.5C 49.6595,258.327 47.8261,258.327 46,259.5C 42.5693,258.189 39.0693,257.189 35.5,256.5C 31.341,253.251 26.6744,250.751 21.5,249C 20.2189,247.591 19.2189,246.091 18.5,244.5C 17.8333,241.5 17.1667,238.5 16.5,235.5C 13.9952,236.417 11.6618,236.417 9.5,235.5C 11.7156,230.103 12.8823,224.437 13,218.5C 16.3875,211.338 20.2208,210.838 24.5,217C 23.5833,220.784 24.7499,223.95 28,226.5C 28.2382,230.222 28.7382,233.889 29.5,237.5C 33.2757,239.958 35.9424,238.958 37.5,234.5 Z"/></g>
<g><path style="opacity:1" fill="#5e826c" d="M 251.5,228.5 C 250.929,229.973 250.929,231.64 251.5,233.5C 245.919,233.251 240.586,234.251 235.5,236.5C 235.517,234.435 235.85,232.435 236.5,230.5C 239.803,229.174 243.136,229.174 246.5,230.5C 248.075,229.544 249.742,228.877 251.5,228.5 Z"/></g>
<g><path style="opacity:1" fill="#5da8ba" d="M 206.5,232.5 C 207.167,232.5 207.833,232.5 208.5,232.5C 210.948,233.473 213.615,233.806 216.5,233.5C 216.292,235.92 216.626,238.253 217.5,240.5C 216.289,241.874 215.289,243.374 214.5,245C 214.639,246.301 215.305,247.134 216.5,247.5C 215.378,248.947 213.878,249.947 212,250.5C 209.539,249.782 207.039,249.115 204.5,248.5C 195.408,252.82 185.908,256.154 176,258.5C 174.415,257.956 172.915,257.289 171.5,256.5C 172.696,253.579 173.696,250.579 174.5,247.5C 189.091,250.521 199.757,245.521 206.5,232.5 Z"/></g>
<g><path style="opacity:1" fill="#5d9497" d="M 234.5,238.5 C 233.942,239.79 232.942,240.623 231.5,241C 225.19,240.496 220.19,242.662 216.5,247.5C 215.305,247.134 214.639,246.301 214.5,245C 215.289,243.374 216.289,241.874 217.5,240.5C 216.626,238.253 216.292,235.92 216.5,233.5C 217.117,233.389 217.617,233.056 218,232.5C 220.774,233.687 223.441,235.02 226,236.5C 229.049,235.802 231.882,236.469 234.5,238.5 Z"/></g>
<g><path style="opacity:1" fill="#38605c" d="M 9.5,235.5 C 11.6618,236.417 13.9952,236.417 16.5,235.5C 17.1667,238.5 17.8333,241.5 18.5,244.5C 18.44,245.043 18.1067,245.376 17.5,245.5C 15.8849,244.846 14.2182,244.346 12.5,244C 9.4497,243.086 6.78303,241.586 4.5,239.5C 5.5387,237.469 7.20537,236.136 9.5,235.5 Z"/></g>
<g><path style="opacity:1" fill="#364456" d="M 137.5,231.5 C 139.91,233.792 142.743,235.459 146,236.5C 147.715,235.396 149.215,234.062 150.5,232.5C 152.228,234.226 154.228,235.559 156.5,236.5C 154.874,239.246 154.207,242.246 154.5,245.5C 152.08,245.292 149.747,245.626 147.5,246.5C 143.97,243.805 140.304,241.305 136.5,239C 135.309,236.274 135.642,233.774 137.5,231.5 Z"/></g>
<g><path style="opacity:1" fill="#2d3a2b" d="M 277.5,237.5 C 277.5,243.833 277.5,250.167 277.5,256.5C 276.883,256.389 276.383,256.056 276,255.5C 273.774,258.081 271.608,258.081 269.5,255.5C 270.219,253.236 270.552,250.903 270.5,248.5C 270.5,246.5 270.5,244.5 270.5,242.5C 273.7,241.956 276.033,240.29 277.5,237.5 Z"/></g>
<g><path style="opacity:1" fill="#486e81" d="M 121.5,238.5 C 123.273,239.314 123.773,240.648 123,242.5C 121.821,245.26 119.988,247.26 117.5,248.5C 116.957,248.44 116.624,248.107 116.5,247.5C 118.432,244.634 120.099,241.634 121.5,238.5 Z"/></g>
<g><path style="opacity:1" fill="#7b824a" d="M 1.5,239.5 C 2.5,239.5 3.5,239.5 4.5,239.5C 6.78303,241.586 9.4497,243.086 12.5,244C 14.2182,244.346 15.8849,244.846 17.5,245.5C 18.1067,245.376 18.44,245.043 18.5,244.5C 19.2189,246.091 20.2189,247.591 21.5,249C 26.6744,250.751 31.341,253.251 35.5,256.5C 34.7163,260.949 32.0496,263.282 27.5,263.5C 25.1432,263.663 22.8098,263.497 20.5,263C 15.8683,256.957 11.8683,257.124 8.5,263.5C 6.97306,263.427 5.97306,264.094 5.5,265.5C 4.79105,266.404 3.79105,266.737 2.5,266.5C 1.52895,257.584 1.19561,248.584 1.5,239.5 Z"/></g>
<g><path style="opacity:1" fill="#1b1f29" d="M 137.5,231.5 C 135.642,233.774 135.309,236.274 136.5,239C 140.304,241.305 143.97,243.805 147.5,246.5C 149.747,245.626 152.08,245.292 154.5,245.5C 158.042,246.381 160.709,248.381 162.5,251.5C 161.734,253.684 161.067,256.018 160.5,258.5C 159.234,259.362 157.901,260.029 156.5,260.5C 156.167,260.5 155.833,260.5 155.5,260.5C 154.541,257.707 152.707,255.707 150,254.5C 146.663,256.496 144.829,259.496 144.5,263.5C 140.301,267.224 137.635,271.891 136.5,277.5C 135.122,280.42 133.455,283.254 131.5,286C 129.288,286.789 127.288,286.622 125.5,285.5C 130.709,276.086 135.709,266.42 140.5,256.5C 140.043,255.702 139.376,255.369 138.5,255.5C 138.804,254.85 139.137,254.183 139.5,253.5C 138.103,251.018 137.269,248.352 137,245.5C 136.241,243.365 134.741,242.032 132.5,241.5C 128.823,245.012 125.489,248.846 122.5,253C 118.508,254.177 116.842,252.677 117.5,248.5C 119.988,247.26 121.821,245.26 123,242.5C 123.773,240.648 123.273,239.314 121.5,238.5C 121.5,238.167 121.5,237.833 121.5,237.5C 125.142,232.238 128.809,226.904 132.5,221.5C 134.936,219.983 137.102,220.316 139,222.5C 139.597,225.681 139.097,228.681 137.5,231.5 Z"/></g>
<g><path style="opacity:1" fill="#2b3137" d="M 174.5,247.5 C 173.696,250.579 172.696,253.579 171.5,256.5C 168.966,260.392 166.3,264.225 163.5,268C 161.888,268.72 160.388,268.554 159,267.5C 157.864,265.257 157.03,262.924 156.5,260.5C 157.901,260.029 159.234,259.362 160.5,258.5C 161.067,256.018 161.734,253.684 162.5,251.5C 164.288,251.785 165.955,251.452 167.5,250.5C 168.556,248.354 170.056,246.688 172,245.5C 173.301,245.639 174.134,246.305 174.5,247.5 Z"/></g>
<g><path style="opacity:1" fill="#505d31" d="M 270.5,248.5 C 270.552,250.903 270.219,253.236 269.5,255.5C 266.784,253.875 264.451,254.208 262.5,256.5C 262.565,256.062 262.399,255.728 262,255.5C 260.601,256.227 259.101,256.727 257.5,257C 254.647,261.259 250.647,263.092 245.5,262.5C 245.771,260.688 246.438,259.022 247.5,257.5C 251.98,256.688 254.313,254.021 254.5,249.5C 256.806,249.993 259.139,250.326 261.5,250.5C 261.238,249.022 261.571,247.689 262.5,246.5C 264.681,249.379 267.348,250.045 270.5,248.5 Z"/></g>
<g><path style="opacity:1" fill="#507056" d="M 62.5,259.5 C 59.5,260.167 56.5,260.833 53.5,261.5C 52.5,261.167 51.8333,260.5 51.5,259.5C 52.7265,256.435 54.8932,254.101 58,252.5C 59.5106,254.862 61.0106,257.195 62.5,259.5 Z"/></g>
<g><path style="opacity:1" fill="#518fa8" d="M 155.5,260.5 C 152.57,264.128 148.904,265.128 144.5,263.5C 144.829,259.496 146.663,256.496 150,254.5C 152.707,255.707 154.541,257.707 155.5,260.5 Z"/></g>
<g><path style="opacity:1" fill="#3d4b31" d="M 262.5,256.5 C 262.52,258.143 261.853,259.476 260.5,260.5C 262.491,263.092 264.824,265.258 267.5,267C 266.55,269.432 266.55,271.932 267.5,274.5C 265.386,275.36 264.22,277.027 264,279.5C 262.568,281.439 260.735,282.772 258.5,283.5C 256.75,280.69 254.25,278.69 251,277.5C 249.961,278.244 249.461,279.244 249.5,280.5C 244.929,282.53 240.596,285.03 236.5,288C 234.833,288.667 233.167,288.667 231.5,288C 226.363,283.846 221.363,284.179 216.5,289C 204.725,293.257 192.725,296.924 180.5,300C 176.582,301.083 174.248,303.583 173.5,307.5C 161.833,307.5 150.167,307.5 138.5,307.5C 143.11,302.002 148.444,297.168 154.5,293C 160.436,291.861 166.436,291.195 172.5,291C 178.977,288.381 185.643,286.381 192.5,285C 194.5,283.667 196.5,282.333 198.5,281C 200.141,279.871 201.141,278.371 201.5,276.5C 205.182,276.665 208.848,276.499 212.5,276C 222.991,270.426 233.991,265.926 245.5,262.5C 250.647,263.092 254.647,261.259 257.5,257C 259.101,256.727 260.601,256.227 262,255.5C 262.399,255.728 262.565,256.062 262.5,256.5 Z"/></g>
<g><path style="opacity:1" fill="#9b8975" d="M 35.5,256.5 C 39.0693,257.189 42.5693,258.189 46,259.5C 47.8261,258.327 49.6595,258.327 51.5,259.5C 51.8333,260.5 52.5,261.167 53.5,261.5C 55.9388,263.534 58.2721,265.701 60.5,268C 65.5,268.333 70.5,268.667 75.5,269C 80.1593,269.87 81.4926,272.37 79.5,276.5C 76.4962,277.668 73.4962,277.668 70.5,276.5C 64.8511,277.914 59.1845,279.248 53.5,280.5C 49.4345,279.807 45.2679,279.14 41,278.5C 40.6012,278.728 40.4346,279.062 40.5,279.5C 37.9205,278.772 35.2538,278.272 32.5,278C 31.0577,277.623 30.0577,276.79 29.5,275.5C 31.2463,273.466 31.5796,271.299 30.5,269C 29.552,268.517 28.552,268.351 27.5,268.5C 27.5,266.833 27.5,265.167 27.5,263.5C 32.0496,263.282 34.7163,260.949 35.5,256.5 Z"/></g>
<g><path style="opacity:1" fill="#647038" d="M 254.5,249.5 C 254.313,254.021 251.98,256.688 247.5,257.5C 246.438,259.022 245.771,260.688 245.5,262.5C 233.991,265.926 222.991,270.426 212.5,276C 208.848,276.499 205.182,276.665 201.5,276.5C 200.833,275.833 200.167,275.167 199.5,274.5C 199.852,271.921 201.186,270.087 203.5,269C 210.546,269.084 216.546,266.75 221.5,262C 227.486,260.01 233.486,258.01 239.5,256C 242.825,250.117 247.825,247.95 254.5,249.5 Z"/></g>
<g><path style="opacity:1" fill="#75834a" d="M 62.5,259.5 C 66.9003,259.683 71.2336,260.349 75.5,261.5C 76.8945,261.379 78.2278,261.046 79.5,260.5C 84.4867,263.502 89.1534,266.836 93.5,270.5C 92.9717,271.721 92.305,272.887 91.5,274C 87.3585,274.327 83.3585,275.161 79.5,276.5C 81.4926,272.37 80.1593,269.87 75.5,269C 70.5,268.667 65.5,268.333 60.5,268C 58.2721,265.701 55.9388,263.534 53.5,261.5C 56.5,260.833 59.5,260.167 62.5,259.5 Z"/></g>
<g><path style="opacity:1" fill="#7b7c57" d="M 27.5,263.5 C 27.5,265.167 27.5,266.833 27.5,268.5C 28.552,268.351 29.552,268.517 30.5,269C 31.5796,271.299 31.2463,273.466 29.5,275.5C 27.0311,274.393 26.0311,272.393 26.5,269.5C 24.7085,269.634 23.0418,269.301 21.5,268.5C 19.027,268.201 16.8603,267.201 15,265.5C 13.4329,266.856 11.5996,267.523 9.5,267.5C 9.76781,265.901 9.43448,264.568 8.5,263.5C 11.8683,257.124 15.8683,256.957 20.5,263C 22.8098,263.497 25.1432,263.663 27.5,263.5 Z"/></g>
<g><path style="opacity:1" fill="#425257" d="M 138.5,255.5 C 139.376,255.369 140.043,255.702 140.5,256.5C 135.709,266.42 130.709,276.086 125.5,285.5C 123.938,285.267 122.605,284.6 121.5,283.5C 124.685,278.614 127.018,273.281 128.5,267.5C 132.21,263.792 135.543,259.792 138.5,255.5 Z"/></g>
<g><path style="opacity:1" fill="#474e32" d="M 8.5,263.5 C 9.43448,264.568 9.76781,265.901 9.5,267.5C 11.5996,267.523 13.4329,266.856 15,265.5C 16.8603,267.201 19.027,268.201 21.5,268.5C 21.6495,269.552 21.4828,270.552 21,271.5C 18.5617,273.429 16.7283,275.762 15.5,278.5C 16.7065,280.449 18.3732,281.949 20.5,283C 19.944,283.383 19.6107,283.883 19.5,284.5C 17.8523,285.81 16.1856,287.143 14.5,288.5C 8.7007,285.559 7.03403,281.059 9.5,275C 9.2945,273.135 8.62783,271.468 7.5,270C 8.99229,267.636 8.32562,266.136 5.5,265.5C 5.97306,264.094 6.97306,263.427 8.5,263.5 Z"/></g>
<g><path style="opacity:1" fill="#697d3d" d="M 128.5,267.5 C 127.018,273.281 124.685,278.614 121.5,283.5C 116.973,287.072 112.973,291.072 109.5,295.5C 107.927,292.971 105.927,290.971 103.5,289.5C 99.4159,290.249 95.4159,291.249 91.5,292.5C 89.7408,291.129 87.7408,290.129 85.5,289.5C 79.8848,290.289 74.2182,290.789 68.5,291C 62.9266,294.431 56.9266,294.931 50.5,292.5C 49.6781,290.861 49.0114,289.195 48.5,287.5C 50.5547,285.445 52.2213,283.112 53.5,280.5C 59.1845,279.248 64.8511,277.914 70.5,276.5C 73.4962,277.668 76.4962,277.668 79.5,276.5C 83.3585,275.161 87.3585,274.327 91.5,274C 92.305,272.887 92.9717,271.721 93.5,270.5C 97.1452,272.826 101.145,274.16 105.5,274.5C 112.963,271.568 120.63,269.235 128.5,267.5 Z"/></g>
<g><path style="opacity:1" fill="#192524" d="M 5.5,265.5 C 8.32562,266.136 8.99229,267.636 7.5,270C 8.62783,271.468 9.2945,273.135 9.5,275C 7.03403,281.059 8.7007,285.559 14.5,288.5C 16.1856,287.143 17.8523,285.81 19.5,284.5C 20.1667,285.833 20.8333,287.167 21.5,288.5C 22.1217,289.627 22.955,290.627 24,291.5C 24.2463,294.89 24.7463,298.223 25.5,301.5C 26,301.833 26.5,302.167 27,302.5C 28.8603,300.799 31.027,299.799 33.5,299.5C 33.3939,302.079 34.0605,304.412 35.5,306.5C 24.5906,307.117 13.7573,307.117 3,306.5C 2.09681,293.123 1.93014,279.79 2.5,266.5C 3.79105,266.737 4.79105,266.404 5.5,265.5 Z"/></g>
<g><path style="opacity:1" fill="#516438" d="M 21.5,268.5 C 23.0418,269.301 24.7085,269.634 26.5,269.5C 26.0311,272.393 27.0311,274.393 29.5,275.5C 30.0577,276.79 31.0577,277.623 32.5,278C 35.2538,278.272 37.9205,278.772 40.5,279.5C 41.3195,281.812 42.1529,284.146 43,286.5C 44.6995,287.406 46.5328,287.739 48.5,287.5C 49.0114,289.195 49.6781,290.861 50.5,292.5C 56.9266,294.931 62.9266,294.431 68.5,291C 74.2182,290.789 79.8848,290.289 85.5,289.5C 87.7408,290.129 89.7408,291.129 91.5,292.5C 91.762,293.978 91.4287,295.311 90.5,296.5C 88.6251,297.54 87.2918,299.04 86.5,301C 86.6135,302.28 87.2801,303.113 88.5,303.5C 93.2265,301.091 98.2265,299.591 103.5,299C 105.879,298.284 107.879,297.117 109.5,295.5C 112.973,291.072 116.973,287.072 121.5,283.5C 122.605,284.6 123.938,285.267 125.5,285.5C 127.288,286.622 129.288,286.789 131.5,286C 133.455,283.254 135.122,280.42 136.5,277.5C 149.006,276.017 161.506,274.351 174,272.5C 182.512,273.148 191.012,273.814 199.5,274.5C 200.167,275.167 200.833,275.833 201.5,276.5C 201.141,278.371 200.141,279.871 198.5,281C 196.5,282.333 194.5,283.667 192.5,285C 185.643,286.381 178.977,288.381 172.5,291C 166.436,291.195 160.436,291.861 154.5,293C 148.444,297.168 143.11,302.002 138.5,307.5C 123.155,307.43 107.822,307.763 92.5,308.5C 77.4807,308.71 62.4807,308.377 47.5,307.5C 46.9711,305.417 45.9711,303.583 44.5,302C 38.152,301.15 34.152,297.65 32.5,291.5C 32.7605,289.813 33.4272,288.313 34.5,287C 29.8872,285.089 25.5539,285.589 21.5,288.5C 20.8333,287.167 20.1667,285.833 19.5,284.5C 19.6107,283.883 19.944,283.383 20.5,283C 18.3732,281.949 16.7065,280.449 15.5,278.5C 16.7283,275.762 18.5617,273.429 21,271.5C 21.4828,270.552 21.6495,269.552 21.5,268.5 Z"/></g>
<g><path style="opacity:1" fill="#2a382a" d="M 267.5,274.5 C 272.75,277.508 273.584,281.508 270,286.5C 265.398,288.971 261.564,287.971 258.5,283.5C 260.735,282.772 262.568,281.439 264,279.5C 264.22,277.027 265.386,275.36 267.5,274.5 Z"/></g>
<g><path style="opacity:1" fill="#161d22" d="M 269.5,255.5 C 271.608,258.081 273.774,258.081 276,255.5C 276.383,256.056 276.883,256.389 277.5,256.5C 277.5,273.5 277.5,290.5 277.5,307.5C 261.167,307.5 244.833,307.5 228.5,307.5C 228.283,304.579 228.949,301.913 230.5,299.5C 230.025,296.677 231.025,294.677 233.5,293.5C 236.122,294.95 238.622,296.617 241,298.5C 245.818,297.18 249.651,294.514 252.5,290.5C 251.787,286.957 250.787,283.623 249.5,280.5C 249.461,279.244 249.961,278.244 251,277.5C 254.25,278.69 256.75,280.69 258.5,283.5C 261.564,287.971 265.398,288.971 270,286.5C 273.584,281.508 272.75,277.508 267.5,274.5C 266.55,271.932 266.55,269.432 267.5,267C 264.824,265.258 262.491,263.092 260.5,260.5C 261.853,259.476 262.52,258.143 262.5,256.5C 264.451,254.208 266.784,253.875 269.5,255.5 Z"/></g>
<g><path style="opacity:1" fill="#7c7d56" d="M 53.5,280.5 C 52.2213,283.112 50.5547,285.445 48.5,287.5C 46.5328,287.739 44.6995,287.406 43,286.5C 42.1529,284.146 41.3195,281.812 40.5,279.5C 40.4346,279.062 40.6012,278.728 41,278.5C 45.2679,279.14 49.4345,279.807 53.5,280.5 Z"/></g>
<g><path style="opacity:1" fill="#303c2b" d="M 249.5,280.5 C 250.787,283.623 251.787,286.957 252.5,290.5C 249.651,294.514 245.818,297.18 241,298.5C 238.622,296.617 236.122,294.95 233.5,293.5C 231.025,294.677 230.025,296.677 230.5,299.5C 226.397,299.644 223.064,301.311 220.5,304.5C 216.779,302.665 214.446,303.665 213.5,307.5C 200.212,307.997 186.879,307.997 173.5,307.5C 174.248,303.583 176.582,301.083 180.5,300C 192.725,296.924 204.725,293.257 216.5,289C 221.363,284.179 226.363,283.846 231.5,288C 233.167,288.667 234.833,288.667 236.5,288C 240.596,285.03 244.929,282.53 249.5,280.5 Z"/></g>
<g><path style="opacity:1" fill="#34422b" d="M 47.5,307.5 C 43.3998,307.763 39.3998,307.43 35.5,306.5C 34.0605,304.412 33.3939,302.079 33.5,299.5C 31.027,299.799 28.8603,300.799 27,302.5C 26.5,302.167 26,301.833 25.5,301.5C 24.7463,298.223 24.2463,294.89 24,291.5C 22.955,290.627 22.1217,289.627 21.5,288.5C 25.5539,285.589 29.8872,285.089 34.5,287C 33.4272,288.313 32.7605,289.813 32.5,291.5C 34.152,297.65 38.152,301.15 44.5,302C 45.9711,303.583 46.9711,305.417 47.5,307.5 Z"/></g>
<g><path style="opacity:1" fill="#6d7349" d="M 109.5,295.5 C 107.879,297.117 105.879,298.284 103.5,299C 98.2265,299.591 93.2265,301.091 88.5,303.5C 87.2801,303.113 86.6135,302.28 86.5,301C 87.2918,299.04 88.6251,297.54 90.5,296.5C 91.4287,295.311 91.762,293.978 91.5,292.5C 95.4159,291.249 99.4159,290.249 103.5,289.5C 105.927,290.971 107.927,292.971 109.5,295.5 Z"/></g>
<g><path style="opacity:1" fill="#232e29" d="M 230.5,299.5 C 228.949,301.913 228.283,304.579 228.5,307.5C 223.5,307.5 218.5,307.5 213.5,307.5C 214.446,303.665 216.779,302.665 220.5,304.5C 223.064,301.311 226.397,299.644 230.5,299.5 Z"/></g>
<g><path style="opacity:1" fill="#0d1118" d="M -0.5,202.5 C 0.166667,202.833 0.833333,203.167 1.5,203.5C 1.5,215.5 1.5,227.5 1.5,239.5C 1.19561,248.584 1.52895,257.584 2.5,266.5C 1.93014,279.79 2.09681,293.123 3,306.5C 13.7573,307.117 24.5906,307.117 35.5,306.5C 39.3998,307.43 43.3998,307.763 47.5,307.5C 62.4807,308.377 77.4807,308.71 92.5,308.5C 91.8902,309.391 91.5569,310.391 91.5,311.5C 60.8333,311.5 30.1667,311.5 -0.5,311.5C -0.5,275.167 -0.5,238.833 -0.5,202.5 Z"/></g>
<g><path style="opacity:1" fill="#121622" d="M 138.5,307.5 C 150.167,307.5 161.833,307.5 173.5,307.5C 186.879,307.997 200.212,307.997 213.5,307.5C 218.5,307.5 223.5,307.5 228.5,307.5C 244.833,307.5 261.167,307.5 277.5,307.5C 277.5,308.833 277.5,310.167 277.5,311.5C 215.5,311.5 153.5,311.5 91.5,311.5C 91.5569,310.391 91.8902,309.391 92.5,308.5C 107.822,307.763 123.155,307.43 138.5,307.5 Z"/></g>
</svg>
