<?xml version="1.0" encoding="UTF-8"?>
<!DOCTYPE svg PUBLIC "-//W3C//DTD SVG 1.1//EN" "http://www.w3.org/Graphics/SVG/1.1/DTD/svg11.dtd">
<svg xmlns="http://www.w3.org/2000/svg" version="1.1" width="277px" height="312px" style="shape-rendering:geometricPrecision; text-rendering:geometricPrecision; image-rendering:optimizeQuality; fill-rule:evenodd; clip-rule:evenodd" xmlns:xlink="http://www.w3.org/1999/xlink">
<g><path style="opacity:1" fill="#2e4250" d="M -0.5,-0.5 C 0.833333,-0.5 2.16667,-0.5 3.5,-0.5C 2.65381,48.8605 2.65381,98.1939 3.5,147.5C 2.16667,147.5 0.833333,147.5 -0.5,147.5C -0.5,98.1667 -0.5,48.8333 -0.5,-0.5 Z"/></g>
<g><path style="opacity:1" fill="#aed3e6" d="M 3.5,-0.5 C 94.1667,-0.5 184.833,-0.5 275.5,-0.5C 275.5,12.8333 275.5,26.1667 275.5,39.5C 270.78,42.1906 265.78,44.3573 260.5,46C 256.603,49.6306 254.77,54.1306 255,59.5C 252.158,63.0428 248.991,66.2095 245.5,69C 241.495,70.0981 237.995,69.2648 235,66.5C 235.27,60.8862 234.936,55.2196 234,49.5C 231.5,47 229,44.5 226.5,42C 221.833,41.3333 217.167,41.3333 212.5,42C 208.482,45.8762 204.816,50.0428 201.5,54.5C 193.604,47.2897 185.77,39.9564 178,32.5C 174.849,26.5885 174.682,20.5885 177.5,14.5C 174.99,11.8249 173.49,12.4916 173,16.5C 172.313,22.2037 172.479,27.8704 173.5,33.5C 170.949,35.5777 169.116,38.2444 168,41.5C 162.667,53.5 157.333,65.5 152,77.5C 149.982,78.2228 148.148,79.2228 146.5,80.5C 143.923,79.6257 141.423,78.6257 139,77.5C 137.301,77.3866 136.134,78.0532 135.5,79.5C 132.146,80.261 129.313,81.9277 127,84.5C 126.166,88.6786 124.832,92.6786 123,96.5C 120.686,97.7332 118.519,99.0666 116.5,100.5C 116.167,100.5 115.833,100.5 115.5,100.5C 115.441,98.2776 114.275,97.2776 112,97.5C 109.889,97.7006 108.055,98.3673 106.5,99.5C 100.741,98.2152 96.7411,100.382 94.5,106C 95.4221,109.256 97.4221,111.589 100.5,113C 104.683,114.796 109.016,116.129 113.5,117C 115.96,118.458 118.127,120.291 120,122.5C 122.467,129.557 124.3,136.723 125.5,144C 125.289,147.804 123.789,150.971 121,153.5C 120.505,155.473 120.338,157.473 120.5,159.5C 115.848,170.14 111.182,180.807 106.5,191.5C 106.5,192.5 106.5,193.5 106.5,194.5C 104.456,195.031 102.789,196.198 101.5,198C 100.167,198.667 98.8333,198.667 97.5,198C 87.9867,192.578 77.9867,188.244 67.5,185C 65.6667,183.167 63.8333,181.333 62,179.5C 58.6506,179.746 55.1506,179.746 51.5,179.5C 48.6371,173.471 45.4704,167.471 42,161.5C 39.8914,158.753 37.3914,157.753 34.5,158.5C 33.1266,158.343 31.7932,158.51 30.5,159C 27.7895,161.628 25.4562,164.461 23.5,167.5C 20.383,167.358 17.883,166.024 16,163.5C 14.3065,158.912 12.1398,154.579 9.5,150.5C 7.92908,149.691 6.26241,149.357 4.5,149.5C 4.16667,148.833 3.83333,148.167 3.5,147.5C 2.65381,98.1939 2.65381,48.8605 3.5,-0.5 Z"/></g>
<g><path style="opacity:1" fill="#8eb5c0" d="M 173.5,33.5 C 174.906,33.9731 175.573,34.9731 175.5,36.5C 167.345,52.1025 159.845,68.1025 153,84.5C 151.871,86.1412 150.371,87.1412 148.5,87.5C 148.233,85.0347 147.566,82.7014 146.5,80.5C 148.148,79.2228 149.982,78.2228 152,77.5C 157.333,65.5 162.667,53.5 168,41.5C 169.116,38.2444 170.949,35.5777 173.5,33.5 Z"/></g>
<g><path style="opacity:1" fill="#bbe1ed" d="M 175.5,36.5 C 184.461,43.6275 192.628,51.6275 200,60.5C 203.879,67.6813 206.045,75.3479 206.5,83.5C 206.5,87.5 206.5,91.5 206.5,95.5C 190.921,97.5964 175.254,98.9297 159.5,99.5C 157.167,98.1667 154.833,98.1667 152.5,99.5C 150.09,100.438 147.756,100.438 145.5,99.5C 146.97,95.6639 147.97,91.6639 148.5,87.5C 150.371,87.1412 151.871,86.1412 153,84.5C 159.845,68.1025 167.345,52.1025 175.5,36.5 Z"/></g>
<g><path style="opacity:1" fill="#e6f2f2" d="M 275.5,39.5 C 275.5,59.5 275.5,79.5 275.5,99.5C 273.208,100.686 270.874,100.686 268.5,99.5C 266.983,99.5106 265.816,100.177 265,101.5C 262.539,107.049 260.372,112.716 258.5,118.5C 256.851,119.648 255.351,120.981 254,122.5C 249.887,131.629 246.22,140.962 243,150.5C 240.667,154.167 237.667,157.167 234,159.5C 233.059,161.727 231.892,163.727 230.5,165.5C 226.229,164.36 221.895,163.86 217.5,164C 212.58,166.916 208.247,170.582 204.5,175C 197.533,178.15 190.533,180.983 183.5,183.5C 183.127,178.452 184.294,173.785 187,169.5C 190.67,164.998 194.503,160.665 198.5,156.5C 209.189,143.42 213.189,128.42 210.5,111.5C 212.051,109.087 212.717,106.421 212.5,103.5C 212.5,102.5 212.5,101.5 212.5,100.5C 215.889,98.78 219.556,98.1134 223.5,98.5C 225.5,98.5 227.5,98.5 229.5,98.5C 237.378,96.935 237.378,95.6016 229.5,94.5C 227.5,94.5 225.5,94.5 223.5,94.5C 219.731,94.244 216.064,94.5773 212.5,95.5C 211.883,95.3893 211.383,95.056 211,94.5C 210.502,91.1832 210.335,87.8499 210.5,84.5C 209.913,73.7414 206.913,63.7414 201.5,54.5C 204.816,50.0428 208.482,45.8762 212.5,42C 217.167,41.3333 221.833,41.3333 226.5,42C 229,44.5 231.5,47 234,49.5C 234.936,55.2196 235.27,60.8862 235,66.5C 237.995,69.2648 241.495,70.0981 245.5,69C 248.991,66.2095 252.158,63.0428 255,59.5C 254.77,54.1306 256.603,49.6306 260.5,46C 265.78,44.3573 270.78,42.1906 275.5,39.5 Z"/></g>
<g><path style="opacity:1" fill="#4a4e54" d="M 201.5,54.5 C 206.913,63.7414 209.913,73.7414 210.5,84.5C 209.292,83.7659 207.959,83.4326 206.5,83.5C 206.045,75.3479 203.879,67.6813 200,60.5C 192.628,51.6275 184.461,43.6275 175.5,36.5C 175.573,34.9731 174.906,33.9731 173.5,33.5C 172.479,27.8704 172.313,22.2037 173,16.5C 173.49,12.4916 174.99,11.8249 177.5,14.5C 174.682,20.5885 174.849,26.5885 178,32.5C 185.77,39.9564 193.604,47.2897 201.5,54.5 Z"/></g>
<g><path style="opacity:1" fill="#272020" d="M 135.5,79.5 C 137.126,82.2457 137.793,85.2457 137.5,88.5C 136.171,91.4805 134.838,94.4805 133.5,97.5C 129.382,98.1851 127.382,100.518 127.5,104.5C 123.519,105.021 119.519,105.354 115.5,105.5C 115.629,103.784 115.962,102.117 116.5,100.5C 118.519,99.0666 120.686,97.7332 123,96.5C 124.832,92.6786 126.166,88.6786 127,84.5C 129.313,81.9277 132.146,80.261 135.5,79.5 Z"/></g>
<g><path style="opacity:1" fill="#493838" d="M 146.5,80.5 C 147.566,82.7014 148.233,85.0347 148.5,87.5C 144.802,87.5524 141.135,87.8857 137.5,88.5C 137.793,85.2457 137.126,82.2457 135.5,79.5C 136.134,78.0532 137.301,77.3866 139,77.5C 141.423,78.6257 143.923,79.6257 146.5,80.5 Z"/></g>
<g><path style="opacity:1" fill="#7b5d51" d="M 148.5,87.5 C 147.97,91.6639 146.97,95.6639 145.5,99.5C 145.5,100.833 145.5,102.167 145.5,103.5C 144.258,102.957 142.925,102.623 141.5,102.5C 139.177,104.425 136.51,105.758 133.5,106.5C 131.117,106.639 129.117,105.972 127.5,104.5C 127.382,100.518 129.382,98.1851 133.5,97.5C 134.838,94.4805 136.171,91.4805 137.5,88.5C 141.135,87.8857 144.802,87.5524 148.5,87.5 Z"/></g>
<g><path style="opacity:1" fill="#a1a2a1" d="M 223.5,94.5 C 223.5,95.8333 223.5,97.1667 223.5,98.5C 219.556,98.1134 215.889,98.78 212.5,100.5C 212.5,98.8333 212.5,97.1667 212.5,95.5C 216.064,94.5773 219.731,94.244 223.5,94.5 Z"/></g>
<g><path style="opacity:1" fill="#3d3e3d" d="M 223.5,94.5 C 225.5,94.5 227.5,94.5 229.5,94.5C 229.5,95.8333 229.5,97.1667 229.5,98.5C 227.5,98.5 225.5,98.5 223.5,98.5C 223.5,97.1667 223.5,95.8333 223.5,94.5 Z"/></g>
<g><path style="opacity:1" fill="#9b9c9b" d="M 229.5,94.5 C 237.378,95.6016 237.378,96.935 229.5,98.5C 229.5,97.1667 229.5,95.8333 229.5,94.5 Z"/></g>
<g><path style="opacity:1" fill="#aeafae" d="M 206.5,95.5 C 206.313,97.5643 205.813,99.5643 205,101.5C 204.329,102.252 203.496,102.586 202.5,102.5C 202.389,101.883 202.056,101.383 201.5,101C 187.501,101.166 173.501,101.666 159.5,102.5C 159.5,101.5 159.5,100.5 159.5,99.5C 175.254,98.9297 190.921,97.5964 206.5,95.5 Z"/></g>
<g><path style="opacity:1" fill="#9ba2a1" d="M 115.5,100.5 C 112.372,102.799 109.372,102.799 106.5,100.5C 106.5,100.167 106.5,99.8333 106.5,99.5C 108.055,98.3673 109.889,97.7006 112,97.5C 114.275,97.2776 115.441,98.2776 115.5,100.5 Z"/></g>
<g><path style="opacity:1" fill="#241f18" d="M 159.5,99.5 C 159.5,100.5 159.5,101.5 159.5,102.5C 159.5,102.833 159.5,103.167 159.5,103.5C 157.167,104.833 154.833,104.833 152.5,103.5C 152.5,102.167 152.5,100.833 152.5,99.5C 154.833,98.1667 157.167,98.1667 159.5,99.5 Z"/></g>
<g><path style="opacity:1" fill="#827d75" d="M 145.5,99.5 C 147.756,100.438 150.09,100.438 152.5,99.5C 152.5,100.833 152.5,102.167 152.5,103.5C 152.586,104.496 152.252,105.329 151.5,106C 149.866,106.494 148.199,106.66 146.5,106.5C 145.596,105.791 145.263,104.791 145.5,103.5C 145.5,102.167 145.5,100.833 145.5,99.5 Z"/></g>
<g><path style="opacity:1" fill="#64899b" d="M 268.5,99.5 C 269.388,102.054 269.721,104.721 269.5,107.5C 271.5,107.5 273.5,107.5 275.5,107.5C 275.5,134.5 275.5,161.5 275.5,188.5C 262.39,188.718 251.057,193.384 241.5,202.5C 241.389,201.883 241.056,201.383 240.5,201C 237.833,200.333 235.167,200.333 232.5,201C 230.074,202.145 227.741,203.478 225.5,205C 224.748,205.671 224.414,206.504 224.5,207.5C 222.801,207.34 221.134,207.506 219.5,208C 217.004,209.666 214.671,211.5 212.5,213.5C 210.567,211.404 208.233,209.904 205.5,209C 206.573,207.75 206.573,206.416 205.5,205C 205.759,203.739 206.426,202.739 207.5,202C 206.619,201.292 205.953,200.458 205.5,199.5C 205.709,198.078 206.209,196.745 207,195.5C 209.488,193.257 212.154,191.257 215,189.5C 215.791,188.255 216.291,186.922 216.5,185.5C 218.617,183.17 221.117,181.17 224,179.5C 226.885,175.131 229.051,170.464 230.5,165.5C 231.892,163.727 233.059,161.727 234,159.5C 237.667,157.167 240.667,154.167 243,150.5C 246.22,140.962 249.887,131.629 254,122.5C 255.351,120.981 256.851,119.648 258.5,118.5C 260.372,112.716 262.539,107.049 265,101.5C 265.816,100.177 266.983,99.5106 268.5,99.5 Z"/></g>
<g><path style="opacity:1" fill="#88afba" d="M 268.5,99.5 C 270.874,100.686 273.208,100.686 275.5,99.5C 275.5,102.167 275.5,104.833 275.5,107.5C 273.5,107.5 271.5,107.5 269.5,107.5C 269.721,104.721 269.388,102.054 268.5,99.5 Z"/></g>
<g><path style="opacity:1" fill="#503e31" d="M 106.5,100.5 C 109.372,102.799 112.372,102.799 115.5,100.5C 115.833,100.5 116.167,100.5 116.5,100.5C 115.962,102.117 115.629,103.784 115.5,105.5C 115.047,106.458 114.381,107.292 113.5,108C 105.987,109.992 103.654,107.492 106.5,100.5 Z"/></g>
<g><path style="opacity:1" fill="#e0e7e0" d="M 202.5,102.5 C 200.856,104.852 198.523,106.185 195.5,106.5C 194.914,106.291 194.414,105.957 194,105.5C 193.261,106.574 192.261,107.241 191,107.5C 188.566,106.678 186.066,106.344 183.5,106.5C 180.175,107.16 176.842,107.826 173.5,108.5C 169.972,107.898 166.305,107.898 162.5,108.5C 161.527,106.851 160.527,105.184 159.5,103.5C 159.5,103.167 159.5,102.833 159.5,102.5C 173.501,101.666 187.501,101.166 201.5,101C 202.056,101.383 202.389,101.883 202.5,102.5 Z"/></g>
<g><path style="opacity:1" fill="#1e191e" d="M 212.5,103.5 C 212.717,106.421 212.051,109.087 210.5,111.5C 209.167,112.167 207.833,112.833 206.5,113.5C 206.5,112.833 206.167,112.5 205.5,112.5C 205.335,109.15 205.502,105.817 206,102.5C 206.414,102.043 206.914,101.709 207.5,101.5C 209.075,102.456 210.742,103.123 212.5,103.5 Z"/></g>
<g><path style="opacity:1" fill="#22181e" d="M 106.5,99.5 C 106.5,99.8333 106.5,100.167 106.5,100.5C 103.654,107.492 105.987,109.992 113.5,108C 114.381,107.292 115.047,106.458 115.5,105.5C 119.519,105.354 123.519,105.021 127.5,104.5C 129.117,105.972 131.117,106.639 133.5,106.5C 136.51,105.758 139.177,104.425 141.5,102.5C 142.925,102.623 144.258,102.957 145.5,103.5C 145.263,104.791 145.596,105.791 146.5,106.5C 145.949,109.807 145.616,113.14 145.5,116.5C 151.565,117.797 155.565,115.631 157.5,110C 159.382,109.802 161.048,109.302 162.5,108.5C 166.305,107.898 169.972,107.898 173.5,108.5C 176.842,107.826 180.175,107.16 183.5,106.5C 184.824,108.558 184.324,110.225 182,111.5C 181.605,114.207 181.105,116.873 180.5,119.5C 179.07,119.579 177.736,119.246 176.5,118.5C 172.555,119.268 168.555,119.768 164.5,120C 160.345,121.811 158.345,124.977 158.5,129.5C 157.262,131.214 156.595,133.214 156.5,135.5C 155.639,137.386 154.639,139.22 153.5,141C 154.634,144.387 156.134,147.554 158,150.5C 158.495,152.473 158.662,154.473 158.5,156.5C 153.815,159.008 148.815,160.841 143.5,162C 142.941,162.725 142.608,163.558 142.5,164.5C 146.375,173.621 150.542,182.621 155,191.5C 157.721,195.014 160.888,195.347 164.5,192.5C 165.167,192.833 165.833,193.167 166.5,193.5C 166.653,197.309 166.653,200.975 166.5,204.5C 166.738,206.404 167.738,207.738 169.5,208.5C 170.341,210.379 170.675,212.379 170.5,214.5C 167.497,215.666 164.83,217.333 162.5,219.5C 162.34,217.847 161.674,216.514 160.5,215.5C 159.737,213.632 158.737,211.965 157.5,210.5C 155.409,207.229 153.076,204.063 150.5,201C 149.002,200.415 148.002,200.915 147.5,202.5C 144.917,201.062 142.583,201.396 140.5,203.5C 137.5,204.167 134.5,204.833 131.5,205.5C 131.778,203.654 131.111,202.32 129.5,201.5C 126.427,203.569 124.094,206.236 122.5,209.5C 121.167,212.167 119.833,214.833 118.5,217.5C 118.387,222.518 118.053,227.518 117.5,232.5C 117.634,234.292 117.301,235.958 116.5,237.5C 113.949,243.2 112.949,249.2 113.5,255.5C 111.087,257.051 108.421,257.717 105.5,257.5C 104.833,256.167 103.833,255.167 102.5,254.5C 104.22,250.17 105.22,245.67 105.5,241C 105.64,237.85 104.973,235.017 103.5,232.5C 103.5,230.5 103.5,228.5 103.5,226.5C 105.023,224.133 106.356,221.633 107.5,219C 106.713,216.901 106.38,214.734 106.5,212.5C 110.374,206.383 110.374,200.383 106.5,194.5C 106.5,193.5 106.5,192.5 106.5,191.5C 111.166,193.531 114.999,192.531 118,188.5C 122.27,180.57 126.936,172.903 132,165.5C 132.72,163.888 132.554,162.388 131.5,161C 127.886,160.064 124.22,159.564 120.5,159.5C 120.338,157.473 120.505,155.473 121,153.5C 123.789,150.971 125.289,147.804 125.5,144C 124.3,136.723 122.467,129.557 120,122.5C 118.127,120.291 115.96,118.458 113.5,117C 109.016,116.129 104.683,114.796 100.5,113C 97.4221,111.589 95.4221,109.256 94.5,106C 96.7411,100.382 100.741,98.2152 106.5,99.5 Z"/></g>
<g><path style="opacity:1" fill="#322727" d="M 206.5,83.5 C 207.959,83.4326 209.292,83.7659 210.5,84.5C 210.335,87.8499 210.502,91.1832 211,94.5C 211.383,95.056 211.883,95.3893 212.5,95.5C 212.5,97.1667 212.5,98.8333 212.5,100.5C 212.5,101.5 212.5,102.5 212.5,103.5C 210.742,103.123 209.075,102.456 207.5,101.5C 206.914,101.709 206.414,102.043 206,102.5C 205.502,105.817 205.335,109.15 205.5,112.5C 200.83,114.271 196.163,116.104 191.5,118C 187.83,118.548 184.163,119.048 180.5,119.5C 181.105,116.873 181.605,114.207 182,111.5C 184.324,110.225 184.824,108.558 183.5,106.5C 186.066,106.344 188.566,106.678 191,107.5C 192.261,107.241 193.261,106.574 194,105.5C 194.414,105.957 194.914,106.291 195.5,106.5C 198.523,106.185 200.856,104.852 202.5,102.5C 203.496,102.586 204.329,102.252 205,101.5C 205.813,99.5643 206.313,97.5643 206.5,95.5C 206.5,91.5 206.5,87.5 206.5,83.5 Z"/></g>
<g><path style="opacity:1" fill="#3d2f29" d="M 152.5,103.5 C 154.833,104.833 157.167,104.833 159.5,103.5C 160.527,105.184 161.527,106.851 162.5,108.5C 161.048,109.302 159.382,109.802 157.5,110C 155.565,115.631 151.565,117.797 145.5,116.5C 145.616,113.14 145.949,109.807 146.5,106.5C 148.199,106.66 149.866,106.494 151.5,106C 152.252,105.329 152.586,104.496 152.5,103.5 Z"/></g>
<g><path style="opacity:1" fill="#e0f3f2" d="M 205.5,112.5 C 206.167,112.5 206.5,112.833 206.5,113.5C 208.261,128.726 204.594,142.392 195.5,154.5C 191.5,158.833 187.5,163.167 183.5,167.5C 181.549,166.718 180.049,165.384 179,163.5C 173.667,153.5 168.333,143.5 163,133.5C 161.629,131.959 160.129,130.625 158.5,129.5C 158.345,124.977 160.345,121.811 164.5,120C 168.555,119.768 172.555,119.268 176.5,118.5C 177.736,119.246 179.07,119.579 180.5,119.5C 184.163,119.048 187.83,118.548 191.5,118C 196.163,116.104 200.83,114.271 205.5,112.5 Z"/></g>
<g><path style="opacity:1" fill="#47474a" d="M 210.5,111.5 C 213.189,128.42 209.189,143.42 198.5,156.5C 197.29,156.068 196.29,155.401 195.5,154.5C 204.594,142.392 208.261,128.726 206.5,113.5C 207.833,112.833 209.167,112.167 210.5,111.5 Z"/></g>
<g><path style="opacity:1" fill="#e6f3f2" d="M 156.5,135.5 C 158.17,135.751 159.67,136.418 161,137.5C 166.667,148.167 172.333,158.833 178,169.5C 178.816,170.823 179.983,171.489 181.5,171.5C 180.196,175.36 179.529,179.36 179.5,183.5C 176.612,184.078 173.612,184.078 170.5,183.5C 170.167,182.167 169.833,180.833 169.5,179.5C 167.374,172.307 164.541,165.307 161,158.5C 160.292,157.619 159.458,156.953 158.5,156.5C 158.662,154.473 158.495,152.473 158,150.5C 156.134,147.554 154.634,144.387 153.5,141C 154.639,139.22 155.639,137.386 156.5,135.5 Z"/></g>
<g><path style="opacity:1" fill="#c2c9ca" d="M 158.5,129.5 C 160.129,130.625 161.629,131.959 163,133.5C 168.333,143.5 173.667,153.5 179,163.5C 180.049,165.384 181.549,166.718 183.5,167.5C 183.267,169.062 182.6,170.395 181.5,171.5C 179.983,171.489 178.816,170.823 178,169.5C 172.333,158.833 166.667,148.167 161,137.5C 159.67,136.418 158.17,135.751 156.5,135.5C 156.595,133.214 157.262,131.214 158.5,129.5 Z"/></g>
<g><path style="opacity:1" fill="#799899" d="M 4.5,149.5 C 6.26241,149.357 7.92908,149.691 9.5,150.5C 12.1398,154.579 14.3065,158.912 16,163.5C 17.883,166.024 20.383,167.358 23.5,167.5C 24.4652,173.134 26.7986,178.134 30.5,182.5C 31.6284,186.09 33.295,189.423 35.5,192.5C 34.6744,193.451 34.5078,194.451 35,195.5C 39.7683,197.969 43.6016,201.469 46.5,206C 43.6882,208.502 40.6882,208.835 37.5,207C 34.3865,203.94 31.8865,200.44 30,196.5C 29.2747,198.158 28.108,198.658 26.5,198C 23.9348,195.92 21.2682,194.087 18.5,192.5C 18.0416,184.628 15.8749,177.295 12,170.5C 10.4712,174.901 7.63791,176.235 3.5,174.5C 3.19808,166.082 3.53141,157.748 4.5,149.5 Z"/></g>
<g><path style="opacity:1" fill="#372c26" d="M 158.5,156.5 C 159.458,156.953 160.292,157.619 161,158.5C 164.541,165.307 167.374,172.307 169.5,179.5C 168.127,179.657 166.793,179.49 165.5,179C 163.611,176.041 161.611,173.208 159.5,170.5C 155.07,173.971 154.57,177.971 158,182.5C 159.961,185.463 162.294,188.129 165,190.5C 165.333,190.167 165.667,189.833 166,189.5C 168.087,190.397 170.254,191.064 172.5,191.5C 172.982,192.416 173.315,193.416 173.5,194.5C 171.486,196.707 170.486,199.373 170.5,202.5C 168.938,202.733 167.605,203.4 166.5,204.5C 166.653,200.975 166.653,197.309 166.5,193.5C 165.833,193.167 165.167,192.833 164.5,192.5C 160.888,195.347 157.721,195.014 155,191.5C 150.542,182.621 146.375,173.621 142.5,164.5C 142.608,163.558 142.941,162.725 143.5,162C 148.815,160.841 153.815,159.008 158.5,156.5 Z"/></g>
<g><path style="opacity:1" fill="#759ca1" d="M 34.5,158.5 C 37.3914,157.753 39.8914,158.753 42,161.5C 45.4704,167.471 48.6371,173.471 51.5,179.5C 52.4408,181.05 53.1075,182.716 53.5,184.5C 51.5454,185.323 49.5454,185.49 47.5,185C 44.5685,182.715 41.9018,180.215 39.5,177.5C 37.0257,171.264 35.359,164.931 34.5,158.5 Z"/></g>
<g><path style="opacity:1" fill="#5d839b" d="M 34.5,158.5 C 35.359,164.931 37.0257,171.264 39.5,177.5C 37.5847,180.961 34.5847,182.628 30.5,182.5C 26.7986,178.134 24.4652,173.134 23.5,167.5C 25.4562,164.461 27.7895,161.628 30.5,159C 31.7932,158.51 33.1266,158.343 34.5,158.5 Z"/></g>
<g><path style="opacity:1" fill="#2a252a" d="M 120.5,159.5 C 124.22,159.564 127.886,160.064 131.5,161C 132.554,162.388 132.72,163.888 132,165.5C 126.936,172.903 122.27,180.57 118,188.5C 114.999,192.531 111.166,193.531 106.5,191.5C 111.182,180.807 115.848,170.14 120.5,159.5 Z"/></g>
<g><path style="opacity:1" fill="#a1c8d9" d="M 230.5,165.5 C 229.051,170.464 226.885,175.131 224,179.5C 221.117,181.17 218.617,183.17 216.5,185.5C 216.44,184.957 216.107,184.624 215.5,184.5C 211.461,185.902 207.461,187.402 203.5,189C 192.154,194.67 181.154,200.837 170.5,207.5C 170.5,205.833 170.5,204.167 170.5,202.5C 170.486,199.373 171.486,196.707 173.5,194.5C 173.315,193.416 172.982,192.416 172.5,191.5C 171.833,188.833 171.167,186.167 170.5,183.5C 173.612,184.078 176.612,184.078 179.5,183.5C 180.065,185.386 181.065,187.053 182.5,188.5C 184.754,187.286 185.087,185.619 183.5,183.5C 190.533,180.983 197.533,178.15 204.5,175C 208.247,170.582 212.58,166.916 217.5,164C 221.895,163.86 226.229,164.36 230.5,165.5 Z"/></g>
<g><path style="opacity:1" fill="#283731" d="M -0.5,147.5 C 0.833333,147.5 2.16667,147.5 3.5,147.5C 3.83333,148.167 4.16667,148.833 4.5,149.5C 3.53141,157.748 3.19808,166.082 3.5,174.5C 3.5,182.5 3.5,190.5 3.5,198.5C 2.16667,197.833 0.833333,197.167 -0.5,196.5C -0.5,180.167 -0.5,163.833 -0.5,147.5 Z"/></g>
<g><path style="opacity:1" fill="#7b8185" d="M 195.5,154.5 C 196.29,155.401 197.29,156.068 198.5,156.5C 194.503,160.665 190.67,164.998 187,169.5C 184.294,173.785 183.127,178.452 183.5,183.5C 185.087,185.619 184.754,187.286 182.5,188.5C 181.065,187.053 180.065,185.386 179.5,183.5C 179.529,179.36 180.196,175.36 181.5,171.5C 182.6,170.395 183.267,169.062 183.5,167.5C 187.5,163.167 191.5,158.833 195.5,154.5 Z"/></g>
<g><path style="opacity:1" fill="#8e7656" d="M 169.5,179.5 C 169.833,180.833 170.167,182.167 170.5,183.5C 171.167,186.167 171.833,188.833 172.5,191.5C 170.254,191.064 168.087,190.397 166,189.5C 165.667,189.833 165.333,190.167 165,190.5C 162.294,188.129 159.961,185.463 158,182.5C 154.57,177.971 155.07,173.971 159.5,170.5C 161.611,173.208 163.611,176.041 165.5,179C 166.793,179.49 168.127,179.657 169.5,179.5 Z"/></g>
<g><path style="opacity:1" fill="#517d8f" d="M 18.5,192.5 C 17.9874,195.397 17.6541,198.397 17.5,201.5C 12.8757,202.369 8.20907,202.369 3.5,201.5C 3.5,200.5 3.5,199.5 3.5,198.5C 3.5,190.5 3.5,182.5 3.5,174.5C 7.63791,176.235 10.4712,174.901 12,170.5C 15.8749,177.295 18.0416,184.628 18.5,192.5 Z"/></g>
<g><path style="opacity:1" fill="#6f9682" d="M 39.5,177.5 C 41.9018,180.215 44.5685,182.715 47.5,185C 49.5454,185.49 51.5454,185.323 53.5,184.5C 59.8041,188.99 66.1375,193.49 72.5,198C 73.8989,198.595 75.2322,198.428 76.5,197.5C 78.1831,198.592 80.0164,199.259 82,199.5C 85.4582,198.714 88.9582,198.38 92.5,198.5C 92.4914,200.308 92.9914,201.975 94,203.5C 97.7877,207.135 101.954,210.135 106.5,212.5C 106.38,214.734 106.713,216.901 107.5,219C 106.356,221.633 105.023,224.133 103.5,226.5C 102.406,225.418 101.073,224.752 99.5,224.5C 91.5283,225.272 83.5283,225.772 75.5,226C 73.1616,227.508 72.1616,229.675 72.5,232.5C 66.709,232.541 61.3757,231.208 56.5,228.5C 54.429,229.618 52.2623,230.618 50,231.5C 34.5371,230.716 19.0371,229.383 3.5,227.5C 3.5,218.833 3.5,210.167 3.5,201.5C 8.20907,202.369 12.8757,202.369 17.5,201.5C 17.6541,198.397 17.9874,195.397 18.5,192.5C 21.2682,194.087 23.9348,195.92 26.5,198C 28.108,198.658 29.2747,198.158 30,196.5C 31.8865,200.44 34.3865,203.94 37.5,207C 40.6882,208.835 43.6882,208.502 46.5,206C 43.6016,201.469 39.7683,197.969 35,195.5C 34.5078,194.451 34.6744,193.451 35.5,192.5C 33.295,189.423 31.6284,186.09 30.5,182.5C 34.5847,182.628 37.5847,180.961 39.5,177.5 Z"/></g>
<g><path style="opacity:1" fill="#8bbdd0" d="M 51.5,179.5 C 55.1506,179.746 58.6506,179.746 62,179.5C 63.8333,181.333 65.6667,183.167 67.5,185C 77.9867,188.244 87.9867,192.578 97.5,198C 98.8333,198.667 100.167,198.667 101.5,198C 102.789,196.198 104.456,195.031 106.5,194.5C 110.374,200.383 110.374,206.383 106.5,212.5C 101.954,210.135 97.7877,207.135 94,203.5C 92.9914,201.975 92.4914,200.308 92.5,198.5C 88.9582,198.38 85.4582,198.714 82,199.5C 80.0164,199.259 78.1831,198.592 76.5,197.5C 75.2322,198.428 73.8989,198.595 72.5,198C 66.1375,193.49 59.8041,188.99 53.5,184.5C 53.1075,182.716 52.4408,181.05 51.5,179.5 Z"/></g>
<g><path style="opacity:1" fill="#83afc1" d="M 216.5,185.5 C 216.291,186.922 215.791,188.255 215,189.5C 212.154,191.257 209.488,193.257 207,195.5C 206.209,196.745 205.709,198.078 205.5,199.5C 203.918,200.876 202.085,201.876 200,202.5C 197.95,201.209 195.783,200.709 193.5,201C 187.603,205.395 182.603,210.562 178.5,216.5C 176.938,216.733 175.605,217.4 174.5,218.5C 172.806,217.473 171.473,216.139 170.5,214.5C 170.675,212.379 170.341,210.379 169.5,208.5C 169.5,207.833 169.833,207.5 170.5,207.5C 181.154,200.837 192.154,194.67 203.5,189C 207.461,187.402 211.461,185.902 215.5,184.5C 216.107,184.624 216.44,184.957 216.5,185.5 Z"/></g>
<g><path style="opacity:1" fill="#70979b" d="M 275.5,188.5 C 275.038,193.423 275.038,198.423 275.5,203.5C 271.154,203.334 266.821,203.501 262.5,204C 261.058,204.377 260.058,205.21 259.5,206.5C 257.5,206.5 255.5,206.5 253.5,206.5C 249.5,206.5 245.5,206.5 241.5,206.5C 241.5,205.167 241.5,203.833 241.5,202.5C 251.057,193.384 262.39,188.718 275.5,188.5 Z"/></g>
<g><path style="opacity:1" fill="#75a2a1" d="M 205.5,199.5 C 205.953,200.458 206.619,201.292 207.5,202C 206.426,202.739 205.759,203.739 205.5,205C 206.573,206.416 206.573,207.75 205.5,209C 208.233,209.904 210.567,211.404 212.5,213.5C 212.5,213.833 212.5,214.167 212.5,214.5C 201.195,215.388 189.861,216.054 178.5,216.5C 182.603,210.562 187.603,205.395 193.5,201C 195.783,200.709 197.95,201.209 200,202.5C 202.085,201.876 203.918,200.876 205.5,199.5 Z"/></g>
<g><path style="opacity:1" fill="#567d75" d="M 241.5,202.5 C 241.5,203.833 241.5,205.167 241.5,206.5C 238.833,206.5 236.167,206.5 233.5,206.5C 230.57,207.299 227.57,207.632 224.5,207.5C 224.414,206.504 224.748,205.671 225.5,205C 227.741,203.478 230.074,202.145 232.5,201C 235.167,200.333 237.833,200.333 240.5,201C 241.056,201.383 241.389,201.883 241.5,202.5 Z"/></g>
<g><path style="opacity:1" fill="#99bfc6" d="M 157.5,210.5 C 156.711,210.783 156.044,211.283 155.5,212C 144.249,212.933 133.249,212.1 122.5,209.5C 124.094,206.236 126.427,203.569 129.5,201.5C 131.111,202.32 131.778,203.654 131.5,205.5C 134.5,204.833 137.5,204.167 140.5,203.5C 141.754,206.267 143.754,206.933 146.5,205.5C 147.127,204.583 147.461,203.583 147.5,202.5C 148.002,200.915 149.002,200.415 150.5,201C 153.076,204.063 155.409,207.229 157.5,210.5 Z"/></g>
<g><path style="opacity:1" fill="#5c6a75" d="M 147.5,202.5 C 147.461,203.583 147.127,204.583 146.5,205.5C 143.754,206.933 141.754,206.267 140.5,203.5C 142.583,201.396 144.917,201.062 147.5,202.5 Z"/></g>
<g><path style="opacity:1" fill="#5c6463" d="M 170.5,202.5 C 170.5,204.167 170.5,205.833 170.5,207.5C 169.833,207.5 169.5,207.833 169.5,208.5C 167.738,207.738 166.738,206.404 166.5,204.5C 167.605,203.4 168.938,202.733 170.5,202.5 Z"/></g>
<g><path style="opacity:1" fill="#698975" d="M 275.5,203.5 C 275.5,205.167 275.5,206.833 275.5,208.5C 270.874,207.089 266.374,207.423 262,209.5C 260.583,208.922 259.75,207.922 259.5,206.5C 260.058,205.21 261.058,204.377 262.5,204C 266.821,203.501 271.154,203.334 275.5,203.5 Z"/></g>
<g><path style="opacity:1" fill="#17241f" d="M -0.5,196.5 C 0.833333,197.167 2.16667,197.833 3.5,198.5C 3.5,199.5 3.5,200.5 3.5,201.5C 3.5,210.167 3.5,218.833 3.5,227.5C 3.5,232.167 3.5,236.833 3.5,241.5C 3.5,245.833 3.5,250.167 3.5,254.5C 2.16667,254.5 0.833333,254.5 -0.5,254.5C -0.5,235.167 -0.5,215.833 -0.5,196.5 Z"/></g>
<g><path style="opacity:1" fill="#8eaf82" d="M 233.5,206.5 C 236.167,206.5 238.833,206.5 241.5,206.5C 245.5,206.5 249.5,206.5 253.5,206.5C 253.762,207.978 253.429,209.311 252.5,210.5C 250.1,211.018 248.1,212.185 246.5,214C 242.94,215.237 239.273,215.737 235.5,215.5C 234.833,212.5 234.167,209.5 233.5,206.5 Z"/></g>
<g><path style="opacity:1" fill="#a1bb75" d="M 253.5,206.5 C 255.5,206.5 257.5,206.5 259.5,206.5C 259.75,207.922 260.583,208.922 262,209.5C 266.374,207.423 270.874,207.089 275.5,208.5C 275.702,210.95 275.369,213.283 274.5,215.5C 268.404,220.091 262.738,225.258 257.5,231C 255.392,231.36 253.392,232.027 251.5,233C 248.917,235.843 246.25,238.343 243.5,240.5C 240.769,238.054 238.769,235.054 237.5,231.5C 241.317,229.554 243.15,226.554 243,222.5C 239.739,221.87 236.572,220.87 233.5,219.5C 224.634,221.288 215.968,223.788 207.5,227C 200.471,227.675 193.471,228.509 186.5,229.5C 183.975,229.497 181.641,229.163 179.5,228.5C 181.521,224.249 180.187,221.916 175.5,221.5C 174.596,220.791 174.263,219.791 174.5,218.5C 175.605,217.4 176.938,216.733 178.5,216.5C 189.861,216.054 201.195,215.388 212.5,214.5C 213.134,215.947 214.301,216.613 216,216.5C 222.466,215.6 228.966,215.267 235.5,215.5C 239.273,215.737 242.94,215.237 246.5,214C 248.1,212.185 250.1,211.018 252.5,210.5C 253.429,209.311 253.762,207.978 253.5,206.5 Z"/></g>
<g><path style="opacity:1" fill="#688676" d="M 233.5,206.5 C 234.167,209.5 234.833,212.5 235.5,215.5C 228.966,215.267 222.466,215.6 216,216.5C 214.301,216.613 213.134,215.947 212.5,214.5C 212.5,214.167 212.5,213.833 212.5,213.5C 214.671,211.5 217.004,209.666 219.5,208C 221.134,207.506 222.801,207.34 224.5,207.5C 227.57,207.632 230.57,207.299 233.5,206.5 Z"/></g>
<g><path style="opacity:1" fill="#95b595" d="M 122.5,209.5 C 133.249,212.1 144.249,212.933 155.5,212C 156.044,211.283 156.711,210.783 157.5,210.5C 158.737,211.965 159.737,213.632 160.5,215.5C 160.047,216.458 159.381,217.292 158.5,218C 145.876,219.54 133.209,219.874 120.5,219C 119.956,218.283 119.289,217.783 118.5,217.5C 119.833,214.833 121.167,212.167 122.5,209.5 Z"/></g>
<g><path style="opacity:1" fill="#241f1e" d="M 170.5,214.5 C 171.473,216.139 172.806,217.473 174.5,218.5C 174.263,219.791 174.596,220.791 175.5,221.5C 176.791,222.473 176.791,223.473 175.5,224.5C 176.035,226.261 177.035,227.594 178.5,228.5C 178.144,231.776 179.144,234.443 181.5,236.5C 180.577,240.064 180.244,243.731 180.5,247.5C 178.607,251.435 175.607,253.102 171.5,252.5C 172.452,246.938 171.118,241.938 167.5,237.5C 166.692,234.55 165.358,231.883 163.5,229.5C 163.747,226.061 163.414,222.728 162.5,219.5C 164.83,217.333 167.497,215.666 170.5,214.5 Z"/></g>
<g><path style="opacity:1" fill="#a1ba7c" d="M 160.5,215.5 C 161.674,216.514 162.34,217.847 162.5,219.5C 163.414,222.728 163.747,226.061 163.5,229.5C 159.059,231.357 154.392,232.524 149.5,233C 139.833,233.667 130.167,233.667 120.5,233C 119.648,231.272 118.648,231.105 117.5,232.5C 118.053,227.518 118.387,222.518 118.5,217.5C 119.289,217.783 119.956,218.283 120.5,219C 133.209,219.874 145.876,219.54 158.5,218C 159.381,217.292 160.047,216.458 160.5,215.5 Z"/></g>
<g><path style="opacity:1" fill="#89a264" d="M 237.5,231.5 C 237.167,231.5 236.833,231.5 236.5,231.5C 236.586,230.504 236.252,229.671 235.5,229C 228.599,226.275 222.932,227.942 218.5,234C 215.623,235.127 212.623,235.794 209.5,236C 208.016,236.662 206.683,237.496 205.5,238.5C 204.317,237.496 202.984,236.662 201.5,236C 194.706,234.428 188.039,234.595 181.5,236.5C 179.144,234.443 178.144,231.776 178.5,228.5C 178.833,228.5 179.167,228.5 179.5,228.5C 181.641,229.163 183.975,229.497 186.5,229.5C 193.471,228.509 200.471,227.675 207.5,227C 215.968,223.788 224.634,221.288 233.5,219.5C 236.572,220.87 239.739,221.87 243,222.5C 243.15,226.554 241.317,229.554 237.5,231.5 Z"/></g>
<g><path style="opacity:1" fill="#6f7050" d="M 175.5,221.5 C 180.187,221.916 181.521,224.249 179.5,228.5C 179.167,228.5 178.833,228.5 178.5,228.5C 177.035,227.594 176.035,226.261 175.5,224.5C 176.791,223.473 176.791,222.473 175.5,221.5 Z"/></g>
<g><path style="opacity:1" fill="#97b070" d="M 103.5,226.5 C 103.5,228.5 103.5,230.5 103.5,232.5C 99.396,233.434 95.2294,234.101 91,234.5C 84.8942,233.245 78.7276,232.579 72.5,232.5C 72.1616,229.675 73.1616,227.508 75.5,226C 83.5283,225.772 91.5283,225.272 99.5,224.5C 101.073,224.752 102.406,225.418 103.5,226.5 Z"/></g>
<g><path style="opacity:1" fill="#314356" d="M 274.5,215.5 C 275.854,219.842 275.688,224.176 274,228.5C 264.659,234.242 255.825,240.575 247.5,247.5C 245.412,245.664 244.079,243.331 243.5,240.5C 246.25,238.343 248.917,235.843 251.5,233C 253.392,232.027 255.392,231.36 257.5,231C 262.738,225.258 268.404,220.091 274.5,215.5 Z"/></g>
<g><path style="opacity:1" fill="#a7ba63" d="M 3.5,227.5 C 19.0371,229.383 34.5371,230.716 50,231.5C 52.2623,230.618 54.429,229.618 56.5,228.5C 61.3757,231.208 66.709,232.541 72.5,232.5C 78.7276,232.579 84.8942,233.245 91,234.5C 95.2294,234.101 99.396,233.434 103.5,232.5C 104.973,235.017 105.64,237.85 105.5,241C 105.22,245.67 104.22,250.17 102.5,254.5C 96.7094,259.264 90.0428,261.931 82.5,262.5C 82.0245,255.692 78.3578,252.359 71.5,252.5C 69.842,250.346 67.842,250.013 65.5,251.5C 63.5214,249.832 61.188,249.166 58.5,249.5C 58.1667,248.167 57.8333,246.833 57.5,245.5C 59.1016,243.926 61.1016,243.259 63.5,243.5C 63.7634,240.266 62.2634,238.932 59,239.5C 52.1505,239.898 45.4839,240.898 39,242.5C 36.8261,242.213 34.6595,241.88 32.5,241.5C 30.4115,241.62 29.0782,242.62 28.5,244.5C 27.209,244.263 26.209,244.596 25.5,245.5C 22.5352,244.266 19.5352,244.266 16.5,245.5C 14.3576,240.452 11.0243,239.452 6.5,242.5C 5.58317,241.873 4.58317,241.539 3.5,241.5C 3.5,236.833 3.5,232.167 3.5,227.5 Z"/></g>
<g><path style="opacity:1" fill="#314254" d="M 236.5,231.5 C 234.974,232.492 234.307,233.992 234.5,236C 235.902,240.1 236.736,244.267 237,248.5C 234.608,251.228 232.608,254.228 231,257.5C 229.89,259.037 228.39,259.703 226.5,259.5C 221.934,256.386 216.934,254.052 211.5,252.5C 209.629,253.767 207.796,253.767 206,252.5C 202.735,254.189 199.235,255.189 195.5,255.5C 193.157,254.019 190.657,252.686 188,251.5C 182.84,253.285 178.007,255.618 173.5,258.5C 172.041,258.567 170.708,258.234 169.5,257.5C 169.5,257.167 169.5,256.833 169.5,256.5C 170.674,255.486 171.34,254.153 171.5,252.5C 175.607,253.102 178.607,251.435 180.5,247.5C 183.897,250.196 187.23,250.029 190.5,247C 197.822,248.164 202.822,245.331 205.5,238.5C 206.683,237.496 208.016,236.662 209.5,236C 212.623,235.794 215.623,235.127 218.5,234C 222.932,227.942 228.599,226.275 235.5,229C 236.252,229.671 236.586,230.504 236.5,231.5 Z"/></g>
<g><path style="opacity:1" fill="#aec163" d="M 163.5,229.5 C 165.358,231.883 166.692,234.55 167.5,237.5C 166.547,239.61 164.881,240.777 162.5,241C 152.442,240.776 142.609,241.943 133,244.5C 129.095,242.645 124.928,241.478 120.5,241C 119.295,239.624 117.962,238.458 116.5,237.5C 117.301,235.958 117.634,234.292 117.5,232.5C 118.648,231.105 119.648,231.272 120.5,233C 130.167,233.667 139.833,233.667 149.5,233C 154.392,232.524 159.059,231.357 163.5,229.5 Z"/></g>
<g><path style="opacity:1" fill="#99b05b" d="M 205.5,238.5 C 202.822,245.331 197.822,248.164 190.5,247C 187.23,250.029 183.897,250.196 180.5,247.5C 180.244,243.731 180.577,240.064 181.5,236.5C 188.039,234.595 194.706,234.428 201.5,236C 202.984,236.662 204.317,237.496 205.5,238.5 Z"/></g>
<g><path style="opacity:1" fill="#95a850" d="M 116.5,237.5 C 117.962,238.458 119.295,239.624 120.5,241C 124.928,241.478 129.095,242.645 133,244.5C 142.609,241.943 152.442,240.776 162.5,241C 164.881,240.777 166.547,239.61 167.5,237.5C 171.118,241.938 172.452,246.938 171.5,252.5C 171.34,254.153 170.674,255.486 169.5,256.5C 166.838,254.732 163.838,254.065 160.5,254.5C 157.702,253.9 155.035,252.9 152.5,251.5C 147.681,254.705 142.348,256.038 136.5,255.5C 136.265,254.903 135.765,254.57 135,254.5C 128.754,257.063 122.254,258.063 115.5,257.5C 114.5,257.167 113.833,256.5 113.5,255.5C 112.949,249.2 113.949,243.2 116.5,237.5 Z"/></g>
<g><path style="opacity:1" fill="#6f834a" d="M 16.5,245.5 C 16.5,246.167 16.5,246.833 16.5,247.5C 13.6591,249.64 12.3257,252.64 12.5,256.5C 10.8523,257.81 9.18561,259.143 7.5,260.5C 6.37765,259.37 5.04432,258.703 3.5,258.5C 3.5,257.167 3.5,255.833 3.5,254.5C 3.5,250.167 3.5,245.833 3.5,241.5C 4.58317,241.539 5.58317,241.873 6.5,242.5C 11.0243,239.452 14.3576,240.452 16.5,245.5 Z"/></g>
<g><path style="opacity:1" fill="#8fa157" d="M 57.5,245.5 C 55.4589,243.065 53.1256,242.898 50.5,245C 48.7437,251.001 51.077,253.335 57.5,252C 58.2524,251.329 58.5858,250.496 58.5,249.5C 61.188,249.166 63.5214,249.832 65.5,251.5C 64.0787,254.009 62.4121,256.343 60.5,258.5C 55.052,258.328 50.7187,260.328 47.5,264.5C 46.2976,263.595 44.9643,263.595 43.5,264.5C 41.7697,263.974 40.4363,262.974 39.5,261.5C 40.4778,261.189 41.1445,260.522 41.5,259.5C 40.1949,256.977 39.3615,254.31 39,251.5C 35.6925,248.771 32.1925,246.438 28.5,244.5C 29.0782,242.62 30.4115,241.62 32.5,241.5C 34.6595,241.88 36.8261,242.213 39,242.5C 45.4839,240.898 52.1505,239.898 59,239.5C 62.2634,238.932 63.7634,240.266 63.5,243.5C 61.1016,243.259 59.1016,243.926 57.5,245.5 Z"/></g>
<g><path style="opacity:1" fill="#181824" d="M 236.5,231.5 C 236.833,231.5 237.167,231.5 237.5,231.5C 238.769,235.054 240.769,238.054 243.5,240.5C 244.079,243.331 245.412,245.664 247.5,247.5C 252.05,249.377 254.716,252.711 255.5,257.5C 250.222,257.642 245.888,259.642 242.5,263.5C 241.15,266.572 239.817,269.572 238.5,272.5C 234.655,270.869 230.988,271.202 227.5,273.5C 226.234,271.596 224.567,270.263 222.5,269.5C 224.375,266.412 225.708,263.078 226.5,259.5C 228.39,259.703 229.89,259.037 231,257.5C 232.608,254.228 234.608,251.228 237,248.5C 236.736,244.267 235.902,240.1 234.5,236C 234.307,233.992 234.974,232.492 236.5,231.5 Z"/></g>
<g><path style="opacity:1" fill="#20202b" d="M 275.5,-0.5 C 275.833,-0.5 276.167,-0.5 276.5,-0.5C 276.5,88.1667 276.5,176.833 276.5,265.5C 275.833,265.5 275.167,265.5 274.5,265.5C 265.716,267.595 257.216,270.595 249,274.5C 247.097,271.829 246.264,268.829 246.5,265.5C 252.069,265.755 257.402,264.755 262.5,262.5C 263.833,261.5 263.833,260.5 262.5,259.5C 260.199,258.675 257.865,258.008 255.5,257.5C 254.716,252.711 252.05,249.377 247.5,247.5C 255.825,240.575 264.659,234.242 274,228.5C 275.688,224.176 275.854,219.842 274.5,215.5C 275.369,213.283 275.702,210.95 275.5,208.5C 275.5,206.833 275.5,205.167 275.5,203.5C 275.038,198.423 275.038,193.423 275.5,188.5C 275.5,161.5 275.5,134.5 275.5,107.5C 275.5,104.833 275.5,102.167 275.5,99.5C 275.5,79.5 275.5,59.5 275.5,39.5C 275.5,26.1667 275.5,12.8333 275.5,-0.5 Z"/></g>
<g><path style="opacity:1" fill="#5c704a" d="M 57.5,245.5 C 57.8333,246.833 58.1667,248.167 58.5,249.5C 58.5858,250.496 58.2524,251.329 57.5,252C 51.077,253.335 48.7437,251.001 50.5,245C 53.1256,242.898 55.4589,243.065 57.5,245.5 Z"/></g>
<g><path style="opacity:1" fill="#565d5c" d="M 25.5,245.5 C 26.6567,248.307 26.6567,250.974 25.5,253.5C 21.9837,252.244 18.9837,250.244 16.5,247.5C 16.5,246.833 16.5,246.167 16.5,245.5C 19.5352,244.266 22.5352,244.266 25.5,245.5 Z"/></g>
<g><path style="opacity:1" fill="#babba1" d="M 28.5,244.5 C 32.1925,246.438 35.6925,248.771 39,251.5C 39.3615,254.31 40.1949,256.977 41.5,259.5C 41.1445,260.522 40.4778,261.189 39.5,261.5C 36.8333,261.5 34.1667,261.5 31.5,261.5C 30.4206,259.457 28.754,258.124 26.5,257.5C 26.1667,256.167 25.8333,254.833 25.5,253.5C 26.6567,250.974 26.6567,248.307 25.5,245.5C 26.209,244.596 27.209,244.263 28.5,244.5 Z"/></g>
<g><path style="opacity:1" fill="#2c3338" d="M 16.5,247.5 C 18.9837,250.244 21.9837,252.244 25.5,253.5C 25.8333,254.833 26.1667,256.167 26.5,257.5C 24.9255,259.547 23.9255,261.881 23.5,264.5C 18.4787,263.508 14.8121,260.841 12.5,256.5C 12.3257,252.64 13.6591,249.64 16.5,247.5 Z"/></g>
<g><path style="opacity:1" fill="#4a5763" d="M 71.5,252.5 C 71.6747,254.621 71.3414,256.621 70.5,258.5C 67.0104,260.596 63.677,260.596 60.5,258.5C 62.4121,256.343 64.0787,254.009 65.5,251.5C 67.842,250.013 69.842,250.346 71.5,252.5 Z"/></g>
<g><path style="opacity:1" fill="#697547" d="M 160.5,254.5 C 160.12,256.698 160.787,258.365 162.5,259.5C 160.151,261.631 157.484,261.965 154.5,260.5C 146.282,262.414 137.948,263.748 129.5,264.5C 129.933,260.406 132.266,258.406 136.5,258.5C 136.5,257.5 136.5,256.5 136.5,255.5C 142.348,256.038 147.681,254.705 152.5,251.5C 155.035,252.9 157.702,253.9 160.5,254.5 Z"/></g>
<g><path style="opacity:1" fill="#95a269" d="M 71.5,252.5 C 78.3578,252.359 82.0245,255.692 82.5,262.5C 79.1667,262.833 75.8333,263.167 72.5,263.5C 72.2041,261.597 71.5375,259.93 70.5,258.5C 71.3414,256.621 71.6747,254.621 71.5,252.5 Z"/></g>
<g><path style="opacity:1" fill="#202938" d="M 226.5,259.5 C 225.708,263.078 224.375,266.412 222.5,269.5C 221.342,272.609 219.675,275.442 217.5,278C 214.881,277.917 212.214,277.75 209.5,277.5C 211.433,275.063 213.6,272.729 216,270.5C 216.49,269.207 216.657,267.873 216.5,266.5C 211.438,266.274 206.438,266.608 201.5,267.5C 200.141,264.777 198.308,262.444 196,260.5C 193.006,262.611 189.673,263.944 186,264.5C 182.875,263.744 179.709,263.411 176.5,263.5C 174.31,262.626 173.31,260.959 173.5,258.5C 178.007,255.618 182.84,253.285 188,251.5C 190.657,252.686 193.157,254.019 195.5,255.5C 199.235,255.189 202.735,254.189 206,252.5C 207.796,253.767 209.629,253.767 211.5,252.5C 216.934,254.052 221.934,256.386 226.5,259.5 Z"/></g>
<g><path style="opacity:1" fill="#101518" d="M -0.5,254.5 C 0.833333,254.5 2.16667,254.5 3.5,254.5C 3.5,255.833 3.5,257.167 3.5,258.5C 3.5,263.833 3.5,269.167 3.5,274.5C 3.5,277.167 3.5,279.833 3.5,282.5C 3.5,284.5 3.5,286.5 3.5,288.5C 3.5,291.5 3.5,294.5 3.5,297.5C 3.33449,301.514 3.50115,305.514 4,309.5C 4.9947,310.066 5.82803,310.733 6.5,311.5C 4.16667,311.5 1.83333,311.5 -0.5,311.5C -0.5,292.5 -0.5,273.5 -0.5,254.5 Z"/></g>
<g><path style="opacity:1" fill="#7c8f50" d="M 160.5,254.5 C 163.838,254.065 166.838,254.732 169.5,256.5C 169.5,256.833 169.5,257.167 169.5,257.5C 167.167,258.167 164.833,258.833 162.5,259.5C 160.787,258.365 160.12,256.698 160.5,254.5 Z"/></g>
<g><path style="opacity:1" fill="#606b4c" d="M 136.5,255.5 C 136.5,256.5 136.5,257.5 136.5,258.5C 132.266,258.406 129.933,260.406 129.5,264.5C 126.447,263.576 123.447,263.576 120.5,264.5C 117.927,264.852 115.594,264.352 113.5,263C 115.155,261.556 115.822,259.722 115.5,257.5C 122.254,258.063 128.754,257.063 135,254.5C 135.765,254.57 136.265,254.903 136.5,255.5 Z"/></g>
<g><path style="opacity:1" fill="#435143" d="M 26.5,257.5 C 28.754,258.124 30.4206,259.457 31.5,261.5C 30.7281,262.694 29.7281,263.694 28.5,264.5C 26.8333,264.5 25.1667,264.5 23.5,264.5C 23.9255,261.881 24.9255,259.547 26.5,257.5 Z"/></g>
<g><path style="opacity:1" fill="#202c34" d="M 169.5,257.5 C 170.708,258.234 172.041,258.567 173.5,258.5C 173.31,260.959 174.31,262.626 176.5,263.5C 175.178,265.802 175.178,268.135 176.5,270.5C 173.865,272.287 171.199,272.954 168.5,272.5C 168.586,271.504 168.252,270.671 167.5,270C 165.541,269.069 163.541,268.236 161.5,267.5C 157.381,269.059 153.381,270.893 149.5,273C 148.167,274.333 148.167,275.667 149.5,277C 154.668,277.817 159.668,277.317 164.5,275.5C 165.388,278.054 165.721,280.721 165.5,283.5C 161.5,284.167 157.5,284.833 153.5,285.5C 152.247,281.702 149.581,280.202 145.5,281C 144.695,282.113 144.028,283.279 143.5,284.5C 142.167,283.833 140.833,283.167 139.5,282.5C 139.998,278.781 139.164,275.447 137,272.5C 135.416,273.861 133.582,274.528 131.5,274.5C 131.67,273.178 131.337,272.011 130.5,271C 127.623,269.873 124.623,269.206 121.5,269C 120.62,267.644 120.286,266.144 120.5,264.5C 123.447,263.576 126.447,263.576 129.5,264.5C 137.948,263.748 146.282,262.414 154.5,260.5C 157.484,261.965 160.151,261.631 162.5,259.5C 164.833,258.833 167.167,258.167 169.5,257.5 Z"/></g>
<g><path style="opacity:1" fill="#324457" d="M 255.5,257.5 C 257.865,258.008 260.199,258.675 262.5,259.5C 263.833,260.5 263.833,261.5 262.5,262.5C 257.402,264.755 252.069,265.755 246.5,265.5C 245.167,264.833 243.833,264.167 242.5,263.5C 245.888,259.642 250.222,257.642 255.5,257.5 Z"/></g>
<g><path style="opacity:1" fill="#849068" d="M 60.5,258.5 C 63.677,260.596 67.0104,260.596 70.5,258.5C 71.5375,259.93 72.2041,261.597 72.5,263.5C 67.8995,263.976 63.3995,264.976 59,266.5C 55.1632,265.777 51.3299,265.111 47.5,264.5C 50.7187,260.328 55.052,258.328 60.5,258.5 Z"/></g>
<g><path style="opacity:1" fill="#171824" d="M 201.5,267.5 C 196.626,269.701 193.626,273.368 192.5,278.5C 187.873,279.233 183.207,279.4 178.5,279C 175.833,281 175.833,283 178.5,285C 185.371,283.727 187.704,286.227 185.5,292.5C 179.278,292.716 174.944,295.716 172.5,301.5C 173.914,304.213 175.247,306.88 176.5,309.5C 180.648,310.644 184.648,310.644 188.5,309.5C 194.508,310.703 200.508,310.703 206.5,309.5C 210.902,309.228 215.235,309.561 219.5,310.5C 222.422,308.657 223.755,305.99 223.5,302.5C 224.833,302.5 226.167,302.5 227.5,302.5C 227.095,299.285 226.095,296.285 224.5,293.5C 225.6,291.723 226.434,289.723 227,287.5C 229.438,286.432 231.605,285.098 233.5,283.5C 234.167,283.833 234.833,284.167 235.5,284.5C 235.958,288.166 236.958,291.666 238.5,295C 233.639,297.782 233.306,300.949 237.5,304.5C 236.248,306.339 236.248,308.172 237.5,310C 242.558,311.01 247.391,310.51 252,308.5C 251.534,304.301 253.367,301.801 257.5,301C 259.657,299.019 261.324,296.686 262.5,294C 266.252,293.76 269.919,293.26 273.5,292.5C 274.391,293.11 275.391,293.443 276.5,293.5C 276.5,299.5 276.5,305.5 276.5,311.5C 187.5,311.5 98.5,311.5 9.5,311.5C 9.5,311.167 9.5,310.833 9.5,310.5C 25.5035,310.667 41.5035,310.5 57.5,310C 61.4916,309.676 64.4916,307.843 66.5,304.5C 70.044,304.885 73.3773,305.885 76.5,307.5C 77.2891,307.783 77.9558,308.283 78.5,309C 85.7991,310.036 93.1325,310.536 100.5,310.5C 104.618,310.47 108.618,309.803 112.5,308.5C 126.06,310.789 139.726,311.123 153.5,309.5C 153.091,304.308 153.758,299.308 155.5,294.5C 161.322,293.589 166.322,291.089 170.5,287C 169.781,284.444 168.114,283.277 165.5,283.5C 165.721,280.721 165.388,278.054 164.5,275.5C 166.23,274.974 167.564,273.974 168.5,272.5C 171.199,272.954 173.865,272.287 176.5,270.5C 175.178,268.135 175.178,265.802 176.5,263.5C 179.709,263.411 182.875,263.744 186,264.5C 189.673,263.944 193.006,262.611 196,260.5C 198.308,262.444 200.141,264.777 201.5,267.5 Z"/></g>
<g><path style="opacity:1" fill="#6f7d4a" d="M 31.5,261.5 C 34.1667,261.5 36.8333,261.5 39.5,261.5C 40.4363,262.974 41.7697,263.974 43.5,264.5C 40.3912,268.382 38.0579,272.716 36.5,277.5C 35.609,278.11 34.609,278.443 33.5,278.5C 31.3477,276.015 28.6811,274.349 25.5,273.5C 27.0951,270.715 28.0951,267.715 28.5,264.5C 29.7281,263.694 30.7281,262.694 31.5,261.5 Z"/></g>
<g><path style="opacity:1" fill="#5a7142" d="M 12.5,256.5 C 14.8121,260.841 18.4787,263.508 23.5,264.5C 25.1667,264.5 26.8333,264.5 28.5,264.5C 28.0951,267.715 27.0951,270.715 25.5,273.5C 22.4131,273.367 20.4131,274.7 19.5,277.5C 18.0892,276.092 16.4225,275.092 14.5,274.5C 10.7027,276.948 7.036,276.948 3.5,274.5C 3.5,269.167 3.5,263.833 3.5,258.5C 5.04432,258.703 6.37765,259.37 7.5,260.5C 9.18561,259.143 10.8523,257.81 12.5,256.5 Z"/></g>
<g><path style="opacity:1" fill="#334054" d="M 113.5,255.5 C 113.833,256.5 114.5,257.167 115.5,257.5C 115.822,259.722 115.155,261.556 113.5,263C 115.594,264.352 117.927,264.852 120.5,264.5C 120.286,266.144 120.62,267.644 121.5,269C 124.623,269.206 127.623,269.873 130.5,271C 131.337,272.011 131.67,273.178 131.5,274.5C 127.299,277.252 122.632,278.086 117.5,277C 116.663,275.989 116.33,274.822 116.5,273.5C 113.185,273.972 110.851,275.805 109.5,279C 106.482,279.499 103.482,279.332 100.5,278.5C 95.7754,279.63 91.1087,280.964 86.5,282.5C 85.3744,281.192 85.3744,279.858 86.5,278.5C 94.3957,274.776 99.5623,268.776 102,260.5C 103.039,259.29 104.206,258.29 105.5,257.5C 108.421,257.717 111.087,257.051 113.5,255.5 Z"/></g>
<g><path style="opacity:1" fill="#566475" d="M 103.5,264.5 C 108.006,263.527 110.172,265.194 110,269.5C 105.939,270.564 103.772,268.897 103.5,264.5 Z"/></g>
<g><path style="opacity:1" fill="#283a4d" d="M 242.5,263.5 C 243.833,264.167 245.167,264.833 246.5,265.5C 246.264,268.829 247.097,271.829 249,274.5C 257.216,270.595 265.716,267.595 274.5,265.5C 274.751,268.909 274.417,272.242 273.5,275.5C 270.794,276.793 268.294,276.459 266,274.5C 256.172,278.72 246.005,282.054 235.5,284.5C 234.833,284.167 234.167,283.833 233.5,283.5C 233.918,280.561 235.418,278.228 238,276.5C 238.49,275.207 238.657,273.873 238.5,272.5C 239.817,269.572 241.15,266.572 242.5,263.5 Z"/></g>
<g><path style="opacity:1" fill="#384b64" d="M 209.5,277.5 C 207.143,277.337 204.81,277.503 202.5,278C 199.042,280.919 195.709,281.086 192.5,278.5C 193.626,273.368 196.626,269.701 201.5,267.5C 206.438,266.608 211.438,266.274 216.5,266.5C 216.657,267.873 216.49,269.207 216,270.5C 213.6,272.729 211.433,275.063 209.5,277.5 Z"/></g>
<g><path style="opacity:1" fill="#2b425a" d="M 168.5,272.5 C 167.564,273.974 166.23,274.974 164.5,275.5C 159.668,277.317 154.668,277.817 149.5,277C 148.167,275.667 148.167,274.333 149.5,273C 153.381,270.893 157.381,269.059 161.5,267.5C 163.541,268.236 165.541,269.069 167.5,270C 168.252,270.671 168.586,271.504 168.5,272.5 Z"/></g>
<g><path style="opacity:1" fill="#1a202c" d="M 222.5,269.5 C 224.567,270.263 226.234,271.596 227.5,273.5C 230.988,271.202 234.655,270.869 238.5,272.5C 238.657,273.873 238.49,275.207 238,276.5C 235.418,278.228 233.918,280.561 233.5,283.5C 231.605,285.098 229.438,286.432 227,287.5C 226.434,289.723 225.6,291.723 224.5,293.5C 222.94,293.481 221.44,293.148 220,292.5C 212.652,296.003 208.152,301.67 206.5,309.5C 200.508,310.703 194.508,310.703 188.5,309.5C 187.833,307.181 187.666,304.847 188,302.5C 189.667,301.5 191.333,300.5 193,299.5C 193.49,298.207 193.657,296.873 193.5,295.5C 190.169,295.982 187.503,294.982 185.5,292.5C 187.704,286.227 185.371,283.727 178.5,285C 175.833,283 175.833,281 178.5,279C 183.207,279.4 187.873,279.233 192.5,278.5C 195.709,281.086 199.042,280.919 202.5,278C 204.81,277.503 207.143,277.337 209.5,277.5C 212.214,277.75 214.881,277.917 217.5,278C 219.675,275.442 221.342,272.609 222.5,269.5 Z"/></g>
<g><path style="opacity:1" fill="#191f2b" d="M 86.5,278.5 C 85.3744,279.858 85.3744,281.192 86.5,282.5C 91.1087,280.964 95.7754,279.63 100.5,278.5C 103.482,279.332 106.482,279.499 109.5,279C 110.851,275.805 113.185,273.972 116.5,273.5C 116.33,274.822 116.663,275.989 117.5,277C 122.632,278.086 127.299,277.252 131.5,274.5C 133.582,274.528 135.416,273.861 137,272.5C 139.164,275.447 139.998,278.781 139.5,282.5C 131.268,283.854 123.602,286.688 116.5,291C 114.066,292.484 112.733,294.651 112.5,297.5C 107.897,296.617 103.23,296.283 98.5,296.5C 99.3764,301.132 100.043,305.799 100.5,310.5C 93.1325,310.536 85.7991,310.036 78.5,309C 77.9558,308.283 77.2891,307.783 76.5,307.5C 77.7624,304.482 79.4291,301.649 81.5,299C 80.8333,297.667 80.1667,296.333 79.5,295C 82.33,288.329 80.33,285.662 73.5,287C 72.2259,288.221 70.7259,289.054 69,289.5C 64.2847,287.147 59.4514,284.98 54.5,283C 53.6387,279.834 54.4721,277 57,274.5C 59.6588,275.935 62.4921,276.935 65.5,277.5C 67.9576,275.545 70.291,273.378 72.5,271C 73.7932,270.51 75.1266,270.343 76.5,270.5C 76.5,271.5 76.5,272.5 76.5,273.5C 78.5273,273.338 80.5273,273.505 82.5,274C 83.3281,275.992 84.6614,277.492 86.5,278.5 Z"/></g>
<g><path style="opacity:1" fill="#829656" d="M 25.5,273.5 C 28.6811,274.349 31.3477,276.015 33.5,278.5C 33.4431,279.609 33.1098,280.609 32.5,281.5C 28.074,280.905 23.7407,279.905 19.5,278.5C 19.5,278.167 19.5,277.833 19.5,277.5C 20.4131,274.7 22.4131,273.367 25.5,273.5 Z"/></g>
<g><path style="opacity:1" fill="#506450" d="M 3.5,274.5 C 7.036,276.948 10.7027,276.948 14.5,274.5C 16.4225,275.092 18.0892,276.092 19.5,277.5C 19.5,277.833 19.5,278.167 19.5,278.5C 15.1327,280.586 10.466,282.253 5.5,283.5C 4.81654,283.137 4.14987,282.804 3.5,282.5C 3.5,279.833 3.5,277.167 3.5,274.5 Z"/></g>
<g><path style="opacity:1" fill="#1d2432" d="M 274.5,265.5 C 275.167,265.5 275.833,265.5 276.5,265.5C 276.5,274.833 276.5,284.167 276.5,293.5C 275.391,293.443 274.391,293.11 273.5,292.5C 274.42,290.119 274.42,287.786 273.5,285.5C 269.294,284.736 265.294,285.57 261.5,288C 258.833,288.333 256.167,288.667 253.5,289C 251.568,292.831 248.902,296.164 245.5,299C 242.379,300.306 239.713,302.14 237.5,304.5C 233.306,300.949 233.639,297.782 238.5,295C 236.958,291.666 235.958,288.166 235.5,284.5C 246.005,282.054 256.172,278.72 266,274.5C 268.294,276.459 270.794,276.793 273.5,275.5C 274.417,272.242 274.751,268.909 274.5,265.5 Z"/></g>
<g><path style="opacity:1" fill="#293644" d="M 102.5,254.5 C 103.833,255.167 104.833,256.167 105.5,257.5C 104.206,258.29 103.039,259.29 102,260.5C 99.5623,268.776 94.3957,274.776 86.5,278.5C 84.6614,277.492 83.3281,275.992 82.5,274C 80.5273,273.505 78.5273,273.338 76.5,273.5C 76.5,272.5 76.5,271.5 76.5,270.5C 75.1266,270.343 73.7932,270.51 72.5,271C 70.291,273.378 67.9576,275.545 65.5,277.5C 62.4921,276.935 59.6588,275.935 57,274.5C 54.4721,277 53.6387,279.834 54.5,283C 59.4514,284.98 64.2847,287.147 69,289.5C 70.7259,289.054 72.2259,288.221 73.5,287C 80.33,285.662 82.33,288.329 79.5,295C 80.1667,296.333 80.8333,297.667 81.5,299C 79.4291,301.649 77.7624,304.482 76.5,307.5C 73.3773,305.885 70.044,304.885 66.5,304.5C 65.8535,302.844 65.1869,301.177 64.5,299.5C 66.1863,296.39 65.5196,293.89 62.5,292C 59.1235,290.93 55.7902,289.764 52.5,288.5C 48.6561,290.39 44.9894,292.556 41.5,295C 36.8749,295.306 32.3749,296.139 28,297.5C 24.3149,297.464 21.1482,296.297 18.5,294C 19.6864,291.569 21.6864,290.403 24.5,290.5C 24.7997,287.756 23.633,286.089 21,285.5C 17.6951,287.455 14.3618,289.455 11,291.5C 8.77995,289.807 6.27995,288.807 3.5,288.5C 3.5,286.5 3.5,284.5 3.5,282.5C 4.14987,282.804 4.81654,283.137 5.5,283.5C 10.466,282.253 15.1327,280.586 19.5,278.5C 23.7407,279.905 28.074,280.905 32.5,281.5C 38.0779,283.148 43.7446,283.981 49.5,284C 50.7112,283.107 50.7112,282.274 49.5,281.5C 45.1838,280.006 40.8505,278.673 36.5,277.5C 38.0579,272.716 40.3912,268.382 43.5,264.5C 44.9643,263.595 46.2976,263.595 47.5,264.5C 51.3299,265.111 55.1632,265.777 59,266.5C 63.3995,264.976 67.8995,263.976 72.5,263.5C 75.8333,263.167 79.1667,262.833 82.5,262.5C 90.0428,261.931 96.7094,259.264 102.5,254.5 Z"/></g>
<g><path style="opacity:1" fill="#525f6a" d="M 36.5,277.5 C 40.8505,278.673 45.1838,280.006 49.5,281.5C 50.7112,282.274 50.7112,283.107 49.5,284C 43.7446,283.981 38.0779,283.148 32.5,281.5C 33.1098,280.609 33.4431,279.609 33.5,278.5C 34.609,278.443 35.609,278.11 36.5,277.5 Z"/></g>
<g><path style="opacity:1" fill="#181f2b" d="M 153.5,285.5 C 151.715,289.152 152.382,292.152 155.5,294.5C 153.758,299.308 153.091,304.308 153.5,309.5C 139.726,311.123 126.06,310.789 112.5,308.5C 113.306,307.272 114.306,306.272 115.5,305.5C 120.402,303.644 125.402,301.977 130.5,300.5C 134.871,295.964 139.705,291.964 145,288.5C 145.773,286.648 145.273,285.314 143.5,284.5C 144.028,283.279 144.695,282.113 145.5,281C 149.581,280.202 152.247,281.702 153.5,285.5 Z"/></g>
<g><path style="opacity:1" fill="#32445d" d="M 139.5,282.5 C 140.833,283.167 142.167,283.833 143.5,284.5C 145.273,285.314 145.773,286.648 145,288.5C 139.705,291.964 134.871,295.964 130.5,300.5C 125.402,301.977 120.402,303.644 115.5,305.5C 114.221,303.877 112.887,302.21 111.5,300.5C 112.127,299.583 112.461,298.583 112.5,297.5C 112.733,294.651 114.066,292.484 116.5,291C 123.602,286.688 131.268,283.854 139.5,282.5 Z"/></g>
<g><path style="opacity:1" fill="#2b3e57" d="M 165.5,283.5 C 168.114,283.277 169.781,284.444 170.5,287C 166.322,291.089 161.322,293.589 155.5,294.5C 152.382,292.152 151.715,289.152 153.5,285.5C 157.5,284.833 161.5,284.167 165.5,283.5 Z"/></g>
<g><path style="opacity:1" fill="#303b54" d="M 273.5,292.5 C 269.919,293.26 266.252,293.76 262.5,294C 261.324,296.686 259.657,299.019 257.5,301C 253.367,301.801 251.534,304.301 252,308.5C 247.391,310.51 242.558,311.01 237.5,310C 236.248,308.172 236.248,306.339 237.5,304.5C 239.713,302.14 242.379,300.306 245.5,299C 248.902,296.164 251.568,292.831 253.5,289C 256.167,288.667 258.833,288.333 261.5,288C 265.294,285.57 269.294,284.736 273.5,285.5C 274.42,287.786 274.42,290.119 273.5,292.5 Z"/></g>
<g><path style="opacity:1" fill="#19202c" d="M 66.5,304.5 C 64.4916,307.843 61.4916,309.676 57.5,310C 41.5035,310.5 25.5035,310.667 9.5,310.5C 10.0283,309.279 10.695,308.113 11.5,307C 14.8168,306.502 18.1501,306.335 21.5,306.5C 21.762,305.022 21.4287,303.689 20.5,302.5C 15.7238,300.362 10.8905,298.362 6,296.5C 5.09789,296.743 4.26456,297.077 3.5,297.5C 3.5,294.5 3.5,291.5 3.5,288.5C 6.27995,288.807 8.77995,289.807 11,291.5C 14.3618,289.455 17.6951,287.455 21,285.5C 23.633,286.089 24.7997,287.756 24.5,290.5C 21.6864,290.403 19.6864,291.569 18.5,294C 21.1482,296.297 24.3149,297.464 28,297.5C 32.3749,296.139 36.8749,295.306 41.5,295C 44.9894,292.556 48.6561,290.39 52.5,288.5C 55.7902,289.764 59.1235,290.93 62.5,292C 65.5196,293.89 66.1863,296.39 64.5,299.5C 65.1869,301.177 65.8535,302.844 66.5,304.5 Z"/></g>
<g><path style="opacity:1" fill="#233042" d="M 224.5,293.5 C 226.095,296.285 227.095,299.285 227.5,302.5C 226.167,302.5 224.833,302.5 223.5,302.5C 223.755,305.99 222.422,308.657 219.5,310.5C 215.235,309.561 210.902,309.228 206.5,309.5C 208.152,301.67 212.652,296.003 220,292.5C 221.44,293.148 222.94,293.481 224.5,293.5 Z"/></g>
<g><path style="opacity:1" fill="#324457" d="M 9.5,310.5 C 9.5,310.833 9.5,311.167 9.5,311.5C 8.5,311.5 7.5,311.5 6.5,311.5C 5.82803,310.733 4.9947,310.066 4,309.5C 3.50115,305.514 3.33449,301.514 3.5,297.5C 4.26456,297.077 5.09789,296.743 6,296.5C 10.8905,298.362 15.7238,300.362 20.5,302.5C 21.4287,303.689 21.762,305.022 21.5,306.5C 18.1501,306.335 14.8168,306.502 11.5,307C 10.695,308.113 10.0283,309.279 9.5,310.5 Z"/></g>
<g><path style="opacity:1" fill="#1f2b3e" d="M 112.5,297.5 C 112.461,298.583 112.127,299.583 111.5,300.5C 112.887,302.21 114.221,303.877 115.5,305.5C 114.306,306.272 113.306,307.272 112.5,308.5C 108.618,309.803 104.618,310.47 100.5,310.5C 100.043,305.799 99.3764,301.132 98.5,296.5C 103.23,296.283 107.897,296.617 112.5,297.5 Z"/></g>
<g><path style="opacity:1" fill="#223043" d="M 185.5,292.5 C 187.503,294.982 190.169,295.982 193.5,295.5C 193.657,296.873 193.49,298.207 193,299.5C 191.333,300.5 189.667,301.5 188,302.5C 187.666,304.847 187.833,307.181 188.5,309.5C 184.648,310.644 180.648,310.644 176.5,309.5C 175.247,306.88 173.914,304.213 172.5,301.5C 174.944,295.716 179.278,292.716 185.5,292.5 Z"/></g>
</svg>
