<?xml version="1.0" encoding="UTF-8"?>
<!DOCTYPE svg PUBLIC "-//W3C//DTD SVG 1.1//EN" "http://www.w3.org/Graphics/SVG/1.1/DTD/svg11.dtd">
<svg xmlns="http://www.w3.org/2000/svg" version="1.1" width="278px" height="312px" style="shape-rendering:geometricPrecision; text-rendering:geometricPrecision; image-rendering:optimizeQuality; fill-rule:evenodd; clip-rule:evenodd" xmlns:xlink="http://www.w3.org/1999/xlink">
<g><path style="opacity:1" fill="#18182a" d="M 2.5,-0.5 C 18.8333,-0.5 35.1667,-0.5 51.5,-0.5C 54.4833,0.802598 57.4833,2.13593 60.5,3.5C 63.0063,3.77928 65.0063,2.94595 66.5,1C 72.3482,0.827163 78.0149,0.327163 83.5,-0.5C 85.5,-0.5 87.5,-0.5 89.5,-0.5C 90.6883,0.363622 91.8549,1.36362 93,2.5C 93.6667,15.5 93.6667,28.5 93,41.5C 92.2086,42.745 91.7086,44.0783 91.5,45.5C 83.1675,48.6709 76.8341,54.1709 72.5,62C 68.235,63.7594 63.9017,63.9261 59.5,62.5C 57.8144,63.8569 56.1477,65.1902 54.5,66.5C 54.1667,66.5 53.8333,66.5 53.5,66.5C 54.8271,60.3261 52.4938,58.1594 46.5,60C 39.6493,63.0189 34.6493,67.8522 31.5,74.5C 24.6966,72.1032 17.6966,70.2698 10.5,69C 8.27385,67.7727 6.77385,65.9393 6,63.5C 6.47203,50.1836 6.47203,36.8502 6,23.5C 5.78196,15.3138 4.6153,7.31385 2.5,-0.5 Z"/></g>
<g><path style="opacity:1" fill="#0d131a" d="M 51.5,-0.5 C 62.1667,-0.5 72.8333,-0.5 83.5,-0.5C 78.0149,0.327163 72.3482,0.827163 66.5,1C 65.0063,2.94595 63.0063,3.77928 60.5,3.5C 57.4833,2.13593 54.4833,0.802598 51.5,-0.5 Z"/></g>
<g><path style="opacity:1" fill="#14131f" d="M 89.5,-0.5 C 95.8333,-0.5 102.167,-0.5 108.5,-0.5C 107.828,0.267389 106.995,0.934056 106,1.5C 105.5,12.495 105.333,23.495 105.5,34.5C 105.253,37.9387 105.586,41.272 106.5,44.5C 102.664,46.5836 98.9974,48.917 95.5,51.5C 95.0713,48.8527 93.7379,46.8527 91.5,45.5C 91.7086,44.0783 92.2086,42.745 93,41.5C 93.6667,28.5 93.6667,15.5 93,2.5C 91.8549,1.36362 90.6883,0.363622 89.5,-0.5 Z"/></g>
<g><path style="opacity:1" fill="#121824" d="M 108.5,-0.5 C 164.833,-0.5 221.167,-0.5 277.5,-0.5C 277.5,-0.166667 277.5,0.166667 277.5,0.5C 269.458,0.263999 261.458,0.597332 253.5,1.5C 252.333,19.8331 251.167,38.1664 250,56.5C 246.317,55.0982 242.817,55.4316 239.5,57.5C 238.817,55.8235 237.483,55.1568 235.5,55.5C 235.737,56.791 235.404,57.791 234.5,58.5C 231.886,58.7229 230.219,57.5562 229.5,55C 226.619,53.292 223.619,51.792 220.5,50.5C 212.458,49.3772 204.458,48.8772 196.5,49C 192.442,42.6284 186.775,37.9618 179.5,35C 175.534,34.1721 171.534,33.6721 167.5,33.5C 160.925,23.1219 151.425,17.4552 139,16.5C 136.7,16.4944 134.534,16.9944 132.5,18C 128.607,21.39 125.273,25.2233 122.5,29.5C 116.695,30.7919 111.029,32.4585 105.5,34.5C 105.333,23.495 105.5,12.495 106,1.5C 106.995,0.934056 107.828,0.267389 108.5,-0.5 Z"/></g>
<g><path style="opacity:1" fill="#181118" d="M -0.5,-0.5 C 0.5,-0.5 1.5,-0.5 2.5,-0.5C 4.6153,7.31385 5.78196,15.3138 6,23.5C 6.47203,36.8502 6.47203,50.1836 6,63.5C 6.77385,65.9393 8.27385,67.7727 10.5,69C 17.6966,70.2698 24.6966,72.1032 31.5,74.5C 33.2185,76.9262 33.7185,79.5929 33,82.5C 26.6521,89.5238 23.8188,97.8571 24.5,107.5C 22.8828,108.038 21.2161,108.371 19.5,108.5C 16.353,108.077 13.1864,107.744 10,107.5C 7.17551,107.303 4.67551,107.969 2.5,109.5C 1.70951,108.599 0.709515,107.932 -0.5,107.5C -0.5,71.5 -0.5,35.5 -0.5,-0.5 Z"/></g>
<g><path style="opacity:1" fill="#1f192b" d="M 277.5,0.5 C 277.5,59.8333 277.5,119.167 277.5,178.5C 272.5,178.5 267.5,178.5 262.5,178.5C 262.666,173.821 262.499,169.155 262,164.5C 261.901,162.347 261.067,160.681 259.5,159.5C 260.984,158.527 261.484,157.193 261,155.5C 255.155,151.397 249.655,151.73 244.5,156.5C 243.279,155.972 242.113,155.305 241,154.5C 239.982,151.412 238.815,148.412 237.5,145.5C 238.163,143.196 238.83,140.863 239.5,138.5C 239.426,130.811 239.093,123.144 238.5,115.5C 238.5,113.5 238.5,111.5 238.5,109.5C 240.045,105.838 241.712,102.172 243.5,98.5C 251.872,96.8099 252.539,93.8099 245.5,89.5C 245.5,86.8333 245.5,84.1667 245.5,81.5C 245.483,79.4352 245.15,77.4352 244.5,75.5C 245.172,72.0581 244.172,69.3914 241.5,67.5C 241.167,66.5 240.5,65.8333 239.5,65.5C 239.5,62.8333 239.5,60.1667 239.5,57.5C 242.817,55.4316 246.317,55.0982 250,56.5C 251.167,38.1664 252.333,19.8331 253.5,1.5C 261.458,0.597332 269.458,0.263999 277.5,0.5 Z"/></g>
<g><path style="opacity:1" fill="#242538" d="M 167.5,33.5 C 167.5,35.5 167.5,37.5 167.5,39.5C 164.833,38.5 162.167,37.5 159.5,36.5C 156.694,32.8627 153.361,29.6961 149.5,27C 139.086,23.5411 131.419,26.7078 126.5,36.5C 125.264,37.2458 123.93,37.5792 122.5,37.5C 116.933,39.2834 111.599,41.6167 106.5,44.5C 105.586,41.272 105.253,37.9387 105.5,34.5C 111.029,32.4585 116.695,30.7919 122.5,29.5C 125.273,25.2233 128.607,21.39 132.5,18C 134.534,16.9944 136.7,16.4944 139,16.5C 151.425,17.4552 160.925,23.1219 167.5,33.5 Z"/></g>
<g><path style="opacity:1" fill="#5e504c" d="M 159.5,36.5 C 158.713,38.1042 157.38,38.7709 155.5,38.5C 155.752,41.3198 155.252,43.9865 154,46.5C 152.644,47.3802 151.144,47.7135 149.5,47.5C 149.567,46.0413 149.234,44.7079 148.5,43.5C 149.922,43.2504 150.922,42.417 151.5,41C 150.407,38.5567 149.407,36.0567 148.5,33.5C 144.38,34.6944 140.047,34.6944 135.5,33.5C 134.314,38.6877 134.314,43.6877 135.5,48.5C 134.178,48.67 133.011,48.3366 132,47.5C 130.559,44.9533 130.059,42.4533 130.5,40C 128.893,39.8849 127.393,40.3849 126,41.5C 124.598,40.3551 123.431,39.0217 122.5,37.5C 123.93,37.5792 125.264,37.2458 126.5,36.5C 131.419,26.7078 139.086,23.5411 149.5,27C 153.361,29.6961 156.694,32.8627 159.5,36.5 Z"/></g>
<g><path style="opacity:1" fill="#b6a385" d="M 148.5,43.5 C 144.717,43.2528 142.05,44.7528 140.5,48C 141.509,49.1681 142.509,50.3348 143.5,51.5C 140.874,52.4492 138.208,52.4492 135.5,51.5C 135.5,50.5 135.5,49.5 135.5,48.5C 134.314,43.6877 134.314,38.6877 135.5,33.5C 140.047,34.6944 144.38,34.6944 148.5,33.5C 149.407,36.0567 150.407,38.5567 151.5,41C 150.922,42.417 149.922,43.2504 148.5,43.5 Z"/></g>
<g><path style="opacity:1" fill="#2a252a" d="M 167.5,33.5 C 171.534,33.6721 175.534,34.1721 179.5,35C 186.775,37.9618 192.442,42.6284 196.5,49C 204.458,48.8772 212.458,49.3772 220.5,50.5C 223.619,51.792 226.619,53.292 229.5,55C 230.219,57.5562 231.886,58.7229 234.5,58.5C 234.702,60.9496 234.369,63.283 233.5,65.5C 232.504,65.4142 231.671,65.7476 231,66.5C 230.503,69.146 230.336,71.8127 230.5,74.5C 228.692,75.9179 228.025,77.9179 228.5,80.5C 227.596,81.209 227.263,82.209 227.5,83.5C 225.172,85.1661 224.172,87.4995 224.5,90.5C 224.363,92.8405 225.03,94.8405 226.5,96.5C 222.819,96.9417 219.486,97.9417 216.5,99.5C 215.64,96.3676 214.64,93.3676 213.5,90.5C 211.289,79.819 206.622,70.4857 199.5,62.5C 197.443,58.933 194.777,55.7663 191.5,53C 184.106,47.4428 176.106,42.9428 167.5,39.5C 167.5,37.5 167.5,35.5 167.5,33.5 Z"/></g>
<g><path style="opacity:1" fill="#372b2a" d="M 91.5,45.5 C 93.7379,46.8527 95.0713,48.8527 95.5,51.5C 92.1938,54.1395 89.1938,57.1395 86.5,60.5C 76.7387,72.3697 71.072,86.0364 69.5,101.5C 69.6664,105.674 68.9997,109.674 67.5,113.5C 64.2365,112.518 60.9032,111.851 57.5,111.5C 57.5,107.833 57.5,104.167 57.5,100.5C 57.7166,95.7697 57.3833,91.1031 56.5,86.5C 56.3709,83.172 57.0376,79.8386 58.5,76.5C 58.2634,72.6983 56.9301,69.3649 54.5,66.5C 56.1477,65.1902 57.8144,63.8569 59.5,62.5C 63.9017,63.9261 68.235,63.7594 72.5,62C 76.8341,54.1709 83.1675,48.6709 91.5,45.5 Z"/></g>
<g><path style="opacity:1" fill="#736052" d="M 159.5,36.5 C 162.167,37.5 164.833,38.5 167.5,39.5C 176.106,42.9428 184.106,47.4428 191.5,53C 194.777,55.7663 197.443,58.933 199.5,62.5C 197.396,64.0987 195.396,65.932 193.5,68C 195.607,69.2635 196.607,71.0968 196.5,73.5C 194.974,74.1047 193.974,75.2714 193.5,77C 191.098,77.8141 188.765,77.6474 186.5,76.5C 185.985,74.1536 185.652,71.487 185.5,68.5C 183.473,68.6621 181.473,68.4955 179.5,68C 178.748,67.3292 178.414,66.4959 178.5,65.5C 178.418,63.7483 179.251,62.7483 181,62.5C 183.428,64.7413 185.928,64.9079 188.5,63C 183.372,57.6007 177.372,53.434 170.5,50.5C 169.818,51.2427 169.151,51.9094 168.5,52.5C 166.833,51.8333 165.167,51.1667 163.5,50.5C 163.5,49.5 163.5,48.5 163.5,47.5C 161.416,46.7517 159.416,46.7517 157.5,47.5C 155.694,50.472 153.694,53.3053 151.5,56C 154.846,58.6682 158.513,59.1682 162.5,57.5C 163.287,59.1042 164.62,59.7709 166.5,59.5C 167.044,62.6996 168.71,65.0329 171.5,66.5C 171.672,67.4916 171.338,68.1583 170.5,68.5C 168.33,67.2515 165.996,66.2515 163.5,65.5C 161.816,66.5272 160.149,67.5272 158.5,68.5C 152.6,68.9344 150.267,66.2677 151.5,60.5C 143.427,59.3406 135.427,59.8406 127.5,62C 126.351,63.6037 126.351,65.2703 127.5,67C 127.164,68.0299 126.497,68.5299 125.5,68.5C 124.143,67.3146 122.643,66.3146 121,65.5C 116.764,67.249 112.931,69.5824 109.5,72.5C 109.047,71.5416 108.381,70.7083 107.5,70C 108.451,69.2825 108.617,68.4491 108,67.5C 107.051,65.9069 105.885,64.5736 104.5,63.5C 104.222,61.6536 104.889,60.3202 106.5,59.5C 108.316,60.8149 109.983,62.3149 111.5,64C 116.611,65.0015 118.611,63.1682 117.5,58.5C 120.079,58.6061 122.412,57.9395 124.5,56.5C 124.987,57.4734 125.487,58.4734 126,59.5C 128.382,58.4459 130.882,57.7792 133.5,57.5C 133.649,56.448 133.483,55.448 133,54.5C 130.684,52.5296 128.851,50.1963 127.5,47.5C 125.584,46.7517 123.584,46.7517 121.5,47.5C 121.5,48.8333 121.5,50.1667 121.5,51.5C 119.708,51.366 118.042,51.6993 116.5,52.5C 116.134,51.3054 115.301,50.6387 114,50.5C 105.771,54.5182 98.6045,59.8515 92.5,66.5C 90.8333,64.1667 88.8333,62.1667 86.5,60.5C 89.1938,57.1395 92.1938,54.1395 95.5,51.5C 98.9974,48.917 102.664,46.5836 106.5,44.5C 111.599,41.6167 116.933,39.2834 122.5,37.5C 123.431,39.0217 124.598,40.3551 126,41.5C 127.393,40.3849 128.893,39.8849 130.5,40C 130.059,42.4533 130.559,44.9533 132,47.5C 133.011,48.3366 134.178,48.67 135.5,48.5C 135.5,49.5 135.5,50.5 135.5,51.5C 138.208,52.4492 140.874,52.4492 143.5,51.5C 142.509,50.3348 141.509,49.1681 140.5,48C 142.05,44.7528 144.717,43.2528 148.5,43.5C 149.234,44.7079 149.567,46.0413 149.5,47.5C 151.144,47.7135 152.644,47.3802 154,46.5C 155.252,43.9865 155.752,41.3198 155.5,38.5C 157.38,38.7709 158.713,38.1042 159.5,36.5 Z"/></g>
<g><path style="opacity:1" fill="#3d3237" d="M 163.5,50.5 C 161.647,52.6914 161.313,55.0248 162.5,57.5C 158.513,59.1682 154.846,58.6682 151.5,56C 153.694,53.3053 155.694,50.472 157.5,47.5C 159.416,46.7517 161.416,46.7517 163.5,47.5C 163.5,48.5 163.5,49.5 163.5,50.5 Z"/></g>
<g><path style="opacity:1" fill="#463635" d="M 116.5,52.5 C 116.325,54.6208 116.659,56.6208 117.5,58.5C 118.611,63.1682 116.611,65.0015 111.5,64C 109.983,62.3149 108.316,60.8149 106.5,59.5C 104.889,60.3202 104.222,61.6536 104.5,63.5C 103.833,64.1667 103.167,64.8333 102.5,65.5C 96.8063,65.5979 95.1397,68.2645 97.5,73.5C 97.67,74.8221 97.3366,75.9887 96.5,77C 93.1194,77.9149 90.1194,79.4149 87.5,81.5C 86.8333,81.5 86.1667,81.5 85.5,81.5C 84.9569,81.44 84.6236,81.1067 84.5,80.5C 86.8224,75.5415 89.489,70.8749 92.5,66.5C 98.6045,59.8515 105.771,54.5182 114,50.5C 115.301,50.6387 116.134,51.3054 116.5,52.5 Z"/></g>
<g><path style="opacity:1" fill="#a18f6f" d="M 163.5,50.5 C 165.167,51.1667 166.833,51.8333 168.5,52.5C 168.829,55.2282 168.163,57.5615 166.5,59.5C 164.62,59.7709 163.287,59.1042 162.5,57.5C 161.313,55.0248 161.647,52.6914 163.5,50.5 Z"/></g>
<g><path style="opacity:1" fill="#3d3237" d="M 178.5,65.5 C 176.847,65.6596 175.514,66.3263 174.5,67.5C 173.609,66.8902 172.609,66.5569 171.5,66.5C 168.71,65.0329 167.044,62.6996 166.5,59.5C 168.163,57.5615 168.829,55.2282 168.5,52.5C 169.151,51.9094 169.818,51.2427 170.5,50.5C 177.372,53.434 183.372,57.6007 188.5,63C 185.928,64.9079 183.428,64.7413 181,62.5C 179.251,62.7483 178.418,63.7483 178.5,65.5 Z"/></g>
<g><path style="opacity:1" fill="#ae9c75" d="M 121.5,51.5 C 123.727,52.4006 124.727,54.0672 124.5,56.5C 122.412,57.9395 120.079,58.6061 117.5,58.5C 116.659,56.6208 116.325,54.6208 116.5,52.5C 118.042,51.6993 119.708,51.366 121.5,51.5 Z"/></g>
<g><path style="opacity:1" fill="#463935" d="M 124.5,56.5 C 124.727,54.0672 123.727,52.4006 121.5,51.5C 121.5,50.1667 121.5,48.8333 121.5,47.5C 123.584,46.7517 125.584,46.7517 127.5,47.5C 128.851,50.1963 130.684,52.5296 133,54.5C 133.483,55.448 133.649,56.448 133.5,57.5C 130.882,57.7792 128.382,58.4459 126,59.5C 125.487,58.4734 124.987,57.4734 124.5,56.5 Z"/></g>
<g><path style="opacity:1" fill="#ba9f80" d="M 239.5,57.5 C 239.5,60.1667 239.5,62.8333 239.5,65.5C 237.5,65.5 235.5,65.5 233.5,65.5C 234.369,63.283 234.702,60.9496 234.5,58.5C 235.404,57.791 235.737,56.791 235.5,55.5C 237.483,55.1568 238.817,55.8235 239.5,57.5 Z"/></g>
<g><path style="opacity:1" fill="#836a4b" d="M 86.5,60.5 C 88.8333,62.1667 90.8333,64.1667 92.5,66.5C 89.489,70.8749 86.8224,75.5415 84.5,80.5C 84.6236,81.1067 84.9569,81.44 85.5,81.5C 83.0156,83.5452 82.0156,86.2118 82.5,89.5C 81.5041,89.4142 80.6708,89.7476 80,90.5C 78.4383,94.0145 77.605,97.6811 77.5,101.5C 74.8707,102.714 72.204,102.714 69.5,101.5C 71.072,86.0364 76.7387,72.3697 86.5,60.5 Z"/></g>
<g><path style="opacity:1" fill="#5c4940" d="M 158.5,68.5 C 158.05,72.224 159.717,74.3907 163.5,75C 166.304,75.1293 168.97,74.796 171.5,74C 172.152,76.0905 172.319,78.2571 172,80.5C 173.264,82.607 175.097,83.607 177.5,83.5C 177.5,84.8333 177.5,86.1667 177.5,87.5C 179.099,87.2322 180.432,87.5655 181.5,88.5C 180.861,89.0968 180.528,89.9302 180.5,91C 182.44,95.8239 183.774,100.824 184.5,106C 184.472,107.07 184.139,107.903 183.5,108.5C 182.5,108.5 181.5,108.5 180.5,108.5C 180.715,97.7627 176.715,88.9293 168.5,82C 156.768,72.9814 143.768,70.1481 129.5,73.5C 128.817,71.8235 127.483,71.1568 125.5,71.5C 125.5,70.5 125.5,69.5 125.5,68.5C 126.497,68.5299 127.164,68.0299 127.5,67C 126.351,65.2703 126.351,63.6037 127.5,62C 135.427,59.8406 143.427,59.3406 151.5,60.5C 150.267,66.2677 152.6,68.9344 158.5,68.5 Z"/></g>
<g><path style="opacity:1" fill="#7d624b" d="M 199.5,62.5 C 206.622,70.4857 211.289,79.819 213.5,90.5C 211.824,92.8337 209.491,93.8337 206.5,93.5C 205.027,87.5835 202.861,81.9168 200,76.5C 198.961,75.2899 197.794,74.2899 196.5,73.5C 196.607,71.0968 195.607,69.2635 193.5,68C 195.396,65.932 197.396,64.0987 199.5,62.5 Z"/></g>
<g><path style="opacity:1" fill="#957d63" d="M 102.5,65.5 C 103.683,67.8457 103.35,70.1791 101.5,72.5C 100.311,73.4287 98.9778,73.762 97.5,73.5C 95.1397,68.2645 96.8063,65.5979 102.5,65.5 Z"/></g>
<g><path style="opacity:1" fill="#5d3932" d="M 53.5,66.5 C 53.8333,66.5 54.1667,66.5 54.5,66.5C 56.9301,69.3649 58.2634,72.6983 58.5,76.5C 57.0376,79.8386 56.3709,83.172 56.5,86.5C 54.7754,82.9162 53.7754,78.9162 53.5,74.5C 52.3112,73.5713 50.9778,73.238 49.5,73.5C 49.7373,74.791 49.404,75.791 48.5,76.5C 47.5,76.5 46.5,76.5 45.5,76.5C 45.8072,71.1941 48.4738,67.8608 53.5,66.5 Z"/></g>
<g><path style="opacity:1" fill="#e7c193" d="M 233.5,65.5 C 235.5,65.5 237.5,65.5 239.5,65.5C 240.5,65.8333 241.167,66.5 241.5,67.5C 239.832,69.4786 239.166,71.812 239.5,74.5C 236.477,75.6776 233.477,75.6776 230.5,74.5C 230.336,71.8127 230.503,69.146 231,66.5C 231.671,65.7476 232.504,65.4142 233.5,65.5 Z"/></g>
<g><path style="opacity:1" fill="#4b3734" d="M 125.5,68.5 C 125.5,69.5 125.5,70.5 125.5,71.5C 124.359,73.2427 122.692,74.2427 120.5,74.5C 118.675,73.3489 116.675,72.6822 114.5,72.5C 114.663,74.8568 114.497,77.1902 114,79.5C 110.458,82.3267 107.958,81.4933 106.5,77C 107.315,75.3566 108.315,73.8566 109.5,72.5C 112.931,69.5824 116.764,67.249 121,65.5C 122.643,66.3146 124.143,67.3146 125.5,68.5 Z"/></g>
<g><path style="opacity:1" fill="#443334" d="M 170.5,68.5 C 172.543,71.1751 175.043,73.5084 178,75.5C 179.664,77.7856 179.83,80.1189 178.5,82.5C 177.833,82.5 177.5,82.8333 177.5,83.5C 175.097,83.607 173.264,82.607 172,80.5C 172.319,78.2571 172.152,76.0905 171.5,74C 168.97,74.796 166.304,75.1293 163.5,75C 159.717,74.3907 158.05,72.224 158.5,68.5C 160.149,67.5272 161.816,66.5272 163.5,65.5C 165.996,66.2515 168.33,67.2515 170.5,68.5 Z"/></g>
<g><path style="opacity:1" fill="#645045" d="M 171.5,66.5 C 172.609,66.5569 173.609,66.8902 174.5,67.5C 180.044,72.5533 184.711,78.3866 188.5,85C 189.928,85.5791 191.262,85.4124 192.5,84.5C 193.639,87.0037 194.306,89.6703 194.5,92.5C 193.286,95.1293 193.286,97.796 194.5,100.5C 194.5,102.5 194.5,104.5 194.5,106.5C 193.5,106.5 192.5,106.5 191.5,106.5C 191.057,100.17 189.391,94.1704 186.5,88.5C 185.311,87.5713 183.978,87.238 182.5,87.5C 183.244,84.0504 181.91,82.3838 178.5,82.5C 179.83,80.1189 179.664,77.7856 178,75.5C 175.043,73.5084 172.543,71.1751 170.5,68.5C 171.338,68.1583 171.672,67.4916 171.5,66.5 Z"/></g>
<g><path style="opacity:1" fill="#caa482" d="M 241.5,67.5 C 244.172,69.3914 245.172,72.0581 244.5,75.5C 240.097,76.2546 236.431,78.2546 233.5,81.5C 231.708,81.634 230.042,81.3007 228.5,80.5C 228.025,77.9179 228.692,75.9179 230.5,74.5C 233.477,75.6776 236.477,75.6776 239.5,74.5C 239.166,71.812 239.832,69.4786 241.5,67.5 Z"/></g>
<g><path style="opacity:1" fill="#4f3c36" d="M 178.5,65.5 C 178.414,66.4959 178.748,67.3292 179.5,68C 181.473,68.4955 183.473,68.6621 185.5,68.5C 185.652,71.487 185.985,74.1536 186.5,76.5C 188.765,77.6474 191.098,77.8141 193.5,77C 193.974,75.2714 194.974,74.1047 196.5,73.5C 197.794,74.2899 198.961,75.2899 200,76.5C 202.861,81.9168 205.027,87.5835 206.5,93.5C 206.5,94.5 206.5,95.5 206.5,96.5C 206.167,97.5 205.5,98.1667 204.5,98.5C 203.518,97.8592 202.518,97.1925 201.5,96.5C 199.146,97.9983 196.813,99.3317 194.5,100.5C 193.286,97.796 193.286,95.1293 194.5,92.5C 195.496,92.4142 196.329,92.7476 197,93.5C 197.667,92.8333 198.333,92.1667 199,91.5C 198.598,89.1261 198.764,86.7928 199.5,84.5C 197.808,82.6414 196.308,80.6414 195,78.5C 191.072,79.7777 190.239,81.7777 192.5,84.5C 191.262,85.4124 189.928,85.5791 188.5,85C 184.711,78.3866 180.044,72.5533 174.5,67.5C 175.514,66.3263 176.847,65.6596 178.5,65.5 Z"/></g>
<g><path style="opacity:1" fill="#bbada9" d="M 244.5,75.5 C 245.15,77.4352 245.483,79.4352 245.5,81.5C 244.504,81.5858 243.671,81.2524 243,80.5C 240.942,82.0683 238.775,83.4017 236.5,84.5C 234.484,84.4841 233.484,83.4841 233.5,81.5C 236.431,78.2546 240.097,76.2546 244.5,75.5 Z"/></g>
<g><path style="opacity:1" fill="#84583e" d="M 45.5,76.5 C 46.5,76.5 47.5,76.5 48.5,76.5C 48.6641,79.1873 48.4974,81.854 48,84.5C 45.7474,85.6098 44.5808,87.4431 44.5,90C 45.4109,92.5799 45.4109,95.0799 44.5,97.5C 43.4324,98.4345 42.099,98.7678 40.5,98.5C 40.5,95.1667 40.5,91.8333 40.5,88.5C 39.5,88.5 38.5,88.5 37.5,88.5C 36.4991,87.2113 36.6658,85.8779 38,84.5C 41.3825,82.6188 43.8825,79.9522 45.5,76.5 Z"/></g>
<g><path style="opacity:1" fill="#7c644a" d="M 194.5,92.5 C 194.306,89.6703 193.639,87.0037 192.5,84.5C 190.239,81.7777 191.072,79.7777 195,78.5C 196.308,80.6414 197.808,82.6414 199.5,84.5C 198.764,86.7928 198.598,89.1261 199,91.5C 198.333,92.1667 197.667,92.8333 197,93.5C 196.329,92.7476 195.496,92.4142 194.5,92.5 Z"/></g>
<g><path style="opacity:1" fill="#4d3934" d="M 180.5,108.5 C 178.632,109.786 178.466,111.119 180,112.5C 179.593,122.154 175.759,130.321 168.5,137C 166.269,137.163 164.935,135.997 164.5,133.5C 168.114,130.572 170.447,126.905 171.5,122.5C 178.249,105.172 173.749,91.5049 158,81.5C 157.722,82.4158 157.222,83.0825 156.5,83.5C 152.976,82.0352 149.309,81.0352 145.5,80.5C 145.567,81.9587 145.234,83.2921 144.5,84.5C 142.833,84.5 141.167,84.5 139.5,84.5C 138.756,87.9496 140.09,89.6162 143.5,89.5C 144.341,91.3792 144.675,93.3792 144.5,95.5C 140.225,94.7497 136.891,96.083 134.5,99.5C 132.61,99.2965 131.11,99.9632 130,101.5C 129.057,104.251 128.224,106.917 127.5,109.5C 126.209,109.737 125.209,109.404 124.5,108.5C 125.321,102.842 123.154,101.175 118,103.5C 117.506,105.134 117.34,106.801 117.5,108.5C 116.167,108.5 114.833,108.5 113.5,108.5C 114.019,103.278 115.352,98.2778 117.5,93.5C 120.428,92.8025 123.428,92.6358 126.5,93C 127.022,92.4387 127.355,91.772 127.5,91C 124.425,86.338 125.758,83.338 131.5,82C 133.813,81.338 136.146,80.838 138.5,80.5C 138.5,79.5 138.5,78.5 138.5,77.5C 127.878,78.1455 120.212,83.1455 115.5,92.5C 111.651,97.3918 109.985,103.058 110.5,109.5C 110.142,114.779 111.142,119.779 113.5,124.5C 110.117,128.518 107.617,128.185 106,123.5C 100.076,100.349 107.909,83.6821 129.5,73.5C 143.768,70.1481 156.768,72.9814 168.5,82C 176.715,88.9293 180.715,97.7627 180.5,108.5 Z"/></g>
<g><path style="opacity:1" fill="#8d868d" d="M 228.5,80.5 C 230.042,81.3007 231.708,81.634 233.5,81.5C 233.484,83.4841 234.484,84.4841 236.5,84.5C 238.775,83.4017 240.942,82.0683 243,80.5C 243.671,81.2524 244.504,81.5858 245.5,81.5C 245.5,84.1667 245.5,86.8333 245.5,89.5C 243.684,91.1184 242.351,93.1184 241.5,95.5C 240.5,95.5 239.5,95.5 238.5,95.5C 237.521,94.2347 236.521,92.9014 235.5,91.5C 234.311,90.5713 232.978,90.238 231.5,90.5C 232.32,86.8166 230.987,84.4832 227.5,83.5C 227.263,82.209 227.596,81.209 228.5,80.5 Z"/></g>
<g><path style="opacity:1" fill="#a18363" d="M 85.5,81.5 C 86.1667,81.5 86.8333,81.5 87.5,81.5C 89.8647,84.3382 92.198,87.1716 94.5,90C 93.1843,91.6587 91.5176,92.8254 89.5,93.5C 88.8826,93.6107 88.3826,93.944 88,94.5C 86.2962,92.6266 84.4628,90.9599 82.5,89.5C 82.0156,86.2118 83.0156,83.5452 85.5,81.5 Z"/></g>
<g><path style="opacity:1" fill="#6a503f" d="M 104.5,63.5 C 105.885,64.5736 107.051,65.9069 108,67.5C 108.617,68.4491 108.451,69.2825 107.5,70C 108.381,70.7083 109.047,71.5416 109.5,72.5C 108.315,73.8566 107.315,75.3566 106.5,77C 107.958,81.4933 110.458,82.3267 114,79.5C 114.497,77.1902 114.663,74.8568 114.5,72.5C 116.675,72.6822 118.675,73.3489 120.5,74.5C 122.692,74.2427 124.359,73.2427 125.5,71.5C 127.483,71.1568 128.817,71.8235 129.5,73.5C 107.909,83.6821 100.076,100.349 106,123.5C 107.617,128.185 110.117,128.518 113.5,124.5C 111.142,119.779 110.142,114.779 110.5,109.5C 109.985,103.058 111.651,97.3918 115.5,92.5C 116.492,92.3284 117.158,92.6618 117.5,93.5C 115.352,98.2778 114.019,103.278 113.5,108.5C 113.709,113.667 114.709,118.667 116.5,123.5C 115.859,124.482 115.193,125.482 114.5,126.5C 115.921,129.009 117.588,131.343 119.5,133.5C 117.684,135.817 115.684,137.984 113.5,140C 113.847,142.316 114.18,144.649 114.5,147C 114.167,147.5 113.833,148 113.5,148.5C 111.5,147.5 109.5,146.5 107.5,145.5C 106.893,145.624 106.56,145.957 106.5,146.5C 104.451,145.359 102.451,145.359 100.5,146.5C 100.262,144.596 99.2624,143.262 97.5,142.5C 98.7834,138.034 97.1167,135.367 92.5,134.5C 92.2562,130.363 90.9229,126.696 88.5,123.5C 89.1174,123.389 89.6174,123.056 90,122.5C 90.4966,120.19 90.6633,117.857 90.5,115.5C 89.209,115.737 88.209,115.404 87.5,114.5C 88.8333,112.5 88.8333,110.5 87.5,108.5C 88.4584,108.047 89.2917,107.381 90,106.5C 90.7062,102.113 90.5396,97.7799 89.5,93.5C 91.5176,92.8254 93.1843,91.6587 94.5,90C 92.198,87.1716 89.8647,84.3382 87.5,81.5C 90.1194,79.4149 93.1194,77.9149 96.5,77C 97.3366,75.9887 97.67,74.8221 97.5,73.5C 98.9778,73.762 100.311,73.4287 101.5,72.5C 103.35,70.1791 103.683,67.8457 102.5,65.5C 103.167,64.8333 103.833,64.1667 104.5,63.5 Z"/></g>
<g><path style="opacity:1" fill="#957d5c" d="M 178.5,82.5 C 181.91,82.3838 183.244,84.0504 182.5,87.5C 182.5,88.1667 182.167,88.5 181.5,88.5C 180.432,87.5655 179.099,87.2322 177.5,87.5C 177.5,86.1667 177.5,84.8333 177.5,83.5C 177.5,82.8333 177.833,82.5 178.5,82.5 Z"/></g>
<g><path style="opacity:1" fill="#2b2127" d="M 53.5,66.5 C 48.4738,67.8608 45.8072,71.1941 45.5,76.5C 43.8825,79.9522 41.3825,82.6188 38,84.5C 36.6658,85.8779 36.4991,87.2113 37.5,88.5C 36.4544,91.7278 35.7878,95.0611 35.5,98.5C 34.8826,98.6107 34.3826,98.944 34,99.5C 33.5045,101.473 33.3379,103.473 33.5,105.5C 30.7543,107.126 27.7543,107.793 24.5,107.5C 23.8188,97.8571 26.6521,89.5238 33,82.5C 33.7185,79.5929 33.2185,76.9262 31.5,74.5C 34.6493,67.8522 39.6493,63.0189 46.5,60C 52.4938,58.1594 54.8271,60.3261 53.5,66.5 Z"/></g>
<g><path style="opacity:1" fill="#705b48" d="M 117.5,93.5 C 117.158,92.6618 116.492,92.3284 115.5,92.5C 120.212,83.1455 127.878,78.1455 138.5,77.5C 138.5,78.5 138.5,79.5 138.5,80.5C 136.146,80.838 133.813,81.338 131.5,82C 125.758,83.338 124.425,86.338 127.5,91C 127.355,91.772 127.022,92.4387 126.5,93C 123.428,92.6358 120.428,92.8025 117.5,93.5 Z"/></g>
<g><path style="opacity:1" fill="#7f8295" d="M 227.5,83.5 C 230.987,84.4832 232.32,86.8166 231.5,90.5C 232.978,90.238 234.311,90.5713 235.5,91.5C 236.521,92.9014 237.521,94.2347 238.5,95.5C 236.393,96.4682 234.059,96.8016 231.5,96.5C 229.833,97.8333 228.167,97.8333 226.5,96.5C 225.03,94.8405 224.363,92.8405 224.5,90.5C 224.172,87.4995 225.172,85.1661 227.5,83.5 Z"/></g>
<g><path style="opacity:1" fill="#a78f69" d="M 144.5,84.5 C 144.414,85.4959 144.748,86.3292 145.5,87C 144.619,87.7083 143.953,88.5416 143.5,89.5C 140.09,89.6162 138.756,87.9496 139.5,84.5C 141.167,84.5 142.833,84.5 144.5,84.5 Z"/></g>
<g><path style="opacity:1" fill="#e7c997" d="M 56.5,86.5 C 57.3833,91.1031 57.7166,95.7697 57.5,100.5C 55.9064,100.92 54.4064,101.586 53,102.5C 50.0294,101.021 47.1961,99.3546 44.5,97.5C 45.4109,95.0799 45.4109,92.5799 44.5,90C 44.5808,87.4431 45.7474,85.6098 48,84.5C 48.4974,81.854 48.6641,79.1873 48.5,76.5C 49.404,75.791 49.7373,74.791 49.5,73.5C 50.9778,73.238 52.3112,73.5713 53.5,74.5C 53.7754,78.9162 54.7754,82.9162 56.5,86.5 Z"/></g>
<g><path style="opacity:1" fill="#b49c75" d="M 157.5,87.5 C 160.5,87.8333 162.167,89.5 162.5,92.5C 157.839,93.8385 156.172,92.1719 157.5,87.5 Z"/></g>
<g><path style="opacity:1" fill="#43322a" d="M 182.5,87.5 C 183.978,87.238 185.311,87.5713 186.5,88.5C 189.391,94.1704 191.057,100.17 191.5,106.5C 192.665,118.197 189.665,128.53 182.5,137.5C 179.459,137.621 177.792,136.121 177.5,133C 180.086,127.996 182.253,122.829 184,117.5C 184.634,114.445 184.468,111.445 183.5,108.5C 184.139,107.903 184.472,107.07 184.5,106C 183.774,100.824 182.44,95.8239 180.5,91C 180.528,89.9302 180.861,89.0968 181.5,88.5C 182.167,88.5 182.5,88.1667 182.5,87.5 Z"/></g>
<g><path style="opacity:1" fill="#583f34" d="M 82.5,89.5 C 84.4628,90.9599 86.2962,92.6266 88,94.5C 88.3826,93.944 88.8826,93.6107 89.5,93.5C 90.5396,97.7799 90.7062,102.113 90,106.5C 89.2917,107.381 88.4584,108.047 87.5,108.5C 85.1667,108.5 82.8333,108.5 80.5,108.5C 79.5041,108.586 78.6708,108.252 78,107.5C 77.5045,105.527 77.3379,103.527 77.5,101.5C 77.605,97.6811 78.4383,94.0145 80,90.5C 80.6708,89.7476 81.5041,89.4142 82.5,89.5 Z"/></g>
<g><path style="opacity:1" fill="#4a4b56" d="M 245.5,89.5 C 252.539,93.8099 251.872,96.8099 243.5,98.5C 242.833,97.5 242.167,96.5 241.5,95.5C 242.351,93.1184 243.684,91.1184 245.5,89.5 Z"/></g>
<g><path style="opacity:1" fill="#634b37" d="M 213.5,90.5 C 214.64,93.3676 215.64,96.3676 216.5,99.5C 216.5,102.833 216.5,106.167 216.5,109.5C 213.67,109.694 211.004,110.361 208.5,111.5C 208.556,106.269 207.889,101.269 206.5,96.5C 206.5,95.5 206.5,94.5 206.5,93.5C 209.491,93.8337 211.824,92.8337 213.5,90.5 Z"/></g>
<g><path style="opacity:1" fill="#644d3f" d="M 171.5,122.5 C 170.5,122.167 169.833,121.5 169.5,120.5C 171.324,115.92 171.657,111.253 170.5,106.5C 169.817,106.137 169.15,105.804 168.5,105.5C 167.691,103.972 167.024,102.306 166.5,100.5C 168.377,99.3409 168.877,97.6742 168,95.5C 166.794,92.6987 164.961,91.6987 162.5,92.5C 162.167,89.5 160.5,87.8333 157.5,87.5C 157.567,86.0413 157.234,84.7079 156.5,83.5C 157.222,83.0825 157.722,82.4158 158,81.5C 173.749,91.5049 178.249,105.172 171.5,122.5 Z"/></g>
<g><path style="opacity:1" fill="#c0a17d" d="M 37.5,88.5 C 38.5,88.5 39.5,88.5 40.5,88.5C 40.5,91.8333 40.5,95.1667 40.5,98.5C 38.8333,98.5 37.1667,98.5 35.5,98.5C 35.7878,95.0611 36.4544,91.7278 37.5,88.5 Z"/></g>
<g><path style="opacity:1" fill="#b6976b" d="M 144.5,95.5 C 148.02,96.3528 150.687,98.3528 152.5,101.5C 152.062,101.435 151.728,101.601 151.5,102C 153.219,105.957 153.886,110.124 153.5,114.5C 153.5,115.167 153.5,115.833 153.5,116.5C 150.639,120.014 146.973,122.347 142.5,123.5C 140.625,120.412 139.292,117.078 138.5,113.5C 141.872,114.401 145.205,114.401 148.5,113.5C 150.986,107.817 149.153,105.484 143,106.5C 137.24,105.428 135.073,107.761 136.5,113.5C 133.861,115.177 132.194,114.51 131.5,111.5C 132.252,107.399 133.252,103.399 134.5,99.5C 136.891,96.083 140.225,94.7497 144.5,95.5 Z"/></g>
<g><path style="opacity:1" fill="#382525" d="M 226.5,96.5 C 228.167,97.8333 229.833,97.8333 231.5,96.5C 232.931,99.9942 233.764,103.661 234,107.5C 235.11,109.037 236.61,109.703 238.5,109.5C 238.5,111.5 238.5,113.5 238.5,115.5C 236.876,115.36 235.71,116.027 235,117.5C 234.5,126.494 234.334,135.494 234.5,144.5C 233.04,146.463 231.373,148.296 229.5,150C 225.082,151.806 220.749,153.806 216.5,156C 215.306,158.658 216.306,159.824 219.5,159.5C 219.389,160.117 219.056,160.617 218.5,161C 219.848,162.574 220.514,164.407 220.5,166.5C 219.792,174.171 219.125,181.838 218.5,189.5C 213.93,190.441 209.263,190.774 204.5,190.5C 200.015,190.116 195.348,189.949 190.5,190C 187.692,189.402 185.192,188.235 183,186.5C 181.887,187.305 180.721,187.972 179.5,188.5C 179.5,187.833 179.5,187.167 179.5,186.5C 180.476,185.185 181.476,183.852 182.5,182.5C 181.484,179.718 180.484,177.051 179.5,174.5C 203.452,159.611 215.785,137.945 216.5,109.5C 216.5,106.167 216.5,102.833 216.5,99.5C 219.486,97.9417 222.819,96.9417 226.5,96.5 Z"/></g>
<g><path style="opacity:1" fill="#cead94" d="M 44.5,97.5 C 47.1961,99.3546 50.0294,101.021 53,102.5C 54.4064,101.586 55.9064,100.92 57.5,100.5C 57.5,104.167 57.5,107.833 57.5,111.5C 56.735,112.66 55.735,113.66 54.5,114.5C 52.9121,112.887 51.9121,110.887 51.5,108.5C 50.675,107.614 49.675,107.281 48.5,107.5C 48.2407,103.932 46.2407,102.599 42.5,103.5C 42.5,105.167 42.5,106.833 42.5,108.5C 39.8333,107.833 37.1667,107.167 34.5,106.5C 34.5,105.833 34.1667,105.5 33.5,105.5C 33.3379,103.473 33.5045,101.473 34,99.5C 34.3826,98.944 34.8826,98.6107 35.5,98.5C 37.1667,98.5 38.8333,98.5 40.5,98.5C 42.099,98.7678 43.4324,98.4345 44.5,97.5 Z"/></g>
<g><path style="opacity:1" fill="#a1896f" d="M 166.5,100.5 C 167.024,102.306 167.691,103.972 168.5,105.5C 166.437,108.973 163.937,109.306 161,106.5C 160.802,102.856 162.635,100.856 166.5,100.5 Z"/></g>
<g><path style="opacity:1" fill="#4c3131" d="M 238.5,95.5 C 239.5,95.5 240.5,95.5 241.5,95.5C 242.167,96.5 242.833,97.5 243.5,98.5C 241.712,102.172 240.045,105.838 238.5,109.5C 236.61,109.703 235.11,109.037 234,107.5C 233.764,103.661 232.931,99.9942 231.5,96.5C 234.059,96.8016 236.393,96.4682 238.5,95.5 Z"/></g>
<g><path style="opacity:1" fill="#775944" d="M 69.5,101.5 C 72.204,102.714 74.8707,102.714 77.5,101.5C 77.3379,103.527 77.5045,105.527 78,107.5C 78.6708,108.252 79.5041,108.586 80.5,108.5C 79.3139,110.792 79.3139,113.126 80.5,115.5C 78.0929,118.115 77.9262,121.115 80,124.5C 80.414,124.957 80.914,125.291 81.5,125.5C 83.6179,124.054 85.9512,123.387 88.5,123.5C 90.9229,126.696 92.2562,130.363 92.5,134.5C 91.6081,137.113 89.9414,137.779 87.5,136.5C 85.8287,134.49 85.162,132.157 85.5,129.5C 84.1667,129.5 82.8333,129.5 81.5,129.5C 82.1494,136.468 85.1494,142.135 90.5,146.5C 91.1835,146.137 91.8501,145.804 92.5,145.5C 92.5271,147.199 93.1938,148.533 94.5,149.5C 93.5876,150.738 93.4209,152.072 94,153.5C 95.7073,155.037 97.2073,156.704 98.5,158.5C 96.9732,160.939 94.9732,162.939 92.5,164.5C 82.9717,156.476 76.1384,146.476 72,134.5C 70.809,129.024 69.309,123.691 67.5,118.5C 71.2992,117.039 71.2992,115.372 67.5,113.5C 68.9997,109.674 69.6664,105.674 69.5,101.5 Z"/></g>
<g><path style="opacity:1" fill="#452c2c" d="M 100.5,82.5 C 103.571,81.9245 105.571,83.0912 106.5,86C 101.299,95.997 99.4652,106.497 101,117.5C 102.133,122.599 103.966,127.432 106.5,132C 105.548,134.546 103.715,136.046 101,136.5C 93.4502,123.733 91.4502,110.066 95,95.5C 96.2911,90.92 98.1245,86.5866 100.5,82.5 Z"/></g>
<g><path style="opacity:1" fill="#9b835c" d="M 124.5,108.5 C 122.167,109.833 119.833,109.833 117.5,108.5C 117.34,106.801 117.506,105.134 118,103.5C 123.154,101.175 125.321,102.842 124.5,108.5 Z"/></g>
<g><path style="opacity:1" fill="#775d45" d="M 152.5,101.5 C 155.94,102.449 157.274,104.782 156.5,108.5C 156.333,110.167 156.167,111.833 156,113.5C 155.329,114.252 154.496,114.586 153.5,114.5C 153.886,110.124 153.219,105.957 151.5,102C 151.728,101.601 152.062,101.435 152.5,101.5 Z"/></g>
<g><path style="opacity:1" fill="#44312d" d="M 156.5,83.5 C 157.234,84.7079 157.567,86.0413 157.5,87.5C 156.172,92.1719 157.839,93.8385 162.5,92.5C 164.961,91.6987 166.794,92.6987 168,95.5C 168.877,97.6742 168.377,99.3409 166.5,100.5C 162.635,100.856 160.802,102.856 161,106.5C 163.937,109.306 166.437,108.973 168.5,105.5C 169.15,105.804 169.817,106.137 170.5,106.5C 171.657,111.253 171.324,115.92 169.5,120.5C 168.404,122.103 167.07,123.603 165.5,125C 164.423,125.47 163.423,125.303 162.5,124.5C 161.833,124.5 161.167,124.5 160.5,124.5C 158.446,121.627 156.113,118.961 153.5,116.5C 153.5,115.833 153.5,115.167 153.5,114.5C 154.496,114.586 155.329,114.252 156,113.5C 156.167,111.833 156.333,110.167 156.5,108.5C 157.274,104.782 155.94,102.449 152.5,101.5C 150.687,98.3528 148.02,96.3528 144.5,95.5C 144.675,93.3792 144.341,91.3792 143.5,89.5C 143.953,88.5416 144.619,87.7083 145.5,87C 144.748,86.3292 144.414,85.4959 144.5,84.5C 145.234,83.2921 145.567,81.9587 145.5,80.5C 149.309,81.0352 152.976,82.0352 156.5,83.5 Z"/></g>
<g><path style="opacity:1" fill="#b49c95" d="M 34.5,106.5 C 37.1667,107.167 39.8333,107.833 42.5,108.5C 41.2134,111.406 40.2134,114.406 39.5,117.5C 38.391,117.443 37.391,117.11 36.5,116.5C 34.819,113.418 34.1524,110.085 34.5,106.5 Z"/></g>
<g><path style="opacity:1" fill="#938083" d="M 57.5,111.5 C 60.9032,111.851 64.2365,112.518 67.5,113.5C 71.2992,115.372 71.2992,117.039 67.5,118.5C 63.3939,118.26 59.3939,117.593 55.5,116.5C 50.228,117.4 44.8947,117.733 39.5,117.5C 40.2134,114.406 41.2134,111.406 42.5,108.5C 42.5,106.833 42.5,105.167 42.5,103.5C 46.2407,102.599 48.2407,103.932 48.5,107.5C 49.675,107.281 50.675,107.614 51.5,108.5C 51.9121,110.887 52.9121,112.887 54.5,114.5C 55.735,113.66 56.735,112.66 57.5,111.5 Z"/></g>
<g><path style="opacity:1" fill="#75513d" d="M 138.5,113.5 C 137.833,113.5 137.167,113.5 136.5,113.5C 135.073,107.761 137.24,105.428 143,106.5C 149.153,105.484 150.986,107.817 148.5,113.5C 145.205,114.401 141.872,114.401 138.5,113.5 Z"/></g>
<g><path style="opacity:1" fill="#6f5541" d="M 204.5,98.5 C 203.907,103.167 203.24,107.834 202.5,112.5C 202.68,113.554 203.013,114.554 203.5,115.5C 200.833,115.833 198.167,116.167 195.5,116.5C 194.027,118.861 194.361,120.861 196.5,122.5C 195.659,124.379 195.325,126.379 195.5,128.5C 192.981,128.848 191.147,130.181 190,132.5C 187.759,135.678 186.925,139.011 187.5,142.5C 185.444,143.622 184.111,145.289 183.5,147.5C 181.402,146.516 179.402,146.849 177.5,148.5C 177.586,147.504 177.252,146.671 176.5,146C 178.888,143.371 180.888,140.538 182.5,137.5C 189.665,128.53 192.665,118.197 191.5,106.5C 192.5,106.5 193.5,106.5 194.5,106.5C 194.5,104.5 194.5,102.5 194.5,100.5C 196.813,99.3317 199.146,97.9983 201.5,96.5C 202.518,97.1925 203.518,97.8592 204.5,98.5 Z"/></g>
<g><path style="opacity:1" fill="#221b21" d="M -0.5,107.5 C 0.709515,107.932 1.70951,108.599 2.5,109.5C 2.20493,116.226 2.53826,122.892 3.5,129.5C 5.00317,130.557 6.66983,131.224 8.5,131.5C 12.3678,130.385 16.0345,129.052 19.5,127.5C 22.4173,128.417 25.4173,129.084 28.5,129.5C 28.5,131.833 28.5,134.167 28.5,136.5C 19.9401,137.194 11.4401,138.194 3,139.5C 2.50014,150.828 2.33348,162.162 2.5,173.5C 2.5,184.5 2.5,195.5 2.5,206.5C 2.22813,210.723 2.22813,214.723 2.5,218.5C 1.55896,223.07 1.22562,227.737 1.5,232.5C 1.5,237.167 1.5,241.833 1.5,246.5C 1.5,253.5 1.5,260.5 1.5,267.5C 1.5,282.167 1.5,296.833 1.5,311.5C 0.833333,311.5 0.166667,311.5 -0.5,311.5C -0.5,243.5 -0.5,175.5 -0.5,107.5 Z"/></g>
<g><path style="opacity:1" fill="#2a2531" d="M 19.5,108.5 C 18.2756,114.827 18.2756,121.16 19.5,127.5C 16.0345,129.052 12.3678,130.385 8.5,131.5C 6.66983,131.224 5.00317,130.557 3.5,129.5C 2.53826,122.892 2.20493,116.226 2.5,109.5C 4.67551,107.969 7.17551,107.303 10,107.5C 13.1864,107.744 16.353,108.077 19.5,108.5 Z"/></g>
<g><path style="opacity:1" fill="#35343b" d="M 33.5,105.5 C 34.1667,105.5 34.5,105.833 34.5,106.5C 34.1524,110.085 34.819,113.418 36.5,116.5C 34.3926,117.468 32.0593,117.802 29.5,117.5C 29.238,118.978 29.5713,120.311 30.5,121.5C 32.188,122.521 33.5213,123.855 34.5,125.5C 33.3662,128.034 31.3662,129.367 28.5,129.5C 25.4173,129.084 22.4173,128.417 19.5,127.5C 18.2756,121.16 18.2756,114.827 19.5,108.5C 21.2161,108.371 22.8828,108.038 24.5,107.5C 27.7543,107.793 30.7543,107.126 33.5,105.5 Z"/></g>
<g><path style="opacity:1" fill="#9b835c" d="M 80.5,108.5 C 82.8333,108.5 85.1667,108.5 87.5,108.5C 88.8333,110.5 88.8333,112.5 87.5,114.5C 85.283,115.369 82.9496,115.702 80.5,115.5C 79.3139,113.126 79.3139,110.792 80.5,108.5 Z"/></g>
<g><path style="opacity:1" fill="#4a3231" d="M 113.5,108.5 C 114.833,108.5 116.167,108.5 117.5,108.5C 119.833,109.833 122.167,109.833 124.5,108.5C 125.209,109.404 126.209,109.737 127.5,109.5C 128.108,112.327 129.108,114.993 130.5,117.5C 128.167,119.167 126.167,121.167 124.5,123.5C 121.747,125.994 119.08,125.994 116.5,123.5C 114.709,118.667 113.709,113.667 113.5,108.5 Z"/></g>
<g><path style="opacity:1" fill="#8e6a4d" d="M 134.5,99.5 C 133.252,103.399 132.252,107.399 131.5,111.5C 132.194,114.51 133.861,115.177 136.5,113.5C 137.167,113.5 137.833,113.5 138.5,113.5C 139.292,117.078 140.625,120.412 142.5,123.5C 137.338,123.572 133.338,121.572 130.5,117.5C 129.108,114.993 128.108,112.327 127.5,109.5C 128.224,106.917 129.057,104.251 130,101.5C 131.11,99.9632 132.61,99.2965 134.5,99.5 Z"/></g>
<g><path style="opacity:1" fill="#432b24" d="M 87.5,114.5 C 88.209,115.404 89.209,115.737 90.5,115.5C 90.6633,117.857 90.4966,120.19 90,122.5C 89.6174,123.056 89.1174,123.389 88.5,123.5C 85.9512,123.387 83.6179,124.054 81.5,125.5C 80.914,125.291 80.414,124.957 80,124.5C 77.9262,121.115 78.0929,118.115 80.5,115.5C 82.9496,115.702 85.283,115.369 87.5,114.5 Z"/></g>
<g><path style="opacity:1" fill="#302f40" d="M 238.5,115.5 C 239.093,123.144 239.426,130.811 239.5,138.5C 238.83,140.863 238.163,143.196 237.5,145.5C 236.391,145.443 235.391,145.11 234.5,144.5C 234.334,135.494 234.5,126.494 235,117.5C 235.71,116.027 236.876,115.36 238.5,115.5 Z"/></g>
<g><path style="opacity:1" fill="#19131a" d="M 36.5,116.5 C 37.391,117.11 38.391,117.443 39.5,117.5C 44.8947,117.733 50.228,117.4 55.5,116.5C 55.5191,118.06 55.8524,119.56 56.5,121C 54.2882,123.554 52.4548,126.387 51,129.5C 51.4086,133.208 51.242,136.875 50.5,140.5C 48.2539,141.214 45.9206,141.048 43.5,140C 43.5269,133.203 40.5269,128.37 34.5,125.5C 33.5213,123.855 32.188,122.521 30.5,121.5C 29.5713,120.311 29.238,118.978 29.5,117.5C 32.0593,117.802 34.3926,117.468 36.5,116.5 Z"/></g>
<g><path style="opacity:1" fill="#392b2b" d="M 55.5,116.5 C 59.3939,117.593 63.3939,118.26 67.5,118.5C 69.309,123.691 70.809,129.024 72,134.5C 76.1384,146.476 82.9717,156.476 92.5,164.5C 93.5,165.833 94.5,167.167 95.5,168.5C 86.9235,174.413 87.5902,178.746 97.5,181.5C 97.5,182.833 97.5,184.167 97.5,185.5C 95.3901,186.95 94.0568,188.95 93.5,191.5C 93.5,192.167 93.1667,192.5 92.5,192.5C 91.325,192.281 90.325,192.614 89.5,193.5C 87.5718,196.788 85.7385,200.121 84,203.5C 80.5645,200.58 76.7312,199.913 72.5,201.5C 71.2001,194.485 71.3668,187.485 73,180.5C 76.1914,178.062 77.0247,175.062 75.5,171.5C 79.3273,171.56 79.994,170.393 77.5,168C 72.3498,165.548 67.0165,163.715 61.5,162.5C 60.0401,160.537 58.3734,158.704 56.5,157C 54.8067,156.516 53.4733,157.016 52.5,158.5C 50.8588,157.129 49.8588,155.296 49.5,153C 50.2865,150.901 50.6199,148.734 50.5,146.5C 50.5,144.5 50.5,142.5 50.5,140.5C 51.242,136.875 51.4086,133.208 51,129.5C 52.4548,126.387 54.2882,123.554 56.5,121C 55.8524,119.56 55.5191,118.06 55.5,116.5 Z"/></g>
<g><path style="opacity:1" fill="#a7895c" d="M 195.5,128.5 C 195.325,126.379 195.659,124.379 196.5,122.5C 202.145,122.357 203.479,124.857 200.5,130C 198.465,130.599 196.799,130.099 195.5,128.5 Z"/></g>
<g><path style="opacity:1" fill="#68432e" d="M 153.5,116.5 C 156.113,118.961 158.446,121.627 160.5,124.5C 157.85,125.457 157.183,127.124 158.5,129.5C 159.501,130.789 159.334,132.122 158,133.5C 156.056,135.221 153.89,136.554 151.5,137.5C 150.262,138.412 148.928,138.579 147.5,138C 145.226,135.656 144.059,132.822 144,129.5C 142.667,128.167 141.333,128.167 140,129.5C 139.83,133.957 137.663,136.624 133.5,137.5C 130.917,136.461 128.417,135.128 126,133.5C 125.222,130.725 125.722,128.225 127.5,126C 127.252,124.251 126.252,123.418 124.5,123.5C 126.167,121.167 128.167,119.167 130.5,117.5C 133.338,121.572 137.338,123.572 142.5,123.5C 146.973,122.347 150.639,120.014 153.5,116.5 Z"/></g>
<g><path style="opacity:1" fill="#826243" d="M 216.5,109.5 C 215.785,137.945 203.452,159.611 179.5,174.5C 176.167,175.5 172.833,176.5 169.5,177.5C 170.263,175.433 171.596,173.766 173.5,172.5C 173.058,171.261 172.391,170.261 171.5,169.5C 172.167,168.833 172.833,168.167 173.5,167.5C 174.766,166.91 176.099,166.41 177.5,166C 181.714,161.547 186.38,157.547 191.5,154C 193.232,152.028 194.565,149.861 195.5,147.5C 204.091,137.197 208.424,125.197 208.5,111.5C 211.004,110.361 213.67,109.694 216.5,109.5 Z"/></g>
<g><path style="opacity:1" fill="#ae8f69" d="M 160.5,124.5 C 161.167,124.5 161.833,124.5 162.5,124.5C 163.244,127.95 161.91,129.616 158.5,129.5C 157.183,127.124 157.85,125.457 160.5,124.5 Z"/></g>
<g><path style="opacity:1" fill="#715037" d="M 180.5,108.5 C 181.5,108.5 182.5,108.5 183.5,108.5C 184.468,111.445 184.634,114.445 184,117.5C 182.253,122.829 180.086,127.996 177.5,133C 177.792,136.121 179.459,137.621 182.5,137.5C 180.888,140.538 178.888,143.371 176.5,146C 177.252,146.671 177.586,147.504 177.5,148.5C 176.699,150.042 176.366,151.708 176.5,153.5C 175.171,156.48 172.837,157.813 169.5,157.5C 169.78,154.728 169.113,152.228 167.5,150C 168.687,148.981 169.687,147.814 170.5,146.5C 169.399,144.358 168.399,142.192 167.5,140C 163.244,141.448 158.911,142.948 154.5,144.5C 153.051,142.389 152.051,140.056 151.5,137.5C 153.89,136.554 156.056,135.221 158,133.5C 159.334,132.122 159.501,130.789 158.5,129.5C 161.91,129.616 163.244,127.95 162.5,124.5C 163.423,125.303 164.423,125.47 165.5,125C 167.07,123.603 168.404,122.103 169.5,120.5C 169.833,121.5 170.5,122.167 171.5,122.5C 170.447,126.905 168.114,130.572 164.5,133.5C 164.935,135.997 166.269,137.163 168.5,137C 175.759,130.321 179.593,122.154 180,112.5C 178.466,111.119 178.632,109.786 180.5,108.5 Z"/></g>
<g><path style="opacity:1" fill="#292930" d="M 34.5,125.5 C 40.5269,128.37 43.5269,133.203 43.5,140C 45.9206,141.048 48.2539,141.214 50.5,140.5C 50.5,142.5 50.5,144.5 50.5,146.5C 48.4727,146.338 46.4727,146.505 44.5,147C 43.944,147.383 43.6107,147.883 43.5,148.5C 40.3864,147.909 37.8864,146.242 36,143.5C 35.8834,138.549 33.3834,136.215 28.5,136.5C 28.5,134.167 28.5,131.833 28.5,129.5C 31.3662,129.367 33.3662,128.034 34.5,125.5 Z"/></g>
<g><path style="opacity:1" fill="#4b322b" d="M 206.5,96.5 C 207.889,101.269 208.556,106.269 208.5,111.5C 208.424,125.197 204.091,137.197 195.5,147.5C 194.71,146.599 193.71,145.932 192.5,145.5C 191.341,143.75 189.674,142.75 187.5,142.5C 186.925,139.011 187.759,135.678 190,132.5C 191.147,130.181 192.981,128.848 195.5,128.5C 196.799,130.099 198.465,130.599 200.5,130C 203.479,124.857 202.145,122.357 196.5,122.5C 194.361,120.861 194.027,118.861 195.5,116.5C 198.167,116.167 200.833,115.833 203.5,115.5C 203.013,114.554 202.68,113.554 202.5,112.5C 203.24,107.834 203.907,103.167 204.5,98.5C 205.5,98.1667 206.167,97.5 206.5,96.5 Z"/></g>
<g><path style="opacity:1" fill="#50382a" d="M 92.5,134.5 C 97.1167,135.367 98.7834,138.034 97.5,142.5C 95.326,142.75 93.6594,143.75 92.5,145.5C 91.8501,145.804 91.1835,146.137 90.5,146.5C 85.1494,142.135 82.1494,136.468 81.5,129.5C 82.8333,129.5 84.1667,129.5 85.5,129.5C 85.162,132.157 85.8287,134.49 87.5,136.5C 89.9414,137.779 91.6081,137.113 92.5,134.5 Z"/></g>
<g><path style="opacity:1" fill="#312b37" d="M 28.5,136.5 C 33.3834,136.215 35.8834,138.549 36,143.5C 37.8864,146.242 40.3864,147.909 43.5,148.5C 43.1516,152.879 41.8183,156.879 39.5,160.5C 36.5209,161.367 33.6876,162.7 31,164.5C 28.4587,163.336 25.9587,163.503 23.5,165C 22.478,167.2 21.1447,169.2 19.5,171C 13.8132,171.789 8.14651,172.622 2.5,173.5C 2.33348,162.162 2.50014,150.828 3,139.5C 11.4401,138.194 19.9401,137.194 28.5,136.5 Z"/></g>
<g><path style="opacity:1" fill="#89593a" d="M 116.5,123.5 C 119.08,125.994 121.747,125.994 124.5,123.5C 126.252,123.418 127.252,124.251 127.5,126C 125.722,128.225 125.222,130.725 126,133.5C 128.417,135.128 130.917,136.461 133.5,137.5C 133.582,142.377 131.249,144.71 126.5,144.5C 126.674,146.861 127.007,149.194 127.5,151.5C 127.933,154.166 128.433,156.832 129,159.5C 130.72,160.384 131.886,161.717 132.5,163.5C 131.89,164.391 131.557,165.391 131.5,166.5C 130.549,167.919 130.216,169.585 130.5,171.5C 130.389,172.117 130.056,172.617 129.5,173C 127.5,173.667 125.5,173.667 123.5,173C 119.145,171.154 114.812,169.321 110.5,167.5C 107.239,165.051 104.239,162.384 101.5,159.5C 103.806,156.946 106.139,154.279 108.5,151.5C 107.544,149.925 106.877,148.258 106.5,146.5C 106.56,145.957 106.893,145.624 107.5,145.5C 109.5,146.5 111.5,147.5 113.5,148.5C 113.833,148 114.167,147.5 114.5,147C 114.18,144.649 113.847,142.316 113.5,140C 115.684,137.984 117.684,135.817 119.5,133.5C 117.588,131.343 115.921,129.009 114.5,126.5C 115.193,125.482 115.859,124.482 116.5,123.5 Z"/></g>
<g><path style="opacity:1" fill="#b07744" d="M 151.5,137.5 C 152.051,140.056 153.051,142.389 154.5,144.5C 155.345,147.918 157.179,150.585 160,152.5C 160.495,154.473 160.662,156.473 160.5,158.5C 159.063,159.725 157.396,160.725 155.5,161.5C 154.638,162.766 153.971,164.099 153.5,165.5C 151.287,164.227 148.954,163.227 146.5,162.5C 145.833,161.167 145.167,159.833 144.5,158.5C 146.971,154.644 147.138,150.644 145,146.5C 142.844,143.939 140.677,143.939 138.5,146.5C 136.019,145.742 133.352,145.742 130.5,146.5C 130.759,148.989 129.759,150.656 127.5,151.5C 127.007,149.194 126.674,146.861 126.5,144.5C 131.249,144.71 133.582,142.377 133.5,137.5C 137.663,136.624 139.83,133.957 140,129.5C 141.333,128.167 142.667,128.167 144,129.5C 144.059,132.822 145.226,135.656 147.5,138C 148.928,138.579 150.262,138.412 151.5,137.5 Z"/></g>
<g><path style="opacity:1" fill="#926842" d="M 176.5,153.5 C 178.571,154.572 179.905,156.239 180.5,158.5C 178.238,160.972 175.572,162.972 172.5,164.5C 170.18,166.226 167.513,166.893 164.5,166.5C 164.5,163.833 164.5,161.167 164.5,158.5C 163.167,158.5 161.833,158.5 160.5,158.5C 160.662,156.473 160.495,154.473 160,152.5C 157.179,150.585 155.345,147.918 154.5,144.5C 158.911,142.948 163.244,141.448 167.5,140C 168.399,142.192 169.399,144.358 170.5,146.5C 169.687,147.814 168.687,148.981 167.5,150C 169.113,152.228 169.78,154.728 169.5,157.5C 172.837,157.813 175.171,156.48 176.5,153.5 Z"/></g>
<g><path style="opacity:1" fill="#a7895c" d="M 97.5,142.5 C 99.2624,143.262 100.262,144.596 100.5,146.5C 99.089,148.539 97.089,149.539 94.5,149.5C 93.1938,148.533 92.5271,147.199 92.5,145.5C 93.6594,143.75 95.326,142.75 97.5,142.5 Z"/></g>
<g><path style="opacity:1" fill="#a18356" d="M 187.5,142.5 C 189.674,142.75 191.341,143.75 192.5,145.5C 191.721,149.13 189.554,151.797 186,153.5C 183.984,152.045 183.151,150.045 183.5,147.5C 184.111,145.289 185.444,143.622 187.5,142.5 Z"/></g>
<g><path style="opacity:1" fill="#f2f39b" d="M 144.5,158.5 C 139.658,159.338 136.991,157.338 136.5,152.5C 137.178,150.484 137.844,148.484 138.5,146.5C 140.677,143.939 142.844,143.939 145,146.5C 147.138,150.644 146.971,154.644 144.5,158.5 Z"/></g>
<g><path style="opacity:1" fill="#563824" d="M 106.5,146.5 C 106.877,148.258 107.544,149.925 108.5,151.5C 106.139,154.279 103.806,156.946 101.5,159.5C 100.391,159.443 99.391,159.11 98.5,158.5C 97.2073,156.704 95.7073,155.037 94,153.5C 93.4209,152.072 93.5876,150.738 94.5,149.5C 97.089,149.539 99.089,148.539 100.5,146.5C 102.451,145.359 104.451,145.359 106.5,146.5 Z"/></g>
<g><path style="opacity:1" fill="#c38e4f" d="M 138.5,146.5 C 137.844,148.484 137.178,150.484 136.5,152.5C 136.991,157.338 139.658,159.338 144.5,158.5C 145.167,159.833 145.833,161.167 146.5,162.5C 141.846,163.025 137.179,163.359 132.5,163.5C 131.886,161.717 130.72,160.384 129,159.5C 128.433,156.832 127.933,154.166 127.5,151.5C 129.759,150.656 130.759,148.989 130.5,146.5C 133.352,145.742 136.019,145.742 138.5,146.5 Z"/></g>
<g><path style="opacity:1" fill="#1e1924" d="M 50.5,146.5 C 50.6199,148.734 50.2865,150.901 49.5,153C 49.8588,155.296 50.8588,157.129 52.5,158.5C 52.5,159.167 52.5,159.833 52.5,160.5C 50.4362,160.762 49.1029,161.929 48.5,164C 45.4264,166.004 42.5931,165.837 40,163.5C 39.5172,162.552 39.3505,161.552 39.5,160.5C 41.8183,156.879 43.1516,152.879 43.5,148.5C 43.6107,147.883 43.944,147.383 44.5,147C 46.4727,146.505 48.4727,146.338 50.5,146.5 Z"/></g>
<g><path style="opacity:1" fill="#5b3d29" d="M 192.5,145.5 C 193.71,145.932 194.71,146.599 195.5,147.5C 194.565,149.861 193.232,152.028 191.5,154C 186.38,157.547 181.714,161.547 177.5,166C 176.099,166.41 174.766,166.91 173.5,167.5C 173.443,166.391 173.11,165.391 172.5,164.5C 175.572,162.972 178.238,160.972 180.5,158.5C 179.905,156.239 178.571,154.572 176.5,153.5C 176.366,151.708 176.699,150.042 177.5,148.5C 179.402,146.849 181.402,146.516 183.5,147.5C 183.151,150.045 183.984,152.045 186,153.5C 189.554,151.797 191.721,149.13 192.5,145.5 Z"/></g>
<g><path style="opacity:1" fill="#3e3a49" d="M 234.5,144.5 C 235.391,145.11 236.391,145.443 237.5,145.5C 238.815,148.412 239.982,151.412 241,154.5C 242.113,155.305 243.279,155.972 244.5,156.5C 244.433,157.959 244.766,159.292 245.5,160.5C 236.818,160.479 228.152,160.146 219.5,159.5C 216.306,159.824 215.306,158.658 216.5,156C 220.749,153.806 225.082,151.806 229.5,150C 231.373,148.296 233.04,146.463 234.5,144.5 Z"/></g>
<g><path style="opacity:1" fill="#242b3e" d="M 259.5,159.5 C 256.012,159.54 252.679,160.207 249.5,161.5C 248.167,161.167 246.833,160.833 245.5,160.5C 244.766,159.292 244.433,157.959 244.5,156.5C 249.655,151.73 255.155,151.397 261,155.5C 261.484,157.193 260.984,158.527 259.5,159.5 Z"/></g>
<g><path style="opacity:1" fill="#826a63" d="M 61.5,162.5 C 61.1667,163.5 60.5,164.167 59.5,164.5C 56.6967,164.039 54.3634,162.705 52.5,160.5C 52.5,159.833 52.5,159.167 52.5,158.5C 53.4733,157.016 54.8067,156.516 56.5,157C 58.3734,158.704 60.0401,160.537 61.5,162.5 Z"/></g>
<g><path style="opacity:1" fill="#886443" d="M 98.5,158.5 C 99.391,159.11 100.391,159.443 101.5,159.5C 104.239,162.384 107.239,165.051 110.5,167.5C 108.75,168.659 107.75,170.326 107.5,172.5C 106.89,173.391 106.557,174.391 106.5,175.5C 104.938,175.267 103.605,174.6 102.5,173.5C 100.704,171.1 98.3702,169.433 95.5,168.5C 94.5,167.167 93.5,165.833 92.5,164.5C 94.9732,162.939 96.9732,160.939 98.5,158.5 Z"/></g>
<g><path style="opacity:1" fill="#825132" d="M 160.5,158.5 C 161.833,158.5 163.167,158.5 164.5,158.5C 164.5,161.167 164.5,163.833 164.5,166.5C 167.513,166.893 170.18,166.226 172.5,164.5C 173.11,165.391 173.443,166.391 173.5,167.5C 172.833,168.167 172.167,168.833 171.5,169.5C 167.148,171.255 162.648,172.588 158,173.5C 156.744,173.352 155.577,173.018 154.5,172.5C 154.5,171.167 154.5,169.833 154.5,168.5C 154.443,167.391 154.11,166.391 153.5,165.5C 153.971,164.099 154.638,162.766 155.5,161.5C 157.396,160.725 159.063,159.725 160.5,158.5 Z"/></g>
<g><path style="opacity:1" fill="#4a322a" d="M 219.5,159.5 C 228.152,160.146 236.818,160.479 245.5,160.5C 246.833,160.833 248.167,161.167 249.5,161.5C 248.519,175.088 248.185,188.754 248.5,202.5C 248.5,203.5 248.5,204.5 248.5,205.5C 244.347,206.02 240.347,206.02 236.5,205.5C 235.167,205.5 233.833,205.5 232.5,205.5C 233.226,201.657 231.892,198.99 228.5,197.5C 228.565,193.506 226.565,191.173 222.5,190.5C 221.446,190.68 220.446,191.013 219.5,191.5C 218.702,191.043 218.369,190.376 218.5,189.5C 219.125,181.838 219.792,174.171 220.5,166.5C 220.514,164.407 219.848,162.574 218.5,161C 219.056,160.617 219.389,160.117 219.5,159.5 Z"/></g>
<g><path style="opacity:1" fill="#18191e" d="M 259.5,159.5 C 261.067,160.681 261.901,162.347 262,164.5C 262.499,169.155 262.666,173.821 262.5,178.5C 262.47,184.846 262.137,191.18 261.5,197.5C 257.745,200.539 253.412,202.206 248.5,202.5C 248.185,188.754 248.519,175.088 249.5,161.5C 252.679,160.207 256.012,159.54 259.5,159.5 Z"/></g>
<g><path style="opacity:1" fill="#f2eda7" d="M 146.5,162.5 C 148.954,163.227 151.287,164.227 153.5,165.5C 154.11,166.391 154.443,167.391 154.5,168.5C 146.632,170.094 138.965,169.428 131.5,166.5C 131.557,165.391 131.89,164.391 132.5,163.5C 137.179,163.359 141.846,163.025 146.5,162.5 Z"/></g>
<g><path style="opacity:1" fill="#4a4c60" d="M 61.5,162.5 C 67.0165,163.715 72.3498,165.548 77.5,168C 79.994,170.393 79.3273,171.56 75.5,171.5C 71.3998,171.763 67.3998,171.43 63.5,170.5C 61.7745,168.772 60.4411,166.772 59.5,164.5C 60.5,164.167 61.1667,163.5 61.5,162.5 Z"/></g>
<g><path style="opacity:1" fill="#4a322a" d="M 95.5,168.5 C 98.3702,169.433 100.704,171.1 102.5,173.5C 100.011,175.655 98.3439,178.322 97.5,181.5C 87.5902,178.746 86.9235,174.413 95.5,168.5 Z"/></g>
<g><path style="opacity:1" fill="#edc37d" d="M 131.5,166.5 C 138.965,169.428 146.632,170.094 154.5,168.5C 154.5,169.833 154.5,171.167 154.5,172.5C 153.699,174.042 153.366,175.708 153.5,177.5C 151.953,178.768 150.953,180.435 150.5,182.5C 144.551,181.339 138.551,180.339 132.5,179.5C 132.198,176.627 131.531,173.961 130.5,171.5C 130.216,169.585 130.549,167.919 131.5,166.5 Z"/></g>
<g><path style="opacity:1" fill="#9b704a" d="M 171.5,169.5 C 172.391,170.261 173.058,171.261 173.5,172.5C 171.596,173.766 170.263,175.433 169.5,177.5C 165.007,179.579 160.674,181.912 156.5,184.5C 154.98,182.412 153.98,180.078 153.5,177.5C 153.366,175.708 153.699,174.042 154.5,172.5C 155.577,173.018 156.744,173.352 158,173.5C 162.648,172.588 167.148,171.255 171.5,169.5 Z"/></g>
<g><path style="opacity:1" fill="#241819" d="M 63.5,170.5 C 67.3998,171.43 71.3998,171.763 75.5,171.5C 77.0247,175.062 76.1914,178.062 73,180.5C 71.3668,187.485 71.2001,194.485 72.5,201.5C 71.9644,204.698 72.631,207.365 74.5,209.5C 73.8834,215.75 73.8834,222.084 74.5,228.5C 71.8593,230.372 69.1926,231.372 66.5,231.5C 64.3277,230.198 61.9944,229.032 59.5,228C 58.2625,221.854 54.5958,219.854 48.5,222C 46.4497,222.416 45.1164,223.583 44.5,225.5C 40.3858,224.867 37.2192,222.867 35,219.5C 34.2188,205.074 33.0521,190.741 31.5,176.5C 32.404,175.791 32.7373,174.791 32.5,173.5C 43.0679,173.392 53.4012,172.392 63.5,170.5 Z"/></g>
<g><path style="opacity:1" fill="#a46c40" d="M 110.5,167.5 C 114.812,169.321 119.145,171.154 123.5,173C 125.5,173.667 127.5,173.667 129.5,173C 130.056,172.617 130.389,172.117 130.5,171.5C 131.531,173.961 132.198,176.627 132.5,179.5C 131.833,180.833 131.167,182.167 130.5,183.5C 124.33,181.2 117.997,179.533 111.5,178.5C 112.109,175.122 110.776,173.122 107.5,172.5C 107.75,170.326 108.75,168.659 110.5,167.5 Z"/></g>
<g><path style="opacity:1" fill="#2b2b3a" d="M 39.5,160.5 C 39.3505,161.552 39.5172,162.552 40,163.5C 42.5931,165.837 45.4264,166.004 48.5,164C 49.1029,161.929 50.4362,160.762 52.5,160.5C 54.3634,162.705 56.6967,164.039 59.5,164.5C 60.4411,166.772 61.7745,168.772 63.5,170.5C 53.4012,172.392 43.0679,173.392 32.5,173.5C 32.7373,174.791 32.404,175.791 31.5,176.5C 28.4984,174.892 25.8318,175.225 23.5,177.5C 24.6001,185.915 25.2668,194.248 25.5,202.5C 24.4226,201.982 23.2559,201.648 22,201.5C 15.6172,203.684 9.1172,205.351 2.5,206.5C 2.5,195.5 2.5,184.5 2.5,173.5C 8.14651,172.622 13.8132,171.789 19.5,171C 21.1447,169.2 22.478,167.2 23.5,165C 25.9587,163.503 28.4587,163.336 31,164.5C 33.6876,162.7 36.5209,161.367 39.5,160.5 Z"/></g>
<g><path style="opacity:1" fill="#63382a" d="M 102.5,173.5 C 103.605,174.6 104.938,175.267 106.5,175.5C 106.702,177.95 106.369,180.283 105.5,182.5C 105.5,182.833 105.5,183.167 105.5,183.5C 104.504,183.586 103.671,183.252 103,182.5C 101.417,183.971 99.5834,184.971 97.5,185.5C 97.5,184.167 97.5,182.833 97.5,181.5C 98.3439,178.322 100.011,175.655 102.5,173.5 Z"/></g>
<g><path style="opacity:1" fill="#693e2a" d="M 179.5,174.5 C 180.484,177.051 181.484,179.718 182.5,182.5C 181.476,183.852 180.476,185.185 179.5,186.5C 177.011,186.241 175.344,187.241 174.5,189.5C 172.08,188.528 170.08,189.195 168.5,191.5C 166.33,189.914 163.996,188.58 161.5,187.5C 159.95,186.559 158.284,185.893 156.5,185.5C 156.5,185.167 156.5,184.833 156.5,184.5C 160.674,181.912 165.007,179.579 169.5,177.5C 172.833,176.5 176.167,175.5 179.5,174.5 Z"/></g>
<g><path style="opacity:1" fill="#1a1824" d="M 31.5,176.5 C 33.0521,190.741 34.2188,205.074 35,219.5C 37.2192,222.867 40.3858,224.867 44.5,225.5C 44.9465,228.01 44.2798,230.01 42.5,231.5C 39.9455,232.388 37.2788,232.721 34.5,232.5C 31.7261,231.277 29.0594,229.777 26.5,228C 25.6634,226.989 25.33,225.822 25.5,224.5C 25.5,219.833 25.5,215.167 25.5,210.5C 25.5,207.833 25.5,205.167 25.5,202.5C 25.2668,194.248 24.6001,185.915 23.5,177.5C 25.8318,175.225 28.4984,174.892 31.5,176.5 Z"/></g>
<g><path style="opacity:1" fill="#b7866f" d="M 153.5,177.5 C 153.98,180.078 154.98,182.412 156.5,184.5C 156.5,184.833 156.5,185.167 156.5,185.5C 152.738,188.641 152.071,192.308 154.5,196.5C 146.876,197.398 139.209,197.731 131.5,197.5C 132.369,195.283 132.702,192.95 132.5,190.5C 131.659,188.621 131.325,186.621 131.5,184.5C 137.232,186.613 143.066,187.28 149,186.5C 149.791,185.255 150.291,183.922 150.5,182.5C 150.953,180.435 151.953,178.768 153.5,177.5 Z"/></g>
<g><path style="opacity:1" fill="#d2b383" d="M 107.5,172.5 C 110.776,173.122 112.109,175.122 111.5,178.5C 111.5,179.833 111.5,181.167 111.5,182.5C 109.5,182.5 107.5,182.5 105.5,182.5C 106.369,180.283 106.702,177.95 106.5,175.5C 106.557,174.391 106.89,173.391 107.5,172.5 Z"/></g>
<g><path style="opacity:1" fill="#6b3f2c" d="M 111.5,178.5 C 117.997,179.533 124.33,181.2 130.5,183.5C 130.5,183.833 130.5,184.167 130.5,184.5C 125.838,186.497 121.171,188.497 116.5,190.5C 115.391,190.443 114.391,190.11 113.5,189.5C 113.829,186.772 113.163,184.438 111.5,182.5C 111.5,181.167 111.5,179.833 111.5,178.5 Z"/></g>
<g><path style="opacity:1" fill="#d9a17c" d="M 132.5,179.5 C 138.551,180.339 144.551,181.339 150.5,182.5C 150.291,183.922 149.791,185.255 149,186.5C 143.066,187.28 137.232,186.613 131.5,184.5C 131.167,184.5 130.833,184.5 130.5,184.5C 130.5,184.167 130.5,183.833 130.5,183.5C 131.167,182.167 131.833,180.833 132.5,179.5 Z"/></g>
<g><path style="opacity:1" fill="#815034" d="M 105.5,183.5 C 105.5,188.5 105.5,193.5 105.5,198.5C 105.5,201.5 105.5,204.5 105.5,207.5C 105.5,207.833 105.5,208.167 105.5,208.5C 103.621,209.341 101.621,209.675 99.5,209.5C 98.4261,203.917 97.5928,198.251 97,192.5C 95.9887,191.663 94.8221,191.33 93.5,191.5C 94.0568,188.95 95.3901,186.95 97.5,185.5C 99.5834,184.971 101.417,183.971 103,182.5C 103.671,183.252 104.504,183.586 105.5,183.5 Z"/></g>
<g><path style="opacity:1" fill="#eddb9f" d="M 105.5,182.5 C 107.5,182.5 109.5,182.5 111.5,182.5C 113.163,184.438 113.829,186.772 113.5,189.5C 113.077,190.265 112.743,191.098 112.5,192C 113.871,194.319 114.538,196.819 114.5,199.5C 111.43,199.632 108.43,199.299 105.5,198.5C 105.5,193.5 105.5,188.5 105.5,183.5C 105.5,183.167 105.5,182.833 105.5,182.5 Z"/></g>
<g><path style="opacity:1" fill="#8e899b" d="M 156.5,185.5 C 158.284,185.893 159.95,186.559 161.5,187.5C 160.523,190.244 161.19,192.577 163.5,194.5C 163.5,195.167 163.5,195.833 163.5,196.5C 160.5,195.167 157.5,195.167 154.5,196.5C 152.071,192.308 152.738,188.641 156.5,185.5 Z"/></g>
<g><path style="opacity:1" fill="#724830" d="M 204.5,190.5 C 203.595,191.964 203.595,193.298 204.5,194.5C 203.25,194.577 202.417,195.244 202,196.5C 201.71,198.92 201.21,201.254 200.5,203.5C 199.508,203.328 198.842,203.662 198.5,204.5C 193.821,204.666 189.155,204.499 184.5,204C 183.956,203.283 183.289,202.783 182.5,202.5C 180.544,198.138 179.544,193.471 179.5,188.5C 180.721,187.972 181.887,187.305 183,186.5C 185.192,188.235 187.692,189.402 190.5,190C 195.348,189.949 200.015,190.116 204.5,190.5 Z"/></g>
<g><path style="opacity:1" fill="#ae9c9b" d="M 161.5,187.5 C 163.996,188.58 166.33,189.914 168.5,191.5C 167.952,194.084 166.285,195.084 163.5,194.5C 161.19,192.577 160.523,190.244 161.5,187.5 Z"/></g>
<g><path style="opacity:1" fill="#262635" d="M 262.5,178.5 C 267.5,178.5 272.5,178.5 277.5,178.5C 277.5,185.167 277.5,191.833 277.5,198.5C 272.833,198.5 268.167,198.5 263.5,198.5C 262.833,198.167 262.167,197.833 261.5,197.5C 262.137,191.18 262.47,184.846 262.5,178.5 Z"/></g>
<g><path style="opacity:1" fill="#958486" d="M 130.5,184.5 C 130.833,184.5 131.167,184.5 131.5,184.5C 131.325,186.621 131.659,188.621 132.5,190.5C 127.295,188.898 123.628,190.565 121.5,195.5C 120.5,195.5 119.5,195.5 118.5,195.5C 117.559,193.95 116.893,192.284 116.5,190.5C 121.171,188.497 125.838,186.497 130.5,184.5 Z"/></g>
<g><path style="opacity:1" fill="#696a88" d="M 132.5,190.5 C 132.702,192.95 132.369,195.283 131.5,197.5C 128.167,196.833 124.833,196.167 121.5,195.5C 123.628,190.565 127.295,188.898 132.5,190.5 Z"/></g>
<g><path style="opacity:1" fill="#874f32" d="M 218.5,189.5 C 218.369,190.376 218.702,191.043 219.5,191.5C 220.446,191.013 221.446,190.68 222.5,190.5C 226.565,191.173 228.565,193.506 228.5,197.5C 227.395,198.6 226.062,199.267 224.5,199.5C 224.5,198.167 224.5,196.833 224.5,195.5C 222.856,195.286 221.356,195.62 220,196.5C 219.503,198.81 219.337,201.143 219.5,203.5C 218.833,204.833 218.167,206.167 217.5,207.5C 215.025,208.687 212.691,208.353 210.5,206.5C 210.19,204.856 209.19,203.856 207.5,203.5C 206.278,202.063 206.278,200.563 207.5,199C 207.101,197.019 206.101,195.519 204.5,194.5C 203.595,193.298 203.595,191.964 204.5,190.5C 209.263,190.774 213.93,190.441 218.5,189.5 Z"/></g>
<g><path style="opacity:1" fill="#c7a269" d="M 204.5,194.5 C 206.101,195.519 207.101,197.019 207.5,199C 206.278,200.563 206.278,202.063 207.5,203.5C 205.167,203.5 202.833,203.5 200.5,203.5C 201.21,201.254 201.71,198.92 202,196.5C 202.417,195.244 203.25,194.577 204.5,194.5 Z"/></g>
<g><path style="opacity:1" fill="#21131a" d="M 118.5,195.5 C 119.5,195.5 120.5,195.5 121.5,195.5C 124.833,196.167 128.167,196.833 131.5,197.5C 139.209,197.731 146.876,197.398 154.5,196.5C 157.5,195.167 160.5,195.167 163.5,196.5C 163.5,196.833 163.5,197.167 163.5,197.5C 158.437,199.354 156.104,203.021 156.5,208.5C 155.542,208.953 154.708,209.619 154,210.5C 152.343,213.089 152.009,215.756 153,218.5C 149.042,222.526 147.542,227.192 148.5,232.5C 144.587,233.596 140.587,233.762 136.5,233C 135.944,232.617 135.611,232.117 135.5,231.5C 135.167,230.167 134.833,228.833 134.5,227.5C 133.812,224.282 132.812,221.116 131.5,218C 132.125,216.159 132.292,214.326 132,212.5C 129.302,210.299 127.136,207.632 125.5,204.5C 124.712,201.379 122.712,199.712 119.5,199.5C 119.567,198.041 119.234,196.708 118.5,195.5 Z"/></g>
<g><path style="opacity:1" fill="#946a52" d="M 113.5,189.5 C 114.391,190.11 115.391,190.443 116.5,190.5C 116.893,192.284 117.559,193.95 118.5,195.5C 119.234,196.708 119.567,198.041 119.5,199.5C 122.712,199.712 124.712,201.379 125.5,204.5C 123.05,204.298 120.717,204.631 118.5,205.5C 117.167,205.5 115.833,205.5 114.5,205.5C 114.5,203.5 114.5,201.5 114.5,199.5C 114.538,196.819 113.871,194.319 112.5,192C 112.743,191.098 113.077,190.265 113.5,189.5 Z"/></g>
<g><path style="opacity:1" fill="#826456" d="M 163.5,197.5 C 164.167,197.833 164.833,198.167 165.5,198.5C 165.296,201.518 164.963,204.518 164.5,207.5C 161.873,208.092 159.206,208.425 156.5,208.5C 156.104,203.021 158.437,199.354 163.5,197.5 Z"/></g>
<g><path style="opacity:1" fill="#946242" d="M 174.5,189.5 C 174.084,194.493 173.751,199.493 173.5,204.5C 172.5,204.5 171.5,204.5 170.5,204.5C 169.388,202.401 168.721,200.067 168.5,197.5C 167.209,197.263 166.209,197.596 165.5,198.5C 164.833,198.167 164.167,197.833 163.5,197.5C 163.5,197.167 163.5,196.833 163.5,196.5C 163.5,195.833 163.5,195.167 163.5,194.5C 166.285,195.084 167.952,194.084 168.5,191.5C 170.08,189.195 172.08,188.528 174.5,189.5 Z"/></g>
<g><path style="opacity:1" fill="#1e1f32" d="M 261.5,197.5 C 262.167,197.833 262.833,198.167 263.5,198.5C 263.608,200.783 264.441,202.783 266,204.5C 266.498,207.482 266.665,210.482 266.5,213.5C 261.612,214.943 256.945,216.943 252.5,219.5C 252.167,219.5 251.833,219.5 251.5,219.5C 251.023,214.627 250.023,209.961 248.5,205.5C 248.5,204.5 248.5,203.5 248.5,202.5C 253.412,202.206 257.745,200.539 261.5,197.5 Z"/></g>
<g><path style="opacity:1" fill="#ecc188" d="M 105.5,198.5 C 108.43,199.299 111.43,199.632 114.5,199.5C 114.5,201.5 114.5,203.5 114.5,205.5C 112.053,208.528 109.053,209.195 105.5,207.5C 105.5,204.5 105.5,201.5 105.5,198.5 Z"/></g>
<g><path style="opacity:1" fill="#4a383c" d="M 92.5,192.5 C 92.1667,197.833 91.8333,203.167 91.5,208.5C 87.1789,209.354 82.8456,209.02 78.5,207.5C 76.6455,207.34 75.3121,208.007 74.5,209.5C 72.631,207.365 71.9644,204.698 72.5,201.5C 76.7312,199.913 80.5645,200.58 84,203.5C 85.7385,200.121 87.5718,196.788 89.5,193.5C 90.325,192.614 91.325,192.281 92.5,192.5 Z"/></g>
<g><path style="opacity:1" fill="#cca374" d="M 224.5,199.5 C 224.5,201.167 224.5,202.833 224.5,204.5C 222.958,203.699 221.292,203.366 219.5,203.5C 219.337,201.143 219.503,198.81 220,196.5C 221.356,195.62 222.856,195.286 224.5,195.5C 224.5,196.833 224.5,198.167 224.5,199.5 Z"/></g>
<g><path style="opacity:1" fill="#323e51" d="M 25.5,202.5 C 25.5,205.167 25.5,207.833 25.5,210.5C 23.8632,209.782 22.1966,209.616 20.5,210C 14.3528,212.574 8.35279,215.408 2.5,218.5C 2.22813,214.723 2.22813,210.723 2.5,206.5C 9.1172,205.351 15.6172,203.684 22,201.5C 23.2559,201.648 24.4226,201.982 25.5,202.5 Z"/></g>
<g><path style="opacity:1" fill="#caa383" d="M 170.5,204.5 C 170.871,208.003 169.871,211.003 167.5,213.5C 167.167,213.5 166.833,213.5 166.5,213.5C 165.833,211.5 165.167,209.5 164.5,207.5C 164.963,204.518 165.296,201.518 165.5,198.5C 166.209,197.596 167.209,197.263 168.5,197.5C 168.721,200.067 169.388,202.401 170.5,204.5 Z"/></g>
<g><path style="opacity:1" fill="#e2bd8f" d="M 179.5,186.5 C 179.5,187.167 179.5,187.833 179.5,188.5C 179.544,193.471 180.544,198.138 182.5,202.5C 181.577,206.064 181.244,209.731 181.5,213.5C 180.081,214.451 178.415,214.784 176.5,214.5C 175.003,211.373 174.003,208.04 173.5,204.5C 173.751,199.493 174.084,194.493 174.5,189.5C 175.344,187.241 177.011,186.241 179.5,186.5 Z"/></g>
<g><path style="opacity:1" fill="#886a69" d="M 182.5,202.5 C 183.289,202.783 183.956,203.283 184.5,204C 189.155,204.499 193.821,204.666 198.5,204.5C 198.5,207.5 198.5,210.5 198.5,213.5C 196.139,213.674 193.806,214.007 191.5,214.5C 190.469,213.645 189.303,212.978 188,212.5C 185.901,213.287 183.734,213.62 181.5,213.5C 181.244,209.731 181.577,206.064 182.5,202.5 Z"/></g>
<g><path style="opacity:1" fill="#ecce9b" d="M 200.5,203.5 C 202.833,203.5 205.167,203.5 207.5,203.5C 209.19,203.856 210.19,204.856 210.5,206.5C 210.5,208.167 210.5,209.833 210.5,211.5C 209.659,213.379 209.325,215.379 209.5,217.5C 205.766,217.677 202.099,217.344 198.5,216.5C 198.5,215.5 198.5,214.5 198.5,213.5C 198.5,210.5 198.5,207.5 198.5,204.5C 198.842,203.662 199.508,203.328 200.5,203.5 Z"/></g>
<g><path style="opacity:1" fill="#a78375" d="M 170.5,204.5 C 171.5,204.5 172.5,204.5 173.5,204.5C 174.003,208.04 175.003,211.373 176.5,214.5C 173.287,214.81 170.287,214.477 167.5,213.5C 169.871,211.003 170.871,208.003 170.5,204.5 Z"/></g>
<g><path style="opacity:1" fill="#d3a888" d="M 114.5,205.5 C 115.833,205.5 117.167,205.5 118.5,205.5C 119.833,207.833 119.833,210.167 118.5,212.5C 113.904,212.898 112.237,215.231 113.5,219.5C 111.565,220.15 109.565,220.483 107.5,220.5C 106.619,216.546 105.952,212.546 105.5,208.5C 105.5,208.167 105.5,207.833 105.5,207.5C 109.053,209.195 112.053,208.528 114.5,205.5 Z"/></g>
<g><path style="opacity:1" fill="#5d403e" d="M 228.5,197.5 C 231.892,198.99 233.226,201.657 232.5,205.5C 233.833,205.5 235.167,205.5 236.5,205.5C 236.894,206.967 237.227,208.467 237.5,210C 236.14,212.27 235.473,214.77 235.5,217.5C 232.061,217.747 228.728,217.414 225.5,216.5C 225.817,212.298 225.483,208.298 224.5,204.5C 224.5,202.833 224.5,201.167 224.5,199.5C 226.062,199.267 227.395,198.6 228.5,197.5 Z"/></g>
<g><path style="opacity:1" fill="#4a3237" d="M 236.5,205.5 C 240.347,206.02 244.347,206.02 248.5,205.5C 250.023,209.961 251.023,214.627 251.5,219.5C 250.903,220.139 250.07,220.472 249,220.5C 244.373,219.445 239.873,218.445 235.5,217.5C 235.473,214.77 236.14,212.27 237.5,210C 237.227,208.467 236.894,206.967 236.5,205.5 Z"/></g>
<g><path style="opacity:1" fill="#ae764a" d="M 210.5,206.5 C 212.691,208.353 215.025,208.687 217.5,207.5C 218.744,210.351 217.744,212.351 214.5,213.5C 213.329,212.655 211.995,211.989 210.5,211.5C 210.5,209.833 210.5,208.167 210.5,206.5 Z"/></g>
<g><path style="opacity:1" fill="#44547c" d="M 263.5,198.5 C 268.167,198.5 272.833,198.5 277.5,198.5C 277.5,208.833 277.5,219.167 277.5,229.5C 270.505,228.333 263.505,227.167 256.5,226C 254.779,224.056 253.446,221.89 252.5,219.5C 256.945,216.943 261.612,214.943 266.5,213.5C 266.665,210.482 266.498,207.482 266,204.5C 264.441,202.783 263.608,200.783 263.5,198.5 Z"/></g>
<g><path style="opacity:1" fill="#daa980" d="M 93.5,191.5 C 94.8221,191.33 95.9887,191.663 97,192.5C 97.5928,198.251 98.4261,203.917 99.5,209.5C 98.2185,212.731 98.2185,216.064 99.5,219.5C 97.1944,219.993 94.861,220.326 92.5,220.5C 91.5701,216.6 91.2367,212.6 91.5,208.5C 91.8333,203.167 92.1667,197.833 92.5,192.5C 93.1667,192.5 93.5,192.167 93.5,191.5 Z"/></g>
<g><path style="opacity:1" fill="#88767c" d="M 105.5,208.5 C 105.952,212.546 106.619,216.546 107.5,220.5C 104.833,220.167 102.167,219.833 99.5,219.5C 98.2185,216.064 98.2185,212.731 99.5,209.5C 101.621,209.675 103.621,209.341 105.5,208.5 Z"/></g>
<g><path style="opacity:1" fill="#e2be92" d="M 219.5,203.5 C 221.292,203.366 222.958,203.699 224.5,204.5C 225.483,208.298 225.817,212.298 225.5,216.5C 225.5,216.833 225.5,217.167 225.5,217.5C 222.833,218.167 220.167,218.833 217.5,219.5C 215.833,219.5 214.167,219.5 212.5,219.5C 212.054,216.99 212.72,214.99 214.5,213.5C 217.744,212.351 218.744,210.351 217.5,207.5C 218.167,206.167 218.833,204.833 219.5,203.5 Z"/></g>
<g><path style="opacity:1" fill="#3c4d71" d="M 25.5,210.5 C 25.5,215.167 25.5,219.833 25.5,224.5C 22.4212,224.74 19.4212,224.407 16.5,223.5C 13.9886,230.269 8.98857,233.269 1.5,232.5C 1.22562,227.737 1.55896,223.07 2.5,218.5C 8.35279,215.408 14.3528,212.574 20.5,210C 22.1966,209.616 23.8632,209.782 25.5,210.5 Z"/></g>
<g><path style="opacity:1" fill="#a08782" d="M 118.5,212.5 C 124.979,215.073 124.979,217.407 118.5,219.5C 116.833,219.5 115.167,219.5 113.5,219.5C 112.237,215.231 113.904,212.898 118.5,212.5 Z"/></g>
<g><path style="opacity:1" fill="#4f4245" d="M 191.5,214.5 C 191.773,216.451 191.107,217.951 189.5,219C 179.511,220.868 169.511,220.868 159.5,219C 158.167,217.667 158.167,216.333 159.5,215C 161.74,214.023 164.073,213.523 166.5,213.5C 166.833,213.5 167.167,213.5 167.5,213.5C 170.287,214.477 173.287,214.81 176.5,214.5C 178.415,214.784 180.081,214.451 181.5,213.5C 183.734,213.62 185.901,213.287 188,212.5C 189.303,212.978 190.469,213.645 191.5,214.5 Z"/></g>
<g><path style="opacity:1" fill="#5a6184" d="M 91.5,208.5 C 91.2367,212.6 91.5701,216.6 92.5,220.5C 90.7376,220.357 89.0709,220.691 87.5,221.5C 86.2241,222.614 86.2241,223.614 87.5,224.5C 87.106,226.71 85.7727,228.043 83.5,228.5C 80.5352,229.734 77.5352,229.734 74.5,228.5C 73.8834,222.084 73.8834,215.75 74.5,209.5C 75.3121,208.007 76.6455,207.34 78.5,207.5C 82.8456,209.02 87.1789,209.354 91.5,208.5 Z"/></g>
<g><path style="opacity:1" fill="#dfb393" d="M 210.5,211.5 C 211.995,211.989 213.329,212.655 214.5,213.5C 212.72,214.99 212.054,216.99 212.5,219.5C 211.001,221.49 210.168,223.823 210,226.5C 208.02,227.749 206.187,229.082 204.5,230.5C 202.716,230.107 201.05,229.441 199.5,228.5C 198.728,224.548 198.395,220.548 198.5,216.5C 202.099,217.344 205.766,217.677 209.5,217.5C 209.325,215.379 209.659,213.379 210.5,211.5 Z"/></g>
<g><path style="opacity:1" fill="#565d7d" d="M 225.5,216.5 C 228.728,217.414 232.061,217.747 235.5,217.5C 239.873,218.445 244.373,219.445 249,220.5C 250.07,220.472 250.903,220.139 251.5,219.5C 251.833,219.5 252.167,219.5 252.5,219.5C 253.446,221.89 254.779,224.056 256.5,226C 263.505,227.167 270.505,228.333 277.5,229.5C 277.5,235.5 277.5,241.5 277.5,247.5C 270.709,247.249 265.542,249.915 262,255.5C 261.373,260.853 258.54,263.853 253.5,264.5C 253.168,259.164 250.501,255.497 245.5,253.5C 243.5,252.167 241.5,250.833 239.5,249.5C 241.361,247.112 242.694,244.446 243.5,241.5C 251.438,241.798 252.105,240.298 245.5,237C 243.19,236.503 240.857,236.337 238.5,236.5C 237.5,236.167 236.833,235.5 236.5,234.5C 237.833,233.067 239.333,231.733 241,230.5C 241.551,228.647 240.885,227.313 239,226.5C 236.026,228.063 232.859,229.063 229.5,229.5C 229.631,228.761 229.464,228.094 229,227.5C 227.698,226.915 226.531,226.249 225.5,225.5C 225.5,222.833 225.5,220.167 225.5,217.5C 225.5,217.167 225.5,216.833 225.5,216.5 Z"/></g>
<g><path style="opacity:1" fill="#ba967c" d="M 225.5,217.5 C 225.5,220.167 225.5,222.833 225.5,225.5C 223.958,226.301 222.292,226.634 220.5,226.5C 220.075,223.881 219.075,221.547 217.5,219.5C 220.167,218.833 222.833,218.167 225.5,217.5 Z"/></g>
<g><path style="opacity:1" fill="#847785" d="M 125.5,204.5 C 127.136,207.632 129.302,210.299 132,212.5C 132.292,214.326 132.125,216.159 131.5,218C 132.812,221.116 133.812,224.282 134.5,227.5C 129.442,230.246 124.442,230.079 119.5,227C 118.748,226.329 118.414,225.496 118.5,224.5C 120.511,223.258 120.511,221.591 118.5,219.5C 124.979,217.407 124.979,215.073 118.5,212.5C 119.833,210.167 119.833,207.833 118.5,205.5C 120.717,204.631 123.05,204.298 125.5,204.5 Z"/></g>
<g><path style="opacity:1" fill="#897885" d="M 164.5,207.5 C 165.167,209.5 165.833,211.5 166.5,213.5C 164.073,213.523 161.74,214.023 159.5,215C 158.167,216.333 158.167,217.667 159.5,219C 169.511,220.868 179.511,220.868 189.5,219C 191.107,217.951 191.773,216.451 191.5,214.5C 193.806,214.007 196.139,213.674 198.5,213.5C 198.5,214.5 198.5,215.5 198.5,216.5C 198.395,220.548 198.728,224.548 199.5,228.5C 197.184,229.16 194.851,229.827 192.5,230.5C 190.259,229.929 188.592,228.596 187.5,226.5C 185.081,225.105 183.081,225.605 181.5,228C 183.715,229.379 185.381,231.213 186.5,233.5C 185.406,234.582 184.073,235.248 182.5,235.5C 172.528,234.382 162.528,234.216 152.5,235C 151.956,235.717 151.289,236.217 150.5,236.5C 150.267,234.938 149.6,233.605 148.5,232.5C 147.542,227.192 149.042,222.526 153,218.5C 152.009,215.756 152.343,213.089 154,210.5C 154.708,209.619 155.542,208.953 156.5,208.5C 159.206,208.425 161.873,208.092 164.5,207.5 Z"/></g>
<g><path style="opacity:1" fill="#483b3e" d="M 99.5,219.5 C 102.167,219.833 104.833,220.167 107.5,220.5C 109.565,220.483 111.565,220.15 113.5,219.5C 115.167,219.5 116.833,219.5 118.5,219.5C 120.511,221.591 120.511,223.258 118.5,224.5C 117.5,224.5 116.5,224.5 115.5,224.5C 106.117,225.751 96.7837,225.751 87.5,224.5C 86.2241,223.614 86.2241,222.614 87.5,221.5C 89.0709,220.691 90.7376,220.357 92.5,220.5C 94.861,220.326 97.1944,219.993 99.5,219.5 Z"/></g>
<g><path style="opacity:1" fill="#6f5756" d="M 212.5,219.5 C 214.167,219.5 215.833,219.5 217.5,219.5C 219.075,221.547 220.075,223.881 220.5,226.5C 218.065,227.27 216.731,228.937 216.5,231.5C 214.213,231.724 212.047,232.391 210,233.5C 207.915,232.876 206.082,231.876 204.5,230.5C 206.187,229.082 208.02,227.749 210,226.5C 210.168,223.823 211.001,221.49 212.5,219.5 Z"/></g>
<g><path style="opacity:1" fill="#2b324b" d="M 25.5,224.5 C 25.33,225.822 25.6634,226.989 26.5,228C 29.0594,229.777 31.7261,231.277 34.5,232.5C 33.7729,234.954 32.7729,237.287 31.5,239.5C 25.438,240.202 19.7713,242.036 14.5,245C 10.1679,245.583 5.83458,246.083 1.5,246.5C 1.5,241.833 1.5,237.167 1.5,232.5C 8.98857,233.269 13.9886,230.269 16.5,223.5C 19.4212,224.407 22.4212,224.74 25.5,224.5 Z"/></g>
<g><path style="opacity:1" fill="#333550" d="M 66.5,231.5 C 63.9466,233.584 60.9466,234.917 57.5,235.5C 57.3893,234.883 57.056,234.383 56.5,234C 52.5,233.667 48.5,233.333 44.5,233C 43.5842,232.722 42.9175,232.222 42.5,231.5C 44.2798,230.01 44.9465,228.01 44.5,225.5C 45.1164,223.583 46.4497,222.416 48.5,222C 54.5958,219.854 58.2625,221.854 59.5,228C 61.9944,229.032 64.3277,230.198 66.5,231.5 Z"/></g>
<g><path style="opacity:1" fill="#7c7688" d="M 87.5,224.5 C 96.7837,225.751 106.117,225.751 115.5,224.5C 115.358,227.617 114.024,230.117 111.5,232C 106.386,232.289 101.386,233.123 96.5,234.5C 92.6002,235.43 88.6002,235.763 84.5,235.5C 84.702,233.05 84.3686,230.717 83.5,228.5C 85.7727,228.043 87.106,226.71 87.5,224.5 Z"/></g>
<g><path style="opacity:1" fill="#9c8888" d="M 115.5,224.5 C 116.5,224.5 117.5,224.5 118.5,224.5C 118.414,225.496 118.748,226.329 119.5,227C 124.442,230.079 129.442,230.246 134.5,227.5C 134.833,228.833 135.167,230.167 135.5,231.5C 132.887,234.645 131.221,238.311 130.5,242.5C 128.216,242.975 126.216,243.975 124.5,245.5C 121.289,246.935 117.955,248.102 114.5,249C 112.416,249.697 110.749,250.864 109.5,252.5C 109.167,252.5 108.833,252.5 108.5,252.5C 104.821,252.724 101.154,253.058 97.5,253.5C 97.5,252.833 97.5,252.167 97.5,251.5C 101.084,250.475 102.418,248.308 101.5,245C 104.329,240.623 102.996,238.457 97.5,238.5C 96.7659,237.292 96.4326,235.959 96.5,234.5C 101.386,233.123 106.386,232.289 111.5,232C 114.024,230.117 115.358,227.617 115.5,224.5 Z"/></g>
<g><path style="opacity:1" fill="#554951" d="M 225.5,225.5 C 226.531,226.249 227.698,226.915 229,227.5C 229.464,228.094 229.631,228.761 229.5,229.5C 225.829,229.837 223.829,231.837 223.5,235.5C 221.833,235.5 220.167,235.5 218.5,235.5C 218.473,233.801 217.806,232.467 216.5,231.5C 216.731,228.937 218.065,227.27 220.5,226.5C 222.292,226.634 223.958,226.301 225.5,225.5 Z"/></g>
<g><path style="opacity:1" fill="#282330" d="M 236.5,234.5 C 233.08,236.222 229.414,236.889 225.5,236.5C 225.158,235.662 224.492,235.328 223.5,235.5C 223.829,231.837 225.829,229.837 229.5,229.5C 232.859,229.063 236.026,228.063 239,226.5C 240.885,227.313 241.551,228.647 241,230.5C 239.333,231.733 237.833,233.067 236.5,234.5 Z"/></g>
<g><path style="opacity:1" fill="#3c2f30" d="M 199.5,228.5 C 201.05,229.441 202.716,230.107 204.5,230.5C 206.082,231.876 207.915,232.876 210,233.5C 212.047,232.391 214.213,231.724 216.5,231.5C 217.806,232.467 218.473,233.801 218.5,235.5C 218.218,236.778 217.551,237.778 216.5,238.5C 212.4,238.763 208.4,238.43 204.5,237.5C 198.767,237.353 193.1,236.686 187.5,235.5C 187.672,234.508 187.338,233.842 186.5,233.5C 185.381,231.213 183.715,229.379 181.5,228C 183.081,225.605 185.081,225.105 187.5,226.5C 188.592,228.596 190.259,229.929 192.5,230.5C 194.851,229.827 197.184,229.16 199.5,228.5 Z"/></g>
<g><path style="opacity:1" fill="#374457" d="M 42.5,231.5 C 42.9175,232.222 43.5842,232.722 44.5,233C 48.5,233.333 52.5,233.667 56.5,234C 57.056,234.383 57.3893,234.883 57.5,235.5C 50.6833,237.226 44.0166,239.226 37.5,241.5C 36.0101,239.72 34.0101,239.054 31.5,239.5C 32.7729,237.287 33.7729,234.954 34.5,232.5C 37.2788,232.721 39.9455,232.388 42.5,231.5 Z"/></g>
<g><path style="opacity:1" fill="#251f20" d="M 135.5,231.5 C 135.611,232.117 135.944,232.617 136.5,233C 140.587,233.762 144.587,233.596 148.5,232.5C 149.6,233.605 150.267,234.938 150.5,236.5C 151.695,238.751 152.695,241.085 153.5,243.5C 153.062,243.435 152.728,243.601 152.5,244C 154.723,249.486 158.557,252.319 164,252.5C 164.249,253.624 164.749,254.624 165.5,255.5C 167.747,254.626 170.08,254.292 172.5,254.5C 172.556,257.561 171.222,259.728 168.5,261C 161.034,263.617 153.368,265.117 145.5,265.5C 137.116,265.41 128.783,264.743 120.5,263.5C 121.246,259.873 121.913,256.206 122.5,252.5C 122.833,251.833 123.167,251.167 123.5,250.5C 128.956,250.072 131.289,247.405 130.5,242.5C 131.221,238.311 132.887,234.645 135.5,231.5 Z"/></g>
<g><path style="opacity:1" fill="#897d7d" d="M 96.5,234.5 C 96.4326,235.959 96.7659,237.292 97.5,238.5C 95.9328,239.681 95.0995,241.347 95,243.5C 90.5904,244.669 89.4238,247.335 91.5,251.5C 83.0098,252.246 76.0098,255.912 70.5,262.5C 69.1201,262.038 68.4534,261.038 68.5,259.5C 69.8274,256.503 71.1607,253.503 72.5,250.5C 72,250.167 71.5,249.833 71,249.5C 64.5571,252.816 58.0571,255.816 51.5,258.5C 48.4574,256.449 45.124,254.949 41.5,254C 40.1667,253.333 38.8333,253.333 37.5,254C 34.9708,256.029 32.3041,257.862 29.5,259.5C 28.7868,261.776 28.2868,264.109 28,266.5C 27.6174,267.056 27.1174,267.389 26.5,267.5C 24.042,264.061 23.8754,260.394 26,256.5C 29.5587,252.317 33.7253,248.984 38.5,246.5C 53.6664,241.803 68.9997,238.136 84.5,235.5C 88.6002,235.763 92.6002,235.43 96.5,234.5 Z"/></g>
<g><path style="opacity:1" fill="#a18988" d="M 186.5,233.5 C 187.338,233.842 187.672,234.508 187.5,235.5C 184.272,238.069 182.272,241.402 181.5,245.5C 178.183,244.779 174.849,244.612 171.5,245C 170.733,246.47 170.067,247.97 169.5,249.5C 164.089,247.697 158.756,245.697 153.5,243.5C 152.695,241.085 151.695,238.751 150.5,236.5C 151.289,236.217 151.956,235.717 152.5,235C 162.528,234.216 172.528,234.382 182.5,235.5C 184.073,235.248 185.406,234.582 186.5,233.5 Z"/></g>
<g><path style="opacity:1" fill="#ac9487" d="M 187.5,235.5 C 193.1,236.686 198.767,237.353 204.5,237.5C 202.832,239.479 202.166,241.812 202.5,244.5C 198.833,245.167 195.167,245.833 191.5,246.5C 191.912,248.973 190.912,250.306 188.5,250.5C 188.185,246.2 185.851,244.533 181.5,245.5C 182.272,241.402 184.272,238.069 187.5,235.5 Z"/></g>
<g><path style="opacity:1" fill="#6d7389" d="M 74.5,228.5 C 77.5352,229.734 80.5352,229.734 83.5,228.5C 84.3686,230.717 84.702,233.05 84.5,235.5C 68.9997,238.136 53.6664,241.803 38.5,246.5C 37.962,244.883 37.6287,243.216 37.5,241.5C 44.0166,239.226 50.6833,237.226 57.5,235.5C 60.9466,234.917 63.9466,233.584 66.5,231.5C 69.1926,231.372 71.8593,230.372 74.5,228.5 Z"/></g>
<g><path style="opacity:1" fill="#676773" d="M 236.5,234.5 C 236.833,235.5 237.5,236.167 238.5,236.5C 238.5,239.833 240.167,241.5 243.5,241.5C 242.694,244.446 241.361,247.112 239.5,249.5C 232.242,247.907 227.575,243.574 225.5,236.5C 229.414,236.889 233.08,236.222 236.5,234.5 Z"/></g>
<g><path style="opacity:1" fill="#a59494" d="M 238.5,236.5 C 240.857,236.337 243.19,236.503 245.5,237C 252.105,240.298 251.438,241.798 243.5,241.5C 240.167,241.5 238.5,239.833 238.5,236.5 Z"/></g>
<g><path style="opacity:1" fill="#887c7d" d="M 204.5,237.5 C 208.4,238.43 212.4,238.763 216.5,238.5C 216.238,241.691 214.905,244.358 212.5,246.5C 208.445,249.854 204.112,252.687 199.5,255C 203.722,258.794 208.388,262.127 213.5,265C 214.883,266.271 215.883,267.771 216.5,269.5C 213.937,270.2 211.437,271.2 209,272.5C 207.862,272.011 206.695,271.678 205.5,271.5C 205.217,270.711 204.717,270.044 204,269.5C 197.926,271.468 191.76,273.135 185.5,274.5C 185.128,270.45 182.795,268.45 178.5,268.5C 180.807,262.862 179.807,257.696 175.5,253C 176.056,252.617 176.389,252.117 176.5,251.5C 179.064,251.979 181.564,252.645 184,253.5C 185.878,252.947 187.378,251.947 188.5,250.5C 190.912,250.306 191.912,248.973 191.5,246.5C 195.167,245.833 198.833,245.167 202.5,244.5C 202.166,241.812 202.832,239.479 204.5,237.5 Z"/></g>
<g><path style="opacity:1" fill="#c2aa90" d="M 97.5,238.5 C 102.996,238.457 104.329,240.623 101.5,245C 102.418,248.308 101.084,250.475 97.5,251.5C 95.5,251.5 93.5,251.5 91.5,251.5C 89.4238,247.335 90.5904,244.669 95,243.5C 95.0995,241.347 95.9328,239.681 97.5,238.5 Z"/></g>
<g><path style="opacity:1" fill="#bab4ba" d="M 218.5,235.5 C 220.167,235.5 221.833,235.5 223.5,235.5C 224.492,235.328 225.158,235.662 225.5,236.5C 227.575,243.574 232.242,247.907 239.5,249.5C 241.5,250.833 243.5,252.167 245.5,253.5C 244.164,256.154 242.497,258.487 240.5,260.5C 234.68,260.797 230.18,263.464 227,268.5C 225.654,271.87 223.821,274.87 221.5,277.5C 219.018,275.35 217.352,272.683 216.5,269.5C 215.883,267.771 214.883,266.271 213.5,265C 208.388,262.127 203.722,258.794 199.5,255C 204.112,252.687 208.445,249.854 212.5,246.5C 214.905,244.358 216.238,241.691 216.5,238.5C 217.551,237.778 218.218,236.778 218.5,235.5 Z"/></g>
<g><path style="opacity:1" fill="#384464" d="M 31.5,239.5 C 34.0101,239.054 36.0101,239.72 37.5,241.5C 37.6287,243.216 37.962,244.883 38.5,246.5C 33.7253,248.984 29.5587,252.317 26,256.5C 23.8754,260.394 24.042,264.061 26.5,267.5C 27.2026,269.716 28.5359,271.549 30.5,273C 41.4827,279.163 53.1494,283.663 65.5,286.5C 72.5608,287.579 79.5608,288.912 86.5,290.5C 100.679,293.155 115.012,294.489 129.5,294.5C 151.241,294.89 172.908,293.89 194.5,291.5C 195.306,292.997 195.972,294.664 196.5,296.5C 191.987,297.376 187.654,298.709 183.5,300.5C 172.693,299.28 162.36,301.114 152.5,306C 149.571,306.777 146.737,306.61 144,305.5C 142.261,306.894 140.261,307.561 138,307.5C 134.218,306.857 130.718,305.524 127.5,303.5C 123.865,305.823 119.865,307.156 115.5,307.5C 109.552,304.616 103.218,302.782 96.5,302C 93.0473,298.531 89.0473,297.697 84.5,299.5C 61.3261,293.496 38.3261,286.996 15.5,280C 13.1667,279 10.8333,278 8.5,277C 8.18205,274.958 8.01538,272.791 8,270.5C 6.15746,268.829 3.9908,267.829 1.5,267.5C 1.5,260.5 1.5,253.5 1.5,246.5C 5.83458,246.083 10.1679,245.583 14.5,245C 19.7713,242.036 25.438,240.202 31.5,239.5 Z"/></g>
<g><path style="opacity:1" fill="#31324b" d="M 130.5,242.5 C 131.289,247.405 128.956,250.072 123.5,250.5C 123.629,248.784 123.962,247.117 124.5,245.5C 126.216,243.975 128.216,242.975 130.5,242.5 Z"/></g>
<g><path style="opacity:1" fill="#c7af95" d="M 181.5,245.5 C 185.851,244.533 188.185,246.2 188.5,250.5C 187.378,251.947 185.878,252.947 184,253.5C 181.564,252.645 179.064,251.979 176.5,251.5C 173.921,251.606 171.588,250.939 169.5,249.5C 170.067,247.97 170.733,246.47 171.5,245C 174.849,244.612 178.183,244.779 181.5,245.5 Z"/></g>
<g><path style="opacity:1" fill="#50566f" d="M 124.5,245.5 C 123.962,247.117 123.629,248.784 123.5,250.5C 123.167,251.167 122.833,251.833 122.5,252.5C 119.565,252.717 116.731,253.383 114,254.5C 112.124,254.475 110.624,253.809 109.5,252.5C 110.749,250.864 112.416,249.697 114.5,249C 117.955,248.102 121.289,246.935 124.5,245.5 Z"/></g>
<g><path style="opacity:1" fill="#3e4b64" d="M 277.5,247.5 C 277.5,256.167 277.5,264.833 277.5,273.5C 274.167,273.5 270.833,273.5 267.5,273.5C 268.384,277.49 267.051,280.323 263.5,282C 258.231,283.106 252.897,283.773 247.5,284C 238.787,288.845 229.454,291.512 219.5,292C 212.939,298.537 205.272,303.537 196.5,307C 189.104,310.579 184.77,308.412 183.5,300.5C 187.654,298.709 191.987,297.376 196.5,296.5C 195.972,294.664 195.306,292.997 194.5,291.5C 198.668,290.206 203.001,289.039 207.5,288C 208.056,287.617 208.389,287.117 208.5,286.5C 208.833,286.5 209.167,286.5 209.5,286.5C 209.56,287.043 209.893,287.376 210.5,287.5C 217.734,285.945 224.734,283.945 231.5,281.5C 239.182,278.911 246.015,274.911 252,269.5C 253.009,267.975 253.509,266.308 253.5,264.5C 258.54,263.853 261.373,260.853 262,255.5C 265.542,249.915 270.709,247.249 277.5,247.5 Z"/></g>
<g><path style="opacity:1" fill="#5c5d75" d="M 70.5,262.5 C 71.2026,264.716 72.5359,266.549 74.5,268C 79.9954,270.753 85.662,272.92 91.5,274.5C 93.5563,275.216 95.723,275.883 98,276.5C 98.3826,275.944 98.8826,275.611 99.5,275.5C 103.66,276.357 107.993,277.024 112.5,277.5C 115.102,277.533 117.102,276.533 118.5,274.5C 121.177,273.386 123.844,273.386 126.5,274.5C 126.979,276.889 128.312,278.556 130.5,279.5C 130.833,280.167 131.167,280.833 131.5,281.5C 130.167,283.167 128.833,284.833 127.5,286.5C 128.378,289.13 129.045,291.797 129.5,294.5C 115.012,294.489 100.679,293.155 86.5,290.5C 86.33,289.178 86.6634,288.011 87.5,287C 89.4727,286.505 91.4727,286.338 93.5,286.5C 93.7135,284.856 93.3802,283.356 92.5,282C 87.9932,280.107 83.3266,278.941 78.5,278.5C 77.2921,277.766 75.9587,277.433 74.5,277.5C 70.7521,274.759 67.4187,271.426 64.5,267.5C 61.6341,266.205 58.8007,266.205 56,267.5C 52.3941,265.622 50.8941,262.622 51.5,258.5C 58.0571,255.816 64.5571,252.816 71,249.5C 71.5,249.833 72,250.167 72.5,250.5C 71.1607,253.503 69.8274,256.503 68.5,259.5C 68.4534,261.038 69.1201,262.038 70.5,262.5 Z"/></g>
<g><path style="opacity:1" fill="#787176" d="M 91.5,251.5 C 93.5,251.5 95.5,251.5 97.5,251.5C 97.5,252.167 97.5,252.833 97.5,253.5C 95.5833,255.262 94.25,257.429 93.5,260C 94.5892,262.916 96.2558,265.416 98.5,267.5C 97.0813,268.451 95.4147,268.784 93.5,268.5C 93.2964,270.685 92.6298,272.685 91.5,274.5C 85.662,272.92 79.9954,270.753 74.5,268C 72.5359,266.549 71.2026,264.716 70.5,262.5C 76.0098,255.912 83.0098,252.246 91.5,251.5 Z"/></g>
<g><path style="opacity:1" fill="#6b6b7e" d="M 153.5,243.5 C 158.756,245.697 164.089,247.697 169.5,249.5C 171.588,250.939 173.921,251.606 176.5,251.5C 176.389,252.117 176.056,252.617 175.5,253C 179.807,257.696 180.807,262.862 178.5,268.5C 173.473,268.503 168.473,268.836 163.5,269.5C 159.434,269.307 155.434,269.64 151.5,270.5C 149.5,270.5 147.5,270.5 145.5,270.5C 144.167,268.833 144.167,267.167 145.5,265.5C 153.368,265.117 161.034,263.617 168.5,261C 171.222,259.728 172.556,257.561 172.5,254.5C 170.08,254.292 167.747,254.626 165.5,255.5C 164.749,254.624 164.249,253.624 164,252.5C 158.557,252.319 154.723,249.486 152.5,244C 152.728,243.601 153.062,243.435 153.5,243.5 Z"/></g>
<g><path style="opacity:1" fill="#636475" d="M 108.5,252.5 C 108.5,254.167 108.5,255.833 108.5,257.5C 107.883,257.611 107.383,257.944 107,258.5C 105.869,261.445 105.036,264.445 104.5,267.5C 103.5,267.5 102.5,267.5 101.5,267.5C 100.5,267.5 99.5,267.5 98.5,267.5C 96.2558,265.416 94.5892,262.916 93.5,260C 94.25,257.429 95.5833,255.262 97.5,253.5C 101.154,253.058 104.821,252.724 108.5,252.5 Z"/></g>
<g><path style="opacity:1" fill="#2c2c3a" d="M 108.5,252.5 C 108.833,252.5 109.167,252.5 109.5,252.5C 110.624,253.809 112.124,254.475 114,254.5C 116.731,253.383 119.565,252.717 122.5,252.5C 121.913,256.206 121.246,259.873 120.5,263.5C 115.952,262.56 111.952,260.56 108.5,257.5C 108.5,255.833 108.5,254.167 108.5,252.5 Z"/></g>
<g><path style="opacity:1" fill="#6a6976" d="M 51.5,258.5 C 50.8941,262.622 52.3941,265.622 56,267.5C 58.8007,266.205 61.6341,266.205 64.5,267.5C 67.4187,271.426 70.7521,274.759 74.5,277.5C 73.713,279.104 72.3797,279.771 70.5,279.5C 70.281,280.675 70.6143,281.675 71.5,282.5C 74.0205,283.785 76.6872,284.452 79.5,284.5C 79.4828,282.435 79.1495,280.435 78.5,278.5C 83.3266,278.941 87.9932,280.107 92.5,282C 93.3802,283.356 93.7135,284.856 93.5,286.5C 91.4727,286.338 89.4727,286.505 87.5,287C 86.6634,288.011 86.33,289.178 86.5,290.5C 79.5608,288.912 72.5608,287.579 65.5,286.5C 53.1494,283.663 41.4827,279.163 30.5,273C 28.5359,271.549 27.2026,269.716 26.5,267.5C 27.1174,267.389 27.6174,267.056 28,266.5C 28.2868,264.109 28.7868,261.776 29.5,259.5C 32.3041,257.862 34.9708,256.029 37.5,254C 38.8333,253.333 40.1667,253.333 41.5,254C 45.124,254.949 48.4574,256.449 51.5,258.5 Z"/></g>
<g><path style="opacity:1" fill="#7c767c" d="M 245.5,253.5 C 250.501,255.497 253.168,259.164 253.5,264.5C 253.509,266.308 253.009,267.975 252,269.5C 246.015,274.911 239.182,278.911 231.5,281.5C 230.903,281.265 230.57,280.765 230.5,280C 231.609,277.953 232.276,275.787 232.5,273.5C 234.833,273.5 237.167,273.5 239.5,273.5C 239.567,272.041 239.234,270.708 238.5,269.5C 242.909,267.389 243.576,264.389 240.5,260.5C 242.497,258.487 244.164,256.154 245.5,253.5 Z"/></g>
<g><path style="opacity:1" fill="#50576f" d="M 108.5,257.5 C 111.952,260.56 115.952,262.56 120.5,263.5C 128.783,264.743 137.116,265.41 145.5,265.5C 144.167,267.167 144.167,268.833 145.5,270.5C 143.833,270.5 142.167,270.5 140.5,270.5C 132.327,269.804 124.327,269.804 116.5,270.5C 112.532,269.285 108.532,268.285 104.5,267.5C 105.036,264.445 105.869,261.445 107,258.5C 107.383,257.944 107.883,257.611 108.5,257.5 Z"/></g>
<g><path style="opacity:1" fill="#a79688" d="M 98.5,267.5 C 99.5,267.5 100.5,267.5 101.5,267.5C 103.037,270.685 102.37,273.352 99.5,275.5C 98.8826,275.611 98.3826,275.944 98,276.5C 95.723,275.883 93.5563,275.216 91.5,274.5C 92.6298,272.685 93.2964,270.685 93.5,268.5C 95.4147,268.784 97.0813,268.451 98.5,267.5 Z"/></g>
<g><path style="opacity:1" fill="#857a79" d="M 101.5,267.5 C 102.5,267.5 103.5,267.5 104.5,267.5C 108.532,268.285 112.532,269.285 116.5,270.5C 117.167,271.833 117.833,273.167 118.5,274.5C 117.102,276.533 115.102,277.533 112.5,277.5C 107.993,277.024 103.66,276.357 99.5,275.5C 102.37,273.352 103.037,270.685 101.5,267.5 Z"/></g>
<g><path style="opacity:1" fill="#9f918a" d="M 178.5,268.5 C 182.795,268.45 185.128,270.45 185.5,274.5C 178.81,274.161 172.143,274.828 165.5,276.5C 164.067,274.442 163.4,272.108 163.5,269.5C 168.473,268.836 173.473,268.503 178.5,268.5 Z"/></g>
<g><path style="opacity:1" fill="#baa28e" d="M 238.5,269.5 C 239.234,270.708 239.567,272.041 239.5,273.5C 237.167,273.5 234.833,273.5 232.5,273.5C 228.828,272.534 228.828,271.034 232.5,269C 234.598,268.322 236.598,268.489 238.5,269.5 Z"/></g>
<g><path style="opacity:1" fill="#6f6a7c" d="M 140.5,270.5 C 138.949,272.913 138.283,275.579 138.5,278.5C 143.5,278.5 148.5,278.5 153.5,278.5C 157.789,279.981 161.789,279.315 165.5,276.5C 172.143,274.828 178.81,274.161 185.5,274.5C 191.76,273.135 197.926,271.468 204,269.5C 204.717,270.044 205.217,270.711 205.5,271.5C 203.98,273.89 202.98,276.557 202.5,279.5C 200.787,280.635 200.12,282.302 200.5,284.5C 203.428,284.565 206.095,285.232 208.5,286.5C 208.389,287.117 208.056,287.617 207.5,288C 203.001,289.039 198.668,290.206 194.5,291.5C 172.908,293.89 151.241,294.89 129.5,294.5C 129.045,291.797 128.378,289.13 127.5,286.5C 128.833,284.833 130.167,283.167 131.5,281.5C 131.167,280.833 130.833,280.167 130.5,279.5C 128.312,278.556 126.979,276.889 126.5,274.5C 123.844,273.386 121.177,273.386 118.5,274.5C 117.833,273.167 117.167,271.833 116.5,270.5C 124.327,269.804 132.327,269.804 140.5,270.5 Z"/></g>
<g><path style="opacity:1" fill="#827d82" d="M 163.5,269.5 C 163.4,272.108 164.067,274.442 165.5,276.5C 161.789,279.315 157.789,279.981 153.5,278.5C 153.037,275.779 152.371,273.112 151.5,270.5C 155.434,269.64 159.434,269.307 163.5,269.5 Z"/></g>
<g><path style="opacity:1" fill="#6b6a76" d="M 240.5,260.5 C 243.576,264.389 242.909,267.389 238.5,269.5C 236.598,268.489 234.598,268.322 232.5,269C 228.828,271.034 228.828,272.534 232.5,273.5C 232.276,275.787 231.609,277.953 230.5,280C 230.57,280.765 230.903,281.265 231.5,281.5C 224.734,283.945 217.734,285.945 210.5,287.5C 209.893,287.376 209.56,287.043 209.5,286.5C 209.511,284.983 210.177,283.816 211.5,283C 208.852,280.95 205.852,279.784 202.5,279.5C 202.98,276.557 203.98,273.89 205.5,271.5C 206.695,271.678 207.862,272.011 209,272.5C 211.437,271.2 213.937,270.2 216.5,269.5C 217.352,272.683 219.018,275.35 221.5,277.5C 223.821,274.87 225.654,271.87 227,268.5C 230.18,263.464 234.68,260.797 240.5,260.5 Z"/></g>
<g><path style="opacity:1" fill="#9b8988" d="M 140.5,270.5 C 142.167,270.5 143.833,270.5 145.5,270.5C 147.5,270.5 149.5,270.5 151.5,270.5C 152.371,273.112 153.037,275.779 153.5,278.5C 148.5,278.5 143.5,278.5 138.5,278.5C 138.283,275.579 138.949,272.913 140.5,270.5 Z"/></g>
<g><path style="opacity:1" fill="#2a364f" d="M 277.5,273.5 C 277.5,286.167 277.5,298.833 277.5,311.5C 216.5,311.5 155.5,311.5 94.5,311.5C 92.1977,308.588 89.3644,306.255 86,304.5C 84.9914,302.975 84.4914,301.308 84.5,299.5C 89.0473,297.697 93.0473,298.531 96.5,302C 103.218,302.782 109.552,304.616 115.5,307.5C 119.865,307.156 123.865,305.823 127.5,303.5C 130.718,305.524 134.218,306.857 138,307.5C 140.261,307.561 142.261,306.894 144,305.5C 146.737,306.61 149.571,306.777 152.5,306C 162.36,301.114 172.693,299.28 183.5,300.5C 184.77,308.412 189.104,310.579 196.5,307C 205.272,303.537 212.939,298.537 219.5,292C 229.454,291.512 238.787,288.845 247.5,284C 252.897,283.773 258.231,283.106 263.5,282C 267.051,280.323 268.384,277.49 267.5,273.5C 270.833,273.5 274.167,273.5 277.5,273.5 Z"/></g>
<g><path style="opacity:1" fill="#2b3857" d="M 1.5,267.5 C 3.9908,267.829 6.15746,268.829 8,270.5C 8.01538,272.791 8.18205,274.958 8.5,277C 10.8333,278 13.1667,279 15.5,280C 38.3261,286.996 61.3261,293.496 84.5,299.5C 84.4914,301.308 84.9914,302.975 86,304.5C 89.3644,306.255 92.1977,308.588 94.5,311.5C 63.5,311.5 32.5,311.5 1.5,311.5C 1.5,296.833 1.5,282.167 1.5,267.5 Z"/></g>
<g><path style="opacity:1" fill="#928581" d="M 74.5,277.5 C 75.9587,277.433 77.2921,277.766 78.5,278.5C 79.1495,280.435 79.4828,282.435 79.5,284.5C 76.6872,284.452 74.0205,283.785 71.5,282.5C 70.6143,281.675 70.281,280.675 70.5,279.5C 72.3797,279.771 73.713,279.104 74.5,277.5 Z"/></g>
<g><path style="opacity:1" fill="#b49c8e" d="M 202.5,279.5 C 205.852,279.784 208.852,280.95 211.5,283C 210.177,283.816 209.511,284.983 209.5,286.5C 209.167,286.5 208.833,286.5 208.5,286.5C 206.095,285.232 203.428,284.565 200.5,284.5C 200.12,282.302 200.787,280.635 202.5,279.5 Z"/></g>
<g><path style="opacity:1" fill="#c7b5a1" d="M 139.5,285.5 C 143.512,284.887 145.512,286.554 145.5,290.5C 143.167,290.5 140.833,290.5 138.5,290.5C 138.366,288.708 138.699,287.042 139.5,285.5 Z"/></g>
</svg>
