<?xml version="1.0" encoding="UTF-8"?>
<!DOCTYPE svg PUBLIC "-//W3C//DTD SVG 1.1//EN" "http://www.w3.org/Graphics/SVG/1.1/DTD/svg11.dtd">
<svg xmlns="http://www.w3.org/2000/svg" version="1.1" width="277px" height="312px" style="shape-rendering:geometricPrecision; text-rendering:geometricPrecision; image-rendering:optimizeQuality; fill-rule:evenodd; clip-rule:evenodd" xmlns:xlink="http://www.w3.org/1999/xlink">
<g><path style="opacity:1" fill="#0d0d1a" d="M -0.5,-0.5 C 44.1667,-0.5 88.8333,-0.5 133.5,-0.5C 133.427,1.02694 134.094,2.02694 135.5,2.5C 133.924,3.14294 132.59,4.14294 131.5,5.5C 125.638,4.30069 119.638,3.30069 113.5,2.5C 87.8342,2.07297 62.1675,2.57297 36.5,4C 34.9808,5.21833 33.8141,6.71833 33,8.5C 32.7725,12.9171 32.2725,17.2504 31.5,21.5C 27.5,21.8333 23.5,22.1667 19.5,22.5C 13.523,21.8354 7.52296,21.502 1.5,21.5C 1.66615,15.4908 1.49949,9.49076 1,3.5C 0.617425,2.94404 0.117425,2.61071 -0.5,2.5C -0.5,1.5 -0.5,0.5 -0.5,-0.5 Z"/></g>
<g><path style="opacity:1" fill="#191925" d="M 133.5,-0.5 C 172.167,-0.5 210.833,-0.5 249.5,-0.5C 250.234,0.707917 250.567,2.04125 250.5,3.5C 258.174,3.33365 265.841,3.50031 273.5,4C 274.211,11.4242 274.211,18.9242 273.5,26.5C 262.1,31.7044 251.433,38.2044 241.5,46C 233.707,47.5476 232.374,51.5476 237.5,58C 238.448,58.4828 239.448,58.6495 240.5,58.5C 241.917,60.8852 243.25,63.3852 244.5,66C 242.551,70.4826 241.884,74.9826 242.5,79.5C 242.676,92.5613 242.676,105.561 242.5,118.5C 242.441,120.722 241.275,121.722 239,121.5C 237.301,121.613 236.134,120.947 235.5,119.5C 236.404,104.175 236.57,88.8417 236,73.5C 234.934,71.9005 233.434,70.9005 231.5,70.5C 231.167,71.3333 230.833,72.1667 230.5,73C 231.801,78.51 231.801,84.01 230.5,89.5C 229.5,89.5 228.5,89.5 227.5,89.5C 227.075,84.2687 226.075,79.2687 224.5,74.5C 223.046,67.9502 219.046,65.7836 212.5,68C 211.667,68.8333 210.833,69.6667 210,70.5C 208.022,68.2615 205.522,66.9282 202.5,66.5C 199.64,62.2009 197.64,57.5342 196.5,52.5C 191.57,50.2996 186.57,50.2996 181.5,52.5C 172.813,50.8015 164.48,51.8015 156.5,55.5C 151.201,55.7108 145.868,55.7108 140.5,55.5C 137.823,56.9192 134.99,58.2525 132,59.5C 130.428,55.1195 127.261,52.7862 122.5,52.5C 118.08,54.8805 113.413,56.8805 108.5,58.5C 105.821,58.0643 103.155,57.5643 100.5,57C 98.404,55.2342 96.0707,53.9009 93.5,53C 83.8182,52.7261 74.1515,52.2261 64.5,51.5C 61.4102,51.7519 58.4102,52.4186 55.5,53.5C 50.0787,50.5468 44.412,49.5468 38.5,50.5C 42.1804,38.1696 37.5137,32.8362 24.5,34.5C 22.5353,30.6635 20.8686,26.6635 19.5,22.5C 23.5,22.1667 27.5,21.8333 31.5,21.5C 62.1501,23.0552 92.8168,23.5552 123.5,23C 124.973,22.2904 125.64,21.1238 125.5,19.5C 127.833,19.5 130.167,19.5 132.5,19.5C 135.015,20.2606 137.515,19.9273 140,18.5C 142.761,14.0853 143.927,9.41864 143.5,4.5C 140.813,3.73961 138.147,3.07294 135.5,2.5C 134.094,2.02694 133.427,1.02694 133.5,-0.5 Z"/></g>
<g><path style="opacity:1" fill="#d2e8ed" d="M -0.5,2.5 C 0.117425,2.61071 0.617425,2.94404 1,3.5C 1.49949,9.49076 1.66615,15.4908 1.5,21.5C 1.5,29.1667 1.5,36.8333 1.5,44.5C 1.69751,49.7498 1.03084,54.7498 -0.5,59.5C -0.5,40.5 -0.5,21.5 -0.5,2.5 Z"/></g>
<g><path style="opacity:1" fill="#181e2a" d="M 131.5,5.5 C 131.226,10.263 131.559,14.9296 132.5,19.5C 130.167,19.5 127.833,19.5 125.5,19.5C 125.64,21.1238 124.973,22.2904 123.5,23C 92.8168,23.5552 62.1501,23.0552 31.5,21.5C 32.2725,17.2504 32.7725,12.9171 33,8.5C 33.8141,6.71833 34.9808,5.21833 36.5,4C 62.1675,2.57297 87.8342,2.07297 113.5,2.5C 119.638,3.30069 125.638,4.30069 131.5,5.5 Z"/></g>
<g><path style="opacity:1" fill="#191f38" d="M 135.5,2.5 C 138.147,3.07294 140.813,3.73961 143.5,4.5C 143.927,9.41864 142.761,14.0853 140,18.5C 137.515,19.9273 135.015,20.2606 132.5,19.5C 131.559,14.9296 131.226,10.263 131.5,5.5C 132.59,4.14294 133.924,3.14294 135.5,2.5 Z"/></g>
<g><path style="opacity:1" fill="#060c12" d="M 1.5,21.5 C 7.52296,21.502 13.523,21.8354 19.5,22.5C 20.8686,26.6635 22.5353,30.6635 24.5,34.5C 22.7319,37.1625 22.0653,40.1625 22.5,43.5C 15.5315,44.8869 8.53147,45.2203 1.5,44.5C 1.5,36.8333 1.5,29.1667 1.5,21.5 Z"/></g>
<g><path style="opacity:1" fill="#1e2532" d="M 273.5,26.5 C 274.483,30.2984 274.817,34.2984 274.5,38.5C 271.719,37.177 269.053,37.3437 266.5,39C 262.268,42.7433 257.935,46.2433 253.5,49.5C 247.835,50.4859 243.502,53.4859 240.5,58.5C 239.448,58.6495 238.448,58.4828 237.5,58C 232.374,51.5476 233.707,47.5476 241.5,46C 251.433,38.2044 262.1,31.7044 273.5,26.5 Z"/></g>
<g><path style="opacity:1" fill="#12171e" d="M 249.5,-0.5 C 258.5,-0.5 267.5,-0.5 276.5,-0.5C 276.5,71.5 276.5,143.5 276.5,215.5C 275.391,215.443 274.391,215.11 273.5,214.5C 274.475,206.851 274.975,199.184 275,191.5C 272.599,187.044 269.432,186.378 265.5,189.5C 263.15,188.139 260.816,186.806 258.5,185.5C 259.842,182.092 261.175,178.759 262.5,175.5C 263.15,175.196 263.817,174.863 264.5,174.5C 267.453,175.592 270.453,176.092 273.5,176C 275.834,174.158 276.168,171.991 274.5,169.5C 274.5,154.5 274.5,139.5 274.5,124.5C 274.749,108.231 274.416,92.2312 273.5,76.5C 274.482,73.0381 274.815,69.3714 274.5,65.5C 274.5,56.5 274.5,47.5 274.5,38.5C 274.817,34.2984 274.483,30.2984 273.5,26.5C 274.211,18.9242 274.211,11.4242 273.5,4C 265.841,3.50031 258.174,3.33365 250.5,3.5C 250.567,2.04125 250.234,0.707917 249.5,-0.5 Z"/></g>
<g><path style="opacity:1" fill="#192532" d="M 24.5,34.5 C 37.5137,32.8362 42.1804,38.1696 38.5,50.5C 33.7078,51.0139 29.0411,52.0139 24.5,53.5C 23.4192,50.3733 22.7526,47.0399 22.5,43.5C 22.0653,40.1625 22.7319,37.1625 24.5,34.5 Z"/></g>
<g><path style="opacity:1" fill="#2b384b" d="M 274.5,38.5 C 274.5,47.5 274.5,56.5 274.5,65.5C 270.581,66.7928 266.914,68.6261 263.5,71C 260.672,71.9694 258.338,71.3028 256.5,69C 258.34,62.0823 257.34,55.5823 253.5,49.5C 257.935,46.2433 262.268,42.7433 266.5,39C 269.053,37.3437 271.719,37.177 274.5,38.5 Z"/></g>
<g><path style="opacity:1" fill="#171b26" d="M 22.5,43.5 C 22.7526,47.0399 23.4192,50.3733 24.5,53.5C 22.5648,62.3815 21.5648,71.3815 21.5,80.5C 21.0156,88.5575 21.0156,96.5575 21.5,104.5C 21.5,110.167 21.5,115.833 21.5,121.5C 15.8062,121.547 10.9728,119.547 7,115.5C 6.72735,110.771 6.06068,106.104 5,101.5C 3.95101,99.8934 2.45101,99.2267 0.5,99.5C 0.830178,118.008 0.496845,136.341 -0.5,154.5C -0.5,122.833 -0.5,91.1667 -0.5,59.5C 1.03084,54.7498 1.69751,49.7498 1.5,44.5C 8.53147,45.2203 15.5315,44.8869 22.5,43.5 Z"/></g>
<g><path style="opacity:1" fill="#263243" d="M 224.5,74.5 C 223.828,75.2674 222.995,75.9341 222,76.5C 221.502,79.8168 221.335,83.1501 221.5,86.5C 217.435,86.1027 214.435,84.1027 212.5,80.5C 216.167,72.8333 214.167,70.8333 206.5,74.5C 206.189,73.5222 205.522,72.8555 204.5,72.5C 199.67,74.5828 194.67,76.0828 189.5,77C 187.34,78.332 185.34,79.832 183.5,81.5C 175.755,78.3888 167.921,75.0555 160,71.5C 157.715,75.0707 158.382,78.0707 162,80.5C 162.606,84.2939 164.106,87.6272 166.5,90.5C 165.37,91.6223 164.703,92.9557 164.5,94.5C 162.813,92.8338 160.813,91.5005 158.5,90.5C 157.5,89.8333 156.5,89.1667 155.5,88.5C 153.772,86.7745 151.772,85.4411 149.5,84.5C 149.483,82.4352 149.15,80.4352 148.5,78.5C 149.802,74.7782 148.469,72.4449 144.5,71.5C 142.846,69.1271 141.513,66.4604 140.5,63.5C 138.599,62.7691 136.599,62.7691 134.5,63.5C 134.5,64.5 134.5,65.5 134.5,66.5C 132.453,66.4889 130.453,66.1556 128.5,65.5C 121.756,68.6027 114.756,70.936 107.5,72.5C 109.091,65.9966 106.591,62.6633 100,62.5C 97.2481,63.5863 94.7481,65.0863 92.5,67C 86.9847,67.3473 81.4847,67.8473 76,68.5C 64.1581,65.9752 52.3248,66.1418 40.5,69C 39.2494,71.925 38.2494,74.925 37.5,78C 32.264,79.2917 26.9307,80.125 21.5,80.5C 21.5648,71.3815 22.5648,62.3815 24.5,53.5C 29.0411,52.0139 33.7078,51.0139 38.5,50.5C 44.412,49.5468 50.0787,50.5468 55.5,53.5C 58.4102,52.4186 61.4102,51.7519 64.5,51.5C 74.1515,52.2261 83.8182,52.7261 93.5,53C 96.0707,53.9009 98.404,55.2342 100.5,57C 103.155,57.5643 105.821,58.0643 108.5,58.5C 113.413,56.8805 118.08,54.8805 122.5,52.5C 127.261,52.7862 130.428,55.1195 132,59.5C 134.99,58.2525 137.823,56.9192 140.5,55.5C 145.868,55.7108 151.201,55.7108 156.5,55.5C 164.48,51.8015 172.813,50.8015 181.5,52.5C 186.57,50.2996 191.57,50.2996 196.5,52.5C 197.64,57.5342 199.64,62.2009 202.5,66.5C 205.522,66.9282 208.022,68.2615 210,70.5C 210.833,69.6667 211.667,68.8333 212.5,68C 219.046,65.7836 223.046,67.9502 224.5,74.5 Z"/></g>
<g><path style="opacity:1" fill="#2a3d50" d="M 107.5,72.5 C 102.88,75.9852 97.713,77.3185 92,76.5C 89.353,79.2726 88.1863,82.6059 88.5,86.5C 85.655,88.0231 82.655,89.0231 79.5,89.5C 79.0338,87.7988 79.0338,86.2988 79.5,85C 78.5,84.3333 77.5,84.3333 76.5,85C 74.4703,88.5891 73.137,92.4224 72.5,96.5C 69.3705,96.2283 66.7039,95.0617 64.5,93C 68.2076,83.0526 64.8743,78.7193 54.5,80C 51.5424,80.2293 49.0424,81.396 47,83.5C 46.7931,87.0894 46.2931,90.5894 45.5,94C 41.4574,94.1128 37.7907,95.2795 34.5,97.5C 33.6258,99.7466 33.2924,102.08 33.5,104.5C 31.2872,105.773 28.9538,106.773 26.5,107.5C 25.5994,105.273 23.9328,104.273 21.5,104.5C 21.0156,96.5575 21.0156,88.5575 21.5,80.5C 26.9307,80.125 32.264,79.2917 37.5,78C 38.2494,74.925 39.2494,71.925 40.5,69C 52.3248,66.1418 64.1581,65.9752 76,68.5C 81.4847,67.8473 86.9847,67.3473 92.5,67C 94.7481,65.0863 97.2481,63.5863 100,62.5C 106.591,62.6633 109.091,65.9966 107.5,72.5 Z"/></g>
<g><path style="opacity:1" fill="#23303f" d="M 253.5,49.5 C 257.34,55.5823 258.34,62.0823 256.5,69C 258.338,71.3028 260.672,71.9694 263.5,71C 266.914,68.6261 270.581,66.7928 274.5,65.5C 274.815,69.3714 274.482,73.0381 273.5,76.5C 272.469,75.645 271.303,74.9783 270,74.5C 261.462,79.0629 252.296,80.7296 242.5,79.5C 241.884,74.9826 242.551,70.4826 244.5,66C 243.25,63.3852 241.917,60.8852 240.5,58.5C 243.502,53.4859 247.835,50.4859 253.5,49.5 Z"/></g>
<g><path style="opacity:1" fill="#3c5575" d="M 144.5,71.5 C 148.469,72.4449 149.802,74.7782 148.5,78.5C 143.994,78.2146 139.327,78.548 134.5,79.5C 134.371,81.2161 134.038,82.8828 133.5,84.5C 132.5,84.5 131.5,84.5 130.5,84.5C 128.467,80.3487 129.8,78.0153 134.5,77.5C 135.088,70.9104 138.422,68.9104 144.5,71.5 Z"/></g>
<g><path style="opacity:1" fill="#334457" d="M 235.5,119.5 C 232.708,119.452 230.875,120.785 230,123.5C 229.204,126.039 229.371,128.372 230.5,130.5C 229.942,131.79 228.942,132.623 227.5,133C 215.353,133.945 203.353,134.778 191.5,135.5C 181.5,135.5 171.5,135.5 161.5,135.5C 161.5,134.167 161.5,132.833 161.5,131.5C 170.173,131.666 178.84,131.5 187.5,131C 188.71,129.961 189.71,128.794 190.5,127.5C 193.177,124.664 196.51,123.164 200.5,123C 207.964,115.606 206.797,109.772 197,105.5C 195.544,102.191 195.211,98.8572 196,95.5C 191.602,91.2713 187.436,86.9379 183.5,82.5C 183.5,82.1667 183.5,81.8333 183.5,81.5C 185.34,79.832 187.34,78.332 189.5,77C 194.67,76.0828 199.67,74.5828 204.5,72.5C 205.522,72.8555 206.189,73.5222 206.5,74.5C 206.237,78.6319 208.237,80.6319 212.5,80.5C 214.435,84.1027 217.435,86.1027 221.5,86.5C 222.144,94.2045 223.144,101.871 224.5,109.5C 227.05,109.439 228.55,108.106 229,105.5C 230.271,100.246 230.771,94.9127 230.5,89.5C 231.801,84.01 231.801,78.51 230.5,73C 230.833,72.1667 231.167,71.3333 231.5,70.5C 233.434,70.9005 234.934,71.9005 236,73.5C 236.57,88.8417 236.404,104.175 235.5,119.5 Z"/></g>
<g><path style="opacity:1" fill="#d9d4c7" d="M 212.5,80.5 C 208.237,80.6319 206.237,78.6319 206.5,74.5C 214.167,70.8333 216.167,72.8333 212.5,80.5 Z"/></g>
<g><path style="opacity:1" fill="#324457" d="M 273.5,76.5 C 274.416,92.2312 274.749,108.231 274.5,124.5C 271.047,125.048 267.714,125.048 264.5,124.5C 263.749,123.427 262.749,123.26 261.5,124C 259.919,125.828 258.585,127.828 257.5,130C 250.495,131.671 246.995,128.837 247,121.5C 245.871,119.859 244.371,118.859 242.5,118.5C 242.676,105.561 242.676,92.5613 242.5,79.5C 252.296,80.7296 261.462,79.0629 270,74.5C 271.303,74.9783 272.469,75.645 273.5,76.5 Z"/></g>
<g><path style="opacity:1" fill="#191a2c" d="M 134.5,66.5 C 134.762,67.9778 134.429,69.3112 133.5,70.5C 127.413,72.4233 122.246,75.7567 118,80.5C 117.014,83.7417 117.848,86.4083 120.5,88.5C 117.645,91.5202 114.979,94.6868 112.5,98C 114.892,100.728 116.892,103.728 118.5,107C 121.695,107.181 124.695,107.681 127.5,108.5C 126.378,110.288 126.211,112.288 127,114.5C 128.833,116.333 130.667,118.167 132.5,120C 134.387,120.78 136.054,120.613 137.5,119.5C 138.222,119.918 138.722,120.584 139,121.5C 142.049,120.972 144.882,119.972 147.5,118.5C 150.983,122.131 155.316,123.798 160.5,123.5C 160.5,126.167 160.5,128.833 160.5,131.5C 148.167,131.5 135.833,131.5 123.5,131.5C 117.833,131.5 112.167,131.5 106.5,131.5C 107.875,124.418 105.542,118.918 99.5,115C 95.6251,113.48 91.6251,113.146 87.5,114C 85.1192,114.223 83.4525,115.39 82.5,117.5C 80.7549,115.967 79.7549,113.967 79.5,111.5C 81.2894,102.922 84.9561,95.2549 90.5,88.5C 90.1445,87.4777 89.4778,86.811 88.5,86.5C 88.1863,82.6059 89.353,79.2726 92,76.5C 97.713,77.3185 102.88,75.9852 107.5,72.5C 114.756,70.936 121.756,68.6027 128.5,65.5C 130.453,66.1556 132.453,66.4889 134.5,66.5 Z"/></g>
<g><path style="opacity:1" fill="#577da8" d="M 148.5,78.5 C 149.15,80.4352 149.483,82.4352 149.5,84.5C 144.167,84.5 138.833,84.5 133.5,84.5C 134.038,82.8828 134.371,81.2161 134.5,79.5C 139.327,78.548 143.994,78.2146 148.5,78.5 Z"/></g>
<g><path style="opacity:1" fill="#384b64" d="M 72.5,96.5 C 72.756,100.269 72.4227,103.936 71.5,107.5C 67.7983,107.579 64.1317,107.246 60.5,106.5C 57.8887,106.556 55.722,107.556 54,109.5C 55.3995,116.69 52.7328,121.356 46,123.5C 43.7395,123.561 41.7395,122.894 40,121.5C 38.935,116.892 38.435,112.226 38.5,107.5C 36.9713,106.237 35.3046,105.237 33.5,104.5C 33.2924,102.08 33.6258,99.7466 34.5,97.5C 37.7907,95.2795 41.4574,94.1128 45.5,94C 46.2931,90.5894 46.7931,87.0894 47,83.5C 49.0424,81.396 51.5424,80.2293 54.5,80C 64.8743,78.7193 68.2076,83.0526 64.5,93C 66.7039,95.0617 69.3705,96.2283 72.5,96.5 Z"/></g>
<g><path style="opacity:1" fill="#263a57" d="M 144.5,71.5 C 138.422,68.9104 135.088,70.9104 134.5,77.5C 129.8,78.0153 128.467,80.3487 130.5,84.5C 130.5,85.1667 130.167,85.5 129.5,85.5C 126.91,86.1283 124.577,87.295 122.5,89C 123.293,90.0852 123.96,91.2519 124.5,92.5C 123.572,93.7678 123.405,95.1011 124,96.5C 125.961,99.4628 128.294,102.129 131,104.5C 131.49,105.793 131.657,107.127 131.5,108.5C 130.167,108.5 128.833,108.5 127.5,108.5C 124.695,107.681 121.695,107.181 118.5,107C 116.892,103.728 114.892,100.728 112.5,98C 114.979,94.6868 117.645,91.5202 120.5,88.5C 117.848,86.4083 117.014,83.7417 118,80.5C 122.246,75.7567 127.413,72.4233 133.5,70.5C 134.429,69.3112 134.762,67.9778 134.5,66.5C 134.5,65.5 134.5,64.5 134.5,63.5C 136.599,62.7691 138.599,62.7691 140.5,63.5C 141.513,66.4604 142.846,69.1271 144.5,71.5 Z"/></g>
<g><path style="opacity:1" fill="#2b3851" d="M 88.5,86.5 C 89.4778,86.811 90.1445,87.4777 90.5,88.5C 84.9561,95.2549 81.2894,102.922 79.5,111.5C 77.139,111.326 74.8056,110.993 72.5,110.5C 71.8902,109.609 71.5569,108.609 71.5,107.5C 72.4227,103.936 72.756,100.269 72.5,96.5C 73.137,92.4224 74.4703,88.5891 76.5,85C 77.5,84.3333 78.5,84.3333 79.5,85C 79.0338,86.2988 79.0338,87.7988 79.5,89.5C 82.655,89.0231 85.655,88.0231 88.5,86.5 Z"/></g>
<g><path style="opacity:1" fill="#a1c8e6" d="M 130.5,84.5 C 131.5,84.5 132.5,84.5 133.5,84.5C 138.833,84.5 144.167,84.5 149.5,84.5C 151.772,85.4411 153.772,86.7745 155.5,88.5C 154.386,89.8853 153.386,91.3853 152.5,93C 145.42,93.7945 138.42,93.6278 131.5,92.5C 128.505,90.8567 127.839,88.5233 129.5,85.5C 130.167,85.5 130.5,85.1667 130.5,84.5 Z"/></g>
<g><path style="opacity:1" fill="#3c2f32" d="M 224.5,74.5 C 226.075,79.2687 227.075,84.2687 227.5,89.5C 228.5,89.5 229.5,89.5 230.5,89.5C 230.771,94.9127 230.271,100.246 229,105.5C 228.55,108.106 227.05,109.439 224.5,109.5C 223.144,101.871 222.144,94.2045 221.5,86.5C 221.335,83.1501 221.502,79.8168 222,76.5C 222.995,75.9341 223.828,75.2674 224.5,74.5 Z"/></g>
<g><path style="opacity:1" fill="#141b27" d="M 183.5,81.5 C 183.5,81.8333 183.5,82.1667 183.5,82.5C 182.156,84.1683 180.823,85.8349 179.5,87.5C 182.095,92.605 184.928,97.605 188,102.5C 189.448,105.851 189.615,109.184 188.5,112.5C 187.518,113.141 186.518,113.807 185.5,114.5C 179.816,113.416 174.15,112.416 168.5,111.5C 168.915,109.253 169.582,107.086 170.5,105C 170.475,103.124 169.809,101.624 168.5,100.5C 168.141,97.7633 166.807,95.7633 164.5,94.5C 164.703,92.9557 165.37,91.6223 166.5,90.5C 164.106,87.6272 162.606,84.2939 162,80.5C 158.382,78.0707 157.715,75.0707 160,71.5C 167.921,75.0555 175.755,78.3888 183.5,81.5 Z"/></g>
<g><path style="opacity:1" fill="#5d83ae" d="M 155.5,88.5 C 156.5,89.1667 157.5,89.8333 158.5,90.5C 156.198,95.8067 152.198,98.8067 146.5,99.5C 141.916,98.7227 137.25,98.2227 132.5,98C 130.701,96.3002 130.368,94.4669 131.5,92.5C 138.42,93.6278 145.42,93.7945 152.5,93C 153.386,91.3853 154.386,89.8853 155.5,88.5 Z"/></g>
<g><path style="opacity:1" fill="#2d4262" d="M 158.5,90.5 C 160.813,91.5005 162.813,92.8338 164.5,94.5C 166.807,95.7633 168.141,97.7633 168.5,100.5C 165.698,101.976 164.032,104.309 163.5,107.5C 158.208,108.495 152.875,108.828 147.5,108.5C 144.833,108.5 142.167,108.5 139.5,108.5C 142.036,105.712 144.369,102.712 146.5,99.5C 152.198,98.8067 156.198,95.8067 158.5,90.5 Z"/></g>
<g><path style="opacity:1" fill="#365278" d="M 129.5,85.5 C 127.839,88.5233 128.505,90.8567 131.5,92.5C 130.368,94.4669 130.701,96.3002 132.5,98C 137.25,98.2227 141.916,98.7227 146.5,99.5C 144.369,102.712 142.036,105.712 139.5,108.5C 139.167,108.5 138.833,108.5 138.5,108.5C 136.167,108.5 133.833,108.5 131.5,108.5C 131.657,107.127 131.49,105.793 131,104.5C 128.294,102.129 125.961,99.4628 124,96.5C 123.405,95.1011 123.572,93.7678 124.5,92.5C 123.96,91.2519 123.293,90.0852 122.5,89C 124.577,87.295 126.91,86.1283 129.5,85.5 Z"/></g>
<g><path style="opacity:1" fill="#273446" d="M 183.5,82.5 C 187.436,86.9379 191.602,91.2713 196,95.5C 195.211,98.8572 195.544,102.191 197,105.5C 206.797,109.772 207.964,115.606 200.5,123C 196.51,123.164 193.177,124.664 190.5,127.5C 189.883,127.389 189.383,127.056 189,126.5C 188.814,121.633 188.647,116.967 188.5,112.5C 189.615,109.184 189.448,105.851 188,102.5C 184.928,97.605 182.095,92.605 179.5,87.5C 180.823,85.8349 182.156,84.1683 183.5,82.5 Z"/></g>
<g><path style="opacity:1" fill="#323d4f" d="M 33.5,104.5 C 35.3046,105.237 36.9713,106.237 38.5,107.5C 38.435,112.226 38.935,116.892 40,121.5C 41.7395,122.894 43.7395,123.561 46,123.5C 52.7328,121.356 55.3995,116.69 54,109.5C 55.722,107.556 57.8887,106.556 60.5,106.5C 64.1317,107.246 67.7983,107.579 71.5,107.5C 71.5569,108.609 71.8902,109.609 72.5,110.5C 70.9778,111.191 69.9778,112.358 69.5,114C 71.7739,116.325 72.9405,119.159 73,122.5C 75.8333,125.333 78.6667,128.167 81.5,131C 85.4862,131.499 89.4862,131.666 93.5,131.5C 97.8333,131.5 102.167,131.5 106.5,131.5C 112.167,131.5 117.833,131.5 123.5,131.5C 122.852,133.086 122.352,134.753 122,136.5C 118.27,135.54 114.437,135.207 110.5,135.5C 102.87,135.44 95.5366,135.773 88.5,136.5C 79.1555,133.899 69.8222,133.899 60.5,136.5C 59.062,136.281 57.7287,135.781 56.5,135C 52.5063,127.047 48.5063,127.381 44.5,136C 42.3225,137.202 39.9892,137.702 37.5,137.5C 34.1847,135.192 30.8514,132.859 27.5,130.5C 31.5432,125.401 31.3765,120.401 27,115.5C 26.5026,112.854 26.3359,110.187 26.5,107.5C 28.9538,106.773 31.2872,105.773 33.5,104.5 Z"/></g>
<g><path style="opacity:1" fill="#3d3237" d="M 127.5,108.5 C 128.833,108.5 130.167,108.5 131.5,108.5C 133.833,108.5 136.167,108.5 138.5,108.5C 136.516,112.054 136.183,115.72 137.5,119.5C 136.054,120.613 134.387,120.78 132.5,120C 130.667,118.167 128.833,116.333 127,114.5C 126.211,112.288 126.378,110.288 127.5,108.5 Z"/></g>
<g><path style="opacity:1" fill="#69443d" d="M 138.5,108.5 C 138.833,108.5 139.167,108.5 139.5,108.5C 142.167,108.5 144.833,108.5 147.5,108.5C 147.828,111.685 147.828,115.018 147.5,118.5C 144.882,119.972 142.049,120.972 139,121.5C 138.722,120.584 138.222,119.918 137.5,119.5C 136.183,115.72 136.516,112.054 138.5,108.5 Z"/></g>
<g><path style="opacity:1" fill="#1d293a" d="M 72.5,110.5 C 74.8056,110.993 77.139,111.326 79.5,111.5C 79.7549,113.967 80.7549,115.967 82.5,117.5C 83.0722,119.255 83.9055,120.922 85,122.5C 88.4894,124.97 91.3227,127.97 93.5,131.5C 89.4862,131.666 85.4862,131.499 81.5,131C 78.6667,128.167 75.8333,125.333 73,122.5C 72.9405,119.159 71.7739,116.325 69.5,114C 69.9778,112.358 70.9778,111.191 72.5,110.5 Z"/></g>
<g><path style="opacity:1" fill="#12131b" d="M 168.5,111.5 C 174.15,112.416 179.816,113.416 185.5,114.5C 186.518,113.807 187.518,113.141 188.5,112.5C 188.647,116.967 188.814,121.633 189,126.5C 189.383,127.056 189.883,127.389 190.5,127.5C 189.71,128.794 188.71,129.961 187.5,131C 178.84,131.5 170.173,131.666 161.5,131.5C 161.167,131.5 160.833,131.5 160.5,131.5C 160.5,128.833 160.5,126.167 160.5,123.5C 162.664,120.524 164.164,117.191 165,113.5C 166.113,112.695 167.279,112.028 168.5,111.5 Z"/></g>
<g><path style="opacity:1" fill="#222d3c" d="M 168.5,100.5 C 169.809,101.624 170.475,103.124 170.5,105C 169.582,107.086 168.915,109.253 168.5,111.5C 167.279,112.028 166.113,112.695 165,113.5C 164.164,117.191 162.664,120.524 160.5,123.5C 155.316,123.798 150.983,122.131 147.5,118.5C 147.828,115.018 147.828,111.685 147.5,108.5C 152.875,108.828 158.208,108.495 163.5,107.5C 164.032,104.309 165.698,101.976 168.5,100.5 Z"/></g>
<g><path style="opacity:1" fill="#0b0c19" d="M 106.5,131.5 C 102.167,131.5 97.8333,131.5 93.5,131.5C 91.3227,127.97 88.4894,124.97 85,122.5C 83.9055,120.922 83.0722,119.255 82.5,117.5C 83.4525,115.39 85.1192,114.223 87.5,114C 91.6251,113.146 95.6251,113.48 99.5,115C 105.542,118.918 107.875,124.418 106.5,131.5 Z"/></g>
<g><path style="opacity:1" fill="#343e4a" d="M 242.5,118.5 C 244.371,118.859 245.871,119.859 247,121.5C 246.995,128.837 250.495,131.671 257.5,130C 258.585,127.828 259.919,125.828 261.5,124C 262.749,123.26 263.749,123.427 264.5,124.5C 263.645,132.254 262.311,139.92 260.5,147.5C 258.602,146.904 256.935,146.904 255.5,147.5C 253.219,146.793 251.052,145.793 249,144.5C 248.501,140.848 248.335,137.182 248.5,133.5C 242.455,132.685 236.455,131.685 230.5,130.5C 229.371,128.372 229.204,126.039 230,123.5C 230.875,120.785 232.708,119.452 235.5,119.5C 236.134,120.947 237.301,121.613 239,121.5C 241.275,121.722 242.441,120.722 242.5,118.5 Z"/></g>
<g><path style="opacity:1" fill="#242b37" d="M 274.5,124.5 C 274.5,139.5 274.5,154.5 274.5,169.5C 271.239,168.622 267.906,167.956 264.5,167.5C 264.789,161.518 265.789,155.685 267.5,150C 265.697,147.897 263.364,147.064 260.5,147.5C 262.311,139.92 263.645,132.254 264.5,124.5C 267.714,125.048 271.047,125.048 274.5,124.5 Z"/></g>
<g><path style="opacity:1" fill="#242b3e" d="M 110.5,135.5 C 110.975,139.416 109.975,142.749 107.5,145.5C 94.5228,146.118 81.5228,146.285 68.5,146C 66.75,147.754 66.0833,149.921 66.5,152.5C 66.5,153.833 66.5,155.167 66.5,156.5C 63.8127,156.336 61.146,156.503 58.5,157C 57.244,157.417 56.5774,158.25 56.5,159.5C 54.5395,157.688 52.2061,156.688 49.5,156.5C 49.67,155.178 49.3366,154.011 48.5,153C 45.5875,151.627 42.7542,150.127 40,148.5C 39.0997,144.829 38.2663,141.163 37.5,137.5C 39.9892,137.702 42.3225,137.202 44.5,136C 48.5063,127.381 52.5063,127.047 56.5,135C 57.7287,135.781 59.062,136.281 60.5,136.5C 69.8222,133.899 79.1555,133.899 88.5,136.5C 95.5366,135.773 102.87,135.44 110.5,135.5 Z"/></g>
<g><path style="opacity:1" fill="#25252c" d="M 21.5,104.5 C 23.9328,104.273 25.5994,105.273 26.5,107.5C 26.3359,110.187 26.5026,112.854 27,115.5C 31.3765,120.401 31.5432,125.401 27.5,130.5C 30.8514,132.859 34.1847,135.192 37.5,137.5C 38.2663,141.163 39.0997,144.829 40,148.5C 42.7542,150.127 45.5875,151.627 48.5,153C 49.3366,154.011 49.67,155.178 49.5,156.5C 49.0472,157.458 48.3805,158.292 47.5,159C 48.7781,165.469 48.7781,171.969 47.5,178.5C 44.3855,178.445 42.0522,177.112 40.5,174.5C 41.4849,170.366 41.8182,166.032 41.5,161.5C 29.1549,161.487 16.8216,161.821 4.5,162.5C 4.34332,161.127 4.50999,159.793 5,158.5C 7.13995,157.272 8.80661,155.605 10,153.5C 10.2463,150.11 10.7463,146.777 11.5,143.5C 14.5368,140.961 17.3702,138.294 20,135.5C 21.4019,130.743 21.9019,126.076 21.5,121.5C 21.5,115.833 21.5,110.167 21.5,104.5 Z"/></g>
<g><path style="opacity:1" fill="#262c39" d="M 230.5,130.5 C 236.455,131.685 242.455,132.685 248.5,133.5C 248.335,137.182 248.501,140.848 249,144.5C 251.052,145.793 253.219,146.793 255.5,147.5C 254.582,153.115 252.915,158.449 250.5,163.5C 247.167,163.5 245.5,165.167 245.5,168.5C 239.305,167.102 233.305,165.102 227.5,162.5C 225.279,157.656 222.779,152.989 220,148.5C 217.226,147.464 214.393,146.631 211.5,146C 204.297,145.597 197.297,145.43 190.5,145.5C 190.616,142.14 190.949,138.807 191.5,135.5C 203.353,134.778 215.353,133.945 227.5,133C 228.942,132.623 229.942,131.79 230.5,130.5 Z"/></g>
<g><path style="opacity:1" fill="#483b40" d="M 123.5,131.5 C 135.833,131.5 148.167,131.5 160.5,131.5C 160.833,131.5 161.167,131.5 161.5,131.5C 161.5,132.833 161.5,134.167 161.5,135.5C 160.448,135.351 159.448,135.517 158.5,136C 159.739,139.364 160.406,142.864 160.5,146.5C 159.833,146.5 159.167,146.5 158.5,146.5C 156.284,146.725 154.617,145.892 153.5,144C 145.173,143.5 136.84,143.334 128.5,143.5C 128.5,144.5 128.5,145.5 128.5,146.5C 126.167,146.5 123.833,146.5 121.5,146.5C 121.5,147.833 121.5,149.167 121.5,150.5C 120.833,150.5 120.5,150.833 120.5,151.5C 116.069,151.769 111.735,151.436 107.5,150.5C 107.5,148.833 107.5,147.167 107.5,145.5C 109.975,142.749 110.975,139.416 110.5,135.5C 114.437,135.207 118.27,135.54 122,136.5C 122.352,134.753 122.852,133.086 123.5,131.5 Z"/></g>
<g><path style="opacity:1" fill="#373243" d="M 161.5,135.5 C 171.5,135.5 181.5,135.5 191.5,135.5C 190.949,138.807 190.616,142.14 190.5,145.5C 189.167,145.5 187.833,145.5 186.5,145.5C 183.603,145.681 180.77,145.348 178,144.5C 172.264,145.99 166.431,146.657 160.5,146.5C 160.406,142.864 159.739,139.364 158.5,136C 159.448,135.517 160.448,135.351 161.5,135.5 Z"/></g>
<g><path style="opacity:1" fill="#372b2a" d="M 186.5,145.5 C 186.5,147.5 186.5,149.5 186.5,151.5C 185.167,151.5 183.833,151.5 182.5,151.5C 175.724,151.364 168.724,151.364 161.5,151.5C 160.791,150.596 159.791,150.263 158.5,150.5C 158.5,149.167 158.5,147.833 158.5,146.5C 159.167,146.5 159.833,146.5 160.5,146.5C 166.431,146.657 172.264,145.99 178,144.5C 180.77,145.348 183.603,145.681 186.5,145.5 Z"/></g>
<g><path style="opacity:1" fill="#211d25" d="M 107.5,145.5 C 107.5,147.167 107.5,148.833 107.5,150.5C 102.93,151.441 98.263,151.774 93.5,151.5C 87.8236,151.334 82.1569,151.501 76.5,152C 75.4734,152.513 74.4734,153.013 73.5,153.5C 71.283,152.631 68.9496,152.298 66.5,152.5C 66.0833,149.921 66.75,147.754 68.5,146C 81.5228,146.285 94.5228,146.118 107.5,145.5 Z"/></g>
<g><path style="opacity:1" fill="#201f2b" d="M 186.5,145.5 C 187.833,145.5 189.167,145.5 190.5,145.5C 197.297,145.43 204.297,145.597 211.5,146C 214.393,146.631 217.226,147.464 220,148.5C 222.779,152.989 225.279,157.656 227.5,162.5C 223.255,164.859 220.089,168.192 218,172.5C 215.669,176.029 212.503,178.029 208.5,178.5C 208.5,174.833 208.5,171.167 208.5,167.5C 208.411,164.291 208.744,161.125 209.5,158C 209.227,155.849 208.561,153.849 207.5,152C 201.843,151.501 196.176,151.334 190.5,151.5C 189.167,151.5 187.833,151.5 186.5,151.5C 186.5,149.5 186.5,147.5 186.5,145.5 Z"/></g>
<g><path style="opacity:1" fill="#553c2f" d="M 158.5,146.5 C 158.5,147.833 158.5,149.167 158.5,150.5C 159.791,150.263 160.791,150.596 161.5,151.5C 161.5,152.5 161.5,153.5 161.5,154.5C 158.335,155.036 155.669,154.203 153.5,152C 148.511,151.501 143.511,151.334 138.5,151.5C 135.833,151.5 133.167,151.5 130.5,151.5C 127.545,150.841 124.545,150.508 121.5,150.5C 121.5,149.167 121.5,147.833 121.5,146.5C 123.833,146.5 126.167,146.5 128.5,146.5C 128.5,145.5 128.5,144.5 128.5,143.5C 136.84,143.334 145.173,143.5 153.5,144C 154.617,145.892 156.284,146.725 158.5,146.5 Z"/></g>
<g><path style="opacity:1" fill="#3d3843" d="M 93.5,151.5 C 92.3159,157.368 90.9825,163.201 89.5,169C 84.4932,168.281 79.4932,168.448 74.5,169.5C 73.7255,164.203 73.3921,158.87 73.5,153.5C 74.4734,153.013 75.4734,152.513 76.5,152C 82.1569,151.501 87.8236,151.334 93.5,151.5 Z"/></g>
<g><path style="opacity:1" fill="#584747" d="M 107.5,150.5 C 111.735,151.436 116.069,151.769 120.5,151.5C 120.249,153.17 119.582,154.67 118.5,156C 114.584,157.102 110.584,157.769 106.5,158C 104.095,159.897 103.428,162.064 104.5,164.5C 101.029,168.497 97.1955,172.163 93,175.5C 90.5688,178.417 89.4021,181.75 89.5,185.5C 83.8442,185.867 82.0109,188.867 84,194.5C 84.4652,195.931 85.2986,197.097 86.5,198C 86,198.5 85.5,199 85,199.5C 84.6667,202.5 84.3333,205.5 84,208.5C 83.2904,209.973 82.1238,210.64 80.5,210.5C 79.8694,214.392 79.8694,218.225 80.5,222C 80.0179,224.917 79.3512,227.751 78.5,230.5C 77.8333,230.5 77.1667,230.5 76.5,230.5C 76.2197,227.28 74.5531,225.28 71.5,224.5C 71.5,224.167 71.5,223.833 71.5,223.5C 72.8955,219.409 73.5621,215.076 73.5,210.5C 73.0842,205.811 73.7509,201.311 75.5,197C 74.1667,192.667 74.1667,188.333 75.5,184C 73.5604,179.108 73.2271,174.275 74.5,169.5C 79.4932,168.448 84.4932,168.281 89.5,169C 90.9825,163.201 92.3159,157.368 93.5,151.5C 98.263,151.774 102.93,151.441 107.5,150.5 Z"/></g>
<g><path style="opacity:1" fill="#885737" d="M 130.5,151.5 C 133.167,151.5 135.833,151.5 138.5,151.5C 138.281,152.675 138.614,153.675 139.5,154.5C 142.311,155.08 144.977,155.746 147.5,156.5C 145.325,158.417 142.658,159.75 139.5,160.5C 138.167,159.833 136.833,159.167 135.5,158.5C 133.312,159.574 133.312,160.908 135.5,162.5C 134.833,163.5 134.167,164.5 133.5,165.5C 128.695,164.94 124.029,164.273 119.5,163.5C 122.565,158.776 126.232,154.776 130.5,151.5 Z"/></g>
<g><path style="opacity:1" fill="#693e31" d="M 138.5,151.5 C 143.511,151.334 148.511,151.501 153.5,152C 155.669,154.203 158.335,155.036 161.5,154.5C 161.5,155.5 161.5,156.5 161.5,157.5C 160.197,159.142 158.864,160.809 157.5,162.5C 156.833,162.167 156.167,161.833 155.5,161.5C 154.391,157.398 151.725,155.731 147.5,156.5C 144.977,155.746 142.311,155.08 139.5,154.5C 138.614,153.675 138.281,152.675 138.5,151.5 Z"/></g>
<g><path style="opacity:1" fill="#684844" d="M 182.5,151.5 C 183.591,156.469 183.591,161.469 182.5,166.5C 181.833,166.5 181.167,166.5 180.5,166.5C 179.942,165.21 178.942,164.377 177.5,164C 174.518,163.502 171.518,163.335 168.5,163.5C 168.35,159.02 166.017,157.02 161.5,157.5C 161.5,156.5 161.5,155.5 161.5,154.5C 161.5,153.5 161.5,152.5 161.5,151.5C 168.724,151.364 175.724,151.364 182.5,151.5 Z"/></g>
<g><path style="opacity:1" fill="#564b4a" d="M 182.5,151.5 C 183.833,151.5 185.167,151.5 186.5,151.5C 187.833,151.5 189.167,151.5 190.5,151.5C 190.491,153.308 190.991,154.975 192,156.5C 194.5,159.5 197,162.5 199.5,165.5C 202.298,165.865 205.298,166.532 208.5,167.5C 208.5,171.167 208.5,174.833 208.5,178.5C 206.654,178.222 205.32,178.889 204.5,180.5C 206.123,182.113 207.29,183.78 208,185.5C 205.272,188.724 202.439,191.724 199.5,194.5C 198.417,194.539 197.417,194.873 196.5,195.5C 195.482,194.807 194.482,194.141 193.5,193.5C 195.14,188.592 194.807,183.925 192.5,179.5C 192.392,177.217 191.559,175.217 190,173.5C 187.054,171.569 184.554,169.236 182.5,166.5C 183.591,161.469 183.591,156.469 182.5,151.5 Z"/></g>
<g><path style="opacity:1" fill="#373843" d="M 190.5,151.5 C 196.176,151.334 201.843,151.501 207.5,152C 208.561,153.849 209.227,155.849 209.5,158C 208.744,161.125 208.411,164.291 208.5,167.5C 205.298,166.532 202.298,165.865 199.5,165.5C 197,162.5 194.5,159.5 192,156.5C 190.991,154.975 190.491,153.308 190.5,151.5 Z"/></g>
<g><path style="opacity:1" fill="#202532" d="M 66.5,152.5 C 68.9496,152.298 71.283,152.631 73.5,153.5C 73.3921,158.87 73.7255,164.203 74.5,169.5C 73.2271,174.275 73.5604,179.108 75.5,184C 74.1667,188.333 74.1667,192.667 75.5,197C 73.7509,201.311 73.0842,205.811 73.5,210.5C 72.5041,210.586 71.6708,210.252 71,209.5C 69.9562,207.285 69.2895,204.952 69,202.5C 66.8797,203.605 64.7131,203.605 62.5,202.5C 61.793,194.965 61.793,187.465 62.5,180C 62.0113,172.703 60.0113,165.869 56.5,159.5C 56.5774,158.25 57.244,157.417 58.5,157C 61.146,156.503 63.8127,156.336 66.5,156.5C 66.5,155.167 66.5,153.833 66.5,152.5 Z"/></g>
<g><path style="opacity:1" fill="#43373a" d="M 260.5,147.5 C 263.364,147.064 265.697,147.897 267.5,150C 265.789,155.685 264.789,161.518 264.5,167.5C 259.563,166.739 254.897,165.405 250.5,163.5C 252.915,158.449 254.582,153.115 255.5,147.5C 256.935,146.904 258.602,146.904 260.5,147.5 Z"/></g>
<g><path style="opacity:1" fill="#181723" d="M 49.5,156.5 C 52.2061,156.688 54.5395,157.688 56.5,159.5C 60.0113,165.869 62.0113,172.703 62.5,180C 61.793,187.465 61.793,194.965 62.5,202.5C 59.4113,206.254 55.4113,207.754 50.5,207C 49.1332,203.427 48.1332,199.76 47.5,196C 43.5385,195.159 39.5385,194.659 35.5,194.5C 34.8333,194.5 34.5,194.167 34.5,193.5C 33.6765,191.545 33.5099,189.545 34,187.5C 37.6031,185.877 41.4365,184.71 45.5,184C 47.1554,182.556 47.822,180.722 47.5,178.5C 48.7781,171.969 48.7781,165.469 47.5,159C 48.3805,158.292 49.0472,157.458 49.5,156.5 Z"/></g>
<g><path style="opacity:1" fill="#ae6437" d="M 147.5,156.5 C 151.725,155.731 154.391,157.398 155.5,161.5C 150.265,163.006 144.932,164.006 139.5,164.5C 138.533,163.194 137.199,162.527 135.5,162.5C 133.312,160.908 133.312,159.574 135.5,158.5C 136.833,159.167 138.167,159.833 139.5,160.5C 142.658,159.75 145.325,158.417 147.5,156.5 Z"/></g>
<g><path style="opacity:1" fill="#6b463d" d="M 121.5,150.5 C 124.545,150.508 127.545,150.841 130.5,151.5C 126.232,154.776 122.565,158.776 119.5,163.5C 119.167,163.5 118.833,163.5 118.5,163.5C 118.44,162.957 118.107,162.624 117.5,162.5C 113.194,163.312 108.861,163.979 104.5,164.5C 103.428,162.064 104.095,159.897 106.5,158C 110.584,157.769 114.584,157.102 118.5,156C 119.582,154.67 120.249,153.17 120.5,151.5C 120.5,150.833 120.833,150.5 121.5,150.5 Z"/></g>
<g><path style="opacity:1" fill="#100d13" d="M 21.5,121.5 C 21.9019,126.076 21.4019,130.743 20,135.5C 17.3702,138.294 14.5368,140.961 11.5,143.5C 10.7463,146.777 10.2463,150.11 10,153.5C 8.80661,155.605 7.13995,157.272 5,158.5C 4.50999,159.793 4.34332,161.127 4.5,162.5C 16.8216,161.821 29.1549,161.487 41.5,161.5C 41.8182,166.032 41.4849,170.366 40.5,174.5C 34.8841,175.457 29.2174,176.124 23.5,176.5C 22.325,176.719 21.325,176.386 20.5,175.5C 20.0879,173.113 19.0879,171.113 17.5,169.5C 16.914,169.709 16.414,170.043 16,170.5C 15.7638,172.764 15.2638,174.931 14.5,177C 10.1812,177.905 5.84788,178.238 1.5,178C 0.848196,170.401 0.181529,162.901 -0.5,155.5C -0.5,155.167 -0.5,154.833 -0.5,154.5C 0.496845,136.341 0.830178,118.008 0.5,99.5C 2.45101,99.2267 3.95101,99.8934 5,101.5C 6.06068,106.104 6.72735,110.771 7,115.5C 10.9728,119.547 15.8062,121.547 21.5,121.5 Z"/></g>
<g><path style="opacity:1" fill="#cd7d31" d="M 155.5,161.5 C 156.167,161.833 156.833,162.167 157.5,162.5C 157.5,164.167 157.5,165.833 157.5,167.5C 155.167,167.5 152.833,167.5 150.5,167.5C 150.198,170.059 150.532,172.393 151.5,174.5C 149.735,175.461 147.735,175.795 145.5,175.5C 143.833,174.167 142.167,172.833 140.5,171.5C 139.631,169.283 139.298,166.95 139.5,164.5C 144.932,164.006 150.265,163.006 155.5,161.5 Z"/></g>
<g><path style="opacity:1" fill="#1f191f" d="M 227.5,162.5 C 233.305,165.102 239.305,167.102 245.5,168.5C 247.248,170.16 247.748,172.16 247,174.5C 241.298,195.097 235.131,215.43 228.5,235.5C 223.757,235.28 218.757,234.613 213.5,233.5C 212.676,230.215 212.176,226.882 212,223.5C 211.333,222.833 210.667,222.167 210,221.5C 209.72,216.803 209.22,212.137 208.5,207.5C 208.876,197.852 208.876,188.185 208.5,178.5C 212.503,178.029 215.669,176.029 218,172.5C 220.089,168.192 223.255,164.859 227.5,162.5 Z"/></g>
<g><path style="opacity:1" fill="#c0642b" d="M 118.5,163.5 C 118.833,163.5 119.167,163.5 119.5,163.5C 124.029,164.273 128.695,164.94 133.5,165.5C 133.011,166.995 132.345,168.329 131.5,169.5C 130.749,168.427 129.749,168.26 128.5,169C 127.24,171.301 125.907,173.468 124.5,175.5C 124.44,174.957 124.107,174.624 123.5,174.5C 117.804,175.105 112.137,175.938 106.5,177C 105.595,180.656 103.595,183.49 100.5,185.5C 98.5589,183.989 98.0589,181.989 99,179.5C 100.623,177.372 102.789,176.039 105.5,175.5C 106.246,174.264 106.579,172.93 106.5,171.5C 112.207,171.181 116.207,168.515 118.5,163.5 Z"/></g>
<g><path style="opacity:1" fill="#845841" d="M 161.5,157.5 C 166.017,157.02 168.35,159.02 168.5,163.5C 171.518,163.335 174.518,163.502 177.5,164C 178.942,164.377 179.942,165.21 180.5,166.5C 180.167,167.5 179.5,168.167 178.5,168.5C 174.924,167.515 171.258,166.848 167.5,166.5C 167.5,165.5 167.5,164.5 167.5,163.5C 164.193,162.949 160.86,162.616 157.5,162.5C 158.864,160.809 160.197,159.142 161.5,157.5 Z"/></g>
<g><path style="opacity:1" fill="#934d2d" d="M 118.5,163.5 C 116.207,168.515 112.207,171.181 106.5,171.5C 106.579,172.93 106.246,174.264 105.5,175.5C 102.789,176.039 100.623,177.372 99,179.5C 98.0589,181.989 98.5589,183.989 100.5,185.5C 100.167,187.5 99.8333,189.5 99.5,191.5C 99.4271,195.181 97.7604,197.514 94.5,198.5C 93.5139,194.03 93.1805,189.363 93.5,184.5C 92.209,184.263 91.209,184.596 90.5,185.5C 90.1667,185.5 89.8333,185.5 89.5,185.5C 89.4021,181.75 90.5688,178.417 93,175.5C 97.1955,172.163 101.029,168.497 104.5,164.5C 108.861,163.979 113.194,163.312 117.5,162.5C 118.107,162.624 118.44,162.957 118.5,163.5 Z"/></g>
<g><path style="opacity:1" fill="#a65329" d="M 157.5,162.5 C 160.86,162.616 164.193,162.949 167.5,163.5C 167.5,164.5 167.5,165.5 167.5,166.5C 166.953,170.014 166.953,173.348 167.5,176.5C 164.904,175.735 162.237,175.401 159.5,175.5C 156.721,175.721 154.054,175.388 151.5,174.5C 150.532,172.393 150.198,170.059 150.5,167.5C 152.833,167.5 155.167,167.5 157.5,167.5C 157.5,165.833 157.5,164.167 157.5,162.5 Z"/></g>
<g><path style="opacity:1" fill="#793920" d="M 167.5,166.5 C 171.258,166.848 174.924,167.515 178.5,168.5C 180.268,171.162 180.935,174.162 180.5,177.5C 180.802,180.059 180.468,182.393 179.5,184.5C 175.081,183.743 172.747,181.076 172.5,176.5C 171.209,176.263 170.209,176.596 169.5,177.5C 168.508,177.672 167.842,177.338 167.5,176.5C 166.953,173.348 166.953,170.014 167.5,166.5 Z"/></g>
<g><path style="opacity:1" fill="#f3d653" d="M 131.5,169.5 C 129.915,174.678 129.248,180.012 129.5,185.5C 128.891,187.943 127.391,189.61 125,190.5C 124.03,193.444 123.196,196.444 122.5,199.5C 119.65,200.073 117.984,201.74 117.5,204.5C 118.182,206.841 118.849,209.174 119.5,211.5C 117.626,212.285 115.626,212.952 113.5,213.5C 112.306,212.728 111.306,211.728 110.5,210.5C 109.071,207.692 108.405,204.692 108.5,201.5C 110.817,197.856 112.317,193.856 113,189.5C 115.902,187.489 118.402,185.156 120.5,182.5C 122.588,180.664 123.921,178.331 124.5,175.5C 125.907,173.468 127.24,171.301 128.5,169C 129.749,168.26 130.749,168.427 131.5,169.5 Z"/></g>
<g><path style="opacity:1" fill="#a47340" d="M 180.5,166.5 C 181.167,166.5 181.833,166.5 182.5,166.5C 184.554,169.236 187.054,171.569 190,173.5C 191.559,175.217 192.392,177.217 192.5,179.5C 191.041,179.567 189.708,179.234 188.5,178.5C 187.193,177.847 185.86,177.18 184.5,176.5C 183.264,177.246 181.93,177.579 180.5,177.5C 180.935,174.162 180.268,171.162 178.5,168.5C 179.5,168.167 180.167,167.5 180.5,166.5 Z"/></g>
<g><path style="opacity:1" fill="#936750" d="M 250.5,163.5 C 254.897,165.405 259.563,166.739 264.5,167.5C 267.906,167.956 271.239,168.622 274.5,169.5C 276.168,171.991 275.834,174.158 273.5,176C 270.453,176.092 267.453,175.592 264.5,174.5C 263.817,174.863 263.15,175.196 262.5,175.5C 261.393,173.031 259.393,172.031 256.5,172.5C 255.577,171.697 254.577,171.53 253.5,172C 252.283,173.648 251.45,175.481 251,177.5C 245.708,198.503 239.875,219.336 233.5,240C 233.684,241.376 234.351,242.209 235.5,242.5C 235.923,244.781 235.256,246.448 233.5,247.5C 229.285,246.289 226.285,243.622 224.5,239.5C 225.263,238.732 226.263,238.232 227.5,238C 228.252,237.329 228.586,236.496 228.5,235.5C 235.131,215.43 241.298,195.097 247,174.5C 247.748,172.16 247.248,170.16 245.5,168.5C 245.5,165.167 247.167,163.5 250.5,163.5 Z"/></g>
<g><path style="opacity:1" fill="#372b2a" d="M 256.5,172.5 C 251.966,193.181 246.299,213.515 239.5,233.5C 238.917,236.947 237.584,239.947 235.5,242.5C 234.351,242.209 233.684,241.376 233.5,240C 239.875,219.336 245.708,198.503 251,177.5C 251.45,175.481 252.283,173.648 253.5,172C 254.577,171.53 255.577,171.697 256.5,172.5 Z"/></g>
<g><path style="opacity:1" fill="#f8ed91" d="M 135.5,162.5 C 137.199,162.527 138.533,163.194 139.5,164.5C 139.298,166.95 139.631,169.283 140.5,171.5C 139.839,173.134 139.506,174.967 139.5,177C 139.727,180.936 140.393,184.77 141.5,188.5C 142.833,188.5 144.167,188.5 145.5,188.5C 145.366,190.292 145.699,191.958 146.5,193.5C 142.675,194.124 139.008,193.458 135.5,191.5C 135.649,190.448 135.483,189.448 135,188.5C 132.982,187.777 131.148,186.777 129.5,185.5C 129.248,180.012 129.915,174.678 131.5,169.5C 132.345,168.329 133.011,166.995 133.5,165.5C 134.167,164.5 134.833,163.5 135.5,162.5 Z"/></g>
<g><path style="opacity:1" fill="#392c32" d="M 40.5,174.5 C 42.0522,177.112 44.3855,178.445 47.5,178.5C 47.822,180.722 47.1554,182.556 45.5,184C 41.4365,184.71 37.6031,185.877 34,187.5C 33.5099,189.545 33.6765,191.545 34.5,193.5C 33.2905,193.932 32.2905,194.599 31.5,195.5C 30.661,194.359 29.9943,193.026 29.5,191.5C 27.6587,190.77 25.8254,190.103 24,189.5C 23.7266,186.607 22.8932,183.94 21.5,181.5C 22.5471,179.944 23.2137,178.277 23.5,176.5C 29.2174,176.124 34.8841,175.457 40.5,174.5 Z"/></g>
<g><path style="opacity:1" fill="#e07d31" d="M 124.5,175.5 C 123.921,178.331 122.588,180.664 120.5,182.5C 118.31,180.645 115.81,180.645 113,182.5C 110.188,185.312 107.355,188.145 104.5,191C 102.866,191.494 101.199,191.66 99.5,191.5C 99.8333,189.5 100.167,187.5 100.5,185.5C 103.595,183.49 105.595,180.656 106.5,177C 112.137,175.938 117.804,175.105 123.5,174.5C 124.107,174.624 124.44,174.957 124.5,175.5 Z"/></g>
<g><path style="opacity:1" fill="#e78e33" d="M 151.5,174.5 C 154.054,175.388 156.721,175.721 159.5,175.5C 161.833,179.833 165.167,183.167 169.5,185.5C 171.578,187.39 172.911,189.724 173.5,192.5C 171.623,197.242 172.623,201.409 176.5,205C 177.448,205.483 178.448,205.649 179.5,205.5C 179.448,207.903 179.781,210.236 180.5,212.5C 180.262,214.404 179.262,215.738 177.5,216.5C 175.911,214.694 173.911,213.361 171.5,212.5C 170.363,209.668 168.697,207.334 166.5,205.5C 166.543,202.413 166.71,199.413 167,196.5C 164.595,195.726 162.095,195.226 159.5,195C 156.289,190.152 152.456,185.652 148,181.5C 147.062,179.512 146.228,177.512 145.5,175.5C 147.735,175.795 149.735,175.461 151.5,174.5 Z"/></g>
<g><path style="opacity:1" fill="#c05d2a" d="M 159.5,175.5 C 162.237,175.401 164.904,175.735 167.5,176.5C 167.842,177.338 168.508,177.672 169.5,177.5C 170.497,180.328 170.497,182.995 169.5,185.5C 165.167,183.167 161.833,179.833 159.5,175.5 Z"/></g>
<g><path style="opacity:1" fill="#7a5b4f" d="M 256.5,172.5 C 259.393,172.031 261.393,173.031 262.5,175.5C 261.175,178.759 259.842,182.092 258.5,185.5C 255.647,192.207 254.314,199.207 254.5,206.5C 250.814,215.904 247.147,225.237 243.5,234.5C 242.041,234.567 240.708,234.234 239.5,233.5C 246.299,213.515 251.966,193.181 256.5,172.5 Z"/></g>
<g><path style="opacity:1" fill="#964425" d="M 179.5,184.5 C 179.5,187.5 179.5,190.5 179.5,193.5C 177.249,194.865 175.249,194.531 173.5,192.5C 172.911,189.724 171.578,187.39 169.5,185.5C 170.497,182.995 170.497,180.328 169.5,177.5C 170.209,176.596 171.209,176.263 172.5,176.5C 172.747,181.076 175.081,183.743 179.5,184.5 Z"/></g>
<g><path style="opacity:1" fill="#f3c244" d="M 140.5,171.5 C 142.167,172.833 143.833,174.167 145.5,175.5C 146.228,177.512 147.062,179.512 148,181.5C 152.456,185.652 156.289,190.152 159.5,195C 162.095,195.226 164.595,195.726 167,196.5C 166.71,199.413 166.543,202.413 166.5,205.5C 165.038,206.458 163.705,207.624 162.5,209C 160.866,209.494 159.199,209.66 157.5,209.5C 158.961,205.594 158.461,201.927 156,198.5C 153.502,197.221 151.002,197.221 148.5,198.5C 146.787,197.365 146.12,195.698 146.5,193.5C 145.699,191.958 145.366,190.292 145.5,188.5C 144.167,188.5 142.833,188.5 141.5,188.5C 140.393,184.77 139.727,180.936 139.5,177C 139.506,174.967 139.839,173.134 140.5,171.5 Z"/></g>
<g><path style="opacity:1" fill="#e38d38" d="M 120.5,182.5 C 118.402,185.156 115.902,187.489 113,189.5C 112.317,193.856 110.817,197.856 108.5,201.5C 107.357,201.908 106.357,202.575 105.5,203.5C 104.95,205.657 104.283,207.657 103.5,209.5C 102.167,209.5 100.833,209.5 99.5,209.5C 99.7373,210.791 99.404,211.791 98.5,212.5C 97.7387,211.609 96.7387,210.942 95.5,210.5C 94.5091,206.555 94.1758,202.555 94.5,198.5C 97.7604,197.514 99.4271,195.181 99.5,191.5C 101.199,191.66 102.866,191.494 104.5,191C 107.355,188.145 110.188,185.312 113,182.5C 115.81,180.645 118.31,180.645 120.5,182.5 Z"/></g>
<g><path style="opacity:1" fill="#e3a94e" d="M 188.5,178.5 C 188.798,185.503 188.298,192.503 187,199.5C 184.618,200.554 182.118,201.221 179.5,201.5C 179.5,198.833 179.5,196.167 179.5,193.5C 179.5,190.5 179.5,187.5 179.5,184.5C 180.468,182.393 180.802,180.059 180.5,177.5C 181.93,177.579 183.264,177.246 184.5,176.5C 185.86,177.18 187.193,177.847 188.5,178.5 Z"/></g>
<g><path style="opacity:1" fill="#faf9df" d="M 129.5,185.5 C 131.148,186.777 132.982,187.777 135,188.5C 135.483,189.448 135.649,190.448 135.5,191.5C 139.008,193.458 142.675,194.124 146.5,193.5C 146.12,195.698 146.787,197.365 148.5,198.5C 149.908,202.313 151.574,205.98 153.5,209.5C 153.5,210.167 153.167,210.5 152.5,210.5C 152.167,210.5 151.833,210.5 151.5,210.5C 146.728,211.798 142.728,210.465 139.5,206.5C 136.368,208.501 133.035,209.001 129.5,208C 126.65,209.791 123.65,210.958 120.5,211.5C 120.167,211.5 119.833,211.5 119.5,211.5C 118.849,209.174 118.182,206.841 117.5,204.5C 117.984,201.74 119.65,200.073 122.5,199.5C 123.196,196.444 124.03,193.444 125,190.5C 127.391,189.61 128.891,187.943 129.5,185.5 Z"/></g>
<g><path style="opacity:1" fill="#9a684f" d="M 273.5,214.5 C 271.24,224.281 268.573,233.948 265.5,243.5C 263.308,247.098 262.308,251.098 262.5,255.5C 261.449,259.603 261.449,263.603 262.5,267.5C 261.522,267.811 260.855,268.478 260.5,269.5C 261.575,272.438 261.741,275.438 261,278.5C 259.989,279.337 258.822,279.67 257.5,279.5C 251.844,274.368 245.677,269.702 239,265.5C 238.22,263.613 238.387,261.946 239.5,260.5C 242.167,260.5 244.833,260.5 247.5,260.5C 246.833,258.181 246.666,255.847 247,253.5C 248.356,252.62 249.856,252.286 251.5,252.5C 251.638,248.307 249.638,245.973 245.5,245.5C 249.772,233.018 254.438,220.685 259.5,208.5C 260.429,201.77 262.429,195.436 265.5,189.5C 269.432,186.378 272.599,187.044 275,191.5C 274.975,199.184 274.475,206.851 273.5,214.5 Z"/></g>
<g><path style="opacity:1" fill="#2e2228" d="M -0.5,155.5 C 0.181529,162.901 0.848196,170.401 1.5,178C 5.84788,178.238 10.1812,177.905 14.5,177C 15.2638,174.931 15.7638,172.764 16,170.5C 16.414,170.043 16.914,169.709 17.5,169.5C 19.0879,171.113 20.0879,173.113 20.5,175.5C 21.325,176.386 22.325,176.719 23.5,176.5C 23.2137,178.277 22.5471,179.944 21.5,181.5C 22.8932,183.94 23.7266,186.607 24,189.5C 25.8254,190.103 27.6587,190.77 29.5,191.5C 29.9943,193.026 30.661,194.359 31.5,195.5C 32.9003,202.366 34.9003,209.032 37.5,215.5C 37.9926,217.806 38.3259,220.139 38.5,222.5C 35.7188,222.906 32.7188,222.906 29.5,222.5C 29.5,223.5 29.5,224.5 29.5,225.5C 27.8612,225.926 26.5279,225.926 25.5,225.5C 25.0535,222.351 23.7201,219.684 21.5,217.5C 19.3959,221.232 17.8959,225.232 17,229.5C 16.3028,231.584 15.1361,233.251 13.5,234.5C 12.8333,233.167 11.8333,232.167 10.5,231.5C 13.3751,227.342 14.7085,222.675 14.5,217.5C 11.5,217.5 8.5,217.5 5.5,217.5C 5.33982,215.801 5.50649,214.134 6,212.5C 8.59609,210.98 11.4294,210.147 14.5,210C 14.1667,209.667 13.8333,209.333 13.5,209C 14.376,207.414 15.376,205.914 16.5,204.5C 15.7382,200.889 15.2382,197.222 15,193.5C 11.9243,192.712 8.75767,192.212 5.5,192C 4.59391,190.301 4.26057,188.467 4.5,186.5C 3.17793,186.67 2.01127,186.337 1,185.5C 0.813823,188.036 0.313823,190.369 -0.5,192.5C -0.5,180.167 -0.5,167.833 -0.5,155.5 Z"/></g>
<g><path style="opacity:1" fill="#150f16" d="M 10.5,231.5 C 8.5,231.5 6.5,231.5 4.5,231.5C 3.27935,230.972 2.11268,230.305 1,229.5C 0.500575,223.843 0.333909,218.176 0.5,212.5C 2.14742,206.179 1.81408,199.845 -0.5,193.5C -0.5,193.167 -0.5,192.833 -0.5,192.5C 0.313823,190.369 0.813823,188.036 1,185.5C 2.01127,186.337 3.17793,186.67 4.5,186.5C 4.26057,188.467 4.59391,190.301 5.5,192C 8.75767,192.212 11.9243,192.712 15,193.5C 15.2382,197.222 15.7382,200.889 16.5,204.5C 15.376,205.914 14.376,207.414 13.5,209C 13.8333,209.333 14.1667,209.667 14.5,210C 11.4294,210.147 8.59609,210.98 6,212.5C 5.50649,214.134 5.33982,215.801 5.5,217.5C 8.5,217.5 11.5,217.5 14.5,217.5C 14.7085,222.675 13.3751,227.342 10.5,231.5 Z"/></g>
<g><path style="opacity:1" fill="#c76a31" d="M 173.5,192.5 C 175.249,194.531 177.249,194.865 179.5,193.5C 179.5,196.167 179.5,198.833 179.5,201.5C 179.5,202.833 179.5,204.167 179.5,205.5C 178.448,205.649 177.448,205.483 176.5,205C 172.623,201.409 171.623,197.242 173.5,192.5 Z"/></g>
<g><path style="opacity:1" fill="#694b3d" d="M 34.5,193.5 C 34.5,194.167 34.8333,194.5 35.5,194.5C 36.7027,200.978 38.3693,207.312 40.5,213.5C 40.1788,215.048 39.1788,215.715 37.5,215.5C 34.9003,209.032 32.9003,202.366 31.5,195.5C 32.2905,194.599 33.2905,193.932 34.5,193.5 Z"/></g>
<g><path style="opacity:1" fill="#ebc86b" d="M 188.5,178.5 C 189.708,179.234 191.041,179.567 192.5,179.5C 194.807,183.925 195.14,188.592 193.5,193.5C 192.996,197.022 192.329,200.522 191.5,204C 192.289,205.626 193.289,207.126 194.5,208.5C 192.945,210.943 192.278,213.61 192.5,216.5C 190.883,217.038 189.216,217.371 187.5,217.5C 186.91,213.684 184.577,212.017 180.5,212.5C 179.781,210.236 179.448,207.903 179.5,205.5C 179.5,204.167 179.5,202.833 179.5,201.5C 182.118,201.221 184.618,200.554 187,199.5C 188.298,192.503 188.798,185.503 188.5,178.5 Z"/></g>
<g><path style="opacity:1" fill="#3f2f32" d="M 258.5,185.5 C 260.816,186.806 263.15,188.139 265.5,189.5C 262.429,195.436 260.429,201.77 259.5,208.5C 257.95,207.559 256.284,206.893 254.5,206.5C 254.314,199.207 255.647,192.207 258.5,185.5 Z"/></g>
<g><path style="opacity:1" fill="#9a7959" d="M -0.5,193.5 C 1.81408,199.845 2.14742,206.179 0.5,212.5C 0.166667,212.5 -0.166667,212.5 -0.5,212.5C -0.5,206.167 -0.5,199.833 -0.5,193.5 Z"/></g>
<g><path style="opacity:1" fill="#c1894b" d="M 94.5,198.5 C 94.1758,202.555 94.5091,206.555 95.5,210.5C 96.7387,210.942 97.7387,211.609 98.5,212.5C 98.5,214.833 98.5,217.167 98.5,219.5C 97.1667,219.5 95.8333,219.5 94.5,219.5C 92.5856,218.815 90.5856,218.315 88.5,218C 87.1837,216.022 87.6837,214.522 90,213.5C 90.6667,209.5 90.6667,205.5 90,201.5C 87.4382,200.102 87.1049,198.435 89,196.5C 89.2401,192.748 89.7401,189.081 90.5,185.5C 91.209,184.596 92.209,184.263 93.5,184.5C 93.1805,189.363 93.5139,194.03 94.5,198.5 Z"/></g>
<g><path style="opacity:1" fill="#f3f09d" d="M 157.5,209.5 C 156.167,209.5 154.833,209.5 153.5,209.5C 151.574,205.98 149.908,202.313 148.5,198.5C 151.002,197.221 153.502,197.221 156,198.5C 158.461,201.927 158.961,205.594 157.5,209.5 Z"/></g>
<g><path style="opacity:1" fill="#ecb543" d="M 108.5,201.5 C 108.405,204.692 109.071,207.692 110.5,210.5C 108.579,211.363 106.579,212.029 104.5,212.5C 103.89,211.609 103.557,210.609 103.5,209.5C 104.283,207.657 104.95,205.657 105.5,203.5C 106.357,202.575 107.357,201.908 108.5,201.5 Z"/></g>
<g><path style="opacity:1" fill="#211e23" d="M 35.5,194.5 C 39.5385,194.659 43.5385,195.159 47.5,196C 48.1332,199.76 49.1332,203.427 50.5,207C 55.4113,207.754 59.4113,206.254 62.5,202.5C 64.7131,203.605 66.8797,203.605 69,202.5C 69.2895,204.952 69.9562,207.285 71,209.5C 71.6708,210.252 72.5041,210.586 73.5,210.5C 73.5621,215.076 72.8955,219.409 71.5,223.5C 67.4258,218.298 62.0924,216.131 55.5,217C 54.9558,217.717 54.2891,218.217 53.5,218.5C 51.6969,216.519 50.0303,214.352 48.5,212C 45.8262,212.153 43.1595,212.653 40.5,213.5C 38.3693,207.312 36.7027,200.978 35.5,194.5 Z"/></g>
<g><path style="opacity:1" fill="#ab6131" d="M 166.5,205.5 C 168.697,207.334 170.363,209.668 171.5,212.5C 173.911,213.361 175.911,214.694 177.5,216.5C 177.443,217.609 177.11,218.609 176.5,219.5C 172.998,218.586 169.998,216.919 167.5,214.5C 161.793,215.663 157.46,218.663 154.5,223.5C 153.609,222.89 152.609,222.557 151.5,222.5C 148.328,218.835 148.995,216.502 153.5,215.5C 153.634,213.708 153.301,212.042 152.5,210.5C 153.167,210.5 153.5,210.167 153.5,209.5C 154.833,209.5 156.167,209.5 157.5,209.5C 159.199,209.66 160.866,209.494 162.5,209C 163.705,207.624 165.038,206.458 166.5,205.5 Z"/></g>
<g><path style="opacity:1" fill="#2a2524" d="M 254.5,206.5 C 256.284,206.893 257.95,207.559 259.5,208.5C 254.438,220.685 249.772,233.018 245.5,245.5C 244.263,246.965 243.263,248.632 242.5,250.5C 241.167,249.833 239.833,249.167 238.5,248.5C 240.731,244.038 242.398,239.371 243.5,234.5C 247.147,225.237 250.814,215.904 254.5,206.5 Z"/></g>
<g><path style="opacity:1" fill="#e6c86d" d="M 151.5,210.5 C 150.971,212.583 149.971,214.417 148.5,216C 144.909,216.789 141.409,216.622 138,215.5C 135.061,216.128 132.228,216.795 129.5,217.5C 123.921,219.608 120.921,217.608 120.5,211.5C 123.65,210.958 126.65,209.791 129.5,208C 133.035,209.001 136.368,208.501 139.5,206.5C 142.728,210.465 146.728,211.798 151.5,210.5 Z"/></g>
<g><path style="opacity:1" fill="#694d48" d="M 193.5,193.5 C 194.482,194.141 195.482,194.807 196.5,195.5C 197.417,194.873 198.417,194.539 199.5,194.5C 201.015,197.602 201.681,200.935 201.5,204.5C 201.045,208.85 200.879,213.184 201,217.5C 202.75,219.734 204.25,222.068 205.5,224.5C 201.486,224.666 197.486,224.499 193.5,224C 192.934,223.005 192.267,222.172 191.5,221.5C 192.301,219.958 192.634,218.292 192.5,216.5C 192.278,213.61 192.945,210.943 194.5,208.5C 193.289,207.126 192.289,205.626 191.5,204C 192.329,200.522 192.996,197.022 193.5,193.5 Z"/></g>
<g><path style="opacity:1" fill="#805346" d="M 89.5,185.5 C 89.8333,185.5 90.1667,185.5 90.5,185.5C 89.7401,189.081 89.2401,192.748 89,196.5C 87.1049,198.435 87.4382,200.102 90,201.5C 90.6667,205.5 90.6667,209.5 90,213.5C 87.6837,214.522 87.1837,216.022 88.5,218C 90.5856,218.315 92.5856,218.815 94.5,219.5C 93.8333,222.833 93.1667,226.167 92.5,229.5C 87.7971,229.437 83.1304,229.771 78.5,230.5C 79.3512,227.751 80.0179,224.917 80.5,222C 79.8694,218.225 79.8694,214.392 80.5,210.5C 82.1238,210.64 83.2904,209.973 84,208.5C 84.3333,205.5 84.6667,202.5 85,199.5C 85.5,199 86,198.5 86.5,198C 85.2986,197.097 84.4652,195.931 84,194.5C 82.0109,188.867 83.8442,185.867 89.5,185.5 Z"/></g>
<g><path style="opacity:1" fill="#885d43" d="M 53.5,218.5 C 54.758,220.687 55.758,223.02 56.5,225.5C 55.4706,227.517 54.4706,229.517 53.5,231.5C 51.3296,232.749 48.9963,233.749 46.5,234.5C 45.4163,234.315 44.4163,233.982 43.5,233.5C 42.5,232.167 41.5,230.833 40.5,229.5C 40.6621,227.473 40.4955,225.473 40,223.5C 39.6174,222.944 39.1174,222.611 38.5,222.5C 38.3259,220.139 37.9926,217.806 37.5,215.5C 39.1788,215.715 40.1788,215.048 40.5,213.5C 43.1595,212.653 45.8262,212.153 48.5,212C 50.0303,214.352 51.6969,216.519 53.5,218.5 Z"/></g>
<g><path style="opacity:1" fill="#a3522b" d="M 110.5,210.5 C 111.306,211.728 112.306,212.728 113.5,213.5C 113.472,215.582 114.139,217.416 115.5,219C 120.759,217.428 122.426,219.261 120.5,224.5C 117.627,224.802 114.961,225.469 112.5,226.5C 111.209,226.737 110.209,226.404 109.5,225.5C 109.156,222.804 107.823,220.804 105.5,219.5C 104.526,217.257 104.192,214.924 104.5,212.5C 106.579,212.029 108.579,211.363 110.5,210.5 Z"/></g>
<g><path style="opacity:1" fill="#8b4425" d="M 176.5,219.5 C 176.567,220.959 176.234,222.292 175.5,223.5C 168.576,223.665 161.576,223.665 154.5,223.5C 157.46,218.663 161.793,215.663 167.5,214.5C 169.998,216.919 172.998,218.586 176.5,219.5 Z"/></g>
<g><path style="opacity:1" fill="#d98e46" d="M 151.5,210.5 C 151.833,210.5 152.167,210.5 152.5,210.5C 153.301,212.042 153.634,213.708 153.5,215.5C 148.995,216.502 148.328,218.835 151.5,222.5C 149.149,224.744 146.482,225.077 143.5,223.5C 139.534,222.838 135.534,222.505 131.5,222.5C 130.976,220.694 130.309,219.028 129.5,217.5C 132.228,216.795 135.061,216.128 138,215.5C 141.409,216.622 144.909,216.789 148.5,216C 149.971,214.417 150.971,212.583 151.5,210.5 Z"/></g>
<g><path style="opacity:1" fill="#18121f" d="M 71.5,223.5 C 71.5,223.833 71.5,224.167 71.5,224.5C 68.22,227.405 66.8867,231.071 67.5,235.5C 66.1667,235.5 64.8333,235.5 63.5,235.5C 61.6465,231.779 59.3131,228.446 56.5,225.5C 55.758,223.02 54.758,220.687 53.5,218.5C 54.2891,218.217 54.9558,217.717 55.5,217C 62.0924,216.131 67.4258,218.298 71.5,223.5 Z"/></g>
<g><path style="opacity:1" fill="#d8a955" d="M 180.5,212.5 C 184.577,212.017 186.91,213.684 187.5,217.5C 189.216,217.371 190.883,217.038 192.5,216.5C 192.634,218.292 192.301,219.958 191.5,221.5C 189.413,222.585 188.08,224.251 187.5,226.5C 184.193,227.051 180.86,227.384 177.5,227.5C 177.771,225.62 177.104,224.287 175.5,223.5C 176.234,222.292 176.567,220.959 176.5,219.5C 177.11,218.609 177.443,217.609 177.5,216.5C 179.262,215.738 180.262,214.404 180.5,212.5 Z"/></g>
<g><path style="opacity:1" fill="#0e0d13" d="M 25.5,225.5 C 24.8761,225.917 24.5427,226.584 24.5,227.5C 26.0531,232.274 27.8865,236.94 30,241.5C 30.4935,243.134 30.6602,244.801 30.5,246.5C 26.6133,246.91 22.9466,247.91 19.5,249.5C 16.5,249.5 13.5,249.5 10.5,249.5C 11.3414,244.468 12.3414,239.468 13.5,234.5C 15.1361,233.251 16.3028,231.584 17,229.5C 17.8959,225.232 19.3959,221.232 21.5,217.5C 23.7201,219.684 25.0535,222.351 25.5,225.5 Z"/></g>
<g><path style="opacity:1" fill="#c26b2d" d="M 119.5,211.5 C 119.833,211.5 120.167,211.5 120.5,211.5C 120.921,217.608 123.921,219.608 129.5,217.5C 130.309,219.028 130.976,220.694 131.5,222.5C 131.586,223.496 131.252,224.329 130.5,225C 127.151,225.388 123.817,225.221 120.5,224.5C 122.426,219.261 120.759,217.428 115.5,219C 114.139,217.416 113.472,215.582 113.5,213.5C 115.626,212.952 117.626,212.285 119.5,211.5 Z"/></g>
<g><path style="opacity:1" fill="#824e2d" d="M 103.5,209.5 C 103.557,210.609 103.89,211.609 104.5,212.5C 104.192,214.924 104.526,217.257 105.5,219.5C 107.823,220.804 109.156,222.804 109.5,225.5C 105.78,225.564 102.114,226.064 98.5,227C 97.6634,228.011 97.33,229.178 97.5,230.5C 96.0413,230.433 94.7079,230.766 93.5,231.5C 93.1667,230.833 92.8333,230.167 92.5,229.5C 93.1667,226.167 93.8333,222.833 94.5,219.5C 95.8333,219.5 97.1667,219.5 98.5,219.5C 98.5,217.167 98.5,214.833 98.5,212.5C 99.404,211.791 99.7373,210.791 99.5,209.5C 100.833,209.5 102.167,209.5 103.5,209.5 Z"/></g>
<g><path style="opacity:1" fill="#9b7656" d="M 191.5,221.5 C 192.267,222.172 192.934,223.005 193.5,224C 197.486,224.499 201.486,224.666 205.5,224.5C 206.605,226.3 205.939,227.467 203.5,228C 199.514,228.499 195.514,228.666 191.5,228.5C 190.329,227.655 188.995,226.989 187.5,226.5C 188.08,224.251 189.413,222.585 191.5,221.5 Z"/></g>
<g><path style="opacity:1" fill="#56443d" d="M 38.5,222.5 C 39.1174,222.611 39.6174,222.944 40,223.5C 40.4955,225.473 40.6621,227.473 40.5,229.5C 36.9416,227.888 33.2749,226.555 29.5,225.5C 29.5,224.5 29.5,223.5 29.5,222.5C 32.7188,222.906 35.7188,222.906 38.5,222.5 Z"/></g>
<g><path style="opacity:1" fill="#ddbc6b" d="M 131.5,222.5 C 135.534,222.505 139.534,222.838 143.5,223.5C 144.219,225.764 144.552,228.097 144.5,230.5C 136.267,230.279 127.934,230.279 119.5,230.5C 117.5,230.5 115.5,230.5 113.5,230.5C 113.768,228.901 113.434,227.568 112.5,226.5C 114.961,225.469 117.627,224.802 120.5,224.5C 123.817,225.221 127.151,225.388 130.5,225C 131.252,224.329 131.586,223.496 131.5,222.5 Z"/></g>
<g><path style="opacity:1" fill="#c5a35b" d="M 151.5,222.5 C 152.609,222.557 153.609,222.89 154.5,223.5C 161.576,223.665 168.576,223.665 175.5,223.5C 177.104,224.287 177.771,225.62 177.5,227.5C 176.833,227.5 176.5,227.833 176.5,228.5C 170.108,228.249 163.775,228.582 157.5,229.5C 153.131,229.467 148.798,229.8 144.5,230.5C 144.552,228.097 144.219,225.764 143.5,223.5C 146.482,225.077 149.149,224.744 151.5,222.5 Z"/></g>
<g><path style="opacity:1" fill="#0b0b0c" d="M 273.5,214.5 C 274.391,215.11 275.391,215.443 276.5,215.5C 276.5,227.5 276.5,239.5 276.5,251.5C 273.433,248.121 269.766,245.454 265.5,243.5C 268.573,233.948 271.24,224.281 273.5,214.5 Z"/></g>
<g><path style="opacity:1" fill="#634437" d="M 56.5,225.5 C 59.3131,228.446 61.6465,231.779 63.5,235.5C 63.5,236.5 63.5,237.5 63.5,238.5C 62.1266,238.657 60.7932,238.49 59.5,238C 57.9731,235.31 55.9731,233.143 53.5,231.5C 54.4706,229.517 55.4706,227.517 56.5,225.5 Z"/></g>
<g><path style="opacity:1" fill="#c09650" d="M 109.5,225.5 C 110.209,226.404 111.209,226.737 112.5,226.5C 113.434,227.568 113.768,228.901 113.5,230.5C 108.167,230.5 102.833,230.5 97.5,230.5C 97.33,229.178 97.6634,228.011 98.5,227C 102.114,226.064 105.78,225.564 109.5,225.5 Z"/></g>
<g><path style="opacity:1" fill="#563831" d="M 187.5,226.5 C 188.995,226.989 190.329,227.655 191.5,228.5C 191.203,231.724 191.87,234.724 193.5,237.5C 192.873,238.417 192.539,239.417 192.5,240.5C 191.833,240.5 191.167,240.5 190.5,240.5C 189.551,239.848 188.385,239.514 187,239.5C 184.992,239.307 183.492,239.974 182.5,241.5C 179.938,240.629 177.272,240.629 174.5,241.5C 174.179,240.183 173.846,238.849 173.5,237.5C 174.704,234.556 175.704,231.556 176.5,228.5C 176.5,227.833 176.833,227.5 177.5,227.5C 180.86,227.384 184.193,227.051 187.5,226.5 Z"/></g>
<g><path style="opacity:1" fill="#544243" d="M 208.5,178.5 C 208.876,188.185 208.876,197.852 208.5,207.5C 209.22,212.137 209.72,216.803 210,221.5C 210.667,222.167 211.333,222.833 212,223.5C 212.176,226.882 212.676,230.215 213.5,233.5C 218.757,234.613 223.757,235.28 228.5,235.5C 228.586,236.496 228.252,237.329 227.5,238C 226.263,238.232 225.263,238.732 224.5,239.5C 222.254,238.893 219.921,238.56 217.5,238.5C 209.399,240.247 201.399,240.913 193.5,240.5C 193.167,240.5 192.833,240.5 192.5,240.5C 192.539,239.417 192.873,238.417 193.5,237.5C 191.87,234.724 191.203,231.724 191.5,228.5C 195.514,228.666 199.514,228.499 203.5,228C 205.939,227.467 206.605,226.3 205.5,224.5C 204.25,222.068 202.75,219.734 201,217.5C 200.879,213.184 201.045,208.85 201.5,204.5C 201.681,200.935 201.015,197.602 199.5,194.5C 202.439,191.724 205.272,188.724 208,185.5C 207.29,183.78 206.123,182.113 204.5,180.5C 205.32,178.889 206.654,178.222 208.5,178.5 Z"/></g>
<g><path style="opacity:1" fill="#6f4b37" d="M 176.5,228.5 C 175.704,231.556 174.704,234.556 173.5,237.5C 173.846,238.849 174.179,240.183 174.5,241.5C 169.5,241.5 164.5,241.5 159.5,241.5C 158.705,237.524 158.038,233.524 157.5,229.5C 163.775,228.582 170.108,228.249 176.5,228.5 Z"/></g>
<g><path style="opacity:1" fill="#2d2423" d="M -0.5,212.5 C -0.166667,212.5 0.166667,212.5 0.5,212.5C 0.333909,218.176 0.500575,223.843 1,229.5C 2.11268,230.305 3.27935,230.972 4.5,231.5C 4.5,239.5 4.5,247.5 4.5,255.5C 4.5,255.833 4.5,256.167 4.5,256.5C 2.63998,255.929 0.973309,255.929 -0.5,256.5C -0.5,241.833 -0.5,227.167 -0.5,212.5 Z"/></g>
<g><path style="opacity:1" fill="#ae895c" d="M 92.5,229.5 C 92.8333,230.167 93.1667,230.833 93.5,231.5C 92.0101,233.28 90.0101,233.946 87.5,233.5C 84.1589,234.005 80.8255,234.172 77.5,234C 76.6634,232.989 76.33,231.822 76.5,230.5C 77.1667,230.5 77.8333,230.5 78.5,230.5C 83.1304,229.771 87.7971,229.437 92.5,229.5 Z"/></g>
<g><path style="opacity:1" fill="#88573d" d="M 144.5,230.5 C 148.798,229.8 153.131,229.467 157.5,229.5C 158.038,233.524 158.705,237.524 159.5,241.5C 158.609,242.11 157.609,242.443 156.5,242.5C 154.525,242.178 152.858,242.178 151.5,242.5C 141.064,242.11 130.731,242.777 120.5,244.5C 120.774,239.737 120.441,235.07 119.5,230.5C 127.934,230.279 136.267,230.279 144.5,230.5 Z"/></g>
<g><path style="opacity:1" fill="#634437" d="M 97.5,230.5 C 102.833,230.5 108.167,230.5 113.5,230.5C 115.5,230.5 117.5,230.5 119.5,230.5C 120.441,235.07 120.774,239.737 120.5,244.5C 119.5,244.5 118.5,244.5 117.5,244.5C 109.833,244.5 102.167,244.5 94.5,244.5C 92.5648,245.15 90.5648,245.483 88.5,245.5C 88.7733,241.658 88.44,237.658 87.5,233.5C 90.0101,233.946 92.0101,233.28 93.5,231.5C 94.7079,230.766 96.0413,230.433 97.5,230.5 Z"/></g>
<g><path style="opacity:1" fill="#423c37" d="M 4.5,231.5 C 6.5,231.5 8.5,231.5 10.5,231.5C 11.8333,232.167 12.8333,233.167 13.5,234.5C 12.3414,239.468 11.3414,244.468 10.5,249.5C 9.59018,251.019 8.75684,252.685 8,254.5C 6.98873,255.337 5.82207,255.67 4.5,255.5C 4.5,247.5 4.5,239.5 4.5,231.5 Z"/></g>
<g><path style="opacity:1" fill="#3d3233" d="M 71.5,224.5 C 74.5531,225.28 76.2197,227.28 76.5,230.5C 76.33,231.822 76.6634,232.989 77.5,234C 80.8255,234.172 84.1589,234.005 87.5,233.5C 88.44,237.658 88.7733,241.658 88.5,245.5C 86.5853,245.216 84.9187,245.549 83.5,246.5C 72.5196,245.77 61.853,247.103 51.5,250.5C 49.8333,250.5 48.1667,250.5 46.5,250.5C 47.6512,247.404 47.3179,244.404 45.5,241.5C 44.7094,238.885 44.0427,236.218 43.5,233.5C 44.4163,233.982 45.4163,234.315 46.5,234.5C 48.9963,233.749 51.3296,232.749 53.5,231.5C 55.9731,233.143 57.9731,235.31 59.5,238C 60.7932,238.49 62.1266,238.657 63.5,238.5C 63.5,237.5 63.5,236.5 63.5,235.5C 64.8333,235.5 66.1667,235.5 67.5,235.5C 66.8867,231.071 68.22,227.405 71.5,224.5 Z"/></g>
<g><path style="opacity:1" fill="#c17d51" d="M 224.5,239.5 C 226.285,243.622 229.285,246.289 233.5,247.5C 234.405,248.702 234.405,250.036 233.5,251.5C 230.904,252.265 228.237,252.599 225.5,252.5C 225.351,253.552 225.517,254.552 226,255.5C 227.518,256.163 228.685,257.163 229.5,258.5C 229.065,261.157 228.065,263.491 226.5,265.5C 219.908,265.661 213.241,265.328 206.5,264.5C 200.453,267.103 194.453,267.103 188.5,264.5C 188.5,262.167 188.5,259.833 188.5,257.5C 188.5,257.167 188.5,256.833 188.5,256.5C 190.5,256.5 192.5,256.5 194.5,256.5C 194.08,252.246 194.747,248.246 196.5,244.5C 196.213,242.557 195.213,241.223 193.5,240.5C 201.399,240.913 209.399,240.247 217.5,238.5C 219.921,238.56 222.254,238.893 224.5,239.5 Z"/></g>
<g><path style="opacity:1" fill="#9b6443" d="M 190.5,240.5 C 190.027,241.906 189.027,242.573 187.5,242.5C 185.708,242.634 184.042,242.301 182.5,241.5C 183.492,239.974 184.992,239.307 187,239.5C 188.385,239.514 189.551,239.848 190.5,240.5 Z"/></g>
<g><path style="opacity:1" fill="#e6bf68" d="M 182.5,241.5 C 184.042,242.301 185.708,242.634 187.5,242.5C 189.316,246.968 189.65,251.635 188.5,256.5C 188.5,256.833 188.5,257.167 188.5,257.5C 182.772,258.004 177.105,258.67 171.5,259.5C 170.766,258.292 170.433,256.959 170.5,255.5C 166.221,254.454 163.555,255.954 162.5,260C 159.623,261.127 156.623,261.794 153.5,262C 152.643,264.019 151.309,265.519 149.5,266.5C 148.167,266.5 146.833,266.5 145.5,266.5C 145.5,268.5 145.5,270.5 145.5,272.5C 139.858,271.646 134.191,270.98 128.5,270.5C 127.5,269.833 126.5,269.167 125.5,268.5C 123.721,267.33 122.721,265.664 122.5,263.5C 126.509,263.142 130.509,262.642 134.5,262C 135.056,261.617 135.389,261.117 135.5,260.5C 136.688,261.684 137.855,261.684 139,260.5C 139.494,258.866 139.66,257.199 139.5,255.5C 141.612,256.594 143.779,257.594 146,258.5C 149.979,256.804 154.145,255.804 158.5,255.5C 158.018,251.127 157.352,246.794 156.5,242.5C 157.609,242.443 158.609,242.11 159.5,241.5C 164.5,241.5 169.5,241.5 174.5,241.5C 177.272,240.629 179.938,240.629 182.5,241.5 Z"/></g>
<g><path style="opacity:1" fill="#d99c56" d="M 190.5,240.5 C 191.167,240.5 191.833,240.5 192.5,240.5C 192.833,240.5 193.167,240.5 193.5,240.5C 195.213,241.223 196.213,242.557 196.5,244.5C 194.747,248.246 194.08,252.246 194.5,256.5C 192.5,256.5 190.5,256.5 188.5,256.5C 189.65,251.635 189.316,246.968 187.5,242.5C 189.027,242.573 190.027,241.906 190.5,240.5 Z"/></g>
<g><path style="opacity:1" fill="#ecda7c" d="M 156.5,242.5 C 157.352,246.794 158.018,251.127 158.5,255.5C 154.145,255.804 149.979,256.804 146,258.5C 143.779,257.594 141.612,256.594 139.5,255.5C 140.686,253.126 140.686,250.792 139.5,248.5C 141.138,246.699 142.971,245.033 145,243.5C 147.864,246.402 150.031,246.068 151.5,242.5C 152.858,242.178 154.525,242.178 156.5,242.5 Z"/></g>
<g><path style="opacity:1" fill="#2b2d3c" d="M 45.5,241.5 C 47.3179,244.404 47.6512,247.404 46.5,250.5C 46.5,251.167 46.1667,251.5 45.5,251.5C 41.7201,249.942 38.7201,247.442 36.5,244C 36.6448,243.228 36.9781,242.561 37.5,242C 40.146,241.503 42.8127,241.336 45.5,241.5 Z"/></g>
<g><path style="opacity:1" fill="#d19656" d="M 94.5,244.5 C 94.5926,246.247 94.926,248.081 95.5,250C 99.0458,251.174 102.713,251.84 106.5,252C 107.053,253.878 108.053,255.378 109.5,256.5C 109.414,257.496 109.748,258.329 110.5,259C 118.478,260.507 126.478,260.34 134.5,258.5C 134.833,259.167 135.167,259.833 135.5,260.5C 135.389,261.117 135.056,261.617 134.5,262C 130.509,262.642 126.509,263.142 122.5,263.5C 122.721,265.664 123.721,267.33 125.5,268.5C 120.45,273.364 115.117,273.698 109.5,269.5C 108.71,268.599 107.71,267.932 106.5,267.5C 105.833,266.5 105.167,265.5 104.5,264.5C 103.824,257.467 101.49,256.8 97.5,262.5C 96.391,262.443 95.391,262.11 94.5,261.5C 90.313,260.787 86.313,259.787 82.5,258.5C 84.1185,255.791 85.1185,252.791 85.5,249.5C 85.5466,247.962 84.8799,246.962 83.5,246.5C 84.9187,245.549 86.5853,245.216 88.5,245.5C 90.5648,245.483 92.5648,245.15 94.5,244.5 Z"/></g>
<g><path style="opacity:1" fill="#e6af63" d="M 94.5,244.5 C 102.167,244.5 109.833,244.5 117.5,244.5C 117.892,247.324 117.892,250.324 117.5,253.5C 114.458,253.733 111.792,254.733 109.5,256.5C 108.053,255.378 107.053,253.878 106.5,252C 102.713,251.84 99.0458,251.174 95.5,250C 94.926,248.081 94.5926,246.247 94.5,244.5 Z"/></g>
<g><path style="opacity:1" fill="#e5c76a" d="M 151.5,242.5 C 150.031,246.068 147.864,246.402 145,243.5C 142.971,245.033 141.138,246.699 139.5,248.5C 135.691,247.786 133.691,249.62 133.5,254C 133.773,255.533 134.106,257.033 134.5,258.5C 126.478,260.34 118.478,260.507 110.5,259C 109.748,258.329 109.414,257.496 109.5,256.5C 111.792,254.733 114.458,253.733 117.5,253.5C 117.892,250.324 117.892,247.324 117.5,244.5C 118.5,244.5 119.5,244.5 120.5,244.5C 130.731,242.777 141.064,242.11 151.5,242.5 Z"/></g>
<g><path style="opacity:1" fill="#19181f" d="M 25.5,225.5 C 26.5279,225.926 27.8612,225.926 29.5,225.5C 33.2749,226.555 36.9416,227.888 40.5,229.5C 41.5,230.833 42.5,232.167 43.5,233.5C 44.0427,236.218 44.7094,238.885 45.5,241.5C 42.8127,241.336 40.146,241.503 37.5,242C 36.9781,242.561 36.6448,243.228 36.5,244C 38.7201,247.442 41.7201,249.942 45.5,251.5C 50.8636,257.864 56.8636,263.531 63.5,268.5C 65.5,271.167 67.8333,273.5 70.5,275.5C 73.1381,281.692 71.1381,283.526 64.5,281C 63.157,278.768 61.4903,276.934 59.5,275.5C 56.9473,267.548 52.2806,265.881 45.5,270.5C 41.9475,271.276 38.6142,272.609 35.5,274.5C 33.6075,273.298 31.7742,271.965 30,270.5C 29.805,269.181 29.9717,267.847 30.5,266.5C 35.6105,265.639 40.6105,264.305 45.5,262.5C 46.754,260.741 46.4206,259.241 44.5,258C 35.0331,256.054 26.3664,257.721 18.5,263C 17.7476,263.671 17.4142,264.504 17.5,265.5C 11.5677,266.642 5.90108,268.309 0.5,270.5C 0.816751,266.298 0.483418,262.298 -0.5,258.5C -0.5,257.833 -0.5,257.167 -0.5,256.5C 0.973309,255.929 2.63998,255.929 4.5,256.5C 4.49616,260.605 6.49616,262.105 10.5,261C 15.1298,259.531 18.7965,256.865 21.5,253C 20.695,251.887 20.0283,250.721 19.5,249.5C 22.9466,247.91 26.6133,246.91 30.5,246.5C 30.6602,244.801 30.4935,243.134 30,241.5C 27.8865,236.94 26.0531,232.274 24.5,227.5C 24.5427,226.584 24.8761,225.917 25.5,225.5 Z"/></g>
<g><path style="opacity:1" fill="#744634" d="M 245.5,245.5 C 249.638,245.973 251.638,248.307 251.5,252.5C 249.856,252.286 248.356,252.62 247,253.5C 246.666,255.847 246.833,258.181 247.5,260.5C 244.833,260.5 242.167,260.5 239.5,260.5C 240,256.991 241,253.657 242.5,250.5C 243.263,248.632 244.263,246.965 245.5,245.5 Z"/></g>
<g><path style="opacity:1" fill="#ae704a" d="M 83.5,246.5 C 84.8799,246.962 85.5466,247.962 85.5,249.5C 85.1185,252.791 84.1185,255.791 82.5,258.5C 75.1418,256.991 67.8085,256.657 60.5,257.5C 57.7471,256.978 55.0804,256.144 52.5,255C 51.6198,253.644 51.2865,252.144 51.5,250.5C 61.853,247.103 72.5196,245.77 83.5,246.5 Z"/></g>
<g><path style="opacity:1" fill="#483b45" d="M 239.5,233.5 C 240.708,234.234 242.041,234.567 243.5,234.5C 242.398,239.371 240.731,244.038 238.5,248.5C 233.597,259.316 228.93,270.316 224.5,281.5C 223.833,281.5 223.167,281.5 222.5,281.5C 221.314,279.208 221.314,276.874 222.5,274.5C 224.592,271.912 225.925,268.912 226.5,265.5C 228.065,263.491 229.065,261.157 229.5,258.5C 231.572,256.65 232.905,254.317 233.5,251.5C 234.405,250.036 234.405,248.702 233.5,247.5C 235.256,246.448 235.923,244.781 235.5,242.5C 237.584,239.947 238.917,236.947 239.5,233.5 Z"/></g>
<g><path style="opacity:1" fill="#28222f" d="M 10.5,249.5 C 13.5,249.5 16.5,249.5 19.5,249.5C 20.0283,250.721 20.695,251.887 21.5,253C 18.7965,256.865 15.1298,259.531 10.5,261C 6.49616,262.105 4.49616,260.605 4.5,256.5C 4.5,256.167 4.5,255.833 4.5,255.5C 5.82207,255.67 6.98873,255.337 8,254.5C 8.75684,252.685 9.59018,251.019 10.5,249.5 Z"/></g>
<g><path style="opacity:1" fill="#4d321d" d="M 139.5,248.5 C 140.686,250.792 140.686,253.126 139.5,255.5C 139.66,257.199 139.494,258.866 139,260.5C 137.855,261.684 136.688,261.684 135.5,260.5C 135.167,259.833 134.833,259.167 134.5,258.5C 134.106,257.033 133.773,255.533 133.5,254C 133.691,249.62 135.691,247.786 139.5,248.5 Z"/></g>
<g><path style="opacity:1" fill="#6f4b37" d="M 233.5,251.5 C 232.905,254.317 231.572,256.65 229.5,258.5C 228.685,257.163 227.518,256.163 226,255.5C 225.517,254.552 225.351,253.552 225.5,252.5C 228.237,252.599 230.904,252.265 233.5,251.5 Z"/></g>
<g><path style="opacity:1" fill="#47454b" d="M 46.5,250.5 C 48.1667,250.5 49.8333,250.5 51.5,250.5C 51.2865,252.144 51.6198,253.644 52.5,255C 55.0804,256.144 57.7471,256.978 60.5,257.5C 60.2806,261.268 61.9473,263.602 65.5,264.5C 65.0113,265.995 64.3446,267.329 63.5,268.5C 56.8636,263.531 50.8636,257.864 45.5,251.5C 46.1667,251.5 46.5,251.167 46.5,250.5 Z"/></g>
<g><path style="opacity:1" fill="#e6a85c" d="M 171.5,259.5 C 170.414,259.62 169.747,260.287 169.5,261.5C 172.167,263.5 173.5,266.167 173.5,269.5C 172.508,269.328 171.842,269.662 171.5,270.5C 166.804,270.671 162.137,271.171 157.5,272C 156.944,272.383 156.611,272.883 156.5,273.5C 154.374,273.15 152.041,273.15 149.5,273.5C 149.5,271.167 149.5,268.833 149.5,266.5C 151.309,265.519 152.643,264.019 153.5,262C 156.623,261.794 159.623,261.127 162.5,260C 163.555,255.954 166.221,254.454 170.5,255.5C 170.433,256.959 170.766,258.292 171.5,259.5 Z"/></g>
<g><path style="opacity:1" fill="#7c574a" d="M 262.5,255.5 C 275.264,253.59 279.264,258.757 274.5,271C 272.444,271.311 270.444,271.811 268.5,272.5C 266.481,270.81 264.481,269.144 262.5,267.5C 261.449,263.603 261.449,259.603 262.5,255.5 Z"/></g>
<g><path style="opacity:1" fill="#24191e" d="M 82.5,258.5 C 86.313,259.787 90.313,260.787 94.5,261.5C 93.2271,263.713 92.2271,266.046 91.5,268.5C 82.9904,266.107 74.3238,264.774 65.5,264.5C 61.9473,263.602 60.2806,261.268 60.5,257.5C 67.8085,256.657 75.1418,256.991 82.5,258.5 Z"/></g>
<g><path style="opacity:1" fill="#95644a" d="M 30.5,266.5 C 27.4552,266.508 24.4552,266.841 21.5,267.5C 19.847,267.34 18.5137,266.674 17.5,265.5C 17.4142,264.504 17.7476,263.671 18.5,263C 26.3664,257.721 35.0331,256.054 44.5,258C 46.4206,259.241 46.754,260.741 45.5,262.5C 40.6105,264.305 35.6105,265.639 30.5,266.5 Z"/></g>
<g><path style="opacity:1" fill="#826443" d="M 104.5,264.5 C 102.106,263.985 99.7722,263.319 97.5,262.5C 101.49,256.8 103.824,257.467 104.5,264.5 Z"/></g>
<g><path style="opacity:1" fill="#d29855" d="M 188.5,257.5 C 188.5,259.833 188.5,262.167 188.5,264.5C 188.047,265.458 187.381,266.292 186.5,267C 181.966,267.269 177.633,268.102 173.5,269.5C 173.5,266.167 172.167,263.5 169.5,261.5C 169.747,260.287 170.414,259.62 171.5,259.5C 177.105,258.67 182.772,258.004 188.5,257.5 Z"/></g>
<g><path style="opacity:1" fill="#413230" d="M 94.5,261.5 C 95.391,262.11 96.391,262.443 97.5,262.5C 99.7722,263.319 102.106,263.985 104.5,264.5C 105.167,265.5 105.833,266.5 106.5,267.5C 103.833,269.5 101.167,271.5 98.5,273.5C 97.5,273.5 96.5,273.5 95.5,273.5C 95.6308,270.633 94.2974,268.967 91.5,268.5C 92.2271,266.046 93.2271,263.713 94.5,261.5 Z"/></g>
<g><path style="opacity:1" fill="#8b6155" d="M 65.5,264.5 C 74.3238,264.774 82.9904,266.107 91.5,268.5C 94.2974,268.967 95.6308,270.633 95.5,273.5C 92.328,275.252 89.328,277.252 86.5,279.5C 83.8599,280.82 81.1932,282.153 78.5,283.5C 75.9506,281.444 74.4506,278.778 74,275.5C 72.8545,274.316 71.6879,274.316 70.5,275.5C 67.8333,273.5 65.5,271.167 63.5,268.5C 64.3446,267.329 65.0113,265.995 65.5,264.5 Z"/></g>
<g><path style="opacity:1" fill="#a66949" d="M 188.5,264.5 C 194.453,267.103 200.453,267.103 206.5,264.5C 213.241,265.328 219.908,265.661 226.5,265.5C 225.925,268.912 224.592,271.912 222.5,274.5C 222.389,273.883 222.056,273.383 221.5,273C 220,272.833 218.5,272.667 217,272.5C 210.017,274.159 203.017,275.826 196,277.5C 194.486,277.23 192.986,276.897 191.5,276.5C 189.098,278.049 186.432,278.716 183.5,278.5C 183.167,276.5 182.833,274.5 182.5,272.5C 178.351,273.08 174.684,272.414 171.5,270.5C 171.842,269.662 172.508,269.328 173.5,269.5C 177.633,268.102 181.966,267.269 186.5,267C 187.381,266.292 188.047,265.458 188.5,264.5 Z"/></g>
<g><path style="opacity:1" fill="#302328" d="M -0.5,258.5 C 0.483418,262.298 0.816751,266.298 0.5,270.5C 5.90108,268.309 11.5677,266.642 17.5,265.5C 18.5137,266.674 19.847,267.34 21.5,267.5C 21.6621,269.527 21.4955,271.527 21,273.5C 19.2817,275.897 18.1151,278.564 17.5,281.5C 13.7416,282.686 10.075,284.019 6.5,285.5C 4.58533,285.216 2.91866,285.549 1.5,286.5C 0.833333,284.833 0.166667,283.167 -0.5,281.5C -0.5,273.833 -0.5,266.167 -0.5,258.5 Z"/></g>
<g><path style="opacity:1" fill="#6f5756" d="M 59.5,275.5 C 55.2446,277.32 50.9113,277.653 46.5,276.5C 45.9023,274.198 45.5689,272.198 45.5,270.5C 52.2806,265.881 56.9473,267.548 59.5,275.5 Z"/></g>
<g><path style="opacity:1" fill="#1e1918" d="M 106.5,267.5 C 107.71,267.932 108.71,268.599 109.5,269.5C 109.5,272.167 109.5,274.833 109.5,277.5C 107.527,280.139 105.194,282.473 102.5,284.5C 99.22,281.595 97.8867,277.929 98.5,273.5C 101.167,271.5 103.833,269.5 106.5,267.5 Z"/></g>
<g><path style="opacity:1" fill="#a97044" d="M 125.5,268.5 C 126.5,269.167 127.5,269.833 128.5,270.5C 127.923,273.645 125.923,275.145 122.5,275C 121.978,275.561 121.645,276.228 121.5,277C 122.761,278.962 124.428,280.462 126.5,281.5C 125.5,282.167 124.5,282.833 123.5,283.5C 121.5,283.5 119.5,283.5 117.5,283.5C 117.167,283.5 116.833,283.5 116.5,283.5C 116.586,282.504 116.252,281.671 115.5,281C 113.113,280.436 111.113,279.27 109.5,277.5C 109.5,274.833 109.5,272.167 109.5,269.5C 115.117,273.698 120.45,273.364 125.5,268.5 Z"/></g>
<g><path style="opacity:1" fill="#d79456" d="M 149.5,266.5 C 149.5,268.833 149.5,271.167 149.5,273.5C 148.503,273.47 147.836,273.97 147.5,275C 148.869,277.609 148.203,279.609 145.5,281C 139.175,281.5 132.842,281.666 126.5,281.5C 124.428,280.462 122.761,278.962 121.5,277C 121.645,276.228 121.978,275.561 122.5,275C 125.923,275.145 127.923,273.645 128.5,270.5C 134.191,270.98 139.858,271.646 145.5,272.5C 145.5,270.5 145.5,268.5 145.5,266.5C 146.833,266.5 148.167,266.5 149.5,266.5 Z"/></g>
<g><path style="opacity:1" fill="#c78356" d="M 171.5,270.5 C 174.684,272.414 178.351,273.08 182.5,272.5C 182.833,274.5 183.167,276.5 183.5,278.5C 183.489,280.017 182.823,281.184 181.5,282C 179.389,282.845 177.389,283.678 175.5,284.5C 173.167,284.5 170.833,284.5 168.5,284.5C 165.728,283.233 163.061,283.233 160.5,284.5C 159.167,283.167 157.833,281.833 156.5,280.5C 154.567,278.428 154.567,276.095 156.5,273.5C 156.611,272.883 156.944,272.383 157.5,272C 162.137,271.171 166.804,270.671 171.5,270.5 Z"/></g>
<g><path style="opacity:1" fill="#17161d" d="M 265.5,243.5 C 269.766,245.454 273.433,248.121 276.5,251.5C 276.5,271.5 276.5,291.5 276.5,311.5C 275.5,311.5 274.5,311.5 273.5,311.5C 273.843,309.517 273.176,308.183 271.5,307.5C 269.109,305.385 267.776,302.719 267.5,299.5C 270.119,299.768 272.619,299.435 275,298.5C 275.777,293.778 275.61,289.111 274.5,284.5C 272.854,283.34 271.021,282.673 269,282.5C 266.371,284.291 263.871,286.291 261.5,288.5C 259.5,288.5 257.5,288.5 255.5,288.5C 249.691,284.068 250.358,281.068 257.5,279.5C 258.822,279.67 259.989,279.337 261,278.5C 261.741,275.438 261.575,272.438 260.5,269.5C 260.855,268.478 261.522,267.811 262.5,267.5C 264.481,269.144 266.481,270.81 268.5,272.5C 270.444,271.811 272.444,271.311 274.5,271C 279.264,258.757 275.264,253.59 262.5,255.5C 262.308,251.098 263.308,247.098 265.5,243.5 Z"/></g>
<g><path style="opacity:1" fill="#8e5d4a" d="M 222.5,274.5 C 221.314,276.874 221.314,279.208 222.5,281.5C 222.056,283.113 221.056,284.28 219.5,285C 215.189,285.225 211.022,286.058 207,287.5C 205.016,287.259 203.183,286.592 201.5,285.5C 195.079,286.01 188.745,286.343 182.5,286.5C 179.731,286.471 177.397,285.805 175.5,284.5C 177.389,283.678 179.389,282.845 181.5,282C 182.823,281.184 183.489,280.017 183.5,278.5C 186.432,278.716 189.098,278.049 191.5,276.5C 192.986,276.897 194.486,277.23 196,277.5C 203.017,275.826 210.017,274.159 217,272.5C 218.5,272.667 220,272.833 221.5,273C 222.056,273.383 222.389,273.883 222.5,274.5 Z"/></g>
<g><path style="opacity:1" fill="#241924" d="M 95.5,273.5 C 96.5,273.5 97.5,273.5 98.5,273.5C 97.8867,277.929 99.22,281.595 102.5,284.5C 99.5063,287 96.173,289 92.5,290.5C 91.254,286.434 89.254,282.768 86.5,279.5C 89.328,277.252 92.328,275.252 95.5,273.5 Z"/></g>
<g><path style="opacity:1" fill="#44404d" d="M 45.5,270.5 C 45.5689,272.198 45.9023,274.198 46.5,276.5C 50.9113,277.653 55.2446,277.32 59.5,275.5C 61.4903,276.934 63.157,278.768 64.5,281C 71.1381,283.526 73.1381,281.692 70.5,275.5C 71.6879,274.316 72.8545,274.316 74,275.5C 74.4506,278.778 75.9506,281.444 78.5,283.5C 76.9106,285.306 74.9106,286.639 72.5,287.5C 60.1983,283.621 47.865,279.954 35.5,276.5C 35.5,275.833 35.5,275.167 35.5,274.5C 38.6142,272.609 41.9475,271.276 45.5,270.5 Z"/></g>
<g><path style="opacity:1" fill="#18191e" d="M 35.5,276.5 C 47.865,279.954 60.1983,283.621 72.5,287.5C 74.9106,286.639 76.9106,285.306 78.5,283.5C 81.1932,282.153 83.8599,280.82 86.5,279.5C 89.254,282.768 91.254,286.434 92.5,290.5C 90.6508,291.593 88.9842,292.926 87.5,294.5C 84.5,296.5 81.5,298.5 78.5,300.5C 77.5837,300.982 76.5837,301.315 75.5,301.5C 59.2435,296.692 42.9102,292.192 26.5,288C 25.3781,284.591 25.2114,281.091 26,277.5C 29.289,276.84 32.4557,276.507 35.5,276.5 Z"/></g>
<g><path style="opacity:1" fill="#9b694f" d="M 156.5,273.5 C 154.567,276.095 154.567,278.428 156.5,280.5C 154.297,281.052 153.464,282.385 154,284.5C 157,288.5 160,292.5 163,296.5C 163.273,298.101 163.773,299.601 164.5,301C 156.645,303.464 148.645,305.297 140.5,306.5C 140.5,302.833 140.5,299.167 140.5,295.5C 139.167,295.5 137.833,295.5 136.5,295.5C 130.319,293.658 125.986,289.658 123.5,283.5C 124.5,282.833 125.5,282.167 126.5,281.5C 132.842,281.666 139.175,281.5 145.5,281C 148.203,279.609 148.869,277.609 147.5,275C 147.836,273.97 148.503,273.47 149.5,273.5C 152.041,273.15 154.374,273.15 156.5,273.5 Z"/></g>
<g><path style="opacity:1" fill="#503e37" d="M 231.5,278.5 C 235.329,280.164 239.329,281.331 243.5,282C 244.056,282.383 244.389,282.883 244.5,283.5C 244.068,284.71 243.401,285.71 242.5,286.5C 237.968,285.895 233.968,284.228 230.5,281.5C 230.557,280.391 230.89,279.391 231.5,278.5 Z"/></g>
<g><path style="opacity:1" fill="#6e4f48" d="M 156.5,280.5 C 157.833,281.833 159.167,283.167 160.5,284.5C 160.738,286.645 161.738,288.312 163.5,289.5C 165.437,288.046 167.103,286.379 168.5,284.5C 170.833,284.5 173.167,284.5 175.5,284.5C 177.397,285.805 179.731,286.471 182.5,286.5C 188.745,286.343 195.079,286.01 201.5,285.5C 203.183,286.592 205.016,287.259 207,287.5C 211.022,286.058 215.189,285.225 219.5,285C 221.056,284.28 222.056,283.113 222.5,281.5C 223.167,281.5 223.833,281.5 224.5,281.5C 226.291,283.836 228.291,283.836 230.5,281.5C 233.968,284.228 237.968,285.895 242.5,286.5C 243.308,289.45 244.642,292.117 246.5,294.5C 245.739,295.391 244.739,296.058 243.5,296.5C 240.868,295.56 238.202,295.393 235.5,296C 231.399,298.314 227.066,300.147 222.5,301.5C 220.698,303.958 219.365,306.625 218.5,309.5C 204.181,310.298 189.848,310.631 175.5,310.5C 173.907,307.644 172.573,304.644 171.5,301.5C 167.526,299.822 165.526,301.156 165.5,305.5C 166.5,305.5 167.5,305.5 168.5,305.5C 168.5,307.167 168.5,308.833 168.5,310.5C 157.087,310.886 145.754,310.219 134.5,308.5C 136.245,304.15 136.912,299.816 136.5,295.5C 137.833,295.5 139.167,295.5 140.5,295.5C 140.5,299.167 140.5,302.833 140.5,306.5C 148.645,305.297 156.645,303.464 164.5,301C 163.773,299.601 163.273,298.101 163,296.5C 160,292.5 157,288.5 154,284.5C 153.464,282.385 154.297,281.052 156.5,280.5 Z"/></g>
<g><path style="opacity:1" fill="#211f29" d="M 238.5,248.5 C 239.833,249.167 241.167,249.833 242.5,250.5C 241,253.657 240,256.991 239.5,260.5C 238.387,261.946 238.22,263.613 239,265.5C 245.677,269.702 251.844,274.368 257.5,279.5C 250.358,281.068 249.691,284.068 255.5,288.5C 256.455,293.489 259.455,296.489 264.5,297.5C 264.871,293.997 263.871,290.997 261.5,288.5C 263.871,286.291 266.371,284.291 269,282.5C 271.021,282.673 272.854,283.34 274.5,284.5C 275.61,289.111 275.777,293.778 275,298.5C 272.619,299.435 270.119,299.768 267.5,299.5C 267.776,302.719 269.109,305.385 271.5,307.5C 268.76,309.603 265.76,310.27 262.5,309.5C 262.703,307.61 262.037,306.11 260.5,305C 258.112,303.139 255.446,301.806 252.5,301C 251.055,298.243 249.055,296.076 246.5,294.5C 244.642,292.117 243.308,289.45 242.5,286.5C 243.401,285.71 244.068,284.71 244.5,283.5C 246.344,282.796 246.844,281.463 246,279.5C 243.113,276.613 240.279,273.779 237.5,271C 236.216,270.316 235.049,270.483 234,271.5C 232.864,273.743 232.03,276.076 231.5,278.5C 230.89,279.391 230.557,280.391 230.5,281.5C 228.291,283.836 226.291,283.836 224.5,281.5C 228.93,270.316 233.597,259.316 238.5,248.5 Z"/></g>
<g><path style="opacity:1" fill="#7d5548" d="M 244.5,283.5 C 244.389,282.883 244.056,282.383 243.5,282C 239.329,281.331 235.329,280.164 231.5,278.5C 232.03,276.076 232.864,273.743 234,271.5C 235.049,270.483 236.216,270.316 237.5,271C 240.279,273.779 243.113,276.613 246,279.5C 246.844,281.463 246.344,282.796 244.5,283.5 Z"/></g>
<g><path style="opacity:1" fill="#644338" d="M 109.5,277.5 C 111.113,279.27 113.113,280.436 115.5,281C 116.252,281.671 116.586,282.504 116.5,283.5C 115.448,283.351 114.448,283.517 113.5,284C 106.284,289.432 98.9504,294.599 91.5,299.5C 89.457,298.421 88.1237,296.754 87.5,294.5C 88.9842,292.926 90.6508,291.593 92.5,290.5C 96.173,289 99.5063,287 102.5,284.5C 105.194,282.473 107.527,280.139 109.5,277.5 Z"/></g>
<g><path style="opacity:1" fill="#885c4a" d="M 117.5,283.5 C 119.5,283.5 121.5,283.5 123.5,283.5C 125.986,289.658 130.319,293.658 136.5,295.5C 136.912,299.816 136.245,304.15 134.5,308.5C 126.143,310.468 117.643,310.802 109,309.5C 107.393,304.16 108.726,299.827 113,296.5C 114.963,292.306 116.463,287.972 117.5,283.5 Z"/></g>
<g><path style="opacity:1" fill="#9b6a50" d="M 168.5,284.5 C 167.103,286.379 165.437,288.046 163.5,289.5C 161.738,288.312 160.738,286.645 160.5,284.5C 163.061,283.233 165.728,283.233 168.5,284.5 Z"/></g>
<g><path style="opacity:1" fill="#181218" d="M 6.5,285.5 C 12.8825,288.886 19.5491,291.719 26.5,294C 38.2115,297.178 49.8782,300.511 61.5,304C 64.1459,304.804 66.1459,306.304 67.5,308.5C 59.6718,309.656 51.6718,310.156 43.5,310C 30.521,305.396 17.521,300.896 4.5,296.5C 3.44606,296.68 2.44606,297.013 1.5,297.5C 0.537047,297.03 0.537047,296.363 1.5,295.5C 1.5,292.5 1.5,289.5 1.5,286.5C 2.91866,285.549 4.58533,285.216 6.5,285.5 Z"/></g>
<g><path style="opacity:1" fill="#8b715e" d="M -0.5,281.5 C 0.166667,283.167 0.833333,284.833 1.5,286.5C 1.5,289.5 1.5,292.5 1.5,295.5C 0.833333,295.5 0.166667,295.5 -0.5,295.5C -0.5,290.833 -0.5,286.167 -0.5,281.5 Z"/></g>
<g><path style="opacity:1" fill="#433237" d="M 255.5,288.5 C 257.5,288.5 259.5,288.5 261.5,288.5C 263.871,290.997 264.871,293.997 264.5,297.5C 259.455,296.489 256.455,293.489 255.5,288.5 Z"/></g>
<g><path style="opacity:1" fill="#231d26" d="M 30.5,266.5 C 29.9717,267.847 29.805,269.181 30,270.5C 31.7742,271.965 33.6075,273.298 35.5,274.5C 35.5,275.167 35.5,275.833 35.5,276.5C 32.4557,276.507 29.289,276.84 26,277.5C 25.2114,281.091 25.3781,284.591 26.5,288C 42.9102,292.192 59.2435,296.692 75.5,301.5C 76.5837,301.315 77.5837,300.982 78.5,300.5C 79.604,302.389 80.9373,304.055 82.5,305.5C 81.657,307.173 80.3237,308.34 78.5,309C 74.7789,309.678 71.1122,309.511 67.5,308.5C 66.1459,306.304 64.1459,304.804 61.5,304C 49.8782,300.511 38.2115,297.178 26.5,294C 19.5491,291.719 12.8825,288.886 6.5,285.5C 10.075,284.019 13.7416,282.686 17.5,281.5C 18.1151,278.564 19.2817,275.897 21,273.5C 21.4955,271.527 21.6621,269.527 21.5,267.5C 24.4552,266.841 27.4552,266.508 30.5,266.5 Z"/></g>
<g><path style="opacity:1" fill="#3d3231" d="M 87.5,294.5 C 88.1237,296.754 89.457,298.421 91.5,299.5C 88.6803,301.745 85.6803,303.745 82.5,305.5C 80.9373,304.055 79.604,302.389 78.5,300.5C 81.5,298.5 84.5,296.5 87.5,294.5 Z"/></g>
<g><path style="opacity:1" fill="#4a383d" d="M 246.5,294.5 C 249.055,296.076 251.055,298.243 252.5,301C 255.446,301.806 258.112,303.139 260.5,305C 262.037,306.11 262.703,307.61 262.5,309.5C 247.792,309.152 233.125,309.152 218.5,309.5C 219.365,306.625 220.698,303.958 222.5,301.5C 227.066,300.147 231.399,298.314 235.5,296C 238.202,295.393 240.868,295.56 243.5,296.5C 244.739,296.058 245.739,295.391 246.5,294.5 Z"/></g>
<g><path style="opacity:1" fill="#231818" d="M 116.5,283.5 C 116.833,283.5 117.167,283.5 117.5,283.5C 116.463,287.972 114.963,292.306 113,296.5C 108.726,299.827 107.393,304.16 109,309.5C 117.643,310.802 126.143,310.468 134.5,308.5C 145.754,310.219 157.087,310.886 168.5,310.5C 170.833,310.5 173.167,310.5 175.5,310.5C 189.848,310.631 204.181,310.298 218.5,309.5C 233.125,309.152 247.792,309.152 262.5,309.5C 265.76,310.27 268.76,309.603 271.5,307.5C 273.176,308.183 273.843,309.517 273.5,311.5C 182.167,311.5 90.8333,311.5 -0.5,311.5C -0.5,306.167 -0.5,300.833 -0.5,295.5C 0.166667,295.5 0.833333,295.5 1.5,295.5C 0.537047,296.363 0.537047,297.03 1.5,297.5C 2.44606,297.013 3.44606,296.68 4.5,296.5C 17.521,300.896 30.521,305.396 43.5,310C 51.6718,310.156 59.6718,309.656 67.5,308.5C 71.1122,309.511 74.7789,309.678 78.5,309C 80.3237,308.34 81.657,307.173 82.5,305.5C 85.6803,303.745 88.6803,301.745 91.5,299.5C 98.9504,294.599 106.284,289.432 113.5,284C 114.448,283.517 115.448,283.351 116.5,283.5 Z"/></g>
<g><path style="opacity:1" fill="#463333" d="M 175.5,310.5 C 173.167,310.5 170.833,310.5 168.5,310.5C 168.5,308.833 168.5,307.167 168.5,305.5C 167.5,305.5 166.5,305.5 165.5,305.5C 165.526,301.156 167.526,299.822 171.5,301.5C 172.573,304.644 173.907,307.644 175.5,310.5 Z"/></g>
</svg>
