<?xml version="1.0" encoding="UTF-8"?>
<!DOCTYPE svg PUBLIC "-//W3C//DTD SVG 1.1//EN" "http://www.w3.org/Graphics/SVG/1.1/DTD/svg11.dtd">
<svg xmlns="http://www.w3.org/2000/svg" version="1.1" width="277px" height="312px" style="shape-rendering:geometricPrecision; text-rendering:geometricPrecision; image-rendering:optimizeQuality; fill-rule:evenodd; clip-rule:evenodd" xmlns:xlink="http://www.w3.org/1999/xlink">
<g><path style="opacity:1" fill="#05060c" d="M -0.5,-0.5 C 0.5,-0.5 1.5,-0.5 2.5,-0.5C 2.66661,17.8364 2.49994,36.1697 2,54.5C 1.2917,55.3805 0.458367,56.0472 -0.5,56.5C -0.5,37.5 -0.5,18.5 -0.5,-0.5 Z"/></g>
<g><path style="opacity:1" fill="#181f2b" d="M 2.5,-0.5 C 8.16667,-0.5 13.8333,-0.5 19.5,-0.5C 19.5,2.5 19.5,5.5 19.5,8.5C 17.4727,8.33788 15.4727,8.50454 13.5,9C 11.2728,11.5641 9.43943,14.3974 8,17.5C 8.00226,30.5166 8.33559,43.5166 9,56.5C 8.33333,63.1667 7.66667,69.8333 7,76.5C 6.54954,79.1059 5.04954,80.4392 2.5,80.5C 3.09219,77.3695 2.09219,75.0361 -0.5,73.5C -0.5,67.8333 -0.5,62.1667 -0.5,56.5C 0.458367,56.0472 1.2917,55.3805 2,54.5C 2.49994,36.1697 2.66661,17.8364 2.5,-0.5 Z"/></g>
<g><path style="opacity:1" fill="#385164" d="M 19.5,-0.5 C 24.8333,-0.5 30.1667,-0.5 35.5,-0.5C 36.2342,3.43711 35.5675,7.27044 33.5,11C 34.7452,16.1512 34.7452,21.3179 33.5,26.5C 33.38,29.6225 34.7133,31.6225 37.5,32.5C 37.477,34.9267 36.977,37.26 36,39.5C 34.1706,41.1558 32.8372,43.1558 32,45.5C 30.9327,63.8471 29.7661,82.1804 28.5,100.5C 26.5,100.833 24.5,101.167 22.5,101.5C 23.0919,95.8948 22.2585,90.5614 20,85.5C 19.5034,83.1902 19.3367,80.8568 19.5,78.5C 21.4109,78.4257 22.5776,77.4257 23,75.5C 23.7958,72.9615 23.6291,70.6282 22.5,68.5C 22.5,64.5 22.5,60.5 22.5,56.5C 21.5,56.5 20.5,56.5 19.5,56.5C 21.2322,44.8567 21.5655,33.1901 20.5,21.5C 21.4959,21.5858 22.3292,21.2524 23,20.5C 23.4966,18.1902 23.6633,15.8568 23.5,13.5C 22.1667,13.5 20.8333,13.5 19.5,13.5C 19.5,11.8333 19.5,10.1667 19.5,8.5C 19.5,5.5 19.5,2.5 19.5,-0.5 Z"/></g>
<g><path style="opacity:1" fill="#385763" d="M 40.5,-0.5 C 48.8333,-0.5 57.1667,-0.5 65.5,-0.5C 64.5346,13.2339 64.5346,26.9006 65.5,40.5C 61.8253,40.3004 58.1586,39.9671 54.5,39.5C 54.0235,35.8009 53.6901,32.1342 53.5,28.5C 54.2178,26.8632 54.3845,25.1966 54,23.5C 48.6791,18.3453 43.5124,13.012 38.5,7.5C 39.7468,5.95787 39.7468,4.45787 38.5,3C 39.8228,2.18405 40.4894,1.01739 40.5,-0.5 Z"/></g>
<g><path style="opacity:1" fill="#25383e" d="M 65.5,-0.5 C 71.8333,-0.5 78.1667,-0.5 84.5,-0.5C 84.5674,0.95875 84.2341,2.29208 83.5,3.5C 82.8902,4.39105 82.5569,5.39105 82.5,6.5C 77.8492,7.23953 76.3492,9.90619 78,14.5C 78.6708,15.2524 79.5041,15.5858 80.5,15.5C 79.4766,17.5769 79.81,19.5769 81.5,21.5C 79.9353,24.1904 79.2687,27.1904 79.5,30.5C 79.3148,34.1411 79.9814,37.4744 81.5,40.5C 81.5,41.1667 81.5,41.8333 81.5,42.5C 79.5953,43.4642 78.5953,45.1309 78.5,47.5C 78.8866,52.0934 78.8866,56.7601 78.5,61.5C 80.5138,61.6085 82.1805,60.9418 83.5,59.5C 84.7095,59.9321 85.7095,60.5987 86.5,61.5C 86.5,61.8333 86.5,62.1667 86.5,62.5C 86.5,66.8333 86.5,71.1667 86.5,75.5C 86.5,86.1667 86.5,96.8333 86.5,107.5C 85.8333,107.5 85.5,107.833 85.5,108.5C 78.6296,116.75 75.6296,126.416 76.5,137.5C 75.0337,138.347 74.2004,139.68 74,141.5C 73.3333,146.5 73.3333,151.5 74,156.5C 77.9186,158.116 80.4186,156.783 81.5,152.5C 82.1667,152.167 82.8333,151.833 83.5,151.5C 85.3535,154.708 87.3535,157.708 89.5,160.5C 89.8468,164.874 91.1801,168.874 93.5,172.5C 92.5213,177.892 94.8546,181.226 100.5,182.5C 102.118,184.316 104.118,185.649 106.5,186.5C 111.337,192.758 117.671,196.758 125.5,198.5C 123.532,202.374 124.532,205.04 128.5,206.5C 129.11,207.391 129.443,208.391 129.5,209.5C 128.185,210.667 127.519,212.167 127.5,214C 128.159,216.462 128.493,218.962 128.5,221.5C 128.167,221.5 127.833,221.5 127.5,221.5C 125.167,221.5 122.833,221.5 120.5,221.5C 116.922,220.708 113.588,219.375 110.5,217.5C 108.223,214.924 105.389,212.924 102,211.5C 98.9288,212.106 96.7621,213.772 95.5,216.5C 93.5786,215.637 91.5786,214.971 89.5,214.5C 88.171,212.198 86.8377,209.864 85.5,207.5C 81.5253,208.299 79.192,210.632 78.5,214.5C 77.8333,214.5 77.1667,214.5 76.5,214.5C 73.9214,214.606 71.588,213.939 69.5,212.5C 66.4068,208.417 63.5734,208.75 61,213.5C 59.2663,212.751 57.433,212.251 55.5,212C 53.3229,209.656 50.9896,207.489 48.5,205.5C 48.5106,203.983 49.1772,202.816 50.5,202C 48.2471,200.288 46.5804,198.121 45.5,195.5C 44.2638,194.754 42.9305,194.421 41.5,194.5C 41.7845,196.415 41.4511,198.081 40.5,199.5C 36.3026,195.106 33.6359,189.772 32.5,183.5C 35.6215,181.552 38.6215,179.385 41.5,177C 44.7204,176.284 47.7204,175.117 50.5,173.5C 52.4745,169.692 55.3078,166.692 59,164.5C 60.2525,161.986 60.7525,159.32 60.5,156.5C 60.7214,153.721 60.388,151.054 59.5,148.5C 60.8863,146.062 60.553,143.729 58.5,141.5C 61.2356,133.136 62.5689,124.469 62.5,115.5C 63.7335,105.562 64.4002,95.5624 64.5,85.5C 64.6968,79.4549 64.3635,73.4549 63.5,67.5C 64.1667,58.5 64.8333,49.5 65.5,40.5C 64.5346,26.9006 64.5346,13.2339 65.5,-0.5 Z"/></g>
<g><path style="opacity:1" fill="#426977" d="M 84.5,-0.5 C 96.5,-0.5 108.5,-0.5 120.5,-0.5C 120.889,4.50402 121.389,9.50402 122,14.5C 126.501,17.6337 128.834,21.967 129,27.5C 131.849,29.3095 135.015,30.3095 138.5,30.5C 138.82,33.8984 138.487,37.2317 137.5,40.5C 134.509,38.9863 131.509,38.653 128.5,39.5C 125.272,36.931 123.272,33.5977 122.5,29.5C 120.097,29.607 118.264,28.607 117,26.5C 115.184,21.3753 113.184,16.3753 111,11.5C 109.019,9.34253 106.686,7.67587 104,6.5C 101.913,7.79384 99.7463,8.96051 97.5,10C 95.1758,13.323 92.5092,16.323 89.5,19C 88.2068,19.49 86.8734,19.6567 85.5,19.5C 86.6662,14.503 86.6662,9.50295 85.5,4.5C 84.8165,4.13727 84.1499,3.80393 83.5,3.5C 84.2341,2.29208 84.5674,0.95875 84.5,-0.5 Z"/></g>
<g><path style="opacity:1" fill="#c1e7e9" d="M 129.5,-0.5 C 133.833,-0.5 138.167,-0.5 142.5,-0.5C 142.116,2.76926 140.782,5.60259 138.5,8C 143.878,13.2741 147.378,12.1075 149,4.5C 150.011,3.66337 151.178,3.33003 152.5,3.5C 155.523,3.64328 158.857,3.64328 162.5,3.5C 163.103,5.45232 162.77,7.45232 161.5,9.5C 156.389,8.91003 152.722,10.91 150.5,15.5C 152.157,18.498 154.49,20.8313 157.5,22.5C 156.606,25.545 154.606,27.2116 151.5,27.5C 150.022,27.762 148.689,27.4287 147.5,26.5C 146.752,24.6675 145.752,23.0009 144.5,21.5C 142.466,22.5588 140.466,23.5588 138.5,24.5C 136.819,21.418 136.152,18.0847 136.5,14.5C 132.808,14.3048 130.974,12.3048 131,8.5C 129.478,6.97823 127.978,5.47823 126.5,4C 127.315,2.35659 128.315,0.856588 129.5,-0.5 Z"/></g>
<g><path style="opacity:1" fill="#5d8f9b" d="M 142.5,-0.5 C 145.5,-0.5 148.5,-0.5 151.5,-0.5C 151.433,0.95875 151.766,2.29208 152.5,3.5C 151.178,3.33003 150.011,3.66337 149,4.5C 147.378,12.1075 143.878,13.2741 138.5,8C 140.782,5.60259 142.116,2.76926 142.5,-0.5 Z"/></g>
<g><path style="opacity:1" fill="#4b717e" d="M 151.5,-0.5 C 159.5,-0.5 167.5,-0.5 175.5,-0.5C 179.543,2.7293 183.543,6.2293 187.5,10C 189.653,10.0995 191.319,10.9328 192.5,12.5C 192.253,15.9387 192.586,19.272 193.5,22.5C 193.5,22.8333 193.5,23.1667 193.5,23.5C 193.5,46.5 193.5,69.5 193.5,92.5C 191.167,91.8333 188.833,91.1667 186.5,90.5C 186.904,66.4712 186.404,42.4712 185,18.5C 183.951,17.4829 182.784,17.3162 181.5,18C 178.552,19.2373 175.885,20.7373 173.5,22.5C 168.348,23.531 163.015,23.531 157.5,22.5C 154.49,20.8313 152.157,18.498 150.5,15.5C 152.722,10.91 156.389,8.91003 161.5,9.5C 163.527,9.66212 165.527,9.49546 167.5,9C 169.592,8.04746 169.925,6.71413 168.5,5C 166.482,4.49543 164.482,3.99543 162.5,3.5C 158.857,3.64328 155.523,3.64328 152.5,3.5C 151.766,2.29208 151.433,0.95875 151.5,-0.5 Z"/></g>
<g><path style="opacity:1" fill="#3a596b" d="M 175.5,-0.5 C 187.5,-0.5 199.5,-0.5 211.5,-0.5C 211.5,1.16667 211.5,2.83333 211.5,4.5C 209.194,4.99255 206.861,5.32588 204.5,5.5C 201.683,4.09611 198.683,3.26278 195.5,3C 193.709,5.10618 193.042,7.60618 193.5,10.5C 193.672,11.4916 193.338,12.1583 192.5,12.5C 191.319,10.9328 189.653,10.0995 187.5,10C 183.543,6.2293 179.543,2.7293 175.5,-0.5 Z"/></g>
<g><path style="opacity:1" fill="#24313d" d="M 211.5,-0.5 C 217.5,-0.5 223.5,-0.5 229.5,-0.5C 229.337,4.547 229.671,9.547 230.5,14.5C 232.921,14.1218 235.254,13.4552 237.5,12.5C 237.328,13.4916 237.662,14.1583 238.5,14.5C 238.5,17.5 238.5,20.5 238.5,23.5C 238.763,27.6002 238.43,31.6002 237.5,35.5C 234.419,39.1781 235.086,41.8447 239.5,43.5C 239.833,43.5 240.167,43.5 240.5,43.5C 241.38,45.6112 241.38,47.6112 240.5,49.5C 236.748,51.7943 235.581,55.1277 237,59.5C 238.828,60.7525 240.661,60.7525 242.5,59.5C 242.5,59.8333 242.5,60.1667 242.5,60.5C 242.483,62.5648 242.15,64.5648 241.5,66.5C 242.369,68.717 242.702,71.0504 242.5,73.5C 240.983,73.5106 239.816,74.1772 239,75.5C 238.023,77.74 237.523,80.0733 237.5,82.5C 238.821,87.0577 239.654,91.7243 240,96.5C 240.816,97.8228 241.983,98.4894 243.5,98.5C 243.5,98.8333 243.5,99.1667 243.5,99.5C 242.79,101.893 242.123,104.393 241.5,107C 242.489,109.158 244.156,110.325 246.5,110.5C 247.45,114.542 247.45,118.542 246.5,122.5C 245.307,122.97 244.64,123.97 244.5,125.5C 244.936,128.179 245.436,130.845 246,133.5C 246.422,135.426 247.589,136.426 249.5,136.5C 251.412,138.657 253.079,140.991 254.5,143.5C 255.5,148.508 258.5,150.842 263.5,150.5C 268.199,150.079 272.532,148.746 276.5,146.5C 276.5,153.833 276.5,161.167 276.5,168.5C 275.027,167.929 273.36,167.929 271.5,168.5C 269.922,162.528 266.922,161.528 262.5,165.5C 257.636,162.12 252.636,161.786 247.5,164.5C 246.078,164.25 245.078,163.417 244.5,162C 243.167,161.333 241.833,161.333 240.5,162C 237.256,167.231 236.756,172.731 239,178.5C 241.664,179.998 243.83,181.998 245.5,184.5C 243.493,186.837 240.827,188.171 237.5,188.5C 232.478,187.149 227.478,187.315 222.5,189C 219.838,191.985 216.838,194.485 213.5,196.5C 211.833,196.5 210.167,196.5 208.5,196.5C 206.418,196.528 204.584,195.861 203,194.5C 201.853,195.458 200.853,195.125 200,193.5C 198.197,186.632 200.697,182.132 207.5,180C 206.027,177.552 204.693,175.052 203.5,172.5C 214.317,169.33 219.983,161.996 220.5,150.5C 221.405,149.036 221.405,147.702 220.5,146.5C 221.496,146.586 222.329,146.252 223,145.5C 223.789,143.288 223.622,141.288 222.5,139.5C 223.468,132.145 223.468,124.812 222.5,117.5C 222.5,114.5 222.5,111.5 222.5,108.5C 221.699,106.958 221.366,105.292 221.5,103.5C 221.384,100.14 221.051,96.8067 220.5,93.5C 220.821,87.9738 220.488,82.6405 219.5,77.5C 219.27,69.4262 219.27,61.4262 219.5,53.5C 218.9,48.2777 217.567,43.2777 215.5,38.5C 216.222,38.0825 216.722,37.4158 217,36.5C 217.499,31.8452 217.666,27.1785 217.5,22.5C 216.833,20.5 216.167,18.5 215.5,16.5C 215.665,13.1501 215.498,9.81677 215,6.5C 214.29,5.02674 213.124,4.36007 211.5,4.5C 211.5,2.83333 211.5,1.16667 211.5,-0.5 Z"/></g>
<g><path style="opacity:1" fill="#37444a" d="M 229.5,-0.5 C 231.833,-0.5 234.167,-0.5 236.5,-0.5C 236.927,3.82444 237.261,8.15777 237.5,12.5C 235.254,13.4552 232.921,14.1218 230.5,14.5C 229.671,9.547 229.337,4.547 229.5,-0.5 Z"/></g>
<g><path style="opacity:1" fill="#c7edf2" d="M 236.5,-0.5 C 239.833,-0.5 243.167,-0.5 246.5,-0.5C 247.991,4.46566 249.325,9.46566 250.5,14.5C 246.189,15.5105 242.189,15.5105 238.5,14.5C 237.662,14.1583 237.328,13.4916 237.5,12.5C 237.261,8.15777 236.927,3.82444 236.5,-0.5 Z"/></g>
<g><path style="opacity:1" fill="#3e5d70" d="M 246.5,-0.5 C 250.833,-0.5 255.167,-0.5 259.5,-0.5C 259.374,10.4994 259.041,21.4994 258.5,32.5C 259.214,43.1227 259.88,53.7894 260.5,64.5C 260.334,70.1764 260.501,75.8431 261,81.5C 261.513,82.5266 262.013,83.5266 262.5,84.5C 262.135,86.588 262.135,88.9213 262.5,91.5C 264.621,91.3253 266.621,91.6586 268.5,92.5C 267.163,100.167 265.663,107.834 264,115.5C 260.857,119.313 257.691,123.147 254.5,127C 255.46,131.741 257.46,135.907 260.5,139.5C 258.537,140.82 256.537,142.154 254.5,143.5C 253.079,140.991 251.412,138.657 249.5,136.5C 251.015,131.358 250.015,126.691 246.5,122.5C 247.45,118.542 247.45,114.542 246.5,110.5C 246.37,106.475 245.37,102.809 243.5,99.5C 243.5,99.1667 243.5,98.8333 243.5,98.5C 244.117,98.3893 244.617,98.056 245,97.5C 245.495,95.5273 245.662,93.5273 245.5,91.5C 246.833,91.5 248.167,91.5 249.5,91.5C 249.666,84.4921 249.5,77.4921 249,70.5C 248.198,65.8505 245.698,64.5172 241.5,66.5C 242.15,64.5648 242.483,62.5648 242.5,60.5C 244.435,61.1495 246.435,61.4828 248.5,61.5C 248.666,57.4862 248.499,53.4862 248,49.5C 245.726,48.1888 243.56,48.1888 241.5,49.5C 241.167,49.5 240.833,49.5 240.5,49.5C 241.38,47.6112 241.38,45.6112 240.5,43.5C 243.862,43.9305 246.695,42.9305 249,40.5C 249.5,34.1754 249.666,27.8421 249.5,21.5C 249.674,19.139 250.007,16.8056 250.5,14.5C 249.325,9.46566 247.991,4.46566 246.5,-0.5 Z"/></g>
<g><path style="opacity:1" fill="#4b7082" d="M 264.5,-0.5 C 267.167,-0.5 269.833,-0.5 272.5,-0.5C 272.167,2.5 273.5,3.83333 276.5,3.5C 276.5,32.5 276.5,61.5 276.5,90.5C 273.833,91.1667 271.167,91.8333 268.5,92.5C 266.621,91.6586 264.621,91.3253 262.5,91.5C 262.135,88.9213 262.135,86.588 262.5,84.5C 264.124,84.6399 265.29,83.9733 266,82.5C 266.499,76.5092 266.666,70.5092 266.5,64.5C 266.5,53.8333 266.5,43.1667 266.5,32.5C 266.33,21.4663 265.664,10.4663 264.5,-0.5 Z"/></g>
<g><path style="opacity:1" fill="#82a8b4" d="M 272.5,-0.5 C 273.833,-0.5 275.167,-0.5 276.5,-0.5C 276.5,0.833333 276.5,2.16667 276.5,3.5C 273.5,3.83333 272.167,2.5 272.5,-0.5 Z"/></g>
<g><path style="opacity:1" fill="#7c7d69" d="M 83.5,3.5 C 84.1499,3.80393 84.8165,4.13727 85.5,4.5C 86.6662,9.50295 86.6662,14.503 85.5,19.5C 84.8333,20.1667 84.1667,20.8333 83.5,21.5C 82.8333,21.5 82.1667,21.5 81.5,21.5C 79.81,19.5769 79.4766,17.5769 80.5,15.5C 81.5778,12.5979 82.2444,9.59794 82.5,6.5C 82.5569,5.39105 82.8902,4.39105 83.5,3.5 Z"/></g>
<g><path style="opacity:1" fill="#88b5c0" d="M 162.5,3.5 C 164.482,3.99543 166.482,4.49543 168.5,5C 169.925,6.71413 169.592,8.04746 167.5,9C 165.527,9.49546 163.527,9.66212 161.5,9.5C 162.77,7.45232 163.103,5.45232 162.5,3.5 Z"/></g>
<g><path style="opacity:1" fill="#4b707c" d="M 211.5,4.5 C 213.124,4.36007 214.29,5.02674 215,6.5C 215.498,9.81677 215.665,13.1501 215.5,16.5C 210.135,14.4689 206.469,10.8022 204.5,5.5C 206.861,5.32588 209.194,4.99255 211.5,4.5 Z"/></g>
<g><path style="opacity:1" fill="#5f989e" d="M 120.5,-0.5 C 123.5,-0.5 126.5,-0.5 129.5,-0.5C 128.315,0.856588 127.315,2.35659 126.5,4C 127.978,5.47823 129.478,6.97823 131,8.5C 130.974,12.3048 132.808,14.3048 136.5,14.5C 136.152,18.0847 136.819,21.418 138.5,24.5C 138.062,24.4346 137.728,24.6012 137.5,25C 138.464,26.7255 139.131,28.5588 139.5,30.5C 139.167,30.5 138.833,30.5 138.5,30.5C 135.015,30.3095 131.849,29.3095 129,27.5C 128.834,21.967 126.501,17.6337 122,14.5C 121.389,9.50402 120.889,4.50402 120.5,-0.5 Z"/></g>
<g><path style="opacity:1" fill="#4a5150" d="M 82.5,6.5 C 82.2444,9.59794 81.5778,12.5979 80.5,15.5C 79.5041,15.5858 78.6708,15.2524 78,14.5C 76.3492,9.90619 77.8492,7.23953 82.5,6.5 Z"/></g>
<g><path style="opacity:1" fill="#325664" d="M 128.5,39.5 C 128.5,40.5 128.5,41.5 128.5,42.5C 127.041,46.2974 124.374,48.6307 120.5,49.5C 120.264,52.6085 120.597,55.6085 121.5,58.5C 120.5,59.1667 119.5,59.8333 118.5,60.5C 116.205,58.615 113.538,58.115 110.5,59C 109.5,61.3333 108.5,63.6667 107.5,66C 104.947,66.7611 102.447,67.5944 100,68.5C 99.5357,67.9056 99.369,67.2389 99.5,66.5C 101.033,64.3655 101.7,61.8655 101.5,59C 101.726,56.3291 101.059,53.9958 99.5,52C 98.8333,51.8333 98.1667,51.6667 97.5,51.5C 95.6297,52.8662 93.6297,54.0328 91.5,55C 89.9343,57.3256 88.2676,59.4922 86.5,61.5C 85.7095,60.5987 84.7095,59.9321 83.5,59.5C 85.1163,57.6875 86.1163,55.5208 86.5,53C 85.9461,50.1764 85.4461,47.343 85,44.5C 84.1841,43.1772 83.0174,42.5106 81.5,42.5C 81.5,41.8333 81.5,41.1667 81.5,40.5C 85.2568,39.5204 87.2568,37.0204 87.5,33C 87.1637,28.7441 85.8304,24.9108 83.5,21.5C 84.1667,20.8333 84.8333,20.1667 85.5,19.5C 86.8734,19.6567 88.2068,19.49 89.5,19C 92.5092,16.323 95.1758,13.323 97.5,10C 99.7463,8.96051 101.913,7.79384 104,6.5C 106.686,7.67587 109.019,9.34253 111,11.5C 113.184,16.3753 115.184,21.3753 117,26.5C 118.264,28.607 120.097,29.607 122.5,29.5C 123.272,33.5977 125.272,36.931 128.5,39.5 Z"/></g>
<g><path style="opacity:1" fill="#1f2b32" d="M 19.5,8.5 C 19.5,10.1667 19.5,11.8333 19.5,13.5C 19.1936,16.3854 19.5269,19.0521 20.5,21.5C 21.5655,33.1901 21.2322,44.8567 19.5,56.5C 18.5184,59.9619 18.185,63.6286 18.5,67.5C 16.977,71.3546 17.3104,75.0212 19.5,78.5C 19.3367,80.8568 19.5034,83.1902 20,85.5C 22.2585,90.5614 23.0919,95.8948 22.5,101.5C 21.6554,102.671 20.9887,104.005 20.5,105.5C 19.7412,109.477 19.0746,113.477 18.5,117.5C 17.5386,119.265 17.2053,121.265 17.5,123.5C 14.9053,121.567 12.572,121.567 10.5,123.5C 9.24231,113.871 8.24231,104.205 7.5,94.5C 5.92908,93.6906 4.26241,93.3573 2.5,93.5C 2.5,89.1667 2.5,84.8333 2.5,80.5C 5.04954,80.4392 6.54954,79.1059 7,76.5C 7.66667,69.8333 8.33333,63.1667 9,56.5C 8.33559,43.5166 8.00226,30.5166 8,17.5C 9.43943,14.3974 11.2728,11.5641 13.5,9C 15.4727,8.50454 17.4727,8.33788 19.5,8.5 Z"/></g>
<g><path style="opacity:1" fill="#4b7587" d="M 35.5,-0.5 C 37.1667,-0.5 38.8333,-0.5 40.5,-0.5C 40.4894,1.01739 39.8228,2.18405 38.5,3C 39.7468,4.45787 39.7468,5.95787 38.5,7.5C 43.5124,13.012 48.6791,18.3453 54,23.5C 54.3845,25.1966 54.2178,26.8632 53.5,28.5C 47.8749,28.6446 42.5416,29.9779 37.5,32.5C 34.7133,31.6225 33.38,29.6225 33.5,26.5C 34.7452,21.3179 34.7452,16.1512 33.5,11C 35.5675,7.27044 36.2342,3.43711 35.5,-0.5 Z"/></g>
<g><path style="opacity:1" fill="#6090a2" d="M 204.5,5.5 C 206.469,10.8022 210.135,14.4689 215.5,16.5C 216.167,18.5 216.833,20.5 217.5,22.5C 214.167,22.5 210.833,22.5 207.5,22.5C 206.026,21.5637 205.026,20.2303 204.5,18.5C 202.88,13.1766 199.214,10.5099 193.5,10.5C 193.042,7.60618 193.709,5.10618 195.5,3C 198.683,3.26278 201.683,4.09611 204.5,5.5 Z"/></g>
<g><path style="opacity:1" fill="#79aab7" d="M 193.5,10.5 C 199.214,10.5099 202.88,13.1766 204.5,18.5C 200.42,18.8419 196.754,20.1752 193.5,22.5C 192.586,19.272 192.253,15.9387 192.5,12.5C 193.338,12.1583 193.672,11.4916 193.5,10.5 Z"/></g>
<g><path style="opacity:1" fill="#51707c" d="M 19.5,13.5 C 20.8333,13.5 22.1667,13.5 23.5,13.5C 23.6633,15.8568 23.4966,18.1902 23,20.5C 22.3292,21.2524 21.4959,21.5858 20.5,21.5C 19.5269,19.0521 19.1936,16.3854 19.5,13.5 Z"/></g>
<g><path style="opacity:1" fill="#83bbc0" d="M 250.5,14.5 C 250.007,16.8056 249.674,19.139 249.5,21.5C 246.849,22.4897 244.183,23.4897 241.5,24.5C 240.416,24.315 239.416,23.9817 238.5,23.5C 238.5,20.5 238.5,17.5 238.5,14.5C 242.189,15.5105 246.189,15.5105 250.5,14.5 Z"/></g>
<g><path style="opacity:1" fill="#7aaab9" d="M 259.5,-0.5 C 261.167,-0.5 262.833,-0.5 264.5,-0.5C 265.664,10.4663 266.33,21.4663 266.5,32.5C 263.833,33.8333 261.167,33.8333 258.5,32.5C 259.041,21.4994 259.374,10.4994 259.5,-0.5 Z"/></g>
<g><path style="opacity:1" fill="#bae1e6" d="M 204.5,18.5 C 205.026,20.2303 206.026,21.5637 207.5,22.5C 207.049,24.7503 205.715,26.0836 203.5,26.5C 200.214,25.2454 196.88,24.2454 193.5,23.5C 193.5,23.1667 193.5,22.8333 193.5,22.5C 196.754,20.1752 200.42,18.8419 204.5,18.5 Z"/></g>
<g><path style="opacity:1" fill="#313e4a" d="M 81.5,21.5 C 82.1667,21.5 82.8333,21.5 83.5,21.5C 85.8304,24.9108 87.1637,28.7441 87.5,33C 87.2568,37.0204 85.2568,39.5204 81.5,40.5C 79.9814,37.4744 79.3148,34.1411 79.5,30.5C 79.2687,27.1904 79.9353,24.1904 81.5,21.5 Z"/></g>
<g><path style="opacity:1" fill="#76afba" d="M 151.5,27.5 C 151.906,30.2812 151.906,33.2812 151.5,36.5C 147.545,37.1375 144.878,35.6375 143.5,32C 142.255,31.2086 140.922,30.7086 139.5,30.5C 139.131,28.5588 138.464,26.7255 137.5,25C 137.728,24.6012 138.062,24.4346 138.5,24.5C 140.466,23.5588 142.466,22.5588 144.5,21.5C 145.752,23.0009 146.752,24.6675 147.5,26.5C 148.689,27.4287 150.022,27.762 151.5,27.5 Z"/></g>
<g><path style="opacity:1" fill="#578896" d="M 173.5,22.5 C 173.987,23.4734 174.487,24.4734 175,25.5C 175.5,37.8288 175.667,50.1622 175.5,62.5C 175.5,72.5 175.5,82.5 175.5,92.5C 175.92,97.5116 176.087,102.512 176,107.5C 175.558,111.25 173.724,112.25 170.5,110.5C 169.647,108.403 169.647,106.403 170.5,104.5C 169.768,101.803 168.934,99.1362 168,96.5C 166.506,95.2528 165.006,95.2528 163.5,96.5C 162.46,98.5229 161.46,100.523 160.5,102.5C 160.541,107.017 160.874,111.517 161.5,116C 158.423,120.079 156.423,124.579 155.5,129.5C 156.5,129.5 157.5,129.5 158.5,129.5C 158.483,131.565 158.15,133.565 157.5,135.5C 151,135.989 150,138.489 154.5,143C 150.985,146.348 147.652,149.848 144.5,153.5C 140.629,154.207 138.295,156.54 137.5,160.5C 133.698,158.601 129.698,157.267 125.5,156.5C 124.5,155.833 123.5,155.167 122.5,154.5C 120.056,149.746 116.39,146.079 111.5,143.5C 111.084,134.409 110.084,125.409 108.5,116.5C 110.418,106.578 111.251,96.5784 111,86.5C 110.044,85.4214 109.211,84.2547 108.5,83C 108.763,79.9416 108.93,76.7749 109,73.5C 111.282,68.4043 114.449,64.071 118.5,60.5C 119.5,59.8333 120.5,59.1667 121.5,58.5C 124.311,55.0074 127.811,54.0074 132,55.5C 134.6,55.0823 136.767,53.9156 138.5,52C 134.639,49.3039 131.306,46.1373 128.5,42.5C 128.5,41.5 128.5,40.5 128.5,39.5C 131.509,38.653 134.509,38.9863 137.5,40.5C 138.487,37.2317 138.82,33.8984 138.5,30.5C 138.833,30.5 139.167,30.5 139.5,30.5C 140.922,30.7086 142.255,31.2086 143.5,32C 144.878,35.6375 147.545,37.1375 151.5,36.5C 151.906,33.2812 151.906,30.2812 151.5,27.5C 154.606,27.2116 156.606,25.545 157.5,22.5C 163.015,23.531 168.348,23.531 173.5,22.5 Z"/></g>
<g><path style="opacity:1" fill="#648f9b" d="M 249.5,21.5 C 249.666,27.8421 249.5,34.1754 249,40.5C 246.695,42.9305 243.862,43.9305 240.5,43.5C 240.167,43.5 239.833,43.5 239.5,43.5C 240.036,40.3019 239.369,37.6353 237.5,35.5C 238.43,31.6002 238.763,27.6002 238.5,23.5C 239.416,23.9817 240.416,24.315 241.5,24.5C 244.183,23.4897 246.849,22.4897 249.5,21.5 Z"/></g>
<g><path style="opacity:1" fill="#70a8b4" d="M 207.5,22.5 C 210.833,22.5 214.167,22.5 217.5,22.5C 217.666,27.1785 217.499,31.8452 217,36.5C 216.722,37.4158 216.222,38.0825 215.5,38.5C 213.208,36.7329 210.542,35.7329 207.5,35.5C 207.981,39.2024 208.648,42.8691 209.5,46.5C 208.833,48.1667 208.167,49.8333 207.5,51.5C 208.531,52.7003 209.365,54.0337 210,55.5C 210.5,71.8299 210.667,88.1633 210.5,104.5C 208.5,105.833 206.5,105.833 204.5,104.5C 203.055,102.867 201.721,101.034 200.5,99C 195.102,99.9205 192.769,97.7538 193.5,92.5C 193.5,69.5 193.5,46.5 193.5,23.5C 196.88,24.2454 200.214,25.2454 203.5,26.5C 205.715,26.0836 207.049,24.7503 207.5,22.5 Z"/></g>
<g><path style="opacity:1" fill="#38576a" d="M 53.5,28.5 C 53.6901,32.1342 54.0235,35.8009 54.5,39.5C 51.4396,41.0886 48.2729,42.7553 45,44.5C 41.7424,50.7724 40.2424,57.4391 40.5,64.5C 40.1533,68.0958 40.82,71.4291 42.5,74.5C 40.0384,78.7505 38.7051,83.4171 38.5,88.5C 38.3379,90.5273 38.5045,92.5273 39,94.5C 41.5643,96.617 43.3976,99.2836 44.5,102.5C 45.4168,103.127 46.4168,103.461 47.5,103.5C 44.3539,108.369 43.3539,113.703 44.5,119.5C 43.3831,122.07 42.5497,124.737 42,127.5C 39.0259,129.425 36.1926,131.425 33.5,133.5C 31.31,134.374 30.31,136.041 30.5,138.5C 29.1667,138.5 27.8333,138.5 26.5,138.5C 25.7827,131.843 25.116,125.177 24.5,118.5C 24.9234,117.735 25.2568,116.902 25.5,116C 24.7963,112.872 24.2963,109.706 24,106.5C 22.9887,105.663 21.8221,105.33 20.5,105.5C 20.9887,104.005 21.6554,102.671 22.5,101.5C 24.5,101.167 26.5,100.833 28.5,100.5C 29.7661,82.1804 30.9327,63.8471 32,45.5C 32.8372,43.1558 34.1706,41.1558 36,39.5C 36.977,37.26 37.477,34.9267 37.5,32.5C 42.5416,29.9779 47.8749,28.6446 53.5,28.5 Z"/></g>
<g><path style="opacity:1" fill="#6a9cae" d="M 258.5,32.5 C 261.167,33.8333 263.833,33.8333 266.5,32.5C 266.5,43.1667 266.5,53.8333 266.5,64.5C 264.5,64.5 262.5,64.5 260.5,64.5C 259.88,53.7894 259.214,43.1227 258.5,32.5 Z"/></g>
<g><path style="opacity:1" fill="#637069" d="M 237.5,35.5 C 239.369,37.6353 240.036,40.3019 239.5,43.5C 235.086,41.8447 234.419,39.1781 237.5,35.5 Z"/></g>
<g><path style="opacity:1" fill="#426c7a" d="M 54.5,39.5 C 58.1586,39.9671 61.8253,40.3004 65.5,40.5C 64.8333,49.5 64.1667,58.5 63.5,67.5C 61.5168,66.2943 59.5168,64.961 57.5,63.5C 56.8076,64.0253 56.3076,64.6919 56,65.5C 55.8149,72.7466 55.3149,79.9133 54.5,87C 55.0253,87.6924 55.6919,88.1924 56.5,88.5C 59.0354,87.1 61.702,86.1 64.5,85.5C 64.4002,95.5624 63.7335,105.562 62.5,115.5C 61.1779,115.67 60.0113,115.337 59,114.5C 58.2004,111.133 57.0337,107.966 55.5,105C 52.9373,103.921 50.2706,103.421 47.5,103.5C 46.4168,103.461 45.4168,103.127 44.5,102.5C 43.3976,99.2836 41.5643,96.617 39,94.5C 38.5045,92.5273 38.3379,90.5273 38.5,88.5C 41.9981,89.9168 45.6648,90.5835 49.5,90.5C 49.6664,82.4931 49.4997,74.4931 49,66.5C 46.5185,64.6863 43.6852,64.0196 40.5,64.5C 40.2424,57.4391 41.7424,50.7724 45,44.5C 48.2729,42.7553 51.4396,41.0886 54.5,39.5 Z"/></g>
<g><path style="opacity:1" fill="#3e6475" d="M 128.5,42.5 C 131.306,46.1373 134.639,49.3039 138.5,52C 136.767,53.9156 134.6,55.0823 132,55.5C 127.811,54.0074 124.311,55.0074 121.5,58.5C 120.597,55.6085 120.264,52.6085 120.5,49.5C 124.374,48.6307 127.041,46.2974 128.5,42.5 Z"/></g>
<g><path style="opacity:1" fill="#5c889b" d="M 186.5,90.5 C 186.666,97.175 186.5,103.842 186,110.5C 185.617,111.056 185.117,111.389 184.5,111.5C 183.883,111.389 183.383,111.056 183,110.5C 182.444,104.165 181.944,97.8318 181.5,91.5C 181.5,81.5 181.5,71.5 181.5,61.5C 179.379,61.3253 177.379,61.6586 175.5,62.5C 175.667,50.1622 175.5,37.8288 175,25.5C 174.487,24.4734 173.987,23.4734 173.5,22.5C 175.885,20.7373 178.552,19.2373 181.5,18C 182.784,17.3162 183.951,17.4829 185,18.5C 186.404,42.4712 186.904,66.4712 186.5,90.5 Z"/></g>
<g><path style="opacity:1" fill="#86826e" d="M 81.5,42.5 C 83.0174,42.5106 84.1841,43.1772 85,44.5C 85.4461,47.343 85.9461,50.1764 86.5,53C 86.1163,55.5208 85.1163,57.6875 83.5,59.5C 82.1805,60.9418 80.5138,61.6085 78.5,61.5C 78.8866,56.7601 78.8866,52.0934 78.5,47.5C 78.5953,45.1309 79.5953,43.4642 81.5,42.5 Z"/></g>
<g><path style="opacity:1" fill="#7096a1" d="M 242.5,60.5 C 242.5,60.1667 242.5,59.8333 242.5,59.5C 241.586,56.272 241.253,52.9387 241.5,49.5C 243.56,48.1888 245.726,48.1888 248,49.5C 248.499,53.4862 248.666,57.4862 248.5,61.5C 246.435,61.4828 244.435,61.1495 242.5,60.5 Z"/></g>
<g><path style="opacity:1" fill="#434b4a" d="M 240.5,49.5 C 240.833,49.5 241.167,49.5 241.5,49.5C 241.253,52.9387 241.586,56.272 242.5,59.5C 240.661,60.7525 238.828,60.7525 237,59.5C 235.581,55.1277 236.748,51.7943 240.5,49.5 Z"/></g>
<g><path style="opacity:1" fill="#446a75" d="M 99.5,66.5 C 95.6545,63.7854 91.3212,62.4521 86.5,62.5C 86.5,62.1667 86.5,61.8333 86.5,61.5C 88.2676,59.4922 89.9343,57.3256 91.5,55C 93.6297,54.0328 95.6297,52.8662 97.5,51.5C 98.1667,51.6667 98.8333,51.8333 99.5,52C 101.059,53.9958 101.726,56.3291 101.5,59C 101.7,61.8655 101.033,64.3655 99.5,66.5 Z"/></g>
<g><path style="opacity:1" fill="#505d5c" d="M 19.5,56.5 C 20.5,56.5 21.5,56.5 22.5,56.5C 22.5,60.5 22.5,64.5 22.5,68.5C 21.0413,68.5674 19.7079,68.2341 18.5,67.5C 18.185,63.6286 18.5184,59.9619 19.5,56.5 Z"/></g>
<g><path style="opacity:1" fill="#58899c" d="M 215.5,38.5 C 217.567,43.2777 218.9,48.2777 219.5,53.5C 219.27,61.4262 219.27,69.4262 219.5,77.5C 218.167,77.5 216.833,77.5 215.5,77.5C 215.5,83.1667 215.5,88.8333 215.5,94.5C 217.216,94.3713 218.883,94.038 220.5,93.5C 221.051,96.8067 221.384,100.14 221.5,103.5C 219.559,103.869 217.725,104.536 216,105.5C 214.301,104.594 212.467,104.261 210.5,104.5C 210.667,88.1633 210.5,71.8299 210,55.5C 209.365,54.0337 208.531,52.7003 207.5,51.5C 208.167,49.8333 208.833,48.1667 209.5,46.5C 208.648,42.8691 207.981,39.2024 207.5,35.5C 210.542,35.7329 213.208,36.7329 215.5,38.5 Z"/></g>
<g><path style="opacity:1" fill="#4b707e" d="M 118.5,60.5 C 114.449,64.071 111.282,68.4043 109,73.5C 108.93,76.7749 108.763,79.9416 108.5,83C 109.211,84.2547 110.044,85.4214 111,86.5C 111.251,96.5784 110.418,106.578 108.5,116.5C 105.272,116.701 102.105,116.367 99,115.5C 95.1807,117.927 91.014,118.927 86.5,118.5C 86.7471,115.061 86.4137,111.728 85.5,108.5C 85.5,107.833 85.8333,107.5 86.5,107.5C 90.9883,110.2 95.1549,109.533 99,105.5C 100.546,94.5503 100.879,83.5503 100,72.5C 99.5,72 99,71.5 98.5,71C 94.4842,72.1115 90.4842,73.6115 86.5,75.5C 86.5,71.1667 86.5,66.8333 86.5,62.5C 91.3212,62.4521 95.6545,63.7854 99.5,66.5C 99.369,67.2389 99.5357,67.9056 100,68.5C 102.447,67.5944 104.947,66.7611 107.5,66C 108.5,63.6667 109.5,61.3333 110.5,59C 113.538,58.115 116.205,58.615 118.5,60.5 Z"/></g>
<g><path style="opacity:1" fill="#4b7682" d="M 181.5,91.5 C 179.5,91.8333 177.5,92.1667 175.5,92.5C 175.5,82.5 175.5,72.5 175.5,62.5C 177.379,61.6586 179.379,61.3253 181.5,61.5C 181.5,71.5 181.5,81.5 181.5,91.5 Z"/></g>
<g><path style="opacity:1" fill="#578395" d="M 63.5,67.5 C 64.3635,73.4549 64.6968,79.4549 64.5,85.5C 61.702,86.1 59.0354,87.1 56.5,88.5C 55.6919,88.1924 55.0253,87.6924 54.5,87C 55.3149,79.9133 55.8149,72.7466 56,65.5C 56.3076,64.6919 56.8076,64.0253 57.5,63.5C 59.5168,64.961 61.5168,66.2943 63.5,67.5 Z"/></g>
<g><path style="opacity:1" fill="#5d899b" d="M 260.5,64.5 C 262.5,64.5 264.5,64.5 266.5,64.5C 266.666,70.5092 266.499,76.5092 266,82.5C 265.29,83.9733 264.124,84.6399 262.5,84.5C 262.013,83.5266 261.513,82.5266 261,81.5C 260.501,75.8431 260.334,70.1764 260.5,64.5 Z"/></g>
<g><path style="opacity:1" fill="#608c97" d="M 245.5,91.5 C 245.666,87.3258 245,83.3258 243.5,79.5C 243.483,77.4352 243.15,75.4352 242.5,73.5C 242.702,71.0504 242.369,68.717 241.5,66.5C 245.698,64.5172 248.198,65.8505 249,70.5C 249.5,77.4921 249.666,84.4921 249.5,91.5C 248.167,91.5 246.833,91.5 245.5,91.5 Z"/></g>
<g><path style="opacity:1" fill="#7c7d69" d="M 18.5,67.5 C 19.7079,68.2341 21.0413,68.5674 22.5,68.5C 23.6291,70.6282 23.7958,72.9615 23,75.5C 22.5776,77.4257 21.4109,78.4257 19.5,78.5C 17.3104,75.0212 16.977,71.3546 18.5,67.5 Z"/></g>
<g><path style="opacity:1" fill="#548093" d="M 40.5,64.5 C 43.6852,64.0196 46.5185,64.6863 49,66.5C 49.4997,74.4931 49.6664,82.4931 49.5,90.5C 45.6648,90.5835 41.9981,89.9168 38.5,88.5C 38.7051,83.4171 40.0384,78.7505 42.5,74.5C 40.82,71.4291 40.1533,68.0958 40.5,64.5 Z"/></g>
<g><path style="opacity:1" fill="#56889b" d="M 86.5,107.5 C 86.5,96.8333 86.5,86.1667 86.5,75.5C 90.4842,73.6115 94.4842,72.1115 98.5,71C 99,71.5 99.5,72 100,72.5C 100.879,83.5503 100.546,94.5503 99,105.5C 95.1549,109.533 90.9883,110.2 86.5,107.5 Z"/></g>
<g><path style="opacity:1" fill="#05060c" d="M -0.5,73.5 C 2.09219,75.0361 3.09219,77.3695 2.5,80.5C 2.5,84.8333 2.5,89.1667 2.5,93.5C 2.66609,99.1764 2.49942,104.843 2,110.5C 1.2917,111.381 0.458367,112.047 -0.5,112.5C -0.5,99.5 -0.5,86.5 -0.5,73.5 Z"/></g>
<g><path style="opacity:1" fill="#7c7d63" d="M 242.5,73.5 C 243.15,75.4352 243.483,77.4352 243.5,79.5C 241.483,80.5294 239.483,81.5294 237.5,82.5C 237.523,80.0733 238.023,77.74 239,75.5C 239.816,74.1772 240.983,73.5106 242.5,73.5 Z"/></g>
<g><path style="opacity:1" fill="#649ca7" d="M 219.5,77.5 C 220.488,82.6405 220.821,87.9738 220.5,93.5C 218.883,94.038 217.216,94.3713 215.5,94.5C 215.5,88.8333 215.5,83.1667 215.5,77.5C 216.833,77.5 218.167,77.5 219.5,77.5 Z"/></g>
<g><path style="opacity:1" fill="#949475" d="M 243.5,79.5 C 245,83.3258 245.666,87.3258 245.5,91.5C 245.662,93.5273 245.495,95.5273 245,97.5C 244.617,98.056 244.117,98.3893 243.5,98.5C 241.983,98.4894 240.816,97.8228 240,96.5C 239.654,91.7243 238.821,87.0577 237.5,82.5C 239.483,81.5294 241.483,80.5294 243.5,79.5 Z"/></g>
<g><path style="opacity:1" fill="#3b5a6c" d="M 186.5,90.5 C 188.833,91.1667 191.167,91.8333 193.5,92.5C 192.769,97.7538 195.102,99.9205 200.5,99C 201.721,101.034 203.055,102.867 204.5,104.5C 204.5,105.167 204.5,105.833 204.5,106.5C 203.688,107.993 202.355,108.66 200.5,108.5C 197.585,106.758 196.251,107.425 196.5,110.5C 195.735,110.077 194.902,109.743 194,109.5C 191.914,111.249 189.581,112.583 187,113.5C 186.005,112.934 185.172,112.267 184.5,111.5C 185.117,111.389 185.617,111.056 186,110.5C 186.5,103.842 186.666,97.175 186.5,90.5 Z"/></g>
<g><path style="opacity:1" fill="#325164" d="M 181.5,91.5 C 181.944,97.8318 182.444,104.165 183,110.5C 183.383,111.056 183.883,111.389 184.5,111.5C 185.172,112.267 186.005,112.934 187,113.5C 189.581,112.583 191.914,111.249 194,109.5C 194.902,109.743 195.735,110.077 196.5,110.5C 195.189,113.29 195.522,115.957 197.5,118.5C 196.164,121.838 194.83,125.172 193.5,128.5C 187.79,128.876 185.457,131.876 186.5,137.5C 184.396,141.047 181.396,142.047 177.5,140.5C 176.159,134.252 175.325,127.919 175,121.5C 172.443,118.279 170.943,114.612 170.5,110.5C 173.724,112.25 175.558,111.25 176,107.5C 176.087,102.512 175.92,97.5116 175.5,92.5C 177.5,92.1667 179.5,91.8333 181.5,91.5 Z"/></g>
<g><path style="opacity:1" fill="#181f24" d="M 2.5,93.5 C 4.26241,93.3573 5.92908,93.6906 7.5,94.5C 8.24231,104.205 9.24231,113.871 10.5,123.5C 11.0944,130.225 12.0944,136.892 13.5,143.5C 11.2989,144.739 9.13225,146.072 7,147.5C 6.83333,148.833 6.66667,150.167 6.5,151.5C 8.96377,162.946 11.2971,174.279 13.5,185.5C 13.702,187.95 13.3686,190.283 12.5,192.5C 10.7483,192.418 9.74831,193.251 9.5,195C 10.7856,197.569 11.7856,200.236 12.5,203C 12.472,204.07 12.1386,204.903 11.5,205.5C 8.94326,203.393 5.94326,202.059 2.5,201.5C 1.5,200.833 0.5,200.167 -0.5,199.5C -0.5,196.833 -0.5,194.167 -0.5,191.5C 0.458367,191.047 1.2917,190.381 2,189.5C 2.66667,182.5 2.66667,175.5 2,168.5C 1.2917,167.619 0.458367,166.953 -0.5,166.5C -0.5,160.833 -0.5,155.167 -0.5,149.5C 0.458367,149.047 1.2917,148.381 2,147.5C 2.66667,139.833 2.66667,132.167 2,124.5C 1.2917,123.619 0.458367,122.953 -0.5,122.5C -0.5,119.167 -0.5,115.833 -0.5,112.5C 0.458367,112.047 1.2917,111.381 2,110.5C 2.49942,104.843 2.66609,99.1764 2.5,93.5 Z"/></g>
<g><path style="opacity:1" fill="#253e4b" d="M 276.5,90.5 C 276.5,107.833 276.5,125.167 276.5,142.5C 273.219,141.372 269.885,141.372 266.5,142.5C 266.5,141.5 266.5,140.5 266.5,139.5C 264.5,139.5 262.5,139.5 260.5,139.5C 257.46,135.907 255.46,131.741 254.5,127C 257.691,123.147 260.857,119.313 264,115.5C 265.663,107.834 267.163,100.167 268.5,92.5C 271.167,91.8333 273.833,91.1667 276.5,90.5 Z"/></g>
<g><path style="opacity:1" fill="#3d4b4a" d="M 243.5,99.5 C 245.37,102.809 246.37,106.475 246.5,110.5C 244.156,110.325 242.489,109.158 241.5,107C 242.123,104.393 242.79,101.893 243.5,99.5 Z"/></g>
<g><path style="opacity:1" fill="#1f3844" d="M 47.5,103.5 C 50.2706,103.421 52.9373,103.921 55.5,105C 57.0337,107.966 58.2004,111.133 59,114.5C 60.0113,115.337 61.1779,115.67 62.5,115.5C 62.5689,124.469 61.2356,133.136 58.5,141.5C 60.553,143.729 60.8863,146.062 59.5,148.5C 55.402,146.251 51.402,143.751 47.5,141C 45.5116,140.82 43.5116,140.986 41.5,141.5C 38.5,139.167 35.8333,136.5 33.5,133.5C 36.1926,131.425 39.0259,129.425 42,127.5C 42.5497,124.737 43.3831,122.07 44.5,119.5C 43.3539,113.703 44.3539,108.369 47.5,103.5 Z"/></g>
<g><path style="opacity:1" fill="#447682" d="M 221.5,103.5 C 221.366,105.292 221.699,106.958 222.5,108.5C 221.373,109.122 220.373,109.955 219.5,111C 215.446,112.328 211.446,112.828 207.5,112.5C 206.797,110.371 205.797,108.371 204.5,106.5C 204.5,105.833 204.5,105.167 204.5,104.5C 206.5,105.833 208.5,105.833 210.5,104.5C 212.467,104.261 214.301,104.594 216,105.5C 217.725,104.536 219.559,103.869 221.5,103.5 Z"/></g>
<g><path style="opacity:1" fill="#696a56" d="M 20.5,105.5 C 21.8221,105.33 22.9887,105.663 24,106.5C 24.2963,109.706 24.7963,112.872 25.5,116C 25.2568,116.902 24.9234,117.735 24.5,118.5C 22.6208,117.659 20.6208,117.325 18.5,117.5C 19.0746,113.477 19.7412,109.477 20.5,105.5 Z"/></g>
<g><path style="opacity:1" fill="#1f384b" d="M 204.5,106.5 C 205.797,108.371 206.797,110.371 207.5,112.5C 208.167,114.167 208.833,115.833 209.5,117.5C 209.62,119.734 209.287,121.901 208.5,124C 209.924,127.092 211.757,129.926 214,132.5C 214.556,134.885 214.39,137.218 213.5,139.5C 207.148,141.277 200.815,142.943 194.5,144.5C 192.451,141.45 189.784,139.117 186.5,137.5C 185.457,131.876 187.79,128.876 193.5,128.5C 194.83,125.172 196.164,121.838 197.5,118.5C 195.522,115.957 195.189,113.29 196.5,110.5C 196.251,107.425 197.585,106.758 200.5,108.5C 202.355,108.66 203.688,107.993 204.5,106.5 Z"/></g>
<g><path style="opacity:1" fill="#21404d" d="M 170.5,110.5 C 170.943,114.612 172.443,118.279 175,121.5C 175.325,127.919 176.159,134.252 177.5,140.5C 181.396,142.047 184.396,141.047 186.5,137.5C 189.784,139.117 192.451,141.45 194.5,144.5C 194.631,145.376 194.298,146.043 193.5,146.5C 191.205,147.432 188.871,148.265 186.5,149C 180.146,148.46 173.813,148.627 167.5,149.5C 164.871,146.369 162.038,143.369 159,140.5C 158.648,138.753 158.148,137.086 157.5,135.5C 158.15,133.565 158.483,131.565 158.5,129.5C 157.5,129.5 156.5,129.5 155.5,129.5C 156.423,124.579 158.423,120.079 161.5,116C 160.874,111.517 160.541,107.017 160.5,102.5C 161.46,100.523 162.46,98.5229 163.5,96.5C 165.006,95.2528 166.506,95.2528 168,96.5C 168.934,99.1362 169.768,101.803 170.5,104.5C 169.647,106.403 169.647,108.403 170.5,110.5 Z"/></g>
<g><path style="opacity:1" fill="#385d70" d="M 222.5,108.5 C 222.5,111.5 222.5,114.5 222.5,117.5C 218.199,120.158 213.865,120.158 209.5,117.5C 208.833,115.833 208.167,114.167 207.5,112.5C 211.446,112.828 215.446,112.328 219.5,111C 220.373,109.955 221.373,109.122 222.5,108.5 Z"/></g>
<g><path style="opacity:1" fill="#385d69" d="M 108.5,116.5 C 110.084,125.409 111.084,134.409 111.5,143.5C 109.883,146.784 107.55,149.451 104.5,151.5C 104.151,147.043 102.651,143.043 100,139.5C 99.6174,140.056 99.1174,140.389 98.5,140.5C 94.7272,138.744 90.7272,137.744 86.5,137.5C 86.5,131.167 86.5,124.833 86.5,118.5C 91.014,118.927 95.1807,117.927 99,115.5C 102.105,116.367 105.272,116.701 108.5,116.5 Z"/></g>
<g><path style="opacity:1" fill="#a4996f" d="M 85.5,108.5 C 86.4137,111.728 86.7471,115.061 86.5,118.5C 86.5,124.833 86.5,131.167 86.5,137.5C 84.9542,141.93 83.9542,146.596 83.5,151.5C 82.8333,151.833 82.1667,152.167 81.5,152.5C 80.2794,151.972 79.1127,151.305 78,150.5C 77.7725,146.083 77.2725,141.75 76.5,137.5C 75.6296,126.416 78.6296,116.75 85.5,108.5 Z"/></g>
<g><path style="opacity:1" fill="#a39772" d="M 18.5,117.5 C 20.6208,117.325 22.6208,117.659 24.5,118.5C 25.116,125.177 25.7827,131.843 26.5,138.5C 27.0802,142.81 27.4135,147.143 27.5,151.5C 24.7282,151.241 22.3949,150.241 20.5,148.5C 20.9817,147.584 21.315,146.584 21.5,145.5C 20.7714,140.53 20.2714,135.53 20,130.5C 18.0972,128.559 17.2639,126.226 17.5,123.5C 17.2053,121.265 17.5386,119.265 18.5,117.5 Z"/></g>
<g><path style="opacity:1" fill="#2b4b56" d="M 209.5,117.5 C 213.865,120.158 218.199,120.158 222.5,117.5C 223.468,124.812 223.468,132.145 222.5,139.5C 219.638,140.681 216.638,140.681 213.5,139.5C 214.39,137.218 214.556,134.885 214,132.5C 211.757,129.926 209.924,127.092 208.5,124C 209.287,121.901 209.62,119.734 209.5,117.5 Z"/></g>
<g><path style="opacity:1" fill="#05060c" d="M -0.5,122.5 C 0.458367,122.953 1.2917,123.619 2,124.5C 2.66667,132.167 2.66667,139.833 2,147.5C 1.2917,148.381 0.458367,149.047 -0.5,149.5C -0.5,140.5 -0.5,131.5 -0.5,122.5 Z"/></g>
<g><path style="opacity:1" fill="#505750" d="M 246.5,122.5 C 250.015,126.691 251.015,131.358 249.5,136.5C 247.589,136.426 246.422,135.426 246,133.5C 245.436,130.845 244.936,128.179 244.5,125.5C 244.64,123.97 245.307,122.97 246.5,122.5 Z"/></g>
<g><path style="opacity:1" fill="#363d3d" d="M 17.5,123.5 C 17.2639,126.226 18.0972,128.559 20,130.5C 20.2714,135.53 20.7714,140.53 21.5,145.5C 21.315,146.584 20.9817,147.584 20.5,148.5C 18.4862,148.392 16.8195,149.058 15.5,150.5C 14.8826,150.389 14.3826,150.056 14,149.5C 13.5045,147.527 13.3379,145.527 13.5,143.5C 12.0944,136.892 11.0944,130.225 10.5,123.5C 12.572,121.567 14.9053,121.567 17.5,123.5 Z"/></g>
<g><path style="opacity:1" fill="#253e44" d="M 33.5,133.5 C 35.8333,136.5 38.5,139.167 41.5,141.5C 36.9628,144.162 36.2961,147.662 39.5,152C 46.0242,155.605 53.0242,157.105 60.5,156.5C 60.7525,159.32 60.2525,161.986 59,164.5C 55.3078,166.692 52.4745,169.692 50.5,173.5C 47.7204,175.117 44.7204,176.284 41.5,177C 38.6215,179.385 35.6215,181.552 32.5,183.5C 31.9572,178.319 30.9572,173.319 29.5,168.5C 28.3137,162.9 27.6471,157.233 27.5,151.5C 27.4135,147.143 27.0802,142.81 26.5,138.5C 27.8333,138.5 29.1667,138.5 30.5,138.5C 30.31,136.041 31.31,134.374 33.5,133.5 Z"/></g>
<g><path style="opacity:1" fill="#254b50" d="M 157.5,135.5 C 158.148,137.086 158.648,138.753 159,140.5C 162.038,143.369 164.871,146.369 167.5,149.5C 162.231,153.459 156.231,155.792 149.5,156.5C 147.589,155.925 145.922,154.925 144.5,153.5C 147.652,149.848 150.985,146.348 154.5,143C 150,138.489 151,135.989 157.5,135.5 Z"/></g>
<g><path style="opacity:1" fill="#56574a" d="M 76.5,137.5 C 77.2725,141.75 77.7725,146.083 78,150.5C 79.1127,151.305 80.2794,151.972 81.5,152.5C 80.4186,156.783 77.9186,158.116 74,156.5C 73.3333,151.5 73.3333,146.5 74,141.5C 74.2004,139.68 75.0337,138.347 76.5,137.5 Z"/></g>
<g><path style="opacity:1" fill="#1f323e" d="M 104.5,151.5 C 104.674,153.861 105.007,156.194 105.5,158.5C 104.035,159.406 103.035,160.739 102.5,162.5C 105.883,171.453 102.883,174.786 93.5,172.5C 91.1801,168.874 89.8468,164.874 89.5,160.5C 91.7525,160.084 93.2525,158.751 94,156.5C 93.6142,150.543 95.1142,145.209 98.5,140.5C 99.1174,140.389 99.6174,140.056 100,139.5C 102.651,143.043 104.151,147.043 104.5,151.5 Z"/></g>
<g><path style="opacity:1" fill="#325751" d="M 213.5,139.5 C 216.638,140.681 219.638,140.681 222.5,139.5C 223.622,141.288 223.789,143.288 223,145.5C 222.329,146.252 221.496,146.586 220.5,146.5C 219.903,145.861 219.07,145.528 218,145.5C 210.267,147.784 202.434,149.618 194.5,151C 190.779,153.527 186.779,155.527 182.5,157C 181.313,158.019 180.313,159.186 179.5,160.5C 182.9,162.018 186.4,163.351 190,164.5C 194.672,162.791 199.505,161.624 204.5,161C 209.014,159.82 212.347,157.154 214.5,153C 216.488,152.062 218.488,151.228 220.5,150.5C 219.983,161.996 214.317,169.33 203.5,172.5C 200.213,173.264 197.546,175.097 195.5,178C 193.5,178.667 191.5,179.333 189.5,180C 186.927,180.428 184.594,180.094 182.5,179C 177.919,184.934 172.253,189.267 165.5,192C 164.167,193.333 162.833,194.667 161.5,196C 156.583,197.083 151.916,198.749 147.5,201C 146.695,202.113 146.028,203.279 145.5,204.5C 143.689,204.428 142.356,203.595 141.5,202C 143.97,199.457 144.637,196.623 143.5,193.5C 146.389,193.001 147.056,191.501 145.5,189C 144.552,188.517 143.552,188.351 142.5,188.5C 143.025,182.967 144.359,177.633 146.5,172.5C 148.595,171.588 150.595,170.421 152.5,169C 153.804,168.196 154.471,167.029 154.5,165.5C 152.415,162.744 150.748,159.744 149.5,156.5C 156.231,155.792 162.231,153.459 167.5,149.5C 173.813,148.627 180.146,148.46 186.5,149C 188.871,148.265 191.205,147.432 193.5,146.5C 194.298,146.043 194.631,145.376 194.5,144.5C 200.815,142.943 207.148,141.277 213.5,139.5 Z"/></g>
<g><path style="opacity:1" fill="#325750" d="M 260.5,139.5 C 262.5,139.5 264.5,139.5 266.5,139.5C 266.5,140.5 266.5,141.5 266.5,142.5C 265.19,144.148 263.857,145.814 262.5,147.5C 263.127,148.417 263.461,149.417 263.5,150.5C 258.5,150.842 255.5,148.508 254.5,143.5C 256.537,142.154 258.537,140.82 260.5,139.5 Z"/></g>
<g><path style="opacity:1" fill="#38574a" d="M 59.5,148.5 C 60.388,151.054 60.7214,153.721 60.5,156.5C 53.0242,157.105 46.0242,155.605 39.5,152C 36.2961,147.662 36.9628,144.162 41.5,141.5C 43.5116,140.986 45.5116,140.82 47.5,141C 51.402,143.751 55.402,146.251 59.5,148.5 Z"/></g>
<g><path style="opacity:1" fill="#4a6a50" d="M 276.5,142.5 C 276.5,143.833 276.5,145.167 276.5,146.5C 272.532,148.746 268.199,150.079 263.5,150.5C 263.461,149.417 263.127,148.417 262.5,147.5C 263.857,145.814 265.19,144.148 266.5,142.5C 269.885,141.372 273.219,141.372 276.5,142.5 Z"/></g>
<g><path style="opacity:1" fill="#242b31" d="M 13.5,143.5 C 13.3379,145.527 13.5045,147.527 14,149.5C 14.3826,150.056 14.8826,150.389 15.5,150.5C 15.2437,152.937 14.5771,155.271 13.5,157.5C 14.3742,159.747 14.7076,162.08 14.5,164.5C 14.335,167.85 14.5017,171.183 15,174.5C 16.1449,177.432 16.9782,180.432 17.5,183.5C 16.713,185.104 15.3797,185.771 13.5,185.5C 11.2971,174.279 8.96377,162.946 6.5,151.5C 6.66667,150.167 6.83333,148.833 7,147.5C 9.13225,146.072 11.2989,144.739 13.5,143.5 Z"/></g>
<g><path style="opacity:1" fill="#38645c" d="M 111.5,143.5 C 116.39,146.079 120.056,149.746 122.5,154.5C 116.741,154.448 111.408,155.781 106.5,158.5C 106.167,158.5 105.833,158.5 105.5,158.5C 105.007,156.194 104.674,153.861 104.5,151.5C 107.55,149.451 109.883,146.784 111.5,143.5 Z"/></g>
<g><path style="opacity:1" fill="#507050" d="M 220.5,146.5 C 221.405,147.702 221.405,149.036 220.5,150.5C 218.488,151.228 216.488,152.062 214.5,153C 212.347,157.154 209.014,159.82 204.5,161C 199.505,161.624 194.672,162.791 190,164.5C 186.4,163.351 182.9,162.018 179.5,160.5C 180.313,159.186 181.313,158.019 182.5,157C 186.779,155.527 190.779,153.527 194.5,151C 202.434,149.618 210.267,147.784 218,145.5C 219.07,145.528 219.903,145.861 220.5,146.5 Z"/></g>
<g><path style="opacity:1" fill="#2d484e" d="M 86.5,137.5 C 90.7272,137.744 94.7272,138.744 98.5,140.5C 95.1142,145.209 93.6142,150.543 94,156.5C 93.2525,158.751 91.7525,160.084 89.5,160.5C 87.3535,157.708 85.3535,154.708 83.5,151.5C 83.9542,146.596 84.9542,141.93 86.5,137.5 Z"/></g>
<g><path style="opacity:1" fill="#a79c69" d="M 20.5,148.5 C 22.3949,150.241 24.7282,151.241 27.5,151.5C 27.6471,157.233 28.3137,162.9 29.5,168.5C 26.6408,168.801 25.3075,170.467 25.5,173.5C 25.7707,176.749 26.4373,179.916 27.5,183C 27.2645,183.873 26.9312,184.707 26.5,185.5C 29.056,188.389 30.7227,191.722 31.5,195.5C 29.7988,196.835 28.1321,198.168 26.5,199.5C 23.943,195.392 21.6097,191.059 19.5,186.5C 21.2427,185.359 22.2427,183.692 22.5,181.5C 21.8179,177.862 21.3179,174.195 21,170.5C 19.6155,167.614 17.4488,165.614 14.5,164.5C 14.7076,162.08 14.3742,159.747 13.5,157.5C 14.5771,155.271 15.2437,152.937 15.5,150.5C 16.8195,149.058 18.4862,148.392 20.5,148.5 Z"/></g>
<g><path style="opacity:1" fill="#446a69" d="M 144.5,153.5 C 145.922,154.925 147.589,155.925 149.5,156.5C 150.748,159.744 152.415,162.744 154.5,165.5C 154.471,167.029 153.804,168.196 152.5,169C 150.595,170.421 148.595,171.588 146.5,172.5C 145.198,170.178 143.198,168.845 140.5,168.5C 139.883,165.645 138.883,162.978 137.5,160.5C 138.295,156.54 140.629,154.207 144.5,153.5 Z"/></g>
<g><path style="opacity:1" fill="#507669" d="M 122.5,154.5 C 123.5,155.167 124.5,155.833 125.5,156.5C 125.595,159.358 126.762,161.691 129,163.5C 129.495,165.473 129.662,167.473 129.5,169.5C 124.537,168.574 119.537,167.908 114.5,167.5C 111.119,165.12 108.453,162.12 106.5,158.5C 111.408,155.781 116.741,154.448 122.5,154.5 Z"/></g>
<g><path style="opacity:1" fill="#577d7c" d="M 125.5,156.5 C 129.698,157.267 133.698,158.601 137.5,160.5C 138.883,162.978 139.883,165.645 140.5,168.5C 137.12,166.743 134.454,167.41 132.5,170.5C 131.209,170.737 130.209,170.404 129.5,169.5C 129.662,167.473 129.495,165.473 129,163.5C 126.762,161.691 125.595,159.358 125.5,156.5 Z"/></g>
<g><path style="opacity:1" fill="#192b31" d="M 247.5,164.5 C 247.5,166.833 247.5,169.167 247.5,171.5C 249.703,171.604 251.703,172.27 253.5,173.5C 254.663,180.095 251.996,183.761 245.5,184.5C 243.83,181.998 241.664,179.998 239,178.5C 236.756,172.731 237.256,167.231 240.5,162C 241.833,161.333 243.167,161.333 244.5,162C 245.078,163.417 246.078,164.25 247.5,164.5 Z"/></g>
<g><path style="opacity:1" fill="#2c4644" d="M 271.5,168.5 C 267.919,168.138 264.919,169.138 262.5,171.5C 259.739,172.92 256.739,173.587 253.5,173.5C 251.703,172.27 249.703,171.604 247.5,171.5C 247.5,169.167 247.5,166.833 247.5,164.5C 252.636,161.786 257.636,162.12 262.5,165.5C 266.922,161.528 269.922,162.528 271.5,168.5 Z"/></g>
<g><path style="opacity:1" fill="#284544" d="M 105.5,158.5 C 105.833,158.5 106.167,158.5 106.5,158.5C 108.453,162.12 111.119,165.12 114.5,167.5C 115.871,170.656 115.538,173.656 113.5,176.5C 112.833,176.5 112.167,176.5 111.5,176.5C 110.292,175.218 108.958,175.218 107.5,176.5C 106.476,177.852 105.476,179.185 104.5,180.5C 102.517,180.157 101.183,180.824 100.5,182.5C 94.8546,181.226 92.5213,177.892 93.5,172.5C 102.883,174.786 105.883,171.453 102.5,162.5C 103.035,160.739 104.035,159.406 105.5,158.5 Z"/></g>
<g><path style="opacity:1" fill="#827656" d="M 14.5,164.5 C 17.4488,165.614 19.6155,167.614 21,170.5C 21.3179,174.195 21.8179,177.862 22.5,181.5C 22.2427,183.692 21.2427,185.359 19.5,186.5C 19.0679,185.29 18.4013,184.29 17.5,183.5C 16.9782,180.432 16.1449,177.432 15,174.5C 14.5017,171.183 14.335,167.85 14.5,164.5 Z"/></g>
<g><path style="opacity:1" fill="#05060c" d="M -0.5,166.5 C 0.458367,166.953 1.2917,167.619 2,168.5C 2.66667,175.5 2.66667,182.5 2,189.5C 1.2917,190.381 0.458367,191.047 -0.5,191.5C -0.5,183.167 -0.5,174.833 -0.5,166.5 Z"/></g>
<g><path style="opacity:1" fill="#8e9c95" d="M 140.5,168.5 C 140.833,171.5 139.5,172.833 136.5,172.5C 134.847,172.34 133.514,171.674 132.5,170.5C 134.454,167.41 137.12,166.743 140.5,168.5 Z"/></g>
<g><path style="opacity:1" fill="#88a256" d="M 276.5,168.5 C 276.5,170.833 276.5,173.167 276.5,175.5C 272.298,175.183 268.298,175.517 264.5,176.5C 263.069,175.22 262.402,173.553 262.5,171.5C 264.919,169.138 267.919,168.138 271.5,168.5C 273.36,167.929 275.027,167.929 276.5,168.5 Z"/></g>
<g><path style="opacity:1" fill="#88895c" d="M 29.5,168.5 C 30.9572,173.319 31.9572,178.319 32.5,183.5C 33.6359,189.772 36.3026,195.106 40.5,199.5C 40.7361,202.621 42.0695,204.954 44.5,206.5C 44.6559,209.841 45.9892,212.674 48.5,215C 47.6266,216.045 46.6266,216.878 45.5,217.5C 42.6952,215.208 40.3619,212.541 38.5,209.5C 37.4482,202.737 33.7815,200.071 27.5,201.5C 26.6618,201.158 26.3284,200.492 26.5,199.5C 28.1321,198.168 29.7988,196.835 31.5,195.5C 30.7227,191.722 29.056,188.389 26.5,185.5C 26.9312,184.707 27.2645,183.873 27.5,183C 26.4373,179.916 25.7707,176.749 25.5,173.5C 25.3075,170.467 26.6408,168.801 29.5,168.5 Z"/></g>
<g><path style="opacity:1" fill="#5f777d" d="M 140.5,168.5 C 143.198,168.845 145.198,170.178 146.5,172.5C 144.359,177.633 143.025,182.967 142.5,188.5C 139.933,187.525 137.267,186.858 134.5,186.5C 133.833,186.5 133.167,186.5 132.5,186.5C 134.357,183.127 136.024,179.627 137.5,176C 137.011,174.862 136.678,173.695 136.5,172.5C 139.5,172.833 140.833,171.5 140.5,168.5 Z"/></g>
<g><path style="opacity:1" fill="#3f6761" d="M 114.5,167.5 C 119.537,167.908 124.537,168.574 129.5,169.5C 130.209,170.404 131.209,170.737 132.5,170.5C 133.514,171.674 134.847,172.34 136.5,172.5C 136.678,173.695 137.011,174.862 137.5,176C 136.024,179.627 134.357,183.127 132.5,186.5C 126.713,184.106 121.046,181.44 115.5,178.5C 114.5,178.167 113.833,177.5 113.5,176.5C 115.538,173.656 115.871,170.656 114.5,167.5 Z"/></g>
<g><path style="opacity:1" fill="#2b4443" d="M 203.5,172.5 C 204.693,175.052 206.027,177.552 207.5,180C 200.697,182.132 198.197,186.632 200,193.5C 200.853,195.125 201.853,195.458 203,194.5C 204.584,195.861 206.418,196.528 208.5,196.5C 207.761,200.015 207.761,203.348 208.5,206.5C 207.122,207.234 205.622,207.901 204,208.5C 201.395,207.186 198.895,207.186 196.5,208.5C 191.446,209.239 187.112,211.406 183.5,215C 179.361,217.406 175.028,219.239 170.5,220.5C 165.015,218.706 159.348,217.039 153.5,215.5C 152.325,210.671 149.658,207.004 145.5,204.5C 146.028,203.279 146.695,202.113 147.5,201C 151.916,198.749 156.583,197.083 161.5,196C 162.833,194.667 164.167,193.333 165.5,192C 172.253,189.267 177.919,184.934 182.5,179C 184.594,180.094 186.927,180.428 189.5,180C 191.5,179.333 193.5,178.667 195.5,178C 197.546,175.097 200.213,173.264 203.5,172.5 Z"/></g>
<g><path style="opacity:1" fill="#2c4538" d="M 262.5,171.5 C 262.402,173.553 263.069,175.22 264.5,176.5C 266.1,177.952 267.1,179.785 267.5,182C 266.71,184.282 265.71,186.448 264.5,188.5C 262.05,188.702 259.717,188.369 257.5,187.5C 251.108,189.347 244.774,191.347 238.5,193.5C 238.371,191.784 238.038,190.117 237.5,188.5C 240.827,188.171 243.493,186.837 245.5,184.5C 251.996,183.761 254.663,180.095 253.5,173.5C 256.739,173.587 259.739,172.92 262.5,171.5 Z"/></g>
<g><path style="opacity:1" fill="#3d6443" d="M 111.5,176.5 C 110.707,180.727 108.373,182.06 104.5,180.5C 105.476,179.185 106.476,177.852 107.5,176.5C 108.958,175.218 110.292,175.218 111.5,176.5 Z"/></g>
<g><path style="opacity:1" fill="#637643" d="M 264.5,176.5 C 268.298,175.517 272.298,175.183 276.5,175.5C 276.5,180.5 276.5,185.5 276.5,190.5C 272.428,188.667 268.428,188 264.5,188.5C 265.71,186.448 266.71,184.282 267.5,182C 267.1,179.785 266.1,177.952 264.5,176.5 Z"/></g>
<g><path style="opacity:1" fill="#8ea256" d="M 115.5,178.5 C 121.046,181.44 126.713,184.106 132.5,186.5C 133.167,186.5 133.833,186.5 134.5,186.5C 134.127,189.574 133.461,192.574 132.5,195.5C 132.167,195.5 131.833,195.5 131.5,195.5C 128.911,195.461 126.911,196.461 125.5,198.5C 117.671,196.758 111.337,192.758 106.5,186.5C 107.837,185.685 108.837,184.518 109.5,183C 112.843,183.059 114.843,181.559 115.5,178.5 Z"/></g>
<g><path style="opacity:1" fill="#718a4e" d="M 111.5,176.5 C 112.167,176.5 112.833,176.5 113.5,176.5C 113.833,177.5 114.5,178.167 115.5,178.5C 114.843,181.559 112.843,183.059 109.5,183C 108.837,184.518 107.837,185.685 106.5,186.5C 104.118,185.649 102.118,184.316 100.5,182.5C 101.183,180.824 102.517,180.157 104.5,180.5C 108.373,182.06 110.707,180.727 111.5,176.5 Z"/></g>
<g><path style="opacity:1" fill="#b6af99" d="M 134.5,186.5 C 137.267,186.858 139.933,187.525 142.5,188.5C 143.552,188.351 144.552,188.517 145.5,189C 147.056,191.501 146.389,193.001 143.5,193.5C 140.039,195.091 136.372,195.758 132.5,195.5C 133.461,192.574 134.127,189.574 134.5,186.5 Z"/></g>
<g><path style="opacity:1" fill="#325143" d="M 237.5,188.5 C 238.038,190.117 238.371,191.784 238.5,193.5C 236.833,194.5 235.5,195.833 234.5,197.5C 231.701,199.214 228.701,200.547 225.5,201.5C 225.209,200.351 224.376,199.684 223,199.5C 219.988,201.952 216.988,201.952 214,199.5C 213.517,198.552 213.351,197.552 213.5,196.5C 216.838,194.485 219.838,191.985 222.5,189C 227.478,187.315 232.478,187.149 237.5,188.5 Z"/></g>
<g><path style="opacity:1" fill="#607953" d="M 257.5,187.5 C 256.729,190.454 256.062,193.454 255.5,196.5C 252.996,197.639 250.33,198.306 247.5,198.5C 243.17,198.259 238.837,197.926 234.5,197.5C 235.5,195.833 236.833,194.5 238.5,193.5C 244.774,191.347 251.108,189.347 257.5,187.5 Z"/></g>
<g><path style="opacity:1" fill="#8ca65d" d="M 257.5,187.5 C 259.717,188.369 262.05,188.702 264.5,188.5C 268.428,188 272.428,188.667 276.5,190.5C 276.5,193.167 276.5,195.833 276.5,198.5C 275.609,199.11 274.609,199.443 273.5,199.5C 268.691,199.289 263.691,199.122 258.5,199C 257.627,197.955 256.627,197.122 255.5,196.5C 256.062,193.454 256.729,190.454 257.5,187.5 Z"/></g>
<g><path style="opacity:1" fill="#5c646f" d="M 143.5,193.5 C 144.637,196.623 143.97,199.457 141.5,202C 142.356,203.595 143.689,204.428 145.5,204.5C 149.658,207.004 152.325,210.671 153.5,215.5C 159.348,217.039 165.015,218.706 170.5,220.5C 170.5,221.5 170.5,222.5 170.5,223.5C 165.489,223.334 160.489,223.501 155.5,224C 153.942,224.21 152.609,224.71 151.5,225.5C 149.833,225.5 148.167,225.5 146.5,225.5C 145.5,220.5 142.5,217.5 137.5,216.5C 135.176,213.687 132.51,211.354 129.5,209.5C 129.443,208.391 129.11,207.391 128.5,206.5C 129.926,203.024 130.926,199.357 131.5,195.5C 131.833,195.5 132.167,195.5 132.5,195.5C 136.372,195.758 140.039,195.091 143.5,193.5 Z"/></g>
<g><path style="opacity:1" fill="#6f835c" d="M 48.5,205.5 C 47.0413,205.433 45.7079,205.766 44.5,206.5C 42.0695,204.954 40.7361,202.621 40.5,199.5C 41.4511,198.081 41.7845,196.415 41.5,194.5C 42.9305,194.421 44.2638,194.754 45.5,195.5C 46.5804,198.121 48.2471,200.288 50.5,202C 49.1772,202.816 48.5106,203.983 48.5,205.5 Z"/></g>
<g><path style="opacity:1" fill="#3e624c" d="M 208.5,196.5 C 210.167,196.5 211.833,196.5 213.5,196.5C 213.351,197.552 213.517,198.552 214,199.5C 216.988,201.952 219.988,201.952 223,199.5C 224.376,199.684 225.209,200.351 225.5,201.5C 220.178,204.248 214.512,205.915 208.5,206.5C 207.761,203.348 207.761,200.015 208.5,196.5 Z"/></g>
<g><path style="opacity:1" fill="#6f874a" d="M 255.5,196.5 C 256.627,197.122 257.627,197.955 258.5,199C 263.691,199.122 268.691,199.289 273.5,199.5C 273.389,200.117 273.056,200.617 272.5,201C 268.888,202.15 265.222,202.983 261.5,203.5C 257.413,203.294 253.913,204.627 251,207.5C 250.617,206.944 250.117,206.611 249.5,206.5C 248.609,205.89 247.609,205.557 246.5,205.5C 246.674,203.139 247.007,200.806 247.5,198.5C 250.33,198.306 252.996,197.639 255.5,196.5 Z"/></g>
<g><path style="opacity:1" fill="#87a05b" d="M 234.5,197.5 C 238.837,197.926 243.17,198.259 247.5,198.5C 247.007,200.806 246.674,203.139 246.5,205.5C 242.818,205.335 239.152,205.501 235.5,206C 233.253,207.277 231.253,208.777 229.5,210.5C 224.937,211.448 220.937,213.448 217.5,216.5C 214.72,217.195 212.053,218.195 209.5,219.5C 208.766,218.292 208.433,216.959 208.5,215.5C 206.167,215.5 203.833,215.5 201.5,215.5C 201.762,214.022 201.429,212.689 200.5,211.5C 199.099,210.479 197.765,209.479 196.5,208.5C 198.895,207.186 201.395,207.186 204,208.5C 205.622,207.901 207.122,207.234 208.5,206.5C 214.512,205.915 220.178,204.248 225.5,201.5C 228.701,200.547 231.701,199.214 234.5,197.5 Z"/></g>
<g><path style="opacity:1" fill="#415850" d="M 131.5,195.5 C 130.926,199.357 129.926,203.024 128.5,206.5C 124.532,205.04 123.532,202.374 125.5,198.5C 126.911,196.461 128.911,195.461 131.5,195.5 Z"/></g>
<g><path style="opacity:1" fill="#746e50" d="M 38.5,209.5 C 37.5,209.5 36.5,209.5 35.5,209.5C 35.3433,210.873 35.51,212.207 36,213.5C 39.2377,217.309 41.4044,221.642 42.5,226.5C 41.5,226.5 40.5,226.5 39.5,226.5C 37.1394,224.806 35.1394,222.806 33.5,220.5C 30.7,214.433 28.7,208.099 27.5,201.5C 33.7815,200.071 37.4482,202.737 38.5,209.5 Z"/></g>
<g><path style="opacity:1" fill="#1e2524" d="M 2.5,201.5 C 5.94326,202.059 8.94326,203.393 11.5,205.5C 12.3918,209.847 14.0585,213.847 16.5,217.5C 15.6561,221.099 15.3227,224.766 15.5,228.5C 13.825,230.002 11.9917,231.335 10,232.5C 8.72668,229.13 6.56001,227.797 3.5,228.5C 3.18503,224.629 3.51836,220.962 4.5,217.5C 5.81486,218.476 7.14819,219.476 8.5,220.5C 9.79741,217.812 9.46407,215.312 7.5,213C 6.25057,212.26 5.25057,212.427 4.5,213.5C 2.57723,209.971 1.91057,205.971 2.5,201.5 Z"/></g>
<g><path style="opacity:1" fill="#6d654c" d="M 12.5,192.5 C 19.4533,198.191 21.9533,205.524 20,214.5C 19.5776,216.426 18.4109,217.426 16.5,217.5C 14.0585,213.847 12.3918,209.847 11.5,205.5C 12.1386,204.903 12.472,204.07 12.5,203C 11.7856,200.236 10.7856,197.569 9.5,195C 9.74831,193.251 10.7483,192.418 12.5,192.5 Z"/></g>
<g><path style="opacity:1" fill="#263f32" d="M 261.5,203.5 C 259.653,209.528 256.987,215.194 253.5,220.5C 250.379,219.774 247.713,218.274 245.5,216C 241.012,216.147 237.345,214.647 234.5,211.5C 239.678,209.966 244.678,208.299 249.5,206.5C 250.117,206.611 250.617,206.944 251,207.5C 253.913,204.627 257.413,203.294 261.5,203.5 Z"/></g>
<g><path style="opacity:1" fill="#26322c" d="M 17.5,183.5 C 18.4013,184.29 19.0679,185.29 19.5,186.5C 21.6097,191.059 23.943,195.392 26.5,199.5C 26.3284,200.492 26.6618,201.158 27.5,201.5C 28.7,208.099 30.7,214.433 33.5,220.5C 32.0697,221.537 30.403,222.204 28.5,222.5C 28.1575,220.775 27.1575,220.275 25.5,221C 23.2028,223.099 21.5361,225.599 20.5,228.5C 19.0267,227.929 17.36,227.929 15.5,228.5C 15.3227,224.766 15.6561,221.099 16.5,217.5C 18.4109,217.426 19.5776,216.426 20,214.5C 21.9533,205.524 19.4533,198.191 12.5,192.5C 13.3686,190.283 13.702,187.95 13.5,185.5C 15.3797,185.771 16.713,185.104 17.5,183.5 Z"/></g>
<g><path style="opacity:1" fill="#586649" d="M 48.5,205.5 C 50.9896,207.489 53.3229,209.656 55.5,212C 57.433,212.251 59.2663,212.751 61,213.5C 63.5734,208.75 66.4068,208.417 69.5,212.5C 68.5707,213.315 67.5707,214.148 66.5,215C 67.7279,216.49 67.7279,217.99 66.5,219.5C 62.8815,218.756 59.2148,218.423 55.5,218.5C 52.9196,216.984 50.9196,217.651 49.5,220.5C 47.7697,219.974 46.4363,218.974 45.5,217.5C 46.6266,216.878 47.6266,216.045 48.5,215C 45.9892,212.674 44.6559,209.841 44.5,206.5C 45.7079,205.766 47.0413,205.433 48.5,205.5 Z"/></g>
<g><path style="opacity:1" fill="#5a7343" d="M 246.5,205.5 C 247.609,205.557 248.609,205.89 249.5,206.5C 244.678,208.299 239.678,209.966 234.5,211.5C 232.585,211.784 230.919,211.451 229.5,210.5C 231.253,208.777 233.253,207.277 235.5,206C 239.152,205.501 242.818,205.335 246.5,205.5 Z"/></g>
<g><path style="opacity:1" fill="#436443" d="M 89.5,214.5 C 89.1583,215.338 88.4916,215.672 87.5,215.5C 84.5701,214.701 81.5701,214.368 78.5,214.5C 79.192,210.632 81.5253,208.299 85.5,207.5C 86.8377,209.864 88.171,212.198 89.5,214.5 Z"/></g>
<g><path style="opacity:1" fill="#8b9e54" d="M 196.5,208.5 C 197.765,209.479 199.099,210.479 200.5,211.5C 201.429,212.689 201.762,214.022 201.5,215.5C 203.833,215.5 206.167,215.5 208.5,215.5C 208.433,216.959 208.766,218.292 209.5,219.5C 204.34,221.33 200.007,224.33 196.5,228.5C 195.85,228.196 195.183,227.863 194.5,227.5C 193.382,225.133 192.716,222.966 192.5,221C 184.992,220.474 182.659,223.474 185.5,230C 185.385,231.895 184.718,233.562 183.5,235C 184.056,235.383 184.389,235.883 184.5,236.5C 183.432,237.434 182.099,237.768 180.5,237.5C 177.69,236.801 175.023,235.801 172.5,234.5C 174.391,232.713 176.057,230.713 177.5,228.5C 177.167,227.833 176.833,227.167 176.5,226.5C 174.259,225.871 172.259,224.871 170.5,223.5C 170.5,222.5 170.5,221.5 170.5,220.5C 175.028,219.239 179.361,217.406 183.5,215C 187.112,211.406 191.446,209.239 196.5,208.5 Z"/></g>
<g><path style="opacity:1" fill="#242b2a" d="M 38.5,209.5 C 40.3619,212.541 42.6952,215.208 45.5,217.5C 46.4363,218.974 47.7697,219.974 49.5,220.5C 49.4142,221.496 49.7476,222.329 50.5,223C 48.9632,224.11 48.2965,225.61 48.5,227.5C 46.2646,227.795 44.2646,227.461 42.5,226.5C 41.4044,221.642 39.2377,217.309 36,213.5C 35.51,212.207 35.3433,210.873 35.5,209.5C 36.5,209.5 37.5,209.5 38.5,209.5 Z"/></g>
<g><path style="opacity:1" fill="#375143" d="M 129.5,209.5 C 132.51,211.354 135.176,213.687 137.5,216.5C 137.312,219.206 136.312,221.539 134.5,223.5C 132.579,222.637 130.579,221.971 128.5,221.5C 128.493,218.962 128.159,216.462 127.5,214C 127.519,212.167 128.185,210.667 129.5,209.5 Z"/></g>
<g><path style="opacity:1" fill="#233731" d="M 276.5,198.5 C 276.5,213.167 276.5,227.833 276.5,242.5C 273.235,241.039 270.568,238.872 268.5,236C 266.613,235.22 264.946,235.387 263.5,236.5C 262.751,235.469 262.085,234.302 261.5,233C 259.548,232.634 257.882,231.801 256.5,230.5C 256.586,229.504 256.252,228.671 255.5,228C 251.26,225.14 248.26,225.974 246.5,230.5C 244.25,233.921 242.584,237.588 241.5,241.5C 246.05,241.925 250.217,240.925 254,238.5C 255.44,239.148 256.94,239.481 258.5,239.5C 258.982,242.831 257.982,245.497 255.5,247.5C 248.463,244.519 241.13,244.019 233.5,246C 230.574,246.687 229.241,248.52 229.5,251.5C 226.548,252.359 224.715,254.359 224,257.5C 222.982,261.907 221.815,266.241 220.5,270.5C 218.719,273.091 216.719,275.425 214.5,277.5C 212.486,277.608 210.82,276.942 209.5,275.5C 211.235,273.765 212.568,271.765 213.5,269.5C 211.76,266.72 211.093,263.887 211.5,261C 207.421,259.616 203.421,259.616 199.5,261C 197.536,262.451 196.203,264.284 195.5,266.5C 193.566,265.89 191.899,264.89 190.5,263.5C 191.684,261.59 193.184,259.924 195,258.5C 195.667,256.5 195.667,254.5 195,252.5C 190.942,252.098 186.775,252.098 182.5,252.5C 182.539,249.19 181.206,246.524 178.5,244.5C 179.325,242.199 179.992,239.865 180.5,237.5C 182.099,237.768 183.432,237.434 184.5,236.5C 188.574,235.628 192.241,233.961 195.5,231.5C 196.5,232.167 197.5,232.833 198.5,233.5C 197.859,234.482 197.193,235.482 196.5,236.5C 197.653,239.152 199.487,241.152 202,242.5C 206.821,240.01 210.654,236.51 213.5,232C 213.242,229.991 212.575,228.157 211.5,226.5C 214.27,224.938 216.937,223.104 219.5,221C 218.956,219.415 218.289,217.915 217.5,216.5C 220.937,213.448 224.937,211.448 229.5,210.5C 230.919,211.451 232.585,211.784 234.5,211.5C 237.345,214.647 241.012,216.147 245.5,216C 247.713,218.274 250.379,219.774 253.5,220.5C 256.987,215.194 259.653,209.528 261.5,203.5C 265.222,202.983 268.888,202.15 272.5,201C 273.056,200.617 273.389,200.117 273.5,199.5C 274.609,199.443 275.609,199.11 276.5,198.5 Z"/></g>
<g><path style="opacity:1" fill="#374431" d="M 4.5,217.5 C 3.16667,216.167 3.16667,214.833 4.5,213.5C 5.25057,212.427 6.25057,212.26 7.5,213C 9.46407,215.312 9.79741,217.812 8.5,220.5C 7.14819,219.476 5.81486,218.476 4.5,217.5 Z"/></g>
<g><path style="opacity:1" fill="#637043" d="M 69.5,212.5 C 71.588,213.939 73.9214,214.606 76.5,214.5C 75.9321,218.067 73.9321,220.401 70.5,221.5C 68.847,221.34 67.5137,220.674 66.5,219.5C 67.7279,217.99 67.7279,216.49 66.5,215C 67.5707,214.148 68.5707,213.315 69.5,212.5 Z"/></g>
<g><path style="opacity:1" fill="#3c523f" d="M 110.5,217.5 C 110.343,218.873 110.51,220.207 111,221.5C 113.295,223.126 114.795,225.293 115.5,228C 114.929,229.599 113.929,230.766 112.5,231.5C 107.91,230.079 104.744,227.079 103,222.5C 100.914,219.906 98.4135,217.906 95.5,216.5C 96.7621,213.772 98.9288,212.106 102,211.5C 105.389,212.924 108.223,214.924 110.5,217.5 Z"/></g>
<g><path style="opacity:1" fill="#8ea250" d="M 76.5,214.5 C 77.1667,214.5 77.8333,214.5 78.5,214.5C 81.5701,214.368 84.5701,214.701 87.5,215.5C 87.5,216.833 87.5,218.167 87.5,219.5C 93.8705,218.71 98.2038,221.21 100.5,227C 99.0875,230.246 97.0875,233.08 94.5,235.5C 87.5608,232.192 80.5608,229.192 73.5,226.5C 72.7515,224.668 71.7515,223.001 70.5,221.5C 73.9321,220.401 75.9321,218.067 76.5,214.5 Z"/></g>
<g><path style="opacity:1" fill="#4a644a" d="M 137.5,216.5 C 142.5,217.5 145.5,220.5 146.5,225.5C 142.358,224.96 138.358,224.294 134.5,223.5C 136.312,221.539 137.312,219.206 137.5,216.5 Z"/></g>
<g><path style="opacity:1" fill="#485a67" d="M 217.5,216.5 C 218.289,217.915 218.956,219.415 219.5,221C 216.937,223.104 214.27,224.938 211.5,226.5C 207.007,228.579 202.674,230.912 198.5,233.5C 197.5,232.833 196.5,232.167 195.5,231.5C 196.11,230.609 196.443,229.609 196.5,228.5C 200.007,224.33 204.34,221.33 209.5,219.5C 212.053,218.195 214.72,217.195 217.5,216.5 Z"/></g>
<g><path style="opacity:1" fill="#2a3231" d="M 55.5,218.5 C 59.2148,218.423 62.8815,218.756 66.5,219.5C 67.5137,220.674 68.847,221.34 70.5,221.5C 71.7515,223.001 72.7515,224.668 73.5,226.5C 70.7964,229.303 67.4631,230.137 63.5,229C 60.3699,226.872 57.5366,224.372 55,221.5C 54.2599,220.251 54.4265,219.251 55.5,218.5 Z"/></g>
<g><path style="opacity:1" fill="#809444" d="M 89.5,214.5 C 91.5786,214.971 93.5786,215.637 95.5,216.5C 98.4135,217.906 100.914,219.906 103,222.5C 104.744,227.079 107.91,230.079 112.5,231.5C 113.925,232.922 114.925,234.589 115.5,236.5C 112.162,237.611 109.495,239.611 107.5,242.5C 102.68,240.926 98.3472,238.593 94.5,235.5C 97.0875,233.08 99.0875,230.246 100.5,227C 98.2038,221.21 93.8705,218.71 87.5,219.5C 87.5,218.167 87.5,216.833 87.5,215.5C 88.4916,215.672 89.1583,215.338 89.5,214.5 Z"/></g>
<g><path style="opacity:1" fill="#1b2726" d="M 33.5,220.5 C 35.1394,222.806 37.1394,224.806 39.5,226.5C 41.2805,229.454 43.2805,232.287 45.5,235C 44.536,236.725 43.8693,238.559 43.5,240.5C 40.9272,239.445 38.2605,239.278 35.5,240C 34.6719,241.992 33.3386,243.492 31.5,244.5C 31.1667,244.5 30.8333,244.5 30.5,244.5C 29.7515,243.469 29.0848,242.302 28.5,241C 29.8825,239.729 30.8825,238.229 31.5,236.5C 32.0333,231.93 30.6999,228.096 27.5,225C 27.7432,224.098 28.0766,223.265 28.5,222.5C 30.403,222.204 32.0697,221.537 33.5,220.5 Z"/></g>
<g><path style="opacity:1" fill="#85904b" d="M 120.5,221.5 C 122.833,221.5 125.167,221.5 127.5,221.5C 127.085,223.747 126.418,225.914 125.5,228C 126,230.5 126.5,233 127,235.5C 129.761,236.528 132.594,236.528 135.5,235.5C 137.588,235.62 138.922,236.62 139.5,238.5C 135.832,240.721 131.832,241.721 127.5,241.5C 126.005,241.011 124.671,240.345 123.5,239.5C 121.506,235.212 119.84,230.712 118.5,226C 119.414,224.594 120.08,223.094 120.5,221.5 Z"/></g>
<g><path style="opacity:1" fill="#a1af50" d="M 127.5,221.5 C 127.833,221.5 128.167,221.5 128.5,221.5C 130.579,221.971 132.579,222.637 134.5,223.5C 138.358,224.294 142.358,224.96 146.5,225.5C 148.167,225.5 149.833,225.5 151.5,225.5C 152.511,227.402 152.678,229.402 152,231.5C 149.891,234.122 147.391,236.122 144.5,237.5C 142.883,238.038 141.216,238.371 139.5,238.5C 138.922,236.62 137.588,235.62 135.5,235.5C 132.594,236.528 129.761,236.528 127,235.5C 126.5,233 126,230.5 125.5,228C 126.418,225.914 127.085,223.747 127.5,221.5 Z"/></g>
<g><path style="opacity:1" fill="#2b3e32" d="M 55.5,218.5 C 54.4265,219.251 54.2599,220.251 55,221.5C 57.5366,224.372 60.3699,226.872 63.5,229C 67.4631,230.137 70.7964,229.303 73.5,226.5C 80.5608,229.192 87.5608,232.192 94.5,235.5C 98.3472,238.593 102.68,240.926 107.5,242.5C 109.181,244.008 111.181,245.008 113.5,245.5C 113.756,247.792 113.423,249.959 112.5,252C 108.469,253.491 104.469,254.657 100.5,255.5C 96.6634,255.931 92.9968,256.598 89.5,257.5C 87.2972,257.396 85.2972,256.73 83.5,255.5C 82.609,254.89 81.609,254.557 80.5,254.5C 77.9975,250.576 74.6642,249.576 70.5,251.5C 68.9505,250.559 67.2838,249.893 65.5,249.5C 61.9009,248.656 58.2343,248.323 54.5,248.5C 52.7226,247.4 50.7226,246.566 48.5,246C 47.1666,243.809 45.5,241.976 43.5,240.5C 43.8693,238.559 44.536,236.725 45.5,235C 43.2805,232.287 41.2805,229.454 39.5,226.5C 40.5,226.5 41.5,226.5 42.5,226.5C 44.2646,227.461 46.2646,227.795 48.5,227.5C 48.2965,225.61 48.9632,224.11 50.5,223C 49.7476,222.329 49.4142,221.496 49.5,220.5C 50.9196,217.651 52.9196,216.984 55.5,218.5 Z"/></g>
<g><path style="opacity:1" fill="#e2caa3" d="M 170.5,223.5 C 172.259,224.871 174.259,225.871 176.5,226.5C 176.833,227.167 177.167,227.833 177.5,228.5C 176.057,230.713 174.391,232.713 172.5,234.5C 171.313,236.072 170.313,237.739 169.5,239.5C 162.985,243.115 155.985,245.115 148.5,245.5C 147.542,245.047 146.708,244.381 146,243.5C 145.685,241.414 145.185,239.414 144.5,237.5C 147.391,236.122 149.891,234.122 152,231.5C 152.678,229.402 152.511,227.402 151.5,225.5C 152.609,224.71 153.942,224.21 155.5,224C 160.489,223.501 165.489,223.334 170.5,223.5 Z"/></g>
<g><path style="opacity:1" fill="#6c7944" d="M 196.5,228.5 C 196.443,229.609 196.11,230.609 195.5,231.5C 192.241,233.961 188.574,235.628 184.5,236.5C 184.389,235.883 184.056,235.383 183.5,235C 184.718,233.562 185.385,231.895 185.5,230C 182.659,223.474 184.992,220.474 192.5,221C 192.716,222.966 193.382,225.133 194.5,227.5C 195.183,227.863 195.85,228.196 196.5,228.5 Z"/></g>
<g><path style="opacity:1" fill="#475940" d="M 28.5,222.5 C 28.0766,223.265 27.7432,224.098 27.5,225C 30.6999,228.096 32.0333,231.93 31.5,236.5C 28.2727,236.324 25.2727,235.657 22.5,234.5C 23.4345,233.432 23.7678,232.099 23.5,230.5C 21.8212,230.715 20.8212,230.048 20.5,228.5C 21.5361,225.599 23.2028,223.099 25.5,221C 27.1575,220.275 28.1575,220.775 28.5,222.5 Z"/></g>
<g><path style="opacity:1" fill="#5d6d47" d="M 110.5,217.5 C 113.588,219.375 116.922,220.708 120.5,221.5C 120.08,223.094 119.414,224.594 118.5,226C 119.84,230.712 121.506,235.212 123.5,239.5C 122.423,240.018 121.256,240.352 120,240.5C 117.666,239.306 116.166,237.973 115.5,236.5C 114.925,234.589 113.925,232.922 112.5,231.5C 113.929,230.766 114.929,229.599 115.5,228C 114.795,225.293 113.295,223.126 111,221.5C 110.51,220.207 110.343,218.873 110.5,217.5 Z"/></g>
<g><path style="opacity:1" fill="#1e2532" d="M 211.5,226.5 C 212.575,228.157 213.242,229.991 213.5,232C 210.654,236.51 206.821,240.01 202,242.5C 199.487,241.152 197.653,239.152 196.5,236.5C 197.193,235.482 197.859,234.482 198.5,233.5C 202.674,230.912 207.007,228.579 211.5,226.5 Z"/></g>
<g><path style="opacity:1" fill="#5c7043" d="M 256.5,230.5 C 255.866,231.947 254.699,232.613 253,232.5C 250.774,231.967 248.607,231.3 246.5,230.5C 248.26,225.974 251.26,225.14 255.5,228C 256.252,228.671 256.586,229.504 256.5,230.5 Z"/></g>
<g><path style="opacity:1" fill="#314432" d="M 15.5,228.5 C 17.36,227.929 19.0267,227.929 20.5,228.5C 20.8212,230.048 21.8212,230.715 23.5,230.5C 23.7678,232.099 23.4345,233.432 22.5,234.5C 21.5318,236.607 21.1984,238.941 21.5,241.5C 19.7497,242.233 18.083,242.566 16.5,242.5C 14.0971,242.552 11.7638,242.219 9.5,241.5C 8.4676,238.467 6.4676,236.467 3.5,235.5C 3.5,233.167 3.5,230.833 3.5,228.5C 6.56001,227.797 8.72668,229.13 10,232.5C 11.9917,231.335 13.825,230.002 15.5,228.5 Z"/></g>
<g><path style="opacity:1" fill="#2d4532" d="M 246.5,230.5 C 248.607,231.3 250.774,231.967 253,232.5C 254.699,232.613 255.866,231.947 256.5,230.5C 257.882,231.801 259.548,232.634 261.5,233C 262.085,234.302 262.751,235.469 263.5,236.5C 262.087,237.935 260.42,238.935 258.5,239.5C 256.94,239.481 255.44,239.148 254,238.5C 250.217,240.925 246.05,241.925 241.5,241.5C 242.584,237.588 244.25,233.921 246.5,230.5 Z"/></g>
<g><path style="opacity:1" fill="#182a24" d="M 276.5,242.5 C 276.5,246.5 276.5,250.5 276.5,254.5C 273.867,257.068 270.7,258.734 267,259.5C 264.087,257.75 260.92,256.583 257.5,256C 256.219,254.591 255.219,253.091 254.5,251.5C 256.493,250.528 256.826,249.195 255.5,247.5C 257.982,245.497 258.982,242.831 258.5,239.5C 260.42,238.935 262.087,237.935 263.5,236.5C 264.946,235.387 266.613,235.22 268.5,236C 270.568,238.872 273.235,241.039 276.5,242.5 Z"/></g>
<g><path style="opacity:1" fill="#dac391" d="M 144.5,237.5 C 145.185,239.414 145.685,241.414 146,243.5C 146.708,244.381 147.542,245.047 148.5,245.5C 146.052,246.473 143.385,246.806 140.5,246.5C 136.1,247.471 131.767,247.471 127.5,246.5C 127.5,244.833 127.5,243.167 127.5,241.5C 131.832,241.721 135.832,240.721 139.5,238.5C 141.216,238.371 142.883,238.038 144.5,237.5 Z"/></g>
<g><path style="opacity:1" fill="#858353" d="M 115.5,236.5 C 116.166,237.973 117.666,239.306 120,240.5C 121.256,240.352 122.423,240.018 123.5,239.5C 124.671,240.345 126.005,241.011 127.5,241.5C 127.5,243.167 127.5,244.833 127.5,246.5C 126.378,247.156 125.045,247.489 123.5,247.5C 120.113,247.036 116.78,246.369 113.5,245.5C 111.181,245.008 109.181,244.008 107.5,242.5C 109.495,239.611 112.162,237.611 115.5,236.5 Z"/></g>
<g><path style="opacity:1" fill="#435143" d="M 169.5,239.5 C 169.5,241.167 169.5,242.833 169.5,244.5C 168.417,244.539 167.417,244.873 166.5,245.5C 165.865,248.099 164.865,250.432 163.5,252.5C 160.721,252.279 158.054,252.612 155.5,253.5C 152.161,253.89 148.827,254.39 145.5,255C 144.944,255.383 144.611,255.883 144.5,256.5C 143.167,256.5 141.833,256.5 140.5,256.5C 140.982,253.054 140.982,249.721 140.5,246.5C 143.385,246.806 146.052,246.473 148.5,245.5C 155.985,245.115 162.985,243.115 169.5,239.5 Z"/></g>
<g><path style="opacity:1" fill="#3e5634" d="M 3.5,235.5 C 6.4676,236.467 8.4676,238.467 9.5,241.5C 8.97439,243.23 7.97439,244.564 6.5,245.5C 5.39514,246.6 4.06181,247.267 2.5,247.5C 2.18325,243.298 2.51658,239.298 3.5,235.5 Z"/></g>
<g><path style="opacity:1" fill="#5b724f" d="M 22.5,234.5 C 25.2727,235.657 28.2727,236.324 31.5,236.5C 30.8825,238.229 29.8825,239.729 28.5,241C 29.0848,242.302 29.7515,243.469 30.5,244.5C 27.9741,245.657 25.3074,245.657 22.5,244.5C 21.8902,243.609 21.5569,242.609 21.5,241.5C 21.1984,238.941 21.5318,236.607 22.5,234.5 Z"/></g>
<g><path style="opacity:1" fill="#6f8f43" d="M 21.5,241.5 C 21.5569,242.609 21.8902,243.609 22.5,244.5C 21.2488,246.725 21.5822,248.891 23.5,251C 22.9558,251.717 22.2891,252.217 21.5,252.5C 19.7839,252.371 18.1172,252.038 16.5,251.5C 15.4116,248.556 15.4116,245.556 16.5,242.5C 18.083,242.566 19.7497,242.233 21.5,241.5 Z"/></g>
<g><path style="opacity:1" fill="#536639" d="M 9.5,241.5 C 11.7638,242.219 14.0971,242.552 16.5,242.5C 15.4116,245.556 15.4116,248.556 16.5,251.5C 14.6531,252.573 12.6531,252.573 10.5,251.5C 10.6495,250.448 10.4828,249.448 10,248.5C 8.48155,247.837 7.31488,246.837 6.5,245.5C 7.97439,244.564 8.97439,243.23 9.5,241.5 Z"/></g>
<g><path style="opacity:1" fill="#8ea150" d="M 22.5,244.5 C 25.3074,245.657 27.9741,245.657 30.5,244.5C 30.8333,244.5 31.1667,244.5 31.5,244.5C 31.4142,245.496 31.7476,246.329 32.5,247C 37.6392,249.023 42.6392,251.19 47.5,253.5C 47.9731,254.906 48.9731,255.573 50.5,255.5C 50.3159,258.321 51.6493,259.988 54.5,260.5C 56.5499,259.923 57.5499,258.59 57.5,256.5C 59.9538,254.102 62.9538,252.435 66.5,251.5C 66.1373,250.817 65.8039,250.15 65.5,249.5C 67.2838,249.893 68.9505,250.559 70.5,251.5C 72.6917,255.597 76.025,256.597 80.5,254.5C 81.609,254.557 82.609,254.89 83.5,255.5C 83.8891,262.216 87.5557,265.55 94.5,265.5C 94.1411,269.344 93.4744,273.344 92.5,277.5C 91.448,277.649 90.448,277.483 89.5,277C 87.2801,272.776 83.9467,271.609 79.5,273.5C 76.4005,272.242 73.4005,270.742 70.5,269C 68.8659,268.506 67.1992,268.34 65.5,268.5C 65.6323,271.57 65.299,274.57 64.5,277.5C 61.4373,277.137 58.4373,276.47 55.5,275.5C 54.2739,275.52 53.2739,275.853 52.5,276.5C 50.9139,275.587 49.4139,275.587 48,276.5C 46.5093,274.996 44.676,274.163 42.5,274C 41.7476,273.329 41.4142,272.496 41.5,271.5C 42.0296,269.284 41.363,267.118 39.5,265C 37.6131,264.22 35.9464,264.387 34.5,265.5C 31.0813,263.913 27.4146,263.247 23.5,263.5C 23.5,262.5 23.5,261.5 23.5,260.5C 25.037,257.315 24.3704,254.648 21.5,252.5C 22.2891,252.217 22.9558,251.717 23.5,251C 21.5822,248.891 21.2488,246.725 22.5,244.5 Z"/></g>
<g><path style="opacity:1" fill="#59724d" d="M 43.5,240.5 C 45.5,241.976 47.1666,243.809 48.5,246C 50.7226,246.566 52.7226,247.4 54.5,248.5C 52.3428,250.412 50.0094,252.079 47.5,253.5C 42.6392,251.19 37.6392,249.023 32.5,247C 31.7476,246.329 31.4142,245.496 31.5,244.5C 33.3386,243.492 34.6719,241.992 35.5,240C 38.2605,239.278 40.9272,239.445 43.5,240.5 Z"/></g>
<g><path style="opacity:1" fill="#324b56" d="M 255.5,247.5 C 256.826,249.195 256.493,250.528 254.5,251.5C 248.294,251.235 242.294,252.235 236.5,254.5C 234.03,253.763 231.696,252.763 229.5,251.5C 229.241,248.52 230.574,246.687 233.5,246C 241.13,244.019 248.463,244.519 255.5,247.5 Z"/></g>
<g><path style="opacity:1" fill="#697d3d" d="M 6.5,245.5 C 7.31488,246.837 8.48155,247.837 10,248.5C 10.4828,249.448 10.6495,250.448 10.5,251.5C 10.5,253.5 9.5,254.5 7.5,254.5C 6.194,252.527 4.52734,250.861 2.5,249.5C 2.5,248.833 2.5,248.167 2.5,247.5C 4.06181,247.267 5.39514,246.6 6.5,245.5 Z"/></g>
<g><path style="opacity:1" fill="#555056" d="M 113.5,245.5 C 116.78,246.369 120.113,247.036 123.5,247.5C 125.045,247.489 126.378,247.156 127.5,246.5C 131.767,247.471 136.1,247.471 140.5,246.5C 140.982,249.721 140.982,253.054 140.5,256.5C 138.809,257.864 137.142,259.197 135.5,260.5C 133.106,261.015 130.772,261.681 128.5,262.5C 127.365,260.787 125.698,260.12 123.5,260.5C 120.039,262.091 116.372,262.758 112.5,262.5C 110.052,261.527 107.385,261.194 104.5,261.5C 104.155,258.802 102.822,256.802 100.5,255.5C 104.469,254.657 108.469,253.491 112.5,252C 113.423,249.959 113.756,247.792 113.5,245.5 Z"/></g>
<g><path style="opacity:1" fill="#7a884f" d="M 54.5,248.5 C 58.2343,248.323 61.9009,248.656 65.5,249.5C 65.8039,250.15 66.1373,250.817 66.5,251.5C 62.9538,252.435 59.9538,254.102 57.5,256.5C 55.3035,254.455 52.9702,254.122 50.5,255.5C 48.9731,255.573 47.9731,254.906 47.5,253.5C 50.0094,252.079 52.3428,250.412 54.5,248.5 Z"/></g>
<g><path style="opacity:1" fill="#4a5d37" d="M 80.5,254.5 C 76.025,256.597 72.6917,255.597 70.5,251.5C 74.6642,249.576 77.9975,250.576 80.5,254.5 Z"/></g>
<g><path style="opacity:1" fill="#31442a" d="M 10.5,251.5 C 12.6531,252.573 14.6531,252.573 16.5,251.5C 18.1172,252.038 19.7839,252.371 21.5,252.5C 24.3704,254.648 25.037,257.315 23.5,260.5C 18.233,260.223 13.233,259.056 8.5,257C 7.74756,256.329 7.41423,255.496 7.5,254.5C 9.5,254.5 10.5,253.5 10.5,251.5 Z"/></g>
<g><path style="opacity:1" fill="#6f834a" d="M 163.5,252.5 C 164.315,253.837 165.482,254.837 167,255.5C 167.494,257.134 167.66,258.801 167.5,260.5C 163.555,261.656 159.555,262.156 155.5,262C 153.047,259.251 153.047,256.417 155.5,253.5C 158.054,252.612 160.721,252.279 163.5,252.5 Z"/></g>
<g><path style="opacity:1" fill="#40563d" d="M 172.5,234.5 C 175.023,235.801 177.69,236.801 180.5,237.5C 179.992,239.865 179.325,242.199 178.5,244.5C 181.206,246.524 182.539,249.19 182.5,252.5C 186.775,252.098 190.942,252.098 195,252.5C 195.667,254.5 195.667,256.5 195,258.5C 193.184,259.924 191.684,261.59 190.5,263.5C 189.305,263.322 188.138,262.989 187,262.5C 182.318,265.024 177.485,265.691 172.5,264.5C 173.242,261.033 175.409,259.033 179,258.5C 179.808,256.421 179.641,254.421 178.5,252.5C 175.477,249.697 172.477,247.031 169.5,244.5C 169.5,242.833 169.5,241.167 169.5,239.5C 170.313,237.739 171.313,236.072 172.5,234.5 Z"/></g>
<g><path style="opacity:1" fill="#171e24" d="M 229.5,251.5 C 231.696,252.763 234.03,253.763 236.5,254.5C 242.294,252.235 248.294,251.235 254.5,251.5C 255.219,253.091 256.219,254.591 257.5,256C 260.92,256.583 264.087,257.75 267,259.5C 270.7,258.734 273.867,257.068 276.5,254.5C 276.5,257.5 276.5,260.5 276.5,263.5C 275.85,263.196 275.183,262.863 274.5,262.5C 270.382,265.324 265.882,267.324 261,268.5C 258.785,264.875 255.618,263.708 251.5,265C 249.694,267.573 248.36,270.407 247.5,273.5C 246.148,274.524 244.815,275.524 243.5,276.5C 242.508,276.672 241.842,276.338 241.5,275.5C 240.594,272.564 239.928,269.564 239.5,266.5C 237.488,265.986 235.488,265.82 233.5,266C 232.35,268.462 231.017,270.796 229.5,273C 227.167,273.667 224.833,273.667 222.5,273C 221.244,272.583 220.577,271.75 220.5,270.5C 221.815,266.241 222.982,261.907 224,257.5C 224.715,254.359 226.548,252.359 229.5,251.5 Z"/></g>
<g><path style="opacity:1" fill="#1e322b" d="M 2.5,249.5 C 4.52734,250.861 6.194,252.527 7.5,254.5C 7.41423,255.496 7.74756,256.329 8.5,257C 13.233,259.056 18.233,260.223 23.5,260.5C 23.5,261.5 23.5,262.5 23.5,263.5C 27.4146,263.247 31.0813,263.913 34.5,265.5C 35.5993,268.932 37.9326,270.932 41.5,271.5C 41.4142,272.496 41.7476,273.329 42.5,274C 44.676,274.163 46.5093,274.996 48,276.5C 49.4139,275.587 50.9139,275.587 52.5,276.5C 53.0577,277.79 54.0577,278.623 55.5,279C 58.8333,279.833 62.1667,280.667 65.5,281.5C 66.4164,281.457 67.0831,281.124 67.5,280.5C 75.2089,280.269 82.8756,280.602 90.5,281.5C 90.7797,286.658 91.4464,291.992 92.5,297.5C 96.8947,299.877 101.228,299.877 105.5,297.5C 108.971,301.803 112.971,305.636 117.5,309C 119.611,309.845 121.611,310.678 123.5,311.5C 95.1667,311.5 66.8333,311.5 38.5,311.5C 37.713,309.896 36.3797,309.229 34.5,309.5C 34.3433,308.127 34.51,306.793 35,305.5C 37.838,302.33 41.0047,299.497 44.5,297C 43.7468,293.074 41.4134,291.241 37.5,291.5C 37.8238,294.68 36.4904,295.847 33.5,295C 30.0761,290.213 25.5761,287.046 20,285.5C 18.1878,285.493 16.6878,286.16 15.5,287.5C 15.0879,289.887 14.0879,291.887 12.5,293.5C 9.41139,291.075 6.07805,289.075 2.5,287.5C 2.66651,276.495 2.49985,265.495 2,254.5C 0.198031,252.727 0.364697,251.06 2.5,249.5 Z"/></g>
<g><path style="opacity:1" fill="#75966f" d="M 57.5,256.5 C 57.5499,258.59 56.5499,259.923 54.5,260.5C 51.6493,259.988 50.3159,258.321 50.5,255.5C 52.9702,254.122 55.3035,254.455 57.5,256.5 Z"/></g>
<g><path style="opacity:1" fill="#827d4a" d="M 83.5,255.5 C 85.2972,256.73 87.2972,257.396 89.5,257.5C 92.5579,259.024 95.2245,261.024 97.5,263.5C 96.2905,263.932 95.2905,264.599 94.5,265.5C 87.5557,265.55 83.8891,262.216 83.5,255.5 Z"/></g>
<g><path style="opacity:1" fill="#635d56" d="M 100.5,255.5 C 102.822,256.802 104.155,258.802 104.5,261.5C 102.167,262.167 99.8333,262.833 97.5,263.5C 95.2245,261.024 92.5579,259.024 89.5,257.5C 92.9968,256.598 96.6634,255.931 100.5,255.5 Z"/></g>
<g><path style="opacity:1" fill="#637043" d="M 140.5,256.5 C 141.833,256.5 143.167,256.5 144.5,256.5C 145.686,258.874 145.686,261.208 144.5,263.5C 142.999,264.752 141.332,265.752 139.5,266.5C 137.774,264.772 136.441,262.772 135.5,260.5C 137.142,259.197 138.809,257.864 140.5,256.5 Z"/></g>
<g><path style="opacity:1" fill="#536540" d="M 169.5,244.5 C 172.477,247.031 175.477,249.697 178.5,252.5C 179.641,254.421 179.808,256.421 179,258.5C 175.409,259.033 173.242,261.033 172.5,264.5C 169.732,266.087 167.065,267.92 164.5,270C 159.869,271.088 155.202,271.921 150.5,272.5C 148.143,269.814 146.143,266.814 144.5,263.5C 145.686,261.208 145.686,258.874 144.5,256.5C 144.611,255.883 144.944,255.383 145.5,255C 148.827,254.39 152.161,253.89 155.5,253.5C 153.047,256.417 153.047,259.251 155.5,262C 159.555,262.156 163.555,261.656 167.5,260.5C 167.66,258.801 167.494,257.134 167,255.5C 165.482,254.837 164.315,253.837 163.5,252.5C 164.865,250.432 165.865,248.099 166.5,245.5C 167.417,244.873 168.417,244.539 169.5,244.5 Z"/></g>
<g><path style="opacity:1" fill="#0b1011" d="M -0.5,199.5 C 0.5,200.167 1.5,200.833 2.5,201.5C 1.91057,205.971 2.57723,209.971 4.5,213.5C 3.16667,214.833 3.16667,216.167 4.5,217.5C 3.51836,220.962 3.18503,224.629 3.5,228.5C 3.5,230.833 3.5,233.167 3.5,235.5C 2.51658,239.298 2.18325,243.298 2.5,247.5C 2.5,248.167 2.5,248.833 2.5,249.5C 0.364697,251.06 0.198031,252.727 2,254.5C 2.49985,265.495 2.66651,276.495 2.5,287.5C 3.09219,290.631 2.09219,292.964 -0.5,294.5C -0.5,262.833 -0.5,231.167 -0.5,199.5 Z"/></g>
<g><path style="opacity:1" fill="#2b4b3d" d="M 209.5,275.5 C 207.011,275.702 204.677,275.202 202.5,274C 200.044,271.563 197.71,269.063 195.5,266.5C 196.203,264.284 197.536,262.451 199.5,261C 203.421,259.616 207.421,259.616 211.5,261C 211.093,263.887 211.76,266.72 213.5,269.5C 212.568,271.765 211.235,273.765 209.5,275.5 Z"/></g>
<g><path style="opacity:1" fill="#e6d4a1" d="M 123.5,260.5 C 123.893,262.284 124.559,263.95 125.5,265.5C 125.5,265.833 125.5,266.167 125.5,266.5C 123.951,271.282 120.617,273.615 115.5,273.5C 107.235,271.951 106.235,268.284 112.5,262.5C 116.372,262.758 120.039,262.091 123.5,260.5 Z"/></g>
<g><path style="opacity:1" fill="#ae967c" d="M 123.5,260.5 C 125.698,260.12 127.365,260.787 128.5,262.5C 128.19,264.144 127.19,265.144 125.5,265.5C 124.559,263.95 123.893,262.284 123.5,260.5 Z"/></g>
<g><path style="opacity:1" fill="#63644a" d="M 135.5,260.5 C 136.441,262.772 137.774,264.772 139.5,266.5C 136.739,267.593 135.073,269.593 134.5,272.5C 130.974,271.31 127.974,269.31 125.5,266.5C 125.5,266.167 125.5,265.833 125.5,265.5C 127.19,265.144 128.19,264.144 128.5,262.5C 130.772,261.681 133.106,261.015 135.5,260.5 Z"/></g>
<g><path style="opacity:1" fill="#d8bf8d" d="M 104.5,261.5 C 107.385,261.194 110.052,261.527 112.5,262.5C 106.235,268.284 107.235,271.951 115.5,273.5C 117.355,277.402 116.689,280.736 113.5,283.5C 112.833,283.5 112.167,283.5 111.5,283.5C 108.748,278.664 105.415,278.331 101.5,282.5C 99.2362,281.781 96.9029,281.448 94.5,281.5C 94.7709,279.62 94.1042,278.287 92.5,277.5C 93.4744,273.344 94.1411,269.344 94.5,265.5C 95.2905,264.599 96.2905,263.932 97.5,263.5C 99.8333,262.833 102.167,262.167 104.5,261.5 Z"/></g>
<g><path style="opacity:1" fill="#1f322c" d="M 190.5,263.5 C 191.899,264.89 193.566,265.89 195.5,266.5C 197.71,269.063 200.044,271.563 202.5,274C 204.677,275.202 207.011,275.702 209.5,275.5C 210.82,276.942 212.486,277.608 214.5,277.5C 214.344,280.066 214.678,282.566 215.5,285C 214.303,286.52 212.803,287.687 211,288.5C 209.92,291.237 210.754,292.904 213.5,293.5C 218.222,292.955 221.555,290.622 223.5,286.5C 227.197,286.964 230.697,287.964 234,289.5C 237.812,288.854 241.646,288.354 245.5,288C 248.151,285.476 247.984,283.309 245,281.5C 244.392,279.846 243.892,278.179 243.5,276.5C 244.815,275.524 246.148,274.524 247.5,273.5C 248.36,270.407 249.694,267.573 251.5,265C 255.618,263.708 258.785,264.875 261,268.5C 265.882,267.324 270.382,265.324 274.5,262.5C 275.183,262.863 275.85,263.196 276.5,263.5C 276.5,266.167 276.5,268.833 276.5,271.5C 272.22,275.606 267.72,279.606 263,283.5C 259.529,287.611 256.695,292.111 254.5,297C 251.754,298.75 248.754,299.75 245.5,300C 241.96,302.965 240.293,306.799 240.5,311.5C 226.5,311.5 212.5,311.5 198.5,311.5C 197.758,309.574 196.758,307.741 195.5,306C 190.162,303.248 184.495,301.582 178.5,301C 171.384,296.183 163.717,292.517 155.5,290C 151.935,286.604 148.602,283.104 145.5,279.5C 146.754,276.907 148.42,274.573 150.5,272.5C 155.202,271.921 159.869,271.088 164.5,270C 167.065,267.92 169.732,266.087 172.5,264.5C 177.485,265.691 182.318,265.024 187,262.5C 188.138,262.989 189.305,263.322 190.5,263.5 Z"/></g>
<g><path style="opacity:1" fill="#434b37" d="M 144.5,263.5 C 146.143,266.814 148.143,269.814 150.5,272.5C 148.42,274.573 146.754,276.907 145.5,279.5C 144.833,279.5 144.167,279.5 143.5,279.5C 142.609,278.89 141.609,278.557 140.5,278.5C 139.971,275.2 137.971,273.2 134.5,272.5C 135.073,269.593 136.739,267.593 139.5,266.5C 141.332,265.752 142.999,264.752 144.5,263.5 Z"/></g>
<g><path style="opacity:1" fill="#436437" d="M 41.5,271.5 C 37.9326,270.932 35.5993,268.932 34.5,265.5C 35.9464,264.387 37.6131,264.22 39.5,265C 41.363,267.118 42.0296,269.284 41.5,271.5 Z"/></g>
<g><path style="opacity:1" fill="#c9ac86" d="M 125.5,266.5 C 127.974,269.31 130.974,271.31 134.5,272.5C 137.971,273.2 139.971,275.2 140.5,278.5C 138.779,280.694 136.445,281.861 133.5,282C 127.513,282.998 121.513,283.832 115.5,284.5C 114.508,284.672 113.842,284.338 113.5,283.5C 116.689,280.736 117.355,277.402 115.5,273.5C 120.617,273.615 123.951,271.282 125.5,266.5 Z"/></g>
<g><path style="opacity:1" fill="#838944" d="M 92.5,277.5 C 94.1042,278.287 94.7709,279.62 94.5,281.5C 93.1667,281.5 91.8333,281.5 90.5,281.5C 82.8756,280.602 75.2089,280.269 67.5,280.5C 66.6935,279.272 65.6935,278.272 64.5,277.5C 65.299,274.57 65.6323,271.57 65.5,268.5C 67.1992,268.34 68.8659,268.506 70.5,269C 73.4005,270.742 76.4005,272.242 79.5,273.5C 83.9467,271.609 87.2801,272.776 89.5,277C 90.448,277.483 91.448,277.649 92.5,277.5 Z"/></g>
<g><path style="opacity:1" fill="#1a2e2e" d="M 241.5,275.5 C 238.763,278.402 235.596,280.735 232,282.5C 228.96,280.426 225.627,279.093 222,278.5C 220.648,280.594 220.148,282.927 220.5,285.5C 221.791,285.263 222.791,285.596 223.5,286.5C 221.555,290.622 218.222,292.955 213.5,293.5C 210.754,292.904 209.92,291.237 211,288.5C 212.803,287.687 214.303,286.52 215.5,285C 214.678,282.566 214.344,280.066 214.5,277.5C 216.719,275.425 218.719,273.091 220.5,270.5C 220.577,271.75 221.244,272.583 222.5,273C 224.833,273.667 227.167,273.667 229.5,273C 231.017,270.796 232.35,268.462 233.5,266C 235.488,265.82 237.488,265.986 239.5,266.5C 239.928,269.564 240.594,272.564 241.5,275.5 Z"/></g>
<g><path style="opacity:1" fill="#111918" d="M 276.5,271.5 C 276.5,276.5 276.5,281.5 276.5,286.5C 270.901,293.934 264.401,300.6 257,306.5C 255.991,308.025 255.491,309.692 255.5,311.5C 250.5,311.5 245.5,311.5 240.5,311.5C 240.293,306.799 241.96,302.965 245.5,300C 248.754,299.75 251.754,298.75 254.5,297C 256.695,292.111 259.529,287.611 263,283.5C 267.72,279.606 272.22,275.606 276.5,271.5 Z"/></g>
<g><path style="opacity:1" fill="#12231f" d="M 241.5,275.5 C 241.842,276.338 242.508,276.672 243.5,276.5C 243.892,278.179 244.392,279.846 245,281.5C 247.984,283.309 248.151,285.476 245.5,288C 241.646,288.354 237.812,288.854 234,289.5C 230.697,287.964 227.197,286.964 223.5,286.5C 222.791,285.596 221.791,285.263 220.5,285.5C 220.148,282.927 220.648,280.594 222,278.5C 225.627,279.093 228.96,280.426 232,282.5C 235.596,280.735 238.763,278.402 241.5,275.5 Z"/></g>
<g><path style="opacity:1" fill="#5b703b" d="M 64.5,277.5 C 65.6935,278.272 66.6935,279.272 67.5,280.5C 67.0831,281.124 66.4164,281.457 65.5,281.5C 62.1667,280.667 58.8333,279.833 55.5,279C 54.0577,278.623 53.0577,277.79 52.5,276.5C 53.2739,275.853 54.2739,275.52 55.5,275.5C 58.4373,276.47 61.4373,277.137 64.5,277.5 Z"/></g>
<g><path style="opacity:1" fill="#555051" d="M 140.5,278.5 C 141.609,278.557 142.609,278.89 143.5,279.5C 143.303,283.603 144.637,287.103 147.5,290C 147.01,291.982 146.01,293.649 144.5,295C 135.225,294.202 125.891,293.369 116.5,292.5C 115.906,289.734 115.573,287.068 115.5,284.5C 121.513,283.832 127.513,282.998 133.5,282C 136.445,281.861 138.779,280.694 140.5,278.5 Z"/></g>
<g><path style="opacity:1" fill="#ae8f75" d="M 111.5,283.5 C 108.609,284.403 105.609,284.736 102.5,284.5C 102.167,283.833 101.833,283.167 101.5,282.5C 105.415,278.331 108.748,278.664 111.5,283.5 Z"/></g>
<g><path style="opacity:1" fill="#383843" d="M 143.5,279.5 C 144.167,279.5 144.833,279.5 145.5,279.5C 148.602,283.104 151.935,286.604 155.5,290C 163.717,292.517 171.384,296.183 178.5,301C 184.495,301.582 190.162,303.248 195.5,306C 196.758,307.741 197.758,309.574 198.5,311.5C 173.5,311.5 148.5,311.5 123.5,311.5C 121.611,310.678 119.611,309.845 117.5,309C 112.971,305.636 108.971,301.803 105.5,297.5C 104.963,293.144 103.297,289.311 100.5,286C 101.044,285.283 101.711,284.783 102.5,284.5C 105.609,284.736 108.609,284.403 111.5,283.5C 112.167,283.5 112.833,283.5 113.5,283.5C 113.842,284.338 114.508,284.672 115.5,284.5C 115.573,287.068 115.906,289.734 116.5,292.5C 125.891,293.369 135.225,294.202 144.5,295C 146.01,293.649 147.01,291.982 147.5,290C 144.637,287.103 143.303,283.603 143.5,279.5 Z"/></g>
<g><path style="opacity:1" fill="#343636" d="M 90.5,281.5 C 91.8333,281.5 93.1667,281.5 94.5,281.5C 96.9029,281.448 99.2362,281.781 101.5,282.5C 101.833,283.167 102.167,283.833 102.5,284.5C 101.711,284.783 101.044,285.283 100.5,286C 103.297,289.311 104.963,293.144 105.5,297.5C 101.228,299.877 96.8947,299.877 92.5,297.5C 91.4464,291.992 90.7797,286.658 90.5,281.5 Z"/></g>
<g><path style="opacity:1" fill="#121f1f" d="M 38.5,311.5 C 35.5,311.5 32.5,311.5 29.5,311.5C 28.5178,308.237 27.8511,304.903 27.5,301.5C 24.8187,301.538 22.3187,300.871 20,299.5C 17.2162,301.28 14.7162,303.447 12.5,306C 9.22207,306.919 6.05541,308.086 3,309.5C 2.34045,306.953 2.50712,304.453 3.5,302C 3.00565,299.495 1.67232,297.661 -0.5,296.5C -0.5,295.833 -0.5,295.167 -0.5,294.5C 2.09219,292.964 3.09219,290.631 2.5,287.5C 6.07805,289.075 9.41139,291.075 12.5,293.5C 14.0879,291.887 15.0879,289.887 15.5,287.5C 16.6878,286.16 18.1878,285.493 20,285.5C 25.5761,287.046 30.0761,290.213 33.5,295C 36.4904,295.847 37.8238,294.68 37.5,291.5C 41.4134,291.241 43.7468,293.074 44.5,297C 41.0047,299.497 37.838,302.33 35,305.5C 34.51,306.793 34.3433,308.127 34.5,309.5C 36.3797,309.229 37.713,309.896 38.5,311.5 Z"/></g>
<g><path style="opacity:1" fill="#0b0c19" d="M 276.5,286.5 C 276.5,294.833 276.5,303.167 276.5,311.5C 269.5,311.5 262.5,311.5 255.5,311.5C 255.491,309.692 255.991,308.025 257,306.5C 264.401,300.6 270.901,293.934 276.5,286.5 Z"/></g>
<g><path style="opacity:1" fill="#0b1016" d="M -0.5,296.5 C 1.67232,297.661 3.00565,299.495 3.5,302C 2.50712,304.453 2.34045,306.953 3,309.5C 6.05541,308.086 9.22207,306.919 12.5,306C 14.7162,303.447 17.2162,301.28 20,299.5C 22.3187,300.871 24.8187,301.538 27.5,301.5C 27.8511,304.903 28.5178,308.237 29.5,311.5C 19.5,311.5 9.5,311.5 -0.5,311.5C -0.5,306.5 -0.5,301.5 -0.5,296.5 Z"/></g>
</svg>
