<?xml version="1.0" encoding="UTF-8"?>
<!DOCTYPE svg PUBLIC "-//W3C//DTD SVG 1.1//EN" "http://www.w3.org/Graphics/SVG/1.1/DTD/svg11.dtd">
<svg xmlns="http://www.w3.org/2000/svg" version="1.1" width="277px" height="312px" style="shape-rendering:geometricPrecision; text-rendering:geometricPrecision; image-rendering:optimizeQuality; fill-rule:evenodd; clip-rule:evenodd" xmlns:xlink="http://www.w3.org/1999/xlink">
<g><path style="opacity:1" fill="#251818" d="M -0.5,-0.5 C 91.8333,-0.5 184.167,-0.5 276.5,-0.5C 276.5,19.8333 276.5,40.1667 276.5,60.5C 275.5,60.5 274.5,60.5 273.5,60.5C 273.714,58.8561 273.38,57.3561 272.5,56C 270.203,55.9822 267.869,56.1489 265.5,56.5C 263.419,51.7861 262.085,46.7861 261.5,41.5C 259.089,41.1367 257.589,42.1367 257,44.5C 256.777,49.2497 256.277,53.9164 255.5,58.5C 252.733,58.8583 250.067,59.525 247.5,60.5C 245.832,58.5214 245.166,56.188 245.5,53.5C 243.167,53.5 240.833,53.5 238.5,53.5C 238.5,56.1667 238.5,58.8333 238.5,61.5C 236.958,62.3007 235.292,62.634 233.5,62.5C 232.839,59.2129 232.339,55.8796 232,52.5C 228.689,48.4732 225.689,48.8066 223,53.5C 222.341,56.8881 222.508,60.2214 223.5,63.5C 221.053,66.1715 221.053,68.8382 223.5,71.5C 216.349,73.4518 209.016,75.1185 201.5,76.5C 199.797,80.3163 201.13,82.1497 205.5,82C 206.163,83.5185 207.163,84.6851 208.5,85.5C 206.873,87.6298 205.04,89.6298 203,91.5C 201.991,93.0249 201.491,94.6916 201.5,96.5C 199.464,98.2057 198.464,100.539 198.5,103.5C 196.654,105.03 195.654,107.03 195.5,109.5C 195.984,112.951 195.984,116.284 195.5,119.5C 191.587,121.37 191.587,123.37 195.5,125.5C 204.499,124.806 213.499,124.139 222.5,123.5C 232.035,123.576 241.369,122.909 250.5,121.5C 258.22,121.762 265.887,121.262 273.5,120C 275.192,118.599 275.859,116.766 275.5,114.5C 275.5,109.167 275.5,103.833 275.5,98.5C 275.833,98.5 276.167,98.5 276.5,98.5C 276.5,120.167 276.5,141.833 276.5,163.5C 275.671,155.343 275.171,147.01 275,138.5C 273.818,136.643 272.151,135.643 270,135.5C 267.65,137.342 265.15,139.009 262.5,140.5C 252.535,139.459 242.535,139.459 232.5,140.5C 227.013,141.886 221.679,141.552 216.5,139.5C 213.112,138.214 211.112,139.547 210.5,143.5C 207.167,144.833 203.833,144.833 200.5,143.5C 196.587,142.404 192.587,142.238 188.5,143C 187.864,145.394 187.864,147.894 188.5,150.5C 186.474,153.518 184.474,156.518 182.5,159.5C 181.527,161.948 181.194,164.615 181.5,167.5C 180.395,168.6 179.062,169.267 177.5,169.5C 176.209,169.737 175.209,169.404 174.5,168.5C 173.93,160.225 170.597,158.558 164.5,163.5C 159.848,163.998 155.181,164.331 150.5,164.5C 147.315,155.242 140.981,151.742 131.5,154C 127.812,156.542 126.146,160.042 126.5,164.5C 126.876,169.333 127.876,174 129.5,178.5C 127.801,178.527 126.467,179.194 125.5,180.5C 121.092,180.062 119.425,182.062 120.5,186.5C 120.389,187.117 120.056,187.617 119.5,188C 117.527,188.495 115.527,188.662 113.5,188.5C 113.034,163.67 112.701,138.837 112.5,114C 112.383,95.9924 112.883,78.1591 114,60.5C 102.113,56.4316 89.9467,52.9316 77.5,50C 64.501,48.3755 51.6676,45.8755 39,42.5C 37.0287,42.2814 35.8621,43.1147 35.5,45C 36.2229,47.5533 37.5562,49.72 39.5,51.5C 47.3129,54.2869 55.3129,56.4536 63.5,58C 65.0557,58.7202 66.0557,59.8868 66.5,61.5C 65.1103,62.8993 64.1103,64.5659 63.5,66.5C 57.1001,68.2246 51.1001,70.8913 45.5,74.5C 42.3957,71.8991 39.3957,69.0657 36.5,66C 34.7216,65.296 32.8882,64.796 31,64.5C 27.2079,65.3102 23.3745,65.6436 19.5,65.5C 18.9265,63.2121 17.9265,61.0454 16.5,59C 12.9296,57.6905 9.26296,56.8572 5.5,56.5C 4.04125,56.5674 2.70792,56.2341 1.5,55.5C 2.15327,37.1356 1.48661,19.1356 -0.5,1.5C -0.5,0.833333 -0.5,0.166667 -0.5,-0.5 Z"/></g>
<g><path style="opacity:1" fill="#c0dae6" d="M -0.5,1.5 C 1.48661,19.1356 2.15327,37.1356 1.5,55.5C 1.67571,60.8797 1.34238,66.213 0.5,71.5C 0.166667,71.5 -0.166667,71.5 -0.5,71.5C -0.5,48.1667 -0.5,24.8333 -0.5,1.5 Z"/></g>
<g><path style="opacity:1" fill="#4a2b1e" d="M 265.5,56.5 C 262.344,57.4339 259.011,58.1006 255.5,58.5C 256.277,53.9164 256.777,49.2497 257,44.5C 257.589,42.1367 259.089,41.1367 261.5,41.5C 262.085,46.7861 263.419,51.7861 265.5,56.5 Z"/></g>
<g><path style="opacity:1" fill="#694b2a" d="M 176.5,58.5 C 176.834,61.188 176.168,63.5214 174.5,65.5C 173.833,65.5 173.167,65.5 172.5,65.5C 172.178,61.0243 169.844,59.5243 165.5,61C 164.944,61.3826 164.611,61.8826 164.5,62.5C 163.167,62.5 161.833,62.5 160.5,62.5C 160.167,61.8333 159.833,61.1667 159.5,60.5C 160.043,60.44 160.376,60.1067 160.5,59.5C 159.048,57.3585 158.048,55.0252 157.5,52.5C 159.55,52.0388 161.55,51.3721 163.5,50.5C 168.428,52.4511 172.761,55.1177 176.5,58.5 Z"/></g>
<g><path style="opacity:1" fill="#554a4a" d="M 233.5,62.5 C 230.272,63.4137 226.939,63.7471 223.5,63.5C 222.508,60.2214 222.341,56.8881 223,53.5C 225.689,48.8066 228.689,48.4732 232,52.5C 232.339,55.8796 232.839,59.2129 233.5,62.5 Z"/></g>
<g><path style="opacity:1" fill="#503224" d="M 247.5,60.5 C 244.609,61.4025 241.609,61.7359 238.5,61.5C 238.5,58.8333 238.5,56.1667 238.5,53.5C 240.833,53.5 243.167,53.5 245.5,53.5C 245.166,56.188 245.832,58.5214 247.5,60.5 Z"/></g>
<g><path style="opacity:1" fill="#7c5137" d="M 273.5,60.5 C 271.852,61.9265 269.852,62.7599 267.5,63C 252.854,66.0294 238.187,68.8627 223.5,71.5C 221.053,68.8382 221.053,66.1715 223.5,63.5C 226.939,63.7471 230.272,63.4137 233.5,62.5C 235.292,62.634 236.958,62.3007 238.5,61.5C 241.609,61.7359 244.609,61.4025 247.5,60.5C 250.067,59.525 252.733,58.8583 255.5,58.5C 259.011,58.1006 262.344,57.4339 265.5,56.5C 267.869,56.1489 270.203,55.9822 272.5,56C 273.38,57.3561 273.714,58.8561 273.5,60.5 Z"/></g>
<g><path style="opacity:1" fill="#54372b" d="M 113.5,188.5 C 113.5,192.833 113.5,197.167 113.5,201.5C 110.57,202.299 107.57,202.632 104.5,202.5C 104.83,184.326 104.497,166.326 103.5,148.5C 103.831,124.994 103.498,101.661 102.5,78.5C 102.979,74.0887 102.312,69.922 100.5,66C 93.9066,63.3708 87.0732,61.5375 80,60.5C 78.5657,60.8618 77.3991,61.5285 76.5,62.5C 73.2716,60.5828 69.9382,60.2495 66.5,61.5C 66.0557,59.8868 65.0557,58.7202 63.5,58C 55.3129,56.4536 47.3129,54.2869 39.5,51.5C 37.5562,49.72 36.2229,47.5533 35.5,45C 35.8621,43.1147 37.0287,42.2814 39,42.5C 51.6676,45.8755 64.501,48.3755 77.5,50C 89.9467,52.9316 102.113,56.4316 114,60.5C 112.883,78.1591 112.383,95.9924 112.5,114C 112.701,138.837 113.034,163.67 113.5,188.5 Z"/></g>
<g><path style="opacity:1" fill="#593b25" d="M 186.5,60.5 C 189.276,68.2063 189.109,75.8729 186,83.5C 181.73,89.5455 177.23,89.8789 172.5,84.5C 175.33,82.1574 177.163,79.1574 178,75.5C 178.748,73.1599 178.248,71.1599 176.5,69.5C 176.267,67.9382 175.6,66.6049 174.5,65.5C 176.168,63.5214 176.834,61.188 176.5,58.5C 176.811,57.5222 177.478,56.8555 178.5,56.5C 181.409,57.4238 184.076,58.7572 186.5,60.5 Z"/></g>
<g><path style="opacity:1" fill="#596678" d="M 5.5,56.5 C 9.26296,56.8572 12.9296,57.6905 16.5,59C 17.9265,61.0454 18.9265,63.2121 19.5,65.5C 21.4529,79.6706 23.4529,93.8372 25.5,108C 24.5886,111.463 22.5886,114.13 19.5,116C 18.2506,116.74 17.2506,116.573 16.5,115.5C 17.7576,112.306 18.4242,108.973 18.5,105.5C 16.8333,105.5 15.1667,105.5 13.5,105.5C 13.6893,109.037 13.0226,112.37 11.5,115.5C 9.98261,115.489 8.81595,114.823 8,113.5C 7.31911,110.804 6.15244,108.471 4.5,106.5C 4.33499,103.15 4.50166,99.8168 5,96.5C 10.5709,95.0069 10.9043,92.6736 6,89.5C 5.50015,78.505 5.33349,67.505 5.5,56.5 Z"/></g>
<g><path style="opacity:1" fill="#3b271e" d="M 186.5,60.5 C 184.076,58.7572 181.409,57.4238 178.5,56.5C 177.478,56.8555 176.811,57.5222 176.5,58.5C 172.761,55.1177 168.428,52.4511 163.5,50.5C 161.55,51.3721 159.55,52.0388 157.5,52.5C 152.578,53.5579 150.245,56.3912 150.5,61C 148.623,62.1853 146.623,63.1853 144.5,64C 141.613,66.8886 141.113,70.0553 143,73.5C 144.11,75.0368 145.61,75.7035 147.5,75.5C 148.002,78.6685 149.669,81.0019 152.5,82.5C 152.5,83.5 152.5,84.5 152.5,85.5C 151.167,85.5 149.833,85.5 148.5,85.5C 148.838,88.1569 148.171,90.4902 146.5,92.5C 143.366,90.8563 140.533,88.8563 138,86.5C 137.333,79.5 137.333,72.5 138,65.5C 138.848,63.1257 140.181,61.1257 142,59.5C 143.285,59.9504 144.452,60.6171 145.5,61.5C 145.833,60.8333 146.167,60.1667 146.5,59.5C 145.5,57.5 144.5,55.5 143.5,53.5C 143.529,51.9707 144.196,50.804 145.5,50C 153.38,45.9028 161.713,44.9028 170.5,47C 174.638,51.0691 179.638,53.5691 185.5,54.5C 187.486,56.3945 187.819,58.3945 186.5,60.5 Z"/></g>
<g><path style="opacity:1" fill="#956a4a" d="M 76.5,62.5 C 78.4121,64.6572 80.0787,66.9906 81.5,69.5C 80.5987,70.2905 79.9321,71.2905 79.5,72.5C 77.1949,71.0106 74.8616,69.5106 72.5,68C 69.5929,67.2815 66.9262,67.7815 64.5,69.5C 63.8902,68.609 63.5569,67.609 63.5,66.5C 64.1103,64.5659 65.1103,62.8993 66.5,61.5C 69.9382,60.2495 73.2716,60.5828 76.5,62.5 Z"/></g>
<g><path style="opacity:1" fill="#181211" d="M 102.5,78.5 C 100.302,78.1201 98.6354,78.7868 97.5,80.5C 91.6169,77.6142 86.2836,73.9475 81.5,69.5C 80.0787,66.9906 78.4121,64.6572 76.5,62.5C 77.3991,61.5285 78.5657,60.8618 80,60.5C 87.0732,61.5375 93.9066,63.3708 100.5,66C 102.312,69.922 102.979,74.0887 102.5,78.5 Z"/></g>
<g><path style="opacity:1" fill="#c09c5c" d="M 159.5,60.5 C 159.833,61.1667 160.167,61.8333 160.5,62.5C 160.389,63.1174 160.056,63.6174 159.5,64C 156.48,64.9011 153.48,65.7345 150.5,66.5C 151.506,61.8129 154.506,59.8129 159.5,60.5 Z"/></g>
<g><path style="opacity:1" fill="#c09c56" d="M 172.5,65.5 C 170.199,64.9396 167.866,64.4396 165.5,64C 164.944,63.6174 164.611,63.1174 164.5,62.5C 164.611,61.8826 164.944,61.3826 165.5,61C 169.844,59.5243 172.178,61.0243 172.5,65.5 Z"/></g>
<g><path style="opacity:1" fill="#261212" d="M 273.5,60.5 C 274.5,60.5 275.5,60.5 276.5,60.5C 276.5,73.1667 276.5,85.8333 276.5,98.5C 276.167,98.5 275.833,98.5 275.5,98.5C 274.272,97.6935 273.272,96.6935 272.5,95.5C 272.608,93.4862 271.942,91.8195 270.5,90.5C 270.48,84.9282 268.314,83.5949 264,86.5C 263.098,86.2568 262.265,85.9234 261.5,85.5C 261.167,84.8333 260.833,84.1667 260.5,83.5C 260.663,81.1432 260.497,78.8098 260,76.5C 257.761,75.1308 255.927,75.6308 254.5,78C 244.992,79.7009 235.658,82.0342 226.5,85C 223.493,85.3013 220.493,85.1346 217.5,84.5C 217.038,83.1201 216.038,82.4534 214.5,82.5C 212.952,84.3764 210.952,85.3764 208.5,85.5C 207.163,84.6851 206.163,83.5185 205.5,82C 201.13,82.1497 199.797,80.3163 201.5,76.5C 209.016,75.1185 216.349,73.4518 223.5,71.5C 238.187,68.8627 252.854,66.0294 267.5,63C 269.852,62.7599 271.852,61.9265 273.5,60.5 Z"/></g>
<g><path style="opacity:1" fill="#f2f3e0" d="M 160.5,62.5 C 161.833,62.5 163.167,62.5 164.5,62.5C 164.611,63.1174 164.944,63.6174 165.5,64C 167.866,64.4396 170.199,64.9396 172.5,65.5C 173.167,65.5 173.833,65.5 174.5,65.5C 175.6,66.6049 176.267,67.9382 176.5,69.5C 174.268,70.8689 171.934,71.8689 169.5,72.5C 167.139,72.6741 164.806,73.0074 162.5,73.5C 159.213,72.8386 155.88,72.3386 152.5,72C 151.058,71.6232 150.058,70.7899 149.5,69.5C 149.263,68.209 149.596,67.209 150.5,66.5C 153.48,65.7345 156.48,64.9011 159.5,64C 160.056,63.6174 160.389,63.1174 160.5,62.5 Z"/></g>
<g><path style="opacity:1" fill="#5c3925" d="M 157.5,52.5 C 158.048,55.0252 159.048,57.3585 160.5,59.5C 160.376,60.1067 160.043,60.44 159.5,60.5C 154.506,59.8129 151.506,61.8129 150.5,66.5C 149.596,67.209 149.263,68.209 149.5,69.5C 146.533,70.7624 145.866,72.7624 147.5,75.5C 145.61,75.7035 144.11,75.0368 143,73.5C 141.113,70.0553 141.613,66.8886 144.5,64C 146.623,63.1853 148.623,62.1853 150.5,61C 150.245,56.3912 152.578,53.5579 157.5,52.5 Z"/></g>
<g><path style="opacity:1" fill="#1f1e24" d="M 45.5,74.5 C 45.0472,75.4584 44.3805,76.2917 43.5,77C 43.8333,77.3333 44.1667,77.6667 44.5,78C 47.4371,78.3614 50.2704,77.8614 53,76.5C 53.9021,76.7432 54.7354,77.0766 55.5,77.5C 54.6993,79.0418 54.366,80.7085 54.5,82.5C 50.4689,85.027 47.4689,88.527 45.5,93C 46.2779,95.3899 47.4445,97.5566 49,99.5C 49.7181,106.701 51.2181,113.701 53.5,120.5C 53.2756,124.179 52.9422,127.846 52.5,131.5C 51.4667,134.986 50.6334,138.653 50,142.5C 48.2746,167.872 46.1079,193.205 43.5,218.5C 44.0457,223.743 46.7123,227.576 51.5,230C 55.4862,230.499 59.4862,230.666 63.5,230.5C 63.5,230.833 63.5,231.167 63.5,231.5C 62.8519,233.086 62.3519,234.753 62,236.5C 59.0788,238.712 55.9121,240.545 52.5,242C 51.7511,243.734 51.2511,245.567 51,247.5C 46.6718,250.788 41.8385,252.288 36.5,252C 35,250.5 33.5,249 32,247.5C 28.5947,248.355 25.4281,249.688 22.5,251.5C 17.6728,246.957 12.6728,246.957 7.5,251.5C 7.16667,251.5 6.83333,251.5 6.5,251.5C 4.34715,248.288 4.01382,244.955 5.5,241.5C 11.6971,240.149 13.8638,236.482 12,230.5C 14.3451,227.823 17.0117,225.49 20,223.5C 20.1667,222.667 20.3333,221.833 20.5,221C 16.5184,205.612 13.0184,190.112 10,174.5C 8.55575,172.845 6.72241,172.178 4.5,172.5C 3.98007,167.131 4.98007,162.131 7.5,157.5C 5.63819,154.098 4.63819,150.431 4.5,146.5C 3.16667,146.5 1.83333,146.5 0.5,146.5C 0.643276,142.857 0.643276,139.523 0.5,136.5C 1.83333,126.833 1.83333,117.167 0.5,107.5C 1.70792,106.766 3.04125,106.433 4.5,106.5C 6.15244,108.471 7.31911,110.804 8,113.5C 8.81595,114.823 9.98261,115.489 11.5,115.5C 13.1667,115.5 14.8333,115.5 16.5,115.5C 17.2506,116.573 18.2506,116.74 19.5,116C 22.5886,114.13 24.5886,111.463 25.5,108C 23.4529,93.8372 21.4529,79.6706 19.5,65.5C 23.3745,65.6436 27.2079,65.3102 31,64.5C 32.8882,64.796 34.7216,65.296 36.5,66C 39.3957,69.0657 42.3957,71.8991 45.5,74.5 Z"/></g>
<g><path style="opacity:1" fill="#1e1918" d="M 79.5,72.5 C 81.1392,73.4725 82.4726,74.8058 83.5,76.5C 81.1078,77.7128 78.4411,78.3795 75.5,78.5C 70.4169,77.7145 65.4169,77.7145 60.5,78.5C 60.5,77.8333 60.1667,77.5 59.5,77.5C 58.7314,73.2754 60.3981,70.6087 64.5,69.5C 66.9262,67.7815 69.5929,67.2815 72.5,68C 74.8616,69.5106 77.1949,71.0106 79.5,72.5 Z"/></g>
<g><path style="opacity:1" fill="#573e33" d="M 63.5,66.5 C 63.5569,67.609 63.8902,68.609 64.5,69.5C 60.3981,70.6087 58.7314,73.2754 59.5,77.5C 58.1667,77.5 56.8333,77.5 55.5,77.5C 54.7354,77.0766 53.9021,76.7432 53,76.5C 50.2704,77.8614 47.4371,78.3614 44.5,78C 44.1667,77.6667 43.8333,77.3333 43.5,77C 44.3805,76.2917 45.0472,75.4584 45.5,74.5C 51.1001,70.8913 57.1001,68.2246 63.5,66.5 Z"/></g>
<g><path style="opacity:1" fill="#7f532d" d="M 149.5,69.5 C 150.058,70.7899 151.058,71.6232 152.5,72C 155.88,72.3386 159.213,72.8386 162.5,73.5C 164.808,79.2434 168.141,79.9101 172.5,75.5C 171.812,74.1451 170.812,73.1451 169.5,72.5C 171.934,71.8689 174.268,70.8689 176.5,69.5C 178.248,71.1599 178.748,73.1599 178,75.5C 177.163,79.1574 175.33,82.1574 172.5,84.5C 170.757,85.0856 168.924,85.4189 167,85.5C 162.296,84.1813 157.463,83.1813 152.5,82.5C 149.669,81.0019 148.002,78.6685 147.5,75.5C 145.866,72.7624 146.533,70.7624 149.5,69.5 Z"/></g>
<g><path style="opacity:1" fill="#a1763d" d="M 169.5,72.5 C 170.812,73.1451 171.812,74.1451 172.5,75.5C 168.141,79.9101 164.808,79.2434 162.5,73.5C 164.806,73.0074 167.139,72.6741 169.5,72.5 Z"/></g>
<g><path style="opacity:1" fill="#312524" d="M 83.5,76.5 C 85.369,78.6353 86.0356,81.3019 85.5,84.5C 84.1667,84.8333 82.8333,85.1667 81.5,85.5C 80.6024,83.3731 78.9357,82.2065 76.5,82C 72.1667,81.3333 67.8333,81.3333 63.5,82C 62.944,82.3826 62.6107,82.8826 62.5,83.5C 61.0687,82.2196 60.4021,80.5529 60.5,78.5C 65.4169,77.7145 70.4169,77.7145 75.5,78.5C 78.4411,78.3795 81.1078,77.7128 83.5,76.5 Z"/></g>
<g><path style="opacity:1" fill="#655345" d="M 81.5,69.5 C 86.2836,73.9475 91.6169,77.6142 97.5,80.5C 97.5,81.5 97.5,82.5 97.5,83.5C 95.5992,83.5668 93.7659,83.2335 92,82.5C 89.7197,82.8942 89.2197,83.8942 90.5,85.5C 88.8333,86.8333 87.1667,86.8333 85.5,85.5C 85.5,85.1667 85.5,84.8333 85.5,84.5C 86.0356,81.3019 85.369,78.6353 83.5,76.5C 82.4726,74.8058 81.1392,73.4725 79.5,72.5C 79.9321,71.2905 80.5987,70.2905 81.5,69.5 Z"/></g>
<g><path style="opacity:1" fill="#496269" d="M -0.5,71.5 C -0.166667,71.5 0.166667,71.5 0.5,71.5C 0.614465,83.3925 0.614465,95.3925 0.5,107.5C 1.83333,117.167 1.83333,126.833 0.5,136.5C 0.166667,136.5 -0.166667,136.5 -0.5,136.5C -0.5,114.833 -0.5,93.1667 -0.5,71.5 Z"/></g>
<g><path style="opacity:1" fill="#1e1218" d="M 102.5,78.5 C 103.498,101.661 103.831,124.994 103.5,148.5C 101.883,149.038 100.216,149.371 98.5,149.5C 96.8333,145.5 95.1667,141.5 93.5,137.5C 92.7328,133.302 91.3995,129.302 89.5,125.5C 89.5,123.167 89.5,120.833 89.5,118.5C 90.3326,114.295 91.6659,110.128 93.5,106C 91.0946,99.3753 90.0946,92.5419 90.5,85.5C 89.2197,83.8942 89.7197,82.8942 92,82.5C 93.7659,83.2335 95.5992,83.5668 97.5,83.5C 97.5,82.5 97.5,81.5 97.5,80.5C 98.6354,78.7868 100.302,78.1201 102.5,78.5 Z"/></g>
<g><path style="opacity:1" fill="#908a88" d="M 55.5,77.5 C 56.8333,77.5 58.1667,77.5 59.5,77.5C 60.1667,77.5 60.5,77.8333 60.5,78.5C 60.4021,80.5529 61.0687,82.2196 62.5,83.5C 62.7993,86.6421 64.4659,88.8088 67.5,90C 71.1667,90.6667 74.8333,90.6667 78.5,90C 79.3994,88.3484 80.3994,86.8484 81.5,85.5C 82.8333,85.1667 84.1667,84.8333 85.5,84.5C 85.5,84.8333 85.5,85.1667 85.5,85.5C 85.4612,93.2022 84.1279,100.536 81.5,107.5C 77.4142,104.539 74.7475,105.539 73.5,110.5C 72.2101,109.942 71.3768,108.942 71,107.5C 69.8635,103.757 68.5302,100.09 67,96.5C 66,95.8333 65,95.1667 64,94.5C 63.2917,95.3805 62.4584,96.0472 61.5,96.5C 60.5041,96.5858 59.6708,96.2524 59,95.5C 58.769,91.4159 58.1024,87.4159 57,83.5C 56.3292,82.7476 55.4959,82.4142 54.5,82.5C 54.366,80.7085 54.6993,79.0418 55.5,77.5 Z"/></g>
<g><path style="opacity:1" fill="#1e1918" d="M 81.5,85.5 C 80.3994,86.8484 79.3994,88.3484 78.5,90C 74.8333,90.6667 71.1667,90.6667 67.5,90C 64.4659,88.8088 62.7993,86.6421 62.5,83.5C 62.6107,82.8826 62.944,82.3826 63.5,82C 67.8333,81.3333 72.1667,81.3333 76.5,82C 78.9357,82.2065 80.6024,83.3731 81.5,85.5 Z"/></g>
<g><path style="opacity:1" fill="#3a201a" d="M 260.5,83.5 C 257.682,83.6574 255.682,84.9908 254.5,87.5C 252.208,86.3761 250.042,85.0427 248,83.5C 239.47,84.779 237.303,89.1123 241.5,96.5C 238.74,100.43 236.74,104.763 235.5,109.5C 234.311,110.429 232.978,110.762 231.5,110.5C 232.196,104.498 229.529,102.165 223.5,103.5C 222.041,103.567 220.708,103.234 219.5,102.5C 217.817,98.3694 217.15,94.0361 217.5,89.5C 217.5,87.8333 217.5,86.1667 217.5,84.5C 220.493,85.1346 223.493,85.3013 226.5,85C 235.658,82.0342 244.992,79.7009 254.5,78C 255.927,75.6308 257.761,75.1308 260,76.5C 260.497,78.8098 260.663,81.1432 260.5,83.5 Z"/></g>
<g><path style="opacity:1" fill="#6f7d88" d="M 54.5,82.5 C 55.4959,82.4142 56.3292,82.7476 57,83.5C 58.1024,87.4159 58.769,91.4159 59,95.5C 59.6708,96.2524 60.5041,96.5858 61.5,96.5C 61.634,98.2915 61.3007,99.9582 60.5,101.5C 60.2962,104.518 59.9629,107.518 59.5,110.5C 58.2329,113.061 58.2329,115.728 59.5,118.5C 57.5,119.167 55.5,119.833 53.5,120.5C 51.2181,113.701 49.7181,106.701 49,99.5C 47.4445,97.5566 46.2779,95.3899 45.5,93C 47.4689,88.527 50.4689,85.027 54.5,82.5 Z"/></g>
<g><path style="opacity:1" fill="#43322a" d="M 217.5,84.5 C 217.5,86.1667 217.5,87.8333 217.5,89.5C 216.142,88.3744 214.808,88.3744 213.5,89.5C 212.985,93.6644 211.985,97.6644 210.5,101.5C 210.167,102.167 209.833,102.833 209.5,103.5C 208.292,104.234 206.959,104.567 205.5,104.5C 204.833,104.5 204.5,104.167 204.5,103.5C 204.536,100.539 203.536,98.2057 201.5,96.5C 201.491,94.6916 201.991,93.0249 203,91.5C 205.04,89.6298 206.873,87.6298 208.5,85.5C 210.952,85.3764 212.952,84.3764 214.5,82.5C 216.038,82.4534 217.038,83.1201 217.5,84.5 Z"/></g>
<g><path style="opacity:1" fill="#1f282f" d="M 1.5,55.5 C 2.70792,56.2341 4.04125,56.5674 5.5,56.5C 5.33349,67.505 5.50015,78.505 6,89.5C 10.9043,92.6736 10.5709,95.0069 5,96.5C 4.50166,99.8168 4.33499,103.15 4.5,106.5C 3.04125,106.433 1.70792,106.766 0.5,107.5C 0.614465,95.3925 0.614465,83.3925 0.5,71.5C 1.34238,66.213 1.67571,60.8797 1.5,55.5 Z"/></g>
<g><path style="opacity:1" fill="#45271c" d="M 254.5,87.5 C 253.566,95.111 253.233,102.778 253.5,110.5C 253.5,111.833 253.5,113.167 253.5,114.5C 252.609,115.11 251.609,115.443 250.5,115.5C 249.542,109.256 249.209,102.923 249.5,96.5C 248.5,96.5 247.5,96.5 246.5,96.5C 246.035,102.9 245.368,109.234 244.5,115.5C 242.833,115.5 241.167,115.5 239.5,115.5C 238.876,115.083 238.543,114.416 238.5,113.5C 239.869,108.56 241.536,103.727 243.5,99C 243.361,97.699 242.695,96.8656 241.5,96.5C 237.303,89.1123 239.47,84.779 248,83.5C 250.042,85.0427 252.208,86.3761 254.5,87.5 Z"/></g>
<g><path style="opacity:1" fill="#432b1e" d="M 270.5,90.5 C 268.61,90.2965 267.11,90.9632 266,92.5C 265.297,97.6947 265.464,102.861 266.5,108C 266.125,110.289 265.459,112.455 264.5,114.5C 263.833,114.5 263.167,114.5 262.5,114.5C 261.659,112.621 261.325,110.621 261.5,108.5C 260.167,100.833 260.167,93.1667 261.5,85.5C 262.265,85.9234 263.098,86.2568 264,86.5C 268.314,83.5949 270.48,84.9282 270.5,90.5 Z"/></g>
<g><path style="opacity:1" fill="#e4ddbe" d="M 85.5,85.5 C 87.1667,86.8333 88.8333,86.8333 90.5,85.5C 90.0946,92.5419 91.0946,99.3753 93.5,106C 91.6659,110.128 90.3326,114.295 89.5,118.5C 86.2716,120.417 82.9382,120.751 79.5,119.5C 79.5,117.833 79.5,116.167 79.5,114.5C 80.6118,112.401 81.2785,110.067 81.5,107.5C 84.1279,100.536 85.4612,93.2022 85.5,85.5 Z"/></g>
<g><path style="opacity:1" fill="#d9ceb4" d="M 73.5,110.5 C 73.5,111.5 73.5,112.5 73.5,113.5C 74.1667,116.167 74.8333,118.833 75.5,121.5C 75.1667,121.5 74.8333,121.5 74.5,121.5C 73.5178,120.859 72.5178,120.193 71.5,119.5C 69.02,114.54 66.52,109.54 64,104.5C 62.9609,103.29 61.7942,102.29 60.5,101.5C 61.3007,99.9582 61.634,98.2915 61.5,96.5C 62.4584,96.0472 63.2917,95.3805 64,94.5C 65,95.1667 66,95.8333 67,96.5C 68.5302,100.09 69.8635,103.757 71,107.5C 71.3768,108.942 72.2101,109.942 73.5,110.5 Z"/></g>
<g><path style="opacity:1" fill="#563224" d="M 272.5,95.5 C 273.272,96.6935 274.272,97.6935 275.5,98.5C 275.5,103.833 275.5,109.167 275.5,114.5C 274.292,113.766 272.959,113.433 271.5,113.5C 270.834,109.53 270.168,105.53 269.5,101.5C 270.129,99.2592 271.129,97.2592 272.5,95.5 Z"/></g>
<g><path style="opacity:1" fill="#695d4a" d="M 201.5,96.5 C 203.536,98.2057 204.536,100.539 204.5,103.5C 202.5,102.167 200.5,102.167 198.5,103.5C 198.464,100.539 199.464,98.2057 201.5,96.5 Z"/></g>
<g><path style="opacity:1" fill="#806d5b" d="M 217.5,89.5 C 217.15,94.0361 217.817,98.3694 219.5,102.5C 219.167,103.167 218.833,103.833 218.5,104.5C 216.202,102.539 213.535,101.539 210.5,101.5C 211.985,97.6644 212.985,93.6644 213.5,89.5C 214.808,88.3744 216.142,88.3744 217.5,89.5 Z"/></g>
<g><path style="opacity:1" fill="#6f3e24" d="M 241.5,96.5 C 242.695,96.8656 243.361,97.699 243.5,99C 241.536,103.727 239.869,108.56 238.5,113.5C 238.543,114.416 238.876,115.083 239.5,115.5C 236.947,116.255 234.28,116.922 231.5,117.5C 230.314,115.208 230.314,112.874 231.5,110.5C 232.978,110.762 234.311,110.429 235.5,109.5C 236.74,104.763 238.74,100.43 241.5,96.5 Z"/></g>
<g><path style="opacity:1" fill="#693e24" d="M 250.5,115.5 C 249.5,115.5 248.5,115.5 247.5,115.5C 246.5,115.5 245.5,115.5 244.5,115.5C 245.368,109.234 246.035,102.9 246.5,96.5C 247.5,96.5 248.5,96.5 249.5,96.5C 249.209,102.923 249.542,109.256 250.5,115.5 Z"/></g>
<g><path style="opacity:1" fill="#b79368" d="M 260.5,83.5 C 260.833,84.1667 261.167,84.8333 261.5,85.5C 260.167,93.1667 260.167,100.833 261.5,108.5C 259.118,110.046 256.451,110.713 253.5,110.5C 253.233,102.778 253.566,95.111 254.5,87.5C 255.682,84.9908 257.682,83.6574 260.5,83.5 Z"/></g>
<g><path style="opacity:1" fill="#71412a" d="M 270.5,90.5 C 271.942,91.8195 272.608,93.4862 272.5,95.5C 271.129,97.2592 270.129,99.2592 269.5,101.5C 270.168,105.53 270.834,109.53 271.5,113.5C 269.283,114.369 266.95,114.702 264.5,114.5C 265.459,112.455 266.125,110.289 266.5,108C 265.464,102.861 265.297,97.6947 266,92.5C 267.11,90.9632 268.61,90.2965 270.5,90.5 Z"/></g>
<g><path style="opacity:1" fill="#b4afa1" d="M 60.5,101.5 C 61.7942,102.29 62.9609,103.29 64,104.5C 66.52,109.54 69.02,114.54 71.5,119.5C 72.5178,120.193 73.5178,120.859 74.5,121.5C 74.5,121.833 74.5,122.167 74.5,122.5C 71.7508,122.726 69.0841,122.393 66.5,121.5C 64.8945,117.27 62.5611,113.603 59.5,110.5C 59.9629,107.518 60.2962,104.518 60.5,101.5 Z"/></g>
<g><path style="opacity:1" fill="#b4a888" d="M 210.5,101.5 C 213.535,101.539 216.202,102.539 218.5,104.5C 218.771,106.38 218.104,107.713 216.5,108.5C 214.167,109.833 211.833,109.833 209.5,108.5C 209.5,106.833 209.5,105.167 209.5,103.5C 209.833,102.833 210.167,102.167 210.5,101.5 Z"/></g>
<g><path style="opacity:1" fill="#aea282" d="M 204.5,103.5 C 204.5,104.167 204.833,104.5 205.5,104.5C 205.5,106.167 205.5,107.833 205.5,109.5C 204.391,109.557 203.391,109.89 202.5,110.5C 200.05,110.702 197.717,110.369 195.5,109.5C 195.654,107.03 196.654,105.03 198.5,103.5C 200.5,102.167 202.5,102.167 204.5,103.5 Z"/></g>
<g><path style="opacity:1" fill="#374450" d="M 16.5,115.5 C 14.8333,115.5 13.1667,115.5 11.5,115.5C 13.0226,112.37 13.6893,109.037 13.5,105.5C 15.1667,105.5 16.8333,105.5 18.5,105.5C 18.4242,108.973 17.7576,112.306 16.5,115.5 Z"/></g>
<g><path style="opacity:1" fill="#5c5d56" d="M 81.5,107.5 C 81.2785,110.067 80.6118,112.401 79.5,114.5C 77.4352,114.483 75.4352,114.15 73.5,113.5C 73.5,112.5 73.5,111.5 73.5,110.5C 74.7475,105.539 77.4142,104.539 81.5,107.5 Z"/></g>
<g><path style="opacity:1" fill="#593426" d="M 219.5,102.5 C 220.708,103.234 222.041,103.567 223.5,103.5C 223.506,108.19 222.839,112.856 221.5,117.5C 220.167,117.5 218.833,117.5 217.5,117.5C 216.706,114.492 216.373,111.492 216.5,108.5C 218.104,107.713 218.771,106.38 218.5,104.5C 218.833,103.833 219.167,103.167 219.5,102.5 Z"/></g>
<g><path style="opacity:1" fill="#744d35" d="M 209.5,103.5 C 209.5,105.167 209.5,106.833 209.5,108.5C 211.833,109.833 214.167,109.833 216.5,108.5C 216.373,111.492 216.706,114.492 217.5,117.5C 214.713,118.477 211.713,118.81 208.5,118.5C 209.555,115.927 209.722,113.261 209,110.5C 207.989,109.663 206.822,109.33 205.5,109.5C 205.5,107.833 205.5,106.167 205.5,104.5C 206.959,104.567 208.292,104.234 209.5,103.5 Z"/></g>
<g><path style="opacity:1" fill="#956a43" d="M 261.5,108.5 C 261.325,110.621 261.659,112.621 262.5,114.5C 259.396,115.775 256.396,115.775 253.5,114.5C 253.5,113.167 253.5,111.833 253.5,110.5C 256.451,110.713 259.118,110.046 261.5,108.5 Z"/></g>
<g><path style="opacity:1" fill="#6f4b31" d="M 195.5,109.5 C 197.717,110.369 200.05,110.702 202.5,110.5C 201.167,113.167 201.167,115.833 202.5,118.5C 200.393,119.468 198.059,119.802 195.5,119.5C 195.984,116.284 195.984,112.951 195.5,109.5 Z"/></g>
<g><path style="opacity:1" fill="#4a3224" d="M 205.5,109.5 C 206.822,109.33 207.989,109.663 209,110.5C 209.722,113.261 209.555,115.927 208.5,118.5C 206.5,118.5 204.5,118.5 202.5,118.5C 201.167,115.833 201.167,113.167 202.5,110.5C 203.391,109.89 204.391,109.557 205.5,109.5 Z"/></g>
<g><path style="opacity:1" fill="#945935" d="M 223.5,103.5 C 229.529,102.165 232.196,104.498 231.5,110.5C 230.314,112.874 230.314,115.208 231.5,117.5C 228.167,117.5 224.833,117.5 221.5,117.5C 222.839,112.856 223.506,108.19 223.5,103.5 Z"/></g>
<g><path style="opacity:1" fill="#887d75" d="M 73.5,113.5 C 75.4352,114.15 77.4352,114.483 79.5,114.5C 79.5,116.167 79.5,117.833 79.5,119.5C 79.1667,120.167 78.8333,120.833 78.5,121.5C 77.5,121.5 76.5,121.5 75.5,121.5C 74.8333,118.833 74.1667,116.167 73.5,113.5 Z"/></g>
<g><path style="opacity:1" fill="#bd7f49" d="M 271.5,113.5 C 272.959,113.433 274.292,113.766 275.5,114.5C 275.859,116.766 275.192,118.599 273.5,120C 265.887,121.262 258.22,121.762 250.5,121.5C 248.755,119.967 247.755,117.967 247.5,115.5C 248.5,115.5 249.5,115.5 250.5,115.5C 251.609,115.443 252.609,115.11 253.5,114.5C 256.396,115.775 259.396,115.775 262.5,114.5C 263.167,114.5 263.833,114.5 264.5,114.5C 266.95,114.702 269.283,114.369 271.5,113.5 Z"/></g>
<g><path style="opacity:1" fill="#cd9656" d="M 239.5,115.5 C 241.167,115.5 242.833,115.5 244.5,115.5C 245.5,115.5 246.5,115.5 247.5,115.5C 247.755,117.967 248.755,119.967 250.5,121.5C 241.369,122.909 232.035,123.576 222.5,123.5C 221.85,121.565 221.517,119.565 221.5,117.5C 224.833,117.5 228.167,117.5 231.5,117.5C 234.28,116.922 236.947,116.255 239.5,115.5 Z"/></g>
<g><path style="opacity:1" fill="#b47d4a" d="M 217.5,117.5 C 218.833,117.5 220.167,117.5 221.5,117.5C 221.517,119.565 221.85,121.565 222.5,123.5C 213.499,124.139 204.499,124.806 195.5,125.5C 191.587,123.37 191.587,121.37 195.5,119.5C 198.059,119.802 200.393,119.468 202.5,118.5C 204.5,118.5 206.5,118.5 208.5,118.5C 211.713,118.81 214.713,118.477 217.5,117.5 Z"/></g>
<g><path style="opacity:1" fill="#5c6469" d="M 59.5,118.5 C 61.0507,120.913 61.7174,123.579 61.5,126.5C 59.8958,127.287 59.2291,128.62 59.5,130.5C 57.0972,131.704 54.7638,132.038 52.5,131.5C 52.9422,127.846 53.2756,124.179 53.5,120.5C 55.5,119.833 57.5,119.167 59.5,118.5 Z"/></g>
<g><path style="opacity:1" fill="#c0af95" d="M 89.5,118.5 C 89.5,120.833 89.5,123.167 89.5,125.5C 86.1667,126.167 82.8333,126.833 79.5,127.5C 78.6586,125.621 78.3253,123.621 78.5,121.5C 78.8333,120.833 79.1667,120.167 79.5,119.5C 82.9382,120.751 86.2716,120.417 89.5,118.5 Z"/></g>
<g><path style="opacity:1" fill="#84807d" d="M 59.5,110.5 C 62.5611,113.603 64.8945,117.27 66.5,121.5C 69.0841,122.393 71.7508,122.726 74.5,122.5C 74.5,123.833 74.5,125.167 74.5,126.5C 70.1555,127.726 65.8221,127.726 61.5,126.5C 61.7174,123.579 61.0507,120.913 59.5,118.5C 58.2329,115.728 58.2329,113.061 59.5,110.5 Z"/></g>
<g><path style="opacity:1" fill="#3d3632" d="M 74.5,121.5 C 74.8333,121.5 75.1667,121.5 75.5,121.5C 76.5,121.5 77.5,121.5 78.5,121.5C 78.3253,123.621 78.6586,125.621 79.5,127.5C 79.4038,135.585 80.0705,143.585 81.5,151.5C 80.1667,151.5 78.8333,151.5 77.5,151.5C 77.0889,147.779 76.4222,144.112 75.5,140.5C 75.8195,135.637 75.4861,130.97 74.5,126.5C 74.5,125.167 74.5,123.833 74.5,122.5C 74.5,122.167 74.5,121.833 74.5,121.5 Z"/></g>
<g><path style="opacity:1" fill="#e4d7b9" d="M 89.5,125.5 C 91.3995,129.302 92.7328,133.302 93.5,137.5C 92.5416,137.953 91.7083,138.619 91,139.5C 90.3438,146.621 90.8438,153.621 92.5,160.5C 91.1147,161.614 89.6147,162.614 88,163.5C 87.7134,175.551 88.2134,187.551 89.5,199.5C 89.5,205.833 89.5,212.167 89.5,218.5C 87.1667,218.5 84.8333,218.5 82.5,218.5C 82.2601,215.421 82.5934,212.421 83.5,209.5C 81.6375,207.138 80.4709,204.471 80,201.5C 78.9882,195.204 78.4882,188.871 78.5,182.5C 77.4497,176.564 76.9497,170.564 77,164.5C 78.6995,163.594 80.5328,163.261 82.5,163.5C 81.8379,159.534 81.5045,155.534 81.5,151.5C 80.0705,143.585 79.4038,135.585 79.5,127.5C 82.8333,126.833 86.1667,126.167 89.5,125.5 Z"/></g>
<g><path style="opacity:1" fill="#9b968e" d="M 61.5,126.5 C 65.8221,127.726 70.1555,127.726 74.5,126.5C 75.4861,130.97 75.8195,135.637 75.5,140.5C 72.4401,138.037 70.1067,135.037 68.5,131.5C 67.9671,145.153 67.8004,158.82 68,172.5C 67.0266,174.392 66.3599,176.392 66,178.5C 65.6667,188.5 65.3333,198.5 65,208.5C 64.6174,209.056 64.1174,209.389 63.5,209.5C 61.1858,194.369 59.5191,179.036 58.5,163.5C 60.451,163.773 61.951,163.107 63,161.5C 63.7576,151.466 63.591,141.466 62.5,131.5C 61.5,131.5 60.5,131.5 59.5,131.5C 59.5,131.167 59.5,130.833 59.5,130.5C 59.2291,128.62 59.8958,127.287 61.5,126.5 Z"/></g>
<g><path style="opacity:1" fill="#6f7b87" d="M 59.5,130.5 C 59.5,130.833 59.5,131.167 59.5,131.5C 58.5462,142.115 58.2129,152.782 58.5,163.5C 59.5191,179.036 61.1858,194.369 63.5,209.5C 62.2003,216.53 62.2003,223.53 63.5,230.5C 59.4862,230.666 55.4862,230.499 51.5,230C 46.7123,227.576 44.0457,223.743 43.5,218.5C 46.1079,193.205 48.2746,167.872 50,142.5C 50.6334,138.653 51.4667,134.986 52.5,131.5C 54.7638,132.038 57.0972,131.704 59.5,130.5 Z"/></g>
<g><path style="opacity:1" fill="#aeafa1" d="M 59.5,131.5 C 60.5,131.5 61.5,131.5 62.5,131.5C 63.591,141.466 63.7576,151.466 63,161.5C 61.951,163.107 60.451,163.773 58.5,163.5C 58.2129,152.782 58.5462,142.115 59.5,131.5 Z"/></g>
<g><path style="opacity:1" fill="#c6b9a6" d="M 75.5,140.5 C 76.4222,144.112 77.0889,147.779 77.5,151.5C 78.8333,151.5 80.1667,151.5 81.5,151.5C 81.5045,155.534 81.8379,159.534 82.5,163.5C 80.5328,163.261 78.6995,163.594 77,164.5C 76.9497,170.564 77.4497,176.564 78.5,182.5C 76.9582,183.301 75.2915,183.634 73.5,183.5C 73.3334,197.837 73.5001,212.171 74,226.5C 74.3826,227.056 74.8826,227.389 75.5,227.5C 73.4157,230.706 70.4157,232.039 66.5,231.5C 65.5,231.5 64.5,231.5 63.5,231.5C 63.5,231.167 63.5,230.833 63.5,230.5C 62.2003,223.53 62.2003,216.53 63.5,209.5C 64.1174,209.389 64.6174,209.056 65,208.5C 65.3333,198.5 65.6667,188.5 66,178.5C 66.3599,176.392 67.0266,174.392 68,172.5C 67.8004,158.82 67.9671,145.153 68.5,131.5C 70.1067,135.037 72.4401,138.037 75.5,140.5 Z"/></g>
<g><path style="opacity:1" fill="#6b3d28" d="M 276.5,163.5 C 276.5,163.833 276.5,164.167 276.5,164.5C 275.833,170.167 275.167,175.833 274.5,181.5C 268.673,180.348 262.673,179.848 256.5,180C 255.54,181.419 254.707,182.919 254,184.5C 253.329,185.252 252.496,185.586 251.5,185.5C 249.5,185.167 247.5,184.833 245.5,184.5C 243.973,184.573 242.973,183.906 242.5,182.5C 242.244,178.731 242.577,175.064 243.5,171.5C 244.5,171.5 245.5,171.5 246.5,171.5C 249.654,170.905 252.654,170.905 255.5,171.5C 256.048,175.961 257.715,176.461 260.5,173C 263.914,172.703 267.247,172.036 270.5,171C 271.337,169.989 271.67,168.822 271.5,167.5C 270.167,167.5 268.833,167.5 267.5,167.5C 267.5,166.167 267.5,164.833 267.5,163.5C 268.833,159.833 268.833,156.167 267.5,152.5C 268.147,151.726 268.48,150.726 268.5,149.5C 268.36,147.97 267.693,146.97 266.5,146.5C 265.708,144.115 264.374,142.115 262.5,140.5C 265.15,139.009 267.65,137.342 270,135.5C 272.151,135.643 273.818,136.643 275,138.5C 275.171,147.01 275.671,155.343 276.5,163.5 Z"/></g>
<g><path style="opacity:1" fill="#b4a88e" d="M 93.5,137.5 C 95.1667,141.5 96.8333,145.5 98.5,149.5C 98.8954,153.185 99.0621,156.852 99,160.5C 97.6244,161.705 96.4577,163.038 95.5,164.5C 93.0882,164.306 92.0882,162.973 92.5,160.5C 90.8438,153.621 90.3438,146.621 91,139.5C 91.7083,138.619 92.5416,137.953 93.5,137.5 Z"/></g>
<g><path style="opacity:1" fill="#8e5d3d" d="M 216.5,139.5 C 216.091,142.811 214.924,145.811 213,148.5C 211.628,147.09 210.795,145.423 210.5,143.5C 211.112,139.547 213.112,138.214 216.5,139.5 Z"/></g>
<g><path style="opacity:1" fill="#6a3f2d" d="M 216.5,139.5 C 221.679,141.552 227.013,141.886 232.5,140.5C 232.586,141.496 232.252,142.329 231.5,143C 229.754,143.471 228.087,144.138 226.5,145C 224.548,147.737 222.048,149.904 219,151.5C 217.838,156.768 217.004,162.102 216.5,167.5C 214.53,168.162 212.53,168.828 210.5,169.5C 208.359,167.878 206.692,165.878 205.5,163.5C 205.5,162.5 205.5,161.5 205.5,160.5C 203.573,157.233 201.239,154.233 198.5,151.5C 199.167,148.833 199.833,146.167 200.5,143.5C 203.833,144.833 207.167,144.833 210.5,143.5C 210.795,145.423 211.628,147.09 213,148.5C 214.924,145.811 216.091,142.811 216.5,139.5 Z"/></g>
<g><path style="opacity:1" fill="#8b5733" d="M 262.5,140.5 C 264.374,142.115 265.708,144.115 266.5,146.5C 263.629,147.986 262.295,146.986 262.5,143.5C 259.886,143.277 258.219,144.444 257.5,147C 255.238,148.047 253.071,149.213 251,150.5C 248.064,148.814 244.897,147.814 241.5,147.5C 236.271,148.994 230.938,150.328 225.5,151.5C 225.823,156.195 225.323,160.861 224,165.5C 221.865,167.278 219.365,167.945 216.5,167.5C 217.004,162.102 217.838,156.768 219,151.5C 222.048,149.904 224.548,147.737 226.5,145C 228.087,144.138 229.754,143.471 231.5,143C 232.252,142.329 232.586,141.496 232.5,140.5C 242.535,139.459 252.535,139.459 262.5,140.5 Z"/></g>
<g><path style="opacity:1" fill="#b4a288" d="M 200.5,143.5 C 199.833,146.167 199.167,148.833 198.5,151.5C 195.061,151.747 191.728,151.414 188.5,150.5C 187.864,147.894 187.864,145.394 188.5,143C 192.587,142.238 196.587,142.404 200.5,143.5 Z"/></g>
<g><path style="opacity:1" fill="#1c2321" d="M 0.5,146.5 C 1.83333,146.5 3.16667,146.5 4.5,146.5C 4.63819,150.431 5.63819,154.098 7.5,157.5C 4.98007,162.131 3.98007,167.131 4.5,172.5C 4.32579,195.531 4.65912,218.531 5.5,241.5C 4.01382,244.955 4.34715,248.288 6.5,251.5C 5.5,251.833 4.83333,252.5 4.5,253.5C 3.29208,252.766 1.95875,252.433 0.5,252.5C 0.812775,248.958 0.479442,245.625 -0.5,242.5C -0.5,228.5 -0.5,214.5 -0.5,200.5C 0.869469,192.37 1.53614,184.037 1.5,175.5C 0.924408,165.811 0.591075,156.144 0.5,146.5 Z"/></g>
<g><path style="opacity:1" fill="#ac6e3d" d="M 266.5,146.5 C 267.693,146.97 268.36,147.97 268.5,149.5C 268.48,150.726 268.147,151.726 267.5,152.5C 264.819,152.538 262.319,151.871 260,150.5C 257.953,151.609 255.787,152.276 253.5,152.5C 253.5,154.833 253.5,157.167 253.5,159.5C 243.2,156.399 237.866,160.065 237.5,170.5C 234.432,172.196 231.098,173.53 227.5,174.5C 227.137,175.183 226.804,175.85 226.5,176.5C 220.03,172.156 213.03,170.489 205.5,171.5C 204.167,168.833 204.167,166.167 205.5,163.5C 206.692,165.878 208.359,167.878 210.5,169.5C 212.53,168.828 214.53,168.162 216.5,167.5C 219.365,167.945 221.865,167.278 224,165.5C 225.323,160.861 225.823,156.195 225.5,151.5C 230.938,150.328 236.271,148.994 241.5,147.5C 244.897,147.814 248.064,148.814 251,150.5C 253.071,149.213 255.238,148.047 257.5,147C 258.219,144.444 259.886,143.277 262.5,143.5C 262.295,146.986 263.629,147.986 266.5,146.5 Z"/></g>
<g><path style="opacity:1" fill="#e5e3c4" d="M 188.5,150.5 C 191.728,151.414 195.061,151.747 198.5,151.5C 201.239,154.233 203.573,157.233 205.5,160.5C 201.448,160.888 197.448,161.555 193.5,162.5C 189.886,161.179 186.22,160.179 182.5,159.5C 184.474,156.518 186.474,153.518 188.5,150.5 Z"/></g>
<g><path style="opacity:1" fill="#c08343" d="M 267.5,152.5 C 268.833,156.167 268.833,159.833 267.5,163.5C 264.871,162.286 262.204,162.286 259.5,163.5C 259.241,159.932 257.241,158.599 253.5,159.5C 253.5,157.167 253.5,154.833 253.5,152.5C 255.787,152.276 257.953,151.609 260,150.5C 262.319,151.871 264.819,152.538 267.5,152.5 Z"/></g>
<g><path style="opacity:1" fill="#1e1218" d="M 150.5,164.5 C 148.836,167.866 148.003,171.533 148,175.5C 147.292,176.381 146.458,177.047 145.5,177.5C 140.195,178.194 134.862,178.528 129.5,178.5C 127.876,174 126.876,169.333 126.5,164.5C 126.146,160.042 127.812,156.542 131.5,154C 140.981,151.742 147.315,155.242 150.5,164.5 Z"/></g>
<g><path style="opacity:1" fill="#94ad5c" d="M -0.5,136.5 C -0.166667,136.5 0.166667,136.5 0.5,136.5C 0.643276,139.523 0.643276,142.857 0.5,146.5C 0.591075,156.144 0.924408,165.811 1.5,175.5C 0.833333,175.833 0.166667,176.167 -0.5,176.5C -0.5,163.167 -0.5,149.833 -0.5,136.5 Z"/></g>
<g><path style="opacity:1" fill="#ba8f63" d="M 231.5,158.5 C 232.117,158.611 232.617,158.944 233,159.5C 233.667,162.167 233.667,164.833 233,167.5C 229.601,170.316 228.101,169.316 228.5,164.5C 228.073,161.644 229.073,159.644 231.5,158.5 Z"/></g>
<g><path style="opacity:1" fill="#251919" d="M 103.5,148.5 C 104.497,166.326 104.83,184.326 104.5,202.5C 104.5,206.5 104.5,210.5 104.5,214.5C 102.708,214.366 101.042,214.699 99.5,215.5C 98.371,198.489 97.0376,181.489 95.5,164.5C 96.4577,163.038 97.6244,161.705 99,160.5C 99.0621,156.852 98.8954,153.185 98.5,149.5C 100.216,149.371 101.883,149.038 103.5,148.5 Z"/></g>
<g><path style="opacity:1" fill="#c7bba1" d="M 92.5,160.5 C 92.0882,162.973 93.0882,164.306 95.5,164.5C 97.0376,181.489 98.371,198.489 99.5,215.5C 99.7271,217.933 98.7271,219.599 96.5,220.5C 94.2218,215.917 93.8885,211.084 95.5,206C 94.9221,204.189 94.4221,202.355 94,200.5C 92.6439,199.62 91.1439,199.286 89.5,199.5C 88.2134,187.551 87.7134,175.551 88,163.5C 89.6147,162.614 91.1147,161.614 92.5,160.5 Z"/></g>
<g><path style="opacity:1" fill="#bc9158" d="M 174.5,168.5 C 167.269,176.152 163.935,174.485 164.5,163.5C 170.597,158.558 173.93,160.225 174.5,168.5 Z"/></g>
<g><path style="opacity:1" fill="#c4874f" d="M 182.5,159.5 C 186.22,160.179 189.886,161.179 193.5,162.5C 197.448,161.555 201.448,160.888 205.5,160.5C 205.5,161.5 205.5,162.5 205.5,163.5C 204.167,166.167 204.167,168.833 205.5,171.5C 203.918,173.374 201.918,174.707 199.5,175.5C 195.833,175.833 193.833,177.833 193.5,181.5C 192.5,181.5 191.5,181.5 190.5,181.5C 188.059,182.756 185.726,182.756 183.5,181.5C 184.146,179.844 184.813,178.177 185.5,176.5C 185.457,175.584 185.124,174.917 184.5,174.5C 183.989,171.978 182.989,169.645 181.5,167.5C 181.194,164.615 181.527,161.948 182.5,159.5 Z"/></g>
<g><path style="opacity:1" fill="#d29546" d="M 253.5,159.5 C 257.241,158.599 259.241,159.932 259.5,163.5C 257.243,166.801 254.243,168.134 250.5,167.5C 248.192,167.965 246.858,169.299 246.5,171.5C 245.5,171.5 244.5,171.5 243.5,171.5C 241.735,170.539 239.735,170.205 237.5,170.5C 237.866,160.065 243.2,156.399 253.5,159.5 Z"/></g>
<g><path style="opacity:1" fill="#a56f3b" d="M 267.5,163.5 C 267.5,164.833 267.5,166.167 267.5,167.5C 268.833,167.5 270.167,167.5 271.5,167.5C 271.67,168.822 271.337,169.989 270.5,171C 267.247,172.036 263.914,172.703 260.5,173C 257.715,176.461 256.048,175.961 255.5,171.5C 252.654,170.905 249.654,170.905 246.5,171.5C 246.858,169.299 248.192,167.965 250.5,167.5C 254.243,168.134 257.243,166.801 259.5,163.5C 262.204,162.286 264.871,162.286 267.5,163.5 Z"/></g>
<g><path style="opacity:1" fill="#a17d50" d="M 181.5,167.5 C 182.989,169.645 183.989,171.978 184.5,174.5C 181.57,175.299 178.57,175.632 175.5,175.5C 175.704,173.315 176.37,171.315 177.5,169.5C 179.062,169.267 180.395,168.6 181.5,167.5 Z"/></g>
<g><path style="opacity:1" fill="#e5ddbc" d="M 226.5,176.5 C 227.5,177.167 228.5,177.833 229.5,178.5C 229.834,181.491 228.834,183.824 226.5,185.5C 224.249,183.854 222.582,181.687 221.5,179C 219.803,178.616 218.137,178.782 216.5,179.5C 212.17,180.34 207.837,180.84 203.5,181C 201.535,179.544 200.201,177.71 199.5,175.5C 201.918,174.707 203.918,173.374 205.5,171.5C 213.03,170.489 220.03,172.156 226.5,176.5 Z"/></g>
<g><path style="opacity:1" fill="#9b6038" d="M 237.5,170.5 C 239.735,170.205 241.735,170.539 243.5,171.5C 242.577,175.064 242.244,178.731 242.5,182.5C 238.163,181.165 233.829,179.832 229.5,178.5C 228.5,177.833 227.5,177.167 226.5,176.5C 226.804,175.85 227.137,175.183 227.5,174.5C 231.098,173.53 234.432,172.196 237.5,170.5 Z"/></g>
<g><path style="opacity:1" fill="#785537" d="M 164.5,163.5 C 163.935,174.485 167.269,176.152 174.5,168.5C 175.209,169.404 176.209,169.737 177.5,169.5C 176.37,171.315 175.704,173.315 175.5,175.5C 178.57,175.632 181.57,175.299 184.5,174.5C 185.124,174.917 185.457,175.584 185.5,176.5C 184.813,178.177 184.146,179.844 183.5,181.5C 183.167,181.5 182.833,181.5 182.5,181.5C 179.282,179.816 176.615,180.483 174.5,183.5C 174.167,183.5 173.833,183.5 173.5,183.5C 170.038,182.518 166.371,182.185 162.5,182.5C 157.105,182.733 151.772,182.4 146.5,181.5C 146.567,180.041 146.234,178.708 145.5,177.5C 146.458,177.047 147.292,176.381 148,175.5C 148.003,171.533 148.836,167.866 150.5,164.5C 155.181,164.331 159.848,163.998 164.5,163.5 Z"/></g>
<g><path style="opacity:1" fill="#253244" d="M 4.5,172.5 C 6.72241,172.178 8.55575,172.845 10,174.5C 13.0184,190.112 16.5184,205.612 20.5,221C 20.3333,221.833 20.1667,222.667 20,223.5C 17.0117,225.49 14.3451,227.823 12,230.5C 13.8638,236.482 11.6971,240.149 5.5,241.5C 4.65912,218.531 4.32579,195.531 4.5,172.5 Z"/></g>
<g><path style="opacity:1" fill="#b48f56" d="M 149.5,174.5 C 153.555,174.176 157.555,174.509 161.5,175.5C 161.709,176.086 162.043,176.586 162.5,177C 159.028,178.58 155.362,178.913 151.5,178C 150.177,177.184 149.511,176.017 149.5,174.5 Z"/></g>
<g><path style="opacity:1" fill="#808e50" d="M 1.5,175.5 C 1.53614,184.037 0.869469,192.37 -0.5,200.5C -0.5,192.5 -0.5,184.5 -0.5,176.5C 0.166667,176.167 0.833333,175.833 1.5,175.5 Z"/></g>
<g><path style="opacity:1" fill="#d3c8a1" d="M 199.5,175.5 C 200.201,177.71 201.535,179.544 203.5,181C 207.837,180.84 212.17,180.34 216.5,179.5C 216.5,180.833 216.5,182.167 216.5,183.5C 212.578,184.106 208.745,185.106 205,186.5C 201.705,183.603 197.872,181.936 193.5,181.5C 193.833,177.833 195.833,175.833 199.5,175.5 Z"/></g>
<g><path style="opacity:1" fill="#ccb170" d="M 145.5,177.5 C 146.234,178.708 146.567,180.041 146.5,181.5C 146.167,182.833 145.833,184.167 145.5,185.5C 139.214,184.321 132.881,183.321 126.5,182.5C 126.137,181.817 125.804,181.15 125.5,180.5C 126.467,179.194 127.801,178.527 129.5,178.5C 134.862,178.528 140.195,178.194 145.5,177.5 Z"/></g>
<g><path style="opacity:1" fill="#89603a" d="M 274.5,181.5 C 272.678,183.234 270.345,184.234 267.5,184.5C 266.614,185.325 266.281,186.325 266.5,187.5C 263.864,188.824 261.198,188.824 258.5,187.5C 256.697,188.137 255.364,189.303 254.5,191C 252.934,191.765 251.601,191.598 250.5,190.5C 251.301,188.958 251.634,187.292 251.5,185.5C 252.496,185.586 253.329,185.252 254,184.5C 254.707,182.919 255.54,181.419 256.5,180C 262.673,179.848 268.673,180.348 274.5,181.5 Z"/></g>
<g><path style="opacity:1" fill="#cdb582" d="M 182.5,181.5 C 180.7,183.05 178.533,184.05 176,184.5C 175.617,183.944 175.117,183.611 174.5,183.5C 176.615,180.483 179.282,179.816 182.5,181.5 Z"/></g>
<g><path style="opacity:1" fill="#a68753" d="M 146.5,181.5 C 151.772,182.4 157.105,182.733 162.5,182.5C 162.5,184.167 162.5,185.833 162.5,187.5C 156.821,186.899 151.155,186.232 145.5,185.5C 145.833,184.167 146.167,182.833 146.5,181.5 Z"/></g>
<g><path style="opacity:1" fill="#ecedd3" d="M 182.5,181.5 C 182.833,181.5 183.167,181.5 183.5,181.5C 185.726,182.756 188.059,182.756 190.5,181.5C 194.327,184.742 194.327,188.075 190.5,191.5C 184.928,190.142 179.262,189.309 173.5,189C 172.584,188.722 171.918,188.222 171.5,187.5C 172.345,186.329 173.011,184.995 173.5,183.5C 173.833,183.5 174.167,183.5 174.5,183.5C 175.117,183.611 175.617,183.944 176,184.5C 178.533,184.05 180.7,183.05 182.5,181.5 Z"/></g>
<g><path style="opacity:1" fill="#d9d4ba" d="M 190.5,181.5 C 191.5,181.5 192.5,181.5 193.5,181.5C 197.872,181.936 201.705,183.603 205,186.5C 208.745,185.106 212.578,184.106 216.5,183.5C 217.451,184.919 217.784,186.585 217.5,188.5C 214.882,190.033 212.216,191.366 209.5,192.5C 207.833,193.167 206.167,193.833 204.5,194.5C 201.692,193.071 198.692,192.405 195.5,192.5C 193.585,192.784 191.919,192.451 190.5,191.5C 194.327,188.075 194.327,184.742 190.5,181.5 Z"/></g>
<g><path style="opacity:1" fill="#ad8a62" d="M 229.5,178.5 C 233.829,179.832 238.163,181.165 242.5,182.5C 242.973,183.906 243.973,184.573 245.5,184.5C 246.234,185.708 246.567,187.041 246.5,188.5C 241.638,188.118 236.972,188.784 232.5,190.5C 230.684,188.559 228.684,187.892 226.5,188.5C 226.5,187.5 226.5,186.5 226.5,185.5C 228.834,183.824 229.834,181.491 229.5,178.5 Z"/></g>
<g><path style="opacity:1" fill="#8e8f8e" d="M 78.5,182.5 C 78.4882,188.871 78.9882,195.204 80,201.5C 80.4709,204.471 81.6375,207.138 83.5,209.5C 82.5934,212.421 82.2601,215.421 82.5,218.5C 82.31,222.032 82.9767,225.365 84.5,228.5C 81.5701,227.701 78.5701,227.368 75.5,227.5C 74.8826,227.389 74.3826,227.056 74,226.5C 73.5001,212.171 73.3334,197.837 73.5,183.5C 75.2915,183.634 76.9582,183.301 78.5,182.5 Z"/></g>
<g><path style="opacity:1" fill="#cdaf69" d="M 162.5,182.5 C 166.371,182.185 170.038,182.518 173.5,183.5C 173.011,184.995 172.345,186.329 171.5,187.5C 170.833,187.833 170.167,188.167 169.5,188.5C 167.236,187.781 164.903,187.448 162.5,187.5C 162.5,185.833 162.5,184.167 162.5,182.5 Z"/></g>
<g><path style="opacity:1" fill="#3c2a1f" d="M 276.5,164.5 C 276.5,177.167 276.5,189.833 276.5,202.5C 276.167,202.5 275.833,202.5 275.5,202.5C 275.5,199.5 275.5,196.5 275.5,193.5C 275.5,192.167 275.5,190.833 275.5,189.5C 273.708,189.366 272.042,189.699 270.5,190.5C 269.564,189.026 268.23,188.026 266.5,187.5C 266.281,186.325 266.614,185.325 267.5,184.5C 270.345,184.234 272.678,183.234 274.5,181.5C 275.167,175.833 275.833,170.167 276.5,164.5 Z"/></g>
<g><path style="opacity:1" fill="#c1ae95" d="M 226.5,185.5 C 226.5,186.5 226.5,187.5 226.5,188.5C 225.833,188.5 225.167,188.5 224.5,188.5C 222.412,188.135 220.079,188.135 217.5,188.5C 217.784,186.585 217.451,184.919 216.5,183.5C 216.5,182.167 216.5,180.833 216.5,179.5C 218.137,178.782 219.803,178.616 221.5,179C 222.582,181.687 224.249,183.854 226.5,185.5 Z"/></g>
<g><path style="opacity:1" fill="#1f1818" d="M 120.5,186.5 C 122.584,188.83 125.251,189.997 128.5,190C 141.629,192.352 154.795,194.519 168,196.5C 168.765,196.43 169.265,196.097 169.5,195.5C 171.591,200.191 172.924,205.191 173.5,210.5C 164.941,211.659 156.608,210.659 148.5,207.5C 146.866,207.968 145.7,208.968 145,210.5C 144.501,216.157 144.334,221.824 144.5,227.5C 137.399,227.131 130.399,226.131 123.5,224.5C 123.567,225.959 123.234,227.292 122.5,228.5C 118.997,228.871 115.997,227.871 113.5,225.5C 113.5,217.5 113.5,209.5 113.5,201.5C 113.5,197.167 113.5,192.833 113.5,188.5C 115.527,188.662 117.527,188.495 119.5,188C 120.056,187.617 120.389,187.117 120.5,186.5 Z"/></g>
<g><path style="opacity:1" fill="#342121" d="M 125.5,180.5 C 125.804,181.15 126.137,181.817 126.5,182.5C 132.881,183.321 139.214,184.321 145.5,185.5C 151.155,186.232 156.821,186.899 162.5,187.5C 164.903,187.448 167.236,187.781 169.5,188.5C 169.5,189.5 169.5,190.5 169.5,191.5C 169.5,192.833 169.5,194.167 169.5,195.5C 169.265,196.097 168.765,196.43 168,196.5C 154.795,194.519 141.629,192.352 128.5,190C 125.251,189.997 122.584,188.83 120.5,186.5C 119.425,182.062 121.092,180.062 125.5,180.5 Z"/></g>
<g><path style="opacity:1" fill="#957d5c" d="M 224.5,188.5 C 223.608,191.292 221.608,192.625 218.5,192.5C 218.5,193.833 218.5,195.167 218.5,196.5C 214.712,196.691 211.712,195.358 209.5,192.5C 212.216,191.366 214.882,190.033 217.5,188.5C 220.079,188.135 222.412,188.135 224.5,188.5 Z"/></g>
<g><path style="opacity:1" fill="#61412d" d="M 266.5,187.5 C 268.23,188.026 269.564,189.026 270.5,190.5C 269.34,191.265 268.34,192.265 267.5,193.5C 270.156,194.614 272.823,194.614 275.5,193.5C 275.5,196.5 275.5,199.5 275.5,202.5C 273.5,202.833 271.5,203.167 269.5,203.5C 269.5,203.167 269.5,202.833 269.5,202.5C 270.234,201.292 270.567,199.959 270.5,198.5C 267.833,198.5 265.167,198.5 262.5,198.5C 262.5,199.833 262.5,201.167 262.5,202.5C 258.267,202.461 254.267,201.795 250.5,200.5C 251.608,197.302 250.274,195.635 246.5,195.5C 246.369,192.633 247.703,190.967 250.5,190.5C 251.601,191.598 252.934,191.765 254.5,191C 255.364,189.303 256.697,188.137 258.5,187.5C 261.198,188.824 263.864,188.824 266.5,187.5 Z"/></g>
<g><path style="opacity:1" fill="#d3a869" d="M 224.5,188.5 C 225.167,188.5 225.833,188.5 226.5,188.5C 228.684,187.892 230.684,188.559 232.5,190.5C 231.989,193.022 230.989,195.355 229.5,197.5C 228.883,197.611 228.383,197.944 228,198.5C 225.049,196.924 221.883,196.257 218.5,196.5C 218.5,195.167 218.5,193.833 218.5,192.5C 221.608,192.625 223.608,191.292 224.5,188.5 Z"/></g>
<g><path style="opacity:1" fill="#969695" d="M 171.5,187.5 C 171.918,188.222 172.584,188.722 173.5,189C 179.262,189.309 184.928,190.142 190.5,191.5C 191.919,192.451 193.585,192.784 195.5,192.5C 194.781,195.073 193.781,197.573 192.5,200C 190.287,200.626 188.12,200.459 186,199.5C 184.498,197.825 182.998,196.159 181.5,194.5C 180.016,195.467 179.016,196.8 178.5,198.5C 175.288,196.369 172.288,194.036 169.5,191.5C 169.5,190.5 169.5,189.5 169.5,188.5C 170.167,188.167 170.833,187.833 171.5,187.5 Z"/></g>
<g><path style="opacity:1" fill="#8e7050" d="M 275.5,193.5 C 272.823,194.614 270.156,194.614 267.5,193.5C 268.34,192.265 269.34,191.265 270.5,190.5C 272.042,189.699 273.708,189.366 275.5,189.5C 275.5,190.833 275.5,192.167 275.5,193.5 Z"/></g>
<g><path style="opacity:1" fill="#7c7c82" d="M 195.5,192.5 C 198.692,192.405 201.692,193.071 204.5,194.5C 203.578,198.112 202.911,201.779 202.5,205.5C 200.398,213.149 197.731,220.482 194.5,227.5C 192.645,225.967 190.812,224.3 189,222.5C 187.128,216.695 185.962,210.695 185.5,204.5C 183.712,204.785 182.045,204.452 180.5,203.5C 179.325,201.574 178.659,199.907 178.5,198.5C 179.016,196.8 180.016,195.467 181.5,194.5C 182.998,196.159 184.498,197.825 186,199.5C 188.12,200.459 190.287,200.626 192.5,200C 193.781,197.573 194.781,195.073 195.5,192.5 Z"/></g>
<g><path style="opacity:1" fill="#775537" d="M 245.5,184.5 C 247.5,184.833 249.5,185.167 251.5,185.5C 251.634,187.292 251.301,188.958 250.5,190.5C 247.703,190.967 246.369,192.633 246.5,195.5C 242.817,194.68 240.483,196.013 239.5,199.5C 236.813,199.664 234.146,199.497 231.5,199C 230.584,198.722 229.918,198.222 229.5,197.5C 230.989,195.355 231.989,193.022 232.5,190.5C 236.972,188.784 241.638,188.118 246.5,188.5C 246.567,187.041 246.234,185.708 245.5,184.5 Z"/></g>
<g><path style="opacity:1" fill="#a17043" d="M 246.5,195.5 C 250.274,195.635 251.608,197.302 250.5,200.5C 246.821,200.276 243.154,199.942 239.5,199.5C 240.483,196.013 242.817,194.68 246.5,195.5 Z"/></g>
<g><path style="opacity:1" fill="#332120" d="M 209.5,192.5 C 211.712,195.358 214.712,196.691 218.5,196.5C 221.883,196.257 225.049,196.924 228,198.5C 228.383,197.944 228.883,197.611 229.5,197.5C 229.918,198.222 230.584,198.722 231.5,199C 234.146,199.497 236.813,199.664 239.5,199.5C 243.154,199.942 246.821,200.276 250.5,200.5C 254.267,201.795 258.267,202.461 262.5,202.5C 264.833,202.5 267.167,202.5 269.5,202.5C 269.5,202.833 269.5,203.167 269.5,203.5C 268.093,206.956 266.759,210.456 265.5,214C 260.709,214.478 256.042,213.978 251.5,212.5C 236.341,209.875 221.174,207.209 206,204.5C 204.744,204.648 203.577,204.982 202.5,205.5C 202.911,201.779 203.578,198.112 204.5,194.5C 206.167,193.833 207.833,193.167 209.5,192.5 Z"/></g>
<g><path style="opacity:1" fill="#956a4a" d="M 269.5,202.5 C 267.167,202.5 264.833,202.5 262.5,202.5C 262.5,201.167 262.5,199.833 262.5,198.5C 265.167,198.5 267.833,198.5 270.5,198.5C 270.567,199.959 270.234,201.292 269.5,202.5 Z"/></g>
<g><path style="opacity:1" fill="#3d2b2a" d="M 113.5,201.5 C 113.5,209.5 113.5,217.5 113.5,225.5C 110.692,226.929 107.692,227.595 104.5,227.5C 104.5,223.167 104.5,218.833 104.5,214.5C 104.5,210.5 104.5,206.5 104.5,202.5C 107.57,202.632 110.57,202.299 113.5,201.5 Z"/></g>
<g><path style="opacity:1" fill="#311f1e" d="M 173.5,210.5 C 178.699,222.101 183.699,233.768 188.5,245.5C 189.425,244.643 190.092,243.643 190.5,242.5C 192.936,244.017 195.102,243.684 197,241.5C 198.627,233.584 201.96,226.584 207,220.5C 207.236,218.236 207.736,216.069 208.5,214C 221.298,213.66 233.631,215.827 245.5,220.5C 246.483,235.422 246.816,250.422 246.5,265.5C 243.219,266.628 239.885,266.628 236.5,265.5C 236.334,272.508 236.5,279.508 237,286.5C 241.276,290.061 246.109,292.061 251.5,292.5C 251.5,298.5 251.5,304.5 251.5,310.5C 259.019,310.175 266.352,310.508 273.5,311.5C 256.833,311.5 240.167,311.5 223.5,311.5C 224.084,308.715 223.084,307.048 220.5,306.5C 223.829,301.985 222.829,298.819 217.5,297C 214.179,295.562 210.846,295.395 207.5,296.5C 197.451,290.984 186.785,286.818 175.5,284C 169.947,280.924 164.114,278.424 158,276.5C 156,277.167 154,277.833 152,278.5C 150.121,276.987 147.954,276.321 145.5,276.5C 140.343,275.014 137.343,271.681 136.5,266.5C 138.917,266.022 141.084,265.022 143,263.5C 143.781,258.083 143.615,252.75 142.5,247.5C 142.932,244.123 142.265,241.123 140.5,238.5C 140.703,236.61 140.037,235.11 138.5,234C 132.84,232.997 127.506,231.164 122.5,228.5C 123.234,227.292 123.567,225.959 123.5,224.5C 130.399,226.131 137.399,227.131 144.5,227.5C 144.334,221.824 144.501,216.157 145,210.5C 145.7,208.968 146.866,207.968 148.5,207.5C 156.608,210.659 164.941,211.659 173.5,210.5 Z"/></g>
<g><path style="opacity:1" fill="#8f8e8c" d="M 89.5,199.5 C 91.1439,199.286 92.6439,199.62 94,200.5C 94.4221,202.355 94.9221,204.189 95.5,206C 93.8885,211.084 94.2218,215.917 96.5,220.5C 95.0697,221.537 93.403,222.204 91.5,222.5C 89.8958,221.713 89.2291,220.38 89.5,218.5C 89.5,212.167 89.5,205.833 89.5,199.5 Z"/></g>
<g><path style="opacity:1" fill="#0c060c" d="M 275.5,202.5 C 275.833,202.5 276.167,202.5 276.5,202.5C 276.5,218.5 276.5,234.5 276.5,250.5C 272.846,250.058 269.179,249.724 265.5,249.5C 265.421,248.07 265.754,246.736 266.5,245.5C 268.5,244.167 270.167,242.5 271.5,240.5C 270.277,239.386 268.944,239.219 267.5,240C 259.577,245.094 256.744,252.26 259,261.5C 255.956,264.051 252.789,266.384 249.5,268.5C 248.5,268.5 247.5,268.5 246.5,268.5C 246.5,267.5 246.5,266.5 246.5,265.5C 246.816,250.422 246.483,235.422 245.5,220.5C 248.652,218.684 250.652,216.017 251.5,212.5C 256.042,213.978 260.709,214.478 265.5,214C 266.759,210.456 268.093,206.956 269.5,203.5C 271.5,203.167 273.5,202.833 275.5,202.5 Z"/></g>
<g><path style="opacity:1" fill="#68636d" d="M 169.5,191.5 C 172.288,194.036 175.288,196.369 178.5,198.5C 178.659,199.907 179.325,201.574 180.5,203.5C 182.045,204.452 183.712,204.785 185.5,204.5C 185.962,210.695 187.128,216.695 189,222.5C 190.812,224.3 192.645,225.967 194.5,227.5C 192.279,232.232 190.946,237.232 190.5,242.5C 190.092,243.643 189.425,244.643 188.5,245.5C 183.699,233.768 178.699,222.101 173.5,210.5C 172.924,205.191 171.591,200.191 169.5,195.5C 169.5,194.167 169.5,192.833 169.5,191.5 Z"/></g>
<g><path style="opacity:1" fill="#1c0f0f" d="M 251.5,212.5 C 250.652,216.017 248.652,218.684 245.5,220.5C 233.631,215.827 221.298,213.66 208.5,214C 207.736,216.069 207.236,218.236 207,220.5C 201.96,226.584 198.627,233.584 197,241.5C 195.102,243.684 192.936,244.017 190.5,242.5C 190.946,237.232 192.279,232.232 194.5,227.5C 197.731,220.482 200.398,213.149 202.5,205.5C 203.577,204.982 204.744,204.648 206,204.5C 221.174,207.209 236.341,209.875 251.5,212.5 Z"/></g>
<g><path style="opacity:1" fill="#c7bbae" d="M 82.5,218.5 C 84.8333,218.5 87.1667,218.5 89.5,218.5C 89.2291,220.38 89.8958,221.713 91.5,222.5C 90.3971,225.936 88.0637,227.936 84.5,228.5C 82.9767,225.365 82.31,222.032 82.5,218.5 Z"/></g>
<g><path style="opacity:1" fill="#271f23" d="M 104.5,214.5 C 104.5,218.833 104.5,223.167 104.5,227.5C 104.67,228.822 104.337,229.989 103.5,231C 94.4748,234.619 85.1414,237.119 75.5,238.5C 73.8287,240.51 73.162,242.843 73.5,245.5C 72.1667,245.5 70.8333,245.5 69.5,245.5C 67.9227,241.077 66.9227,236.41 66.5,231.5C 70.4157,232.039 73.4157,230.706 75.5,227.5C 78.5701,227.368 81.5701,227.701 84.5,228.5C 88.0637,227.936 90.3971,225.936 91.5,222.5C 93.403,222.204 95.0697,221.537 96.5,220.5C 98.7271,219.599 99.7271,217.933 99.5,215.5C 101.042,214.699 102.708,214.366 104.5,214.5 Z"/></g>
<g><path style="opacity:1" fill="#312b31" d="M 113.5,225.5 C 115.997,227.871 118.997,228.871 122.5,228.5C 127.506,231.164 132.84,232.997 138.5,234C 140.037,235.11 140.703,236.61 140.5,238.5C 134.935,240.243 129.269,241.577 123.5,242.5C 121.139,243.435 118.972,244.768 117,246.5C 115.938,245.903 114.772,245.57 113.5,245.5C 104.101,247.936 95.101,251.269 86.5,255.5C 79.2354,255.726 74.9021,252.392 73.5,245.5C 73.162,242.843 73.8287,240.51 75.5,238.5C 85.1414,237.119 94.4748,234.619 103.5,231C 104.337,229.989 104.67,228.822 104.5,227.5C 107.692,227.595 110.692,226.929 113.5,225.5 Z"/></g>
<g><path style="opacity:1" fill="#27262c" d="M 63.5,231.5 C 64.5,231.5 65.5,231.5 66.5,231.5C 66.9227,236.41 67.9227,241.077 69.5,245.5C 69.5,247.167 69.5,248.833 69.5,250.5C 65.5739,251.861 61.9073,253.694 58.5,256C 53.2867,255.589 50.12,257.756 49,262.5C 53.3526,264.355 56.5193,267.355 58.5,271.5C 54.967,273.032 51.3004,273.365 47.5,272.5C 47.4506,269.901 46.4506,267.734 44.5,266C 37.4699,264.653 31.4699,261.486 26.5,256.5C 25.1667,254.833 23.8333,253.167 22.5,251.5C 25.4281,249.688 28.5947,248.355 32,247.5C 33.5,249 35,250.5 36.5,252C 41.8385,252.288 46.6718,250.788 51,247.5C 51.2511,245.567 51.7511,243.734 52.5,242C 55.9121,240.545 59.0788,238.712 62,236.5C 62.3519,234.753 62.8519,233.086 63.5,231.5 Z"/></g>
<g><path style="opacity:1" fill="#563e37" d="M 140.5,238.5 C 142.265,241.123 142.932,244.123 142.5,247.5C 137.833,248.5 133.167,249.5 128.5,250.5C 127.651,247.319 125.985,244.652 123.5,242.5C 129.269,241.577 134.935,240.243 140.5,238.5 Z"/></g>
<g><path style="opacity:1" fill="#6f4a38" d="M 123.5,242.5 C 125.985,244.652 127.651,247.319 128.5,250.5C 123.344,252.461 118.01,254.127 112.5,255.5C 105.785,256.689 100.119,259.689 95.5,264.5C 92.463,265.741 89.463,265.741 86.5,264.5C 86.9065,261.281 86.9065,258.281 86.5,255.5C 95.101,251.269 104.101,247.936 113.5,245.5C 114.772,245.57 115.938,245.903 117,246.5C 118.972,244.768 121.139,243.435 123.5,242.5 Z"/></g>
<g><path style="opacity:1" fill="#4e3326" d="M 69.5,245.5 C 70.8333,245.5 72.1667,245.5 73.5,245.5C 74.9021,252.392 79.2354,255.726 86.5,255.5C 86.9065,258.281 86.9065,261.281 86.5,264.5C 78.0669,263.082 71.4002,265.749 66.5,272.5C 64.5,272.833 62.5,273.167 60.5,273.5C 60.5,272.833 60.5,272.167 60.5,271.5C 64.8921,265.054 67.8921,258.054 69.5,250.5C 69.5,248.833 69.5,247.167 69.5,245.5 Z"/></g>
<g><path style="opacity:1" fill="#6f7075" d="M 22.5,251.5 C 23.8333,253.167 25.1667,254.833 26.5,256.5C 25.9032,257.139 25.0698,257.472 24,257.5C 20.4818,256.745 16.9818,255.912 13.5,255C 10.9746,254.576 8.97457,253.41 7.5,251.5C 12.6728,246.957 17.6728,246.957 22.5,251.5 Z"/></g>
<g><path style="opacity:1" fill="#9e6c49" d="M 142.5,247.5 C 143.615,252.75 143.781,258.083 143,263.5C 141.084,265.022 138.917,266.022 136.5,266.5C 133.899,265.021 131.066,264.021 128,263.5C 126.93,263.528 126.097,263.861 125.5,264.5C 121.485,262.216 117.152,260.883 112.5,260.5C 112.5,258.833 112.5,257.167 112.5,255.5C 118.01,254.127 123.344,252.461 128.5,250.5C 133.167,249.5 137.833,248.5 142.5,247.5 Z"/></g>
<g><path style="opacity:1" fill="#251b20" d="M 276.5,250.5 C 276.5,256.167 276.5,261.833 276.5,267.5C 273.242,270.766 269.242,272.266 264.5,272C 262.372,273.792 261.039,275.958 260.5,278.5C 256.808,275.138 253.141,271.805 249.5,268.5C 252.789,266.384 255.956,264.051 259,261.5C 256.744,252.26 259.577,245.094 267.5,240C 268.944,239.219 270.277,239.386 271.5,240.5C 270.167,242.5 268.5,244.167 266.5,245.5C 265.754,246.736 265.421,248.07 265.5,249.5C 269.179,249.724 272.846,250.058 276.5,250.5 Z"/></g>
<g><path style="opacity:1" fill="#888f8e" d="M 6.5,251.5 C 6.83333,251.5 7.16667,251.5 7.5,251.5C 8.97457,253.41 10.9746,254.576 13.5,255C 16.9818,255.912 20.4818,256.745 24,257.5C 25.0698,257.472 25.9032,257.139 26.5,256.5C 31.4699,261.486 37.4699,264.653 44.5,266C 46.4506,267.734 47.4506,269.901 47.5,272.5C 47.5,273.167 47.5,273.833 47.5,274.5C 44.8681,273.101 42.5347,271.268 40.5,269C 35.3156,267.941 30.4822,266.107 26,263.5C 25.3333,264.167 25.3333,264.833 26,265.5C 29.3388,267.673 32.1722,270.34 34.5,273.5C 33.4793,274.901 32.4793,276.235 31.5,277.5C 24.4607,275.147 17.794,271.981 11.5,268C 9.26001,267.023 6.92668,266.523 4.5,266.5C 4.5,265.833 4.16667,265.5 3.5,265.5C 4.42993,261.6 4.76326,257.6 4.5,253.5C 4.83333,252.5 5.5,251.833 6.5,251.5 Z"/></g>
<g><path style="opacity:1" fill="#343525" d="M -0.5,242.5 C 0.479442,245.625 0.812775,248.958 0.5,252.5C 1.95875,252.433 3.29208,252.766 4.5,253.5C 4.76326,257.6 4.42993,261.6 3.5,265.5C 2.79105,266.404 1.79105,266.737 0.5,266.5C 0.67158,265.508 0.338246,264.842 -0.5,264.5C -0.5,257.167 -0.5,249.833 -0.5,242.5 Z"/></g>
<g><path style="opacity:1" fill="#342120" d="M 69.5,250.5 C 67.8921,258.054 64.8921,265.054 60.5,271.5C 59.8333,271.5 59.1667,271.5 58.5,271.5C 56.5193,267.355 53.3526,264.355 49,262.5C 50.12,257.756 53.2867,255.589 58.5,256C 61.9073,253.694 65.5739,251.861 69.5,250.5 Z"/></g>
<g><path style="opacity:1" fill="#e6e1c7" d="M 112.5,260.5 C 117.152,260.883 121.485,262.216 125.5,264.5C 126.028,265.721 126.695,266.887 127.5,268C 123.399,270.059 119.066,271.559 114.5,272.5C 113.22,271.069 111.553,270.402 109.5,270.5C 109.702,268.05 109.369,265.717 108.5,263.5C 109.833,262.5 111.167,261.5 112.5,260.5 Z"/></g>
<g><path style="opacity:1" fill="#d0c4b5" d="M 108.5,263.5 C 109.369,265.717 109.702,268.05 109.5,270.5C 111.553,270.402 113.22,271.069 114.5,272.5C 114.038,273.88 113.038,274.547 111.5,274.5C 105.196,273.743 98.8627,273.743 92.5,274.5C 89.4669,274.868 86.8002,274.202 84.5,272.5C 85.0577,271.21 86.0577,270.377 87.5,270C 92.1386,268.872 96.8053,267.872 101.5,267C 103.527,265.121 105.86,263.954 108.5,263.5 Z"/></g>
<g><path style="opacity:1" fill="#886144" d="M 112.5,255.5 C 112.5,257.167 112.5,258.833 112.5,260.5C 111.167,261.5 109.833,262.5 108.5,263.5C 105.86,263.954 103.527,265.121 101.5,267C 96.8053,267.872 92.1386,268.872 87.5,270C 86.0577,270.377 85.0577,271.21 84.5,272.5C 83.7326,273.172 83.0659,274.005 82.5,275C 78.2099,275.923 73.8766,276.423 69.5,276.5C 68.9744,274.77 67.9744,273.436 66.5,272.5C 71.4002,265.749 78.0669,263.082 86.5,264.5C 89.463,265.741 92.463,265.741 95.5,264.5C 100.119,259.689 105.785,256.689 112.5,255.5 Z"/></g>
<g><path style="opacity:1" fill="#7c8895" d="M 136.5,266.5 C 137.343,271.681 140.343,275.014 145.5,276.5C 146.521,279.227 145.521,281.227 142.5,282.5C 141.554,282.013 140.554,281.68 139.5,281.5C 136.194,282.163 132.861,282.663 129.5,283C 124.633,287.266 118.967,289.6 112.5,290C 110.613,293.035 108.113,294.202 105,293.5C 103.687,294.573 102.187,295.24 100.5,295.5C 92.9863,292.339 85.653,289.006 78.5,285.5C 81.2155,283.533 84.2155,282.033 87.5,281C 89.7899,279.223 91.4566,277.056 92.5,274.5C 98.8627,273.743 105.196,273.743 111.5,274.5C 113.038,274.547 114.038,273.88 114.5,272.5C 119.066,271.559 123.399,270.059 127.5,268C 126.695,266.887 126.028,265.721 125.5,264.5C 126.097,263.861 126.93,263.528 128,263.5C 131.066,264.021 133.899,265.021 136.5,266.5 Z"/></g>
<g><path style="opacity:1" fill="#2c2022" d="M 246.5,265.5 C 246.5,266.5 246.5,267.5 246.5,268.5C 247.5,268.5 248.5,268.5 249.5,268.5C 253.141,271.805 256.808,275.138 260.5,278.5C 258.497,283.846 255.497,288.513 251.5,292.5C 246.109,292.061 241.276,290.061 237,286.5C 236.5,279.508 236.334,272.508 236.5,265.5C 239.885,266.628 243.219,266.628 246.5,265.5 Z"/></g>
<g><path style="opacity:1" fill="#4a4f5b" d="M 4.5,266.5 C 6.92668,266.523 9.26001,267.023 11.5,268C 17.794,271.981 24.4607,275.147 31.5,277.5C 37.083,280.112 42.4163,279.445 47.5,275.5C 48.8118,276.145 49.8118,277.145 50.5,278.5C 49.3698,279.622 48.7031,280.956 48.5,282.5C 43.7226,285.06 39.0559,287.893 34.5,291C 29.1617,291.315 23.8283,291.148 18.5,290.5C 16.0198,287.201 12.6865,285.368 8.5,285C 7.66667,284.167 6.83333,283.333 6,282.5C 4.60327,277.292 4.10327,271.959 4.5,266.5 Z"/></g>
<g><path style="opacity:1" fill="#6b7076" d="M 47.5,274.5 C 47.5,274.833 47.5,275.167 47.5,275.5C 42.4163,279.445 37.083,280.112 31.5,277.5C 32.4793,276.235 33.4793,274.901 34.5,273.5C 32.1722,270.34 29.3388,267.673 26,265.5C 25.3333,264.833 25.3333,264.167 26,263.5C 30.4822,266.107 35.3156,267.941 40.5,269C 42.5347,271.268 44.8681,273.101 47.5,274.5 Z"/></g>
<g><path style="opacity:1" fill="#0d0d13" d="M 276.5,267.5 C 276.5,282.167 276.5,296.833 276.5,311.5C 275.5,311.5 274.5,311.5 273.5,311.5C 266.352,310.508 259.019,310.175 251.5,310.5C 251.5,304.5 251.5,298.5 251.5,292.5C 255.497,288.513 258.497,283.846 260.5,278.5C 261.039,275.958 262.372,273.792 264.5,272C 269.242,272.266 273.242,270.766 276.5,267.5 Z"/></g>
<g><path style="opacity:1" fill="#7c5d4a" d="M 66.5,272.5 C 67.9744,273.436 68.9744,274.77 69.5,276.5C 68.1917,277.232 66.8584,278.066 65.5,279C 66.7305,280.405 68.0639,281.571 69.5,282.5C 63.5039,287.745 57.8372,287.578 52.5,282C 54.6952,278.641 57.3619,275.807 60.5,273.5C 62.5,273.167 64.5,272.833 66.5,272.5 Z"/></g>
<g><path style="opacity:1" fill="#9b9c9b" d="M 84.5,272.5 C 86.8002,274.202 89.4669,274.868 92.5,274.5C 91.4566,277.056 89.7899,279.223 87.5,281C 84.2155,282.033 81.2155,283.533 78.5,285.5C 78.1667,285.5 77.8333,285.5 77.5,285.5C 75.0465,283.94 72.3798,282.94 69.5,282.5C 68.0639,281.571 66.7305,280.405 65.5,279C 66.8584,278.066 68.1917,277.232 69.5,276.5C 73.8766,276.423 78.2099,275.923 82.5,275C 83.0659,274.005 83.7326,273.172 84.5,272.5 Z"/></g>
<g><path style="opacity:1" fill="#3e3237" d="M 145.5,276.5 C 147.954,276.321 150.121,276.987 152,278.5C 154,277.833 156,277.167 158,276.5C 164.114,278.424 169.947,280.924 175.5,284C 186.785,286.818 197.451,290.984 207.5,296.5C 210.846,295.395 214.179,295.562 217.5,297C 222.829,298.819 223.829,301.985 220.5,306.5C 190.886,306.716 161.22,307.383 131.5,308.5C 105.026,307.273 78.6922,306.773 52.5,307C 51.7178,304.26 51.2178,301.426 51,298.5C 49.9887,297.663 48.8221,297.33 47.5,297.5C 46.4168,292.869 48.0835,289.869 52.5,288.5C 53.0889,290.352 53.7556,292.185 54.5,294C 57.4157,295.751 60.5823,296.917 64,297.5C 67.4195,296.08 70.9195,294.747 74.5,293.5C 75.5084,290.805 76.5084,288.138 77.5,285.5C 77.8333,285.5 78.1667,285.5 78.5,285.5C 85.653,289.006 92.9863,292.339 100.5,295.5C 102.187,295.24 103.687,294.573 105,293.5C 108.113,294.202 110.613,293.035 112.5,290C 118.967,289.6 124.633,287.266 129.5,283C 132.861,282.663 136.194,282.163 139.5,281.5C 140.554,281.68 141.554,282.013 142.5,282.5C 145.521,281.227 146.521,279.227 145.5,276.5 Z"/></g>
<g><path style="opacity:1" fill="#382d2e" d="M 48.5,282.5 C 49.8333,284.5 51.1667,286.5 52.5,288.5C 48.0835,289.869 46.4168,292.869 47.5,297.5C 42.0112,300.745 36.3446,303.745 30.5,306.5C 24.8722,307.495 19.2055,307.829 13.5,307.5C 13.7394,305.533 13.4061,303.699 12.5,302C 6.58119,302.748 4.08119,300.248 5,294.5C 8.77891,293.654 12.6122,293.488 16.5,294C 17.0848,292.698 17.7515,291.531 18.5,290.5C 23.8283,291.148 29.1617,291.315 34.5,291C 39.0559,287.893 43.7226,285.06 48.5,282.5 Z"/></g>
<g><path style="opacity:1" fill="#644b42" d="M 58.5,271.5 C 59.1667,271.5 59.8333,271.5 60.5,271.5C 60.5,272.167 60.5,272.833 60.5,273.5C 57.3619,275.807 54.6952,278.641 52.5,282C 57.8372,287.578 63.5039,287.745 69.5,282.5C 72.3798,282.94 75.0465,283.94 77.5,285.5C 76.5084,288.138 75.5084,290.805 74.5,293.5C 70.9195,294.747 67.4195,296.08 64,297.5C 60.5823,296.917 57.4157,295.751 54.5,294C 53.7556,292.185 53.0889,290.352 52.5,288.5C 51.1667,286.5 49.8333,284.5 48.5,282.5C 48.7031,280.956 49.3698,279.622 50.5,278.5C 49.8118,277.145 48.8118,276.145 47.5,275.5C 47.5,275.167 47.5,274.833 47.5,274.5C 47.5,273.833 47.5,273.167 47.5,272.5C 51.3004,273.365 54.967,273.032 58.5,271.5 Z"/></g>
<g><path style="opacity:1" fill="#202023" d="M 3.5,265.5 C 4.16667,265.5 4.5,265.833 4.5,266.5C 4.10327,271.959 4.60327,277.292 6,282.5C 6.83333,283.333 7.66667,284.167 8.5,285C 12.6865,285.368 16.0198,287.201 18.5,290.5C 17.7515,291.531 17.0848,292.698 16.5,294C 12.6122,293.488 8.77891,293.654 5,294.5C 4.08119,300.248 6.58119,302.748 12.5,302C 13.4061,303.699 13.7394,305.533 13.5,307.5C 9.33014,307.667 5.33014,307 1.5,305.5C 0.577088,292.53 0.243755,279.53 0.5,266.5C 1.79105,266.737 2.79105,266.404 3.5,265.5 Z"/></g>
<g><path style="opacity:1" fill="#77884c" d="M -0.5,264.5 C 0.338246,264.842 0.67158,265.508 0.5,266.5C 0.243755,279.53 0.577088,292.53 1.5,305.5C 1.06795,306.71 0.40128,307.71 -0.5,308.5C -0.5,293.833 -0.5,279.167 -0.5,264.5 Z"/></g>
<g><path style="opacity:1" fill="#1f1313" d="M 47.5,297.5 C 48.8221,297.33 49.9887,297.663 51,298.5C 51.2178,301.426 51.7178,304.26 52.5,307C 78.6922,306.773 105.026,307.273 131.5,308.5C 161.22,307.383 190.886,306.716 220.5,306.5C 223.084,307.048 224.084,308.715 223.5,311.5C 148.833,311.5 74.1667,311.5 -0.5,311.5C -0.5,310.5 -0.5,309.5 -0.5,308.5C 0.40128,307.71 1.06795,306.71 1.5,305.5C 5.33014,307 9.33014,307.667 13.5,307.5C 19.2055,307.829 24.8722,307.495 30.5,306.5C 36.3446,303.745 42.0112,300.745 47.5,297.5 Z"/></g>
</svg>
