<?xml version="1.0" encoding="UTF-8"?>
<!DOCTYPE svg PUBLIC "-//W3C//DTD SVG 1.1//EN" "http://www.w3.org/Graphics/SVG/1.1/DTD/svg11.dtd">
<svg xmlns="http://www.w3.org/2000/svg" version="1.1" width="277px" height="312px" style="shape-rendering:geometricPrecision; text-rendering:geometricPrecision; image-rendering:optimizeQuality; fill-rule:evenodd; clip-rule:evenodd" xmlns:xlink="http://www.w3.org/1999/xlink">
<g><path style="opacity:1" fill="#1f1313" d="M -0.5,-0.5 C 57.8333,-0.5 116.167,-0.5 174.5,-0.5C 165.983,2.17126 157.316,5.0046 148.5,8C 131.171,11.6655 113.837,15.3322 96.5,19C 91.0126,21.3809 85.5126,23.5476 80,25.5C 75.3925,24.2788 71.2258,22.1122 67.5,19C 59.003,16.0424 50.3364,13.7091 41.5,12C 35.5508,10.0272 30.2175,7.02719 25.5,3C 19.6269,1.02379 13.6269,0.357122 7.5,1C 5.07662,2.64012 4.07662,4.97345 4.5,8C 4.33844,10.502 5.0051,12.6687 6.5,14.5C 5.33758,18.6869 5.33758,23.0202 6.5,27.5C 5.51657,42.7554 5.18324,58.0888 5.5,73.5C 4.6457,74.6316 4.6457,75.965 5.5,77.5C 6.11014,83.7826 6.11014,90.1159 5.5,96.5C 5.5,97.5 5.5,98.5 5.5,99.5C 3.97049,98.9332 2.47049,98.2666 1,97.5C 0.83207,73.9964 0.33207,50.6631 -0.5,27.5C -0.5,18.1667 -0.5,8.83333 -0.5,-0.5 Z"/></g>
<g><path style="opacity:1" fill="#43312a" d="M 174.5,-0.5 C 198.5,-0.5 222.5,-0.5 246.5,-0.5C 247.207,2.78611 247.54,6.11945 247.5,9.5C 244.086,7.8439 240.92,8.17723 238,10.5C 236.237,10.0245 234.57,9.35784 233,8.5C 230.027,12.3981 226.194,14.8981 221.5,16C 210.362,18.8792 199.028,21.2125 187.5,23C 182.518,23.9603 177.851,23.127 173.5,20.5C 172.618,21.7598 171.618,22.9264 170.5,24C 167.524,24.7048 164.858,25.8714 162.5,27.5C 153.733,25.5335 145.066,23.2001 136.5,20.5C 126.794,21.7548 117.128,23.2548 107.5,25C 105.22,25.2326 103.22,26.066 101.5,27.5C 102.737,30.1703 104.07,32.6703 105.5,35C 105.106,38.2975 103.273,40.1309 100,40.5C 68.4185,33.1368 37.2518,24.4701 6.5,14.5C 5.0051,12.6687 4.33844,10.502 4.5,8C 4.07662,4.97345 5.07662,2.64012 7.5,1C 13.6269,0.357122 19.6269,1.02379 25.5,3C 30.2175,7.02719 35.5508,10.0272 41.5,12C 50.3364,13.7091 59.003,16.0424 67.5,19C 71.2258,22.1122 75.3925,24.2788 80,25.5C 85.5126,23.5476 91.0126,21.3809 96.5,19C 113.837,15.3322 131.171,11.6655 148.5,8C 157.316,5.0046 165.983,2.17126 174.5,-0.5 Z"/></g>
<g><path style="opacity:1" fill="#564431" d="M 246.5,-0.5 C 256.167,-0.5 265.833,-0.5 275.5,-0.5C 275.5,2.16667 275.5,4.83333 275.5,7.5C 269.801,7.68813 264.134,7.3548 258.5,6.5C 255.108,8.35408 251.441,9.35408 247.5,9.5C 247.54,6.11945 247.207,2.78611 246.5,-0.5 Z"/></g>
<g><path style="opacity:1" fill="#3d2a24" d="M 275.5,-0.5 C 275.833,-0.5 276.167,-0.5 276.5,-0.5C 276.5,31.1667 276.5,62.8333 276.5,94.5C 275.833,94.5 275.5,94.1667 275.5,93.5C 275.5,85.8333 275.5,78.1667 275.5,70.5C 275.5,66.5 275.5,62.5 275.5,58.5C 275.817,55.4281 275.484,52.4281 274.5,49.5C 272.727,48.9131 270.894,48.5798 269,48.5C 254.895,50.768 240.728,52.4346 226.5,53.5C 226.67,52.1779 226.337,51.0113 225.5,50C 222.961,49.2042 220.628,49.3709 218.5,50.5C 214.064,50.2101 209.73,50.7101 205.5,52C 204.891,53.9483 204.224,55.7816 203.5,57.5C 198.537,58.254 193.537,58.5874 188.5,58.5C 188.5,57.1667 188.5,55.8333 188.5,54.5C 184.846,54.9422 181.179,55.2756 177.5,55.5C 177.567,57.4008 177.233,59.2341 176.5,61C 177.63,64.3066 179.463,67.1399 182,69.5C 182.874,72.3787 182.54,75.0454 181,77.5C 178.183,72.3955 174.017,70.7289 168.5,72.5C 168.371,74.2161 168.038,75.8828 167.5,77.5C 165.738,77.3573 164.071,77.6906 162.5,78.5C 157.471,83.1147 153.304,88.448 150,94.5C 147.727,102.476 145.56,110.476 143.5,118.5C 143.967,121.148 145.134,123.481 147,125.5C 147.497,127.81 147.663,130.143 147.5,132.5C 150.815,132.028 153.149,130.195 154.5,127C 155.448,126.517 156.448,126.351 157.5,126.5C 158.323,128.455 158.49,130.455 158,132.5C 153.317,138.986 149.817,145.986 147.5,153.5C 149.117,157.388 151.45,160.722 154.5,163.5C 162.524,164.35 165.69,168.683 164,176.5C 161.96,178.041 159.793,179.374 157.5,180.5C 154.858,186.032 154.858,191.532 157.5,197C 160.304,199.292 163.304,199.792 166.5,198.5C 167.656,202.5 170.156,205.5 174,207.5C 174.41,208.901 174.91,210.234 175.5,211.5C 167.647,210.235 159.981,208.235 152.5,205.5C 149.271,207.074 146.104,208.741 143,210.5C 142.617,209.944 142.117,209.611 141.5,209.5C 141.664,206.813 141.497,204.146 141,201.5C 139,200.167 137,200.167 135,201.5C 134.5,216.163 134.333,230.83 134.5,245.5C 134.634,247.292 134.301,248.958 133.5,250.5C 123.005,250.532 112.672,251.865 102.5,254.5C 101.558,254.392 100.725,254.059 100,253.5C 100.355,252.041 100.189,250.707 99.5,249.5C 101.947,247.235 104.614,245.069 107.5,243C 109.141,241.871 110.141,240.371 110.5,238.5C 111.458,238.047 112.292,237.381 113,236.5C 113.634,233.445 113.468,230.445 112.5,227.5C 115.731,228.423 118.398,230.09 120.5,232.5C 123.325,232.178 125.658,231.012 127.5,229C 128.821,218.488 128.821,207.988 127.5,197.5C 133.872,196.352 140.205,195.018 146.5,193.5C 151.774,186.874 150.107,183.874 141.5,184.5C 141.82,181.102 141.487,177.768 140.5,174.5C 137.223,173.62 133.889,172.953 130.5,172.5C 128.275,172.305 126.609,173.139 125.5,175C 127.08,176.723 128.58,178.556 130,180.5C 130.64,182.265 130.473,183.932 129.5,185.5C 126.659,185.44 123.993,184.774 121.5,183.5C 119.606,180.038 117.939,176.371 116.5,172.5C 115.473,171.209 114.473,171.209 113.5,172.5C 113.269,168.032 110.935,166.032 106.5,166.5C 106.739,164.533 106.406,162.699 105.5,161C 99.6664,160.666 93.8331,160.832 88,161.5C 83.348,161.56 78.848,160.893 74.5,159.5C 62.8404,160.066 51.1737,160.566 39.5,161C 37.236,161.236 35.0693,161.736 33,162.5C 28.8965,162.523 24.7299,162.189 20.5,161.5C 18.0909,161.915 15.7576,162.582 13.5,163.5C 12.8314,166.53 12.1647,169.53 11.5,172.5C 10.5,172.5 9.5,172.5 8.5,172.5C 8.35055,173.552 8.51722,174.552 9,175.5C 11.0627,177.734 13.2294,179.734 15.5,181.5C 12.6941,185.411 9.02741,186.744 4.5,185.5C 4.33365,177.826 4.50031,170.159 5,162.5C 6.61173,160.544 6.77839,158.544 5.5,156.5C 38.5068,155.707 71.5068,154.707 104.5,153.5C 104.67,152.178 104.337,151.011 103.5,150C 101.167,149.667 98.8333,149.333 96.5,149C 95.6198,147.644 95.2865,146.144 95.5,144.5C 95.8158,141.022 95.3158,137.688 94,134.5C 91.9592,133.577 89.7925,133.244 87.5,133.5C 87.5,137.833 87.5,142.167 87.5,146.5C 87.5858,147.496 87.2524,148.329 86.5,149C 83.8832,149.822 81.2165,150.322 78.5,150.5C 77.4894,144.155 77.3228,137.821 78,131.5C 76.0931,127.961 73.2597,125.461 69.5,124C 66.8987,123.08 64.2321,122.413 61.5,122C 50.124,121.638 38.7907,120.805 27.5,119.5C 27.5,117.833 27.5,116.167 27.5,114.5C 51.6595,115.877 75.8262,117.21 100,118.5C 102.833,118.167 105.667,117.833 108.5,117.5C 105.817,114.172 104.984,110.506 106,106.5C 104.989,105.663 103.822,105.33 102.5,105.5C 104.248,100.685 105.248,95.6854 105.5,90.5C 102.14,90.3841 98.8067,90.0508 95.5,89.5C 94.8333,89.5 94.1667,89.5 93.5,89.5C 94.4408,87.9505 95.1075,86.2838 95.5,84.5C 99.4543,85.3813 103.454,86.0479 107.5,86.5C 109.288,86.7852 110.955,86.4519 112.5,85.5C 113.262,81.8889 113.762,78.2222 114,74.5C 115.584,73.1387 117.418,72.472 119.5,72.5C 121.694,74.9491 124.027,74.9491 126.5,72.5C 128.138,68.0297 128.971,63.3631 129,58.5C 131.137,54.5511 134.47,52.2177 139,51.5C 140.394,53.3875 142.227,54.7209 144.5,55.5C 147.399,54.3584 150.399,53.6917 153.5,53.5C 155.524,47.6075 158.691,42.2741 163,37.5C 163.747,34.0764 163.58,30.7431 162.5,27.5C 164.858,25.8714 167.524,24.7048 170.5,24C 171.618,22.9264 172.618,21.7598 173.5,20.5C 177.851,23.127 182.518,23.9603 187.5,23C 199.028,21.2125 210.362,18.8792 221.5,16C 226.194,14.8981 230.027,12.3981 233,8.5C 234.57,9.35784 236.237,10.0245 238,10.5C 240.92,8.17723 244.086,7.8439 247.5,9.5C 251.441,9.35408 255.108,8.35408 258.5,6.5C 264.134,7.3548 269.801,7.68813 275.5,7.5C 275.5,4.83333 275.5,2.16667 275.5,-0.5 Z"/></g>
<g><path style="opacity:1" fill="#241918" d="M 6.5,14.5 C 37.2518,24.4701 68.4185,33.1368 100,40.5C 103.273,40.1309 105.106,38.2975 105.5,35C 104.07,32.6703 102.737,30.1703 101.5,27.5C 103.22,26.066 105.22,25.2326 107.5,25C 117.128,23.2548 126.794,21.7548 136.5,20.5C 145.066,23.2001 153.733,25.5335 162.5,27.5C 163.58,30.7431 163.747,34.0764 163,37.5C 158.691,42.2741 155.524,47.6075 153.5,53.5C 150.399,53.6917 147.399,54.3584 144.5,55.5C 142.227,54.7209 140.394,53.3875 139,51.5C 134.47,52.2177 131.137,54.5511 129,58.5C 128.971,63.3631 128.138,68.0297 126.5,72.5C 124.027,74.9491 121.694,74.9491 119.5,72.5C 119.575,68.1033 119.075,63.77 118,59.5C 117.654,57.1523 116.487,55.3189 114.5,54C 100.341,50.9603 86.3414,47.2936 72.5,43C 64.5144,42.843 56.8477,41.1763 49.5,38C 46.5,37.6667 43.5,37.3333 40.5,37C 38.8442,35.1706 36.8442,33.8372 34.5,33C 25.2633,30.6787 15.93,28.8454 6.5,27.5C 5.33758,23.0202 5.33758,18.6869 6.5,14.5 Z"/></g>
<g><path style="opacity:1" fill="#311e1e" d="M 6.5,27.5 C 15.93,28.8454 25.2633,30.6787 34.5,33C 36.8442,33.8372 38.8442,35.1706 40.5,37C 43.5,37.3333 46.5,37.6667 49.5,38C 56.8477,41.1763 64.5144,42.843 72.5,43C 86.3414,47.2936 100.341,50.9603 114.5,54C 116.487,55.3189 117.654,57.1523 118,59.5C 119.075,63.77 119.575,68.1033 119.5,72.5C 117.418,72.472 115.584,73.1387 114,74.5C 113.762,78.2222 113.262,81.8889 112.5,85.5C 110.955,86.4519 109.288,86.7852 107.5,86.5C 107.666,81.8215 107.499,77.1548 107,72.5C 106.5,71.3333 105.667,70.5 104.5,70C 102.236,69.7638 100.069,69.2638 98,68.5C 95.9676,73.2837 95.1343,78.2837 95.5,83.5C 93.8333,83.5 92.1667,83.5 90.5,83.5C 90.6658,78.8215 90.4992,74.1548 90,69.5C 87.4905,64.7451 84.4905,64.4117 81,68.5C 80.8604,71.2805 79.6937,73.4472 77.5,75C 78.8333,77.3333 78.8333,79.6667 77.5,82C 74.5792,82.1498 71.7459,81.6498 69,80.5C 68.6667,76.1667 68.3333,71.8333 68,67.5C 65.8789,63.2177 63.5455,62.8843 61,66.5C 59.9635,69.7527 59.2969,73.086 59,76.5C 58.3021,77.6906 57.4687,78.6906 56.5,79.5C 49.5113,78.4181 42.5113,77.4181 35.5,76.5C 35.8226,72.774 35.4892,69.1073 34.5,65.5C 32.8333,64.1667 31.1667,64.1667 29.5,65.5C 29.0253,68.9257 28.0253,72.0924 26.5,75C 20.4321,76.1523 18.2655,73.6523 20,67.5C 20.6353,65.3822 21.4686,63.3822 22.5,61.5C 20.2368,56.8066 17.4034,56.4733 14,60.5C 12.4636,64.6665 10.6303,68.6665 8.5,72.5C 7.67504,73.3857 6.67504,73.719 5.5,73.5C 5.18324,58.0888 5.51657,42.7554 6.5,27.5 Z"/></g>
<g><path style="opacity:1" fill="#563e31" d="M 266.5,33.5 C 269.5,33.5 272.5,33.5 275.5,33.5C 275.958,36.3938 275.291,38.8938 273.5,41C 265.222,42.6543 256.888,43.821 248.5,44.5C 248.055,41.6354 248.722,39.1354 250.5,37C 256.081,36.3151 261.414,35.1485 266.5,33.5 Z"/></g>
<g><path style="opacity:1" fill="#5c4431" d="M 275.5,58.5 C 274.833,58.5 274.167,58.5 273.5,58.5C 272.626,57.4749 271.459,56.8082 270,56.5C 259.097,57.966 248.264,59.6326 237.5,61.5C 233.865,62.1143 230.198,62.4476 226.5,62.5C 226.5,59.5 226.5,56.5 226.5,53.5C 240.728,52.4346 254.895,50.768 269,48.5C 270.894,48.5798 272.727,48.9131 274.5,49.5C 275.484,52.4281 275.817,55.4281 275.5,58.5 Z"/></g>
<g><path style="opacity:1" fill="#756a63" d="M 226.5,53.5 C 226.5,56.5 226.5,59.5 226.5,62.5C 226.5,64.1667 226.5,65.8333 226.5,67.5C 223.813,67.3359 221.146,67.5026 218.5,68C 216.667,68.5 215.5,69.6667 215,71.5C 214.585,81.0957 213.751,90.7624 212.5,100.5C 214.514,100.392 216.18,101.058 217.5,102.5C 217.713,108.432 217.046,114.432 215.5,120.5C 212.542,119.459 209.542,119.459 206.5,120.5C 205.78,115.166 204.947,109.832 204,104.5C 202.615,100.687 200.115,98.0208 196.5,96.5C 195.839,91.6841 196.839,87.3508 199.5,83.5C 202.477,82.9292 205.31,81.9292 208,80.5C 208.869,74.4646 209.869,68.4646 211,62.5C 212.333,59.8333 214.333,57.8333 217,56.5C 218.128,54.6547 218.628,52.6547 218.5,50.5C 220.628,49.3709 222.961,49.2042 225.5,50C 226.337,51.0113 226.67,52.1779 226.5,53.5 Z"/></g>
<g><path style="opacity:1" fill="#635d56" d="M 218.5,50.5 C 218.628,52.6547 218.128,54.6547 217,56.5C 214.333,57.8333 212.333,59.8333 211,62.5C 209.869,68.4646 208.869,74.4646 208,80.5C 205.31,81.9292 202.477,82.9292 199.5,83.5C 201.155,74.8805 202.488,66.2138 203.5,57.5C 204.224,55.7816 204.891,53.9483 205.5,52C 209.73,50.7101 214.064,50.2101 218.5,50.5 Z"/></g>
<g><path style="opacity:1" fill="#503731" d="M 203.5,57.5 C 202.488,66.2138 201.155,74.8805 199.5,83.5C 196.839,87.3508 195.839,91.6841 196.5,96.5C 195.978,99.7994 195.645,103.133 195.5,106.5C 196.95,116.205 197.95,125.871 198.5,135.5C 195.367,139.134 193.867,143.467 194,148.5C 192.912,157.817 192.579,167.15 193,176.5C 194.456,178.99 196.623,180.657 199.5,181.5C 200.167,178.167 200.833,174.833 201.5,171.5C 202.417,170.873 203.417,170.539 204.5,170.5C 205.209,171.404 206.209,171.737 207.5,171.5C 205.291,180.753 207.958,183.087 215.5,178.5C 216.355,179.531 217.022,180.697 217.5,182C 214.159,191.566 212.659,201.4 213,211.5C 216.336,219.087 222.169,222.421 230.5,221.5C 230.523,223.6 229.856,225.433 228.5,227C 229.13,228.31 230.13,229.144 231.5,229.5C 231.5,229.833 231.5,230.167 231.5,230.5C 229.36,234.597 227.527,238.93 226,243.5C 225.667,246.833 225.333,250.167 225,253.5C 223.938,254.097 222.772,254.43 221.5,254.5C 219.645,254.66 218.312,253.993 217.5,252.5C 220.856,248.074 220.023,244.741 215,242.5C 209.486,244.673 203.819,246.673 198,248.5C 196.099,245.944 193.599,244.111 190.5,243C 186.464,243.398 182.464,243.231 178.5,242.5C 174.886,243.82 171.22,244.987 167.5,246C 162.236,249.457 156.902,252.624 151.5,255.5C 150.5,255.5 149.5,255.5 148.5,255.5C 147.657,253.827 146.324,252.66 144.5,252C 140.886,251.064 137.22,250.564 133.5,250.5C 134.301,248.958 134.634,247.292 134.5,245.5C 136.467,245.739 138.301,245.406 140,244.5C 140.958,239.63 141.458,234.963 141.5,230.5C 144.699,231.899 148.032,232.899 151.5,233.5C 157.647,235.312 163.98,235.979 170.5,235.5C 173.142,238.155 175.642,237.822 178,234.5C 178.971,226.619 178.138,218.952 175.5,211.5C 174.91,210.234 174.41,208.901 174,207.5C 170.156,205.5 167.656,202.5 166.5,198.5C 167.464,196.595 169.131,195.595 171.5,195.5C 174.115,196.269 176.781,196.603 179.5,196.5C 179.662,194.473 179.495,192.473 179,190.5C 175.478,185.405 173.645,179.738 173.5,173.5C 169.926,174.092 167.926,172.592 167.5,169C 171.1,167.734 173.267,165.234 174,161.5C 178.868,158.616 179.701,154.949 176.5,150.5C 175.545,148.254 174.878,145.921 174.5,143.5C 175.499,140.171 176.499,136.838 177.5,133.5C 176.5,133.5 175.5,133.5 174.5,133.5C 174.675,131.379 174.341,129.379 173.5,127.5C 177.442,126.92 179.608,124.587 180,120.5C 182.485,119.013 184.652,117.179 186.5,115C 186.721,101.275 181.221,90.4414 170,82.5C 169.243,80.6854 168.41,79.0188 167.5,77.5C 168.038,75.8828 168.371,74.2161 168.5,72.5C 174.017,70.7289 178.183,72.3955 181,77.5C 182.54,75.0454 182.874,72.3787 182,69.5C 179.463,67.1399 177.63,64.3066 176.5,61C 177.233,59.2341 177.567,57.4008 177.5,55.5C 181.179,55.2756 184.846,54.9422 188.5,54.5C 188.5,55.8333 188.5,57.1667 188.5,58.5C 193.537,58.5874 198.537,58.254 203.5,57.5 Z"/></g>
<g><path style="opacity:1" fill="#886a4a" d="M 273.5,58.5 C 272.809,60.0222 271.642,61.0222 270,61.5C 266.32,63.0495 262.487,63.7161 258.5,63.5C 258.15,66.0408 258.15,68.3742 258.5,70.5C 254.434,70.307 250.434,70.6403 246.5,71.5C 246.27,67.7714 244.27,65.9381 240.5,66C 239.117,64.7292 238.117,63.2292 237.5,61.5C 248.264,59.6326 259.097,57.966 270,56.5C 271.459,56.8082 272.626,57.4749 273.5,58.5 Z"/></g>
<g><path style="opacity:1" fill="#43322a" d="M 56.5,79.5 C 56.9382,79.4346 57.2716,79.6012 57.5,80C 56.7334,81.4705 56.0668,82.9705 55.5,84.5C 38.798,82.3291 22.1314,79.9958 5.5,77.5C 4.6457,75.965 4.6457,74.6316 5.5,73.5C 6.67504,73.719 7.67504,73.3857 8.5,72.5C 10.6303,68.6665 12.4636,64.6665 14,60.5C 17.4034,56.4733 20.2368,56.8066 22.5,61.5C 21.4686,63.3822 20.6353,65.3822 20,67.5C 18.2655,73.6523 20.4321,76.1523 26.5,75C 28.0253,72.0924 29.0253,68.9257 29.5,65.5C 31.1667,64.1667 32.8333,64.1667 34.5,65.5C 35.4892,69.1073 35.8226,72.774 35.5,76.5C 42.5113,77.4181 49.5113,78.4181 56.5,79.5 Z"/></g>
<g><path style="opacity:1" fill="#75573d" d="M 273.5,58.5 C 274.167,58.5 274.833,58.5 275.5,58.5C 275.5,62.5 275.5,66.5 275.5,70.5C 271.39,67.8997 267.39,67.8997 263.5,70.5C 262.167,70.5 260.833,70.5 259.5,70.5C 259.167,70.5 258.833,70.5 258.5,70.5C 258.15,68.3742 258.15,66.0408 258.5,63.5C 262.487,63.7161 266.32,63.0495 270,61.5C 271.642,61.0222 272.809,60.0222 273.5,58.5 Z"/></g>
<g><path style="opacity:1" fill="#6f5137" d="M 237.5,61.5 C 238.117,63.2292 239.117,64.7292 240.5,66C 244.27,65.9381 246.27,67.7714 246.5,71.5C 244.041,75.8134 243.041,80.4801 243.5,85.5C 241.5,85.5 239.5,85.5 237.5,85.5C 236.844,84.7222 236.011,84.0556 235,83.5C 233.285,84.6045 231.785,85.9378 230.5,87.5C 229.432,86.5655 228.099,86.2322 226.5,86.5C 226.5,84.8333 226.5,83.1667 226.5,81.5C 226.5,76.8333 226.5,72.1667 226.5,67.5C 226.5,65.8333 226.5,64.1667 226.5,62.5C 230.198,62.4476 233.865,62.1143 237.5,61.5 Z"/></g>
<g><path style="opacity:1" fill="#51332c" d="M 95.5,83.5 C 95.5,83.8333 95.5,84.1667 95.5,84.5C 95.1075,86.2838 94.4408,87.9505 93.5,89.5C 80.8746,87.8362 68.208,86.1695 55.5,84.5C 56.0668,82.9705 56.7334,81.4705 57.5,80C 57.2716,79.6012 56.9382,79.4346 56.5,79.5C 57.4687,78.6906 58.3021,77.6906 59,76.5C 59.2969,73.086 59.9635,69.7527 61,66.5C 63.5455,62.8843 65.8789,63.2177 68,67.5C 68.3333,71.8333 68.6667,76.1667 69,80.5C 71.7459,81.6498 74.5792,82.1498 77.5,82C 78.8333,79.6667 78.8333,77.3333 77.5,75C 79.6937,73.4472 80.8604,71.2805 81,68.5C 84.4905,64.4117 87.4905,64.7451 90,69.5C 90.4992,74.1548 90.6658,78.8215 90.5,83.5C 92.1667,83.5 93.8333,83.5 95.5,83.5 Z"/></g>
<g><path style="opacity:1" fill="#887d6f" d="M 226.5,67.5 C 226.5,72.1667 226.5,76.8333 226.5,81.5C 225.142,80.3744 223.808,80.3744 222.5,81.5C 220.862,85.6883 219.862,90.0217 219.5,94.5C 218.709,97.115 218.043,99.7816 217.5,102.5C 216.18,101.058 214.514,100.392 212.5,100.5C 213.751,90.7624 214.585,81.0957 215,71.5C 215.5,69.6667 216.667,68.5 218.5,68C 221.146,67.5026 223.813,67.3359 226.5,67.5 Z"/></g>
<g><path style="opacity:1" fill="#312b31" d="M 107.5,86.5 C 103.454,86.0479 99.4543,85.3813 95.5,84.5C 95.5,84.1667 95.5,83.8333 95.5,83.5C 95.1343,78.2837 95.9676,73.2837 98,68.5C 100.069,69.2638 102.236,69.7638 104.5,70C 105.667,70.5 106.5,71.3333 107,72.5C 107.499,77.1548 107.666,81.8215 107.5,86.5 Z"/></g>
<g><path style="opacity:1" fill="#f2f3f2" d="M 275.5,70.5 C 275.5,78.1667 275.5,85.8333 275.5,93.5C 274.508,93.3284 273.842,93.6618 273.5,94.5C 270.272,95.4137 266.939,95.7471 263.5,95.5C 263.5,87.1667 263.5,78.8333 263.5,70.5C 267.39,67.8997 271.39,67.8997 275.5,70.5 Z"/></g>
<g><path style="opacity:1" fill="#f9faec" d="M 258.5,70.5 C 258.833,70.5 259.167,70.5 259.5,70.5C 259.666,78.84 259.5,87.1733 259,95.5C 253.707,97.2538 248.873,96.5872 244.5,93.5C 243.612,90.9455 243.279,88.2788 243.5,85.5C 243.041,80.4801 244.041,75.8134 246.5,71.5C 250.434,70.6403 254.434,70.307 258.5,70.5 Z"/></g>
<g><path style="opacity:1" fill="#382520" d="M 5.5,77.5 C 22.1314,79.9958 38.798,82.3291 55.5,84.5C 68.208,86.1695 80.8746,87.8362 93.5,89.5C 94.1667,89.5 94.8333,89.5 95.5,89.5C 94.8283,92.3428 93.495,94.8428 91.5,97C 94.8635,99.5331 95.1968,102.366 92.5,105.5C 93.7237,108.495 93.7237,111.495 92.5,114.5C 90.7085,114.634 89.0418,114.301 87.5,113.5C 87.6633,111.143 87.4966,108.81 87,106.5C 84.4598,105.124 82.4598,105.79 81,108.5C 80.805,109.819 80.9717,111.153 81.5,112.5C 77.3028,114.568 75.1361,113.235 75,108.5C 73.2739,107.424 71.4406,107.257 69.5,108C 68.1667,109.333 66.8333,110.667 65.5,112C 60.1535,112.432 54.8202,112.266 49.5,111.5C 52.2539,101.614 48.9206,98.2809 39.5,101.5C 37.5505,99.048 35.3838,99.048 33,101.5C 32.5172,102.448 32.3505,103.448 32.5,104.5C 31.776,106.218 31.1094,108.052 30.5,110C 25.6455,110.764 20.6455,110.597 15.5,109.5C 15.7261,106.751 15.3928,104.084 14.5,101.5C 12.6385,100.472 11.3052,98.9717 10.5,97C 8.86586,96.5065 7.19919,96.3398 5.5,96.5C 6.11014,90.1159 6.11014,83.7826 5.5,77.5 Z"/></g>
<g><path style="opacity:1" fill="#311918" d="M 167.5,77.5 C 168.41,79.0188 169.243,80.6854 170,82.5C 181.221,90.4414 186.721,101.275 186.5,115C 184.652,117.179 182.485,119.013 180,120.5C 179.608,124.587 177.442,126.92 173.5,127.5C 171.579,126.637 169.579,125.971 167.5,125.5C 166.849,124.909 166.182,124.243 165.5,123.5C 162.718,124.516 160.051,125.516 157.5,126.5C 156.448,126.351 155.448,126.517 154.5,127C 153.149,130.195 150.815,132.028 147.5,132.5C 147.663,130.143 147.497,127.81 147,125.5C 145.134,123.481 143.967,121.148 143.5,118.5C 145.56,110.476 147.727,102.476 150,94.5C 153.304,88.448 157.471,83.1147 162.5,78.5C 164.071,77.6906 165.738,77.3573 167.5,77.5 Z"/></g>
<g><path style="opacity:1" fill="#cdbb88" d="M 226.5,81.5 C 226.5,83.1667 226.5,84.8333 226.5,86.5C 226.007,88.8056 225.674,91.139 225.5,93.5C 223.435,93.5172 221.435,93.8505 219.5,94.5C 219.862,90.0217 220.862,85.6883 222.5,81.5C 223.808,80.3744 225.142,80.3744 226.5,81.5 Z"/></g>
<g><path style="opacity:1" fill="#e0ce8e" d="M 237.5,85.5 C 237.167,93.5 236.833,101.5 236.5,109.5C 234.565,110.15 232.565,110.483 230.5,110.5C 230.5,102.833 230.5,95.1667 230.5,87.5C 231.785,85.9378 233.285,84.6045 235,83.5C 236.011,84.0556 236.844,84.7222 237.5,85.5 Z"/></g>
<g><path style="opacity:1" fill="#89643e" d="M 237.5,85.5 C 239.5,85.5 241.5,85.5 243.5,85.5C 243.279,88.2788 243.612,90.9455 244.5,93.5C 243.861,94.0968 243.528,94.9302 243.5,96C 244.378,97.8001 245.045,99.6334 245.5,101.5C 243.635,107.618 242.968,113.952 243.5,120.5C 243.5,123.5 243.5,126.5 243.5,129.5C 242.515,134.54 244.348,137.873 249,139.5C 252.496,138.797 255.996,138.13 259.5,137.5C 260.833,137.5 262.167,137.5 263.5,137.5C 263.611,138.117 263.944,138.617 264.5,139C 268.149,139.963 271.482,139.463 274.5,137.5C 275.483,141.298 275.817,145.298 275.5,149.5C 260.893,147.897 246.227,147.564 231.5,148.5C 230.92,144.19 230.586,139.857 230.5,135.5C 227.763,135.401 225.096,135.735 222.5,136.5C 222.798,131.419 220.798,127.752 216.5,125.5C 217.167,124.167 217.833,122.833 218.5,121.5C 220.784,121.025 222.784,120.025 224.5,118.5C 226.001,119.752 227.668,120.752 229.5,121.5C 229.523,123.927 230.023,126.26 231,128.5C 232.707,129.138 234.54,129.138 236.5,128.5C 236.5,122.167 236.5,115.833 236.5,109.5C 236.833,101.5 237.167,93.5 237.5,85.5 Z"/></g>
<g><path style="opacity:1" fill="#281c1b" d="M 95.5,89.5 C 98.8067,90.0508 102.14,90.3841 105.5,90.5C 105.248,95.6854 104.248,100.685 102.5,105.5C 101.504,105.414 100.671,105.748 100,106.5C 99.433,109.168 98.933,111.834 98.5,114.5C 96.5,114.5 94.5,114.5 92.5,114.5C 93.7237,111.495 93.7237,108.495 92.5,105.5C 95.1968,102.366 94.8635,99.5331 91.5,97C 93.495,94.8428 94.8283,92.3428 95.5,89.5 Z"/></g>
<g><path style="opacity:1" fill="#a07b50" d="M 226.5,86.5 C 228.099,86.2322 229.432,86.5655 230.5,87.5C 230.5,95.1667 230.5,102.833 230.5,110.5C 230.815,114.371 230.482,118.038 229.5,121.5C 227.668,120.752 226.001,119.752 224.5,118.5C 225.469,110.252 225.802,101.918 225.5,93.5C 225.674,91.139 226.007,88.8056 226.5,86.5 Z"/></g>
<g><path style="opacity:1" fill="#ece1a7" d="M 225.5,93.5 C 225.802,101.918 225.469,110.252 224.5,118.5C 222.784,120.025 220.784,121.025 218.5,121.5C 217.5,121.5 216.5,121.5 215.5,121.5C 215.5,121.167 215.5,120.833 215.5,120.5C 217.046,114.432 217.713,108.432 217.5,102.5C 218.043,99.7816 218.709,97.115 219.5,94.5C 221.435,93.8505 223.435,93.5172 225.5,93.5 Z"/></g>
<g><path style="opacity:1" fill="#756a5c" d="M 275.5,93.5 C 275.5,94.1667 275.833,94.5 276.5,94.5C 276.5,96.1667 276.5,97.8333 276.5,99.5C 275.833,99.5 275.167,99.5 274.5,99.5C 273.699,97.9582 273.366,96.2915 273.5,94.5C 273.842,93.6618 274.508,93.3284 275.5,93.5 Z"/></g>
<g><path style="opacity:1" fill="#ae9f87" d="M 259.5,70.5 C 260.833,70.5 262.167,70.5 263.5,70.5C 263.5,78.8333 263.5,87.1667 263.5,95.5C 266.939,95.7471 270.272,95.4137 273.5,94.5C 273.366,96.2915 273.699,97.9582 274.5,99.5C 274.5,99.8333 274.5,100.167 274.5,100.5C 270.966,99.2833 267.466,99.2833 264,100.5C 263.5,112.829 263.333,125.162 263.5,137.5C 262.167,137.5 260.833,137.5 259.5,137.5C 259.5,125.167 259.5,112.833 259.5,100.5C 254.786,100.353 250.119,100.686 245.5,101.5C 245.045,99.6334 244.378,97.8001 243.5,96C 243.528,94.9302 243.861,94.0968 244.5,93.5C 248.873,96.5872 253.707,97.2538 259,95.5C 259.5,87.1733 259.666,78.84 259.5,70.5 Z"/></g>
<g><path style="opacity:1" fill="#82573d" d="M 39.5,101.5 C 39.5,103.833 39.5,106.167 39.5,108.5C 38.1266,108.657 36.7932,108.49 35.5,108C 34.8366,106.482 33.8366,105.315 32.5,104.5C 32.3505,103.448 32.5172,102.448 33,101.5C 35.3838,99.048 37.5505,99.048 39.5,101.5 Z"/></g>
<g><path style="opacity:1" fill="#f9f3ec" d="M 274.5,100.5 C 275.82,112.735 275.82,125.069 274.5,137.5C 271.482,139.463 268.149,139.963 264.5,139C 263.944,138.617 263.611,138.117 263.5,137.5C 263.333,125.162 263.5,112.829 264,100.5C 267.466,99.2833 270.966,99.2833 274.5,100.5 Z"/></g>
<g><path style="opacity:1" fill="#5d4034" d="M 5.5,96.5 C 7.19919,96.3398 8.86586,96.5065 10.5,97C 11.3052,98.9717 12.6385,100.472 14.5,101.5C 15.3928,104.084 15.7261,106.751 15.5,109.5C 20.6455,110.597 25.6455,110.764 30.5,110C 31.1094,108.052 31.776,106.218 32.5,104.5C 33.8366,105.315 34.8366,106.482 35.5,108C 36.7932,108.49 38.1266,108.657 39.5,108.5C 39.5,106.167 39.5,103.833 39.5,101.5C 48.9206,98.2809 52.2539,101.614 49.5,111.5C 54.8202,112.266 60.1535,112.432 65.5,112C 66.8333,110.667 68.1667,109.333 69.5,108C 71.4406,107.257 73.2739,107.424 75,108.5C 75.1361,113.235 77.3028,114.568 81.5,112.5C 83.2492,114.531 85.2492,114.865 87.5,113.5C 89.0418,114.301 90.7085,114.634 92.5,114.5C 94.5,114.5 96.5,114.5 98.5,114.5C 98.933,111.834 99.433,109.168 100,106.5C 100.671,105.748 101.504,105.414 102.5,105.5C 103.822,105.33 104.989,105.663 106,106.5C 104.984,110.506 105.817,114.172 108.5,117.5C 105.667,117.833 102.833,118.167 100,118.5C 75.8262,117.21 51.6595,115.877 27.5,114.5C 20.4447,114.218 13.4447,113.551 6.5,112.5C 5.50776,108.217 5.17443,103.884 5.5,99.5C 5.5,98.5 5.5,97.5 5.5,96.5 Z"/></g>
<g><path style="opacity:1" fill="#f9faec" d="M 259.5,137.5 C 255.996,138.13 252.496,138.797 249,139.5C 244.348,137.873 242.515,134.54 243.5,129.5C 246.26,127.604 247.094,124.937 246,121.5C 245.329,120.748 244.496,120.414 243.5,120.5C 242.968,113.952 243.635,107.618 245.5,101.5C 250.119,100.686 254.786,100.353 259.5,100.5C 259.5,112.833 259.5,125.167 259.5,137.5 Z"/></g>
<g><path style="opacity:1" fill="#826a5c" d="M 87.5,113.5 C 85.2492,114.865 83.2492,114.531 81.5,112.5C 80.9717,111.153 80.805,109.819 81,108.5C 82.4598,105.79 84.4598,105.124 87,106.5C 87.4966,108.81 87.6633,111.143 87.5,113.5 Z"/></g>
<g><path style="opacity:1" fill="#d3bb75" d="M 236.5,109.5 C 236.5,115.833 236.5,122.167 236.5,128.5C 234.54,129.138 232.707,129.138 231,128.5C 230.023,126.26 229.523,123.927 229.5,121.5C 230.482,118.038 230.815,114.371 230.5,110.5C 232.565,110.483 234.565,110.15 236.5,109.5 Z"/></g>
<g><path style="opacity:1" fill="#574a43" d="M 196.5,96.5 C 200.115,98.0208 202.615,100.687 204,104.5C 204.947,109.832 205.78,115.166 206.5,120.5C 209.542,119.459 212.542,119.459 215.5,120.5C 215.5,120.833 215.5,121.167 215.5,121.5C 213.808,124.492 211.141,126.326 207.5,127C 206.424,128.726 206.257,130.559 207,132.5C 207.725,133.059 208.558,133.392 209.5,133.5C 211.325,132.349 213.325,131.682 215.5,131.5C 216.404,132.209 216.737,133.209 216.5,134.5C 213.422,136.976 211.589,140.309 211,144.5C 210.352,149.204 210.519,153.871 211.5,158.5C 209.744,162.764 208.41,167.098 207.5,171.5C 206.209,171.737 205.209,171.404 204.5,170.5C 205.023,159.794 205.023,149.127 204.5,138.5C 202.03,138.346 200.03,137.346 198.5,135.5C 197.95,125.871 196.95,116.205 195.5,106.5C 195.645,103.133 195.978,99.7994 196.5,96.5 Z"/></g>
<g><path style="opacity:1" fill="#4b3225" d="M 27.5,119.5 C 38.7907,120.805 50.124,121.638 61.5,122C 64.2321,122.413 66.8987,123.08 69.5,124C 73.2597,125.461 76.0931,127.961 78,131.5C 77.3228,137.821 77.4894,144.155 78.5,150.5C 71.1457,150.364 63.8124,150.697 56.5,151.5C 53.8368,151.681 51.5034,151.015 49.5,149.5C 51.7197,143.556 49.7197,141.056 43.5,142C 41.393,143.264 40.393,145.097 40.5,147.5C 39.1634,148.315 38.1634,149.482 37.5,151C 36.1667,151.667 34.8333,151.667 33.5,151C 33.1161,146.92 32.9494,142.754 33,138.5C 30.5024,137.221 28.0024,137.221 25.5,138.5C 24.811,135.962 23.811,133.462 22.5,131C 25.2612,128.148 27.2612,124.815 28.5,121C 27.944,120.617 27.6107,120.117 27.5,119.5 Z"/></g>
<g><path style="opacity:1" fill="#d9c8a1" d="M 243.5,120.5 C 244.496,120.414 245.329,120.748 246,121.5C 247.094,124.937 246.26,127.604 243.5,129.5C 243.5,126.5 243.5,123.5 243.5,120.5 Z"/></g>
<g><path style="opacity:1" fill="#352117" d="M -0.5,27.5 C 0.33207,50.6631 0.83207,73.9964 1,97.5C 2.47049,98.2666 3.97049,98.9332 5.5,99.5C 5.17443,103.884 5.50776,108.217 6.5,112.5C 13.4447,113.551 20.4447,114.218 27.5,114.5C 27.5,116.167 27.5,117.833 27.5,119.5C 23.4183,119.344 19.4183,119.844 15.5,121C 14.1772,121.816 13.5106,122.983 13.5,124.5C 11.1447,123.906 8.97802,122.906 7,121.5C 6.22797,121.645 5.5613,121.978 5,122.5C 4.97293,133.826 5.1396,145.16 5.5,156.5C 6.77839,158.544 6.61173,160.544 5,162.5C 4.50031,170.159 4.33365,177.826 4.5,185.5C 2.70848,185.634 1.04181,185.301 -0.5,184.5C -0.5,132.167 -0.5,79.8333 -0.5,27.5 Z"/></g>
<g><path style="opacity:1" fill="#371e19" d="M 167.5,125.5 C 167.724,129.179 168.058,132.846 168.5,136.5C 162.966,139.318 162.133,143.318 166,148.5C 168.043,150.208 169.71,152.208 171,154.5C 172.98,153.251 174.813,151.918 176.5,150.5C 179.701,154.949 178.868,158.616 174,161.5C 173.267,165.234 171.1,167.734 167.5,169C 167.926,172.592 169.926,174.092 173.5,173.5C 173.645,179.738 175.478,185.405 179,190.5C 179.495,192.473 179.662,194.473 179.5,196.5C 176.781,196.603 174.115,196.269 171.5,195.5C 169.131,195.595 167.464,196.595 166.5,198.5C 163.304,199.792 160.304,199.292 157.5,197C 154.858,191.532 154.858,186.032 157.5,180.5C 159.793,179.374 161.96,178.041 164,176.5C 165.69,168.683 162.524,164.35 154.5,163.5C 151.45,160.722 149.117,157.388 147.5,153.5C 149.817,145.986 153.317,138.986 158,132.5C 158.49,130.455 158.323,128.455 157.5,126.5C 160.051,125.516 162.718,124.516 165.5,123.5C 166.182,124.243 166.849,124.909 167.5,125.5 Z"/></g>
<g><path style="opacity:1" fill="#87796b" d="M 215.5,121.5 C 216.5,121.5 217.5,121.5 218.5,121.5C 217.833,122.833 217.167,124.167 216.5,125.5C 215.414,125.62 214.747,126.287 214.5,127.5C 214.846,128.849 215.179,130.183 215.5,131.5C 213.325,131.682 211.325,132.349 209.5,133.5C 208.558,133.392 207.725,133.059 207,132.5C 206.257,130.559 206.424,128.726 207.5,127C 211.141,126.326 213.808,124.492 215.5,121.5 Z"/></g>
<g><path style="opacity:1" fill="#634431" d="M 167.5,125.5 C 169.579,125.971 171.579,126.637 173.5,127.5C 174.341,129.379 174.675,131.379 174.5,133.5C 175.5,133.5 176.5,133.5 177.5,133.5C 176.499,136.838 175.499,140.171 174.5,143.5C 171.8,141.766 169.8,139.432 168.5,136.5C 168.058,132.846 167.724,129.179 167.5,125.5 Z"/></g>
<g><path style="opacity:1" fill="#b79c6e" d="M 216.5,125.5 C 220.798,127.752 222.798,131.419 222.5,136.5C 222.198,139.373 221.531,142.039 220.5,144.5C 219.85,144.196 219.183,143.863 218.5,143.5C 217.833,140.358 217.166,137.358 216.5,134.5C 216.737,133.209 216.404,132.209 215.5,131.5C 215.179,130.183 214.846,128.849 214.5,127.5C 214.747,126.287 215.414,125.62 216.5,125.5 Z"/></g>
<g><path style="opacity:1" fill="#8e5d3d" d="M 95.5,144.5 C 93.1799,146.226 90.5133,146.893 87.5,146.5C 87.5,142.167 87.5,137.833 87.5,133.5C 89.7925,133.244 91.9592,133.577 94,134.5C 95.3158,137.688 95.8158,141.022 95.5,144.5 Z"/></g>
<g><path style="opacity:1" fill="#4a443d" d="M 103.5,133.5 C 105.144,133.286 106.644,133.62 108,134.5C 109.628,138.325 109.795,142.158 108.5,146C 106.559,146.743 104.726,146.576 103,145.5C 102.306,141.446 102.473,137.446 103.5,133.5 Z"/></g>
<g><path style="opacity:1" fill="#856c55" d="M 216.5,134.5 C 217.166,137.358 217.833,140.358 218.5,143.5C 219.183,143.863 219.85,144.196 220.5,144.5C 220.167,149.167 219.833,153.833 219.5,158.5C 216.833,158.5 214.167,158.5 211.5,158.5C 210.519,153.871 210.352,149.204 211,144.5C 211.589,140.309 213.422,136.976 216.5,134.5 Z"/></g>
<g><path style="opacity:1" fill="#694b31" d="M 231.5,148.5 C 230.226,149.189 230.226,150.023 231.5,151C 246.241,151.815 260.908,151.649 275.5,150.5C 275.5,154.833 275.5,159.167 275.5,163.5C 274.305,163.678 273.138,164.011 272,164.5C 254.733,162.276 237.566,161.61 220.5,162.5C 219.566,161.432 219.232,160.099 219.5,158.5C 219.833,153.833 220.167,149.167 220.5,144.5C 221.531,142.039 222.198,139.373 222.5,136.5C 225.096,135.735 227.763,135.401 230.5,135.5C 230.586,139.857 230.92,144.19 231.5,148.5 Z"/></g>
<g><path style="opacity:1" fill="#4a2b1e" d="M 168.5,136.5 C 169.8,139.432 171.8,141.766 174.5,143.5C 174.878,145.921 175.545,148.254 176.5,150.5C 174.813,151.918 172.98,153.251 171,154.5C 169.71,152.208 168.043,150.208 166,148.5C 162.133,143.318 162.966,139.318 168.5,136.5 Z"/></g>
<g><path style="opacity:1" fill="#6c4935" d="M 13.5,124.5 C 14.1174,124.611 14.6174,124.944 15,125.5C 15.5868,134.183 15.4202,142.849 14.5,151.5C 17.5184,151.665 20.5184,151.498 23.5,151C 24,150.5 24.5,150 25,149.5C 24.1815,145.831 24.3481,142.165 25.5,138.5C 28.0024,137.221 30.5024,137.221 33,138.5C 32.9494,142.754 33.1161,146.92 33.5,151C 34.8333,151.667 36.1667,151.667 37.5,151C 38.1634,149.482 39.1634,148.315 40.5,147.5C 42.947,150.528 45.947,151.195 49.5,149.5C 51.5034,151.015 53.8368,151.681 56.5,151.5C 63.8124,150.697 71.1457,150.364 78.5,150.5C 81.2165,150.322 83.8832,149.822 86.5,149C 87.2524,148.329 87.5858,147.496 87.5,146.5C 90.5133,146.893 93.1799,146.226 95.5,144.5C 95.2865,146.144 95.6198,147.644 96.5,149C 98.8333,149.333 101.167,149.667 103.5,150C 104.337,151.011 104.67,152.178 104.5,153.5C 71.5068,154.707 38.5068,155.707 5.5,156.5C 5.1396,145.16 4.97293,133.826 5,122.5C 5.5613,121.978 6.22797,121.645 7,121.5C 8.97802,122.906 11.1447,123.906 13.5,124.5 Z"/></g>
<g><path style="opacity:1" fill="#3c251b" d="M 27.5,119.5 C 27.6107,120.117 27.944,120.617 28.5,121C 27.2612,124.815 25.2612,128.148 22.5,131C 23.811,133.462 24.811,135.962 25.5,138.5C 24.3481,142.165 24.1815,145.831 25,149.5C 24.5,150 24,150.5 23.5,151C 20.5184,151.498 17.5184,151.665 14.5,151.5C 15.4202,142.849 15.5868,134.183 15,125.5C 14.6174,124.944 14.1174,124.611 13.5,124.5C 13.5106,122.983 14.1772,121.816 15.5,121C 19.4183,119.844 23.4183,119.344 27.5,119.5 Z"/></g>
<g><path style="opacity:1" fill="#c0b588" d="M 49.5,149.5 C 45.947,151.195 42.947,150.528 40.5,147.5C 40.393,145.097 41.393,143.264 43.5,142C 49.7197,141.056 51.7197,143.556 49.5,149.5 Z"/></g>
<g><path style="opacity:1" fill="#7a6861" d="M 198.5,135.5 C 200.03,137.346 202.03,138.346 204.5,138.5C 205.023,149.127 205.023,159.794 204.5,170.5C 203.417,170.539 202.417,170.873 201.5,171.5C 200.833,174.833 200.167,178.167 199.5,181.5C 196.623,180.657 194.456,178.99 193,176.5C 192.579,167.15 192.912,157.817 194,148.5C 193.867,143.467 195.367,139.134 198.5,135.5 Z"/></g>
<g><path style="opacity:1" fill="#967556" d="M 275.5,149.5 C 275.5,149.833 275.5,150.167 275.5,150.5C 260.908,151.649 246.241,151.815 231.5,151C 230.226,150.023 230.226,149.189 231.5,148.5C 246.227,147.564 260.893,147.897 275.5,149.5 Z"/></g>
<g><path style="opacity:1" fill="#695d56" d="M 211.5,158.5 C 214.167,158.5 216.833,158.5 219.5,158.5C 219.232,160.099 219.566,161.432 220.5,162.5C 220.5,163.833 220.5,165.167 220.5,166.5C 219.955,169.813 219.455,173.146 219,176.5C 217.698,177.085 216.531,177.751 215.5,178.5C 207.958,183.087 205.291,180.753 207.5,171.5C 208.41,167.098 209.744,162.764 211.5,158.5 Z"/></g>
<g><path style="opacity:1" fill="#573e32" d="M 74.5,159.5 C 73.7485,162.747 73.2485,166.081 73,169.5C 72.4782,172.281 71.3115,174.615 69.5,176.5C 66.2291,174.974 62.7291,174.308 59,174.5C 56.0706,174.525 53.5706,175.191 51.5,176.5C 49.095,176.134 46.7617,175.467 44.5,174.5C 42.5828,174.754 41.2495,175.754 40.5,177.5C 39.8501,177.196 39.1835,176.863 38.5,176.5C 33.9049,177.655 29.2383,178.488 24.5,179C 23.4639,180.776 23.4639,182.609 24.5,184.5C 23.8333,184.5 23.1667,184.5 22.5,184.5C 21.3406,182.75 19.674,181.75 17.5,181.5C 18.822,179.689 19.322,177.689 19,175.5C 16.6922,174.009 14.1922,173.009 11.5,172.5C 12.1647,169.53 12.8314,166.53 13.5,163.5C 15.7576,162.582 18.0909,161.915 20.5,161.5C 24.7299,162.189 28.8965,162.523 33,162.5C 35.0693,161.736 37.236,161.236 39.5,161C 51.1737,160.566 62.8404,160.066 74.5,159.5 Z"/></g>
<g><path style="opacity:1" fill="#4a322b" d="M 74.5,159.5 C 78.848,160.893 83.348,161.56 88,161.5C 93.8331,160.832 99.6664,160.666 105.5,161C 106.406,162.699 106.739,164.533 106.5,166.5C 100.787,170.493 101.287,173.493 108,175.5C 108.495,178.531 108.329,181.531 107.5,184.5C 101.167,184.5 94.8333,184.5 88.5,184.5C 87.653,183.034 86.3197,182.2 84.5,182C 80.9137,180.892 77.247,180.392 73.5,180.5C 71.8333,179.5 70.5,178.167 69.5,176.5C 71.3115,174.615 72.4782,172.281 73,169.5C 73.2485,166.081 73.7485,162.747 74.5,159.5 Z"/></g>
<g><path style="opacity:1" fill="#543629" d="M 275.5,163.5 C 275.5,166.167 275.5,168.833 275.5,171.5C 271.499,169.396 267.332,168.729 263,169.5C 248.783,167.685 234.616,166.685 220.5,166.5C 220.5,165.167 220.5,163.833 220.5,162.5C 237.566,161.61 254.733,162.276 272,164.5C 273.138,164.011 274.305,163.678 275.5,163.5 Z"/></g>
<g><path style="opacity:1" fill="#a4764d" d="M 106.5,166.5 C 110.935,166.032 113.269,168.032 113.5,172.5C 114.167,176.5 114.833,180.5 115.5,184.5C 114.432,185.434 113.099,185.768 111.5,185.5C 109.901,185.768 108.568,185.434 107.5,184.5C 108.329,181.531 108.495,178.531 108,175.5C 101.287,173.493 100.787,170.493 106.5,166.5 Z"/></g>
<g><path style="opacity:1" fill="#644a37" d="M 220.5,166.5 C 234.616,166.685 248.783,167.685 263,169.5C 267.332,168.729 271.499,169.396 275.5,171.5C 275.5,185.5 275.5,199.5 275.5,213.5C 270.758,215.123 266.258,217.456 262,220.5C 261.444,222.885 261.61,225.218 262.5,227.5C 260.273,228.401 259.273,230.067 259.5,232.5C 257.782,237.882 256.949,243.548 257,249.5C 255.375,250.412 254.541,249.745 254.5,247.5C 253.656,243.901 253.323,240.234 253.5,236.5C 251.833,236.5 250.167,236.5 248.5,236.5C 248.536,231.716 246.203,229.216 241.5,229C 240.874,228.25 240.374,227.416 240,226.5C 237.595,227.274 235.095,227.774 232.5,228C 231.944,228.383 231.611,228.883 231.5,229.5C 230.13,229.144 229.13,228.31 228.5,227C 229.856,225.433 230.523,223.6 230.5,221.5C 222.169,222.421 216.336,219.087 213,211.5C 212.659,201.4 214.159,191.566 217.5,182C 217.022,180.697 216.355,179.531 215.5,178.5C 216.531,177.751 217.698,177.085 219,176.5C 219.455,173.146 219.955,169.813 220.5,166.5 Z"/></g>
<g><path style="opacity:1" fill="#9b6a4a" d="M 11.5,172.5 C 14.1922,173.009 16.6922,174.009 19,175.5C 19.322,177.689 18.822,179.689 17.5,181.5C 16.8333,181.5 16.1667,181.5 15.5,181.5C 13.2294,179.734 11.0627,177.734 9,175.5C 8.51722,174.552 8.35055,173.552 8.5,172.5C 9.5,172.5 10.5,172.5 11.5,172.5 Z"/></g>
<g><path style="opacity:1" fill="#b46443" d="M 69.5,176.5 C 70.5,178.167 71.8333,179.5 73.5,180.5C 73.6399,182.124 72.9733,183.29 71.5,184C 67.2486,185.195 62.9152,185.695 58.5,185.5C 57.5,185.5 56.5,185.5 55.5,185.5C 55.6567,184.127 55.49,182.793 55,181.5C 53.1978,180.211 52.0312,178.544 51.5,176.5C 53.5706,175.191 56.0706,174.525 59,174.5C 62.7291,174.308 66.2291,174.974 69.5,176.5 Z"/></g>
<g><path style="opacity:1" fill="#f2f3c7" d="M 40.5,177.5 C 44.5216,179.522 47.5216,182.522 49.5,186.5C 44.2195,189.24 38.5529,190.906 32.5,191.5C 30.1549,188.823 27.4883,186.49 24.5,184.5C 23.4639,182.609 23.4639,180.776 24.5,179C 29.2383,178.488 33.9049,177.655 38.5,176.5C 39.1835,176.863 39.8501,177.196 40.5,177.5 Z"/></g>
<g><path style="opacity:1" fill="#5d3d2d" d="M 121.5,183.5 C 119.735,184.461 117.735,184.795 115.5,184.5C 114.833,180.5 114.167,176.5 113.5,172.5C 114.473,171.209 115.473,171.209 116.5,172.5C 117.939,176.371 119.606,180.038 121.5,183.5 Z"/></g>
<g><path style="opacity:1" fill="#735c4e" d="M 141.5,184.5 C 139.393,185.468 137.059,185.802 134.5,185.5C 132.833,185.5 131.167,185.5 129.5,185.5C 130.473,183.932 130.64,182.265 130,180.5C 128.58,178.556 127.08,176.723 125.5,175C 126.609,173.139 128.275,172.305 130.5,172.5C 133.889,172.953 137.223,173.62 140.5,174.5C 141.487,177.768 141.82,181.102 141.5,184.5 Z"/></g>
<g><path style="opacity:1" fill="#613322" d="M 51.5,176.5 C 52.0312,178.544 53.1978,180.211 55,181.5C 55.49,182.793 55.6567,184.127 55.5,185.5C 56.5,185.5 57.5,185.5 58.5,185.5C 58.5,187.167 58.5,188.833 58.5,190.5C 56.8333,190.5 55.1667,190.5 53.5,190.5C 52.5,188.833 51.1667,187.5 49.5,186.5C 47.5216,182.522 44.5216,179.522 40.5,177.5C 41.2495,175.754 42.5828,174.754 44.5,174.5C 46.7617,175.467 49.095,176.134 51.5,176.5 Z"/></g>
<g><path style="opacity:1" fill="#78422c" d="M 73.5,180.5 C 77.247,180.392 80.9137,180.892 84.5,182C 86.3197,182.2 87.653,183.034 88.5,184.5C 86.1423,186.129 83.4757,187.295 80.5,188C 73.1052,188.394 65.7718,189.227 58.5,190.5C 58.5,188.833 58.5,187.167 58.5,185.5C 62.9152,185.695 67.2486,185.195 71.5,184C 72.9733,183.29 73.6399,182.124 73.5,180.5 Z"/></g>
<g><path style="opacity:1" fill="#3d2b24" d="M 22.5,184.5 C 23.1667,184.5 23.8333,184.5 24.5,184.5C 27.4883,186.49 30.1549,188.823 32.5,191.5C 33.8333,193.167 33.8333,194.833 32.5,196.5C 27.3844,196.569 22.3844,195.902 17.5,194.5C 19.4436,191.34 21.1102,188.007 22.5,184.5 Z"/></g>
<g><path style="opacity:1" fill="#c7704a" d="M 88.5,184.5 C 94.8333,184.5 101.167,184.5 107.5,184.5C 108.568,185.434 109.901,185.768 111.5,185.5C 111.604,187.703 112.27,189.703 113.5,191.5C 110.66,191.898 107.993,192.731 105.5,194C 96.9424,194.098 88.6091,194.932 80.5,196.5C 79.609,195.89 78.609,195.557 77.5,195.5C 77.5654,195.062 77.3988,194.728 77,194.5C 73.625,195.87 70.125,196.87 66.5,197.5C 65.914,197.291 65.414,196.957 65,196.5C 64.2545,197.99 63.0879,198.99 61.5,199.5C 56.8333,198.167 52.1667,198.167 47.5,199.5C 45.5061,198.511 43.5061,197.511 41.5,196.5C 41.281,195.325 41.6143,194.325 42.5,193.5C 46.1648,192.369 49.8315,191.369 53.5,190.5C 55.1667,190.5 56.8333,190.5 58.5,190.5C 65.7718,189.227 73.1052,188.394 80.5,188C 83.4757,187.295 86.1423,186.129 88.5,184.5 Z"/></g>
<g><path style="opacity:1" fill="#e0ca9b" d="M 121.5,183.5 C 123.993,184.774 126.659,185.44 129.5,185.5C 131.167,185.5 132.833,185.5 134.5,185.5C 135.028,186.721 135.695,187.887 136.5,189C 130.509,189.521 124.675,190.688 119,192.5C 117.234,191.767 115.401,191.433 113.5,191.5C 112.27,189.703 111.604,187.703 111.5,185.5C 113.099,185.768 114.432,185.434 115.5,184.5C 117.735,184.795 119.735,184.461 121.5,183.5 Z"/></g>
<g><path style="opacity:1" fill="#957052" d="M 141.5,184.5 C 150.107,183.874 151.774,186.874 146.5,193.5C 140.205,195.018 133.872,196.352 127.5,197.5C 120.815,196.852 117.815,199.852 118.5,206.5C 116.571,206.769 114.905,206.269 113.5,205C 114.676,200.547 114.676,196.047 113.5,191.5C 115.401,191.433 117.234,191.767 119,192.5C 124.675,190.688 130.509,189.521 136.5,189C 135.695,187.887 135.028,186.721 134.5,185.5C 137.059,185.802 139.393,185.468 141.5,184.5 Z"/></g>
<g><path style="opacity:1" fill="#7b4c33" d="M 49.5,186.5 C 51.1667,187.5 52.5,188.833 53.5,190.5C 49.8315,191.369 46.1648,192.369 42.5,193.5C 41.6143,194.325 41.281,195.325 41.5,196.5C 41.1667,197.167 40.8333,197.833 40.5,198.5C 39.5,198.5 38.5,198.5 37.5,198.5C 36.3646,196.787 34.698,196.12 32.5,196.5C 33.8333,194.833 33.8333,193.167 32.5,191.5C 38.5529,190.906 44.2195,189.24 49.5,186.5 Z"/></g>
<g><path style="opacity:1" fill="#773f2c" d="M 113.5,191.5 C 114.676,196.047 114.676,200.547 113.5,205C 114.905,206.269 116.571,206.769 118.5,206.5C 117.269,213.764 115.269,220.764 112.5,227.5C 113.468,230.445 113.634,233.445 113,236.5C 112.292,237.381 111.458,238.047 110.5,238.5C 108.326,235.485 106.659,232.151 105.5,228.5C 104.972,227.279 104.305,226.113 103.5,225C 99.1455,225.569 94.8121,225.403 90.5,224.5C 92.1686,220.011 91.3353,216.011 88,212.5C 87.3333,209.833 86.6667,207.167 86,204.5C 84.5098,203.272 83.0098,203.272 81.5,204.5C 81.4249,201.794 81.0916,199.127 80.5,196.5C 88.6091,194.932 96.9424,194.098 105.5,194C 107.993,192.731 110.66,191.898 113.5,191.5 Z"/></g>
<g><path style="opacity:1" fill="#a8825e" d="M 17.5,194.5 C 22.3844,195.902 27.3844,196.569 32.5,196.5C 34.698,196.12 36.3646,196.787 37.5,198.5C 37.3893,199.117 37.056,199.617 36.5,200C 32.2099,200.923 27.8766,201.423 23.5,201.5C 17.5022,200.167 11.5022,198.834 5.5,197.5C 4.40191,196.603 4.40191,195.77 5.5,195C 9.55324,193.808 13.5532,193.641 17.5,194.5 Z"/></g>
<g><path style="opacity:1" fill="#2c1e1d" d="M 5.5,197.5 C 11.5022,198.834 17.5022,200.167 23.5,201.5C 24.0587,204.516 24.7254,207.516 25.5,210.5C 29.1073,211.489 32.774,211.823 36.5,211.5C 35.6314,213.717 35.298,216.05 35.5,218.5C 32.8872,217.565 30.2205,217.398 27.5,218C 26.1772,218.816 25.5106,219.983 25.5,221.5C 23.6316,220.737 21.9649,219.737 20.5,218.5C 20.0818,215.91 19.0818,213.577 17.5,211.5C 13.1836,210.43 9.18364,208.764 5.5,206.5C 4.16667,203.5 4.16667,200.5 5.5,197.5 Z"/></g>
<g><path style="opacity:1" fill="#180c11" d="M 127.5,197.5 C 128.821,207.988 128.821,218.488 127.5,229C 125.658,231.012 123.325,232.178 120.5,232.5C 118.398,230.09 115.731,228.423 112.5,227.5C 115.269,220.764 117.269,213.764 118.5,206.5C 117.815,199.852 120.815,196.852 127.5,197.5 Z"/></g>
<g><path style="opacity:1" fill="#634b37" d="M 37.5,198.5 C 38.5,198.5 39.5,198.5 40.5,198.5C 41.0579,201.344 41.7245,204.178 42.5,207C 42.3517,208.256 42.0184,209.423 41.5,210.5C 39.5853,210.216 37.9187,210.549 36.5,211.5C 32.774,211.823 29.1073,211.489 25.5,210.5C 24.7254,207.516 24.0587,204.516 23.5,201.5C 27.8766,201.423 32.2099,200.923 36.5,200C 37.056,199.617 37.3893,199.117 37.5,198.5 Z"/></g>
<g><path style="opacity:1" fill="#5b2e23" d="M 77.5,195.5 C 76.7917,199.785 76.2917,204.118 76,208.5C 71.1958,212.897 68.6958,218.397 68.5,225C 66.3657,226.185 64.699,225.352 63.5,222.5C 64.6651,221.504 65.3318,220.171 65.5,218.5C 64.2046,215.207 63.5379,212.04 63.5,209C 61.5685,209.815 59.4019,210.315 57,210.5C 54.3067,210.64 52.14,209.64 50.5,207.5C 48.4714,208.844 46.4714,210.177 44.5,211.5C 43.391,211.443 42.391,211.11 41.5,210.5C 42.0184,209.423 42.3517,208.256 42.5,207C 41.7245,204.178 41.0579,201.344 40.5,198.5C 40.8333,197.833 41.1667,197.167 41.5,196.5C 43.5061,197.511 45.5061,198.511 47.5,199.5C 52.1667,198.167 56.8333,198.167 61.5,199.5C 63.0879,198.99 64.2545,197.99 65,196.5C 65.414,196.957 65.914,197.291 66.5,197.5C 70.125,196.87 73.625,195.87 77,194.5C 77.3988,194.728 77.5654,195.062 77.5,195.5 Z"/></g>
<g><path style="opacity:1" fill="#231717" d="M 175.5,211.5 C 178.138,218.952 178.971,226.619 178,234.5C 175.642,237.822 173.142,238.155 170.5,235.5C 170.018,228.779 168.684,222.279 166.5,216C 161.16,214.466 156.66,215.633 153,219.5C 152.376,221.464 152.876,223.131 154.5,224.5C 152.126,227.028 151.126,230.028 151.5,233.5C 148.032,232.899 144.699,231.899 141.5,230.5C 141.5,223.5 141.5,216.5 141.5,209.5C 142.117,209.611 142.617,209.944 143,210.5C 146.104,208.741 149.271,207.074 152.5,205.5C 159.981,208.235 167.647,210.235 175.5,211.5 Z"/></g>
<g><path style="opacity:1" fill="#0b060b" d="M 5.5,206.5 C 9.18364,208.764 13.1836,210.43 17.5,211.5C 19.0818,213.577 20.0818,215.91 20.5,218.5C 19.6724,224.319 19.1724,230.319 19,236.5C 18.3471,239.139 17.1804,241.473 15.5,243.5C 15.1667,243.5 14.8333,243.5 14.5,243.5C 14.0472,242.542 13.3805,241.708 12.5,241C 8.48994,240.499 4.48994,239.999 0.5,239.5C 0.811156,228.744 0.811156,218.077 0.5,207.5C 2.29152,207.634 3.95819,207.301 5.5,206.5 Z"/></g>
<g><path style="opacity:1" fill="#1a1212" d="M 77.5,195.5 C 78.609,195.557 79.609,195.89 80.5,196.5C 81.0916,199.127 81.4249,201.794 81.5,204.5C 83.2254,210.845 85.0587,217.178 87,223.5C 88.0113,224.337 89.1779,224.67 90.5,224.5C 94.8121,225.403 99.1455,225.569 103.5,225C 104.305,226.113 104.972,227.279 105.5,228.5C 102.991,230.255 100.324,231.755 97.5,233C 83.5092,235.565 69.5092,238.065 55.5,240.5C 53.4434,240.564 51.7767,239.898 50.5,238.5C 50.8239,232.686 53.1573,227.852 57.5,224C 59.4357,223.187 61.4357,222.687 63.5,222.5C 64.699,225.352 66.3657,226.185 68.5,225C 68.6958,218.397 71.1958,212.897 76,208.5C 76.2917,204.118 76.7917,199.785 77.5,195.5 Z"/></g>
<g><path style="opacity:1" fill="#431f18" d="M 63.5,222.5 C 61.4357,222.687 59.4357,223.187 57.5,224C 53.1573,227.852 50.8239,232.686 50.5,238.5C 49.7677,239.808 48.9344,241.142 48,242.5C 47.2917,241.619 46.4584,240.953 45.5,240.5C 46.5575,230.759 46.2242,221.092 44.5,211.5C 46.4714,210.177 48.4714,208.844 50.5,207.5C 52.14,209.64 54.3067,210.64 57,210.5C 59.4019,210.315 61.5685,209.815 63.5,209C 63.5379,212.04 64.2046,215.207 65.5,218.5C 65.3318,220.171 64.6651,221.504 63.5,222.5 Z"/></g>
<g><path style="opacity:1" fill="#180c0b" d="M 41.5,210.5 C 42.391,211.11 43.391,211.443 44.5,211.5C 46.2242,221.092 46.5575,230.759 45.5,240.5C 45.3893,241.117 45.056,241.617 44.5,242C 41.408,242.736 38.408,242.569 35.5,241.5C 36.6323,233.892 36.6323,226.225 35.5,218.5C 35.298,216.05 35.6314,213.717 36.5,211.5C 37.9187,210.549 39.5853,210.216 41.5,210.5 Z"/></g>
<g><path style="opacity:1" fill="#7e573e" d="M 141.5,209.5 C 141.5,216.5 141.5,223.5 141.5,230.5C 141.458,234.963 140.958,239.63 140,244.5C 138.301,245.406 136.467,245.739 134.5,245.5C 134.333,230.83 134.5,216.163 135,201.5C 137,200.167 139,200.167 141,201.5C 141.497,204.146 141.664,206.813 141.5,209.5 Z"/></g>
<g><path style="opacity:1" fill="#45362e" d="M 275.5,213.5 C 275.665,217.182 275.499,220.848 275,224.5C 271.822,225.67 269.322,227.67 267.5,230.5C 270.167,231.833 272.833,233.167 275.5,234.5C 274.332,236.217 272.665,236.884 270.5,236.5C 268.035,236.233 265.701,235.566 263.5,234.5C 264.566,232.299 265.233,229.965 265.5,227.5C 264.5,227.5 263.5,227.5 262.5,227.5C 261.61,225.218 261.444,222.885 262,220.5C 266.258,217.456 270.758,215.123 275.5,213.5 Z"/></g>
<g><path style="opacity:1" fill="#9c6146" d="M 90.5,224.5 C 89.1779,224.67 88.0113,224.337 87,223.5C 85.0587,217.178 83.2254,210.845 81.5,204.5C 83.0098,203.272 84.5098,203.272 86,204.5C 86.6667,207.167 87.3333,209.833 88,212.5C 91.3353,216.011 92.1686,220.011 90.5,224.5 Z"/></g>
<g><path style="opacity:1" fill="#503e31" d="M 35.5,218.5 C 36.6323,226.225 36.6323,233.892 35.5,241.5C 35.3342,246.179 35.5008,250.845 36,255.5C 36.985,256.814 38.1516,257.814 39.5,258.5C 38.6993,260.042 38.366,261.708 38.5,263.5C 34.038,263.577 29.7047,262.91 25.5,261.5C 25.3006,248.076 25.3006,234.742 25.5,221.5C 25.5106,219.983 26.1772,218.816 27.5,218C 30.2205,217.398 32.8872,217.565 35.5,218.5 Z"/></g>
<g><path style="opacity:1" fill="#1a1212" d="M 20.5,218.5 C 21.9649,219.737 23.6316,220.737 25.5,221.5C 25.3006,234.742 25.3006,248.076 25.5,261.5C 25.7825,266.927 25.4491,272.26 24.5,277.5C 20.5191,278.021 16.5191,278.354 12.5,278.5C 12.5,275.5 12.5,272.5 12.5,269.5C 13.2526,263.215 13.7526,256.882 14,250.5C 16.5659,248.573 17.0659,246.24 15.5,243.5C 17.1804,241.473 18.3471,239.139 19,236.5C 19.1724,230.319 19.6724,224.319 20.5,218.5 Z"/></g>
<g><path style="opacity:1" fill="#331a19" d="M 170.5,235.5 C 163.98,235.979 157.647,235.312 151.5,233.5C 151.126,230.028 152.126,227.028 154.5,224.5C 152.876,223.131 152.376,221.464 153,219.5C 156.66,215.633 161.16,214.466 166.5,216C 168.684,222.279 170.018,228.779 170.5,235.5 Z"/></g>
<g><path style="opacity:1" fill="#69442a" d="M 248.5,236.5 C 245.878,240.158 242.212,241.324 237.5,240C 235.965,237.376 234.798,234.543 234,231.5C 233.329,230.748 232.496,230.414 231.5,230.5C 231.5,230.167 231.5,229.833 231.5,229.5C 231.611,228.883 231.944,228.383 232.5,228C 235.095,227.774 237.595,227.274 240,226.5C 240.374,227.416 240.874,228.25 241.5,229C 246.203,229.216 248.536,231.716 248.5,236.5 Z"/></g>
<g><path style="opacity:1" fill="#a77d5c" d="M 262.5,227.5 C 263.5,227.5 264.5,227.5 265.5,227.5C 265.233,229.965 264.566,232.299 263.5,234.5C 262.167,233.833 260.833,233.167 259.5,232.5C 259.273,230.067 260.273,228.401 262.5,227.5 Z"/></g>
<g><path style="opacity:1" fill="#241918" d="M 105.5,228.5 C 106.659,232.151 108.326,235.485 110.5,238.5C 110.141,240.371 109.141,241.871 107.5,243C 104.614,245.069 101.947,247.235 99.5,249.5C 96.1457,247.88 92.6457,246.547 89,245.5C 87.0754,247.085 84.9087,248.252 82.5,249C 72.0511,249.663 62.0511,251.83 52.5,255.5C 48.1259,256.344 43.7925,257.344 39.5,258.5C 38.1516,257.814 36.985,256.814 36,255.5C 35.5008,250.845 35.3342,246.179 35.5,241.5C 38.408,242.569 41.408,242.736 44.5,242C 45.056,241.617 45.3893,241.117 45.5,240.5C 46.4584,240.953 47.2917,241.619 48,242.5C 48.9344,241.142 49.7677,239.808 50.5,238.5C 51.7767,239.898 53.4434,240.564 55.5,240.5C 69.5092,238.065 83.5092,235.565 97.5,233C 100.324,231.755 102.991,230.255 105.5,228.5 Z"/></g>
<g><path style="opacity:1" fill="#2b1919" d="M 259.5,232.5 C 260.833,233.167 262.167,233.833 263.5,234.5C 265.701,235.566 268.035,236.233 270.5,236.5C 270.523,238.6 269.856,240.433 268.5,242C 269.985,244.156 271.485,246.323 273,248.5C 273.373,250.698 273.873,252.865 274.5,255C 272.954,258.592 271.287,262.092 269.5,265.5C 271.056,268.561 272.389,271.728 273.5,275C 272.886,277.854 272.219,280.687 271.5,283.5C 269.631,284.624 267.631,285.457 265.5,286C 264.663,287.011 264.33,288.178 264.5,289.5C 258.13,289.042 252.13,287.375 246.5,284.5C 247.116,283.202 247.116,282.202 246.5,281.5C 246.5,280.833 246.5,280.167 246.5,279.5C 252.736,278.664 255.736,274.997 255.5,268.5C 254.443,265.396 252.443,264.73 249.5,266.5C 248.391,266.557 247.391,266.89 246.5,267.5C 244.444,261.363 243.11,255.029 242.5,248.5C 246.537,247.157 250.537,246.824 254.5,247.5C 254.541,249.745 255.375,250.412 257,249.5C 256.949,243.548 257.782,237.882 259.5,232.5 Z"/></g>
<g><path style="opacity:1" fill="#1f1617" d="M 274.5,100.5 C 274.5,100.167 274.5,99.8333 274.5,99.5C 275.167,99.5 275.833,99.5 276.5,99.5C 276.5,170.167 276.5,240.833 276.5,311.5C 272.5,311.5 268.5,311.5 264.5,311.5C 266.629,308.905 267.962,305.905 268.5,302.5C 272.94,302.559 275.273,300.392 275.5,296C 274.833,295 274.167,294 273.5,293C 270.198,292.339 267.198,291.172 264.5,289.5C 264.33,288.178 264.663,287.011 265.5,286C 267.631,285.457 269.631,284.624 271.5,283.5C 272.219,280.687 272.886,277.854 273.5,275C 272.389,271.728 271.056,268.561 269.5,265.5C 271.287,262.092 272.954,258.592 274.5,255C 273.873,252.865 273.373,250.698 273,248.5C 271.485,246.323 269.985,244.156 268.5,242C 269.856,240.433 270.523,238.6 270.5,236.5C 272.665,236.884 274.332,236.217 275.5,234.5C 272.833,233.167 270.167,231.833 267.5,230.5C 269.322,227.67 271.822,225.67 275,224.5C 275.499,220.848 275.665,217.182 275.5,213.5C 275.5,199.5 275.5,185.5 275.5,171.5C 275.5,168.833 275.5,166.167 275.5,163.5C 275.5,159.167 275.5,154.833 275.5,150.5C 275.5,150.167 275.5,149.833 275.5,149.5C 275.817,145.298 275.483,141.298 274.5,137.5C 275.82,125.069 275.82,112.735 274.5,100.5 Z"/></g>
<g><path style="opacity:1" fill="#6a503d" d="M 217.5,252.5 C 211.564,253.375 210.231,256.375 213.5,261.5C 212.054,262.613 210.387,262.78 208.5,262C 203.046,258.88 198.546,254.713 195,249.5C 187.183,252.605 179.349,255.605 171.5,258.5C 164.761,260.365 158.095,262.532 151.5,265C 150.619,265.708 149.953,266.542 149.5,267.5C 146.426,266.579 145.426,264.746 146.5,262C 149.216,261.218 151.55,259.884 153.5,258C 152.944,256.989 152.278,256.156 151.5,255.5C 156.902,252.624 162.236,249.457 167.5,246C 171.22,244.987 174.886,243.82 178.5,242.5C 182.464,243.231 186.464,243.398 190.5,243C 193.599,244.111 196.099,245.944 198,248.5C 203.819,246.673 209.486,244.673 215,242.5C 220.023,244.741 220.856,248.074 217.5,252.5 Z"/></g>
<g><path style="opacity:1" fill="#7d6f63" d="M 99.5,249.5 C 100.189,250.707 100.355,252.041 100,253.5C 100.725,254.059 101.558,254.392 102.5,254.5C 112.672,251.865 123.005,250.532 133.5,250.5C 137.22,250.564 140.886,251.064 144.5,252C 146.324,252.66 147.657,253.827 148.5,255.5C 144.035,256.074 140.368,258.241 137.5,262C 132.462,262.617 127.462,263.451 122.5,264.5C 109.024,269.048 95.3577,272.881 81.5,276C 80.7734,277.399 80.2734,278.899 80,280.5C 79.2496,281.126 78.4162,281.626 77.5,282C 68.9586,282.542 60.6252,284.042 52.5,286.5C 52.7373,287.791 52.404,288.791 51.5,289.5C 50.5,288.833 49.5,288.167 48.5,287.5C 49.9598,284.537 49.4598,281.87 47,279.5C 46.3333,278.167 46.3333,276.833 47,275.5C 49.087,274.206 51.2537,273.039 53.5,272C 55.5938,270.745 56.5938,268.912 56.5,266.5C 54.4241,263.163 53.0908,259.496 52.5,255.5C 62.0511,251.83 72.0511,249.663 82.5,249C 84.9087,248.252 87.0754,247.085 89,245.5C 92.6457,246.547 96.1457,247.88 99.5,249.5 Z"/></g>
<g><path style="opacity:1" fill="#755139" d="M 14.5,243.5 C 14.8333,243.5 15.1667,243.5 15.5,243.5C 17.0659,246.24 16.5659,248.573 14,250.5C 13.7526,256.882 13.2526,263.215 12.5,269.5C 10.9705,270.067 9.47049,270.733 8,271.5C 7.66667,267.5 7.33333,263.5 7,259.5C 6.32924,258.748 5.4959,258.414 4.5,258.5C 4.14888,256.131 3.98221,253.797 4,251.5C 8.05712,249.408 11.5571,246.741 14.5,243.5 Z"/></g>
<g><path style="opacity:1" fill="#452c20" d="M 231.5,230.5 C 232.496,230.414 233.329,230.748 234,231.5C 234.798,234.543 235.965,237.376 237.5,240C 242.212,241.324 245.878,240.158 248.5,236.5C 250.167,236.5 251.833,236.5 253.5,236.5C 253.323,240.234 253.656,243.901 254.5,247.5C 250.537,246.824 246.537,247.157 242.5,248.5C 243.11,255.029 244.444,261.363 246.5,267.5C 234.96,267.967 223.96,265.967 213.5,261.5C 210.231,256.375 211.564,253.375 217.5,252.5C 218.312,253.993 219.645,254.66 221.5,254.5C 222.772,254.43 223.938,254.097 225,253.5C 225.333,250.167 225.667,246.833 226,243.5C 227.527,238.93 229.36,234.597 231.5,230.5 Z"/></g>
<g><path style="opacity:1" fill="#1a1313" d="M 15.5,181.5 C 16.1667,181.5 16.8333,181.5 17.5,181.5C 19.674,181.75 21.3406,182.75 22.5,184.5C 21.1102,188.007 19.4436,191.34 17.5,194.5C 13.5532,193.641 9.55324,193.808 5.5,195C 4.40191,195.77 4.40191,196.603 5.5,197.5C 4.16667,200.5 4.16667,203.5 5.5,206.5C 3.95819,207.301 2.29152,207.634 0.5,207.5C 0.811156,218.077 0.811156,228.744 0.5,239.5C 4.48994,239.999 8.48994,240.499 12.5,241C 13.3805,241.708 14.0472,242.542 14.5,243.5C 11.5571,246.741 8.05712,249.408 4,251.5C 3.98221,253.797 4.14888,256.131 4.5,258.5C 4.79475,268.041 4.46142,277.541 3.5,287C 4.04389,288.585 4.71056,290.085 5.5,291.5C 4.50929,297.979 4.17596,304.646 4.5,311.5C 2.83333,311.5 1.16667,311.5 -0.5,311.5C -0.5,269.167 -0.5,226.833 -0.5,184.5C 1.04181,185.301 2.70848,185.634 4.5,185.5C 9.02741,186.744 12.6941,185.411 15.5,181.5 Z"/></g>
<g><path style="opacity:1" fill="#5b4f49" d="M 52.5,255.5 C 53.0908,259.496 54.4241,263.163 56.5,266.5C 56.5938,268.912 55.5938,270.745 53.5,272C 51.2537,273.039 49.087,274.206 47,275.5C 46.3333,276.833 46.3333,278.167 47,279.5C 49.4598,281.87 49.9598,284.537 48.5,287.5C 44.3329,292.069 41.6663,291.402 40.5,285.5C 39.1667,285.5 37.8333,285.5 36.5,285.5C 34.2812,283.394 31.6145,282.394 28.5,282.5C 27.962,280.883 27.6287,279.216 27.5,277.5C 31.4612,276.551 35.2946,275.218 39,273.5C 40.5214,270.167 40.3547,266.833 38.5,263.5C 38.366,261.708 38.6993,260.042 39.5,258.5C 43.7925,257.344 48.1259,256.344 52.5,255.5 Z"/></g>
<g><path style="opacity:1" fill="#3d2b2a" d="M 25.5,261.5 C 29.7047,262.91 34.038,263.577 38.5,263.5C 40.3547,266.833 40.5214,270.167 39,273.5C 35.2946,275.218 31.4612,276.551 27.5,277.5C 26.5,277.5 25.5,277.5 24.5,277.5C 25.4491,272.26 25.7825,266.927 25.5,261.5 Z"/></g>
<g><path style="opacity:1" fill="#b48f5c" d="M 192.5,263.5 C 192.426,265.411 191.426,266.578 189.5,267C 184.167,267.667 178.833,267.667 173.5,267C 172.199,265.384 172.199,263.884 173.5,262.5C 179.084,261.382 184.751,261.215 190.5,262C 191.416,262.278 192.082,262.778 192.5,263.5 Z"/></g>
<g><path style="opacity:1" fill="#eedcb0" d="M 148.5,255.5 C 149.5,255.5 150.5,255.5 151.5,255.5C 152.278,256.156 152.944,256.989 153.5,258C 151.55,259.884 149.216,261.218 146.5,262C 145.426,264.746 146.426,266.579 149.5,267.5C 151.368,268.263 153.035,269.263 154.5,270.5C 154.608,272.514 153.942,274.18 152.5,275.5C 143.955,276.188 135.955,278.521 128.5,282.5C 127.448,282.351 126.448,282.517 125.5,283C 124.964,285.508 123.631,287.341 121.5,288.5C 121.167,288.5 120.833,288.5 120.5,288.5C 120.038,287.12 119.038,286.453 117.5,286.5C 114.838,287.852 112.005,288.519 109,288.5C 104.545,287.515 100.045,286.848 95.5,286.5C 95.5608,289.05 96.8941,290.55 99.5,291C 96.0856,293.957 92.4189,296.457 88.5,298.5C 87.5,298.5 86.5,298.5 85.5,298.5C 81.1466,298.036 76.98,297.036 73,295.5C 71.6153,295.514 70.4486,295.848 69.5,296.5C 63.3198,294.973 57.3198,292.973 51.5,290.5C 51.5,290.167 51.5,289.833 51.5,289.5C 52.404,288.791 52.7373,287.791 52.5,286.5C 60.6252,284.042 68.9586,282.542 77.5,282C 78.4162,281.626 79.2496,281.126 80,280.5C 80.2734,278.899 80.7734,277.399 81.5,276C 95.3577,272.881 109.024,269.048 122.5,264.5C 127.462,263.451 132.462,262.617 137.5,262C 140.368,258.241 144.035,256.074 148.5,255.5 Z"/></g>
<g><path style="opacity:1" fill="#a0754b" d="M 171.5,258.5 C 171.733,260.062 172.4,261.395 173.5,262.5C 172.199,263.884 172.199,265.384 173.5,267C 178.833,267.667 184.167,267.667 189.5,267C 191.426,266.578 192.426,265.411 192.5,263.5C 194.929,263.585 196.929,264.585 198.5,266.5C 201.438,265.425 204.438,265.259 207.5,266C 208.381,266.708 209.047,267.542 209.5,268.5C 207.02,269.912 204.687,271.578 202.5,273.5C 203.763,275.029 204.763,276.695 205.5,278.5C 204.033,278.894 202.533,279.227 201,279.5C 198.275,276.809 194.942,275.476 191,275.5C 186.248,276.062 181.414,276.062 176.5,275.5C 174.369,274.686 172.036,274.186 169.5,274C 165.363,269.271 160.363,268.105 154.5,270.5C 153.035,269.263 151.368,268.263 149.5,267.5C 149.953,266.542 150.619,265.708 151.5,265C 158.095,262.532 164.761,260.365 171.5,258.5 Z"/></g>
<g><path style="opacity:1" fill="#876440" d="M 213.5,261.5 C 223.96,265.967 234.96,267.967 246.5,267.5C 247.391,266.89 248.391,266.557 249.5,266.5C 249.109,270.54 247.776,274.207 245.5,277.5C 243.539,275.688 241.206,274.688 238.5,274.5C 234.032,275.247 229.699,275.247 225.5,274.5C 225.586,273.504 225.252,272.671 224.5,272C 219.659,269.961 214.659,268.794 209.5,268.5C 209.047,267.542 208.381,266.708 207.5,266C 204.438,265.259 201.438,265.425 198.5,266.5C 196.929,264.585 194.929,263.585 192.5,263.5C 192.082,262.778 191.416,262.278 190.5,262C 184.751,261.215 179.084,261.382 173.5,262.5C 172.4,261.395 171.733,260.062 171.5,258.5C 179.349,255.605 187.183,252.605 195,249.5C 198.546,254.713 203.046,258.88 208.5,262C 210.387,262.78 212.054,262.613 213.5,261.5 Z"/></g>
<g><path style="opacity:1" fill="#bd9963" d="M 209.5,268.5 C 214.659,268.794 219.659,269.961 224.5,272C 225.252,272.671 225.586,273.504 225.5,274.5C 225.422,277.491 224.088,279.491 221.5,280.5C 216.421,276.884 211.088,276.218 205.5,278.5C 204.763,276.695 203.763,275.029 202.5,273.5C 204.687,271.578 207.02,269.912 209.5,268.5 Z"/></g>
<g><path style="opacity:1" fill="#d7bc7b" d="M 176.5,275.5 C 174.422,277.39 173.089,279.724 172.5,282.5C 165.943,279.861 159.277,277.527 152.5,275.5C 153.942,274.18 154.608,272.514 154.5,270.5C 160.363,268.105 165.363,269.271 169.5,274C 172.036,274.186 174.369,274.686 176.5,275.5 Z"/></g>
<g><path style="opacity:1" fill="#462d26" d="M 246.5,279.5 C 246.167,278.833 245.833,278.167 245.5,277.5C 247.776,274.207 249.109,270.54 249.5,266.5C 252.443,264.73 254.443,265.396 255.5,268.5C 255.736,274.997 252.736,278.664 246.5,279.5 Z"/></g>
<g><path style="opacity:1" fill="#ebda94" d="M 238.5,274.5 C 239.644,277.396 238.644,279.563 235.5,281C 232.167,283 228.833,285 225.5,287C 216.651,289.429 208.317,292.929 200.5,297.5C 200.137,298.183 199.804,298.85 199.5,299.5C 196.745,298.369 194.411,296.702 192.5,294.5C 192.768,292.901 192.434,291.568 191.5,290.5C 185.244,287.834 178.911,285.168 172.5,282.5C 173.089,279.724 174.422,277.39 176.5,275.5C 181.414,276.062 186.248,276.062 191,275.5C 194.942,275.476 198.275,276.809 201,279.5C 202.533,279.227 204.033,278.894 205.5,278.5C 211.088,276.218 216.421,276.884 221.5,280.5C 224.088,279.491 225.422,277.491 225.5,274.5C 229.699,275.247 234.032,275.247 238.5,274.5 Z"/></g>
<g><path style="opacity:1" fill="#53382b" d="M 4.5,258.5 C 5.4959,258.414 6.32924,258.748 7,259.5C 7.33333,263.5 7.66667,267.5 8,271.5C 9.47049,270.733 10.9705,270.067 12.5,269.5C 12.5,272.5 12.5,275.5 12.5,278.5C 16.5191,278.354 20.5191,278.021 24.5,277.5C 25.5,277.5 26.5,277.5 27.5,277.5C 27.6287,279.216 27.962,280.883 28.5,282.5C 23.6671,282.375 19.0004,283.208 14.5,285C 12.3645,285.876 11.0312,287.376 10.5,289.5C 9.22086,290.968 7.5542,291.635 5.5,291.5C 4.71056,290.085 4.04389,288.585 3.5,287C 4.46142,277.541 4.79475,268.041 4.5,258.5 Z"/></g>
<g><path style="opacity:1" fill="#ecd48e" d="M 246.5,281.5 C 247.116,282.202 247.116,283.202 246.5,284.5C 244.156,286.997 241.489,288.997 238.5,290.5C 235.92,293.376 232.753,295.376 229,296.5C 228.667,296.167 228.333,295.833 228,295.5C 226.847,298.711 226.18,302.044 226,305.5C 225.583,306.756 224.75,307.423 223.5,307.5C 219.181,308.249 214.848,308.415 210.5,308C 209.619,307.292 208.953,306.458 208.5,305.5C 208.5,304.833 208.5,304.167 208.5,303.5C 208.944,300.778 210.277,298.611 212.5,297C 223.214,291.98 233.547,286.48 243.5,280.5C 244.417,281.127 245.417,281.461 246.5,281.5 Z"/></g>
<g><path style="opacity:1" fill="#c0a872" d="M 238.5,274.5 C 241.206,274.688 243.539,275.688 245.5,277.5C 245.833,278.167 246.167,278.833 246.5,279.5C 246.5,280.167 246.5,280.833 246.5,281.5C 245.417,281.461 244.417,281.127 243.5,280.5C 233.547,286.48 223.214,291.98 212.5,297C 210.277,298.611 208.944,300.778 208.5,303.5C 205.598,302.216 202.598,301.216 199.5,300.5C 199.5,300.167 199.5,299.833 199.5,299.5C 199.804,298.85 200.137,298.183 200.5,297.5C 208.317,292.929 216.651,289.429 225.5,287C 228.833,285 232.167,283 235.5,281C 238.644,279.563 239.644,277.396 238.5,274.5 Z"/></g>
<g><path style="opacity:1" fill="#18060b" d="M 28.5,282.5 C 31.6145,282.394 34.2812,283.394 36.5,285.5C 36.4431,286.609 36.1098,287.609 35.5,288.5C 27.256,291.923 18.9227,292.257 10.5,289.5C 11.0312,287.376 12.3645,285.876 14.5,285C 19.0004,283.208 23.6671,282.375 28.5,282.5 Z"/></g>
<g><path style="opacity:1" fill="#c18150" d="M 152.5,275.5 C 159.277,277.527 165.943,279.861 172.5,282.5C 178.911,285.168 185.244,287.834 191.5,290.5C 191.389,291.117 191.056,291.617 190.5,292C 185.445,293.014 180.445,294.181 175.5,295.5C 175.586,294.504 175.252,293.671 174.5,293C 168.039,290.934 162.039,288.101 156.5,284.5C 150.817,286.426 145.317,288.759 140,291.5C 135.423,289.313 131.59,286.313 128.5,282.5C 135.955,278.521 143.955,276.188 152.5,275.5 Z"/></g>
<g><path style="opacity:1" fill="#b36a3e" d="M 128.5,282.5 C 131.59,286.313 135.423,289.313 140,291.5C 145.317,288.759 150.817,286.426 156.5,284.5C 162.039,288.101 168.039,290.934 174.5,293C 175.252,293.671 175.586,294.504 175.5,295.5C 172.48,296.839 169.48,296.506 166.5,294.5C 164.584,296.789 162.584,298.956 160.5,301C 156.259,302.457 151.926,302.791 147.5,302C 139.942,298.971 132.442,295.805 125,292.5C 123.598,291.355 122.431,290.022 121.5,288.5C 123.631,287.341 124.964,285.508 125.5,283C 126.448,282.517 127.448,282.351 128.5,282.5 Z"/></g>
<g><path style="opacity:1" fill="#ac9574" d="M 120.5,288.5 C 119.833,289.167 119.167,289.833 118.5,290.5C 113.195,291.595 107.862,292.762 102.5,294C 98.9489,295.677 97.6155,298.51 98.5,302.5C 95.1667,301.167 91.8333,299.833 88.5,298.5C 92.4189,296.457 96.0856,293.957 99.5,291C 96.8941,290.55 95.5608,289.05 95.5,286.5C 100.045,286.848 104.545,287.515 109,288.5C 112.005,288.519 114.838,287.852 117.5,286.5C 119.038,286.453 120.038,287.12 120.5,288.5 Z"/></g>
<g><path style="opacity:1" fill="#705542" d="M 36.5,285.5 C 37.8333,285.5 39.1667,285.5 40.5,285.5C 41.6663,291.402 44.3329,292.069 48.5,287.5C 49.5,288.167 50.5,288.833 51.5,289.5C 51.5,289.833 51.5,290.167 51.5,290.5C 51.5,291.5 51.5,292.5 51.5,293.5C 49.2972,293.604 47.2972,294.27 45.5,295.5C 43.5309,293.841 41.5309,292.175 39.5,290.5C 38.4163,290.685 37.4163,291.018 36.5,291.5C 36.3738,290.561 36.0405,289.561 35.5,288.5C 36.1098,287.609 36.4431,286.609 36.5,285.5 Z"/></g>
<g><path style="opacity:1" fill="#3a393e" d="M 246.5,284.5 C 252.13,287.375 258.13,289.042 264.5,289.5C 267.198,291.172 270.198,292.339 273.5,293C 274.167,294 274.833,295 275.5,296C 275.273,300.392 272.94,302.559 268.5,302.5C 264.751,300.611 260.751,299.444 256.5,299C 254.5,298.333 253.167,297 252.5,295C 247.337,294.809 242.671,293.309 238.5,290.5C 241.489,288.997 244.156,286.997 246.5,284.5 Z"/></g>
<g><path style="opacity:1" fill="#2c1a19" d="M 35.5,288.5 C 36.0405,289.561 36.3738,290.561 36.5,291.5C 36.6576,294.902 36.3242,298.236 35.5,301.5C 35.3893,302.117 35.056,302.617 34.5,303C 36.4971,305.492 37.4971,308.325 37.5,311.5C 26.5,311.5 15.5,311.5 4.5,311.5C 4.17596,304.646 4.50929,297.979 5.5,291.5C 7.5542,291.635 9.22086,290.968 10.5,289.5C 18.9227,292.257 27.256,291.923 35.5,288.5 Z"/></g>
<g><path style="opacity:1" fill="#a37758" d="M 45.5,295.5 C 44.1201,295.962 43.4534,296.962 43.5,298.5C 44.2515,300.996 45.2515,303.33 46.5,305.5C 41.8674,310.109 39.0341,309.109 38,302.5C 37.3292,301.748 36.4959,301.414 35.5,301.5C 36.3242,298.236 36.6576,294.902 36.5,291.5C 37.4163,291.018 38.4163,290.685 39.5,290.5C 41.5309,292.175 43.5309,293.841 45.5,295.5 Z"/></g>
<g><path style="opacity:1" fill="#d9bb7c" d="M 118.5,290.5 C 118.511,292.017 119.177,293.184 120.5,294C 123.648,295.424 126.648,296.924 129.5,298.5C 129.586,299.496 129.252,300.329 128.5,301C 125.367,301.86 122.7,303.36 120.5,305.5C 117.221,306.492 113.888,306.659 110.5,306C 106.571,304.523 102.571,303.356 98.5,302.5C 97.6155,298.51 98.9489,295.677 102.5,294C 107.862,292.762 113.195,291.595 118.5,290.5 Z"/></g>
<g><path style="opacity:1" fill="#b78d63" d="M 51.5,290.5 C 57.3198,292.973 63.3198,294.973 69.5,296.5C 72.5301,298.758 75.8635,300.591 79.5,302C 76.8982,304.131 74.2316,305.965 71.5,307.5C 69.5477,307.995 67.5477,308.328 65.5,308.5C 59.2559,306.861 52.9225,305.861 46.5,305.5C 45.2515,303.33 44.2515,300.996 43.5,298.5C 43.4534,296.962 44.1201,295.962 45.5,295.5C 47.2972,294.27 49.2972,293.604 51.5,293.5C 51.5,292.5 51.5,291.5 51.5,290.5 Z"/></g>
<g><path style="opacity:1" fill="#312425" d="M 238.5,290.5 C 242.671,293.309 247.337,294.809 252.5,295C 253.167,297 254.5,298.333 256.5,299C 260.751,299.444 264.751,300.611 268.5,302.5C 267.962,305.905 266.629,308.905 264.5,311.5C 250.5,311.5 236.5,311.5 222.5,311.5C 222.833,310.167 223.167,308.833 223.5,307.5C 224.75,307.423 225.583,306.756 226,305.5C 226.18,302.044 226.847,298.711 228,295.5C 228.333,295.833 228.667,296.167 229,296.5C 232.753,295.376 235.92,293.376 238.5,290.5 Z"/></g>
<g><path style="opacity:1" fill="#825336" d="M 120.5,288.5 C 120.833,288.5 121.167,288.5 121.5,288.5C 122.431,290.022 123.598,291.355 125,292.5C 132.442,295.805 139.942,298.971 147.5,302C 151.926,302.791 156.259,302.457 160.5,301C 162.584,298.956 164.584,296.789 166.5,294.5C 169.48,296.506 172.48,296.839 175.5,295.5C 180.445,294.181 185.445,293.014 190.5,292C 191.056,291.617 191.389,291.117 191.5,290.5C 192.434,291.568 192.768,292.901 192.5,294.5C 179.897,297.701 167.563,301.701 155.5,306.5C 153.167,306.5 150.833,306.5 148.5,306.5C 144.044,303.459 139.044,301.792 133.5,301.5C 132.738,299.738 131.404,298.738 129.5,298.5C 126.648,296.924 123.648,295.424 120.5,294C 119.177,293.184 118.511,292.017 118.5,290.5C 119.167,289.833 119.833,289.167 120.5,288.5 Z"/></g>
<g><path style="opacity:1" fill="#9f7c54" d="M 69.5,296.5 C 70.4486,295.848 71.6153,295.514 73,295.5C 76.98,297.036 81.1466,298.036 85.5,298.5C 84.1667,300.167 84.1667,301.833 85.5,303.5C 82.3538,304.31 80.6871,306.31 80.5,309.5C 82.5273,309.338 84.5273,309.505 86.5,310C 87.056,310.383 87.3893,310.883 87.5,311.5C 82.5,311.5 77.5,311.5 72.5,311.5C 72.1667,310.167 71.8333,308.833 71.5,307.5C 74.2316,305.965 76.8982,304.131 79.5,302C 75.8635,300.591 72.5301,298.758 69.5,296.5 Z"/></g>
<g><path style="opacity:1" fill="#d4b67e" d="M 192.5,294.5 C 194.411,296.702 196.745,298.369 199.5,299.5C 199.5,299.833 199.5,300.167 199.5,300.5C 196.953,301.934 194.619,303.6 192.5,305.5C 189.071,308.127 185.071,309.127 180.5,308.5C 180.351,307.448 180.517,306.448 181,305.5C 183.304,303.932 185.804,302.765 188.5,302C 189.833,301.333 189.833,300.667 188.5,300C 182.703,300.395 177.369,302.228 172.5,305.5C 168.696,307.401 164.696,308.734 160.5,309.5C 159.167,309.333 157.833,309.167 156.5,309C 155.748,308.329 155.414,307.496 155.5,306.5C 167.563,301.701 179.897,297.701 192.5,294.5 Z"/></g>
<g><path style="opacity:1" fill="#89674a" d="M 85.5,298.5 C 86.5,298.5 87.5,298.5 88.5,298.5C 91.8333,299.833 95.1667,301.167 98.5,302.5C 102.571,303.356 106.571,304.523 110.5,306C 113.888,306.659 117.221,306.492 120.5,305.5C 122.081,307.142 122.747,309.142 122.5,311.5C 114.5,311.5 106.5,311.5 98.5,311.5C 100.319,310.064 100.652,308.397 99.5,306.5C 94.9631,304.866 90.2964,303.866 85.5,303.5C 84.1667,301.833 84.1667,300.167 85.5,298.5 Z"/></g>
<g><path style="opacity:1" fill="#392523" d="M 199.5,300.5 C 202.598,301.216 205.598,302.216 208.5,303.5C 208.5,304.167 208.5,304.833 208.5,305.5C 205.924,306.056 203.257,306.223 200.5,306C 199.464,307.776 199.464,309.609 200.5,311.5C 198.5,311.5 196.5,311.5 194.5,311.5C 194.396,309.297 193.73,307.297 192.5,305.5C 194.619,303.6 196.953,301.934 199.5,300.5 Z"/></g>
<g><path style="opacity:1" fill="#c7a26f" d="M 133.5,301.5 C 139.044,301.792 144.044,303.459 148.5,306.5C 141.781,308.405 134.781,309.071 127.5,308.5C 127.351,307.448 127.517,306.448 128,305.5C 130.167,304.512 132,303.179 133.5,301.5 Z"/></g>
<g><path style="opacity:1" fill="#c09c63" d="M 85.5,303.5 C 90.2964,303.866 94.9631,304.866 99.5,306.5C 100.652,308.397 100.319,310.064 98.5,311.5C 94.8333,311.5 91.1667,311.5 87.5,311.5C 87.3893,310.883 87.056,310.383 86.5,310C 84.5273,309.505 82.5273,309.338 80.5,309.5C 80.6871,306.31 82.3538,304.31 85.5,303.5 Z"/></g>
<g><path style="opacity:1" fill="#a88858" d="M 192.5,305.5 C 193.73,307.297 194.396,309.297 194.5,311.5C 186.5,311.5 178.5,311.5 170.5,311.5C 171.456,310.341 172.456,309.174 173.5,308C 173.257,307.098 172.923,306.265 172.5,305.5C 177.369,302.228 182.703,300.395 188.5,300C 189.833,300.667 189.833,301.333 188.5,302C 185.804,302.765 183.304,303.932 181,305.5C 180.517,306.448 180.351,307.448 180.5,308.5C 185.071,309.127 189.071,308.127 192.5,305.5 Z"/></g>
<g><path style="opacity:1" fill="#7d5a3f" d="M 35.5,301.5 C 36.4959,301.414 37.3292,301.748 38,302.5C 39.0341,309.109 41.8674,310.109 46.5,305.5C 52.9225,305.861 59.2559,306.861 65.5,308.5C 67.5477,308.328 69.5477,307.995 71.5,307.5C 71.8333,308.833 72.1667,310.167 72.5,311.5C 60.8333,311.5 49.1667,311.5 37.5,311.5C 37.4971,308.325 36.4971,305.492 34.5,303C 35.056,302.617 35.3893,302.117 35.5,301.5 Z"/></g>
<g><path style="opacity:1" fill="#a7895c" d="M 208.5,305.5 C 208.953,306.458 209.619,307.292 210.5,308C 214.848,308.415 219.181,308.249 223.5,307.5C 223.167,308.833 222.833,310.167 222.5,311.5C 215.167,311.5 207.833,311.5 200.5,311.5C 199.464,309.609 199.464,307.776 200.5,306C 203.257,306.223 205.924,306.056 208.5,305.5 Z"/></g>
<g><path style="opacity:1" fill="#96714d" d="M 129.5,298.5 C 131.404,298.738 132.738,299.738 133.5,301.5C 132,303.179 130.167,304.512 128,305.5C 127.517,306.448 127.351,307.448 127.5,308.5C 134.781,309.071 141.781,308.405 148.5,306.5C 150.833,306.5 153.167,306.5 155.5,306.5C 155.414,307.496 155.748,308.329 156.5,309C 157.833,309.167 159.167,309.333 160.5,309.5C 164.696,308.734 168.696,307.401 172.5,305.5C 172.923,306.265 173.257,307.098 173.5,308C 172.456,309.174 171.456,310.341 170.5,311.5C 154.5,311.5 138.5,311.5 122.5,311.5C 122.747,309.142 122.081,307.142 120.5,305.5C 122.7,303.36 125.367,301.86 128.5,301C 129.252,300.329 129.586,299.496 129.5,298.5 Z"/></g>
</svg>
