<?xml version="1.0" encoding="UTF-8" standalone="no"?>
<svg
   width="364.0"
   height="838.16"
   viewBox="237.0 109.84 364.0 838.16"
   version="1.1"
   id="svg200"
   sodipodi:docname="face_06.svg"
   inkscape:version="1.2 (dc2aeda, 2022-05-15)"
   xmlns:inkscape="http://www.inkscape.org/namespaces/inkscape"
   xmlns:sodipodi="http://sodipodi.sourceforge.net/DTD/sodipodi-0.dtd"
   xmlns="http://www.w3.org/2000/svg"
   xmlns:svg="http://www.w3.org/2000/svg">
  <sodipodi:namedview
     id="namedview202"
     pagecolor="#ffffff"
     bordercolor="#000000"
     borderopacity="0.25"
     inkscape:showpageshadow="2"
     inkscape:pageopacity="0.0"
     inkscape:pagecheckerboard="0"
     inkscape:deskcolor="#d1d1d1"
     showgrid="false"
     inkscape:zoom="0.93104242"
     inkscape:cx="191.18355"
     inkscape:cy="292.14566"
     inkscape:window-width="1309"
     inkscape:window-height="456"
     inkscape:window-x="47"
     inkscape:window-y="34"
     inkscape:window-maximized="0"
     inkscape:current-layer="svg200" />
  <defs
     id="defs586" />
  <g
     transform="matrix(2.449367,0,0,2.449367,212.0285,298.6499)"
     id="g198">
    <g
       id="g145">
      <path
         style="clip-rule:evenodd;fill:#a6d2f0;fill-rule:evenodd"
         d="m 75.125,33.499 c -1.509,2.479 -3.596,10.636 0.952,9.419 5.113,-1.368 1.417,-10.223 -0.411,-9.809 z"
         id="path117" />
      <g
         id="g125">
        <path
           style="clip-rule:evenodd;fill:#ffffff;fill-rule:evenodd"
           d="m 46.825,54.264 c 2.53,-7.199 8.925,-10.338 16.054,-7.733 7.607,3.852 10.663,10.203 5.931,17.903 -3.727,6.064 -9.216,6.32 -15.365,4.107 -5.77,-2.7 -8.072,-8.154 -6.62,-14.277 z"
           id="path119" />
        <path
           style="clip-rule:evenodd;fill:#3a2018;fill-rule:evenodd"
           d="m 45.885,53.833 0.043,-0.122 c 1.372,-3.758 3.758,-6.471 6.753,-7.921 2.999,-1.451 6.583,-1.625 10.343,-0.303 l 0.203,0.074 c 0.04,0.015 0.079,0.031 0.115,0.05 0.631,0.317 1.218,0.644 1.758,0.976 3.17,1.949 5.398,4.406 6.404,7.274 1.015,2.896 0.773,6.157 -1.008,9.677 -0.249,0.49 -0.517,0.971 -0.805,1.438 -2.027,3.298 -4.561,5.023 -7.445,5.627 -2.812,0.587 -5.905,0.077 -9.15,-1.091 l -0.087,-0.036 c -3.08,-1.44 -5.251,-3.619 -6.477,-6.261 -1.251,-2.698 -1.502,-5.859 -0.713,-9.188 0.014,-0.068 0.036,-0.132 0.066,-0.194 z m 1.982,0.581 -0.042,0.113 c -0.674,2.864 -0.468,5.554 0.583,7.822 1.017,2.194 2.838,4.015 5.433,5.238 2.887,1.034 5.596,1.493 7.984,0.993 2.331,-0.487 4.405,-1.924 6.104,-4.689 0.276,-0.449 0.517,-0.878 0.723,-1.285 1.512,-2.983 1.734,-5.699 0.904,-8.067 -0.839,-2.394 -2.767,-4.486 -5.538,-6.189 -0.509,-0.313 -1.029,-0.605 -1.56,-0.874 l -0.113,-0.04 c -3.222,-1.132 -6.257,-1 -8.767,0.214 -2.514,1.216 -4.529,3.532 -5.711,6.764 z"
           id="path121" />
        <path
           style="clip-rule:evenodd;fill:#3a2018;fill-rule:evenodd"
           d="m 65.725,61.969 c -6.137,8.548 -18.588,1.538 -15.245,-7.525 2.238,-4.896 6.931,-6.539 11.717,-4.253 5.087,2.429 5.679,7.004 3.528,11.778 z"
           id="path123" />
      </g>
      <path
         style="clip-rule:evenodd;fill:#3a2018;fill-rule:evenodd"
         d="m 93.401,80.848 c 0.034,5.945 -5.946,3.257 -10.429,3.549 -8.707,0.567 -10.852,0.696 -7.851,-9.174 4.653,-15.311 17.64,-7.702 18.28,5.625 z"
         id="path127" />
      <path
         style="clip-rule:evenodd;fill:#cb4f41;fill-rule:evenodd"
         d="m 87.711,83.356 c -3.244,-0.089 -4.493,-0.275 -7.883,0.051 -6.466,0.621 -4.996,-4.681 -2.065,-6.279 3.395,-1.852 12.67,-2.067 14.251,2.691 1.005,3.024 -2.209,3.484 -4.303,3.537 z"
         id="path129" />
      <g
         id="g137">
        <path
           style="clip-rule:evenodd;fill:#ffffff;fill-rule:evenodd"
           d="m 116.345,47.84 c 6.452,4.029 7.561,11.749 3.284,17.7 -6.098,6.125 -12.69,7.013 -18.876,0.352 -4.312,-4.645 -3.889,-8.682 -1.605,-14.16 3.781,-6.361 10.953,-6.878 17.197,-3.892 z"
           id="path131" />
        <path
           style="clip-rule:evenodd;fill:#3a2018;fill-rule:evenodd"
           d="m 116.891,46.963 c 0.266,0.166 0.539,0.351 0.822,0.553 2.984,2.145 4.757,5.085 5.311,8.249 0.552,3.154 -0.108,6.522 -1.989,9.532 -0.167,0.267 -0.357,0.549 -0.57,0.844 -0.032,0.045 -0.068,0.087 -0.106,0.125 -0.262,0.265 -0.519,0.514 -0.769,0.747 -3.028,2.809 -6.194,4.402 -9.408,4.531 -3.243,0.129 -6.466,-1.224 -9.564,-4.308 -0.213,-0.212 -0.421,-0.428 -0.621,-0.642 -2.332,-2.515 -3.388,-4.892 -3.551,-7.406 -0.16,-2.46 0.549,-4.979 1.748,-7.853 0.018,-0.046 0.04,-0.088 0.064,-0.129 l 0.009,-0.016 c 1.945,-3.261 4.719,-5.111 7.827,-5.814 3.41,-0.771 7.2,-0.139 10.696,1.534 0.035,0.016 0.067,0.035 0.1,0.053 z m -0.384,2.226 c -0.202,-0.145 -0.428,-0.296 -0.677,-0.453 -3.072,-1.453 -6.361,-2.008 -9.284,-1.347 -2.556,0.58 -4.85,2.109 -6.476,4.809 -1.066,2.573 -1.699,4.792 -1.564,6.86 0.132,2.035 1.023,3.998 3.003,6.129 0.193,0.21 0.383,0.405 0.563,0.587 2.663,2.65 5.365,3.816 8.028,3.709 2.693,-0.108 5.417,-1.507 8.082,-3.982 0.226,-0.21 0.446,-0.421 0.659,-0.634 0.145,-0.205 0.291,-0.426 0.439,-0.662 1.604,-2.57 2.172,-5.424 1.706,-8.084 -0.464,-2.65 -1.958,-5.12 -4.479,-6.932 z"
           id="path133" />
        <path
           style="clip-rule:evenodd;fill:#3a2018;fill-rule:evenodd"
           d="m 103.068,52.916 c 6.958,-7.584 18.951,0.335 14.105,9.622 -5.819,9.234 -20.374,0.808 -14.685,-8.658 z"
           id="path135" />
      </g>
      <path
         style="clip-rule:evenodd;fill:#3a2018;fill-rule:evenodd"
         d="m 72.161,39.199 c 0.034,-0.569 0.522,-1.002 1.09,-0.97 0.57,0.033 1.004,0.522 0.971,1.092 -0.09,1.434 0.245,2.273 0.732,2.611 0.201,0.138 0.444,0.182 0.69,0.138 0.298,-0.053 0.607,-0.228 0.881,-0.516 0.771,-0.81 1.212,-2.397 0.612,-4.675 l -0.18,-0.682 c -0.145,-0.552 0.185,-1.116 0.736,-1.261 0.551,-0.146 1.116,0.185 1.261,0.734 l 0.18,0.682 c 0.812,3.082 0.082,5.368 -1.113,6.623 -0.59,0.619 -1.3,1.003 -2.022,1.131 -0.772,0.138 -1.551,-0.015 -2.218,-0.479 -1.035,-0.714 -1.76,-2.173 -1.62,-4.428 z"
         id="path139" />
      <path
         style="clip-rule:evenodd;fill:#a6d2f0;fill-rule:evenodd"
         d="m 86.118,51.119 c -5.236,-0.773 -1.893,-9.903 -0.029,-9.7 2.29,1.277 4.788,10.402 0.029,9.7 z"
         id="path141" />
      <path
         style="clip-rule:evenodd;fill:#3a2018;fill-rule:evenodd"
         d="m 87.548,47.333 c -0.097,-0.563 0.279,-1.099 0.842,-1.197 0.563,-0.099 1.099,0.278 1.197,0.841 0.397,2.223 -0.159,3.755 -1.106,4.586 -0.61,0.535 -1.366,0.775 -2.15,0.728 -0.733,-0.045 -1.483,-0.344 -2.138,-0.89 L 84.132,51.345 C 82.833,50.217 81.883,48.049 82.33,44.949 l 0.1,-0.697 c 0.081,-0.565 0.604,-0.958 1.168,-0.877 0.566,0.08 0.959,0.603 0.878,1.167 l -0.101,0.697 c -0.329,2.293 0.263,3.807 1.096,4.537 l 0.048,0.038 c 0.308,0.257 0.634,0.396 0.934,0.414 0.25,0.015 0.485,-0.057 0.67,-0.218 0.444,-0.39 0.679,-1.262 0.425,-2.677 z"
         id="path143" />
    </g>
  </g>
</svg>
