<?xml version="1.0" encoding="UTF-8" standalone="no"?>
<svg
   width="364.0"
   height="838.16"
   viewBox="237.0 109.84 364.0 838.16"
   version="1.1"
   id="svg432"
   sodipodi:docname="face_11.svg"
   inkscape:version="1.2 (dc2aeda, 2022-05-15)"
   xmlns:inkscape="http://www.inkscape.org/namespaces/inkscape"
   xmlns:sodipodi="http://sodipodi.sourceforge.net/DTD/sodipodi-0.dtd"
   xmlns="http://www.w3.org/2000/svg"
   xmlns:svg="http://www.w3.org/2000/svg">
  <sodipodi:namedview
     id="namedview434"
     pagecolor="#ffffff"
     bordercolor="#000000"
     borderopacity="0.25"
     inkscape:showpageshadow="2"
     inkscape:pageopacity="0.0"
     inkscape:pagecheckerboard="0"
     inkscape:deskcolor="#d1d1d1"
     showgrid="false"
     inkscape:zoom="0.83792941"
     inkscape:cx="198.10738"
     inkscape:cy="360.41222"
     inkscape:window-width="1309"
     inkscape:window-height="456"
     inkscape:window-x="47"
     inkscape:window-y="34"
     inkscape:window-maximized="0"
     inkscape:current-layer="svg432" />
  <defs
     id="defs586" />
  <g
     transform="matrix(2.1885193,0,0,2.4176254,233.97302,-257.52773)"
     id="g430">
    <g
       id="g253">
      <path
         style="clip-rule:evenodd;fill:#3a2018;fill-rule:evenodd"
         d="m 65.55,297.284 c -3.14,4.295 -9.168,5.231 -13.463,2.091 -4.296,-3.143 -5.231,-9.17 -2.09,-13.466 2.13,-2.914 6.919,-3.962 10.862,-2.634 5.403,1.817 9.42,7.542 4.691,14.009 z"
         id="path237" />
      <path
         style="clip-rule:evenodd;fill:#3a2018;fill-rule:evenodd"
         d="m 119.099,277.213 c 0.542,-0.171 1.122,0.127 1.294,0.671 0.171,0.542 -0.13,1.12 -0.671,1.294 -2.343,0.746 -5.524,1.151 -8.827,0.453 -2.556,-0.542 -5.184,-1.735 -7.556,-3.928 -0.42,-0.387 -0.447,-1.041 -0.061,-1.46 0.386,-0.419 1.041,-0.446 1.46,-0.06 2.073,1.915 4.358,2.955 6.578,3.424 2.917,0.619 5.721,0.261 7.783,-0.394 z"
         id="path239" />
      <path
         style="clip-rule:evenodd;fill:#ffffff;fill-rule:evenodd"
         d="m 63.623,286.59 c -1.63,-0.632 -3.463,0.179 -4.095,1.808 -0.632,1.631 0.177,3.464 1.808,4.097 1.63,0.631 3.462,-0.179 4.095,-1.809 0.632,-1.63 -0.178,-3.464 -1.808,-4.096 z"
         id="path241" />
      <path
         style="clip-rule:evenodd;fill:#3a2018;fill-rule:evenodd"
         d="m 51.716,278.149 c -0.542,0.178 -1.127,-0.118 -1.305,-0.66 -0.179,-0.543 0.116,-1.127 0.659,-1.306 3.871,-1.277 6.953,-1.158 9.637,0.004 2.641,1.142 4.817,3.271 6.944,6.046 0.346,0.454 0.259,1.102 -0.194,1.448 -0.453,0.346 -1.101,0.258 -1.447,-0.196 -1.931,-2.518 -3.863,-4.431 -6.119,-5.406 -2.216,-0.958 -4.824,-1.036 -8.175,0.07 z"
         id="path243" />
      <path
         style="clip-rule:evenodd;fill:#3a2018;fill-rule:evenodd"
         d="m 101.647,295.472 c 2.094,4.893 7.757,7.161 12.649,5.065 4.892,-2.095 7.159,-7.759 5.064,-12.649 -1.421,-3.319 -5.851,-5.417 -9.992,-5.013 -5.672,0.558 -10.875,5.232 -7.721,12.597 z"
         id="path245" />
      <path
         style="clip-rule:evenodd;fill:#ffffff;fill-rule:evenodd"
         d="m 115.856,286.59 c -1.63,-0.632 -3.464,0.179 -4.095,1.808 -0.631,1.631 0.178,3.464 1.808,4.097 1.63,0.631 3.464,-0.179 4.095,-1.809 0.632,-1.63 -0.178,-3.464 -1.808,-4.096 z"
         id="path247" />
      <path
         style="clip-rule:evenodd;fill:#3a2018;fill-rule:evenodd"
         d="m 94.828,302.529 c -10.065,-7.044 -14.251,4.078 -21.737,2.313 -4.666,-1.095 -6.57,6.991 -1.819,9.242 5.76,2.728 9.187,-2.565 12.833,-1.406 13.01,4.131 18.483,-4.717 10.723,-10.149 z"
         id="path249" />
      <path
         style="clip-rule:evenodd;fill:#cb4f41;fill-rule:evenodd"
         d="m 72.478,312.934 c 4.387,-8.209 17.007,-7.683 22.738,-1.695 0,0 -3.473,1.922 -6.987,1.013 -3.514,-0.908 -6.264,-1.28 -8.124,-0.66 -1.859,0.619 -5.745,3.017 -7.627,1.342 z"
         id="path251" />
    </g>
  </g>
</svg>
