<?xml version="1.0" encoding="UTF-8" standalone="no"?>
<svg
   width="364.0"
   height="838.16"
   viewBox="237.0 109.84 364.0 838.16"
   version="1.1"
   id="svg22"
   sodipodi:docname="face_08.svg"
   inkscape:version="1.2 (dc2aeda, 2022-05-15)"
   xmlns:inkscape="http://www.inkscape.org/namespaces/inkscape"
   xmlns:sodipodi="http://sodipodi.sourceforge.net/DTD/sodipodi-0.dtd"
   xmlns="http://www.w3.org/2000/svg"
   xmlns:svg="http://www.w3.org/2000/svg">
  <sodipodi:namedview
     id="namedview24"
     pagecolor="#ffffff"
     bordercolor="#000000"
     borderopacity="0.25"
     inkscape:showpageshadow="2"
     inkscape:pageopacity="0.0"
     inkscape:pagecheckerboard="0"
     inkscape:deskcolor="#d1d1d1"
     showgrid="false"
     inkscape:zoom="3.8719208"
     inkscape:cx="152.37915"
     inkscape:cy="380.6896"
     inkscape:window-width="1309"
     inkscape:window-height="456"
     inkscape:window-x="47"
     inkscape:window-y="34"
     inkscape:window-maximized="0"
     inkscape:current-layer="g203" />
  <defs
     id="defs586" />
  <g
     transform="translate(-598.7120 113.9252) scale(2.449367)"
     id="g20">
    <g
       id="g203">
      <path
         style="fill-rule:evenodd;clip-rule:evenodd;fill:#3A2018;"
         d="M425.384,145.206c-5.284,21.416-13.796,18.112-18.634-1.292    c4.308,0.997,6.273,0.401,9.416-1.416C418.789,144.845,423.513,145.343,425.384,145.206z"
         id="path171" />
      <path
         style="fill-rule:evenodd;clip-rule:evenodd;fill:#CB4F41;"
         d="M392.202,141.058c0,0-11.704-6.984-13.947-14.063    c-2.485-7.842,7.487-16.293,13.776-2.265c6.08-12.16,19.071-8.298,11.745,3.408C399.834,134.439,392.202,141.058,392.202,141.058z    "
         id="path173" />
      <path
         style="fill-rule:evenodd;clip-rule:evenodd;fill:#DC98AB;"
         d="M392.202,141.058c0,0-11.704-6.984-13.947-14.063    c-2.485-7.842,7.487-16.293,13.776-2.265c6.08-12.16,19.071-8.298,11.745,3.408C399.834,134.439,392.202,141.058,392.202,141.058z    "
         id="path175" />
      <path
         style="fill-rule:evenodd;clip-rule:evenodd;fill:#3A2018;"
         d="M391.673,141.942c-0.035-0.02-12.042-7.185-14.404-14.635    c-1.008-3.178-0.187-6.455,1.606-8.607c0.774-0.929,1.729-1.654,2.803-2.085c1.098-0.441,2.31-0.574,3.567-0.304    c2.303,0.496,4.747,2.357,6.847,6.212c2.468-3.917,5.693-5.876,8.462-6.222c1.273-0.158,2.472,0.022,3.486,0.507    c1.05,0.502,1.887,1.321,2.399,2.422c1.01,2.164,0.731,5.429-1.786,9.452c-4.022,6.43-11.751,13.13-11.772,13.15    C392.536,142.135,392.046,142.166,391.673,141.942L391.673,141.942z M379.24,126.684c1.825,5.752,10.425,11.548,12.853,13.09    c1.821-1.643,7.581-7.028,10.807-12.182c2.096-3.35,2.402-5.905,1.665-7.49c-0.305-0.656-0.799-1.14-1.414-1.435    c-0.651-0.312-1.456-0.422-2.347-0.312c-2.554,0.318-5.64,2.434-7.833,6.801c-0.102,0.222-0.28,0.408-0.52,0.515    c-0.52,0.233-1.129-0.002-1.362-0.522c-1.964-4.382-4.226-6.378-6.272-6.817c-0.839-0.181-1.645-0.093-2.37,0.198    c-0.753,0.301-1.43,0.818-1.986,1.485C379.082,121.672,378.457,124.207,379.24,126.684z"
         id="path177" />
      <path
         style="fill-rule:evenodd;clip-rule:evenodd;fill:#CB4F41;"
         d="M439.786,123.804c-6.64-9.629-17.542-7.073-12.412,2.756    c2.792,5.352,9.457,11.366,13.236,13.349c3.729-1.125,8.89-7.056,11.441-11.551C458.094,117.72,444.688,117.141,439.786,123.804z"
         id="path179" />
      <path
         style="fill-rule:evenodd;clip-rule:evenodd;fill:#DC98AB;"
         d="M439.786,123.804c-6.64-9.629-17.542-7.073-12.412,2.756    c2.792,5.352,9.457,11.366,13.236,13.349c3.729-1.125,8.89-7.056,11.441-11.551C458.094,117.72,444.688,117.141,439.786,123.804z"
         id="path181" />
      <path
         style="fill-rule:evenodd;clip-rule:evenodd;fill:#3A2018;"
         d="M438.915,124.359c-2.507-3.62-5.605-5.37-8.072-5.558    c-0.837-0.063-1.582,0.055-2.18,0.341c-0.552,0.266-0.988,0.683-1.258,1.242c-0.597,1.233-0.444,3.155,0.883,5.7    c1.232,2.363,3.272,4.88,5.476,7.103c2.422,2.443,5.014,4.504,6.936,5.598c1.467-0.573,3.186-1.927,4.856-3.614    c2.195-2.215,4.266-4.971,5.6-7.321c1.457-2.567,1.676-4.392,1.134-5.566c-0.268-0.58-0.737-1.015-1.338-1.309    c-0.669-0.327-1.499-0.489-2.407-0.495c-2.732-0.015-6.032,1.363-7.925,3.935c-0.337,0.46-0.984,0.56-1.443,0.222    C439.069,124.558,438.982,124.464,438.915,124.359L438.915,124.359z M430.996,116.739c2.749,0.21,6.081,1.923,8.844,5.404    c2.351-2.445,5.799-3.741,8.712-3.725c1.213,0.006,2.35,0.238,3.306,0.704c1.02,0.499,1.831,1.261,2.307,2.293    c0.806,1.748,0.617,4.226-1.215,7.451c-1.414,2.495-3.607,5.416-5.929,7.759c-2.045,2.063-4.218,3.703-6.111,4.273l-0.001-0.003    c-0.249,0.075-0.525,0.057-0.774-0.074c-2.128-1.117-5.107-3.431-7.833-6.181c-2.331-2.351-4.504-5.04-5.841-7.605    c-1.665-3.192-1.776-5.77-0.914-7.553c0.48-0.992,1.253-1.735,2.228-2.203C428.704,116.837,429.806,116.648,430.996,116.739z"
         id="path183" />
      <path
         style="fill-rule:evenodd;clip-rule:evenodd;fill:#3A2018;"
         d="M404.32,138.288c0.295-0.489,0.931-0.646,1.419-0.351    c0.488,0.294,0.646,0.93,0.352,1.418c-0.539,0.893-0.713,1.593-0.615,2.124c0.079,0.434,0.373,0.794,0.809,1.075    c0.535,0.347,1.271,0.578,2.109,0.698c2.188,0.308,4.921-0.151,6.767-1.291c0.306-0.189,0.67-0.198,0.974-0.059    c2.342,1.086,6.248,2.279,9.088,2.274c0.919-0.001,1.693-0.128,2.195-0.43c0.35-0.211,0.552-0.557,0.535-1.074    c-0.025-0.895-0.559-2.192-1.785-4.002c-0.318-0.471-0.195-1.112,0.274-1.432c0.473-0.318,1.113-0.195,1.432,0.275    c1.465,2.161,2.103,3.83,2.142,5.103c0.041,1.367-0.538,2.302-1.532,2.899c-0.84,0.507-1.977,0.721-3.261,0.722    c-2.961,0.005-6.9-1.13-9.466-2.243c-2.214,1.179-5.223,1.644-7.646,1.302c-1.126-0.16-2.15-0.493-2.951-1.012    c-0.9-0.584-1.522-1.392-1.713-2.435C403.26,140.834,403.501,139.644,404.32,138.288z"
         id="path185" />
      <path
         style="fill-rule:evenodd;clip-rule:evenodd;fill:#3A2018;"
         d="M405.748,144.161c-0.137-0.553,0.201-1.113,0.756-1.249    c0.553-0.135,1.113,0.203,1.249,0.757c0.724,2.9,1.821,6.842,3.351,10.028c1.412,2.939,3.162,5.218,5.228,5.218    c2.07,0,3.688-1.948,4.968-4.557c1.392-2.844,2.36-6.468,3.084-9.397c0.135-0.553,0.694-0.893,1.248-0.756    c0.554,0.135,0.892,0.695,0.757,1.249c-0.746,3.024-1.751,6.774-3.238,9.81c-1.604,3.275-3.777,5.721-6.818,5.721    c-3.048,0-5.354-2.794-7.087-6.398C407.629,151.225,406.492,147.151,405.748,144.161z"
         id="path187" />
      <path
         style="fill-rule:evenodd;clip-rule:evenodd;fill:#CB4F41;"
         d="M410.602,154.162c-1.624-4.454,14.078-6.334,11.441,0.261    C419.279,161.335,412.895,160.456,410.602,154.162z"
         id="path201" />
    </g>
  </g>
</svg>
