<svg xmlns="http://www.w3.org/2000/svg" viewBox="0 0 24 24">
  <g id="icon" fill="none" stroke="currentColor" stroke-width="1.8" stroke-linecap="round" stroke-linejoin="round">
    <path d="M11.983 3.5l1.2 1.7a6.9 6.9 0 0 1 2.16.9l1.96-.64 1.5 2.6-1.4 1.46c.2.7.3 1.4.3 2.18s-.1 1.48-.3 2.18l1.4 1.46-1.5 2.6-1.96-.64a6.9 6.9 0 0 1-2.16.9l-1.2 1.7h-3l-1.2-1.7a6.9 6.9 0 0 1-2.16-.9l-1.96.64-1.5-2.6 1.4-1.46a7.6 7.6 0 0 1-.3-2.18c0-.78.1-1.48.3-2.18l-1.4-1.46 1.5-2.6 1.96.64a6.9 6.9 0 0 1 2.16-.9l1.2-1.7h3z" />
    <circle cx="12" cy="12" r="3.3" />
  </g>
</svg>
