<?xml version="1.0" encoding="UTF-8" standalone="no"?>
<svg
   viewBox="0 0 24 24"
   version="1.1"
   id="svg1218"
   sodipodi:docname="tab-inventory.svg"
   inkscape:version="1.2 (dc2aeda, 2022-05-15)"
   xmlns:inkscape="http://www.inkscape.org/namespaces/inkscape"
   xmlns:sodipodi="http://sodipodi.sourceforge.net/DTD/sodipodi-0.dtd"
   xmlns="http://www.w3.org/2000/svg"
   xmlns:svg="http://www.w3.org/2000/svg">
  <defs
     id="defs1222" />
  <sodipodi:namedview
     id="namedview1220"
     pagecolor="#ffffff"
     bordercolor="#000000"
     borderopacity="0.25"
     inkscape:showpageshadow="2"
     inkscape:pageopacity="0.0"
     inkscape:pagecheckerboard="0"
     inkscape:deskcolor="#d1d1d1"
     showgrid="false"
     inkscape:zoom="9.8333333"
     inkscape:cx="12"
     inkscape:cy="12"
     inkscape:window-width="1309"
     inkscape:window-height="456"
     inkscape:window-x="47"
     inkscape:window-y="34"
     inkscape:window-maximized="0"
     inkscape:current-layer="svg1218" />
  <g
     id="icon"
     fill="none"
     stroke="currentColor"
     stroke-width="2"
     stroke-linejoin="round"
     transform="translate(0,1.0847458)">
    <path
       d="m 21,12.4984 h -7 m -11,0 h 7 M 7,4.5 V 19.4984 M 17,4.5 V 19.4984 M 6.2,19.5 h 11.6 c 1.1201,0 1.6802,0 2.108,-0.218 0.3763,-0.1917 0.6823,-0.4977 0.874,-0.874 C 21,17.9802 21,17.4201 21,16.3 V 10.9 C 21,8.65979 21,7.53968 20.564,6.68404 20.1805,5.93139 19.5686,5.31947 18.816,4.93597 17.9603,4.5 16.8402,4.5 14.6,4.5 H 9.4 C 7.15979,4.5 6.03968,4.5 5.18404,4.93597 4.43139,5.31947 3.81947,5.93139 3.43597,6.68404 3,7.53968 3,8.65979 3,10.9 v 5.4 c 0,1.1201 0,1.6802 0.21799,2.108 0.19174,0.3763 0.4977,0.6823 0.87403,0.874 C 4.51984,19.5 5.07989,19.5 6.2,19.5 Z M 10,10.4984 h 4 v 4 h -4 z"
       id="path1215" />
  </g>
</svg>
