<?xml version="1.0" encoding="UTF-8" standalone="no"?>
<svg
   width="364.0"
   height="838.16"
   viewBox="237.0 109.84 364.0 838.16"
   version="1.1"
   id="svg23"
   sodipodi:docname="face_16.svg"
   inkscape:version="1.2 (dc2aeda, 2022-05-15)"
   xmlns:inkscape="http://www.inkscape.org/namespaces/inkscape"
   xmlns:sodipodi="http://sodipodi.sourceforge.net/DTD/sodipodi-0.dtd"
   xmlns="http://www.w3.org/2000/svg"
   xmlns:svg="http://www.w3.org/2000/svg">
  <sodipodi:namedview
     id="namedview25"
     pagecolor="#ffffff"
     bordercolor="#000000"
     borderopacity="0.25"
     inkscape:showpageshadow="2"
     inkscape:pageopacity="0.0"
     inkscape:pagecheckerboard="0"
     inkscape:deskcolor="#d1d1d1"
     showgrid="false"
     inkscape:zoom="1.5065301"
     inkscape:cx="141.3845"
     inkscape:cy="314.63029"
     inkscape:window-width="1309"
     inkscape:window-height="456"
     inkscape:window-x="47"
     inkscape:window-y="34"
     inkscape:window-maximized="0"
     inkscape:current-layer="g373" />
  <defs
     id="defs586" />
  <g
     transform="matrix(2.480769,0,0,2.480769,-613,-96.2028)"
     id="g21">
    <g
       id="g373">
      <path
         style="clip-rule:evenodd;fill:#3a2018;fill-rule:evenodd"
         d="m 406.477,210.747 c 0,5.457 -4.423,9.88 -9.88,9.88 -5.456,0 -9.88,-4.423 -9.88,-9.88 z"
         id="path339" />
      <path
         style="clip-rule:evenodd;fill:#ffffff;fill-rule:evenodd"
         d="m 397.176,210.247 c -1.673,5.835 8.379,5.833 6.831,0.055 z"
         id="path341" />
      <path
         style="clip-rule:evenodd;fill:#3a2018;fill-rule:evenodd"
         d="m 405.836,209.727 c 0.563,0.095 0.942,0.627 0.85,1.19 -0.096,0.562 -0.627,0.942 -1.19,0.849 -2.282,-0.38 -7.664,-0.72 -13.252,-0.701 -4.192,0.015 -8.495,0.231 -11.675,0.785 -0.565,0.097 -1.098,-0.282 -1.192,-0.845 -0.097,-0.563 0.282,-1.097 0.846,-1.192 3.275,-0.571 7.706,-0.794 12.022,-0.81 5.707,-0.019 11.232,0.332 13.591,0.724 z"
         id="path343" />
      <path
         style="clip-rule:evenodd;fill:#3a2018;fill-rule:evenodd"
         d="m 432.918,210.747 c 0,5.457 4.425,9.88 9.882,9.88 5.455,0 9.879,-4.423 9.879,-9.88 z"
         id="path345" />
      <path
         style="clip-rule:evenodd;fill:#ffffff;fill-rule:evenodd"
         d="m 451.493,210.827 c 0.622,5.559 -8.381,4.831 -6.946,-0.525 z"
         id="path347" />
      <path
         style="clip-rule:evenodd;fill:#3a2018;fill-rule:evenodd"
         d="m 426.779,211.766 c -0.564,0.094 -1.096,-0.287 -1.189,-0.849 -0.094,-0.564 0.286,-1.096 0.849,-1.19 2.36,-0.391 7.884,-0.743 13.594,-0.724 4.314,0.016 8.745,0.239 12.022,0.81 0.563,0.096 0.941,0.629 0.845,1.192 -0.096,0.563 -0.629,0.941 -1.192,0.845 -3.179,-0.554 -7.483,-0.77 -11.674,-0.785 -5.592,-0.019 -10.973,0.32 -13.255,0.701 z"
         id="path349" />
      <path
         style="clip-rule:evenodd;fill:#3a2018;fill-rule:evenodd"
         d="m 378.451,200.233 c -0.813,-0.267 -1.257,-1.146 -0.988,-1.958 0.268,-0.814 1.145,-1.257 1.96,-0.988 6.296,2.081 12.494,3.939 17.325,4.998 3.796,0.832 6.64,1.181 7.811,0.752 0.525,-0.19 1.175,-0.907 1.743,-1.533 0.22,-0.243 0.431,-0.475 0.683,-0.724 0.605,-0.603 1.586,-0.601 2.189,0.005 0.603,0.606 0.602,1.588 -0.006,2.189 -0.148,0.147 -0.355,0.377 -0.572,0.617 -0.805,0.885 -1.725,1.898 -2.981,2.357 -1.776,0.651 -5.194,0.318 -9.52,-0.63 -4.962,-1.089 -11.265,-2.976 -17.644,-5.085 z"
         id="path351" />
      <path
         style="clip-rule:evenodd;fill:#3a2018;fill-rule:evenodd"
         d="m 451.794,194.379 c 0.758,-0.399 1.693,-0.108 2.093,0.649 0.397,0.756 0.107,1.693 -0.648,2.092 -5.945,3.128 -11.852,6.027 -16.563,7.914 -4.117,1.65 -7.438,2.542 -9.295,2.193 -1.301,-0.244 -2.38,-1.096 -3.323,-1.84 -0.219,-0.174 -0.432,-0.341 -0.668,-0.509 -0.696,-0.496 -0.859,-1.464 -0.364,-2.159 0.496,-0.697 1.463,-0.86 2.158,-0.364 0.222,0.157 0.5,0.376 0.79,0.606 0.659,0.52 1.413,1.116 1.978,1.223 1.227,0.23 3.97,-0.581 7.572,-2.023 4.593,-1.841 10.403,-4.695 16.27,-7.782 z"
         id="path353" />
      <path
         style="clip-rule:evenodd;fill:#3a2018;fill-rule:evenodd"
         d="m 411.468,223.783 c 0.524,-0.224 1.131,0.021 1.354,0.546 0.223,0.523 -0.021,1.131 -0.546,1.354 -0.011,0.006 -4.086,1.73 -5.982,4.027 0.012,0.037 0.232,-0.305 0.354,-0.23 0.532,0.323 1.372,0.67 2.415,1.026 3.476,1.182 8.99,2.368 13.168,3.18 0.561,0.107 0.928,0.649 0.821,1.21 -0.108,0.559 -0.648,0.927 -1.209,0.82 -4.246,-0.827 -9.861,-2.035 -13.443,-3.253 -1.177,-0.399 -2.155,-0.81 -2.827,-1.22 -1.059,-0.645 -1.528,-1.399 -1.214,-2.283 0.057,-0.158 0.145,-0.314 0.265,-0.464 l 0.002,0.002 c 2.203,-2.752 6.828,-4.709 6.842,-4.715 z"
         id="path355" />
      <path
         style="clip-rule:evenodd;fill:#3a2018;fill-rule:evenodd"
         d="m 419.968,206.114 c 0.146,0.246 0.064,0.562 -0.182,0.707 -0.246,0.146 -0.563,0.064 -0.708,-0.183 -0.537,-0.911 -1.001,-1.889 -1.293,-2.82 -0.267,-0.851 -0.39,-1.67 -0.302,-2.38 0.035,-0.284 0.293,-0.485 0.577,-0.451 0.282,0.035 0.484,0.293 0.45,0.576 -0.07,0.558 0.036,1.232 0.26,1.949 0.267,0.853 0.699,1.755 1.198,2.602 z"
         id="path357" />
      <path
         style="clip-rule:evenodd;fill:#3a2018;fill-rule:evenodd"
         d="m 413.039,205.663 c -0.146,0.246 -0.462,0.327 -0.708,0.182 -0.244,-0.144 -0.326,-0.462 -0.182,-0.708 0.5,-0.847 0.93,-1.75 1.196,-2.601 0.225,-0.716 0.33,-1.389 0.261,-1.949 -0.034,-0.282 0.167,-0.54 0.45,-0.576 0.283,-0.035 0.542,0.167 0.576,0.45 0.089,0.712 -0.034,1.531 -0.301,2.383 -0.29,0.93 -0.756,1.908 -1.292,2.819 z"
         id="path359" />
      <path
         style="clip-rule:evenodd;fill:#3a2018;fill-rule:evenodd"
         d="m 394.41,228.593 c -0.267,0.333 -0.757,0.385 -1.089,0.119 -0.333,-0.268 -0.387,-0.755 -0.118,-1.089 l 0.094,-0.117 c 0.462,-0.603 1.796,-2.338 4.256,-3.49 0.386,-0.18 0.846,-0.012 1.026,0.374 0.182,0.387 0.014,0.847 -0.373,1.028 -2.115,0.99 -3.28,2.506 -3.686,3.032 z"
         id="path363" />
      <path
         style="clip-rule:evenodd;fill:#3a2018;fill-rule:evenodd"
         d="m 387.678,228.783 c -0.212,0.373 -0.688,0.501 -1.058,0.288 -0.371,-0.212 -0.501,-0.687 -0.288,-1.058 0.406,-0.707 1.163,-1.626 2.121,-2.432 0.773,-0.65 1.684,-1.232 2.656,-1.581 0.402,-0.145 0.845,0.065 0.988,0.466 0.146,0.402 -0.066,0.845 -0.467,0.99 -0.787,0.282 -1.538,0.765 -2.184,1.308 -0.803,0.677 -1.436,1.439 -1.768,2.019 z"
         id="path365" />
      <path
         style="clip-rule:evenodd;fill:#3a2018;fill-rule:evenodd"
         d="m 435.161,228.328 c -0.233,0.359 -0.714,0.459 -1.072,0.225 -0.358,-0.234 -0.458,-0.715 -0.224,-1.073 0.406,-0.622 1.172,-1.498 2.337,-2.328 0.838,-0.597 1.888,-1.178 3.169,-1.626 0.405,-0.142 0.846,0.072 0.986,0.475 0.142,0.403 -0.073,0.845 -0.476,0.985 -1.126,0.396 -2.049,0.904 -2.783,1.427 -0.976,0.697 -1.607,1.413 -1.937,1.915 z"
         id="path367" />
      <path
         style="clip-rule:evenodd;fill:#3a2018;fill-rule:evenodd"
         d="m 442.093,228.783 c -0.213,0.373 -0.686,0.501 -1.058,0.288 -0.374,-0.212 -0.501,-0.687 -0.289,-1.058 0.404,-0.707 1.164,-1.626 2.122,-2.432 0.772,-0.65 1.684,-1.232 2.656,-1.581 0.402,-0.145 0.845,0.065 0.988,0.466 0.144,0.402 -0.064,0.845 -0.467,0.99 -0.788,0.282 -1.539,0.765 -2.184,1.308 -0.805,0.677 -1.435,1.439 -1.768,2.019 z"
         id="path371" />
    </g>
  </g>
</svg>
