<?xml version="1.0" encoding="UTF-8" standalone="no"?>
<svg
   width="364.0"
   height="838.16"
   viewBox="237.0 109.84 364.0 838.16"
   version="1.1"
   id="svg460"
   sodipodi:docname="face_10.svg"
   inkscape:version="1.2 (dc2aeda, 2022-05-15)"
   xmlns:inkscape="http://www.inkscape.org/namespaces/inkscape"
   xmlns:sodipodi="http://sodipodi.sourceforge.net/DTD/sodipodi-0.dtd"
   xmlns="http://www.w3.org/2000/svg"
   xmlns:svg="http://www.w3.org/2000/svg">
  <sodipodi:namedview
     id="namedview462"
     pagecolor="#ffffff"
     bordercolor="#000000"
     borderopacity="0.25"
     inkscape:showpageshadow="2"
     inkscape:pageopacity="0.0"
     inkscape:pagecheckerboard="0"
     inkscape:deskcolor="#d1d1d1"
     showgrid="false"
     inkscape:zoom="0.95954723"
     inkscape:cx="181.33553"
     inkscape:cy="411.65249"
     inkscape:window-width="1309"
     inkscape:window-height="456"
     inkscape:window-x="47"
     inkscape:window-y="34"
     inkscape:window-maximized="0"
     inkscape:current-layer="svg460" />
  <defs
     id="defs586" />
  <g
     transform="matrix(2.3952936,0,0,3.0404413,-46.887742,-200.52163)"
     id="g458">
    <g
       id="g235">
      <path
         style="clip-rule:evenodd;fill:#3a2018;fill-rule:evenodd"
         d="m 174.535,203.27 c 4.607,1.167 8.016,5.342 8.016,10.311 0,5.875 -4.763,10.637 -10.638,10.637 -5.874,0 -10.636,-4.762 -10.636,-10.637 0,-1.956 0.528,-3.787 1.448,-5.361 z"
         id="path221" />
      <path
         style="clip-rule:evenodd;fill:#3a2018;fill-rule:evenodd"
         d="m 189.731,228.445 c -0.002,0.569 -0.465,1.03 -1.035,1.027 -0.569,-0.003 -1.029,-0.466 -1.026,-1.035 0.004,-0.703 0.168,-1.297 0.464,-1.78 0.507,-0.834 1.347,-1.303 2.389,-1.447 0.884,-0.124 1.923,-0.005 3.01,0.32 1.953,0.582 4.14,1.861 5.869,3.607 0.398,0.407 0.395,1.062 -0.012,1.461 -0.406,0.399 -1.061,0.394 -1.46,-0.013 -1.477,-1.494 -3.335,-2.581 -4.988,-3.075 -0.812,-0.243 -1.55,-0.337 -2.136,-0.256 -0.427,0.06 -0.75,0.214 -0.91,0.477 -0.105,0.172 -0.163,0.409 -0.165,0.714 z"
         id="path223" />
      <path
         style="clip-rule:evenodd;fill:#3a2018;fill-rule:evenodd"
         d="m 160.922,209.462 c -0.564,0.074 -1.083,-0.323 -1.155,-0.888 -0.074,-0.564 0.325,-1.083 0.889,-1.157 0.027,-0.005 9.896,-1.24 16.428,-7.412 0.415,-0.392 1.069,-0.371 1.46,0.043 0.39,0.415 0.37,1.07 -0.045,1.461 -7.017,6.631 -17.547,7.949 -17.577,7.953 z"
         id="path225" />
      <path
         style="clip-rule:evenodd;fill:#3a2018;fill-rule:evenodd"
         d="m 214.262,203.27 c -4.607,1.167 -8.015,5.342 -8.015,10.311 0,5.875 4.762,10.637 10.637,10.637 5.874,0 10.636,-4.762 10.636,-10.637 0,-1.956 -0.528,-3.787 -1.448,-5.361 z"
         id="path227" />
      <path
         style="clip-rule:evenodd;fill:#ffffff;fill-rule:evenodd"
         d="m 221.075,208.752 c -2.036,0.545 -3.244,2.637 -2.698,4.673 0.546,2.035 2.637,3.244 4.674,2.697 2.035,-0.544 3.243,-2.637 2.697,-4.672 -0.546,-2.035 -2.637,-3.243 -4.673,-2.698 z"
         id="path229" />
      <path
         style="clip-rule:evenodd;fill:#3a2018;fill-rule:evenodd"
         d="m 228.255,207.545 c 0.569,0.036 1.002,0.526 0.966,1.095 -0.035,0.569 -0.526,1.003 -1.096,0.967 -2.617,-0.167 -6.618,-0.766 -10.771,-2.67 -2.897,-1.327 -5.866,-3.288 -8.482,-6.17 -0.385,-0.422 -0.353,-1.076 0.068,-1.459 0.422,-0.386 1.076,-0.354 1.46,0.068 2.413,2.659 5.145,4.464 7.811,5.685 3.861,1.772 7.597,2.328 10.044,2.484 z"
         id="path231" />
      <path
         style="clip-rule:evenodd;fill:#ffffff;fill-rule:evenodd"
         d="m 175.216,208.752 c -2.034,0.545 -3.243,2.637 -2.697,4.673 0.545,2.035 2.637,3.244 4.672,2.697 2.036,-0.544 3.244,-2.637 2.698,-4.672 -0.544,-2.035 -2.637,-3.243 -4.673,-2.698 z"
         id="path233" />
    </g>
  </g>
</svg>
